%TF.GenerationSoftware,KiCad,Pcbnew,(6.0.4)*%
%TF.CreationDate,2022-05-08T16:00:54-07:00*%
%TF.ProjectId,lta-logic-module,6c74612d-6c6f-4676-9963-2d6d6f64756c,rev?*%
%TF.SameCoordinates,PX1042990PY10b0760*%
%TF.FileFunction,Legend,Top*%
%TF.FilePolarity,Positive*%
%FSLAX46Y46*%
G04 Gerber Fmt 4.6, Leading zero omitted, Abs format (unit mm)*
G04 Created by KiCad (PCBNEW (6.0.4)) date 2022-05-08 16:00:54*
%MOMM*%
%LPD*%
G01*
G04 APERTURE LIST*
%ADD10C,0.150000*%
%ADD11C,0.120000*%
%ADD12C,0.127000*%
%ADD13C,0.200000*%
G04 APERTURE END LIST*
D10*
X67850000Y-73900000D02*
X68350000Y-73400000D01*
X67850000Y-72900000D02*
X67850000Y-73900000D01*
X68350000Y-73900000D02*
X68350000Y-73400000D01*
X67850000Y-72900000D02*
X68350000Y-73400000D01*
X68350000Y-72900000D02*
X68350000Y-73900000D01*
X68350000Y-73400000D02*
X68350000Y-72900000D01*
X68850000Y-73400000D02*
X68350000Y-73400000D01*
X65850000Y-73400000D02*
X68850000Y-73400000D01*
X26250000Y-4750000D02*
X26750000Y-4250000D01*
X24750000Y-29850000D02*
X25250000Y-30350000D01*
X14850000Y-79450000D02*
X15950000Y-78650000D01*
X25250000Y-29850000D02*
X25250000Y-30850000D01*
X14600000Y-76850000D02*
X16600000Y-78350000D01*
X19700000Y-77300000D02*
X19850000Y-76850000D01*
X19575000Y-76925000D02*
X19700000Y-77075000D01*
X16750000Y-79100000D02*
X16900000Y-78650000D01*
X18000005Y-64600002D02*
G75*
G03*
X17997074Y-63100000I-1587305J746902D01*
G01*
X38750000Y-9250000D02*
X41750000Y-9250000D01*
X16400000Y-78700000D02*
X16900000Y-78650000D01*
X18647074Y-64600000D02*
X18647074Y-63100000D01*
X15800000Y-79100000D02*
X15950000Y-78650000D01*
X19350000Y-76850000D02*
X19700000Y-77300000D01*
X25250000Y-30850000D02*
X25250000Y-30350000D01*
X15450000Y-78700000D02*
X15950000Y-78650000D01*
X50300000Y-22600000D02*
X50300000Y-23600000D01*
X24250000Y-4250000D02*
X27250000Y-4250000D01*
X41750000Y-9250000D02*
X41250000Y-9250000D01*
X18697074Y-63850000D02*
X19697074Y-63850000D01*
X15800000Y-79450000D02*
X16900000Y-78650000D01*
X26750000Y-4250000D02*
X26750000Y-3750000D01*
X17850000Y-78350000D02*
X19850000Y-76850000D01*
X41250000Y-8750000D02*
X41250000Y-9750000D01*
X27250000Y-4250000D02*
X26750000Y-4250000D01*
X40750000Y-8750000D02*
X40750000Y-9750000D01*
X26250000Y-3750000D02*
X26750000Y-4250000D01*
X40750000Y-8750000D02*
X41250000Y-9250000D01*
X18147074Y-63850000D02*
X16947074Y-63850000D01*
X49549997Y-21902931D02*
G75*
G03*
X51050000Y-21900000I746903J1587331D01*
G01*
X19350000Y-76850000D02*
X19850000Y-76850000D01*
X50300000Y-22050000D02*
X50300000Y-20850000D01*
X25750000Y-30350000D02*
X25250000Y-30350000D01*
X49550000Y-22550000D02*
X51050000Y-22550000D01*
X26750000Y-4750000D02*
X26750000Y-4250000D01*
X41250000Y-9250000D02*
X41250000Y-8750000D01*
X25250000Y-30350000D02*
X25250000Y-29850000D01*
X26750000Y-3750000D02*
X26750000Y-4750000D01*
X24750000Y-30850000D02*
X25250000Y-30350000D01*
X24750000Y-29850000D02*
X24750000Y-30850000D01*
X40750000Y-9750000D02*
X41250000Y-9250000D01*
X22750000Y-30350000D02*
X25750000Y-30350000D01*
X14850000Y-78350000D02*
X19100000Y-78350000D01*
X41250000Y-9750000D02*
X41250000Y-9250000D01*
X26250000Y-3750000D02*
X26250000Y-4750000D01*
X56676190Y-82452380D02*
X56676190Y-81452380D01*
X57009523Y-82166666D01*
X57342857Y-81452380D01*
X57342857Y-82452380D01*
X57771428Y-82166666D02*
X58247619Y-82166666D01*
X57676190Y-82452380D02*
X58009523Y-81452380D01*
X58342857Y-82452380D01*
X58676190Y-82452380D02*
X58676190Y-81452380D01*
X59247619Y-82452380D01*
X59247619Y-81452380D01*
X59723809Y-82357142D02*
X59771428Y-82404761D01*
X59723809Y-82452380D01*
X59676190Y-82404761D01*
X59723809Y-82357142D01*
X59723809Y-82452380D01*
X24100000Y-76428571D02*
X24052380Y-76523809D01*
X24052380Y-76666666D01*
X24100000Y-76809523D01*
X24195238Y-76904761D01*
X24290476Y-76952380D01*
X24480952Y-77000000D01*
X24623809Y-77000000D01*
X24814285Y-76952380D01*
X24909523Y-76904761D01*
X25004761Y-76809523D01*
X25052380Y-76666666D01*
X25052380Y-76571428D01*
X25004761Y-76428571D01*
X24957142Y-76380952D01*
X24623809Y-76380952D01*
X24623809Y-76571428D01*
X24766666Y-76000000D02*
X24766666Y-75523809D01*
X25052380Y-76095238D02*
X24052380Y-75761904D01*
X25052380Y-75428571D01*
X25052380Y-75095238D02*
X24052380Y-75095238D01*
X25052380Y-74619047D02*
X24052380Y-74619047D01*
X25052380Y-74047619D01*
X24052380Y-74047619D01*
X7416666Y-7897380D02*
X7416666Y-6897380D01*
X7797619Y-6897380D01*
X7892857Y-6945000D01*
X7940476Y-6992619D01*
X7988095Y-7087857D01*
X7988095Y-7230714D01*
X7940476Y-7325952D01*
X7892857Y-7373571D01*
X7797619Y-7421190D01*
X7416666Y-7421190D01*
X8321428Y-6897380D02*
X8559523Y-7897380D01*
X8750000Y-7183095D01*
X8940476Y-7897380D01*
X9178571Y-6897380D01*
X10130952Y-7897380D02*
X9797619Y-7421190D01*
X9559523Y-7897380D02*
X9559523Y-6897380D01*
X9940476Y-6897380D01*
X10035714Y-6945000D01*
X10083333Y-6992619D01*
X10130952Y-7087857D01*
X10130952Y-7230714D01*
X10083333Y-7325952D01*
X10035714Y-7373571D01*
X9940476Y-7421190D01*
X9559523Y-7421190D01*
X6416666Y-8507380D02*
X7083333Y-8507380D01*
X6654761Y-9507380D01*
X7464285Y-9126428D02*
X8226190Y-9126428D01*
X8607142Y-8507380D02*
X9226190Y-8507380D01*
X8892857Y-8888333D01*
X9035714Y-8888333D01*
X9130952Y-8935952D01*
X9178571Y-8983571D01*
X9226190Y-9078809D01*
X9226190Y-9316904D01*
X9178571Y-9412142D01*
X9130952Y-9459761D01*
X9035714Y-9507380D01*
X8750000Y-9507380D01*
X8654761Y-9459761D01*
X8607142Y-9412142D01*
X9845238Y-8507380D02*
X9940476Y-8507380D01*
X10035714Y-8555000D01*
X10083333Y-8602619D01*
X10130952Y-8697857D01*
X10178571Y-8888333D01*
X10178571Y-9126428D01*
X10130952Y-9316904D01*
X10083333Y-9412142D01*
X10035714Y-9459761D01*
X9940476Y-9507380D01*
X9845238Y-9507380D01*
X9750000Y-9459761D01*
X9702380Y-9412142D01*
X9654761Y-9316904D01*
X9607142Y-9126428D01*
X9607142Y-8888333D01*
X9654761Y-8697857D01*
X9702380Y-8602619D01*
X9750000Y-8555000D01*
X9845238Y-8507380D01*
X10464285Y-8507380D02*
X10797619Y-9507380D01*
X11130952Y-8507380D01*
X51461904Y-82404761D02*
X51604761Y-82452380D01*
X51842857Y-82452380D01*
X51938095Y-82404761D01*
X51985714Y-82357142D01*
X52033333Y-82261904D01*
X52033333Y-82166666D01*
X51985714Y-82071428D01*
X51938095Y-82023809D01*
X51842857Y-81976190D01*
X51652380Y-81928571D01*
X51557142Y-81880952D01*
X51509523Y-81833333D01*
X51461904Y-81738095D01*
X51461904Y-81642857D01*
X51509523Y-81547619D01*
X51557142Y-81500000D01*
X51652380Y-81452380D01*
X51890476Y-81452380D01*
X52033333Y-81500000D01*
X52461904Y-81928571D02*
X52795238Y-81928571D01*
X52938095Y-82452380D02*
X52461904Y-82452380D01*
X52461904Y-81452380D01*
X52938095Y-81452380D01*
X53366666Y-82452380D02*
X53366666Y-81452380D01*
X53938095Y-82452380D01*
X53938095Y-81452380D01*
X54366666Y-82404761D02*
X54509523Y-82452380D01*
X54747619Y-82452380D01*
X54842857Y-82404761D01*
X54890476Y-82357142D01*
X54938095Y-82261904D01*
X54938095Y-82166666D01*
X54890476Y-82071428D01*
X54842857Y-82023809D01*
X54747619Y-81976190D01*
X54557142Y-81928571D01*
X54461904Y-81880952D01*
X54414285Y-81833333D01*
X54366666Y-81738095D01*
X54366666Y-81642857D01*
X54414285Y-81547619D01*
X54461904Y-81500000D01*
X54557142Y-81452380D01*
X54795238Y-81452380D01*
X54938095Y-81500000D01*
X83978571Y-86488095D02*
X84026190Y-86345238D01*
X84073809Y-86297619D01*
X84169047Y-86250000D01*
X84311904Y-86250000D01*
X84407142Y-86297619D01*
X84454761Y-86345238D01*
X84502380Y-86440476D01*
X84502380Y-86821428D01*
X83502380Y-86821428D01*
X83502380Y-86488095D01*
X83550000Y-86392857D01*
X83597619Y-86345238D01*
X83692857Y-86297619D01*
X83788095Y-86297619D01*
X83883333Y-86345238D01*
X83930952Y-86392857D01*
X83978571Y-86488095D01*
X83978571Y-86821428D01*
X83502380Y-85821428D02*
X84311904Y-85821428D01*
X84407142Y-85773809D01*
X84454761Y-85726190D01*
X84502380Y-85630952D01*
X84502380Y-85440476D01*
X84454761Y-85345238D01*
X84407142Y-85297619D01*
X84311904Y-85250000D01*
X83502380Y-85250000D01*
X83502380Y-84916666D02*
X83502380Y-84345238D01*
X84502380Y-84630952D02*
X83502380Y-84630952D01*
X83502380Y-84154761D02*
X83502380Y-83583333D01*
X84502380Y-83869047D02*
X83502380Y-83869047D01*
X83502380Y-83059523D02*
X83502380Y-82869047D01*
X83550000Y-82773809D01*
X83645238Y-82678571D01*
X83835714Y-82630952D01*
X84169047Y-82630952D01*
X84359523Y-82678571D01*
X84454761Y-82773809D01*
X84502380Y-82869047D01*
X84502380Y-83059523D01*
X84454761Y-83154761D01*
X84359523Y-83250000D01*
X84169047Y-83297619D01*
X83835714Y-83297619D01*
X83645238Y-83250000D01*
X83550000Y-83154761D01*
X83502380Y-83059523D01*
X84502380Y-82202380D02*
X83502380Y-82202380D01*
X84502380Y-81630952D01*
X83502380Y-81630952D01*
X84454761Y-81202380D02*
X84502380Y-81059523D01*
X84502380Y-80821428D01*
X84454761Y-80726190D01*
X84407142Y-80678571D01*
X84311904Y-80630952D01*
X84216666Y-80630952D01*
X84121428Y-80678571D01*
X84073809Y-80726190D01*
X84026190Y-80821428D01*
X83978571Y-81011904D01*
X83930952Y-81107142D01*
X83883333Y-81154761D01*
X83788095Y-81202380D01*
X83692857Y-81202380D01*
X83597619Y-81154761D01*
X83550000Y-81107142D01*
X83502380Y-81011904D01*
X83502380Y-80773809D01*
X83550000Y-80630952D01*
X11833333Y-85702380D02*
X11833333Y-84702380D01*
X12214285Y-84702380D01*
X12309523Y-84750000D01*
X12357142Y-84797619D01*
X12404761Y-84892857D01*
X12404761Y-85035714D01*
X12357142Y-85130952D01*
X12309523Y-85178571D01*
X12214285Y-85226190D01*
X11833333Y-85226190D01*
X12833333Y-85702380D02*
X12833333Y-84702380D01*
X12833333Y-85178571D02*
X13404761Y-85178571D01*
X13404761Y-85702380D02*
X13404761Y-84702380D01*
X14071428Y-84702380D02*
X14261904Y-84702380D01*
X14357142Y-84750000D01*
X14452380Y-84845238D01*
X14500000Y-85035714D01*
X14500000Y-85369047D01*
X14452380Y-85559523D01*
X14357142Y-85654761D01*
X14261904Y-85702380D01*
X14071428Y-85702380D01*
X13976190Y-85654761D01*
X13880952Y-85559523D01*
X13833333Y-85369047D01*
X13833333Y-85035714D01*
X13880952Y-84845238D01*
X13976190Y-84750000D01*
X14071428Y-84702380D01*
X14785714Y-84702380D02*
X15357142Y-84702380D01*
X15071428Y-85702380D02*
X15071428Y-84702380D01*
X15880952Y-84702380D02*
X16071428Y-84702380D01*
X16166666Y-84750000D01*
X16261904Y-84845238D01*
X16309523Y-85035714D01*
X16309523Y-85369047D01*
X16261904Y-85559523D01*
X16166666Y-85654761D01*
X16071428Y-85702380D01*
X15880952Y-85702380D01*
X15785714Y-85654761D01*
X15690476Y-85559523D01*
X15642857Y-85369047D01*
X15642857Y-85035714D01*
X15690476Y-84845238D01*
X15785714Y-84750000D01*
X15880952Y-84702380D01*
X16690476Y-85654761D02*
X16833333Y-85702380D01*
X17071428Y-85702380D01*
X17166666Y-85654761D01*
X17214285Y-85607142D01*
X17261904Y-85511904D01*
X17261904Y-85416666D01*
X17214285Y-85321428D01*
X17166666Y-85273809D01*
X17071428Y-85226190D01*
X16880952Y-85178571D01*
X16785714Y-85130952D01*
X16738095Y-85083333D01*
X16690476Y-84988095D01*
X16690476Y-84892857D01*
X16738095Y-84797619D01*
X16785714Y-84750000D01*
X16880952Y-84702380D01*
X17119047Y-84702380D01*
X17261904Y-84750000D01*
X17690476Y-85178571D02*
X18023809Y-85178571D01*
X18166666Y-85702380D02*
X17690476Y-85702380D01*
X17690476Y-84702380D01*
X18166666Y-84702380D01*
X18595238Y-85702380D02*
X18595238Y-84702380D01*
X19166666Y-85702380D01*
X19166666Y-84702380D01*
X19595238Y-85654761D02*
X19738095Y-85702380D01*
X19976190Y-85702380D01*
X20071428Y-85654761D01*
X20119047Y-85607142D01*
X20166666Y-85511904D01*
X20166666Y-85416666D01*
X20119047Y-85321428D01*
X20071428Y-85273809D01*
X19976190Y-85226190D01*
X19785714Y-85178571D01*
X19690476Y-85130952D01*
X19642857Y-85083333D01*
X19595238Y-84988095D01*
X19595238Y-84892857D01*
X19642857Y-84797619D01*
X19690476Y-84750000D01*
X19785714Y-84702380D01*
X20023809Y-84702380D01*
X20166666Y-84750000D01*
X20785714Y-84702380D02*
X20976190Y-84702380D01*
X21071428Y-84750000D01*
X21166666Y-84845238D01*
X21214285Y-85035714D01*
X21214285Y-85369047D01*
X21166666Y-85559523D01*
X21071428Y-85654761D01*
X20976190Y-85702380D01*
X20785714Y-85702380D01*
X20690476Y-85654761D01*
X20595238Y-85559523D01*
X20547619Y-85369047D01*
X20547619Y-85035714D01*
X20595238Y-84845238D01*
X20690476Y-84750000D01*
X20785714Y-84702380D01*
X22214285Y-85702380D02*
X21880952Y-85226190D01*
X21642857Y-85702380D02*
X21642857Y-84702380D01*
X22023809Y-84702380D01*
X22119047Y-84750000D01*
X22166666Y-84797619D01*
X22214285Y-84892857D01*
X22214285Y-85035714D01*
X22166666Y-85130952D01*
X22119047Y-85178571D01*
X22023809Y-85226190D01*
X21642857Y-85226190D01*
X51647380Y-6797619D02*
X51647380Y-7273809D01*
X50647380Y-7273809D01*
X51123571Y-6464285D02*
X51123571Y-6130952D01*
X51647380Y-5988095D02*
X51647380Y-6464285D01*
X50647380Y-6464285D01*
X50647380Y-5988095D01*
X51647380Y-5559523D02*
X50647380Y-5559523D01*
X50647380Y-5321428D01*
X50695000Y-5178571D01*
X50790238Y-5083333D01*
X50885476Y-5035714D01*
X51075952Y-4988095D01*
X51218809Y-4988095D01*
X51409285Y-5035714D01*
X51504523Y-5083333D01*
X51599761Y-5178571D01*
X51647380Y-5321428D01*
X51647380Y-5559523D01*
X51599761Y-4607142D02*
X51647380Y-4511904D01*
X51647380Y-4321428D01*
X51599761Y-4226190D01*
X51504523Y-4178571D01*
X51456904Y-4178571D01*
X51361666Y-4226190D01*
X51314047Y-4321428D01*
X51314047Y-4464285D01*
X51266428Y-4559523D01*
X51171190Y-4607142D01*
X51123571Y-4607142D01*
X51028333Y-4559523D01*
X50980714Y-4464285D01*
X50980714Y-4321428D01*
X51028333Y-4226190D01*
X52685952Y-7416666D02*
X52638333Y-7511904D01*
X52590714Y-7559523D01*
X52495476Y-7607142D01*
X52447857Y-7607142D01*
X52352619Y-7559523D01*
X52305000Y-7511904D01*
X52257380Y-7416666D01*
X52257380Y-7226190D01*
X52305000Y-7130952D01*
X52352619Y-7083333D01*
X52447857Y-7035714D01*
X52495476Y-7035714D01*
X52590714Y-7083333D01*
X52638333Y-7130952D01*
X52685952Y-7226190D01*
X52685952Y-7416666D01*
X52733571Y-7511904D01*
X52781190Y-7559523D01*
X52876428Y-7607142D01*
X53066904Y-7607142D01*
X53162142Y-7559523D01*
X53209761Y-7511904D01*
X53257380Y-7416666D01*
X53257380Y-7226190D01*
X53209761Y-7130952D01*
X53162142Y-7083333D01*
X53066904Y-7035714D01*
X52876428Y-7035714D01*
X52781190Y-7083333D01*
X52733571Y-7130952D01*
X52685952Y-7226190D01*
X52876428Y-6607142D02*
X52876428Y-5845238D01*
X53257380Y-4845238D02*
X53257380Y-5416666D01*
X53257380Y-5130952D02*
X52257380Y-5130952D01*
X52400238Y-5226190D01*
X52495476Y-5321428D01*
X52543095Y-5416666D01*
X52257380Y-3940476D02*
X52257380Y-4416666D01*
X52733571Y-4464285D01*
X52685952Y-4416666D01*
X52638333Y-4321428D01*
X52638333Y-4083333D01*
X52685952Y-3988095D01*
X52733571Y-3940476D01*
X52828809Y-3892857D01*
X53066904Y-3892857D01*
X53162142Y-3940476D01*
X53209761Y-3988095D01*
X53257380Y-4083333D01*
X53257380Y-4321428D01*
X53209761Y-4416666D01*
X53162142Y-4464285D01*
X8238095Y-22500000D02*
X8142857Y-22452380D01*
X8000000Y-22452380D01*
X7857142Y-22500000D01*
X7761904Y-22595238D01*
X7714285Y-22690476D01*
X7666666Y-22880952D01*
X7666666Y-23023809D01*
X7714285Y-23214285D01*
X7761904Y-23309523D01*
X7857142Y-23404761D01*
X8000000Y-23452380D01*
X8095238Y-23452380D01*
X8238095Y-23404761D01*
X8285714Y-23357142D01*
X8285714Y-23023809D01*
X8095238Y-23023809D01*
X8714285Y-23452380D02*
X8714285Y-22452380D01*
X9285714Y-23452380D01*
X9285714Y-22452380D01*
X9761904Y-23452380D02*
X9761904Y-22452380D01*
X10000000Y-22452380D01*
X10142857Y-22500000D01*
X10238095Y-22595238D01*
X10285714Y-22690476D01*
X10333333Y-22880952D01*
X10333333Y-23023809D01*
X10285714Y-23214285D01*
X10238095Y-23309523D01*
X10142857Y-23404761D01*
X10000000Y-23452380D01*
X9761904Y-23452380D01*
X19700645Y-64985714D02*
X19700645Y-64414285D01*
X19986359Y-64700000D02*
X19414931Y-64700000D01*
X5171190Y-74357142D02*
X5647380Y-74357142D01*
X4647380Y-74690476D02*
X5171190Y-74357142D01*
X4647380Y-74023809D01*
X4647380Y-73500000D02*
X4647380Y-73309523D01*
X4695000Y-73214285D01*
X4790238Y-73119047D01*
X4980714Y-73071428D01*
X5314047Y-73071428D01*
X5504523Y-73119047D01*
X5599761Y-73214285D01*
X5647380Y-73309523D01*
X5647380Y-73500000D01*
X5599761Y-73595238D01*
X5504523Y-73690476D01*
X5314047Y-73738095D01*
X4980714Y-73738095D01*
X4790238Y-73690476D01*
X4695000Y-73595238D01*
X4647380Y-73500000D01*
X4647380Y-72642857D02*
X5456904Y-72642857D01*
X5552142Y-72595238D01*
X5599761Y-72547619D01*
X5647380Y-72452380D01*
X5647380Y-72261904D01*
X5599761Y-72166666D01*
X5552142Y-72119047D01*
X5456904Y-72071428D01*
X4647380Y-72071428D01*
X5647380Y-70833333D02*
X4647380Y-70833333D01*
X4647380Y-70595238D01*
X4695000Y-70452380D01*
X4790238Y-70357142D01*
X4885476Y-70309523D01*
X5075952Y-70261904D01*
X5218809Y-70261904D01*
X5409285Y-70309523D01*
X5504523Y-70357142D01*
X5599761Y-70452380D01*
X5647380Y-70595238D01*
X5647380Y-70833333D01*
X4647380Y-69642857D02*
X4647380Y-69452380D01*
X4695000Y-69357142D01*
X4790238Y-69261904D01*
X4980714Y-69214285D01*
X5314047Y-69214285D01*
X5504523Y-69261904D01*
X5599761Y-69357142D01*
X5647380Y-69452380D01*
X5647380Y-69642857D01*
X5599761Y-69738095D01*
X5504523Y-69833333D01*
X5314047Y-69880952D01*
X4980714Y-69880952D01*
X4790238Y-69833333D01*
X4695000Y-69738095D01*
X4647380Y-69642857D01*
X5647380Y-68785714D02*
X4647380Y-68785714D01*
X5647380Y-68214285D01*
X4647380Y-68214285D01*
X4647380Y-67690476D02*
X4837857Y-67785714D01*
X4647380Y-67404761D02*
X4647380Y-66833333D01*
X5647380Y-67119047D02*
X4647380Y-67119047D01*
X5647380Y-65738095D02*
X4647380Y-65738095D01*
X5123571Y-65738095D02*
X5123571Y-65166666D01*
X5647380Y-65166666D02*
X4647380Y-65166666D01*
X5361666Y-64738095D02*
X5361666Y-64261904D01*
X5647380Y-64833333D02*
X4647380Y-64500000D01*
X5647380Y-64166666D01*
X4647380Y-63976190D02*
X5647380Y-63642857D01*
X4647380Y-63309523D01*
X5123571Y-62976190D02*
X5123571Y-62642857D01*
X5647380Y-62500000D02*
X5647380Y-62976190D01*
X4647380Y-62976190D01*
X4647380Y-62500000D01*
X4647380Y-61452380D02*
X4647380Y-60880952D01*
X5647380Y-61166666D02*
X4647380Y-61166666D01*
X4647380Y-60357142D02*
X4647380Y-60166666D01*
X4695000Y-60071428D01*
X4790238Y-59976190D01*
X4980714Y-59928571D01*
X5314047Y-59928571D01*
X5504523Y-59976190D01*
X5599761Y-60071428D01*
X5647380Y-60166666D01*
X5647380Y-60357142D01*
X5599761Y-60452380D01*
X5504523Y-60547619D01*
X5314047Y-60595238D01*
X4980714Y-60595238D01*
X4790238Y-60547619D01*
X4695000Y-60452380D01*
X4647380Y-60357142D01*
X5647380Y-58261904D02*
X5647380Y-58738095D01*
X4647380Y-58738095D01*
X5647380Y-57928571D02*
X4647380Y-57928571D01*
X5647380Y-57452380D02*
X4647380Y-57452380D01*
X5647380Y-56880952D02*
X5075952Y-57309523D01*
X4647380Y-56880952D02*
X5218809Y-57452380D01*
X5123571Y-56452380D02*
X5123571Y-56119047D01*
X5647380Y-55976190D02*
X5647380Y-56452380D01*
X4647380Y-56452380D01*
X4647380Y-55976190D01*
X5361666Y-54833333D02*
X5361666Y-54357142D01*
X5647380Y-54928571D02*
X4647380Y-54595238D01*
X5647380Y-54261904D01*
X5647380Y-53452380D02*
X5647380Y-53928571D01*
X4647380Y-53928571D01*
X5647380Y-52642857D02*
X5647380Y-53119047D01*
X4647380Y-53119047D01*
X4647380Y-51690476D02*
X4647380Y-51119047D01*
X5647380Y-51404761D02*
X4647380Y-51404761D01*
X5647380Y-50785714D02*
X4647380Y-50785714D01*
X5123571Y-50785714D02*
X5123571Y-50214285D01*
X5647380Y-50214285D02*
X4647380Y-50214285D01*
X5123571Y-49738095D02*
X5123571Y-49404761D01*
X5647380Y-49261904D02*
X5647380Y-49738095D01*
X4647380Y-49738095D01*
X4647380Y-49261904D01*
X5361666Y-48119047D02*
X5361666Y-47642857D01*
X5647380Y-48214285D02*
X4647380Y-47880952D01*
X5647380Y-47547619D01*
X5647380Y-46642857D02*
X5171190Y-46976190D01*
X5647380Y-47214285D02*
X4647380Y-47214285D01*
X4647380Y-46833333D01*
X4695000Y-46738095D01*
X4742619Y-46690476D01*
X4837857Y-46642857D01*
X4980714Y-46642857D01*
X5075952Y-46690476D01*
X5123571Y-46738095D01*
X5171190Y-46833333D01*
X5171190Y-47214285D01*
X4647380Y-46357142D02*
X4647380Y-45785714D01*
X5647380Y-46071428D02*
X4647380Y-46071428D01*
X5552142Y-45452380D02*
X5599761Y-45404761D01*
X5647380Y-45452380D01*
X5599761Y-45500000D01*
X5552142Y-45452380D01*
X5647380Y-45452380D01*
X5266428Y-45452380D02*
X4695000Y-45500000D01*
X4647380Y-45452380D01*
X4695000Y-45404761D01*
X5266428Y-45452380D01*
X4647380Y-45452380D01*
X7257380Y-67809523D02*
X7257380Y-68285714D01*
X6257380Y-68285714D01*
X6257380Y-67285714D02*
X6257380Y-67095238D01*
X6305000Y-67000000D01*
X6400238Y-66904761D01*
X6590714Y-66857142D01*
X6924047Y-66857142D01*
X7114523Y-66904761D01*
X7209761Y-67000000D01*
X7257380Y-67095238D01*
X7257380Y-67285714D01*
X7209761Y-67380952D01*
X7114523Y-67476190D01*
X6924047Y-67523809D01*
X6590714Y-67523809D01*
X6400238Y-67476190D01*
X6305000Y-67380952D01*
X6257380Y-67285714D01*
X6305000Y-65904761D02*
X6257380Y-66000000D01*
X6257380Y-66142857D01*
X6305000Y-66285714D01*
X6400238Y-66380952D01*
X6495476Y-66428571D01*
X6685952Y-66476190D01*
X6828809Y-66476190D01*
X7019285Y-66428571D01*
X7114523Y-66380952D01*
X7209761Y-66285714D01*
X7257380Y-66142857D01*
X7257380Y-66047619D01*
X7209761Y-65904761D01*
X7162142Y-65857142D01*
X6828809Y-65857142D01*
X6828809Y-66047619D01*
X7257380Y-65428571D02*
X6257380Y-65428571D01*
X7162142Y-64380952D02*
X7209761Y-64428571D01*
X7257380Y-64571428D01*
X7257380Y-64666666D01*
X7209761Y-64809523D01*
X7114523Y-64904761D01*
X7019285Y-64952380D01*
X6828809Y-65000000D01*
X6685952Y-65000000D01*
X6495476Y-64952380D01*
X6400238Y-64904761D01*
X6305000Y-64809523D01*
X6257380Y-64666666D01*
X6257380Y-64571428D01*
X6305000Y-64428571D01*
X6352619Y-64380952D01*
X7257380Y-63190476D02*
X6257380Y-63190476D01*
X6971666Y-62857142D01*
X6257380Y-62523809D01*
X7257380Y-62523809D01*
X6257380Y-61857142D02*
X6257380Y-61666666D01*
X6305000Y-61571428D01*
X6400238Y-61476190D01*
X6590714Y-61428571D01*
X6924047Y-61428571D01*
X7114523Y-61476190D01*
X7209761Y-61571428D01*
X7257380Y-61666666D01*
X7257380Y-61857142D01*
X7209761Y-61952380D01*
X7114523Y-62047619D01*
X6924047Y-62095238D01*
X6590714Y-62095238D01*
X6400238Y-62047619D01*
X6305000Y-61952380D01*
X6257380Y-61857142D01*
X7257380Y-61000000D02*
X6257380Y-61000000D01*
X6257380Y-60761904D01*
X6305000Y-60619047D01*
X6400238Y-60523809D01*
X6495476Y-60476190D01*
X6685952Y-60428571D01*
X6828809Y-60428571D01*
X7019285Y-60476190D01*
X7114523Y-60523809D01*
X7209761Y-60619047D01*
X7257380Y-60761904D01*
X7257380Y-61000000D01*
X6257380Y-60000000D02*
X7066904Y-60000000D01*
X7162142Y-59952380D01*
X7209761Y-59904761D01*
X7257380Y-59809523D01*
X7257380Y-59619047D01*
X7209761Y-59523809D01*
X7162142Y-59476190D01*
X7066904Y-59428571D01*
X6257380Y-59428571D01*
X7257380Y-58476190D02*
X7257380Y-58952380D01*
X6257380Y-58952380D01*
X6733571Y-58142857D02*
X6733571Y-57809523D01*
X7257380Y-57666666D02*
X7257380Y-58142857D01*
X6257380Y-58142857D01*
X6257380Y-57666666D01*
X6876428Y-56476190D02*
X6876428Y-55714285D01*
X6257380Y-54619047D02*
X7257380Y-54285714D01*
X6257380Y-53952380D01*
X7257380Y-53095238D02*
X7257380Y-53666666D01*
X7257380Y-53380952D02*
X6257380Y-53380952D01*
X6400238Y-53476190D01*
X6495476Y-53571428D01*
X6543095Y-53666666D01*
X7162142Y-52666666D02*
X7209761Y-52619047D01*
X7257380Y-52666666D01*
X7209761Y-52714285D01*
X7162142Y-52666666D01*
X7257380Y-52666666D01*
X6257380Y-52000000D02*
X6257380Y-51904761D01*
X6305000Y-51809523D01*
X6352619Y-51761904D01*
X6447857Y-51714285D01*
X6638333Y-51666666D01*
X6876428Y-51666666D01*
X7066904Y-51714285D01*
X7162142Y-51761904D01*
X7209761Y-51809523D01*
X7257380Y-51904761D01*
X7257380Y-52000000D01*
X7209761Y-52095238D01*
X7162142Y-52142857D01*
X7066904Y-52190476D01*
X6876428Y-52238095D01*
X6638333Y-52238095D01*
X6447857Y-52190476D01*
X6352619Y-52142857D01*
X6305000Y-52095238D01*
X6257380Y-52000000D01*
X69476190Y-83028571D02*
X69809523Y-83028571D01*
X69952380Y-83552380D02*
X69476190Y-83552380D01*
X69476190Y-82552380D01*
X69952380Y-82552380D01*
X70380952Y-83552380D02*
X70380952Y-82552380D01*
X70952380Y-83552380D01*
X70952380Y-82552380D01*
X71380952Y-83266666D02*
X71857142Y-83266666D01*
X71285714Y-83552380D02*
X71619047Y-82552380D01*
X71952380Y-83552380D01*
X72619047Y-83028571D02*
X72761904Y-83076190D01*
X72809523Y-83123809D01*
X72857142Y-83219047D01*
X72857142Y-83361904D01*
X72809523Y-83457142D01*
X72761904Y-83504761D01*
X72666666Y-83552380D01*
X72285714Y-83552380D01*
X72285714Y-82552380D01*
X72619047Y-82552380D01*
X72714285Y-82600000D01*
X72761904Y-82647619D01*
X72809523Y-82742857D01*
X72809523Y-82838095D01*
X72761904Y-82933333D01*
X72714285Y-82980952D01*
X72619047Y-83028571D01*
X72285714Y-83028571D01*
X73761904Y-83552380D02*
X73285714Y-83552380D01*
X73285714Y-82552380D01*
X74095238Y-83028571D02*
X74428571Y-83028571D01*
X74571428Y-83552380D02*
X74095238Y-83552380D01*
X74095238Y-82552380D01*
X74571428Y-82552380D01*
X84997380Y-6797619D02*
X84997380Y-7273809D01*
X83997380Y-7273809D01*
X84473571Y-6464285D02*
X84473571Y-6130952D01*
X84997380Y-5988095D02*
X84997380Y-6464285D01*
X83997380Y-6464285D01*
X83997380Y-5988095D01*
X84997380Y-5559523D02*
X83997380Y-5559523D01*
X83997380Y-5321428D01*
X84045000Y-5178571D01*
X84140238Y-5083333D01*
X84235476Y-5035714D01*
X84425952Y-4988095D01*
X84568809Y-4988095D01*
X84759285Y-5035714D01*
X84854523Y-5083333D01*
X84949761Y-5178571D01*
X84997380Y-5321428D01*
X84997380Y-5559523D01*
X84949761Y-4607142D02*
X84997380Y-4511904D01*
X84997380Y-4321428D01*
X84949761Y-4226190D01*
X84854523Y-4178571D01*
X84806904Y-4178571D01*
X84711666Y-4226190D01*
X84664047Y-4321428D01*
X84664047Y-4464285D01*
X84616428Y-4559523D01*
X84521190Y-4607142D01*
X84473571Y-4607142D01*
X84378333Y-4559523D01*
X84330714Y-4464285D01*
X84330714Y-4321428D01*
X84378333Y-4226190D01*
X85607380Y-6892857D02*
X85607380Y-6797619D01*
X85655000Y-6702380D01*
X85702619Y-6654761D01*
X85797857Y-6607142D01*
X85988333Y-6559523D01*
X86226428Y-6559523D01*
X86416904Y-6607142D01*
X86512142Y-6654761D01*
X86559761Y-6702380D01*
X86607380Y-6797619D01*
X86607380Y-6892857D01*
X86559761Y-6988095D01*
X86512142Y-7035714D01*
X86416904Y-7083333D01*
X86226428Y-7130952D01*
X85988333Y-7130952D01*
X85797857Y-7083333D01*
X85702619Y-7035714D01*
X85655000Y-6988095D01*
X85607380Y-6892857D01*
X86226428Y-6130952D02*
X86226428Y-5369047D01*
X85607380Y-4988095D02*
X85607380Y-4321428D01*
X86607380Y-4750000D01*
X49164285Y-23603571D02*
X49735714Y-23603571D01*
X49450000Y-23889285D02*
X49450000Y-23317857D01*
X24147380Y-67011904D02*
X23147380Y-67011904D01*
X23147380Y-66773809D01*
X23195000Y-66630952D01*
X23290238Y-66535714D01*
X23385476Y-66488095D01*
X23575952Y-66440476D01*
X23718809Y-66440476D01*
X23909285Y-66488095D01*
X24004523Y-66535714D01*
X24099761Y-66630952D01*
X24147380Y-66773809D01*
X24147380Y-67011904D01*
X23147380Y-65821428D02*
X23147380Y-65630952D01*
X23195000Y-65535714D01*
X23290238Y-65440476D01*
X23480714Y-65392857D01*
X23814047Y-65392857D01*
X24004523Y-65440476D01*
X24099761Y-65535714D01*
X24147380Y-65630952D01*
X24147380Y-65821428D01*
X24099761Y-65916666D01*
X24004523Y-66011904D01*
X23814047Y-66059523D01*
X23480714Y-66059523D01*
X23290238Y-66011904D01*
X23195000Y-65916666D01*
X23147380Y-65821428D01*
X24147380Y-64202380D02*
X23147380Y-64202380D01*
X24147380Y-63630952D01*
X23147380Y-63630952D01*
X23147380Y-62964285D02*
X23147380Y-62773809D01*
X23195000Y-62678571D01*
X23290238Y-62583333D01*
X23480714Y-62535714D01*
X23814047Y-62535714D01*
X24004523Y-62583333D01*
X24099761Y-62678571D01*
X24147380Y-62773809D01*
X24147380Y-62964285D01*
X24099761Y-63059523D01*
X24004523Y-63154761D01*
X23814047Y-63202380D01*
X23480714Y-63202380D01*
X23290238Y-63154761D01*
X23195000Y-63059523D01*
X23147380Y-62964285D01*
X23147380Y-62250000D02*
X23147380Y-61678571D01*
X24147380Y-61964285D02*
X23147380Y-61964285D01*
X24052142Y-60011904D02*
X24099761Y-60059523D01*
X24147380Y-60202380D01*
X24147380Y-60297619D01*
X24099761Y-60440476D01*
X24004523Y-60535714D01*
X23909285Y-60583333D01*
X23718809Y-60630952D01*
X23575952Y-60630952D01*
X23385476Y-60583333D01*
X23290238Y-60535714D01*
X23195000Y-60440476D01*
X23147380Y-60297619D01*
X23147380Y-60202380D01*
X23195000Y-60059523D01*
X23242619Y-60011904D01*
X23147380Y-59392857D02*
X23147380Y-59202380D01*
X23195000Y-59107142D01*
X23290238Y-59011904D01*
X23480714Y-58964285D01*
X23814047Y-58964285D01*
X24004523Y-59011904D01*
X24099761Y-59107142D01*
X24147380Y-59202380D01*
X24147380Y-59392857D01*
X24099761Y-59488095D01*
X24004523Y-59583333D01*
X23814047Y-59630952D01*
X23480714Y-59630952D01*
X23290238Y-59583333D01*
X23195000Y-59488095D01*
X23147380Y-59392857D01*
X24147380Y-58535714D02*
X23147380Y-58535714D01*
X24147380Y-57964285D01*
X23147380Y-57964285D01*
X24147380Y-57488095D02*
X23147380Y-57488095D01*
X24147380Y-56916666D01*
X23147380Y-56916666D01*
X23623571Y-56440476D02*
X23623571Y-56107142D01*
X24147380Y-55964285D02*
X24147380Y-56440476D01*
X23147380Y-56440476D01*
X23147380Y-55964285D01*
X24052142Y-54964285D02*
X24099761Y-55011904D01*
X24147380Y-55154761D01*
X24147380Y-55250000D01*
X24099761Y-55392857D01*
X24004523Y-55488095D01*
X23909285Y-55535714D01*
X23718809Y-55583333D01*
X23575952Y-55583333D01*
X23385476Y-55535714D01*
X23290238Y-55488095D01*
X23195000Y-55392857D01*
X23147380Y-55250000D01*
X23147380Y-55154761D01*
X23195000Y-55011904D01*
X23242619Y-54964285D01*
X23147380Y-54678571D02*
X23147380Y-54107142D01*
X24147380Y-54392857D02*
X23147380Y-54392857D01*
X23147380Y-53011904D02*
X23956904Y-53011904D01*
X24052142Y-52964285D01*
X24099761Y-52916666D01*
X24147380Y-52821428D01*
X24147380Y-52630952D01*
X24099761Y-52535714D01*
X24052142Y-52488095D01*
X23956904Y-52440476D01*
X23147380Y-52440476D01*
X24099761Y-52011904D02*
X24147380Y-51869047D01*
X24147380Y-51630952D01*
X24099761Y-51535714D01*
X24052142Y-51488095D01*
X23956904Y-51440476D01*
X23861666Y-51440476D01*
X23766428Y-51488095D01*
X23718809Y-51535714D01*
X23671190Y-51630952D01*
X23623571Y-51821428D01*
X23575952Y-51916666D01*
X23528333Y-51964285D01*
X23433095Y-52011904D01*
X23337857Y-52011904D01*
X23242619Y-51964285D01*
X23195000Y-51916666D01*
X23147380Y-51821428D01*
X23147380Y-51583333D01*
X23195000Y-51440476D01*
X23623571Y-50678571D02*
X23671190Y-50535714D01*
X23718809Y-50488095D01*
X23814047Y-50440476D01*
X23956904Y-50440476D01*
X24052142Y-50488095D01*
X24099761Y-50535714D01*
X24147380Y-50630952D01*
X24147380Y-51011904D01*
X23147380Y-51011904D01*
X23147380Y-50678571D01*
X23195000Y-50583333D01*
X23242619Y-50535714D01*
X23337857Y-50488095D01*
X23433095Y-50488095D01*
X23528333Y-50535714D01*
X23575952Y-50583333D01*
X23623571Y-50678571D01*
X23623571Y-51011904D01*
X24757380Y-66654761D02*
X25757380Y-66416666D01*
X25043095Y-66226190D01*
X25757380Y-66035714D01*
X24757380Y-65797619D01*
X25757380Y-65416666D02*
X24757380Y-65416666D01*
X25233571Y-65416666D02*
X25233571Y-64845238D01*
X25757380Y-64845238D02*
X24757380Y-64845238D01*
X25757380Y-64369047D02*
X24757380Y-64369047D01*
X25757380Y-63416666D02*
X25757380Y-63892857D01*
X24757380Y-63892857D01*
X25233571Y-63083333D02*
X25233571Y-62750000D01*
X25757380Y-62607142D02*
X25757380Y-63083333D01*
X24757380Y-63083333D01*
X24757380Y-62607142D01*
X25757380Y-61416666D02*
X24757380Y-61416666D01*
X24757380Y-61035714D01*
X24805000Y-60940476D01*
X24852619Y-60892857D01*
X24947857Y-60845238D01*
X25090714Y-60845238D01*
X25185952Y-60892857D01*
X25233571Y-60940476D01*
X25281190Y-61035714D01*
X25281190Y-61416666D01*
X24757380Y-60511904D02*
X25757380Y-60273809D01*
X25043095Y-60083333D01*
X25757380Y-59892857D01*
X24757380Y-59654761D01*
X25757380Y-58702380D02*
X25281190Y-59035714D01*
X25757380Y-59273809D02*
X24757380Y-59273809D01*
X24757380Y-58892857D01*
X24805000Y-58797619D01*
X24852619Y-58750000D01*
X24947857Y-58702380D01*
X25090714Y-58702380D01*
X25185952Y-58750000D01*
X25233571Y-58797619D01*
X25281190Y-58892857D01*
X25281190Y-59273809D01*
X25757380Y-57511904D02*
X24757380Y-57511904D01*
X25709761Y-57083333D02*
X25757380Y-56940476D01*
X25757380Y-56702380D01*
X25709761Y-56607142D01*
X25662142Y-56559523D01*
X25566904Y-56511904D01*
X25471666Y-56511904D01*
X25376428Y-56559523D01*
X25328809Y-56607142D01*
X25281190Y-56702380D01*
X25233571Y-56892857D01*
X25185952Y-56988095D01*
X25138333Y-57035714D01*
X25043095Y-57083333D01*
X24947857Y-57083333D01*
X24852619Y-57035714D01*
X24805000Y-56988095D01*
X24757380Y-56892857D01*
X24757380Y-56654761D01*
X24805000Y-56511904D01*
X25471666Y-55369047D02*
X25471666Y-54892857D01*
X25757380Y-55464285D02*
X24757380Y-55130952D01*
X25757380Y-54797619D01*
X25662142Y-53892857D02*
X25709761Y-53940476D01*
X25757380Y-54083333D01*
X25757380Y-54178571D01*
X25709761Y-54321428D01*
X25614523Y-54416666D01*
X25519285Y-54464285D01*
X25328809Y-54511904D01*
X25185952Y-54511904D01*
X24995476Y-54464285D01*
X24900238Y-54416666D01*
X24805000Y-54321428D01*
X24757380Y-54178571D01*
X24757380Y-54083333D01*
X24805000Y-53940476D01*
X24852619Y-53892857D01*
X24757380Y-53607142D02*
X24757380Y-53035714D01*
X25757380Y-53321428D02*
X24757380Y-53321428D01*
X25757380Y-52702380D02*
X24757380Y-52702380D01*
X24757380Y-52369047D02*
X25757380Y-52035714D01*
X24757380Y-51702380D01*
X25233571Y-51369047D02*
X25233571Y-51035714D01*
X25757380Y-50892857D02*
X25757380Y-51369047D01*
X24757380Y-51369047D01*
X24757380Y-50892857D01*
%TO.C,R32*%
X65402380Y-78292857D02*
X64926190Y-78626190D01*
X65402380Y-78864285D02*
X64402380Y-78864285D01*
X64402380Y-78483333D01*
X64450000Y-78388095D01*
X64497619Y-78340476D01*
X64592857Y-78292857D01*
X64735714Y-78292857D01*
X64830952Y-78340476D01*
X64878571Y-78388095D01*
X64926190Y-78483333D01*
X64926190Y-78864285D01*
X64402380Y-77959523D02*
X64402380Y-77340476D01*
X64783333Y-77673809D01*
X64783333Y-77530952D01*
X64830952Y-77435714D01*
X64878571Y-77388095D01*
X64973809Y-77340476D01*
X65211904Y-77340476D01*
X65307142Y-77388095D01*
X65354761Y-77435714D01*
X65402380Y-77530952D01*
X65402380Y-77816666D01*
X65354761Y-77911904D01*
X65307142Y-77959523D01*
X64497619Y-76959523D02*
X64450000Y-76911904D01*
X64402380Y-76816666D01*
X64402380Y-76578571D01*
X64450000Y-76483333D01*
X64497619Y-76435714D01*
X64592857Y-76388095D01*
X64688095Y-76388095D01*
X64830952Y-76435714D01*
X65402380Y-77007142D01*
X65402380Y-76388095D01*
%TO.C,R31*%
X55607142Y-73072380D02*
X55273809Y-72596190D01*
X55035714Y-73072380D02*
X55035714Y-72072380D01*
X55416666Y-72072380D01*
X55511904Y-72120000D01*
X55559523Y-72167619D01*
X55607142Y-72262857D01*
X55607142Y-72405714D01*
X55559523Y-72500952D01*
X55511904Y-72548571D01*
X55416666Y-72596190D01*
X55035714Y-72596190D01*
X55940476Y-72072380D02*
X56559523Y-72072380D01*
X56226190Y-72453333D01*
X56369047Y-72453333D01*
X56464285Y-72500952D01*
X56511904Y-72548571D01*
X56559523Y-72643809D01*
X56559523Y-72881904D01*
X56511904Y-72977142D01*
X56464285Y-73024761D01*
X56369047Y-73072380D01*
X56083333Y-73072380D01*
X55988095Y-73024761D01*
X55940476Y-72977142D01*
X57511904Y-73072380D02*
X56940476Y-73072380D01*
X57226190Y-73072380D02*
X57226190Y-72072380D01*
X57130952Y-72215238D01*
X57035714Y-72310476D01*
X56940476Y-72358095D01*
%TO.C,D4*%
X69511904Y-74452380D02*
X69511904Y-73452380D01*
X69750000Y-73452380D01*
X69892857Y-73500000D01*
X69988095Y-73595238D01*
X70035714Y-73690476D01*
X70083333Y-73880952D01*
X70083333Y-74023809D01*
X70035714Y-74214285D01*
X69988095Y-74309523D01*
X69892857Y-74404761D01*
X69750000Y-74452380D01*
X69511904Y-74452380D01*
X70940476Y-73785714D02*
X70940476Y-74452380D01*
X70702380Y-73404761D02*
X70464285Y-74119047D01*
X71083333Y-74119047D01*
%TO.C,C16*%
X54907142Y-11842857D02*
X54954761Y-11890476D01*
X55002380Y-12033333D01*
X55002380Y-12128571D01*
X54954761Y-12271428D01*
X54859523Y-12366666D01*
X54764285Y-12414285D01*
X54573809Y-12461904D01*
X54430952Y-12461904D01*
X54240476Y-12414285D01*
X54145238Y-12366666D01*
X54050000Y-12271428D01*
X54002380Y-12128571D01*
X54002380Y-12033333D01*
X54050000Y-11890476D01*
X54097619Y-11842857D01*
X55002380Y-10890476D02*
X55002380Y-11461904D01*
X55002380Y-11176190D02*
X54002380Y-11176190D01*
X54145238Y-11271428D01*
X54240476Y-11366666D01*
X54288095Y-11461904D01*
X54002380Y-10033333D02*
X54002380Y-10223809D01*
X54050000Y-10319047D01*
X54097619Y-10366666D01*
X54240476Y-10461904D01*
X54430952Y-10509523D01*
X54811904Y-10509523D01*
X54907142Y-10461904D01*
X54954761Y-10414285D01*
X55002380Y-10319047D01*
X55002380Y-10128571D01*
X54954761Y-10033333D01*
X54907142Y-9985714D01*
X54811904Y-9938095D01*
X54573809Y-9938095D01*
X54478571Y-9985714D01*
X54430952Y-10033333D01*
X54383333Y-10128571D01*
X54383333Y-10319047D01*
X54430952Y-10414285D01*
X54478571Y-10461904D01*
X54573809Y-10509523D01*
%TO.C,C1*%
X12482142Y-66516666D02*
X12529761Y-66564285D01*
X12577380Y-66707142D01*
X12577380Y-66802380D01*
X12529761Y-66945238D01*
X12434523Y-67040476D01*
X12339285Y-67088095D01*
X12148809Y-67135714D01*
X12005952Y-67135714D01*
X11815476Y-67088095D01*
X11720238Y-67040476D01*
X11625000Y-66945238D01*
X11577380Y-66802380D01*
X11577380Y-66707142D01*
X11625000Y-66564285D01*
X11672619Y-66516666D01*
X12577380Y-65564285D02*
X12577380Y-66135714D01*
X12577380Y-65850000D02*
X11577380Y-65850000D01*
X11720238Y-65945238D01*
X11815476Y-66040476D01*
X11863095Y-66135714D01*
%TO.C,C13*%
X104237142Y-12142857D02*
X104284761Y-12190476D01*
X104332380Y-12333333D01*
X104332380Y-12428571D01*
X104284761Y-12571428D01*
X104189523Y-12666666D01*
X104094285Y-12714285D01*
X103903809Y-12761904D01*
X103760952Y-12761904D01*
X103570476Y-12714285D01*
X103475238Y-12666666D01*
X103380000Y-12571428D01*
X103332380Y-12428571D01*
X103332380Y-12333333D01*
X103380000Y-12190476D01*
X103427619Y-12142857D01*
X104332380Y-11190476D02*
X104332380Y-11761904D01*
X104332380Y-11476190D02*
X103332380Y-11476190D01*
X103475238Y-11571428D01*
X103570476Y-11666666D01*
X103618095Y-11761904D01*
X103332380Y-10857142D02*
X103332380Y-10238095D01*
X103713333Y-10571428D01*
X103713333Y-10428571D01*
X103760952Y-10333333D01*
X103808571Y-10285714D01*
X103903809Y-10238095D01*
X104141904Y-10238095D01*
X104237142Y-10285714D01*
X104284761Y-10333333D01*
X104332380Y-10428571D01*
X104332380Y-10714285D01*
X104284761Y-10809523D01*
X104237142Y-10857142D01*
%TO.C,TP1*%
X76988095Y-82577380D02*
X77559523Y-82577380D01*
X77273809Y-83577380D02*
X77273809Y-82577380D01*
X77892857Y-83577380D02*
X77892857Y-82577380D01*
X78273809Y-82577380D01*
X78369047Y-82625000D01*
X78416666Y-82672619D01*
X78464285Y-82767857D01*
X78464285Y-82910714D01*
X78416666Y-83005952D01*
X78369047Y-83053571D01*
X78273809Y-83101190D01*
X77892857Y-83101190D01*
X79416666Y-83577380D02*
X78845238Y-83577380D01*
X79130952Y-83577380D02*
X79130952Y-82577380D01*
X79035714Y-82720238D01*
X78940476Y-82815476D01*
X78845238Y-82863095D01*
%TO.C,U12*%
X110261904Y-56717380D02*
X110261904Y-57526904D01*
X110309523Y-57622142D01*
X110357142Y-57669761D01*
X110452380Y-57717380D01*
X110642857Y-57717380D01*
X110738095Y-57669761D01*
X110785714Y-57622142D01*
X110833333Y-57526904D01*
X110833333Y-56717380D01*
X111833333Y-57717380D02*
X111261904Y-57717380D01*
X111547619Y-57717380D02*
X111547619Y-56717380D01*
X111452380Y-56860238D01*
X111357142Y-56955476D01*
X111261904Y-57003095D01*
X112214285Y-56812619D02*
X112261904Y-56765000D01*
X112357142Y-56717380D01*
X112595238Y-56717380D01*
X112690476Y-56765000D01*
X112738095Y-56812619D01*
X112785714Y-56907857D01*
X112785714Y-57003095D01*
X112738095Y-57145952D01*
X112166666Y-57717380D01*
X112785714Y-57717380D01*
%TO.C,TP21*%
X84261904Y-42722116D02*
X84833333Y-42722116D01*
X84547619Y-43722116D02*
X84547619Y-42722116D01*
X85166666Y-43722116D02*
X85166666Y-42722116D01*
X85547619Y-42722116D01*
X85642857Y-42769736D01*
X85690476Y-42817355D01*
X85738095Y-42912593D01*
X85738095Y-43055450D01*
X85690476Y-43150688D01*
X85642857Y-43198307D01*
X85547619Y-43245926D01*
X85166666Y-43245926D01*
X86119047Y-42817355D02*
X86166666Y-42769736D01*
X86261904Y-42722116D01*
X86500000Y-42722116D01*
X86595238Y-42769736D01*
X86642857Y-42817355D01*
X86690476Y-42912593D01*
X86690476Y-43007831D01*
X86642857Y-43150688D01*
X86071428Y-43722116D01*
X86690476Y-43722116D01*
X87642857Y-43722116D02*
X87071428Y-43722116D01*
X87357142Y-43722116D02*
X87357142Y-42722116D01*
X87261904Y-42864974D01*
X87166666Y-42960212D01*
X87071428Y-43007831D01*
%TO.C,R4*%
X113633333Y-50582380D02*
X113300000Y-50106190D01*
X113061904Y-50582380D02*
X113061904Y-49582380D01*
X113442857Y-49582380D01*
X113538095Y-49630000D01*
X113585714Y-49677619D01*
X113633333Y-49772857D01*
X113633333Y-49915714D01*
X113585714Y-50010952D01*
X113538095Y-50058571D01*
X113442857Y-50106190D01*
X113061904Y-50106190D01*
X114490476Y-49915714D02*
X114490476Y-50582380D01*
X114252380Y-49534761D02*
X114014285Y-50249047D01*
X114633333Y-50249047D01*
%TO.C,R2*%
X39932380Y-15166666D02*
X39456190Y-15500000D01*
X39932380Y-15738095D02*
X38932380Y-15738095D01*
X38932380Y-15357142D01*
X38980000Y-15261904D01*
X39027619Y-15214285D01*
X39122857Y-15166666D01*
X39265714Y-15166666D01*
X39360952Y-15214285D01*
X39408571Y-15261904D01*
X39456190Y-15357142D01*
X39456190Y-15738095D01*
X39027619Y-14785714D02*
X38980000Y-14738095D01*
X38932380Y-14642857D01*
X38932380Y-14404761D01*
X38980000Y-14309523D01*
X39027619Y-14261904D01*
X39122857Y-14214285D01*
X39218095Y-14214285D01*
X39360952Y-14261904D01*
X39932380Y-14833333D01*
X39932380Y-14214285D01*
%TO.C,TP19*%
X50761904Y-73327380D02*
X51333333Y-73327380D01*
X51047619Y-74327380D02*
X51047619Y-73327380D01*
X51666666Y-74327380D02*
X51666666Y-73327380D01*
X52047619Y-73327380D01*
X52142857Y-73375000D01*
X52190476Y-73422619D01*
X52238095Y-73517857D01*
X52238095Y-73660714D01*
X52190476Y-73755952D01*
X52142857Y-73803571D01*
X52047619Y-73851190D01*
X51666666Y-73851190D01*
X53190476Y-74327380D02*
X52619047Y-74327380D01*
X52904761Y-74327380D02*
X52904761Y-73327380D01*
X52809523Y-73470238D01*
X52714285Y-73565476D01*
X52619047Y-73613095D01*
X53666666Y-74327380D02*
X53857142Y-74327380D01*
X53952380Y-74279761D01*
X54000000Y-74232142D01*
X54095238Y-74089285D01*
X54142857Y-73898809D01*
X54142857Y-73517857D01*
X54095238Y-73422619D01*
X54047619Y-73375000D01*
X53952380Y-73327380D01*
X53761904Y-73327380D01*
X53666666Y-73375000D01*
X53619047Y-73422619D01*
X53571428Y-73517857D01*
X53571428Y-73755952D01*
X53619047Y-73851190D01*
X53666666Y-73898809D01*
X53761904Y-73946428D01*
X53952380Y-73946428D01*
X54047619Y-73898809D01*
X54095238Y-73851190D01*
X54142857Y-73755952D01*
%TO.C,R10*%
X106507142Y-76857380D02*
X106173809Y-76381190D01*
X105935714Y-76857380D02*
X105935714Y-75857380D01*
X106316666Y-75857380D01*
X106411904Y-75905000D01*
X106459523Y-75952619D01*
X106507142Y-76047857D01*
X106507142Y-76190714D01*
X106459523Y-76285952D01*
X106411904Y-76333571D01*
X106316666Y-76381190D01*
X105935714Y-76381190D01*
X107459523Y-76857380D02*
X106888095Y-76857380D01*
X107173809Y-76857380D02*
X107173809Y-75857380D01*
X107078571Y-76000238D01*
X106983333Y-76095476D01*
X106888095Y-76143095D01*
X108078571Y-75857380D02*
X108173809Y-75857380D01*
X108269047Y-75905000D01*
X108316666Y-75952619D01*
X108364285Y-76047857D01*
X108411904Y-76238333D01*
X108411904Y-76476428D01*
X108364285Y-76666904D01*
X108316666Y-76762142D01*
X108269047Y-76809761D01*
X108173809Y-76857380D01*
X108078571Y-76857380D01*
X107983333Y-76809761D01*
X107935714Y-76762142D01*
X107888095Y-76666904D01*
X107840476Y-76476428D01*
X107840476Y-76238333D01*
X107888095Y-76047857D01*
X107935714Y-75952619D01*
X107983333Y-75905000D01*
X108078571Y-75857380D01*
%TO.C,TP12*%
X62761904Y-42327380D02*
X63333333Y-42327380D01*
X63047619Y-43327380D02*
X63047619Y-42327380D01*
X63666666Y-43327380D02*
X63666666Y-42327380D01*
X64047619Y-42327380D01*
X64142857Y-42375000D01*
X64190476Y-42422619D01*
X64238095Y-42517857D01*
X64238095Y-42660714D01*
X64190476Y-42755952D01*
X64142857Y-42803571D01*
X64047619Y-42851190D01*
X63666666Y-42851190D01*
X65190476Y-43327380D02*
X64619047Y-43327380D01*
X64904761Y-43327380D02*
X64904761Y-42327380D01*
X64809523Y-42470238D01*
X64714285Y-42565476D01*
X64619047Y-42613095D01*
X65571428Y-42422619D02*
X65619047Y-42375000D01*
X65714285Y-42327380D01*
X65952380Y-42327380D01*
X66047619Y-42375000D01*
X66095238Y-42422619D01*
X66142857Y-42517857D01*
X66142857Y-42613095D01*
X66095238Y-42755952D01*
X65523809Y-43327380D01*
X66142857Y-43327380D01*
%TO.C,TP17*%
X90761904Y-49577380D02*
X91333333Y-49577380D01*
X91047619Y-50577380D02*
X91047619Y-49577380D01*
X91666666Y-50577380D02*
X91666666Y-49577380D01*
X92047619Y-49577380D01*
X92142857Y-49625000D01*
X92190476Y-49672619D01*
X92238095Y-49767857D01*
X92238095Y-49910714D01*
X92190476Y-50005952D01*
X92142857Y-50053571D01*
X92047619Y-50101190D01*
X91666666Y-50101190D01*
X93190476Y-50577380D02*
X92619047Y-50577380D01*
X92904761Y-50577380D02*
X92904761Y-49577380D01*
X92809523Y-49720238D01*
X92714285Y-49815476D01*
X92619047Y-49863095D01*
X93523809Y-49577380D02*
X94190476Y-49577380D01*
X93761904Y-50577380D01*
%TO.C,R17*%
X90647380Y-72392857D02*
X90171190Y-72726190D01*
X90647380Y-72964285D02*
X89647380Y-72964285D01*
X89647380Y-72583333D01*
X89695000Y-72488095D01*
X89742619Y-72440476D01*
X89837857Y-72392857D01*
X89980714Y-72392857D01*
X90075952Y-72440476D01*
X90123571Y-72488095D01*
X90171190Y-72583333D01*
X90171190Y-72964285D01*
X90647380Y-71440476D02*
X90647380Y-72011904D01*
X90647380Y-71726190D02*
X89647380Y-71726190D01*
X89790238Y-71821428D01*
X89885476Y-71916666D01*
X89933095Y-72011904D01*
X89647380Y-71107142D02*
X89647380Y-70440476D01*
X90647380Y-70869047D01*
%TO.C,L1*%
X39333333Y-39702380D02*
X38857142Y-39702380D01*
X38857142Y-38702380D01*
X40190476Y-39702380D02*
X39619047Y-39702380D01*
X39904761Y-39702380D02*
X39904761Y-38702380D01*
X39809523Y-38845238D01*
X39714285Y-38940476D01*
X39619047Y-38988095D01*
%TO.C,R3*%
X113632380Y-42416666D02*
X113156190Y-42750000D01*
X113632380Y-42988095D02*
X112632380Y-42988095D01*
X112632380Y-42607142D01*
X112680000Y-42511904D01*
X112727619Y-42464285D01*
X112822857Y-42416666D01*
X112965714Y-42416666D01*
X113060952Y-42464285D01*
X113108571Y-42511904D01*
X113156190Y-42607142D01*
X113156190Y-42988095D01*
X112632380Y-42083333D02*
X112632380Y-41464285D01*
X113013333Y-41797619D01*
X113013333Y-41654761D01*
X113060952Y-41559523D01*
X113108571Y-41511904D01*
X113203809Y-41464285D01*
X113441904Y-41464285D01*
X113537142Y-41511904D01*
X113584761Y-41559523D01*
X113632380Y-41654761D01*
X113632380Y-41940476D01*
X113584761Y-42035714D01*
X113537142Y-42083333D01*
%TO.C,U3*%
X98623095Y-34864380D02*
X98623095Y-35673904D01*
X98670714Y-35769142D01*
X98718333Y-35816761D01*
X98813571Y-35864380D01*
X99004047Y-35864380D01*
X99099285Y-35816761D01*
X99146904Y-35769142D01*
X99194523Y-35673904D01*
X99194523Y-34864380D01*
X99575476Y-34864380D02*
X100194523Y-34864380D01*
X99861190Y-35245333D01*
X100004047Y-35245333D01*
X100099285Y-35292952D01*
X100146904Y-35340571D01*
X100194523Y-35435809D01*
X100194523Y-35673904D01*
X100146904Y-35769142D01*
X100099285Y-35816761D01*
X100004047Y-35864380D01*
X99718333Y-35864380D01*
X99623095Y-35816761D01*
X99575476Y-35769142D01*
%TO.C,D3*%
X39511904Y-13452380D02*
X39511904Y-12452380D01*
X39750000Y-12452380D01*
X39892857Y-12500000D01*
X39988095Y-12595238D01*
X40035714Y-12690476D01*
X40083333Y-12880952D01*
X40083333Y-13023809D01*
X40035714Y-13214285D01*
X39988095Y-13309523D01*
X39892857Y-13404761D01*
X39750000Y-13452380D01*
X39511904Y-13452380D01*
X40416666Y-12452380D02*
X41035714Y-12452380D01*
X40702380Y-12833333D01*
X40845238Y-12833333D01*
X40940476Y-12880952D01*
X40988095Y-12928571D01*
X41035714Y-13023809D01*
X41035714Y-13261904D01*
X40988095Y-13357142D01*
X40940476Y-13404761D01*
X40845238Y-13452380D01*
X40559523Y-13452380D01*
X40464285Y-13404761D01*
X40416666Y-13357142D01*
%TO.C,R18*%
X106997380Y-72317857D02*
X106521190Y-72651190D01*
X106997380Y-72889285D02*
X105997380Y-72889285D01*
X105997380Y-72508333D01*
X106045000Y-72413095D01*
X106092619Y-72365476D01*
X106187857Y-72317857D01*
X106330714Y-72317857D01*
X106425952Y-72365476D01*
X106473571Y-72413095D01*
X106521190Y-72508333D01*
X106521190Y-72889285D01*
X106997380Y-71365476D02*
X106997380Y-71936904D01*
X106997380Y-71651190D02*
X105997380Y-71651190D01*
X106140238Y-71746428D01*
X106235476Y-71841666D01*
X106283095Y-71936904D01*
X106425952Y-70794047D02*
X106378333Y-70889285D01*
X106330714Y-70936904D01*
X106235476Y-70984523D01*
X106187857Y-70984523D01*
X106092619Y-70936904D01*
X106045000Y-70889285D01*
X105997380Y-70794047D01*
X105997380Y-70603571D01*
X106045000Y-70508333D01*
X106092619Y-70460714D01*
X106187857Y-70413095D01*
X106235476Y-70413095D01*
X106330714Y-70460714D01*
X106378333Y-70508333D01*
X106425952Y-70603571D01*
X106425952Y-70794047D01*
X106473571Y-70889285D01*
X106521190Y-70936904D01*
X106616428Y-70984523D01*
X106806904Y-70984523D01*
X106902142Y-70936904D01*
X106949761Y-70889285D01*
X106997380Y-70794047D01*
X106997380Y-70603571D01*
X106949761Y-70508333D01*
X106902142Y-70460714D01*
X106806904Y-70413095D01*
X106616428Y-70413095D01*
X106521190Y-70460714D01*
X106473571Y-70508333D01*
X106425952Y-70603571D01*
%TO.C,TP9*%
X26738095Y-32327380D02*
X27309523Y-32327380D01*
X27023809Y-33327380D02*
X27023809Y-32327380D01*
X27642857Y-33327380D02*
X27642857Y-32327380D01*
X28023809Y-32327380D01*
X28119047Y-32375000D01*
X28166666Y-32422619D01*
X28214285Y-32517857D01*
X28214285Y-32660714D01*
X28166666Y-32755952D01*
X28119047Y-32803571D01*
X28023809Y-32851190D01*
X27642857Y-32851190D01*
X28690476Y-33327380D02*
X28880952Y-33327380D01*
X28976190Y-33279761D01*
X29023809Y-33232142D01*
X29119047Y-33089285D01*
X29166666Y-32898809D01*
X29166666Y-32517857D01*
X29119047Y-32422619D01*
X29071428Y-32375000D01*
X28976190Y-32327380D01*
X28785714Y-32327380D01*
X28690476Y-32375000D01*
X28642857Y-32422619D01*
X28595238Y-32517857D01*
X28595238Y-32755952D01*
X28642857Y-32851190D01*
X28690476Y-32898809D01*
X28785714Y-32946428D01*
X28976190Y-32946428D01*
X29071428Y-32898809D01*
X29119047Y-32851190D01*
X29166666Y-32755952D01*
%TO.C,C18*%
X70332142Y-30287142D02*
X70284523Y-30334761D01*
X70141666Y-30382380D01*
X70046428Y-30382380D01*
X69903571Y-30334761D01*
X69808333Y-30239523D01*
X69760714Y-30144285D01*
X69713095Y-29953809D01*
X69713095Y-29810952D01*
X69760714Y-29620476D01*
X69808333Y-29525238D01*
X69903571Y-29430000D01*
X70046428Y-29382380D01*
X70141666Y-29382380D01*
X70284523Y-29430000D01*
X70332142Y-29477619D01*
X71284523Y-30382380D02*
X70713095Y-30382380D01*
X70998809Y-30382380D02*
X70998809Y-29382380D01*
X70903571Y-29525238D01*
X70808333Y-29620476D01*
X70713095Y-29668095D01*
X71855952Y-29810952D02*
X71760714Y-29763333D01*
X71713095Y-29715714D01*
X71665476Y-29620476D01*
X71665476Y-29572857D01*
X71713095Y-29477619D01*
X71760714Y-29430000D01*
X71855952Y-29382380D01*
X72046428Y-29382380D01*
X72141666Y-29430000D01*
X72189285Y-29477619D01*
X72236904Y-29572857D01*
X72236904Y-29620476D01*
X72189285Y-29715714D01*
X72141666Y-29763333D01*
X72046428Y-29810952D01*
X71855952Y-29810952D01*
X71760714Y-29858571D01*
X71713095Y-29906190D01*
X71665476Y-30001428D01*
X71665476Y-30191904D01*
X71713095Y-30287142D01*
X71760714Y-30334761D01*
X71855952Y-30382380D01*
X72046428Y-30382380D01*
X72141666Y-30334761D01*
X72189285Y-30287142D01*
X72236904Y-30191904D01*
X72236904Y-30001428D01*
X72189285Y-29906190D01*
X72141666Y-29858571D01*
X72046428Y-29810952D01*
%TO.C,TP14*%
X94202380Y-12738095D02*
X94202380Y-12166666D01*
X95202380Y-12452380D02*
X94202380Y-12452380D01*
X95202380Y-11833333D02*
X94202380Y-11833333D01*
X94202380Y-11452380D01*
X94250000Y-11357142D01*
X94297619Y-11309523D01*
X94392857Y-11261904D01*
X94535714Y-11261904D01*
X94630952Y-11309523D01*
X94678571Y-11357142D01*
X94726190Y-11452380D01*
X94726190Y-11833333D01*
X95202380Y-10309523D02*
X95202380Y-10880952D01*
X95202380Y-10595238D02*
X94202380Y-10595238D01*
X94345238Y-10690476D01*
X94440476Y-10785714D01*
X94488095Y-10880952D01*
X94535714Y-9452380D02*
X95202380Y-9452380D01*
X94154761Y-9690476D02*
X94869047Y-9928571D01*
X94869047Y-9309523D01*
%TO.C,U7*%
X89017380Y-18186904D02*
X89826904Y-18186904D01*
X89922142Y-18139285D01*
X89969761Y-18091666D01*
X90017380Y-17996428D01*
X90017380Y-17805952D01*
X89969761Y-17710714D01*
X89922142Y-17663095D01*
X89826904Y-17615476D01*
X89017380Y-17615476D01*
X89017380Y-17234523D02*
X89017380Y-16567857D01*
X90017380Y-16996428D01*
%TO.C,RV1*%
X34703627Y-76096878D02*
X34226124Y-76431130D01*
X34703627Y-76669882D02*
X33700871Y-76669882D01*
X33700871Y-76287879D01*
X33748622Y-76192379D01*
X33796372Y-76144628D01*
X33891872Y-76096878D01*
X34035123Y-76096878D01*
X34130624Y-76144628D01*
X34178374Y-76192379D01*
X34226124Y-76287879D01*
X34226124Y-76669882D01*
X33700871Y-75810376D02*
X34703627Y-75476124D01*
X33700871Y-75141872D01*
X34703627Y-74282367D02*
X34703627Y-74855371D01*
X34703627Y-74568869D02*
X33700871Y-74568869D01*
X33844122Y-74664370D01*
X33939623Y-74759870D01*
X33987373Y-74855371D01*
%TO.C,C12*%
X107237142Y-12142857D02*
X107284761Y-12190476D01*
X107332380Y-12333333D01*
X107332380Y-12428571D01*
X107284761Y-12571428D01*
X107189523Y-12666666D01*
X107094285Y-12714285D01*
X106903809Y-12761904D01*
X106760952Y-12761904D01*
X106570476Y-12714285D01*
X106475238Y-12666666D01*
X106380000Y-12571428D01*
X106332380Y-12428571D01*
X106332380Y-12333333D01*
X106380000Y-12190476D01*
X106427619Y-12142857D01*
X107332380Y-11190476D02*
X107332380Y-11761904D01*
X107332380Y-11476190D02*
X106332380Y-11476190D01*
X106475238Y-11571428D01*
X106570476Y-11666666D01*
X106618095Y-11761904D01*
X106427619Y-10809523D02*
X106380000Y-10761904D01*
X106332380Y-10666666D01*
X106332380Y-10428571D01*
X106380000Y-10333333D01*
X106427619Y-10285714D01*
X106522857Y-10238095D01*
X106618095Y-10238095D01*
X106760952Y-10285714D01*
X107332380Y-10857142D01*
X107332380Y-10238095D01*
%TO.C,U5*%
X105438095Y-40540380D02*
X105438095Y-41349904D01*
X105485714Y-41445142D01*
X105533333Y-41492761D01*
X105628571Y-41540380D01*
X105819047Y-41540380D01*
X105914285Y-41492761D01*
X105961904Y-41445142D01*
X106009523Y-41349904D01*
X106009523Y-40540380D01*
X106961904Y-40540380D02*
X106485714Y-40540380D01*
X106438095Y-41016571D01*
X106485714Y-40968952D01*
X106580952Y-40921333D01*
X106819047Y-40921333D01*
X106914285Y-40968952D01*
X106961904Y-41016571D01*
X107009523Y-41111809D01*
X107009523Y-41349904D01*
X106961904Y-41445142D01*
X106914285Y-41492761D01*
X106819047Y-41540380D01*
X106580952Y-41540380D01*
X106485714Y-41492761D01*
X106438095Y-41445142D01*
%TO.C,TP2*%
X31988095Y-41077380D02*
X32559523Y-41077380D01*
X32273809Y-42077380D02*
X32273809Y-41077380D01*
X32892857Y-42077380D02*
X32892857Y-41077380D01*
X33273809Y-41077380D01*
X33369047Y-41125000D01*
X33416666Y-41172619D01*
X33464285Y-41267857D01*
X33464285Y-41410714D01*
X33416666Y-41505952D01*
X33369047Y-41553571D01*
X33273809Y-41601190D01*
X32892857Y-41601190D01*
X33845238Y-41172619D02*
X33892857Y-41125000D01*
X33988095Y-41077380D01*
X34226190Y-41077380D01*
X34321428Y-41125000D01*
X34369047Y-41172619D01*
X34416666Y-41267857D01*
X34416666Y-41363095D01*
X34369047Y-41505952D01*
X33797619Y-42077380D01*
X34416666Y-42077380D01*
%TO.C,R20*%
X109997380Y-72317857D02*
X109521190Y-72651190D01*
X109997380Y-72889285D02*
X108997380Y-72889285D01*
X108997380Y-72508333D01*
X109045000Y-72413095D01*
X109092619Y-72365476D01*
X109187857Y-72317857D01*
X109330714Y-72317857D01*
X109425952Y-72365476D01*
X109473571Y-72413095D01*
X109521190Y-72508333D01*
X109521190Y-72889285D01*
X109092619Y-71936904D02*
X109045000Y-71889285D01*
X108997380Y-71794047D01*
X108997380Y-71555952D01*
X109045000Y-71460714D01*
X109092619Y-71413095D01*
X109187857Y-71365476D01*
X109283095Y-71365476D01*
X109425952Y-71413095D01*
X109997380Y-71984523D01*
X109997380Y-71365476D01*
X108997380Y-70746428D02*
X108997380Y-70651190D01*
X109045000Y-70555952D01*
X109092619Y-70508333D01*
X109187857Y-70460714D01*
X109378333Y-70413095D01*
X109616428Y-70413095D01*
X109806904Y-70460714D01*
X109902142Y-70508333D01*
X109949761Y-70555952D01*
X109997380Y-70651190D01*
X109997380Y-70746428D01*
X109949761Y-70841666D01*
X109902142Y-70889285D01*
X109806904Y-70936904D01*
X109616428Y-70984523D01*
X109378333Y-70984523D01*
X109187857Y-70936904D01*
X109092619Y-70889285D01*
X109045000Y-70841666D01*
X108997380Y-70746428D01*
%TO.C,R15*%
X87432380Y-72402857D02*
X86956190Y-72736190D01*
X87432380Y-72974285D02*
X86432380Y-72974285D01*
X86432380Y-72593333D01*
X86480000Y-72498095D01*
X86527619Y-72450476D01*
X86622857Y-72402857D01*
X86765714Y-72402857D01*
X86860952Y-72450476D01*
X86908571Y-72498095D01*
X86956190Y-72593333D01*
X86956190Y-72974285D01*
X87432380Y-71450476D02*
X87432380Y-72021904D01*
X87432380Y-71736190D02*
X86432380Y-71736190D01*
X86575238Y-71831428D01*
X86670476Y-71926666D01*
X86718095Y-72021904D01*
X86432380Y-70545714D02*
X86432380Y-71021904D01*
X86908571Y-71069523D01*
X86860952Y-71021904D01*
X86813333Y-70926666D01*
X86813333Y-70688571D01*
X86860952Y-70593333D01*
X86908571Y-70545714D01*
X87003809Y-70498095D01*
X87241904Y-70498095D01*
X87337142Y-70545714D01*
X87384761Y-70593333D01*
X87432380Y-70688571D01*
X87432380Y-70926666D01*
X87384761Y-71021904D01*
X87337142Y-71069523D01*
%TO.C,TP6*%
X26238095Y-41077380D02*
X26809523Y-41077380D01*
X26523809Y-42077380D02*
X26523809Y-41077380D01*
X27142857Y-42077380D02*
X27142857Y-41077380D01*
X27523809Y-41077380D01*
X27619047Y-41125000D01*
X27666666Y-41172619D01*
X27714285Y-41267857D01*
X27714285Y-41410714D01*
X27666666Y-41505952D01*
X27619047Y-41553571D01*
X27523809Y-41601190D01*
X27142857Y-41601190D01*
X28571428Y-41077380D02*
X28380952Y-41077380D01*
X28285714Y-41125000D01*
X28238095Y-41172619D01*
X28142857Y-41315476D01*
X28095238Y-41505952D01*
X28095238Y-41886904D01*
X28142857Y-41982142D01*
X28190476Y-42029761D01*
X28285714Y-42077380D01*
X28476190Y-42077380D01*
X28571428Y-42029761D01*
X28619047Y-41982142D01*
X28666666Y-41886904D01*
X28666666Y-41648809D01*
X28619047Y-41553571D01*
X28571428Y-41505952D01*
X28476190Y-41458333D01*
X28285714Y-41458333D01*
X28190476Y-41505952D01*
X28142857Y-41553571D01*
X28095238Y-41648809D01*
%TO.C,U10*%
X53767380Y-18638095D02*
X54576904Y-18638095D01*
X54672142Y-18590476D01*
X54719761Y-18542857D01*
X54767380Y-18447619D01*
X54767380Y-18257142D01*
X54719761Y-18161904D01*
X54672142Y-18114285D01*
X54576904Y-18066666D01*
X53767380Y-18066666D01*
X54767380Y-17066666D02*
X54767380Y-17638095D01*
X54767380Y-17352380D02*
X53767380Y-17352380D01*
X53910238Y-17447619D01*
X54005476Y-17542857D01*
X54053095Y-17638095D01*
X53767380Y-16447619D02*
X53767380Y-16352380D01*
X53815000Y-16257142D01*
X53862619Y-16209523D01*
X53957857Y-16161904D01*
X54148333Y-16114285D01*
X54386428Y-16114285D01*
X54576904Y-16161904D01*
X54672142Y-16209523D01*
X54719761Y-16257142D01*
X54767380Y-16352380D01*
X54767380Y-16447619D01*
X54719761Y-16542857D01*
X54672142Y-16590476D01*
X54576904Y-16638095D01*
X54386428Y-16685714D01*
X54148333Y-16685714D01*
X53957857Y-16638095D01*
X53862619Y-16590476D01*
X53815000Y-16542857D01*
X53767380Y-16447619D01*
%TO.C,R19*%
X93722380Y-72392857D02*
X93246190Y-72726190D01*
X93722380Y-72964285D02*
X92722380Y-72964285D01*
X92722380Y-72583333D01*
X92770000Y-72488095D01*
X92817619Y-72440476D01*
X92912857Y-72392857D01*
X93055714Y-72392857D01*
X93150952Y-72440476D01*
X93198571Y-72488095D01*
X93246190Y-72583333D01*
X93246190Y-72964285D01*
X93722380Y-71440476D02*
X93722380Y-72011904D01*
X93722380Y-71726190D02*
X92722380Y-71726190D01*
X92865238Y-71821428D01*
X92960476Y-71916666D01*
X93008095Y-72011904D01*
X93722380Y-70964285D02*
X93722380Y-70773809D01*
X93674761Y-70678571D01*
X93627142Y-70630952D01*
X93484285Y-70535714D01*
X93293809Y-70488095D01*
X92912857Y-70488095D01*
X92817619Y-70535714D01*
X92770000Y-70583333D01*
X92722380Y-70678571D01*
X92722380Y-70869047D01*
X92770000Y-70964285D01*
X92817619Y-71011904D01*
X92912857Y-71059523D01*
X93150952Y-71059523D01*
X93246190Y-71011904D01*
X93293809Y-70964285D01*
X93341428Y-70869047D01*
X93341428Y-70678571D01*
X93293809Y-70583333D01*
X93246190Y-70535714D01*
X93150952Y-70488095D01*
%TO.C,C8*%
X106907142Y-38566666D02*
X106954761Y-38614285D01*
X107002380Y-38757142D01*
X107002380Y-38852380D01*
X106954761Y-38995238D01*
X106859523Y-39090476D01*
X106764285Y-39138095D01*
X106573809Y-39185714D01*
X106430952Y-39185714D01*
X106240476Y-39138095D01*
X106145238Y-39090476D01*
X106050000Y-38995238D01*
X106002380Y-38852380D01*
X106002380Y-38757142D01*
X106050000Y-38614285D01*
X106097619Y-38566666D01*
X106430952Y-37995238D02*
X106383333Y-38090476D01*
X106335714Y-38138095D01*
X106240476Y-38185714D01*
X106192857Y-38185714D01*
X106097619Y-38138095D01*
X106050000Y-38090476D01*
X106002380Y-37995238D01*
X106002380Y-37804761D01*
X106050000Y-37709523D01*
X106097619Y-37661904D01*
X106192857Y-37614285D01*
X106240476Y-37614285D01*
X106335714Y-37661904D01*
X106383333Y-37709523D01*
X106430952Y-37804761D01*
X106430952Y-37995238D01*
X106478571Y-38090476D01*
X106526190Y-38138095D01*
X106621428Y-38185714D01*
X106811904Y-38185714D01*
X106907142Y-38138095D01*
X106954761Y-38090476D01*
X107002380Y-37995238D01*
X107002380Y-37804761D01*
X106954761Y-37709523D01*
X106907142Y-37661904D01*
X106811904Y-37614285D01*
X106621428Y-37614285D01*
X106526190Y-37661904D01*
X106478571Y-37709523D01*
X106430952Y-37804761D01*
%TO.C,R9*%
X93703333Y-80282380D02*
X93370000Y-79806190D01*
X93131904Y-80282380D02*
X93131904Y-79282380D01*
X93512857Y-79282380D01*
X93608095Y-79330000D01*
X93655714Y-79377619D01*
X93703333Y-79472857D01*
X93703333Y-79615714D01*
X93655714Y-79710952D01*
X93608095Y-79758571D01*
X93512857Y-79806190D01*
X93131904Y-79806190D01*
X94179523Y-80282380D02*
X94370000Y-80282380D01*
X94465238Y-80234761D01*
X94512857Y-80187142D01*
X94608095Y-80044285D01*
X94655714Y-79853809D01*
X94655714Y-79472857D01*
X94608095Y-79377619D01*
X94560476Y-79330000D01*
X94465238Y-79282380D01*
X94274761Y-79282380D01*
X94179523Y-79330000D01*
X94131904Y-79377619D01*
X94084285Y-79472857D01*
X94084285Y-79710952D01*
X94131904Y-79806190D01*
X94179523Y-79853809D01*
X94274761Y-79901428D01*
X94465238Y-79901428D01*
X94560476Y-79853809D01*
X94608095Y-79806190D01*
X94655714Y-79710952D01*
%TO.C,R1*%
X40132380Y-21666666D02*
X39656190Y-22000000D01*
X40132380Y-22238095D02*
X39132380Y-22238095D01*
X39132380Y-21857142D01*
X39180000Y-21761904D01*
X39227619Y-21714285D01*
X39322857Y-21666666D01*
X39465714Y-21666666D01*
X39560952Y-21714285D01*
X39608571Y-21761904D01*
X39656190Y-21857142D01*
X39656190Y-22238095D01*
X40132380Y-20714285D02*
X40132380Y-21285714D01*
X40132380Y-21000000D02*
X39132380Y-21000000D01*
X39275238Y-21095238D01*
X39370476Y-21190476D01*
X39418095Y-21285714D01*
%TO.C,TP20*%
X42511904Y-80827380D02*
X43083333Y-80827380D01*
X42797619Y-81827380D02*
X42797619Y-80827380D01*
X43416666Y-81827380D02*
X43416666Y-80827380D01*
X43797619Y-80827380D01*
X43892857Y-80875000D01*
X43940476Y-80922619D01*
X43988095Y-81017857D01*
X43988095Y-81160714D01*
X43940476Y-81255952D01*
X43892857Y-81303571D01*
X43797619Y-81351190D01*
X43416666Y-81351190D01*
X44369047Y-80922619D02*
X44416666Y-80875000D01*
X44511904Y-80827380D01*
X44750000Y-80827380D01*
X44845238Y-80875000D01*
X44892857Y-80922619D01*
X44940476Y-81017857D01*
X44940476Y-81113095D01*
X44892857Y-81255952D01*
X44321428Y-81827380D01*
X44940476Y-81827380D01*
X45559523Y-80827380D02*
X45654761Y-80827380D01*
X45750000Y-80875000D01*
X45797619Y-80922619D01*
X45845238Y-81017857D01*
X45892857Y-81208333D01*
X45892857Y-81446428D01*
X45845238Y-81636904D01*
X45797619Y-81732142D01*
X45750000Y-81779761D01*
X45654761Y-81827380D01*
X45559523Y-81827380D01*
X45464285Y-81779761D01*
X45416666Y-81732142D01*
X45369047Y-81636904D01*
X45321428Y-81446428D01*
X45321428Y-81208333D01*
X45369047Y-81017857D01*
X45416666Y-80922619D01*
X45464285Y-80875000D01*
X45559523Y-80827380D01*
%TO.C,Q2*%
X27495119Y-83295238D02*
X27447500Y-83390476D01*
X27352261Y-83485714D01*
X27209404Y-83628571D01*
X27161785Y-83723809D01*
X27161785Y-83819047D01*
X27399880Y-83771428D02*
X27352261Y-83866666D01*
X27257023Y-83961904D01*
X27066547Y-84009523D01*
X26733214Y-84009523D01*
X26542738Y-83961904D01*
X26447500Y-83866666D01*
X26399880Y-83771428D01*
X26399880Y-83580952D01*
X26447500Y-83485714D01*
X26542738Y-83390476D01*
X26733214Y-83342857D01*
X27066547Y-83342857D01*
X27257023Y-83390476D01*
X27352261Y-83485714D01*
X27399880Y-83580952D01*
X27399880Y-83771428D01*
X26495119Y-82961904D02*
X26447500Y-82914285D01*
X26399880Y-82819047D01*
X26399880Y-82580952D01*
X26447500Y-82485714D01*
X26495119Y-82438095D01*
X26590357Y-82390476D01*
X26685595Y-82390476D01*
X26828452Y-82438095D01*
X27399880Y-83009523D01*
X27399880Y-82390476D01*
%TO.C,TP4*%
X68238095Y-84952380D02*
X68809523Y-84952380D01*
X68523809Y-85952380D02*
X68523809Y-84952380D01*
X69142857Y-85952380D02*
X69142857Y-84952380D01*
X69523809Y-84952380D01*
X69619047Y-85000000D01*
X69666666Y-85047619D01*
X69714285Y-85142857D01*
X69714285Y-85285714D01*
X69666666Y-85380952D01*
X69619047Y-85428571D01*
X69523809Y-85476190D01*
X69142857Y-85476190D01*
X70571428Y-85285714D02*
X70571428Y-85952380D01*
X70333333Y-84904761D02*
X70095238Y-85619047D01*
X70714285Y-85619047D01*
%TO.C,J3*%
X114066666Y-9252380D02*
X114066666Y-9966666D01*
X114019047Y-10109523D01*
X113923809Y-10204761D01*
X113780952Y-10252380D01*
X113685714Y-10252380D01*
X114447619Y-9252380D02*
X115066666Y-9252380D01*
X114733333Y-9633333D01*
X114876190Y-9633333D01*
X114971428Y-9680952D01*
X115019047Y-9728571D01*
X115066666Y-9823809D01*
X115066666Y-10061904D01*
X115019047Y-10157142D01*
X114971428Y-10204761D01*
X114876190Y-10252380D01*
X114590476Y-10252380D01*
X114495238Y-10204761D01*
X114447619Y-10157142D01*
X112250000Y-4402380D02*
X112250000Y-4640476D01*
X112011904Y-4545238D02*
X112250000Y-4640476D01*
X112488095Y-4545238D01*
X112107142Y-4830952D02*
X112250000Y-4640476D01*
X112392857Y-4830952D01*
%TO.C,D1*%
X22261904Y-12172380D02*
X22261904Y-11172380D01*
X22500000Y-11172380D01*
X22642857Y-11220000D01*
X22738095Y-11315238D01*
X22785714Y-11410476D01*
X22833333Y-11600952D01*
X22833333Y-11743809D01*
X22785714Y-11934285D01*
X22738095Y-12029523D01*
X22642857Y-12124761D01*
X22500000Y-12172380D01*
X22261904Y-12172380D01*
X23785714Y-12172380D02*
X23214285Y-12172380D01*
X23500000Y-12172380D02*
X23500000Y-11172380D01*
X23404761Y-11315238D01*
X23309523Y-11410476D01*
X23214285Y-11458095D01*
X30358095Y-11052380D02*
X30358095Y-10052380D01*
X30929523Y-11052380D02*
X30500952Y-10480952D01*
X30929523Y-10052380D02*
X30358095Y-10623809D01*
%TO.C,R14*%
X112502142Y-79452380D02*
X112168809Y-78976190D01*
X111930714Y-79452380D02*
X111930714Y-78452380D01*
X112311666Y-78452380D01*
X112406904Y-78500000D01*
X112454523Y-78547619D01*
X112502142Y-78642857D01*
X112502142Y-78785714D01*
X112454523Y-78880952D01*
X112406904Y-78928571D01*
X112311666Y-78976190D01*
X111930714Y-78976190D01*
X113454523Y-79452380D02*
X112883095Y-79452380D01*
X113168809Y-79452380D02*
X113168809Y-78452380D01*
X113073571Y-78595238D01*
X112978333Y-78690476D01*
X112883095Y-78738095D01*
X114311666Y-78785714D02*
X114311666Y-79452380D01*
X114073571Y-78404761D02*
X113835476Y-79119047D01*
X114454523Y-79119047D01*
%TO.C,R22*%
X112997380Y-72317857D02*
X112521190Y-72651190D01*
X112997380Y-72889285D02*
X111997380Y-72889285D01*
X111997380Y-72508333D01*
X112045000Y-72413095D01*
X112092619Y-72365476D01*
X112187857Y-72317857D01*
X112330714Y-72317857D01*
X112425952Y-72365476D01*
X112473571Y-72413095D01*
X112521190Y-72508333D01*
X112521190Y-72889285D01*
X112092619Y-71936904D02*
X112045000Y-71889285D01*
X111997380Y-71794047D01*
X111997380Y-71555952D01*
X112045000Y-71460714D01*
X112092619Y-71413095D01*
X112187857Y-71365476D01*
X112283095Y-71365476D01*
X112425952Y-71413095D01*
X112997380Y-71984523D01*
X112997380Y-71365476D01*
X112092619Y-70984523D02*
X112045000Y-70936904D01*
X111997380Y-70841666D01*
X111997380Y-70603571D01*
X112045000Y-70508333D01*
X112092619Y-70460714D01*
X112187857Y-70413095D01*
X112283095Y-70413095D01*
X112425952Y-70460714D01*
X112997380Y-71032142D01*
X112997380Y-70413095D01*
%TO.C,U6*%
X103267380Y-18186904D02*
X104076904Y-18186904D01*
X104172142Y-18139285D01*
X104219761Y-18091666D01*
X104267380Y-17996428D01*
X104267380Y-17805952D01*
X104219761Y-17710714D01*
X104172142Y-17663095D01*
X104076904Y-17615476D01*
X103267380Y-17615476D01*
X103267380Y-16710714D02*
X103267380Y-16901190D01*
X103315000Y-16996428D01*
X103362619Y-17044047D01*
X103505476Y-17139285D01*
X103695952Y-17186904D01*
X104076904Y-17186904D01*
X104172142Y-17139285D01*
X104219761Y-17091666D01*
X104267380Y-16996428D01*
X104267380Y-16805952D01*
X104219761Y-16710714D01*
X104172142Y-16663095D01*
X104076904Y-16615476D01*
X103838809Y-16615476D01*
X103743571Y-16663095D01*
X103695952Y-16710714D01*
X103648333Y-16805952D01*
X103648333Y-16996428D01*
X103695952Y-17091666D01*
X103743571Y-17139285D01*
X103838809Y-17186904D01*
%TO.C,SW1*%
X79379166Y-81616666D02*
X79445833Y-81416666D01*
X79445833Y-81083333D01*
X79379166Y-80950000D01*
X79312500Y-80883333D01*
X79179166Y-80816666D01*
X79045833Y-80816666D01*
X78912500Y-80883333D01*
X78845833Y-80950000D01*
X78779166Y-81083333D01*
X78712500Y-81350000D01*
X78645833Y-81483333D01*
X78579166Y-81550000D01*
X78445833Y-81616666D01*
X78312500Y-81616666D01*
X78179166Y-81550000D01*
X78112500Y-81483333D01*
X78045833Y-81350000D01*
X78045833Y-81016666D01*
X78112500Y-80816666D01*
X78045833Y-80350000D02*
X79445833Y-80016666D01*
X78445833Y-79750000D01*
X79445833Y-79483333D01*
X78045833Y-79150000D01*
X79445833Y-77883333D02*
X79445833Y-78683333D01*
X79445833Y-78283333D02*
X78045833Y-78283333D01*
X78245833Y-78416666D01*
X78379166Y-78550000D01*
X78445833Y-78683333D01*
%TO.C,R27*%
X23607142Y-82022380D02*
X23273809Y-81546190D01*
X23035714Y-82022380D02*
X23035714Y-81022380D01*
X23416666Y-81022380D01*
X23511904Y-81070000D01*
X23559523Y-81117619D01*
X23607142Y-81212857D01*
X23607142Y-81355714D01*
X23559523Y-81450952D01*
X23511904Y-81498571D01*
X23416666Y-81546190D01*
X23035714Y-81546190D01*
X23988095Y-81117619D02*
X24035714Y-81070000D01*
X24130952Y-81022380D01*
X24369047Y-81022380D01*
X24464285Y-81070000D01*
X24511904Y-81117619D01*
X24559523Y-81212857D01*
X24559523Y-81308095D01*
X24511904Y-81450952D01*
X23940476Y-82022380D01*
X24559523Y-82022380D01*
X24892857Y-81022380D02*
X25559523Y-81022380D01*
X25130952Y-82022380D01*
%TO.C,R5*%
X113633333Y-47632380D02*
X113300000Y-47156190D01*
X113061904Y-47632380D02*
X113061904Y-46632380D01*
X113442857Y-46632380D01*
X113538095Y-46680000D01*
X113585714Y-46727619D01*
X113633333Y-46822857D01*
X113633333Y-46965714D01*
X113585714Y-47060952D01*
X113538095Y-47108571D01*
X113442857Y-47156190D01*
X113061904Y-47156190D01*
X114538095Y-46632380D02*
X114061904Y-46632380D01*
X114014285Y-47108571D01*
X114061904Y-47060952D01*
X114157142Y-47013333D01*
X114395238Y-47013333D01*
X114490476Y-47060952D01*
X114538095Y-47108571D01*
X114585714Y-47203809D01*
X114585714Y-47441904D01*
X114538095Y-47537142D01*
X114490476Y-47584761D01*
X114395238Y-47632380D01*
X114157142Y-47632380D01*
X114061904Y-47584761D01*
X114014285Y-47537142D01*
%TO.C,C11*%
X67537142Y-12142857D02*
X67584761Y-12190476D01*
X67632380Y-12333333D01*
X67632380Y-12428571D01*
X67584761Y-12571428D01*
X67489523Y-12666666D01*
X67394285Y-12714285D01*
X67203809Y-12761904D01*
X67060952Y-12761904D01*
X66870476Y-12714285D01*
X66775238Y-12666666D01*
X66680000Y-12571428D01*
X66632380Y-12428571D01*
X66632380Y-12333333D01*
X66680000Y-12190476D01*
X66727619Y-12142857D01*
X67632380Y-11190476D02*
X67632380Y-11761904D01*
X67632380Y-11476190D02*
X66632380Y-11476190D01*
X66775238Y-11571428D01*
X66870476Y-11666666D01*
X66918095Y-11761904D01*
X67632380Y-10238095D02*
X67632380Y-10809523D01*
X67632380Y-10523809D02*
X66632380Y-10523809D01*
X66775238Y-10619047D01*
X66870476Y-10714285D01*
X66918095Y-10809523D01*
%TO.C,TP13*%
X79511904Y-15577380D02*
X80083333Y-15577380D01*
X79797619Y-16577380D02*
X79797619Y-15577380D01*
X80416666Y-16577380D02*
X80416666Y-15577380D01*
X80797619Y-15577380D01*
X80892857Y-15625000D01*
X80940476Y-15672619D01*
X80988095Y-15767857D01*
X80988095Y-15910714D01*
X80940476Y-16005952D01*
X80892857Y-16053571D01*
X80797619Y-16101190D01*
X80416666Y-16101190D01*
X81940476Y-16577380D02*
X81369047Y-16577380D01*
X81654761Y-16577380D02*
X81654761Y-15577380D01*
X81559523Y-15720238D01*
X81464285Y-15815476D01*
X81369047Y-15863095D01*
X82273809Y-15577380D02*
X82892857Y-15577380D01*
X82559523Y-15958333D01*
X82702380Y-15958333D01*
X82797619Y-16005952D01*
X82845238Y-16053571D01*
X82892857Y-16148809D01*
X82892857Y-16386904D01*
X82845238Y-16482142D01*
X82797619Y-16529761D01*
X82702380Y-16577380D01*
X82416666Y-16577380D01*
X82321428Y-16529761D01*
X82273809Y-16482142D01*
%TO.C,C10*%
X70287142Y-12142857D02*
X70334761Y-12190476D01*
X70382380Y-12333333D01*
X70382380Y-12428571D01*
X70334761Y-12571428D01*
X70239523Y-12666666D01*
X70144285Y-12714285D01*
X69953809Y-12761904D01*
X69810952Y-12761904D01*
X69620476Y-12714285D01*
X69525238Y-12666666D01*
X69430000Y-12571428D01*
X69382380Y-12428571D01*
X69382380Y-12333333D01*
X69430000Y-12190476D01*
X69477619Y-12142857D01*
X70382380Y-11190476D02*
X70382380Y-11761904D01*
X70382380Y-11476190D02*
X69382380Y-11476190D01*
X69525238Y-11571428D01*
X69620476Y-11666666D01*
X69668095Y-11761904D01*
X69382380Y-10571428D02*
X69382380Y-10476190D01*
X69430000Y-10380952D01*
X69477619Y-10333333D01*
X69572857Y-10285714D01*
X69763333Y-10238095D01*
X70001428Y-10238095D01*
X70191904Y-10285714D01*
X70287142Y-10333333D01*
X70334761Y-10380952D01*
X70382380Y-10476190D01*
X70382380Y-10571428D01*
X70334761Y-10666666D01*
X70287142Y-10714285D01*
X70191904Y-10761904D01*
X70001428Y-10809523D01*
X69763333Y-10809523D01*
X69572857Y-10761904D01*
X69477619Y-10714285D01*
X69430000Y-10666666D01*
X69382380Y-10571428D01*
%TO.C,C15*%
X88287142Y-12142857D02*
X88334761Y-12190476D01*
X88382380Y-12333333D01*
X88382380Y-12428571D01*
X88334761Y-12571428D01*
X88239523Y-12666666D01*
X88144285Y-12714285D01*
X87953809Y-12761904D01*
X87810952Y-12761904D01*
X87620476Y-12714285D01*
X87525238Y-12666666D01*
X87430000Y-12571428D01*
X87382380Y-12428571D01*
X87382380Y-12333333D01*
X87430000Y-12190476D01*
X87477619Y-12142857D01*
X88382380Y-11190476D02*
X88382380Y-11761904D01*
X88382380Y-11476190D02*
X87382380Y-11476190D01*
X87525238Y-11571428D01*
X87620476Y-11666666D01*
X87668095Y-11761904D01*
X87382380Y-10285714D02*
X87382380Y-10761904D01*
X87858571Y-10809523D01*
X87810952Y-10761904D01*
X87763333Y-10666666D01*
X87763333Y-10428571D01*
X87810952Y-10333333D01*
X87858571Y-10285714D01*
X87953809Y-10238095D01*
X88191904Y-10238095D01*
X88287142Y-10285714D01*
X88334761Y-10333333D01*
X88382380Y-10428571D01*
X88382380Y-10666666D01*
X88334761Y-10761904D01*
X88287142Y-10809523D01*
%TO.C,TP16*%
X85261904Y-52327380D02*
X85833333Y-52327380D01*
X85547619Y-53327380D02*
X85547619Y-52327380D01*
X86166666Y-53327380D02*
X86166666Y-52327380D01*
X86547619Y-52327380D01*
X86642857Y-52375000D01*
X86690476Y-52422619D01*
X86738095Y-52517857D01*
X86738095Y-52660714D01*
X86690476Y-52755952D01*
X86642857Y-52803571D01*
X86547619Y-52851190D01*
X86166666Y-52851190D01*
X87690476Y-53327380D02*
X87119047Y-53327380D01*
X87404761Y-53327380D02*
X87404761Y-52327380D01*
X87309523Y-52470238D01*
X87214285Y-52565476D01*
X87119047Y-52613095D01*
X88547619Y-52327380D02*
X88357142Y-52327380D01*
X88261904Y-52375000D01*
X88214285Y-52422619D01*
X88119047Y-52565476D01*
X88071428Y-52755952D01*
X88071428Y-53136904D01*
X88119047Y-53232142D01*
X88166666Y-53279761D01*
X88261904Y-53327380D01*
X88452380Y-53327380D01*
X88547619Y-53279761D01*
X88595238Y-53232142D01*
X88642857Y-53136904D01*
X88642857Y-52898809D01*
X88595238Y-52803571D01*
X88547619Y-52755952D01*
X88452380Y-52708333D01*
X88261904Y-52708333D01*
X88166666Y-52755952D01*
X88119047Y-52803571D01*
X88071428Y-52898809D01*
%TO.C,TP3*%
X117488095Y-13827380D02*
X118059523Y-13827380D01*
X117773809Y-14827380D02*
X117773809Y-13827380D01*
X118392857Y-14827380D02*
X118392857Y-13827380D01*
X118773809Y-13827380D01*
X118869047Y-13875000D01*
X118916666Y-13922619D01*
X118964285Y-14017857D01*
X118964285Y-14160714D01*
X118916666Y-14255952D01*
X118869047Y-14303571D01*
X118773809Y-14351190D01*
X118392857Y-14351190D01*
X119297619Y-13827380D02*
X119916666Y-13827380D01*
X119583333Y-14208333D01*
X119726190Y-14208333D01*
X119821428Y-14255952D01*
X119869047Y-14303571D01*
X119916666Y-14398809D01*
X119916666Y-14636904D01*
X119869047Y-14732142D01*
X119821428Y-14779761D01*
X119726190Y-14827380D01*
X119440476Y-14827380D01*
X119345238Y-14779761D01*
X119297619Y-14732142D01*
%TO.C,TP18*%
X106261904Y-53577380D02*
X106833333Y-53577380D01*
X106547619Y-54577380D02*
X106547619Y-53577380D01*
X107166666Y-54577380D02*
X107166666Y-53577380D01*
X107547619Y-53577380D01*
X107642857Y-53625000D01*
X107690476Y-53672619D01*
X107738095Y-53767857D01*
X107738095Y-53910714D01*
X107690476Y-54005952D01*
X107642857Y-54053571D01*
X107547619Y-54101190D01*
X107166666Y-54101190D01*
X108690476Y-54577380D02*
X108119047Y-54577380D01*
X108404761Y-54577380D02*
X108404761Y-53577380D01*
X108309523Y-53720238D01*
X108214285Y-53815476D01*
X108119047Y-53863095D01*
X109261904Y-54005952D02*
X109166666Y-53958333D01*
X109119047Y-53910714D01*
X109071428Y-53815476D01*
X109071428Y-53767857D01*
X109119047Y-53672619D01*
X109166666Y-53625000D01*
X109261904Y-53577380D01*
X109452380Y-53577380D01*
X109547619Y-53625000D01*
X109595238Y-53672619D01*
X109642857Y-53767857D01*
X109642857Y-53815476D01*
X109595238Y-53910714D01*
X109547619Y-53958333D01*
X109452380Y-54005952D01*
X109261904Y-54005952D01*
X109166666Y-54053571D01*
X109119047Y-54101190D01*
X109071428Y-54196428D01*
X109071428Y-54386904D01*
X109119047Y-54482142D01*
X109166666Y-54529761D01*
X109261904Y-54577380D01*
X109452380Y-54577380D01*
X109547619Y-54529761D01*
X109595238Y-54482142D01*
X109642857Y-54386904D01*
X109642857Y-54196428D01*
X109595238Y-54101190D01*
X109547619Y-54053571D01*
X109452380Y-54005952D01*
%TO.C,U9*%
X66517380Y-18186904D02*
X67326904Y-18186904D01*
X67422142Y-18139285D01*
X67469761Y-18091666D01*
X67517380Y-17996428D01*
X67517380Y-17805952D01*
X67469761Y-17710714D01*
X67422142Y-17663095D01*
X67326904Y-17615476D01*
X66517380Y-17615476D01*
X67517380Y-17091666D02*
X67517380Y-16901190D01*
X67469761Y-16805952D01*
X67422142Y-16758333D01*
X67279285Y-16663095D01*
X67088809Y-16615476D01*
X66707857Y-16615476D01*
X66612619Y-16663095D01*
X66565000Y-16710714D01*
X66517380Y-16805952D01*
X66517380Y-16996428D01*
X66565000Y-17091666D01*
X66612619Y-17139285D01*
X66707857Y-17186904D01*
X66945952Y-17186904D01*
X67041190Y-17139285D01*
X67088809Y-17091666D01*
X67136428Y-16996428D01*
X67136428Y-16805952D01*
X67088809Y-16710714D01*
X67041190Y-16663095D01*
X66945952Y-16615476D01*
%TO.C,R29*%
X39202380Y-83392857D02*
X38726190Y-83726190D01*
X39202380Y-83964285D02*
X38202380Y-83964285D01*
X38202380Y-83583333D01*
X38250000Y-83488095D01*
X38297619Y-83440476D01*
X38392857Y-83392857D01*
X38535714Y-83392857D01*
X38630952Y-83440476D01*
X38678571Y-83488095D01*
X38726190Y-83583333D01*
X38726190Y-83964285D01*
X38297619Y-83011904D02*
X38250000Y-82964285D01*
X38202380Y-82869047D01*
X38202380Y-82630952D01*
X38250000Y-82535714D01*
X38297619Y-82488095D01*
X38392857Y-82440476D01*
X38488095Y-82440476D01*
X38630952Y-82488095D01*
X39202380Y-83059523D01*
X39202380Y-82440476D01*
X39202380Y-81964285D02*
X39202380Y-81773809D01*
X39154761Y-81678571D01*
X39107142Y-81630952D01*
X38964285Y-81535714D01*
X38773809Y-81488095D01*
X38392857Y-81488095D01*
X38297619Y-81535714D01*
X38250000Y-81583333D01*
X38202380Y-81678571D01*
X38202380Y-81869047D01*
X38250000Y-81964285D01*
X38297619Y-82011904D01*
X38392857Y-82059523D01*
X38630952Y-82059523D01*
X38726190Y-82011904D01*
X38773809Y-81964285D01*
X38821428Y-81869047D01*
X38821428Y-81678571D01*
X38773809Y-81583333D01*
X38726190Y-81535714D01*
X38630952Y-81488095D01*
%TO.C,D2*%
X19491904Y-30122380D02*
X19491904Y-29122380D01*
X19730000Y-29122380D01*
X19872857Y-29170000D01*
X19968095Y-29265238D01*
X20015714Y-29360476D01*
X20063333Y-29550952D01*
X20063333Y-29693809D01*
X20015714Y-29884285D01*
X19968095Y-29979523D01*
X19872857Y-30074761D01*
X19730000Y-30122380D01*
X19491904Y-30122380D01*
X20444285Y-29217619D02*
X20491904Y-29170000D01*
X20587142Y-29122380D01*
X20825238Y-29122380D01*
X20920476Y-29170000D01*
X20968095Y-29217619D01*
X21015714Y-29312857D01*
X21015714Y-29408095D01*
X20968095Y-29550952D01*
X20396666Y-30122380D01*
X21015714Y-30122380D01*
X27588095Y-29002380D02*
X27588095Y-28002380D01*
X28159523Y-29002380D02*
X27730952Y-28430952D01*
X28159523Y-28002380D02*
X27588095Y-28573809D01*
%TO.C,R21*%
X97747380Y-72317857D02*
X97271190Y-72651190D01*
X97747380Y-72889285D02*
X96747380Y-72889285D01*
X96747380Y-72508333D01*
X96795000Y-72413095D01*
X96842619Y-72365476D01*
X96937857Y-72317857D01*
X97080714Y-72317857D01*
X97175952Y-72365476D01*
X97223571Y-72413095D01*
X97271190Y-72508333D01*
X97271190Y-72889285D01*
X96842619Y-71936904D02*
X96795000Y-71889285D01*
X96747380Y-71794047D01*
X96747380Y-71555952D01*
X96795000Y-71460714D01*
X96842619Y-71413095D01*
X96937857Y-71365476D01*
X97033095Y-71365476D01*
X97175952Y-71413095D01*
X97747380Y-71984523D01*
X97747380Y-71365476D01*
X97747380Y-70413095D02*
X97747380Y-70984523D01*
X97747380Y-70698809D02*
X96747380Y-70698809D01*
X96890238Y-70794047D01*
X96985476Y-70889285D01*
X97033095Y-70984523D01*
%TO.C,R16*%
X103972380Y-72317857D02*
X103496190Y-72651190D01*
X103972380Y-72889285D02*
X102972380Y-72889285D01*
X102972380Y-72508333D01*
X103020000Y-72413095D01*
X103067619Y-72365476D01*
X103162857Y-72317857D01*
X103305714Y-72317857D01*
X103400952Y-72365476D01*
X103448571Y-72413095D01*
X103496190Y-72508333D01*
X103496190Y-72889285D01*
X103972380Y-71365476D02*
X103972380Y-71936904D01*
X103972380Y-71651190D02*
X102972380Y-71651190D01*
X103115238Y-71746428D01*
X103210476Y-71841666D01*
X103258095Y-71936904D01*
X102972380Y-70508333D02*
X102972380Y-70698809D01*
X103020000Y-70794047D01*
X103067619Y-70841666D01*
X103210476Y-70936904D01*
X103400952Y-70984523D01*
X103781904Y-70984523D01*
X103877142Y-70936904D01*
X103924761Y-70889285D01*
X103972380Y-70794047D01*
X103972380Y-70603571D01*
X103924761Y-70508333D01*
X103877142Y-70460714D01*
X103781904Y-70413095D01*
X103543809Y-70413095D01*
X103448571Y-70460714D01*
X103400952Y-70508333D01*
X103353333Y-70603571D01*
X103353333Y-70794047D01*
X103400952Y-70889285D01*
X103448571Y-70936904D01*
X103543809Y-70984523D01*
%TO.C,U8*%
X71317380Y-36261904D02*
X72126904Y-36261904D01*
X72222142Y-36214285D01*
X72269761Y-36166666D01*
X72317380Y-36071428D01*
X72317380Y-35880952D01*
X72269761Y-35785714D01*
X72222142Y-35738095D01*
X72126904Y-35690476D01*
X71317380Y-35690476D01*
X71745952Y-35071428D02*
X71698333Y-35166666D01*
X71650714Y-35214285D01*
X71555476Y-35261904D01*
X71507857Y-35261904D01*
X71412619Y-35214285D01*
X71365000Y-35166666D01*
X71317380Y-35071428D01*
X71317380Y-34880952D01*
X71365000Y-34785714D01*
X71412619Y-34738095D01*
X71507857Y-34690476D01*
X71555476Y-34690476D01*
X71650714Y-34738095D01*
X71698333Y-34785714D01*
X71745952Y-34880952D01*
X71745952Y-35071428D01*
X71793571Y-35166666D01*
X71841190Y-35214285D01*
X71936428Y-35261904D01*
X72126904Y-35261904D01*
X72222142Y-35214285D01*
X72269761Y-35166666D01*
X72317380Y-35071428D01*
X72317380Y-34880952D01*
X72269761Y-34785714D01*
X72222142Y-34738095D01*
X72126904Y-34690476D01*
X71936428Y-34690476D01*
X71841190Y-34738095D01*
X71793571Y-34785714D01*
X71745952Y-34880952D01*
%TO.C,J2*%
X115666666Y-83277380D02*
X115666666Y-83991666D01*
X115619047Y-84134523D01*
X115523809Y-84229761D01*
X115380952Y-84277380D01*
X115285714Y-84277380D01*
X116095238Y-83372619D02*
X116142857Y-83325000D01*
X116238095Y-83277380D01*
X116476190Y-83277380D01*
X116571428Y-83325000D01*
X116619047Y-83372619D01*
X116666666Y-83467857D01*
X116666666Y-83563095D01*
X116619047Y-83705952D01*
X116047619Y-84277380D01*
X116666666Y-84277380D01*
X89750001Y-84752380D02*
X89750001Y-84990476D01*
X89511905Y-84895238D02*
X89750001Y-84990476D01*
X89988096Y-84895238D01*
X89607143Y-85180952D02*
X89750001Y-84990476D01*
X89892858Y-85180952D01*
%TO.C,TP10*%
X59202380Y-12738095D02*
X59202380Y-12166666D01*
X60202380Y-12452380D02*
X59202380Y-12452380D01*
X60202380Y-11833333D02*
X59202380Y-11833333D01*
X59202380Y-11452380D01*
X59250000Y-11357142D01*
X59297619Y-11309523D01*
X59392857Y-11261904D01*
X59535714Y-11261904D01*
X59630952Y-11309523D01*
X59678571Y-11357142D01*
X59726190Y-11452380D01*
X59726190Y-11833333D01*
X60202380Y-10309523D02*
X60202380Y-10880952D01*
X60202380Y-10595238D02*
X59202380Y-10595238D01*
X59345238Y-10690476D01*
X59440476Y-10785714D01*
X59488095Y-10880952D01*
X59202380Y-9690476D02*
X59202380Y-9595238D01*
X59250000Y-9500000D01*
X59297619Y-9452380D01*
X59392857Y-9404761D01*
X59583333Y-9357142D01*
X59821428Y-9357142D01*
X60011904Y-9404761D01*
X60107142Y-9452380D01*
X60154761Y-9500000D01*
X60202380Y-9595238D01*
X60202380Y-9690476D01*
X60154761Y-9785714D01*
X60107142Y-9833333D01*
X60011904Y-9880952D01*
X59821428Y-9928571D01*
X59583333Y-9928571D01*
X59392857Y-9880952D01*
X59297619Y-9833333D01*
X59250000Y-9785714D01*
X59202380Y-9690476D01*
%TO.C,C14*%
X91287142Y-12167857D02*
X91334761Y-12215476D01*
X91382380Y-12358333D01*
X91382380Y-12453571D01*
X91334761Y-12596428D01*
X91239523Y-12691666D01*
X91144285Y-12739285D01*
X90953809Y-12786904D01*
X90810952Y-12786904D01*
X90620476Y-12739285D01*
X90525238Y-12691666D01*
X90430000Y-12596428D01*
X90382380Y-12453571D01*
X90382380Y-12358333D01*
X90430000Y-12215476D01*
X90477619Y-12167857D01*
X91382380Y-11215476D02*
X91382380Y-11786904D01*
X91382380Y-11501190D02*
X90382380Y-11501190D01*
X90525238Y-11596428D01*
X90620476Y-11691666D01*
X90668095Y-11786904D01*
X90715714Y-10358333D02*
X91382380Y-10358333D01*
X90334761Y-10596428D02*
X91049047Y-10834523D01*
X91049047Y-10215476D01*
%TO.C,R30*%
X65382380Y-82692857D02*
X64906190Y-83026190D01*
X65382380Y-83264285D02*
X64382380Y-83264285D01*
X64382380Y-82883333D01*
X64430000Y-82788095D01*
X64477619Y-82740476D01*
X64572857Y-82692857D01*
X64715714Y-82692857D01*
X64810952Y-82740476D01*
X64858571Y-82788095D01*
X64906190Y-82883333D01*
X64906190Y-83264285D01*
X64382380Y-82359523D02*
X64382380Y-81740476D01*
X64763333Y-82073809D01*
X64763333Y-81930952D01*
X64810952Y-81835714D01*
X64858571Y-81788095D01*
X64953809Y-81740476D01*
X65191904Y-81740476D01*
X65287142Y-81788095D01*
X65334761Y-81835714D01*
X65382380Y-81930952D01*
X65382380Y-82216666D01*
X65334761Y-82311904D01*
X65287142Y-82359523D01*
X64382380Y-81121428D02*
X64382380Y-81026190D01*
X64430000Y-80930952D01*
X64477619Y-80883333D01*
X64572857Y-80835714D01*
X64763333Y-80788095D01*
X65001428Y-80788095D01*
X65191904Y-80835714D01*
X65287142Y-80883333D01*
X65334761Y-80930952D01*
X65382380Y-81026190D01*
X65382380Y-81121428D01*
X65334761Y-81216666D01*
X65287142Y-81264285D01*
X65191904Y-81311904D01*
X65001428Y-81359523D01*
X64763333Y-81359523D01*
X64572857Y-81311904D01*
X64477619Y-81264285D01*
X64430000Y-81216666D01*
X64382380Y-81121428D01*
%TO.C,R8*%
X103488333Y-80282380D02*
X103155000Y-79806190D01*
X102916904Y-80282380D02*
X102916904Y-79282380D01*
X103297857Y-79282380D01*
X103393095Y-79330000D01*
X103440714Y-79377619D01*
X103488333Y-79472857D01*
X103488333Y-79615714D01*
X103440714Y-79710952D01*
X103393095Y-79758571D01*
X103297857Y-79806190D01*
X102916904Y-79806190D01*
X104059761Y-79710952D02*
X103964523Y-79663333D01*
X103916904Y-79615714D01*
X103869285Y-79520476D01*
X103869285Y-79472857D01*
X103916904Y-79377619D01*
X103964523Y-79330000D01*
X104059761Y-79282380D01*
X104250238Y-79282380D01*
X104345476Y-79330000D01*
X104393095Y-79377619D01*
X104440714Y-79472857D01*
X104440714Y-79520476D01*
X104393095Y-79615714D01*
X104345476Y-79663333D01*
X104250238Y-79710952D01*
X104059761Y-79710952D01*
X103964523Y-79758571D01*
X103916904Y-79806190D01*
X103869285Y-79901428D01*
X103869285Y-80091904D01*
X103916904Y-80187142D01*
X103964523Y-80234761D01*
X104059761Y-80282380D01*
X104250238Y-80282380D01*
X104345476Y-80234761D01*
X104393095Y-80187142D01*
X104440714Y-80091904D01*
X104440714Y-79901428D01*
X104393095Y-79806190D01*
X104345476Y-79758571D01*
X104250238Y-79710952D01*
%TO.C,C2*%
X48427142Y-44741666D02*
X48474761Y-44789285D01*
X48522380Y-44932142D01*
X48522380Y-45027380D01*
X48474761Y-45170238D01*
X48379523Y-45265476D01*
X48284285Y-45313095D01*
X48093809Y-45360714D01*
X47950952Y-45360714D01*
X47760476Y-45313095D01*
X47665238Y-45265476D01*
X47570000Y-45170238D01*
X47522380Y-45027380D01*
X47522380Y-44932142D01*
X47570000Y-44789285D01*
X47617619Y-44741666D01*
X47617619Y-44360714D02*
X47570000Y-44313095D01*
X47522380Y-44217857D01*
X47522380Y-43979761D01*
X47570000Y-43884523D01*
X47617619Y-43836904D01*
X47712857Y-43789285D01*
X47808095Y-43789285D01*
X47950952Y-43836904D01*
X48522380Y-44408333D01*
X48522380Y-43789285D01*
%TO.C,R11*%
X97932142Y-80282380D02*
X97598809Y-79806190D01*
X97360714Y-80282380D02*
X97360714Y-79282380D01*
X97741666Y-79282380D01*
X97836904Y-79330000D01*
X97884523Y-79377619D01*
X97932142Y-79472857D01*
X97932142Y-79615714D01*
X97884523Y-79710952D01*
X97836904Y-79758571D01*
X97741666Y-79806190D01*
X97360714Y-79806190D01*
X98884523Y-80282380D02*
X98313095Y-80282380D01*
X98598809Y-80282380D02*
X98598809Y-79282380D01*
X98503571Y-79425238D01*
X98408333Y-79520476D01*
X98313095Y-79568095D01*
X99836904Y-80282380D02*
X99265476Y-80282380D01*
X99551190Y-80282380D02*
X99551190Y-79282380D01*
X99455952Y-79425238D01*
X99360714Y-79520476D01*
X99265476Y-79568095D01*
%TO.C,TP15*%
X115511904Y-21827380D02*
X116083333Y-21827380D01*
X115797619Y-22827380D02*
X115797619Y-21827380D01*
X116416666Y-22827380D02*
X116416666Y-21827380D01*
X116797619Y-21827380D01*
X116892857Y-21875000D01*
X116940476Y-21922619D01*
X116988095Y-22017857D01*
X116988095Y-22160714D01*
X116940476Y-22255952D01*
X116892857Y-22303571D01*
X116797619Y-22351190D01*
X116416666Y-22351190D01*
X117940476Y-22827380D02*
X117369047Y-22827380D01*
X117654761Y-22827380D02*
X117654761Y-21827380D01*
X117559523Y-21970238D01*
X117464285Y-22065476D01*
X117369047Y-22113095D01*
X118845238Y-21827380D02*
X118369047Y-21827380D01*
X118321428Y-22303571D01*
X118369047Y-22255952D01*
X118464285Y-22208333D01*
X118702380Y-22208333D01*
X118797619Y-22255952D01*
X118845238Y-22303571D01*
X118892857Y-22398809D01*
X118892857Y-22636904D01*
X118845238Y-22732142D01*
X118797619Y-22779761D01*
X118702380Y-22827380D01*
X118464285Y-22827380D01*
X118369047Y-22779761D01*
X118321428Y-22732142D01*
%TO.C,C5*%
X25507142Y-21019317D02*
X25554761Y-21066936D01*
X25602380Y-21209793D01*
X25602380Y-21305031D01*
X25554761Y-21447889D01*
X25459523Y-21543127D01*
X25364285Y-21590746D01*
X25173809Y-21638365D01*
X25030952Y-21638365D01*
X24840476Y-21590746D01*
X24745238Y-21543127D01*
X24650000Y-21447889D01*
X24602380Y-21305031D01*
X24602380Y-21209793D01*
X24650000Y-21066936D01*
X24697619Y-21019317D01*
X24602380Y-20114555D02*
X24602380Y-20590746D01*
X25078571Y-20638365D01*
X25030952Y-20590746D01*
X24983333Y-20495508D01*
X24983333Y-20257412D01*
X25030952Y-20162174D01*
X25078571Y-20114555D01*
X25173809Y-20066936D01*
X25411904Y-20066936D01*
X25507142Y-20114555D01*
X25554761Y-20162174D01*
X25602380Y-20257412D01*
X25602380Y-20495508D01*
X25554761Y-20590746D01*
X25507142Y-20638365D01*
%TO.C,R7*%
X90458333Y-77352380D02*
X90125000Y-76876190D01*
X89886904Y-77352380D02*
X89886904Y-76352380D01*
X90267857Y-76352380D01*
X90363095Y-76400000D01*
X90410714Y-76447619D01*
X90458333Y-76542857D01*
X90458333Y-76685714D01*
X90410714Y-76780952D01*
X90363095Y-76828571D01*
X90267857Y-76876190D01*
X89886904Y-76876190D01*
X90791666Y-76352380D02*
X91458333Y-76352380D01*
X91029761Y-77352380D01*
%TO.C,C19*%
X70357142Y-33287142D02*
X70309523Y-33334761D01*
X70166666Y-33382380D01*
X70071428Y-33382380D01*
X69928571Y-33334761D01*
X69833333Y-33239523D01*
X69785714Y-33144285D01*
X69738095Y-32953809D01*
X69738095Y-32810952D01*
X69785714Y-32620476D01*
X69833333Y-32525238D01*
X69928571Y-32430000D01*
X70071428Y-32382380D01*
X70166666Y-32382380D01*
X70309523Y-32430000D01*
X70357142Y-32477619D01*
X71309523Y-33382380D02*
X70738095Y-33382380D01*
X71023809Y-33382380D02*
X71023809Y-32382380D01*
X70928571Y-32525238D01*
X70833333Y-32620476D01*
X70738095Y-32668095D01*
X71785714Y-33382380D02*
X71976190Y-33382380D01*
X72071428Y-33334761D01*
X72119047Y-33287142D01*
X72214285Y-33144285D01*
X72261904Y-32953809D01*
X72261904Y-32572857D01*
X72214285Y-32477619D01*
X72166666Y-32430000D01*
X72071428Y-32382380D01*
X71880952Y-32382380D01*
X71785714Y-32430000D01*
X71738095Y-32477619D01*
X71690476Y-32572857D01*
X71690476Y-32810952D01*
X71738095Y-32906190D01*
X71785714Y-32953809D01*
X71880952Y-33001428D01*
X72071428Y-33001428D01*
X72166666Y-32953809D01*
X72214285Y-32906190D01*
X72261904Y-32810952D01*
%TO.C,R23*%
X100997380Y-72317857D02*
X100521190Y-72651190D01*
X100997380Y-72889285D02*
X99997380Y-72889285D01*
X99997380Y-72508333D01*
X100045000Y-72413095D01*
X100092619Y-72365476D01*
X100187857Y-72317857D01*
X100330714Y-72317857D01*
X100425952Y-72365476D01*
X100473571Y-72413095D01*
X100521190Y-72508333D01*
X100521190Y-72889285D01*
X100092619Y-71936904D02*
X100045000Y-71889285D01*
X99997380Y-71794047D01*
X99997380Y-71555952D01*
X100045000Y-71460714D01*
X100092619Y-71413095D01*
X100187857Y-71365476D01*
X100283095Y-71365476D01*
X100425952Y-71413095D01*
X100997380Y-71984523D01*
X100997380Y-71365476D01*
X99997380Y-71032142D02*
X99997380Y-70413095D01*
X100378333Y-70746428D01*
X100378333Y-70603571D01*
X100425952Y-70508333D01*
X100473571Y-70460714D01*
X100568809Y-70413095D01*
X100806904Y-70413095D01*
X100902142Y-70460714D01*
X100949761Y-70508333D01*
X100997380Y-70603571D01*
X100997380Y-70889285D01*
X100949761Y-70984523D01*
X100902142Y-71032142D01*
%TO.C,R6*%
X88248333Y-80332380D02*
X87915000Y-79856190D01*
X87676904Y-80332380D02*
X87676904Y-79332380D01*
X88057857Y-79332380D01*
X88153095Y-79380000D01*
X88200714Y-79427619D01*
X88248333Y-79522857D01*
X88248333Y-79665714D01*
X88200714Y-79760952D01*
X88153095Y-79808571D01*
X88057857Y-79856190D01*
X87676904Y-79856190D01*
X89105476Y-79332380D02*
X88915000Y-79332380D01*
X88819761Y-79380000D01*
X88772142Y-79427619D01*
X88676904Y-79570476D01*
X88629285Y-79760952D01*
X88629285Y-80141904D01*
X88676904Y-80237142D01*
X88724523Y-80284761D01*
X88819761Y-80332380D01*
X89010238Y-80332380D01*
X89105476Y-80284761D01*
X89153095Y-80237142D01*
X89200714Y-80141904D01*
X89200714Y-79903809D01*
X89153095Y-79808571D01*
X89105476Y-79760952D01*
X89010238Y-79713333D01*
X88819761Y-79713333D01*
X88724523Y-79760952D01*
X88676904Y-79808571D01*
X88629285Y-79903809D01*
%TO.C,JP1*%
X60072379Y-80083332D02*
X60786665Y-80083332D01*
X60929522Y-80130951D01*
X61024760Y-80226189D01*
X61072379Y-80369046D01*
X61072379Y-80464284D01*
X61072379Y-79607141D02*
X60072379Y-79607141D01*
X60072379Y-79226189D01*
X60119999Y-79130951D01*
X60167618Y-79083332D01*
X60262856Y-79035713D01*
X60405713Y-79035713D01*
X60500951Y-79083332D01*
X60548570Y-79130951D01*
X60596189Y-79226189D01*
X60596189Y-79607141D01*
X61072379Y-78083332D02*
X61072379Y-78654760D01*
X61072379Y-78369046D02*
X60072379Y-78369046D01*
X60215237Y-78464284D01*
X60310475Y-78559522D01*
X60358094Y-78654760D01*
%TO.C,C7*%
X52607142Y-33166666D02*
X52654761Y-33214285D01*
X52702380Y-33357142D01*
X52702380Y-33452380D01*
X52654761Y-33595238D01*
X52559523Y-33690476D01*
X52464285Y-33738095D01*
X52273809Y-33785714D01*
X52130952Y-33785714D01*
X51940476Y-33738095D01*
X51845238Y-33690476D01*
X51750000Y-33595238D01*
X51702380Y-33452380D01*
X51702380Y-33357142D01*
X51750000Y-33214285D01*
X51797619Y-33166666D01*
X51702380Y-32833333D02*
X51702380Y-32166666D01*
X52702380Y-32595238D01*
%TO.C,C20*%
X98282142Y-57437142D02*
X98234523Y-57484761D01*
X98091666Y-57532380D01*
X97996428Y-57532380D01*
X97853571Y-57484761D01*
X97758333Y-57389523D01*
X97710714Y-57294285D01*
X97663095Y-57103809D01*
X97663095Y-56960952D01*
X97710714Y-56770476D01*
X97758333Y-56675238D01*
X97853571Y-56580000D01*
X97996428Y-56532380D01*
X98091666Y-56532380D01*
X98234523Y-56580000D01*
X98282142Y-56627619D01*
X98663095Y-56627619D02*
X98710714Y-56580000D01*
X98805952Y-56532380D01*
X99044047Y-56532380D01*
X99139285Y-56580000D01*
X99186904Y-56627619D01*
X99234523Y-56722857D01*
X99234523Y-56818095D01*
X99186904Y-56960952D01*
X98615476Y-57532380D01*
X99234523Y-57532380D01*
X99853571Y-56532380D02*
X99948809Y-56532380D01*
X100044047Y-56580000D01*
X100091666Y-56627619D01*
X100139285Y-56722857D01*
X100186904Y-56913333D01*
X100186904Y-57151428D01*
X100139285Y-57341904D01*
X100091666Y-57437142D01*
X100044047Y-57484761D01*
X99948809Y-57532380D01*
X99853571Y-57532380D01*
X99758333Y-57484761D01*
X99710714Y-57437142D01*
X99663095Y-57341904D01*
X99615476Y-57151428D01*
X99615476Y-56913333D01*
X99663095Y-56722857D01*
X99710714Y-56627619D01*
X99758333Y-56580000D01*
X99853571Y-56532380D01*
%TO.C,R28*%
X36132380Y-83392857D02*
X35656190Y-83726190D01*
X36132380Y-83964285D02*
X35132380Y-83964285D01*
X35132380Y-83583333D01*
X35180000Y-83488095D01*
X35227619Y-83440476D01*
X35322857Y-83392857D01*
X35465714Y-83392857D01*
X35560952Y-83440476D01*
X35608571Y-83488095D01*
X35656190Y-83583333D01*
X35656190Y-83964285D01*
X35227619Y-83011904D02*
X35180000Y-82964285D01*
X35132380Y-82869047D01*
X35132380Y-82630952D01*
X35180000Y-82535714D01*
X35227619Y-82488095D01*
X35322857Y-82440476D01*
X35418095Y-82440476D01*
X35560952Y-82488095D01*
X36132380Y-83059523D01*
X36132380Y-82440476D01*
X35560952Y-81869047D02*
X35513333Y-81964285D01*
X35465714Y-82011904D01*
X35370476Y-82059523D01*
X35322857Y-82059523D01*
X35227619Y-82011904D01*
X35180000Y-81964285D01*
X35132380Y-81869047D01*
X35132380Y-81678571D01*
X35180000Y-81583333D01*
X35227619Y-81535714D01*
X35322857Y-81488095D01*
X35370476Y-81488095D01*
X35465714Y-81535714D01*
X35513333Y-81583333D01*
X35560952Y-81678571D01*
X35560952Y-81869047D01*
X35608571Y-81964285D01*
X35656190Y-82011904D01*
X35751428Y-82059523D01*
X35941904Y-82059523D01*
X36037142Y-82011904D01*
X36084761Y-81964285D01*
X36132380Y-81869047D01*
X36132380Y-81678571D01*
X36084761Y-81583333D01*
X36037142Y-81535714D01*
X35941904Y-81488095D01*
X35751428Y-81488095D01*
X35656190Y-81535714D01*
X35608571Y-81583333D01*
X35560952Y-81678571D01*
%TO.C,U11*%
X93261904Y-56717380D02*
X93261904Y-57526904D01*
X93309523Y-57622142D01*
X93357142Y-57669761D01*
X93452380Y-57717380D01*
X93642857Y-57717380D01*
X93738095Y-57669761D01*
X93785714Y-57622142D01*
X93833333Y-57526904D01*
X93833333Y-56717380D01*
X94833333Y-57717380D02*
X94261904Y-57717380D01*
X94547619Y-57717380D02*
X94547619Y-56717380D01*
X94452380Y-56860238D01*
X94357142Y-56955476D01*
X94261904Y-57003095D01*
X95785714Y-57717380D02*
X95214285Y-57717380D01*
X95500000Y-57717380D02*
X95500000Y-56717380D01*
X95404761Y-56860238D01*
X95309523Y-56955476D01*
X95214285Y-57003095D01*
%TO.C,TP11*%
X58011904Y-42327380D02*
X58583333Y-42327380D01*
X58297619Y-43327380D02*
X58297619Y-42327380D01*
X58916666Y-43327380D02*
X58916666Y-42327380D01*
X59297619Y-42327380D01*
X59392857Y-42375000D01*
X59440476Y-42422619D01*
X59488095Y-42517857D01*
X59488095Y-42660714D01*
X59440476Y-42755952D01*
X59392857Y-42803571D01*
X59297619Y-42851190D01*
X58916666Y-42851190D01*
X60440476Y-43327380D02*
X59869047Y-43327380D01*
X60154761Y-43327380D02*
X60154761Y-42327380D01*
X60059523Y-42470238D01*
X59964285Y-42565476D01*
X59869047Y-42613095D01*
X61392857Y-43327380D02*
X60821428Y-43327380D01*
X61107142Y-43327380D02*
X61107142Y-42327380D01*
X61011904Y-42470238D01*
X60916666Y-42565476D01*
X60821428Y-42613095D01*
%TO.C,TP8*%
X74988095Y-39577380D02*
X75559523Y-39577380D01*
X75273809Y-40577380D02*
X75273809Y-39577380D01*
X75892857Y-40577380D02*
X75892857Y-39577380D01*
X76273809Y-39577380D01*
X76369047Y-39625000D01*
X76416666Y-39672619D01*
X76464285Y-39767857D01*
X76464285Y-39910714D01*
X76416666Y-40005952D01*
X76369047Y-40053571D01*
X76273809Y-40101190D01*
X75892857Y-40101190D01*
X77035714Y-40005952D02*
X76940476Y-39958333D01*
X76892857Y-39910714D01*
X76845238Y-39815476D01*
X76845238Y-39767857D01*
X76892857Y-39672619D01*
X76940476Y-39625000D01*
X77035714Y-39577380D01*
X77226190Y-39577380D01*
X77321428Y-39625000D01*
X77369047Y-39672619D01*
X77416666Y-39767857D01*
X77416666Y-39815476D01*
X77369047Y-39910714D01*
X77321428Y-39958333D01*
X77226190Y-40005952D01*
X77035714Y-40005952D01*
X76940476Y-40053571D01*
X76892857Y-40101190D01*
X76845238Y-40196428D01*
X76845238Y-40386904D01*
X76892857Y-40482142D01*
X76940476Y-40529761D01*
X77035714Y-40577380D01*
X77226190Y-40577380D01*
X77321428Y-40529761D01*
X77369047Y-40482142D01*
X77416666Y-40386904D01*
X77416666Y-40196428D01*
X77369047Y-40101190D01*
X77321428Y-40053571D01*
X77226190Y-40005952D01*
%TO.C,U4*%
X62873095Y-34864380D02*
X62873095Y-35673904D01*
X62920714Y-35769142D01*
X62968333Y-35816761D01*
X63063571Y-35864380D01*
X63254047Y-35864380D01*
X63349285Y-35816761D01*
X63396904Y-35769142D01*
X63444523Y-35673904D01*
X63444523Y-34864380D01*
X64349285Y-35197714D02*
X64349285Y-35864380D01*
X64111190Y-34816761D02*
X63873095Y-35531047D01*
X64492142Y-35531047D01*
%TO.C,R12*%
X108092142Y-80282380D02*
X107758809Y-79806190D01*
X107520714Y-80282380D02*
X107520714Y-79282380D01*
X107901666Y-79282380D01*
X107996904Y-79330000D01*
X108044523Y-79377619D01*
X108092142Y-79472857D01*
X108092142Y-79615714D01*
X108044523Y-79710952D01*
X107996904Y-79758571D01*
X107901666Y-79806190D01*
X107520714Y-79806190D01*
X109044523Y-80282380D02*
X108473095Y-80282380D01*
X108758809Y-80282380D02*
X108758809Y-79282380D01*
X108663571Y-79425238D01*
X108568333Y-79520476D01*
X108473095Y-79568095D01*
X109425476Y-79377619D02*
X109473095Y-79330000D01*
X109568333Y-79282380D01*
X109806428Y-79282380D01*
X109901666Y-79330000D01*
X109949285Y-79377619D01*
X109996904Y-79472857D01*
X109996904Y-79568095D01*
X109949285Y-79710952D01*
X109377857Y-80282380D01*
X109996904Y-80282380D01*
%TO.C,C3*%
X45427142Y-44741666D02*
X45474761Y-44789285D01*
X45522380Y-44932142D01*
X45522380Y-45027380D01*
X45474761Y-45170238D01*
X45379523Y-45265476D01*
X45284285Y-45313095D01*
X45093809Y-45360714D01*
X44950952Y-45360714D01*
X44760476Y-45313095D01*
X44665238Y-45265476D01*
X44570000Y-45170238D01*
X44522380Y-45027380D01*
X44522380Y-44932142D01*
X44570000Y-44789285D01*
X44617619Y-44741666D01*
X44522380Y-44408333D02*
X44522380Y-43789285D01*
X44903333Y-44122619D01*
X44903333Y-43979761D01*
X44950952Y-43884523D01*
X44998571Y-43836904D01*
X45093809Y-43789285D01*
X45331904Y-43789285D01*
X45427142Y-43836904D01*
X45474761Y-43884523D01*
X45522380Y-43979761D01*
X45522380Y-44265476D01*
X45474761Y-44360714D01*
X45427142Y-44408333D01*
%TO.C,R26*%
X117707142Y-59172380D02*
X117373809Y-58696190D01*
X117135714Y-59172380D02*
X117135714Y-58172380D01*
X117516666Y-58172380D01*
X117611904Y-58220000D01*
X117659523Y-58267619D01*
X117707142Y-58362857D01*
X117707142Y-58505714D01*
X117659523Y-58600952D01*
X117611904Y-58648571D01*
X117516666Y-58696190D01*
X117135714Y-58696190D01*
X118088095Y-58267619D02*
X118135714Y-58220000D01*
X118230952Y-58172380D01*
X118469047Y-58172380D01*
X118564285Y-58220000D01*
X118611904Y-58267619D01*
X118659523Y-58362857D01*
X118659523Y-58458095D01*
X118611904Y-58600952D01*
X118040476Y-59172380D01*
X118659523Y-59172380D01*
X119516666Y-58172380D02*
X119326190Y-58172380D01*
X119230952Y-58220000D01*
X119183333Y-58267619D01*
X119088095Y-58410476D01*
X119040476Y-58600952D01*
X119040476Y-58981904D01*
X119088095Y-59077142D01*
X119135714Y-59124761D01*
X119230952Y-59172380D01*
X119421428Y-59172380D01*
X119516666Y-59124761D01*
X119564285Y-59077142D01*
X119611904Y-58981904D01*
X119611904Y-58743809D01*
X119564285Y-58648571D01*
X119516666Y-58600952D01*
X119421428Y-58553333D01*
X119230952Y-58553333D01*
X119135714Y-58600952D01*
X119088095Y-58648571D01*
X119040476Y-58743809D01*
%TO.C,J1*%
X2788879Y-18833335D02*
X3503165Y-18833335D01*
X3646022Y-18880954D01*
X3741260Y-18976192D01*
X3788879Y-19119049D01*
X3788879Y-19214287D01*
X3788879Y-17833335D02*
X3788879Y-18404763D01*
X3788879Y-18119049D02*
X2788879Y-18119049D01*
X2931737Y-18214287D01*
X3026975Y-18309525D01*
X3074594Y-18404763D01*
X7388879Y-14500002D02*
X7626975Y-14500002D01*
X7531737Y-14738097D02*
X7626975Y-14500002D01*
X7531737Y-14261906D01*
X7817451Y-14642859D02*
X7626975Y-14500002D01*
X7817451Y-14357144D01*
%TO.C,J4*%
X80716666Y-9352380D02*
X80716666Y-10066666D01*
X80669047Y-10209523D01*
X80573809Y-10304761D01*
X80430952Y-10352380D01*
X80335714Y-10352380D01*
X81621428Y-9685714D02*
X81621428Y-10352380D01*
X81383333Y-9304761D02*
X81145238Y-10019047D01*
X81764285Y-10019047D01*
X79250000Y-4452380D02*
X79250000Y-4690476D01*
X79011904Y-4595238D02*
X79250000Y-4690476D01*
X79488095Y-4595238D01*
X79107142Y-4880952D02*
X79250000Y-4690476D01*
X79392857Y-4880952D01*
%TO.C,Q1*%
X21272619Y-82595238D02*
X21225000Y-82690476D01*
X21129761Y-82785714D01*
X20986904Y-82928571D01*
X20939285Y-83023809D01*
X20939285Y-83119047D01*
X21177380Y-83071428D02*
X21129761Y-83166666D01*
X21034523Y-83261904D01*
X20844047Y-83309523D01*
X20510714Y-83309523D01*
X20320238Y-83261904D01*
X20225000Y-83166666D01*
X20177380Y-83071428D01*
X20177380Y-82880952D01*
X20225000Y-82785714D01*
X20320238Y-82690476D01*
X20510714Y-82642857D01*
X20844047Y-82642857D01*
X21034523Y-82690476D01*
X21129761Y-82785714D01*
X21177380Y-82880952D01*
X21177380Y-83071428D01*
X21177380Y-81690476D02*
X21177380Y-82261904D01*
X21177380Y-81976190D02*
X20177380Y-81976190D01*
X20320238Y-82071428D01*
X20415476Y-82166666D01*
X20463095Y-82261904D01*
%TO.C,U1*%
X55652380Y-58596904D02*
X56461904Y-58596904D01*
X56557142Y-58549285D01*
X56604761Y-58501666D01*
X56652380Y-58406428D01*
X56652380Y-58215952D01*
X56604761Y-58120714D01*
X56557142Y-58073095D01*
X56461904Y-58025476D01*
X55652380Y-58025476D01*
X56652380Y-57025476D02*
X56652380Y-57596904D01*
X56652380Y-57311190D02*
X55652380Y-57311190D01*
X55795238Y-57406428D01*
X55890476Y-57501666D01*
X55938095Y-57596904D01*
%TO.C,C17*%
X51857142Y-11892857D02*
X51904761Y-11940476D01*
X51952380Y-12083333D01*
X51952380Y-12178571D01*
X51904761Y-12321428D01*
X51809523Y-12416666D01*
X51714285Y-12464285D01*
X51523809Y-12511904D01*
X51380952Y-12511904D01*
X51190476Y-12464285D01*
X51095238Y-12416666D01*
X51000000Y-12321428D01*
X50952380Y-12178571D01*
X50952380Y-12083333D01*
X51000000Y-11940476D01*
X51047619Y-11892857D01*
X51952380Y-10940476D02*
X51952380Y-11511904D01*
X51952380Y-11226190D02*
X50952380Y-11226190D01*
X51095238Y-11321428D01*
X51190476Y-11416666D01*
X51238095Y-11511904D01*
X50952380Y-10607142D02*
X50952380Y-9940476D01*
X51952380Y-10369047D01*
%TO.C,TP5*%
X80738095Y-11277380D02*
X81309523Y-11277380D01*
X81023809Y-12277380D02*
X81023809Y-11277380D01*
X81642857Y-12277380D02*
X81642857Y-11277380D01*
X82023809Y-11277380D01*
X82119047Y-11325000D01*
X82166666Y-11372619D01*
X82214285Y-11467857D01*
X82214285Y-11610714D01*
X82166666Y-11705952D01*
X82119047Y-11753571D01*
X82023809Y-11801190D01*
X81642857Y-11801190D01*
X83119047Y-11277380D02*
X82642857Y-11277380D01*
X82595238Y-11753571D01*
X82642857Y-11705952D01*
X82738095Y-11658333D01*
X82976190Y-11658333D01*
X83071428Y-11705952D01*
X83119047Y-11753571D01*
X83166666Y-11848809D01*
X83166666Y-12086904D01*
X83119047Y-12182142D01*
X83071428Y-12229761D01*
X82976190Y-12277380D01*
X82738095Y-12277380D01*
X82642857Y-12229761D01*
X82595238Y-12182142D01*
%TO.C,R25*%
X100532142Y-59182380D02*
X100198809Y-58706190D01*
X99960714Y-59182380D02*
X99960714Y-58182380D01*
X100341666Y-58182380D01*
X100436904Y-58230000D01*
X100484523Y-58277619D01*
X100532142Y-58372857D01*
X100532142Y-58515714D01*
X100484523Y-58610952D01*
X100436904Y-58658571D01*
X100341666Y-58706190D01*
X99960714Y-58706190D01*
X100913095Y-58277619D02*
X100960714Y-58230000D01*
X101055952Y-58182380D01*
X101294047Y-58182380D01*
X101389285Y-58230000D01*
X101436904Y-58277619D01*
X101484523Y-58372857D01*
X101484523Y-58468095D01*
X101436904Y-58610952D01*
X100865476Y-59182380D01*
X101484523Y-59182380D01*
X102389285Y-58182380D02*
X101913095Y-58182380D01*
X101865476Y-58658571D01*
X101913095Y-58610952D01*
X102008333Y-58563333D01*
X102246428Y-58563333D01*
X102341666Y-58610952D01*
X102389285Y-58658571D01*
X102436904Y-58753809D01*
X102436904Y-58991904D01*
X102389285Y-59087142D01*
X102341666Y-59134761D01*
X102246428Y-59182380D01*
X102008333Y-59182380D01*
X101913095Y-59134761D01*
X101865476Y-59087142D01*
%TO.C,R13*%
X100482142Y-77382380D02*
X100148809Y-76906190D01*
X99910714Y-77382380D02*
X99910714Y-76382380D01*
X100291666Y-76382380D01*
X100386904Y-76430000D01*
X100434523Y-76477619D01*
X100482142Y-76572857D01*
X100482142Y-76715714D01*
X100434523Y-76810952D01*
X100386904Y-76858571D01*
X100291666Y-76906190D01*
X99910714Y-76906190D01*
X101434523Y-77382380D02*
X100863095Y-77382380D01*
X101148809Y-77382380D02*
X101148809Y-76382380D01*
X101053571Y-76525238D01*
X100958333Y-76620476D01*
X100863095Y-76668095D01*
X101767857Y-76382380D02*
X102386904Y-76382380D01*
X102053571Y-76763333D01*
X102196428Y-76763333D01*
X102291666Y-76810952D01*
X102339285Y-76858571D01*
X102386904Y-76953809D01*
X102386904Y-77191904D01*
X102339285Y-77287142D01*
X102291666Y-77334761D01*
X102196428Y-77382380D01*
X101910714Y-77382380D01*
X101815476Y-77334761D01*
X101767857Y-77287142D01*
%TO.C,C9*%
X90583333Y-37787142D02*
X90535714Y-37834761D01*
X90392857Y-37882380D01*
X90297619Y-37882380D01*
X90154761Y-37834761D01*
X90059523Y-37739523D01*
X90011904Y-37644285D01*
X89964285Y-37453809D01*
X89964285Y-37310952D01*
X90011904Y-37120476D01*
X90059523Y-37025238D01*
X90154761Y-36930000D01*
X90297619Y-36882380D01*
X90392857Y-36882380D01*
X90535714Y-36930000D01*
X90583333Y-36977619D01*
X91059523Y-37882380D02*
X91250000Y-37882380D01*
X91345238Y-37834761D01*
X91392857Y-37787142D01*
X91488095Y-37644285D01*
X91535714Y-37453809D01*
X91535714Y-37072857D01*
X91488095Y-36977619D01*
X91440476Y-36930000D01*
X91345238Y-36882380D01*
X91154761Y-36882380D01*
X91059523Y-36930000D01*
X91011904Y-36977619D01*
X90964285Y-37072857D01*
X90964285Y-37310952D01*
X91011904Y-37406190D01*
X91059523Y-37453809D01*
X91154761Y-37501428D01*
X91345238Y-37501428D01*
X91440476Y-37453809D01*
X91488095Y-37406190D01*
X91535714Y-37310952D01*
%TO.C,C21*%
X115532142Y-54857142D02*
X115484523Y-54904761D01*
X115341666Y-54952380D01*
X115246428Y-54952380D01*
X115103571Y-54904761D01*
X115008333Y-54809523D01*
X114960714Y-54714285D01*
X114913095Y-54523809D01*
X114913095Y-54380952D01*
X114960714Y-54190476D01*
X115008333Y-54095238D01*
X115103571Y-54000000D01*
X115246428Y-53952380D01*
X115341666Y-53952380D01*
X115484523Y-54000000D01*
X115532142Y-54047619D01*
X115913095Y-54047619D02*
X115960714Y-54000000D01*
X116055952Y-53952380D01*
X116294047Y-53952380D01*
X116389285Y-54000000D01*
X116436904Y-54047619D01*
X116484523Y-54142857D01*
X116484523Y-54238095D01*
X116436904Y-54380952D01*
X115865476Y-54952380D01*
X116484523Y-54952380D01*
X117436904Y-54952380D02*
X116865476Y-54952380D01*
X117151190Y-54952380D02*
X117151190Y-53952380D01*
X117055952Y-54095238D01*
X116960714Y-54190476D01*
X116865476Y-54238095D01*
%TO.C,TP7*%
X79238095Y-42722116D02*
X79809523Y-42722116D01*
X79523809Y-43722116D02*
X79523809Y-42722116D01*
X80142857Y-43722116D02*
X80142857Y-42722116D01*
X80523809Y-42722116D01*
X80619047Y-42769736D01*
X80666666Y-42817355D01*
X80714285Y-42912593D01*
X80714285Y-43055450D01*
X80666666Y-43150688D01*
X80619047Y-43198307D01*
X80523809Y-43245926D01*
X80142857Y-43245926D01*
X81047619Y-42722116D02*
X81714285Y-42722116D01*
X81285714Y-43722116D01*
%TO.C,C4*%
X41927142Y-44416666D02*
X41974761Y-44464285D01*
X42022380Y-44607142D01*
X42022380Y-44702380D01*
X41974761Y-44845238D01*
X41879523Y-44940476D01*
X41784285Y-44988095D01*
X41593809Y-45035714D01*
X41450952Y-45035714D01*
X41260476Y-44988095D01*
X41165238Y-44940476D01*
X41070000Y-44845238D01*
X41022380Y-44702380D01*
X41022380Y-44607142D01*
X41070000Y-44464285D01*
X41117619Y-44416666D01*
X41355714Y-43559523D02*
X42022380Y-43559523D01*
X40974761Y-43797619D02*
X41689047Y-44035714D01*
X41689047Y-43416666D01*
%TO.C,U2*%
X30488095Y-11532380D02*
X30488095Y-12341904D01*
X30535714Y-12437142D01*
X30583333Y-12484761D01*
X30678571Y-12532380D01*
X30869047Y-12532380D01*
X30964285Y-12484761D01*
X31011904Y-12437142D01*
X31059523Y-12341904D01*
X31059523Y-11532380D01*
X31488095Y-11627619D02*
X31535714Y-11580000D01*
X31630952Y-11532380D01*
X31869047Y-11532380D01*
X31964285Y-11580000D01*
X32011904Y-11627619D01*
X32059523Y-11722857D01*
X32059523Y-11818095D01*
X32011904Y-11960952D01*
X31440476Y-12532380D01*
X32059523Y-12532380D01*
%TO.C,R24*%
X117707142Y-62372380D02*
X117373809Y-61896190D01*
X117135714Y-62372380D02*
X117135714Y-61372380D01*
X117516666Y-61372380D01*
X117611904Y-61420000D01*
X117659523Y-61467619D01*
X117707142Y-61562857D01*
X117707142Y-61705714D01*
X117659523Y-61800952D01*
X117611904Y-61848571D01*
X117516666Y-61896190D01*
X117135714Y-61896190D01*
X118088095Y-61467619D02*
X118135714Y-61420000D01*
X118230952Y-61372380D01*
X118469047Y-61372380D01*
X118564285Y-61420000D01*
X118611904Y-61467619D01*
X118659523Y-61562857D01*
X118659523Y-61658095D01*
X118611904Y-61800952D01*
X118040476Y-62372380D01*
X118659523Y-62372380D01*
X119516666Y-61705714D02*
X119516666Y-62372380D01*
X119278571Y-61324761D02*
X119040476Y-62039047D01*
X119659523Y-62039047D01*
%TO.C,C6*%
X43257142Y-20166666D02*
X43304761Y-20214285D01*
X43352380Y-20357142D01*
X43352380Y-20452380D01*
X43304761Y-20595238D01*
X43209523Y-20690476D01*
X43114285Y-20738095D01*
X42923809Y-20785714D01*
X42780952Y-20785714D01*
X42590476Y-20738095D01*
X42495238Y-20690476D01*
X42400000Y-20595238D01*
X42352380Y-20452380D01*
X42352380Y-20357142D01*
X42400000Y-20214285D01*
X42447619Y-20166666D01*
X42352380Y-19309523D02*
X42352380Y-19500000D01*
X42400000Y-19595238D01*
X42447619Y-19642857D01*
X42590476Y-19738095D01*
X42780952Y-19785714D01*
X43161904Y-19785714D01*
X43257142Y-19738095D01*
X43304761Y-19690476D01*
X43352380Y-19595238D01*
X43352380Y-19404761D01*
X43304761Y-19309523D01*
X43257142Y-19261904D01*
X43161904Y-19214285D01*
X42923809Y-19214285D01*
X42828571Y-19261904D01*
X42780952Y-19309523D01*
X42733333Y-19404761D01*
X42733333Y-19595238D01*
X42780952Y-19690476D01*
X42828571Y-19738095D01*
X42923809Y-19785714D01*
D11*
%TO.C,R32*%
X64022500Y-77887258D02*
X64022500Y-77412742D01*
X62977500Y-77887258D02*
X62977500Y-77412742D01*
%TO.C,R31*%
X56012742Y-74572500D02*
X56487258Y-74572500D01*
X56012742Y-73527500D02*
X56487258Y-73527500D01*
%TO.C,D4*%
X68785000Y-74415000D02*
X66500000Y-74415000D01*
X68785000Y-75885000D02*
X68785000Y-74415000D01*
X66500000Y-75885000D02*
X68785000Y-75885000D01*
%TO.C,C16*%
X56410000Y-11109420D02*
X56410000Y-11390580D01*
X55390000Y-11109420D02*
X55390000Y-11390580D01*
%TO.C,C1*%
X14000000Y-70110000D02*
X22060000Y-70110000D01*
X22060000Y-70110000D02*
X22060000Y-65590000D01*
X22060000Y-65590000D02*
X14000000Y-65590000D01*
%TO.C,C13*%
X101940000Y-11359420D02*
X101940000Y-11640580D01*
X102960000Y-11359420D02*
X102960000Y-11640580D01*
%TO.C,TP1*%
X77470000Y-83970000D02*
X79030000Y-83970000D01*
X79030000Y-83970000D02*
X79030000Y-85530000D01*
X79030000Y-85530000D02*
X77470000Y-85530000D01*
X77470000Y-85530000D02*
X77470000Y-83970000D01*
D12*
%TO.C,U12*%
X110755000Y-67025000D02*
X113095000Y-67025000D01*
X110755000Y-58375000D02*
X113095000Y-58375000D01*
D13*
X107975000Y-58600000D02*
G75*
G03*
X107975000Y-58600000I-100000J0D01*
G01*
D11*
%TO.C,TP21*%
X85220000Y-44114736D02*
X86780000Y-44114736D01*
X86780000Y-44114736D02*
X86780000Y-45674736D01*
X86780000Y-45674736D02*
X85220000Y-45674736D01*
X85220000Y-45674736D02*
X85220000Y-44114736D01*
%TO.C,R4*%
X114037258Y-48177500D02*
X113562742Y-48177500D01*
X114037258Y-49222500D02*
X113562742Y-49222500D01*
%TO.C,R2*%
X38572500Y-14762742D02*
X38572500Y-15237258D01*
X37527500Y-14762742D02*
X37527500Y-15237258D01*
%TO.C,TP19*%
X51720000Y-74720000D02*
X53280000Y-74720000D01*
X53280000Y-74720000D02*
X53280000Y-76280000D01*
X53280000Y-76280000D02*
X51720000Y-76280000D01*
X51720000Y-76280000D02*
X51720000Y-74720000D01*
%TO.C,R10*%
X107387258Y-74452500D02*
X106912742Y-74452500D01*
X107387258Y-75497500D02*
X106912742Y-75497500D01*
%TO.C,TP12*%
X63720000Y-43720000D02*
X65280000Y-43720000D01*
X65280000Y-43720000D02*
X65280000Y-45280000D01*
X65280000Y-45280000D02*
X63720000Y-45280000D01*
X63720000Y-45280000D02*
X63720000Y-43720000D01*
%TO.C,TP17*%
X91720000Y-50970000D02*
X93280000Y-50970000D01*
X93280000Y-50970000D02*
X93280000Y-52530000D01*
X93280000Y-52530000D02*
X91720000Y-52530000D01*
X91720000Y-52530000D02*
X91720000Y-50970000D01*
%TO.C,R17*%
X92147500Y-71987258D02*
X92147500Y-71512742D01*
X91102500Y-71987258D02*
X91102500Y-71512742D01*
%TO.C,L1*%
X46370000Y-31250000D02*
G75*
G03*
X46370000Y-31250000I-6870000J0D01*
G01*
%TO.C,R3*%
X112272500Y-42012742D02*
X112272500Y-42487258D01*
X111227500Y-42012742D02*
X111227500Y-42487258D01*
D12*
%TO.C,U3*%
X100500000Y-34400000D02*
X93000000Y-34400000D01*
X100500000Y-24100000D02*
X93000000Y-24100000D01*
D13*
X103150000Y-34095000D02*
G75*
G03*
X103150000Y-34095000I-100000J0D01*
G01*
D11*
%TO.C,D3*%
X39450000Y-11985000D02*
X41735000Y-11985000D01*
X41735000Y-11985000D02*
X41735000Y-10515000D01*
X41735000Y-10515000D02*
X39450000Y-10515000D01*
%TO.C,R18*%
X107452500Y-71912258D02*
X107452500Y-71437742D01*
X108497500Y-71912258D02*
X108497500Y-71437742D01*
%TO.C,TP9*%
X27220000Y-33720000D02*
X28780000Y-33720000D01*
X28780000Y-33720000D02*
X28780000Y-35280000D01*
X28780000Y-35280000D02*
X27220000Y-35280000D01*
X27220000Y-35280000D02*
X27220000Y-33720000D01*
%TO.C,C18*%
X71115580Y-27990000D02*
X70834420Y-27990000D01*
X71115580Y-29010000D02*
X70834420Y-29010000D01*
%TO.C,TP14*%
X93780000Y-10970000D02*
X92220000Y-10970000D01*
X92220000Y-10970000D02*
X92220000Y-12530000D01*
X92220000Y-12530000D02*
X93780000Y-12530000D01*
X93780000Y-12530000D02*
X93780000Y-10970000D01*
D12*
%TO.C,U7*%
X99325000Y-18170000D02*
X99325000Y-15830000D01*
X90675000Y-18170000D02*
X90675000Y-15830000D01*
D13*
X91000000Y-21050000D02*
G75*
G03*
X91000000Y-21050000I-100000J0D01*
G01*
D12*
%TO.C,RV1*%
X26450000Y-72030000D02*
X33050000Y-72030000D01*
X26450000Y-79020000D02*
X26450000Y-76735000D01*
X33050000Y-79030000D02*
X26450000Y-79030000D01*
X26450000Y-74195000D02*
X26450000Y-72030000D01*
X33050000Y-76735000D02*
X33050000Y-79020000D01*
X33050000Y-72030000D02*
X33050000Y-74195000D01*
D13*
X25786000Y-75500000D02*
G75*
G03*
X25786000Y-75500000I-100000J0D01*
G01*
D11*
%TO.C,C12*%
X105960000Y-11359420D02*
X105960000Y-11640580D01*
X104940000Y-11359420D02*
X104940000Y-11640580D01*
D12*
%TO.C,U5*%
X99627500Y-52400000D02*
X107127500Y-52400000D01*
X99627500Y-42100000D02*
X107127500Y-42100000D01*
D13*
X97177500Y-42405000D02*
G75*
G03*
X97177500Y-42405000I-100000J0D01*
G01*
D11*
%TO.C,TP2*%
X32470000Y-42470000D02*
X34030000Y-42470000D01*
X34030000Y-42470000D02*
X34030000Y-44030000D01*
X34030000Y-44030000D02*
X32470000Y-44030000D01*
X32470000Y-44030000D02*
X32470000Y-42470000D01*
%TO.C,R20*%
X110452500Y-71912258D02*
X110452500Y-71437742D01*
X111497500Y-71912258D02*
X111497500Y-71437742D01*
%TO.C,R15*%
X87927500Y-71987258D02*
X87927500Y-71512742D01*
X88972500Y-71987258D02*
X88972500Y-71512742D01*
%TO.C,TP6*%
X26720000Y-42470000D02*
X28280000Y-42470000D01*
X28280000Y-42470000D02*
X28280000Y-44030000D01*
X28280000Y-44030000D02*
X26720000Y-44030000D01*
X26720000Y-44030000D02*
X26720000Y-42470000D01*
D12*
%TO.C,U10*%
X64075000Y-18145000D02*
X64075000Y-15805000D01*
X55425000Y-18145000D02*
X55425000Y-15805000D01*
D13*
X55750000Y-21025000D02*
G75*
G03*
X55750000Y-21025000I-100000J0D01*
G01*
D11*
%TO.C,R19*%
X95222500Y-71987258D02*
X95222500Y-71512742D01*
X94177500Y-71987258D02*
X94177500Y-71512742D01*
%TO.C,C8*%
X107540000Y-39209420D02*
X107540000Y-39490580D01*
X108560000Y-39209420D02*
X108560000Y-39490580D01*
%TO.C,R9*%
X94107258Y-77877500D02*
X93632742Y-77877500D01*
X94107258Y-78922500D02*
X93632742Y-78922500D01*
%TO.C,R1*%
X37727500Y-21262742D02*
X37727500Y-21737258D01*
X38772500Y-21262742D02*
X38772500Y-21737258D01*
%TO.C,TP20*%
X43470000Y-82220000D02*
X45030000Y-82220000D01*
X45030000Y-82220000D02*
X45030000Y-83780000D01*
X45030000Y-83780000D02*
X43470000Y-83780000D01*
X43470000Y-83780000D02*
X43470000Y-82220000D01*
%TO.C,Q2*%
X27900000Y-81220000D02*
X27900000Y-84820000D01*
X27911522Y-84858478D02*
G75*
G03*
X32350000Y-83020000I1838478J1838478D01*
G01*
X32350001Y-83020000D02*
G75*
G03*
X27911522Y-81181522I-2600001J0D01*
G01*
%TO.C,TP4*%
X71220000Y-83970000D02*
X72780000Y-83970000D01*
X72780000Y-83970000D02*
X72780000Y-85530000D01*
X72780000Y-85530000D02*
X71220000Y-85530000D01*
X71220000Y-85530000D02*
X71220000Y-83970000D01*
%TO.C,J3*%
X116027974Y-5615000D02*
X114503974Y-6250000D01*
X88250026Y-4100000D02*
X88250026Y-7750000D01*
X114249974Y-7750000D02*
X114249974Y-4100000D01*
X88250026Y-7750000D02*
X114249974Y-7750000D01*
X114249974Y-4100000D02*
X88250026Y-4100000D01*
X114503974Y-6250000D02*
X116027974Y-6885000D01*
X116027974Y-6885000D02*
X116027974Y-5615000D01*
%TO.C,D1*%
X18130000Y-5280000D02*
X18130000Y-10720000D01*
X18130000Y-10720000D02*
X27870000Y-10720000D01*
X17220000Y-8000000D02*
X18130000Y-8000000D01*
X26205000Y-10720000D02*
X26205000Y-5280000D01*
X27870000Y-10720000D02*
X27870000Y-5280000D01*
X26325000Y-10720000D02*
X26325000Y-5280000D01*
X28780000Y-8000000D02*
X27870000Y-8000000D01*
X26445000Y-10720000D02*
X26445000Y-5280000D01*
X27870000Y-5280000D02*
X18130000Y-5280000D01*
%TO.C,R14*%
X113382258Y-77972500D02*
X112907742Y-77972500D01*
X113382258Y-76927500D02*
X112907742Y-76927500D01*
%TO.C,R22*%
X114497500Y-71912258D02*
X114497500Y-71437742D01*
X113452500Y-71912258D02*
X113452500Y-71437742D01*
D12*
%TO.C,U6*%
X104925000Y-18170000D02*
X104925000Y-15830000D01*
X113575000Y-18170000D02*
X113575000Y-15830000D01*
D13*
X105250000Y-21050000D02*
G75*
G03*
X105250000Y-21050000I-100000J0D01*
G01*
D12*
%TO.C,SW1*%
X67250000Y-81730000D02*
X67250000Y-77770000D01*
X67250000Y-77770000D02*
X77150000Y-77770000D01*
X77150000Y-77770000D02*
X77150000Y-81730000D01*
X77150000Y-81730000D02*
X67250000Y-81730000D01*
D13*
X66500000Y-79750000D02*
G75*
G03*
X66500000Y-79750000I-100000J0D01*
G01*
D11*
%TO.C,R27*%
X24012742Y-82477500D02*
X24487258Y-82477500D01*
X24012742Y-83522500D02*
X24487258Y-83522500D01*
%TO.C,R5*%
X114037258Y-45227500D02*
X113562742Y-45227500D01*
X114037258Y-46272500D02*
X113562742Y-46272500D01*
%TO.C,C11*%
X65240000Y-11359420D02*
X65240000Y-11640580D01*
X66260000Y-11359420D02*
X66260000Y-11640580D01*
%TO.C,TP13*%
X80470000Y-16970000D02*
X82030000Y-16970000D01*
X82030000Y-16970000D02*
X82030000Y-18530000D01*
X82030000Y-18530000D02*
X80470000Y-18530000D01*
X80470000Y-18530000D02*
X80470000Y-16970000D01*
%TO.C,C10*%
X67990000Y-11359420D02*
X67990000Y-11640580D01*
X69010000Y-11359420D02*
X69010000Y-11640580D01*
%TO.C,C15*%
X85990000Y-11359420D02*
X85990000Y-11640580D01*
X87010000Y-11359420D02*
X87010000Y-11640580D01*
%TO.C,TP16*%
X86220000Y-53720000D02*
X87780000Y-53720000D01*
X87780000Y-53720000D02*
X87780000Y-55280000D01*
X87780000Y-55280000D02*
X86220000Y-55280000D01*
X86220000Y-55280000D02*
X86220000Y-53720000D01*
%TO.C,TP3*%
X117970000Y-15220000D02*
X119530000Y-15220000D01*
X119530000Y-15220000D02*
X119530000Y-16780000D01*
X119530000Y-16780000D02*
X117970000Y-16780000D01*
X117970000Y-16780000D02*
X117970000Y-15220000D01*
%TO.C,TP18*%
X107220000Y-54970000D02*
X108780000Y-54970000D01*
X108780000Y-54970000D02*
X108780000Y-56530000D01*
X108780000Y-56530000D02*
X107220000Y-56530000D01*
X107220000Y-56530000D02*
X107220000Y-54970000D01*
D12*
%TO.C,U9*%
X76825000Y-18170000D02*
X76825000Y-15830000D01*
X68175000Y-18170000D02*
X68175000Y-15830000D01*
D13*
X68500000Y-21050000D02*
G75*
G03*
X68500000Y-21050000I-100000J0D01*
G01*
D11*
%TO.C,R29*%
X37772500Y-82987258D02*
X37772500Y-82512742D01*
X36727500Y-82987258D02*
X36727500Y-82512742D01*
%TO.C,D2*%
X23555000Y-28670000D02*
X23555000Y-23230000D01*
X14450000Y-25950000D02*
X15360000Y-25950000D01*
X23675000Y-28670000D02*
X23675000Y-23230000D01*
X15360000Y-28670000D02*
X25100000Y-28670000D01*
X25100000Y-23230000D02*
X15360000Y-23230000D01*
X23435000Y-28670000D02*
X23435000Y-23230000D01*
X26010000Y-25950000D02*
X25100000Y-25950000D01*
X25100000Y-28670000D02*
X25100000Y-23230000D01*
X15360000Y-23230000D02*
X15360000Y-28670000D01*
%TO.C,R21*%
X98202500Y-71912258D02*
X98202500Y-71437742D01*
X99247500Y-71912258D02*
X99247500Y-71437742D01*
%TO.C,R16*%
X105472500Y-71912258D02*
X105472500Y-71437742D01*
X104427500Y-71912258D02*
X104427500Y-71437742D01*
D12*
%TO.C,U8*%
X86000000Y-34300000D02*
X86000000Y-26700000D01*
X73000000Y-34300000D02*
X73000000Y-26700000D01*
D13*
X73285000Y-37200000D02*
G75*
G03*
X73285000Y-37200000I-100000J0D01*
G01*
D11*
%TO.C,J2*%
X87750028Y-82000000D02*
X87750028Y-85650000D01*
X87750028Y-85650000D02*
X113749976Y-85650000D01*
X87496028Y-83500000D02*
X85972028Y-82865000D01*
X85972028Y-82865000D02*
X85972028Y-84135000D01*
X113749976Y-85650000D02*
X113749976Y-82000000D01*
X113749976Y-82000000D02*
X87750028Y-82000000D01*
X85972028Y-84135000D02*
X87496028Y-83500000D01*
%TO.C,TP10*%
X58780000Y-10970000D02*
X57220000Y-10970000D01*
X57220000Y-10970000D02*
X57220000Y-12530000D01*
X57220000Y-12530000D02*
X58780000Y-12530000D01*
X58780000Y-12530000D02*
X58780000Y-10970000D01*
%TO.C,C14*%
X90010000Y-11384420D02*
X90010000Y-11665580D01*
X88990000Y-11384420D02*
X88990000Y-11665580D01*
%TO.C,R30*%
X64022500Y-81812742D02*
X64022500Y-82287258D01*
X62977500Y-81812742D02*
X62977500Y-82287258D01*
%TO.C,R8*%
X103892258Y-77877500D02*
X103417742Y-77877500D01*
X103892258Y-78922500D02*
X103417742Y-78922500D01*
%TO.C,C2*%
X48990000Y-44715580D02*
X48990000Y-44434420D01*
X50010000Y-44715580D02*
X50010000Y-44434420D01*
%TO.C,R11*%
X98812258Y-77877500D02*
X98337742Y-77877500D01*
X98812258Y-78922500D02*
X98337742Y-78922500D01*
%TO.C,TP15*%
X116470000Y-23220000D02*
X118030000Y-23220000D01*
X118030000Y-23220000D02*
X118030000Y-24780000D01*
X118030000Y-24780000D02*
X116470000Y-24780000D01*
X116470000Y-24780000D02*
X116470000Y-23220000D01*
%TO.C,C5*%
X24390000Y-19121000D02*
X21640000Y-19121000D01*
X21698000Y-21561000D02*
X19502000Y-21561000D01*
X23655000Y-20321000D02*
X21640000Y-20321000D01*
X22152000Y-21401000D02*
X19048000Y-21401000D01*
X24514000Y-18761000D02*
X21640000Y-18761000D01*
X19560000Y-19881000D02*
X17208000Y-19881000D01*
X19560000Y-18441000D02*
X16606000Y-18441000D01*
X23724000Y-20241000D02*
X21640000Y-20241000D01*
X19560000Y-19761000D02*
X17131000Y-19761000D01*
X19560000Y-19041000D02*
X16779000Y-19041000D01*
X24140000Y-19641000D02*
X21640000Y-19641000D01*
X24206000Y-19521000D02*
X21640000Y-19521000D01*
X21548000Y-21601000D02*
X19652000Y-21601000D01*
X23965000Y-19921000D02*
X21640000Y-19921000D01*
X24648000Y-18120000D02*
X16552000Y-18120000D01*
X24671000Y-17880000D02*
X16529000Y-17880000D01*
X24602000Y-18401000D02*
X21640000Y-18401000D01*
X24525000Y-18721000D02*
X21640000Y-18721000D01*
X22766000Y-21081000D02*
X18434000Y-21081000D01*
X24435000Y-19001000D02*
X21640000Y-19001000D01*
X23054000Y-20881000D02*
X18146000Y-20881000D01*
X24304000Y-19321000D02*
X21640000Y-19321000D01*
X22945000Y-20961000D02*
X18255000Y-20961000D01*
X23341000Y-20641000D02*
X17859000Y-20641000D01*
X21133000Y-21681000D02*
X20067000Y-21681000D01*
X22702000Y-21121000D02*
X18498000Y-21121000D01*
X24357000Y-19201000D02*
X21640000Y-19201000D01*
X19560000Y-19361000D02*
X16914000Y-19361000D01*
X24018000Y-19841000D02*
X21640000Y-19841000D01*
X23690000Y-20281000D02*
X21640000Y-20281000D01*
X22634000Y-21161000D02*
X18566000Y-21161000D01*
X19560000Y-18921000D02*
X16737000Y-18921000D01*
X24374000Y-19161000D02*
X21640000Y-19161000D01*
X24680000Y-17680000D02*
X16520000Y-17680000D01*
X22887000Y-21001000D02*
X18313000Y-21001000D01*
X23820000Y-20121000D02*
X21640000Y-20121000D01*
X21368000Y-21641000D02*
X19832000Y-21641000D01*
X19560000Y-19961000D02*
X17262000Y-19961000D01*
X22915000Y-13190302D02*
X22915000Y-13990302D01*
X23156000Y-20801000D02*
X18044000Y-20801000D01*
X23992000Y-19881000D02*
X21640000Y-19881000D01*
X19560000Y-20001000D02*
X17291000Y-20001000D01*
X24676000Y-17800000D02*
X16524000Y-17800000D01*
X22490000Y-21241000D02*
X18710000Y-21241000D01*
X19560000Y-19481000D02*
X16973000Y-19481000D01*
X19560000Y-19321000D02*
X16896000Y-19321000D01*
X23938000Y-19961000D02*
X21640000Y-19961000D01*
X24227000Y-19481000D02*
X21640000Y-19481000D01*
X22413000Y-21281000D02*
X18787000Y-21281000D01*
X24567000Y-18561000D02*
X21640000Y-18561000D01*
X19560000Y-18321000D02*
X16583000Y-18321000D01*
X24450000Y-18961000D02*
X21640000Y-18961000D01*
X21946000Y-21481000D02*
X19254000Y-21481000D01*
X24093000Y-19721000D02*
X21640000Y-19721000D01*
X19560000Y-19281000D02*
X16878000Y-19281000D01*
X19560000Y-19681000D02*
X17083000Y-19681000D01*
X19560000Y-18761000D02*
X16686000Y-18761000D01*
X21829000Y-21521000D02*
X19371000Y-21521000D01*
X19560000Y-18881000D02*
X16723000Y-18881000D01*
X19560000Y-19841000D02*
X17182000Y-19841000D01*
X19560000Y-20121000D02*
X17380000Y-20121000D01*
X19560000Y-19561000D02*
X17016000Y-19561000D01*
X24477000Y-18881000D02*
X21640000Y-18881000D01*
X19560000Y-18601000D02*
X16643000Y-18601000D01*
X24117000Y-19681000D02*
X21640000Y-19681000D01*
X23204000Y-20761000D02*
X17996000Y-20761000D01*
X19560000Y-18521000D02*
X16624000Y-18521000D01*
X24594000Y-18441000D02*
X21640000Y-18441000D01*
X24674000Y-17840000D02*
X16526000Y-17840000D01*
X22053000Y-21441000D02*
X19147000Y-21441000D01*
X24421000Y-19041000D02*
X21640000Y-19041000D01*
X23880000Y-20041000D02*
X21640000Y-20041000D01*
X19560000Y-18361000D02*
X16590000Y-18361000D01*
X19560000Y-19921000D02*
X17235000Y-19921000D01*
X24637000Y-18200000D02*
X16563000Y-18200000D01*
X23251000Y-20721000D02*
X17949000Y-20721000D01*
X24679000Y-17720000D02*
X16521000Y-17720000D01*
X19560000Y-20081000D02*
X17350000Y-20081000D01*
X19560000Y-19641000D02*
X17060000Y-19641000D01*
X23789000Y-20161000D02*
X21640000Y-20161000D01*
X19560000Y-18401000D02*
X16598000Y-18401000D01*
X24680000Y-17600000D02*
X16520000Y-17600000D01*
X24677000Y-17760000D02*
X16523000Y-17760000D01*
X23619000Y-20361000D02*
X21640000Y-20361000D01*
X24247000Y-19441000D02*
X21640000Y-19441000D01*
X19560000Y-19521000D02*
X16994000Y-19521000D01*
X19560000Y-20361000D02*
X17581000Y-20361000D01*
X19560000Y-20281000D02*
X17510000Y-20281000D01*
X24624000Y-18280000D02*
X16576000Y-18280000D01*
X23850000Y-20081000D02*
X21640000Y-20081000D01*
X19560000Y-20161000D02*
X17411000Y-20161000D01*
X23297000Y-20681000D02*
X17903000Y-20681000D01*
X19560000Y-19401000D02*
X16934000Y-19401000D01*
X23105000Y-20841000D02*
X18095000Y-20841000D01*
X24630000Y-18240000D02*
X16570000Y-18240000D01*
X19560000Y-19161000D02*
X16826000Y-19161000D01*
X24668000Y-17920000D02*
X16532000Y-17920000D01*
X24657000Y-18040000D02*
X16543000Y-18040000D01*
X19560000Y-19081000D02*
X16795000Y-19081000D01*
X23315000Y-13590302D02*
X22515000Y-13590302D01*
X24044000Y-19801000D02*
X21640000Y-19801000D01*
X19560000Y-20041000D02*
X17320000Y-20041000D01*
X24405000Y-19081000D02*
X21640000Y-19081000D01*
X23000000Y-20921000D02*
X18200000Y-20921000D01*
X19560000Y-19601000D02*
X17038000Y-19601000D01*
X24576000Y-18521000D02*
X21640000Y-18521000D01*
X24610000Y-18361000D02*
X21640000Y-18361000D01*
X19560000Y-18721000D02*
X16675000Y-18721000D01*
X24652000Y-18080000D02*
X16548000Y-18080000D01*
X22828000Y-21041000D02*
X18372000Y-21041000D01*
X19560000Y-18641000D02*
X16653000Y-18641000D01*
X24502000Y-18801000D02*
X21640000Y-18801000D01*
X24665000Y-17960000D02*
X16535000Y-17960000D01*
X19560000Y-19441000D02*
X16953000Y-19441000D01*
X19560000Y-18481000D02*
X16615000Y-18481000D01*
X24069000Y-19761000D02*
X21640000Y-19761000D01*
X23583000Y-20401000D02*
X17617000Y-20401000D01*
X19560000Y-18801000D02*
X16698000Y-18801000D01*
X24642000Y-18160000D02*
X16558000Y-18160000D01*
X19560000Y-19801000D02*
X17156000Y-19801000D01*
X23507000Y-20481000D02*
X17693000Y-20481000D01*
X23467000Y-20521000D02*
X17733000Y-20521000D01*
X23426000Y-20561000D02*
X17774000Y-20561000D01*
X24617000Y-18321000D02*
X21640000Y-18321000D01*
X22331000Y-21321000D02*
X18869000Y-21321000D01*
X24661000Y-18000000D02*
X16539000Y-18000000D01*
X22245000Y-21361000D02*
X18955000Y-21361000D01*
X19560000Y-18681000D02*
X16664000Y-18681000D01*
X19560000Y-18561000D02*
X16633000Y-18561000D01*
X24585000Y-18481000D02*
X21640000Y-18481000D01*
X24322000Y-19281000D02*
X21640000Y-19281000D01*
X19560000Y-19241000D02*
X16860000Y-19241000D01*
X23545000Y-20441000D02*
X17655000Y-20441000D01*
X24266000Y-19401000D02*
X21640000Y-19401000D01*
X24340000Y-19241000D02*
X21640000Y-19241000D01*
X24680000Y-17640000D02*
X16520000Y-17640000D01*
X19560000Y-20241000D02*
X17476000Y-20241000D01*
X19560000Y-20321000D02*
X17545000Y-20321000D01*
X24184000Y-19561000D02*
X21640000Y-19561000D01*
X19560000Y-19721000D02*
X17107000Y-19721000D01*
X23756000Y-20201000D02*
X21640000Y-20201000D01*
X24162000Y-19601000D02*
X21640000Y-19601000D01*
X19560000Y-19121000D02*
X16810000Y-19121000D01*
X24536000Y-18681000D02*
X21640000Y-18681000D01*
X24557000Y-18601000D02*
X21640000Y-18601000D01*
X23384000Y-20601000D02*
X17816000Y-20601000D01*
X24286000Y-19361000D02*
X21640000Y-19361000D01*
X22564000Y-21201000D02*
X18636000Y-21201000D01*
X19560000Y-19001000D02*
X16765000Y-19001000D01*
X24547000Y-18641000D02*
X21640000Y-18641000D01*
X19560000Y-18961000D02*
X16750000Y-18961000D01*
X23909000Y-20001000D02*
X21640000Y-20001000D01*
X24463000Y-18921000D02*
X21640000Y-18921000D01*
X24489000Y-18841000D02*
X21640000Y-18841000D01*
X19560000Y-19201000D02*
X16843000Y-19201000D01*
X19560000Y-18841000D02*
X16711000Y-18841000D01*
X19560000Y-20201000D02*
X17444000Y-20201000D01*
X24720000Y-17600000D02*
G75*
G03*
X24720000Y-17600000I-4120000J0D01*
G01*
%TO.C,R7*%
X91062258Y-74977500D02*
X90587742Y-74977500D01*
X91062258Y-76022500D02*
X90587742Y-76022500D01*
%TO.C,C19*%
X71140580Y-32010000D02*
X70859420Y-32010000D01*
X71140580Y-30990000D02*
X70859420Y-30990000D01*
%TO.C,R23*%
X101452500Y-71912258D02*
X101452500Y-71437742D01*
X102497500Y-71912258D02*
X102497500Y-71437742D01*
%TO.C,R6*%
X88652258Y-78972500D02*
X88177742Y-78972500D01*
X88652258Y-77927500D02*
X88177742Y-77927500D01*
%TO.C,JP1*%
X56680000Y-77919999D02*
X51540000Y-77919999D01*
X51540000Y-77919999D02*
X51540000Y-80579999D01*
X59280000Y-77919999D02*
X59280000Y-79249999D01*
X57950000Y-77919999D02*
X59280000Y-77919999D01*
X56680000Y-77919999D02*
X56680000Y-80579999D01*
X56680000Y-80579999D02*
X51540000Y-80579999D01*
%TO.C,C7*%
X53240000Y-32859420D02*
X53240000Y-33140580D01*
X54260000Y-32859420D02*
X54260000Y-33140580D01*
%TO.C,C20*%
X99065580Y-55140000D02*
X98784420Y-55140000D01*
X99065580Y-56160000D02*
X98784420Y-56160000D01*
%TO.C,R28*%
X34772500Y-82512742D02*
X34772500Y-82987258D01*
X33727500Y-82512742D02*
X33727500Y-82987258D01*
D12*
%TO.C,U11*%
X93755000Y-67025000D02*
X96095000Y-67025000D01*
X93755000Y-58375000D02*
X96095000Y-58375000D01*
D13*
X90975000Y-58600000D02*
G75*
G03*
X90975000Y-58600000I-100000J0D01*
G01*
D11*
%TO.C,TP11*%
X58970000Y-43720000D02*
X60530000Y-43720000D01*
X60530000Y-43720000D02*
X60530000Y-45280000D01*
X60530000Y-45280000D02*
X58970000Y-45280000D01*
X58970000Y-45280000D02*
X58970000Y-43720000D01*
%TO.C,TP8*%
X75470000Y-40970000D02*
X77030000Y-40970000D01*
X77030000Y-40970000D02*
X77030000Y-42530000D01*
X77030000Y-42530000D02*
X75470000Y-42530000D01*
X75470000Y-42530000D02*
X75470000Y-40970000D01*
D12*
%TO.C,U4*%
X64750000Y-24100000D02*
X57250000Y-24100000D01*
X64750000Y-34400000D02*
X57250000Y-34400000D01*
D13*
X67400000Y-34095000D02*
G75*
G03*
X67400000Y-34095000I-100000J0D01*
G01*
D11*
%TO.C,R12*%
X108972258Y-78922500D02*
X108497742Y-78922500D01*
X108972258Y-77877500D02*
X108497742Y-77877500D01*
%TO.C,C3*%
X47010000Y-44715580D02*
X47010000Y-44434420D01*
X45990000Y-44715580D02*
X45990000Y-44434420D01*
%TO.C,R26*%
X118112742Y-59627500D02*
X118587258Y-59627500D01*
X118112742Y-60672500D02*
X118587258Y-60672500D01*
%TO.C,J1*%
X3958500Y-15135002D02*
X5482500Y-14500002D01*
X3958500Y-13865002D02*
X3958500Y-15135002D01*
X11306499Y-20824991D02*
X11306499Y-11175010D01*
X5736500Y-11175010D02*
X5736500Y-20824991D01*
X11306499Y-11175010D02*
X9918809Y-11175010D01*
X9918812Y-20824991D02*
X11306499Y-20824991D01*
X5482500Y-14500002D02*
X3958500Y-13865002D01*
X5736500Y-20824991D02*
X7754186Y-20824991D01*
X7754189Y-11175010D02*
X5736500Y-11175010D01*
%TO.C,J4*%
X81249973Y-7750000D02*
X81249973Y-4100000D01*
X81503973Y-6250000D02*
X83027973Y-6885000D01*
X55250025Y-7750000D02*
X81249973Y-7750000D01*
X55250025Y-4100000D02*
X55250025Y-7750000D01*
X83027973Y-6885000D02*
X83027973Y-5615000D01*
X83027973Y-5615000D02*
X81503973Y-6250000D01*
X81249973Y-4100000D02*
X55250025Y-4100000D01*
%TO.C,Q1*%
X19580000Y-81170000D02*
X19580000Y-82500000D01*
X14380000Y-81170000D02*
X14380000Y-83830000D01*
X16980000Y-81170000D02*
X14380000Y-81170000D01*
X16980000Y-83830000D02*
X14380000Y-83830000D01*
X16980000Y-81170000D02*
X16980000Y-83830000D01*
X18250000Y-81170000D02*
X19580000Y-81170000D01*
%TO.C,U1*%
X46360000Y-49845000D02*
X45030000Y-49845000D01*
X37470000Y-70165000D02*
X75630000Y-70165000D01*
X47630000Y-49845000D02*
X47630000Y-47185000D01*
X45030000Y-49845000D02*
X45030000Y-48515000D01*
X36200000Y-70165000D02*
X34870000Y-70165000D01*
X75610000Y-49835000D02*
X75610000Y-47185000D01*
X47630000Y-47185000D02*
X75610000Y-47185000D01*
X37470000Y-70165000D02*
X37470000Y-67505000D01*
X37470000Y-67505000D02*
X75630000Y-67505000D01*
X75630000Y-70165000D02*
X75630000Y-67505000D01*
X34870000Y-70165000D02*
X34870000Y-68835000D01*
X47630000Y-49845000D02*
X75610000Y-49835000D01*
%TO.C,C17*%
X52440000Y-11109420D02*
X52440000Y-11390580D01*
X53460000Y-11109420D02*
X53460000Y-11390580D01*
%TO.C,TP5*%
X81220000Y-12670000D02*
X82780000Y-12670000D01*
X82780000Y-12670000D02*
X82780000Y-14230000D01*
X82780000Y-14230000D02*
X81220000Y-14230000D01*
X81220000Y-14230000D02*
X81220000Y-12670000D01*
%TO.C,R25*%
X100937742Y-60682500D02*
X101412258Y-60682500D01*
X100937742Y-59637500D02*
X101412258Y-59637500D01*
%TO.C,R13*%
X101362258Y-74977500D02*
X100887742Y-74977500D01*
X101362258Y-76022500D02*
X100887742Y-76022500D01*
%TO.C,C9*%
X90890580Y-35490000D02*
X90609420Y-35490000D01*
X90890580Y-36510000D02*
X90609420Y-36510000D01*
%TO.C,C21*%
X116315580Y-55440000D02*
X116034420Y-55440000D01*
X116315580Y-56460000D02*
X116034420Y-56460000D01*
%TO.C,TP7*%
X79720000Y-44114736D02*
X81280000Y-44114736D01*
X81280000Y-44114736D02*
X81280000Y-45674736D01*
X81280000Y-45674736D02*
X79720000Y-45674736D01*
X79720000Y-45674736D02*
X79720000Y-44114736D01*
%TO.C,C4*%
X43985000Y-44511252D02*
X43985000Y-43988748D01*
X42515000Y-44511252D02*
X42515000Y-43988748D01*
%TO.C,U2*%
X34300000Y-17721000D02*
X36370000Y-17721000D01*
X27850000Y-17750000D02*
X27850000Y-19800000D01*
X30950000Y-17721000D02*
X31625000Y-17721000D01*
X33100000Y-13080000D02*
X33100000Y-14589000D01*
X26129000Y-17721000D02*
X28250000Y-17721000D01*
X26129000Y-14589000D02*
X36370000Y-14589000D01*
X36370000Y-13080000D02*
X36370000Y-17721000D01*
X29400000Y-13080000D02*
X29400000Y-14589000D01*
X34650000Y-17750000D02*
X34650000Y-19800000D01*
X26129000Y-13080000D02*
X26129000Y-17721000D01*
X26129000Y-13080000D02*
X36370000Y-13080000D01*
X31250000Y-17725000D02*
X31250000Y-19800000D01*
%TO.C,R24*%
X118112742Y-63872500D02*
X118587258Y-63872500D01*
X118112742Y-62827500D02*
X118587258Y-62827500D01*
%TO.C,C6*%
X43740000Y-16350000D02*
X43740000Y-24410000D01*
X43740000Y-24410000D02*
X48260000Y-24410000D01*
X48260000Y-24410000D02*
X48260000Y-16350000D01*
%TD*%
M02*
