M48
; DRILL file {KiCad (6.0.4)} date Sun May  8 16:02:10 2022
; FORMAT={-:-/ absolute / metric / decimal}
; #@! TF.CreationDate,2022-05-08T16:02:10-07:00
; #@! TF.GenerationSoftware,Kicad,Pcbnew,(6.0.4)
; #@! TF.FileFunction,Plated,1,2,PTH
FMAT,2
METRIC
; #@! TA.AperFunction,Plated,PTH,ComponentDrill
T1C0.300
; #@! TA.AperFunction,Plated,PTH,ViaDrill
T2C0.400
; #@! TA.AperFunction,Plated,PTH,ComponentDrill
T3C0.714
; #@! TA.AperFunction,Plated,PTH,ComponentDrill
T4C0.750
; #@! TA.AperFunction,Plated,PTH,ComponentDrill
T5C0.800
; #@! TA.AperFunction,Plated,PTH,ComponentDrill
T6C1.000
; #@! TA.AperFunction,Plated,PTH,ComponentDrill
T7C1.020
; #@! TA.AperFunction,Plated,PTH,ComponentDrill
T8C1.350
; #@! TA.AperFunction,Plated,PTH,ComponentDrill
T9C1.600
; #@! TA.AperFunction,Plated,PTH,ComponentDrill
T10C2.200
; #@! TA.AperFunction,Plated,PTH,ComponentDrill
T11C2.410
%
G90
G05
T1
X27.5Y-43.25
X28.0Y-34.5
X33.25Y-43.25
X44.25Y-83.0
X52.5Y-75.5
X58.0Y-11.75
X59.75Y-44.5
X64.5Y-44.5
X72.0Y-84.75
X76.25Y-41.75
X78.25Y-84.75
X80.5Y-44.895
X81.25Y-17.75
X82.0Y-13.45
X86.0Y-44.895
X87.0Y-54.5
X92.5Y-51.75
X93.0Y-11.75
X108.0Y-55.75
X117.25Y-24.0
X118.75Y-16.0
T2
X7.0Y-31.25
X11.6Y-6.0
X12.35Y-67.9
X12.5Y-75.5
X13.6Y-16.0
X16.75Y-53.5
X21.75Y-77.0
X22.5Y-36.0
X26.75Y-80.75
X30.75Y-63.25
X31.25Y-45.05
X35.75Y-8.5
X36.0Y-75.5
X38.25Y-19.0
X42.65Y-65.8
X43.0Y-11.25
X45.9Y-41.0
X46.0Y-14.5
X47.45Y-81.5
X48.5Y-38.9
X51.5Y-58.0
X52.25Y-24.5
X52.75Y-15.5
X53.0Y-9.1
X53.75Y-28.5
X53.75Y-30.75
X53.75Y-41.0
X57.1Y-75.75
X58.75Y-28.5
X59.5Y-21.5
X61.0Y-12.5
X61.25Y-29.6
X61.75Y-21.5
X62.9Y-26.9
X62.9Y-32.4
X63.0Y-39.25
X64.0Y-9.5
X64.0Y-23.25
X64.5Y-21.0
X65.25Y-22.0
X66.5Y-23.0
X67.0Y-9.5
X67.5Y-24.75
X67.75Y-43.75
X68.65Y-31.5
X68.9Y-29.15
X69.0Y-39.25
X70.1Y-75.15
X70.25Y-58.0
X70.75Y-40.75
X71.202Y-39.202
X71.75Y-12.5
X71.75Y-21.75
X71.75Y-44.25
X73.0Y-23.0
X73.398Y-39.198
X73.8Y-32.75
X74.0Y-12.5
X76.0Y-72.5
X76.1Y-17.65
X77.0Y-22.25
X77.6Y-28.4
X78.9Y-48.5
X79.25Y-70.5
X79.55Y-9.3
X79.6Y-32.75
X80.15Y-22.55
X81.55Y-75.55
X81.85Y-28.45
X83.75Y-39.25
X83.75Y-52.75
X84.0Y-23.55
X84.0Y-37.5
X85.0Y-22.25
X85.0Y-49.5
X85.25Y-28.25
X85.25Y-30.0
X85.25Y-32.75
X85.5Y-58.25
X85.925Y-78.45
X87.25Y-39.25
X87.5Y-30.0
X87.776Y-37.251
X88.0Y-9.25
X88.25Y-22.25
X88.775Y-37.225
X90.0Y-74.05
X93.1Y-36.0
X93.55Y-76.7
X94.25Y-17.25
X94.3Y-66.5
X94.4Y-40.45
X94.5Y-22.0
X94.95Y-8.5
X95.05Y-31.3
X95.515Y-45.89
X95.8Y-41.45
X96.175Y-78.45
X96.7Y-51.7
X96.75Y-17.25
X96.75Y-45.25
X97.25Y-22.0
X98.1Y-32.4
X98.139Y-40.511
X98.25Y-26.9
X98.35Y-30.95
X98.8Y-17.55
X99.25Y-24.75
X100.2Y-9.25
X100.35Y-73.85
X100.9Y-45.0
X101.0Y-40.65
X101.2Y-47.95
X101.2Y-50.5
X101.65Y-78.4
X101.8Y-56.5
X102.2Y-44.85
X103.5Y-32.25
X103.75Y-9.5
X104.2Y-51.55
X104.75Y-46.0
X105.0Y-44.85
X105.2Y-74.95
X105.25Y-29.6
X105.3Y-22.7
X105.4Y-49.55
X106.675Y-78.45
X107.675Y-66.45
X108.3Y-22.75
X108.5Y-12.5
X109.55Y-38.6
X110.25Y-12.5
X110.387Y-23.887
X110.925Y-77.45
X113.05Y-17.6
X113.05Y-21.5
X114.25Y-31.5
X114.3Y-8.2
X115.0Y-80.25
X118.35Y-55.95
X119.1Y-44.15
X120.0Y-73.5
X120.8Y-61.8
T3
X27.21Y-75.5
X29.75Y-72.96
X32.29Y-75.5
T4
X29.75Y-81.75
X29.75Y-83.02
X29.75Y-84.29
T5
X20.6Y-15.85
X20.6Y-19.35
X57.25Y-6.25
X59.25Y-6.25
X61.25Y-6.25
X63.25Y-6.25
X65.25Y-6.25
X67.25Y-6.25
X69.25Y-6.25
X71.25Y-6.25
X73.25Y-6.25
X75.25Y-6.25
X77.25Y-6.25
X79.25Y-6.25
X89.75Y-83.5
X90.25Y-6.25
X91.75Y-83.5
X92.25Y-6.25
X93.75Y-83.5
X94.25Y-6.25
X95.75Y-83.5
X96.25Y-6.25
X97.75Y-83.5
X98.25Y-6.25
X99.75Y-83.5
X100.25Y-6.25
X101.75Y-83.5
X102.25Y-6.25
X103.75Y-83.5
X104.25Y-6.25
X105.75Y-83.5
X106.25Y-6.25
X107.75Y-83.5
X108.25Y-6.25
X109.75Y-83.5
X110.25Y-6.25
X111.75Y-83.5
X112.25Y-6.25
T6
X15.71Y-82.5
X18.25Y-82.5
X35.75Y-31.25
X36.2Y-68.835
X38.74Y-68.835
X41.28Y-68.835
X43.25Y-31.25
X43.82Y-68.835
X46.36Y-48.515
X46.36Y-68.835
X48.9Y-48.515
X48.9Y-68.835
X51.44Y-48.515
X51.44Y-68.835
X52.87Y-79.25
X53.98Y-48.515
X53.98Y-68.835
X55.41Y-79.25
X56.52Y-48.515
X56.52Y-68.835
X57.95Y-79.25
X59.06Y-48.515
X59.06Y-68.835
X61.6Y-48.515
X61.6Y-68.835
X64.14Y-48.515
X64.14Y-68.835
X66.68Y-48.515
X66.68Y-68.835
X68.39Y-79.75
X69.22Y-48.515
X69.22Y-68.835
X71.76Y-48.515
X71.76Y-68.835
X74.3Y-48.515
X74.3Y-68.835
X76.01Y-79.75
T7
X8.836Y-14.5
X8.836Y-17.5
T8
X27.85Y-21.4
X29.55Y-17.7
X31.25Y-21.4
X32.95Y-17.7
X34.65Y-21.4
T9
X12.61Y-25.95
X15.38Y-8.0
X27.85Y-25.95
X30.62Y-8.0
T10
X4.75Y-4.75
X4.75Y-84.75
X120.25Y-4.75
X120.25Y-84.75
T11
X8.836Y-12.35
X8.836Y-19.65
T0
M30
