%TF.GenerationSoftware,KiCad,Pcbnew,(6.0.4)*%
%TF.CreationDate,2022-05-08T16:00:54-07:00*%
%TF.ProjectId,lta-logic-module,6c74612d-6c6f-4676-9963-2d6d6f64756c,rev?*%
%TF.SameCoordinates,PX1042990PY10b0760*%
%TF.FileFunction,Soldermask,Bot*%
%TF.FilePolarity,Negative*%
%FSLAX46Y46*%
G04 Gerber Fmt 4.6, Leading zero omitted, Abs format (unit mm)*
G04 Created by KiCad (PCBNEW (6.0.4)) date 2022-05-08 16:00:54*
%MOMM*%
%LPD*%
G01*
G04 APERTURE LIST*
G04 Aperture macros list*
%AMRoundRect*
0 Rectangle with rounded corners*
0 $1 Rounding radius*
0 $2 $3 $4 $5 $6 $7 $8 $9 X,Y pos of 4 corners*
0 Add a 4 corners polygon primitive as box body*
4,1,4,$2,$3,$4,$5,$6,$7,$8,$9,$2,$3,0*
0 Add four circle primitives for the rounded corners*
1,1,$1+$1,$2,$3*
1,1,$1+$1,$4,$5*
1,1,$1+$1,$6,$7*
1,1,$1+$1,$8,$9*
0 Add four rect primitives between the rounded corners*
20,1,$1+$1,$2,$3,$4,$5,0*
20,1,$1+$1,$4,$5,$6,$7,0*
20,1,$1+$1,$6,$7,$8,$9,0*
20,1,$1+$1,$8,$9,$2,$3,0*%
G04 Aperture macros list end*
%ADD10C,1.000000*%
%ADD11R,1.500000X1.500000*%
%ADD12RoundRect,0.100000X-0.400000X-0.400000X0.400000X-0.400000X0.400000X0.400000X-0.400000X0.400000X0*%
%ADD13C,1.800000*%
%ADD14RoundRect,0.100000X-0.400000X0.400000X-0.400000X-0.400000X0.400000X-0.400000X0.400000X0.400000X0*%
%ADD15R,1.222000X1.222000*%
%ADD16C,1.222000*%
%ADD17R,1.500000X1.050000*%
%ADD18O,1.500000X1.050000*%
%ADD19C,3.500000*%
%ADD20R,1.150000X1.150000*%
%ADD21C,1.150000*%
%ADD22R,3.200000X3.200000*%
%ADD23O,3.200000X3.200000*%
%ADD24R,1.580000X1.580000*%
%ADD25C,1.580000*%
%ADD26R,1.600000X1.600000*%
%ADD27C,1.600000*%
%ADD28R,1.700000X1.700000*%
%ADD29O,1.700000X1.700000*%
%ADD30C,1.170000*%
%ADD31C,2.560000*%
%ADD32R,2.100000X2.100000*%
%ADD33C,2.100000*%
G04 APERTURE END LIST*
D10*
%TO.C,TP27*%
X29750000Y-80500000D03*
%TD*%
D11*
%TO.C,TP26*%
X87500000Y-83500000D03*
%TD*%
D10*
%TO.C,TP25*%
X55250000Y-6250000D03*
%TD*%
%TO.C,TP24*%
X88250000Y-6250000D03*
%TD*%
D11*
%TO.C,TP23*%
X43850000Y-48500000D03*
%TD*%
%TO.C,TP22*%
X33700000Y-68840000D03*
%TD*%
D12*
%TO.C,TP1*%
X78250000Y-84750000D03*
%TD*%
%TO.C,TP21*%
X86000000Y-44894736D03*
%TD*%
%TO.C,TP19*%
X52500000Y-75500000D03*
%TD*%
%TO.C,TP12*%
X64500000Y-44500000D03*
%TD*%
%TO.C,TP17*%
X92500000Y-51750000D03*
%TD*%
D13*
%TO.C,L1*%
X43250000Y-31250000D03*
X35750000Y-31250000D03*
%TD*%
D12*
%TO.C,TP9*%
X28000000Y-34500000D03*
%TD*%
D14*
%TO.C,TP14*%
X93000000Y-11750000D03*
%TD*%
D15*
%TO.C,RV1*%
X27210000Y-75500000D03*
D16*
X29750000Y-72960000D03*
X32290000Y-75500000D03*
%TD*%
D12*
%TO.C,TP2*%
X33250000Y-43250000D03*
%TD*%
%TO.C,TP6*%
X27500000Y-43250000D03*
%TD*%
%TO.C,TP20*%
X44250000Y-83000000D03*
%TD*%
D17*
%TO.C,Q2*%
X29750000Y-81750000D03*
D18*
X29750000Y-83020000D03*
X29750000Y-84290000D03*
%TD*%
D12*
%TO.C,TP4*%
X72000000Y-84750000D03*
%TD*%
D19*
%TO.C,H1*%
X4750000Y-84750000D03*
%TD*%
D20*
%TO.C,J3*%
X112250001Y-6250000D03*
D21*
X110250000Y-6250000D03*
X108250001Y-6250000D03*
X106250000Y-6250000D03*
X104250002Y-6250000D03*
X102250001Y-6250000D03*
X100250002Y-6250000D03*
X98250001Y-6250000D03*
X96250000Y-6250000D03*
X94250001Y-6250000D03*
X92250000Y-6250000D03*
X90250002Y-6250000D03*
%TD*%
D22*
%TO.C,D1*%
X30620000Y-8000000D03*
D23*
X15380000Y-8000000D03*
%TD*%
D24*
%TO.C,SW1*%
X68390000Y-79750000D03*
D25*
X76010000Y-79750000D03*
%TD*%
D12*
%TO.C,TP13*%
X81250000Y-17750000D03*
%TD*%
%TO.C,TP16*%
X87000000Y-54500000D03*
%TD*%
%TO.C,TP3*%
X118750000Y-16000000D03*
%TD*%
%TO.C,TP18*%
X108000000Y-55750000D03*
%TD*%
D22*
%TO.C,D2*%
X27850000Y-25950000D03*
D23*
X12610000Y-25950000D03*
%TD*%
D20*
%TO.C,J2*%
X89750001Y-83500000D03*
D21*
X91750002Y-83500000D03*
X93750001Y-83500000D03*
X95750002Y-83500000D03*
X97750000Y-83500000D03*
X99750001Y-83500000D03*
X101750000Y-83500000D03*
X103750001Y-83500000D03*
X105750002Y-83500000D03*
X107750001Y-83500000D03*
X109750002Y-83500000D03*
X111750000Y-83500000D03*
%TD*%
D14*
%TO.C,TP10*%
X58000000Y-11750000D03*
%TD*%
D19*
%TO.C,H3*%
X120250000Y-4750000D03*
%TD*%
D12*
%TO.C,TP15*%
X117250000Y-24000000D03*
%TD*%
D26*
%TO.C,C5*%
X20600000Y-15850000D03*
D27*
X20600000Y-19350000D03*
%TD*%
D28*
%TO.C,JP1*%
X57950000Y-79249999D03*
D29*
X55410000Y-79249999D03*
X52870000Y-79249999D03*
%TD*%
D19*
%TO.C,H2*%
X120250000Y-84750000D03*
%TD*%
D12*
%TO.C,TP11*%
X59750000Y-44500000D03*
%TD*%
%TO.C,TP8*%
X76250000Y-41750000D03*
%TD*%
D19*
%TO.C,H4*%
X4750000Y-4750000D03*
%TD*%
D30*
%TO.C,J1*%
X8836499Y-14500002D03*
X8836499Y-17500001D03*
D31*
X8836499Y-12350004D03*
X8836499Y-19649999D03*
%TD*%
D20*
%TO.C,J4*%
X79250000Y-6250000D03*
D21*
X77249999Y-6250000D03*
X75250000Y-6250000D03*
X73249999Y-6250000D03*
X71250001Y-6250000D03*
X69250000Y-6250000D03*
X67250001Y-6250000D03*
X65250000Y-6250000D03*
X63249999Y-6250000D03*
X61250000Y-6250000D03*
X59249999Y-6250000D03*
X57250001Y-6250000D03*
%TD*%
D28*
%TO.C,Q1*%
X18250000Y-82500000D03*
D29*
X15710000Y-82500000D03*
%TD*%
D28*
%TO.C,U1*%
X36200000Y-68835000D03*
D29*
X38740000Y-68835000D03*
X41280000Y-68835000D03*
X43820000Y-68835000D03*
X46360000Y-68835000D03*
X48900000Y-68835000D03*
X51440000Y-68835000D03*
X53980000Y-68835000D03*
X56520000Y-68835000D03*
X59060000Y-68835000D03*
X61600000Y-68835000D03*
X64140000Y-68835000D03*
X66680000Y-68835000D03*
X69220000Y-68835000D03*
X71760000Y-68835000D03*
X74300000Y-68835000D03*
X74300000Y-48515000D03*
X71760000Y-48515000D03*
X69220000Y-48515000D03*
X66680000Y-48515000D03*
X64140000Y-48515000D03*
X61600000Y-48515000D03*
X59060000Y-48515000D03*
X56520000Y-48515000D03*
X53980000Y-48515000D03*
X51440000Y-48515000D03*
X48900000Y-48515000D03*
D28*
X46360000Y-48515000D03*
%TD*%
D12*
%TO.C,TP5*%
X82000000Y-13450000D03*
%TD*%
%TO.C,TP7*%
X80500000Y-44894736D03*
%TD*%
D32*
%TO.C,U2*%
X27850000Y-21400000D03*
D33*
X29550000Y-17700000D03*
X31250000Y-21400000D03*
X32950000Y-17700000D03*
X34650000Y-21400000D03*
%TD*%
G36*
X30108418Y-83525714D02*
G01*
X30108690Y-83527696D01*
X30107574Y-83528799D01*
X30106049Y-83529403D01*
X30105564Y-83529528D01*
X30079398Y-83532834D01*
X30015641Y-83560641D01*
X29977204Y-83618254D01*
X29976018Y-83687503D01*
X30012484Y-83746442D01*
X30056508Y-83769994D01*
X30057564Y-83771692D01*
X30056621Y-83773456D01*
X30055007Y-83773678D01*
X30051337Y-83772612D01*
X29974922Y-83767000D01*
X29525132Y-83767000D01*
X29393433Y-83785041D01*
X29391582Y-83784286D01*
X29391310Y-83782304D01*
X29392426Y-83781201D01*
X29393951Y-83780597D01*
X29394436Y-83780472D01*
X29420602Y-83777166D01*
X29484359Y-83749359D01*
X29522796Y-83691746D01*
X29523982Y-83622497D01*
X29487516Y-83563558D01*
X29443492Y-83540006D01*
X29442436Y-83538308D01*
X29443379Y-83536544D01*
X29444993Y-83536322D01*
X29448663Y-83537388D01*
X29525078Y-83543000D01*
X29974868Y-83543000D01*
X30106567Y-83524959D01*
X30108418Y-83525714D01*
G37*
G36*
X30155066Y-82274000D02*
G01*
X30155066Y-82276000D01*
X30153897Y-82276919D01*
X30086885Y-82296595D01*
X30041530Y-82348938D01*
X30031673Y-82417491D01*
X30060436Y-82480473D01*
X30123045Y-82519209D01*
X30168398Y-82530854D01*
X30168865Y-82531038D01*
X30175047Y-82534437D01*
X30176083Y-82536148D01*
X30175119Y-82537901D01*
X30173525Y-82538111D01*
X30051337Y-82502612D01*
X29974922Y-82497000D01*
X29525132Y-82497000D01*
X29388663Y-82515694D01*
X29386812Y-82514939D01*
X29386540Y-82512957D01*
X29387162Y-82512136D01*
X29439016Y-82471677D01*
X29461917Y-82406315D01*
X29445844Y-82338948D01*
X29395866Y-82290929D01*
X29338689Y-82276943D01*
X29337244Y-82275560D01*
X29337719Y-82273617D01*
X29339164Y-82273000D01*
X30153334Y-82273000D01*
X30155066Y-82274000D01*
G37*
G36*
X29670380Y-80991573D02*
G01*
X29811551Y-80994161D01*
X29930083Y-80961845D01*
X29932017Y-80962355D01*
X29932543Y-80964284D01*
X29931508Y-80965562D01*
X29919962Y-80971369D01*
X29919509Y-80971532D01*
X29882350Y-80980042D01*
X29821668Y-81014043D01*
X29789142Y-81075189D01*
X29794839Y-81144212D01*
X29836949Y-81199200D01*
X29902351Y-81222783D01*
X29909587Y-81223001D01*
X29911288Y-81224053D01*
X29911228Y-81226052D01*
X29909527Y-81227000D01*
X29591940Y-81227000D01*
X29590208Y-81226000D01*
X29590208Y-81224000D01*
X29591377Y-81223081D01*
X29658389Y-81203405D01*
X29703744Y-81151062D01*
X29713601Y-81082509D01*
X29684837Y-81019525D01*
X29622858Y-80980954D01*
X29565766Y-80965975D01*
X29565320Y-80965798D01*
X29552756Y-80958976D01*
X29551711Y-80957270D01*
X29552665Y-80955513D01*
X29554306Y-80955309D01*
X29670380Y-80991573D01*
G37*
M02*
