%TF.GenerationSoftware,KiCad,Pcbnew,(6.0.4)*%
%TF.CreationDate,2022-05-08T16:00:54-07:00*%
%TF.ProjectId,lta-logic-module,6c74612d-6c6f-4676-9963-2d6d6f64756c,rev?*%
%TF.SameCoordinates,PX1042990PY10b0760*%
%TF.FileFunction,Legend,Bot*%
%TF.FilePolarity,Positive*%
%FSLAX46Y46*%
G04 Gerber Fmt 4.6, Leading zero omitted, Abs format (unit mm)*
G04 Created by KiCad (PCBNEW (6.0.4)) date 2022-05-08 16:00:54*
%MOMM*%
%LPD*%
G01*
G04 APERTURE LIST*
%ADD10C,0.150000*%
G04 APERTURE END LIST*
D10*
X4964285Y-57104761D02*
X4678571Y-57866666D01*
X4392857Y-57104761D01*
X4964285Y-55866666D02*
X4678571Y-56628571D01*
X4392857Y-55866666D01*
X4964285Y-54628571D02*
X4678571Y-55390476D01*
X4392857Y-54628571D01*
X5297619Y-53485714D02*
X4297619Y-53247619D01*
X5011904Y-53057142D01*
X4297619Y-52866666D01*
X5297619Y-52628571D01*
X4583333Y-52295238D02*
X4583333Y-51819047D01*
X4297619Y-52390476D02*
X5297619Y-52057142D01*
X4297619Y-51723809D01*
X5297619Y-51533333D02*
X4297619Y-51200000D01*
X5297619Y-50866666D01*
X4821428Y-50533333D02*
X4821428Y-50200000D01*
X4297619Y-50057142D02*
X4297619Y-50533333D01*
X5297619Y-50533333D01*
X5297619Y-50057142D01*
X4297619Y-48866666D02*
X5297619Y-48866666D01*
X5297619Y-48485714D01*
X5250000Y-48390476D01*
X5202380Y-48342857D01*
X5107142Y-48295238D01*
X4964285Y-48295238D01*
X4869047Y-48342857D01*
X4821428Y-48390476D01*
X4773809Y-48485714D01*
X4773809Y-48866666D01*
X4297619Y-47295238D02*
X4773809Y-47628571D01*
X4297619Y-47866666D02*
X5297619Y-47866666D01*
X5297619Y-47485714D01*
X5250000Y-47390476D01*
X5202380Y-47342857D01*
X5107142Y-47295238D01*
X4964285Y-47295238D01*
X4869047Y-47342857D01*
X4821428Y-47390476D01*
X4773809Y-47485714D01*
X4773809Y-47866666D01*
X5297619Y-46676190D02*
X5297619Y-46485714D01*
X5250000Y-46390476D01*
X5154761Y-46295238D01*
X4964285Y-46247619D01*
X4630952Y-46247619D01*
X4440476Y-46295238D01*
X4345238Y-46390476D01*
X4297619Y-46485714D01*
X4297619Y-46676190D01*
X4345238Y-46771428D01*
X4440476Y-46866666D01*
X4630952Y-46914285D01*
X4964285Y-46914285D01*
X5154761Y-46866666D01*
X5250000Y-46771428D01*
X5297619Y-46676190D01*
X4392857Y-45247619D02*
X4345238Y-45295238D01*
X4297619Y-45438095D01*
X4297619Y-45533333D01*
X4345238Y-45676190D01*
X4440476Y-45771428D01*
X4535714Y-45819047D01*
X4726190Y-45866666D01*
X4869047Y-45866666D01*
X5059523Y-45819047D01*
X5154761Y-45771428D01*
X5250000Y-45676190D01*
X5297619Y-45533333D01*
X5297619Y-45438095D01*
X5250000Y-45295238D01*
X5202380Y-45247619D01*
X4821428Y-44819047D02*
X4821428Y-44485714D01*
X4297619Y-44342857D02*
X4297619Y-44819047D01*
X5297619Y-44819047D01*
X5297619Y-44342857D01*
X4345238Y-43961904D02*
X4297619Y-43819047D01*
X4297619Y-43580952D01*
X4345238Y-43485714D01*
X4392857Y-43438095D01*
X4488095Y-43390476D01*
X4583333Y-43390476D01*
X4678571Y-43438095D01*
X4726190Y-43485714D01*
X4773809Y-43580952D01*
X4821428Y-43771428D01*
X4869047Y-43866666D01*
X4916666Y-43914285D01*
X5011904Y-43961904D01*
X5107142Y-43961904D01*
X5202380Y-43914285D01*
X5250000Y-43866666D01*
X5297619Y-43771428D01*
X5297619Y-43533333D01*
X5250000Y-43390476D01*
X4345238Y-43009523D02*
X4297619Y-42866666D01*
X4297619Y-42628571D01*
X4345238Y-42533333D01*
X4392857Y-42485714D01*
X4488095Y-42438095D01*
X4583333Y-42438095D01*
X4678571Y-42485714D01*
X4726190Y-42533333D01*
X4773809Y-42628571D01*
X4821428Y-42819047D01*
X4869047Y-42914285D01*
X4916666Y-42961904D01*
X5011904Y-43009523D01*
X5107142Y-43009523D01*
X5202380Y-42961904D01*
X5250000Y-42914285D01*
X5297619Y-42819047D01*
X5297619Y-42580952D01*
X5250000Y-42438095D01*
X4297619Y-41247619D02*
X5297619Y-41247619D01*
X5297619Y-41009523D01*
X5250000Y-40866666D01*
X5154761Y-40771428D01*
X5059523Y-40723809D01*
X4869047Y-40676190D01*
X4726190Y-40676190D01*
X4535714Y-40723809D01*
X4440476Y-40771428D01*
X4345238Y-40866666D01*
X4297619Y-41009523D01*
X4297619Y-41247619D01*
X4297619Y-40247619D02*
X5297619Y-40247619D01*
X4297619Y-39200000D02*
X4773809Y-39533333D01*
X4297619Y-39771428D02*
X5297619Y-39771428D01*
X5297619Y-39390476D01*
X5250000Y-39295238D01*
X5202380Y-39247619D01*
X5107142Y-39200000D01*
X4964285Y-39200000D01*
X4869047Y-39247619D01*
X4821428Y-39295238D01*
X4773809Y-39390476D01*
X4773809Y-39771428D01*
X4821428Y-38771428D02*
X4821428Y-38438095D01*
X4297619Y-38295238D02*
X4297619Y-38771428D01*
X5297619Y-38771428D01*
X5297619Y-38295238D01*
X4392857Y-37295238D02*
X4345238Y-37342857D01*
X4297619Y-37485714D01*
X4297619Y-37580952D01*
X4345238Y-37723809D01*
X4440476Y-37819047D01*
X4535714Y-37866666D01*
X4726190Y-37914285D01*
X4869047Y-37914285D01*
X5059523Y-37866666D01*
X5154761Y-37819047D01*
X5250000Y-37723809D01*
X5297619Y-37580952D01*
X5297619Y-37485714D01*
X5250000Y-37342857D01*
X5202380Y-37295238D01*
X5297619Y-37009523D02*
X5297619Y-36438095D01*
X4297619Y-36723809D02*
X5297619Y-36723809D01*
X4297619Y-36104761D02*
X5297619Y-36104761D01*
X5297619Y-35438095D02*
X5297619Y-35247619D01*
X5250000Y-35152380D01*
X5154761Y-35057142D01*
X4964285Y-35009523D01*
X4630952Y-35009523D01*
X4440476Y-35057142D01*
X4345238Y-35152380D01*
X4297619Y-35247619D01*
X4297619Y-35438095D01*
X4345238Y-35533333D01*
X4440476Y-35628571D01*
X4630952Y-35676190D01*
X4964285Y-35676190D01*
X5154761Y-35628571D01*
X5250000Y-35533333D01*
X5297619Y-35438095D01*
X4297619Y-34580952D02*
X5297619Y-34580952D01*
X4297619Y-34009523D01*
X5297619Y-34009523D01*
X4964285Y-32009523D02*
X4678571Y-32771428D01*
X4392857Y-32009523D01*
X4964285Y-30771428D02*
X4678571Y-31533333D01*
X4392857Y-30771428D01*
X4964285Y-29533333D02*
X4678571Y-30295238D01*
X4392857Y-29533333D01*
M02*
