M48
; DRILL file {KiCad (6.0.5)} date Mon May 16 01:42:32 2022
; FORMAT={-:-/ absolute / metric / decimal}
; #@! TF.CreationDate,2022-05-16T01:42:32-07:00
; #@! TF.GenerationSoftware,Kicad,Pcbnew,(6.0.5)
; #@! TF.FileFunction,Plated,1,2,PTH
FMAT,2
METRIC
; #@! TA.AperFunction,Plated,PTH,ComponentDrill
T1C0.300
; #@! TA.AperFunction,Plated,PTH,ViaDrill
T2C0.400
; #@! TA.AperFunction,Plated,PTH,ComponentDrill
T3C0.700
; #@! TA.AperFunction,Plated,PTH,ComponentDrill
T4C0.800
; #@! TA.AperFunction,Plated,PTH,ComponentDrill
T5C0.900
; #@! TA.AperFunction,Plated,PTH,ComponentDrill
T6C1.000
; #@! TA.AperFunction,Plated,PTH,ComponentDrill
T7C1.020
; #@! TA.AperFunction,Plated,PTH,ComponentDrill
T8C1.350
; #@! TA.AperFunction,Plated,PTH,ComponentDrill
T9C1.600
; #@! TA.AperFunction,Plated,PTH,ComponentDrill
T10C2.032
; #@! TA.AperFunction,Plated,PTH,ComponentDrill
T11C3.302
; #@! TA.AperFunction,Plated,PTH,ComponentDrill
T12C3.429
; #@! TA.AperFunction,Plated,PTH,ComponentDrill
T13C5.300
%
G90
G05
T1
X88.392Y-40.894
X93.726Y-40.894
X118.273Y-113.643
X121.773Y-113.643
X158.445Y-219.456
X168.656Y-219.456
X173.998Y-219.444
X176.773Y-132.643
X178.816Y-219.456
X196.545Y-219.456
X199.023Y-112.393
X199.023Y-116.643
X234.273Y-113.643
X237.273Y-113.643
X261.62Y-41.402
X267.208Y-41.402
T2
X60.75Y-130.5
X61.75Y-82.5
X61.75Y-179.0
X108.356Y-107.036
X109.5Y-138.25
X111.76Y-172.974
X112.065Y-55.524
X117.023Y-122.893
X117.273Y-137.143
X117.273Y-144.893
X119.023Y-82.393
X119.023Y-124.893
X121.273Y-153.393
X122.523Y-136.393
X125.023Y-144.393
X125.023Y-152.393
X125.5Y-82.5
X128.273Y-106.143
X130.523Y-136.393
X130.523Y-183.643
X130.773Y-205.143
X131.273Y-82.643
X132.023Y-200.143
X132.273Y-127.643
X132.773Y-205.143
X133.023Y-138.893
X133.273Y-207.643
X133.523Y-146.143
X135.273Y-207.643
X135.523Y-117.643
X135.523Y-169.893
X137.023Y-202.393
X137.773Y-175.893
X139.5Y-72.0
X141.523Y-117.643
X144.523Y-143.143
X146.273Y-202.643
X149.023Y-208.643
X149.023Y-212.393
X150.273Y-168.143
X151.892Y-218.186
X153.773Y-206.393
X154.773Y-137.393
X157.023Y-183.543
X158.023Y-125.393
X158.273Y-114.143
X158.523Y-200.643
X161.523Y-170.393
X162.023Y-137.393
X163.023Y-202.393
X163.523Y-206.393
X166.523Y-178.643
X168.773Y-134.893
X170.023Y-143.143
X172.273Y-195.393
X172.523Y-206.393
X172.524Y-96.081
X176.273Y-121.643
X177.023Y-168.393
X181.023Y-206.393
X181.273Y-194.643
X182.173Y-183.543
X182.684Y-96.081
X183.023Y-143.143
X183.273Y-208.643
X183.773Y-200.893
X188.023Y-170.393
X188.273Y-202.393
X191.773Y-178.643
X195.773Y-206.393
X198.273Y-129.643
X198.363Y-106.241
X201.523Y-125.393
X202.023Y-206.393
X202.273Y-168.643
X202.753Y-134.123
X206.502Y-218.186
X208.023Y-208.893
X209.123Y-183.793
X210.773Y-201.143
X214.523Y-143.393
X215.023Y-170.643
X215.523Y-202.393
X216.75Y-49.5
X219.023Y-78.893
X219.273Y-178.393
X224.773Y-128.143
X229.773Y-140.393
X229.773Y-149.643
X231.75Y-83.75
X233.25Y-177.25
X243.738Y-140.919
X248.209Y-107.899
X248.564Y-58.217
X290.75Y-129.75
X291.0Y-177.25
X291.25Y-82.0
T3
X127.893Y-166.193
X127.893Y-170.443
X128.023Y-175.103
X128.023Y-180.183
X129.523Y-156.563
X129.523Y-161.643
X132.973Y-166.193
X132.973Y-170.443
X134.523Y-156.603
X134.523Y-161.683
X139.523Y-156.603
X139.523Y-161.683
X141.143Y-166.193
X141.143Y-170.393
X144.523Y-156.603
X144.523Y-161.683
X146.223Y-166.193
X146.223Y-170.393
X146.363Y-175.263
X146.363Y-180.343
X153.483Y-166.143
X153.483Y-170.343
X153.523Y-175.353
X153.523Y-180.433
X156.023Y-156.553
X156.023Y-161.633
X158.563Y-166.143
X158.563Y-170.343
X161.023Y-156.553
X161.023Y-161.633
X165.863Y-156.553
X165.863Y-161.633
X167.273Y-100.853
X167.273Y-105.933
X167.943Y-166.193
X167.983Y-170.393
X170.733Y-101.393
X170.773Y-156.553
X170.773Y-161.633
X173.023Y-166.193
X173.063Y-170.393
X173.113Y-175.303
X173.113Y-180.383
X175.813Y-101.393
X180.483Y-166.143
X180.483Y-170.393
X180.613Y-175.303
X180.613Y-180.383
X181.773Y-156.643
X181.773Y-161.723
X185.563Y-166.143
X185.563Y-170.393
X187.273Y-156.643
X187.273Y-161.723
X191.773Y-156.643
X191.773Y-161.723
X193.233Y-166.143
X193.233Y-170.393
X194.273Y-100.393
X194.273Y-105.473
X196.773Y-156.603
X196.773Y-161.683
X198.273Y-175.313
X198.273Y-180.393
X198.313Y-166.143
X198.313Y-170.393
X206.983Y-166.143
X206.983Y-170.393
X207.023Y-175.433
X207.023Y-180.513
X209.023Y-156.563
X209.023Y-161.643
X212.063Y-166.143
X212.063Y-170.393
X214.023Y-156.563
X214.023Y-161.643
X219.023Y-156.563
X219.023Y-161.643
X220.943Y-170.393
X220.983Y-166.143
X224.023Y-156.603
X224.023Y-161.683
X226.023Y-170.393
X226.023Y-175.393
X226.023Y-180.473
X226.063Y-166.143
T4
X106.881Y-36.068
X108.881Y-36.068
X110.881Y-36.068
X112.881Y-36.068
X114.881Y-36.068
X116.881Y-36.068
X118.881Y-36.068
X120.881Y-36.068
X122.881Y-36.068
X124.881Y-36.068
X126.881Y-36.068
X128.348Y-111.664
X128.348Y-113.664
X128.881Y-36.068
X134.903Y-113.643
X139.273Y-202.393
X140.273Y-175.893
X141.773Y-202.393
X142.523Y-113.643
X142.773Y-175.893
X161.773Y-114.393
X165.273Y-114.393
X165.523Y-202.393
X166.523Y-175.893
X168.023Y-202.393
X169.023Y-175.893
X190.773Y-202.393
X191.773Y-175.893
X193.273Y-202.393
X194.273Y-175.893
X213.698Y-113.621
X217.773Y-202.393
X219.273Y-175.973
X220.273Y-202.393
X221.318Y-113.621
X221.773Y-175.973
X227.523Y-111.643
X227.523Y-113.643
X232.59Y-36.052
X234.59Y-36.052
X236.59Y-36.052
X238.59Y-36.052
X240.59Y-36.052
X242.59Y-36.052
X244.59Y-36.052
X246.59Y-36.052
X248.59Y-36.052
X250.59Y-36.052
X252.59Y-36.052
X254.59Y-36.052
T5
X133.803Y-181.003
X133.803Y-183.543
X133.803Y-186.083
X133.803Y-188.623
X133.803Y-191.163
X133.803Y-193.703
X133.803Y-196.243
X133.803Y-198.783
X141.743Y-181.003
X141.743Y-183.543
X141.743Y-186.083
X141.743Y-188.623
X141.743Y-191.163
X141.743Y-193.703
X141.743Y-196.243
X141.743Y-198.783
X149.773Y-111.118
X149.773Y-113.658
X160.053Y-181.003
X160.053Y-183.543
X160.053Y-186.083
X160.053Y-188.623
X160.053Y-191.163
X160.053Y-193.703
X160.053Y-196.243
X160.053Y-198.783
X167.993Y-181.003
X167.993Y-183.543
X167.993Y-186.083
X167.993Y-188.623
X167.993Y-191.163
X167.993Y-193.703
X167.993Y-196.243
X167.993Y-198.783
X185.303Y-181.003
X185.303Y-183.543
X185.303Y-186.083
X185.303Y-188.623
X185.303Y-191.163
X185.303Y-193.703
X185.303Y-196.243
X185.303Y-198.783
X186.273Y-103.393
X188.813Y-103.393
X193.243Y-181.003
X193.243Y-183.543
X193.243Y-186.083
X193.243Y-188.623
X193.243Y-191.163
X193.243Y-193.703
X193.243Y-196.243
X193.243Y-198.783
X206.198Y-111.121
X206.198Y-113.661
X212.303Y-181.253
X212.303Y-183.793
X212.303Y-186.333
X212.303Y-188.873
X212.303Y-191.413
X212.303Y-193.953
X212.303Y-196.493
X212.303Y-199.033
X220.243Y-181.253
X220.243Y-183.793
X220.243Y-186.333
X220.243Y-188.873
X220.243Y-191.413
X220.243Y-193.953
X220.243Y-196.493
X220.243Y-199.033
T6
X158.433Y-213.443
X160.973Y-213.443
X163.513Y-213.443
X166.053Y-213.443
X168.593Y-213.443
X171.133Y-213.443
X171.463Y-106.393
X173.673Y-213.443
X176.213Y-213.443
X178.753Y-213.443
X179.083Y-106.393
X181.293Y-213.443
X183.833Y-213.443
X184.023Y-127.393
X186.373Y-213.443
X188.913Y-213.443
X191.453Y-213.443
X191.523Y-127.393
X193.993Y-213.443
X196.533Y-213.443
T7
X156.199Y-87.445
X156.199Y-92.525
X157.723Y-42.233
X157.723Y-44.762
X157.723Y-47.29
X157.723Y-49.819
X157.723Y-52.348
X157.723Y-54.876
X157.723Y-57.405
X157.723Y-59.934
X157.723Y-62.462
X157.723Y-64.991
X157.723Y-67.52
X157.723Y-70.049
X157.723Y-72.577
X157.723Y-75.106
X157.723Y-77.635
X157.723Y-80.163
X160.263Y-42.233
X160.263Y-44.762
X160.263Y-47.29
X160.263Y-49.819
X160.263Y-52.348
X160.263Y-54.876
X160.263Y-57.405
X160.263Y-59.934
X160.263Y-62.462
X160.263Y-64.991
X160.263Y-67.52
X160.263Y-70.049
X160.263Y-72.577
X160.263Y-75.106
X160.263Y-77.635
X160.263Y-80.163
X165.343Y-42.233
X165.343Y-44.762
X165.343Y-47.29
X165.343Y-49.819
X165.343Y-52.348
X165.343Y-54.876
X165.343Y-57.405
X165.343Y-59.934
X165.343Y-62.462
X165.343Y-64.991
X165.343Y-67.52
X165.343Y-70.049
X165.343Y-72.577
X165.343Y-75.106
X165.343Y-77.635
X165.343Y-80.163
X167.883Y-42.233
X167.883Y-44.762
X167.883Y-47.29
X167.883Y-49.819
X167.883Y-52.348
X167.883Y-54.876
X167.883Y-57.405
X167.883Y-59.934
X167.883Y-62.462
X167.883Y-64.991
X167.883Y-67.52
X167.883Y-70.049
X167.883Y-72.577
X167.883Y-75.106
X167.883Y-77.635
X167.883Y-80.163
X170.423Y-42.233
X170.423Y-44.762
X170.423Y-47.29
X170.423Y-49.819
X170.423Y-52.348
X170.423Y-54.876
X170.423Y-57.405
X170.423Y-59.934
X170.423Y-62.462
X170.423Y-64.991
X170.423Y-67.52
X170.423Y-70.049
X170.423Y-72.577
X170.423Y-75.106
X170.423Y-77.635
X170.423Y-80.163
X172.963Y-42.233
X172.963Y-44.762
X172.963Y-47.29
X172.963Y-49.819
X172.963Y-52.348
X172.963Y-54.876
X172.963Y-57.405
X172.963Y-59.934
X172.963Y-62.462
X172.963Y-64.991
X172.963Y-67.52
X172.963Y-70.049
X172.963Y-72.577
X172.963Y-75.106
X172.963Y-77.635
X172.963Y-80.163
X176.519Y-87.445
X176.519Y-92.525
X179.059Y-87.445
X179.059Y-92.525
X180.543Y-44.762
X180.543Y-47.29
X180.583Y-42.233
X180.583Y-49.819
X180.583Y-52.348
X180.583Y-54.876
X180.583Y-57.405
X180.583Y-59.934
X180.583Y-62.462
X180.583Y-64.991
X180.583Y-67.52
X180.583Y-70.049
X180.583Y-72.577
X180.583Y-75.106
X180.583Y-77.635
X180.583Y-80.163
X183.083Y-47.29
X183.096Y-44.762
X183.103Y-67.52
X183.107Y-70.049
X183.123Y-42.233
X183.123Y-49.819
X183.123Y-52.348
X183.123Y-54.876
X183.123Y-57.405
X183.123Y-59.934
X183.123Y-62.462
X183.123Y-64.991
X183.123Y-72.577
X183.123Y-75.106
X183.123Y-77.635
X183.123Y-80.163
X185.623Y-47.29
X185.623Y-67.52
X185.631Y-70.049
X185.65Y-44.762
X185.663Y-42.233
X185.663Y-49.819
X185.663Y-52.348
X185.663Y-54.876
X185.663Y-57.405
X185.663Y-59.934
X185.663Y-62.462
X185.663Y-64.991
X185.663Y-72.577
X185.663Y-75.106
X185.663Y-77.635
X185.663Y-80.163
X188.143Y-67.52
X188.155Y-70.049
X188.163Y-47.29
X188.203Y-42.233
X188.203Y-44.762
X188.203Y-49.819
X188.203Y-52.348
X188.203Y-54.876
X188.203Y-57.405
X188.203Y-59.934
X188.203Y-62.462
X188.203Y-64.991
X188.203Y-72.577
X188.203Y-75.106
X188.203Y-77.635
X188.203Y-80.163
X193.283Y-42.233
X193.283Y-44.762
X193.283Y-47.29
X193.283Y-49.819
X193.283Y-52.348
X193.283Y-54.876
X193.283Y-57.405
X193.283Y-59.934
X193.283Y-62.462
X193.283Y-64.991
X193.283Y-67.52
X193.283Y-70.049
X193.283Y-72.577
X193.283Y-75.106
X193.283Y-77.635
X193.283Y-80.163
X199.379Y-87.445
X199.379Y-92.525
T8
X171.273Y-119.393
X172.973Y-115.693
X174.673Y-119.393
X176.373Y-115.693
X178.073Y-119.393
T9
X161.279Y-87.445
X161.279Y-92.525
X161.653Y-125.393
X171.439Y-87.445
X171.439Y-92.525
X176.893Y-125.393
X184.139Y-87.485
X184.139Y-92.525
X194.299Y-87.445
X194.299Y-92.525
T10
X46.523Y-111.897
X46.523Y-125.537
X47.023Y-63.74
X47.023Y-77.379
X47.023Y-160.055
X47.023Y-173.695
X47.023Y-208.213
X47.023Y-221.853
X76.644Y-87.781
X76.644Y-101.421
X76.644Y-135.938
X76.644Y-149.578
X76.683Y-184.096
X76.683Y-197.736
X76.984Y-39.623
X76.984Y-53.263
X277.683Y-39.661
X277.683Y-53.301
X277.683Y-87.361
X277.683Y-101.001
X277.683Y-135.061
X277.683Y-148.701
X277.683Y-182.761
X277.683Y-196.401
X307.523Y-63.473
X307.523Y-77.113
X307.523Y-111.173
X307.523Y-124.813
X307.523Y-158.873
X307.523Y-172.513
X308.023Y-206.573
X308.023Y-220.213
T11
X95.683Y-54.751
X95.683Y-93.943
X149.023Y-54.751
X149.023Y-93.943
X205.858Y-54.751
X205.858Y-93.943
X259.198Y-54.751
X259.198Y-93.943
T12
X102.683Y-116.67
X102.683Y-206.713
X252.523Y-116.67
X252.523Y-206.713
T13
X31.217Y-68.732
X31.217Y-193.7
X92.799Y-32.22
X92.799Y-230.213
X142.786Y-32.22
X142.786Y-230.213
X217.767Y-32.22
X217.767Y-230.213
X267.754Y-32.22
X267.754Y-230.213
X329.209Y-68.732
X329.209Y-193.7
T0
M30
