%FSLAX45Y45*%
G04 Gerber Fmt 4.5, Leading zero omitted, Abs format (unit mm)*
G04 Created by KiCad (PCBNEW (6.0.5)) date 2022-05-16 01:42:43*
%MOMM*%
%LPD*%
G01*
G04 APERTURE LIST*
%TA.AperFunction,Profile*%
%ADD10C,0.100000*%
%TD*%
%ADD11C,0.200000*%
%ADD12C,0.030000*%
%ADD13C,0.040000*%
%ADD14C,0.070000*%
%ADD15C,0.080000*%
%ADD16C,0.090000*%
%ADD17C,0.100000*%
%ADD18C,0.102000*%
%ADD19C,0.135000*%
%ADD20C,0.160000*%
%ADD21C,0.203200*%
%ADD22C,0.330200*%
%ADD23C,0.342900*%
%ADD24C,0.530000*%
G04 APERTURE END LIST*
D10*
X2527300Y-21976080D02*
G75*
G03*
X2654300Y-22103080I127000J0D01*
G01*
X33401000Y-22104717D02*
G75*
G03*
X32009080Y-23495000I125479J-1517548D01*
G01*
X33528000Y-4267200D02*
G75*
G03*
X33401000Y-4140200I-127000J0D01*
G01*
X2654300Y-4140200D02*
G75*
G03*
X4046220Y-2748280I-127264J1519183D01*
G01*
X32009080Y-2748280D02*
G75*
G03*
X33401000Y-4140200I1519180J127260D01*
G01*
X2527300Y-21976080D02*
X2527300Y-4267200D01*
X4046220Y-23495000D02*
G75*
G03*
X4173220Y-23622000I127000J0D01*
G01*
X2654300Y-4140200D02*
G75*
G03*
X2527300Y-4267200I0J-127000D01*
G01*
X32009080Y-2748280D02*
G75*
G03*
X31882080Y-2621280I-127000J0D01*
G01*
X33528000Y-4267200D02*
X33528000Y-21977717D01*
X31882080Y-23622000D02*
X4173220Y-23622000D01*
X4173220Y-2621280D02*
G75*
G03*
X4046220Y-2748280I0J-127000D01*
G01*
X4173220Y-2621280D02*
X31882080Y-2621280D01*
X31882080Y-23622000D02*
G75*
G03*
X32009080Y-23495000I0J127000D01*
G01*
X4046220Y-23495000D02*
G75*
G03*
X2654300Y-22103080I-1519179J-127259D01*
G01*
X33401000Y-22104720D02*
G75*
G03*
X33528000Y-21977717I0J127000D01*
G01*
D11*
D12*
X8824200Y-4074400D02*
X8854200Y-4104400D01*
X8854200Y-4074400D02*
X8824200Y-4104400D01*
X9357600Y-4074400D02*
X9387600Y-4104400D01*
X9387600Y-4074400D02*
X9357600Y-4104400D01*
X11812300Y-11349280D02*
X11842300Y-11379280D01*
X11842300Y-11349280D02*
X11812300Y-11379280D01*
X12162300Y-11349280D02*
X12192300Y-11379280D01*
X12192300Y-11349280D02*
X12162300Y-11379280D01*
X15829520Y-21930600D02*
X15859520Y-21960600D01*
X15859520Y-21930600D02*
X15829520Y-21960600D01*
X16850600Y-21930600D02*
X16880600Y-21960600D01*
X16880600Y-21930600D02*
X16850600Y-21960600D01*
X17384800Y-21929400D02*
X17414800Y-21959400D01*
X17414800Y-21929400D02*
X17384800Y-21959400D01*
X17662300Y-13249280D02*
X17692300Y-13279280D01*
X17692300Y-13249280D02*
X17662300Y-13279280D01*
X17866600Y-21930600D02*
X17896600Y-21960600D01*
X17896600Y-21930600D02*
X17866600Y-21960600D01*
X19639520Y-21930600D02*
X19669520Y-21960600D01*
X19669520Y-21930600D02*
X19639520Y-21960600D01*
X19887300Y-11224280D02*
X19917300Y-11254280D01*
X19917300Y-11224280D02*
X19887300Y-11254280D01*
X19887300Y-11649280D02*
X19917300Y-11679280D01*
X19917300Y-11649280D02*
X19887300Y-11679280D01*
X23412300Y-11349280D02*
X23442300Y-11379280D01*
X23442300Y-11349280D02*
X23412300Y-11379280D01*
X23712300Y-11349280D02*
X23742300Y-11379280D01*
X23742300Y-11349280D02*
X23712300Y-11379280D01*
X26147000Y-4125200D02*
X26177000Y-4155200D01*
X26177000Y-4125200D02*
X26147000Y-4155200D01*
X26705800Y-4125200D02*
X26735800Y-4155200D01*
X26735800Y-4125200D02*
X26705800Y-4155200D01*
D13*
X6095000Y-13050000D02*
G75*
G03*
X6095000Y-13050000I-20000J0D01*
G01*
X6195000Y-8250000D02*
G75*
G03*
X6195000Y-8250000I-20000J0D01*
G01*
X6195000Y-17900000D02*
G75*
G03*
X6195000Y-17900000I-20000J0D01*
G01*
X10855640Y-10703560D02*
G75*
G03*
X10855640Y-10703560I-20000J0D01*
G01*
X10970000Y-13825000D02*
G75*
G03*
X10970000Y-13825000I-20000J0D01*
G01*
X11196000Y-17297400D02*
G75*
G03*
X11196000Y-17297400I-20000J0D01*
G01*
X11226480Y-5552440D02*
G75*
G03*
X11226480Y-5552440I-20000J0D01*
G01*
X11722300Y-12289280D02*
G75*
G03*
X11722300Y-12289280I-20000J0D01*
G01*
X11747300Y-13714280D02*
G75*
G03*
X11747300Y-13714280I-20000J0D01*
G01*
X11747300Y-14489280D02*
G75*
G03*
X11747300Y-14489280I-20000J0D01*
G01*
X11922300Y-8239280D02*
G75*
G03*
X11922300Y-8239280I-20000J0D01*
G01*
X11922300Y-12489280D02*
G75*
G03*
X11922300Y-12489280I-20000J0D01*
G01*
X12147300Y-15339280D02*
G75*
G03*
X12147300Y-15339280I-20000J0D01*
G01*
X12272300Y-13639280D02*
G75*
G03*
X12272300Y-13639280I-20000J0D01*
G01*
X12522300Y-14439280D02*
G75*
G03*
X12522300Y-14439280I-20000J0D01*
G01*
X12522300Y-15239280D02*
G75*
G03*
X12522300Y-15239280I-20000J0D01*
G01*
X12570000Y-8250000D02*
G75*
G03*
X12570000Y-8250000I-20000J0D01*
G01*
X12847300Y-10614280D02*
G75*
G03*
X12847300Y-10614280I-20000J0D01*
G01*
X13072300Y-13639280D02*
G75*
G03*
X13072300Y-13639280I-20000J0D01*
G01*
X13072300Y-18364280D02*
G75*
G03*
X13072300Y-18364280I-20000J0D01*
G01*
X13097300Y-20514280D02*
G75*
G03*
X13097300Y-20514280I-20000J0D01*
G01*
X13147300Y-8264280D02*
G75*
G03*
X13147300Y-8264280I-20000J0D01*
G01*
X13222300Y-20014280D02*
G75*
G03*
X13222300Y-20014280I-20000J0D01*
G01*
X13247300Y-12764280D02*
G75*
G03*
X13247300Y-12764280I-20000J0D01*
G01*
X13297300Y-20514280D02*
G75*
G03*
X13297300Y-20514280I-20000J0D01*
G01*
X13322300Y-13889280D02*
G75*
G03*
X13322300Y-13889280I-20000J0D01*
G01*
X13347300Y-20764280D02*
G75*
G03*
X13347300Y-20764280I-20000J0D01*
G01*
X13372300Y-14614280D02*
G75*
G03*
X13372300Y-14614280I-20000J0D01*
G01*
X13547300Y-20764280D02*
G75*
G03*
X13547300Y-20764280I-20000J0D01*
G01*
X13572300Y-11764280D02*
G75*
G03*
X13572300Y-11764280I-20000J0D01*
G01*
X13572300Y-16989280D02*
G75*
G03*
X13572300Y-16989280I-20000J0D01*
G01*
X13722300Y-20239280D02*
G75*
G03*
X13722300Y-20239280I-20000J0D01*
G01*
X13797300Y-17589280D02*
G75*
G03*
X13797300Y-17589280I-20000J0D01*
G01*
X13970000Y-7200000D02*
G75*
G03*
X13970000Y-7200000I-20000J0D01*
G01*
X14172300Y-11764280D02*
G75*
G03*
X14172300Y-11764280I-20000J0D01*
G01*
X14472300Y-14314280D02*
G75*
G03*
X14472300Y-14314280I-20000J0D01*
G01*
X14647300Y-20264280D02*
G75*
G03*
X14647300Y-20264280I-20000J0D01*
G01*
X14922300Y-20864280D02*
G75*
G03*
X14922300Y-20864280I-20000J0D01*
G01*
X14922300Y-21239280D02*
G75*
G03*
X14922300Y-21239280I-20000J0D01*
G01*
X15047300Y-16814280D02*
G75*
G03*
X15047300Y-16814280I-20000J0D01*
G01*
X15209200Y-21818600D02*
G75*
G03*
X15209200Y-21818600I-20000J0D01*
G01*
X15397300Y-20639280D02*
G75*
G03*
X15397300Y-20639280I-20000J0D01*
G01*
X15497300Y-13739280D02*
G75*
G03*
X15497300Y-13739280I-20000J0D01*
G01*
X15722300Y-18354280D02*
G75*
G03*
X15722300Y-18354280I-20000J0D01*
G01*
X15822300Y-12539280D02*
G75*
G03*
X15822300Y-12539280I-20000J0D01*
G01*
X15847300Y-11414280D02*
G75*
G03*
X15847300Y-11414280I-20000J0D01*
G01*
X15872300Y-20064280D02*
G75*
G03*
X15872300Y-20064280I-20000J0D01*
G01*
X16172300Y-17039280D02*
G75*
G03*
X16172300Y-17039280I-20000J0D01*
G01*
X16222300Y-13739280D02*
G75*
G03*
X16222300Y-13739280I-20000J0D01*
G01*
X16322300Y-20239280D02*
G75*
G03*
X16322300Y-20239280I-20000J0D01*
G01*
X16372300Y-20639280D02*
G75*
G03*
X16372300Y-20639280I-20000J0D01*
G01*
X16672300Y-17864280D02*
G75*
G03*
X16672300Y-17864280I-20000J0D01*
G01*
X16897300Y-13489280D02*
G75*
G03*
X16897300Y-13489280I-20000J0D01*
G01*
X17022300Y-14314280D02*
G75*
G03*
X17022300Y-14314280I-20000J0D01*
G01*
X17247300Y-19539280D02*
G75*
G03*
X17247300Y-19539280I-20000J0D01*
G01*
X17272300Y-20639280D02*
G75*
G03*
X17272300Y-20639280I-20000J0D01*
G01*
X17272420Y-9608080D02*
G75*
G03*
X17272420Y-9608080I-20000J0D01*
G01*
X17647300Y-12164280D02*
G75*
G03*
X17647300Y-12164280I-20000J0D01*
G01*
X17722300Y-16839280D02*
G75*
G03*
X17722300Y-16839280I-20000J0D01*
G01*
X18122300Y-20639280D02*
G75*
G03*
X18122300Y-20639280I-20000J0D01*
G01*
X18147300Y-19464280D02*
G75*
G03*
X18147300Y-19464280I-20000J0D01*
G01*
X18237300Y-18354280D02*
G75*
G03*
X18237300Y-18354280I-20000J0D01*
G01*
X18288420Y-9608080D02*
G75*
G03*
X18288420Y-9608080I-20000J0D01*
G01*
X18322300Y-14314280D02*
G75*
G03*
X18322300Y-14314280I-20000J0D01*
G01*
X18347300Y-20864280D02*
G75*
G03*
X18347300Y-20864280I-20000J0D01*
G01*
X18397300Y-20089280D02*
G75*
G03*
X18397300Y-20089280I-20000J0D01*
G01*
X18822300Y-17039280D02*
G75*
G03*
X18822300Y-17039280I-20000J0D01*
G01*
X18847300Y-20239280D02*
G75*
G03*
X18847300Y-20239280I-20000J0D01*
G01*
X19197300Y-17864280D02*
G75*
G03*
X19197300Y-17864280I-20000J0D01*
G01*
X19597300Y-20639280D02*
G75*
G03*
X19597300Y-20639280I-20000J0D01*
G01*
X19847300Y-12964280D02*
G75*
G03*
X19847300Y-12964280I-20000J0D01*
G01*
X19856300Y-10624080D02*
G75*
G03*
X19856300Y-10624080I-20000J0D01*
G01*
X20172300Y-12539280D02*
G75*
G03*
X20172300Y-12539280I-20000J0D01*
G01*
X20222300Y-20639280D02*
G75*
G03*
X20222300Y-20639280I-20000J0D01*
G01*
X20247300Y-16864280D02*
G75*
G03*
X20247300Y-16864280I-20000J0D01*
G01*
X20295300Y-13412280D02*
G75*
G03*
X20295300Y-13412280I-20000J0D01*
G01*
X20670200Y-21818600D02*
G75*
G03*
X20670200Y-21818600I-20000J0D01*
G01*
X20822300Y-20889280D02*
G75*
G03*
X20822300Y-20889280I-20000J0D01*
G01*
X20932300Y-18379280D02*
G75*
G03*
X20932300Y-18379280I-20000J0D01*
G01*
X21097300Y-20114280D02*
G75*
G03*
X21097300Y-20114280I-20000J0D01*
G01*
X21472300Y-14339280D02*
G75*
G03*
X21472300Y-14339280I-20000J0D01*
G01*
X21522300Y-17064280D02*
G75*
G03*
X21522300Y-17064280I-20000J0D01*
G01*
X21572300Y-20239280D02*
G75*
G03*
X21572300Y-20239280I-20000J0D01*
G01*
X21695000Y-4950000D02*
G75*
G03*
X21695000Y-4950000I-20000J0D01*
G01*
X21922300Y-7889280D02*
G75*
G03*
X21922300Y-7889280I-20000J0D01*
G01*
X21947300Y-17839280D02*
G75*
G03*
X21947300Y-17839280I-20000J0D01*
G01*
X22497300Y-12814280D02*
G75*
G03*
X22497300Y-12814280I-20000J0D01*
G01*
X22997300Y-14039280D02*
G75*
G03*
X22997300Y-14039280I-20000J0D01*
G01*
X22997300Y-14964280D02*
G75*
G03*
X22997300Y-14964280I-20000J0D01*
G01*
X23195000Y-8375000D02*
G75*
G03*
X23195000Y-8375000I-20000J0D01*
G01*
X23345000Y-17725000D02*
G75*
G03*
X23345000Y-17725000I-20000J0D01*
G01*
X24393840Y-14091920D02*
G75*
G03*
X24393840Y-14091920I-20000J0D01*
G01*
X24840880Y-10789920D02*
G75*
G03*
X24840880Y-10789920I-20000J0D01*
G01*
X24876440Y-5821680D02*
G75*
G03*
X24876440Y-5821680I-20000J0D01*
G01*
X29095000Y-12975000D02*
G75*
G03*
X29095000Y-12975000I-20000J0D01*
G01*
X29120000Y-17725000D02*
G75*
G03*
X29120000Y-17725000I-20000J0D01*
G01*
X29145000Y-8200000D02*
G75*
G03*
X29145000Y-8200000I-20000J0D01*
G01*
D14*
X12789300Y-16584280D02*
X12789300Y-16654280D01*
X12754300Y-16619280D02*
X12824300Y-16619280D01*
X12789300Y-17009280D02*
X12789300Y-17079280D01*
X12754300Y-17044280D02*
X12824300Y-17044280D01*
X12802300Y-17475280D02*
X12802300Y-17545280D01*
X12767300Y-17510280D02*
X12837300Y-17510280D01*
X12802300Y-17983280D02*
X12802300Y-18053280D01*
X12767300Y-18018280D02*
X12837300Y-18018280D01*
X12952300Y-15621280D02*
X12952300Y-15691280D01*
X12917300Y-15656280D02*
X12987300Y-15656280D01*
X12952300Y-16129280D02*
X12952300Y-16199280D01*
X12917300Y-16164280D02*
X12987300Y-16164280D01*
X13297300Y-16584280D02*
X13297300Y-16654280D01*
X13262300Y-16619280D02*
X13332300Y-16619280D01*
X13297300Y-17009280D02*
X13297300Y-17079280D01*
X13262300Y-17044280D02*
X13332300Y-17044280D01*
X13452300Y-15625280D02*
X13452300Y-15695280D01*
X13417300Y-15660280D02*
X13487300Y-15660280D01*
X13452300Y-16133280D02*
X13452300Y-16203280D01*
X13417300Y-16168280D02*
X13487300Y-16168280D01*
X13952300Y-15625280D02*
X13952300Y-15695280D01*
X13917300Y-15660280D02*
X13987300Y-15660280D01*
X13952300Y-16133280D02*
X13952300Y-16203280D01*
X13917300Y-16168280D02*
X13987300Y-16168280D01*
X14114300Y-16584280D02*
X14114300Y-16654280D01*
X14079300Y-16619280D02*
X14149300Y-16619280D01*
X14114300Y-17004280D02*
X14114300Y-17074280D01*
X14079300Y-17039280D02*
X14149300Y-17039280D01*
X14452300Y-15625280D02*
X14452300Y-15695280D01*
X14417300Y-15660280D02*
X14487300Y-15660280D01*
X14452300Y-16133280D02*
X14452300Y-16203280D01*
X14417300Y-16168280D02*
X14487300Y-16168280D01*
X14622300Y-16584280D02*
X14622300Y-16654280D01*
X14587300Y-16619280D02*
X14657300Y-16619280D01*
X14622300Y-17004280D02*
X14622300Y-17074280D01*
X14587300Y-17039280D02*
X14657300Y-17039280D01*
X14636300Y-17491280D02*
X14636300Y-17561280D01*
X14601300Y-17526280D02*
X14671300Y-17526280D01*
X14636300Y-17999280D02*
X14636300Y-18069280D01*
X14601300Y-18034280D02*
X14671300Y-18034280D01*
X15348300Y-16579280D02*
X15348300Y-16649280D01*
X15313300Y-16614280D02*
X15383300Y-16614280D01*
X15348300Y-16999280D02*
X15348300Y-17069280D01*
X15313300Y-17034280D02*
X15383300Y-17034280D01*
X15352300Y-17500280D02*
X15352300Y-17570280D01*
X15317300Y-17535280D02*
X15387300Y-17535280D01*
X15352300Y-18008280D02*
X15352300Y-18078280D01*
X15317300Y-18043280D02*
X15387300Y-18043280D01*
X15602300Y-15620280D02*
X15602300Y-15690280D01*
X15567300Y-15655280D02*
X15637300Y-15655280D01*
X15602300Y-16128280D02*
X15602300Y-16198280D01*
X15567300Y-16163280D02*
X15637300Y-16163280D01*
X15856300Y-16579280D02*
X15856300Y-16649280D01*
X15821300Y-16614280D02*
X15891300Y-16614280D01*
X15856300Y-16999280D02*
X15856300Y-17069280D01*
X15821300Y-17034280D02*
X15891300Y-17034280D01*
X16102300Y-15620280D02*
X16102300Y-15690280D01*
X16067300Y-15655280D02*
X16137300Y-15655280D01*
X16102300Y-16128280D02*
X16102300Y-16198280D01*
X16067300Y-16163280D02*
X16137300Y-16163280D01*
X16586300Y-15620280D02*
X16586300Y-15690280D01*
X16551300Y-15655280D02*
X16621300Y-15655280D01*
X16586300Y-16128280D02*
X16586300Y-16198280D01*
X16551300Y-16163280D02*
X16621300Y-16163280D01*
X16727300Y-10050280D02*
X16727300Y-10120280D01*
X16692300Y-10085280D02*
X16762300Y-10085280D01*
X16727300Y-10558280D02*
X16727300Y-10628280D01*
X16692300Y-10593280D02*
X16762300Y-10593280D01*
X16794300Y-16584280D02*
X16794300Y-16654280D01*
X16759300Y-16619280D02*
X16829300Y-16619280D01*
X16798300Y-17004280D02*
X16798300Y-17074280D01*
X16763300Y-17039280D02*
X16833300Y-17039280D01*
X17073300Y-10104280D02*
X17073300Y-10174280D01*
X17038300Y-10139280D02*
X17108300Y-10139280D01*
X17077300Y-15620280D02*
X17077300Y-15690280D01*
X17042300Y-15655280D02*
X17112300Y-15655280D01*
X17077300Y-16128280D02*
X17077300Y-16198280D01*
X17042300Y-16163280D02*
X17112300Y-16163280D01*
X17302300Y-16584280D02*
X17302300Y-16654280D01*
X17267300Y-16619280D02*
X17337300Y-16619280D01*
X17306300Y-17004280D02*
X17306300Y-17074280D01*
X17271300Y-17039280D02*
X17341300Y-17039280D01*
X17311300Y-17495280D02*
X17311300Y-17565280D01*
X17276300Y-17530280D02*
X17346300Y-17530280D01*
X17311300Y-18003280D02*
X17311300Y-18073280D01*
X17276300Y-18038280D02*
X17346300Y-18038280D01*
X17581300Y-10104280D02*
X17581300Y-10174280D01*
X17546300Y-10139280D02*
X17616300Y-10139280D01*
X18048300Y-16579280D02*
X18048300Y-16649280D01*
X18013300Y-16614280D02*
X18083300Y-16614280D01*
X18048300Y-17004280D02*
X18048300Y-17074280D01*
X18013300Y-17039280D02*
X18083300Y-17039280D01*
X18061300Y-17495280D02*
X18061300Y-17565280D01*
X18026300Y-17530280D02*
X18096300Y-17530280D01*
X18061300Y-18003280D02*
X18061300Y-18073280D01*
X18026300Y-18038280D02*
X18096300Y-18038280D01*
X18177300Y-15629280D02*
X18177300Y-15699280D01*
X18142300Y-15664280D02*
X18212300Y-15664280D01*
X18177300Y-16137280D02*
X18177300Y-16207280D01*
X18142300Y-16172280D02*
X18212300Y-16172280D01*
X18556300Y-16579280D02*
X18556300Y-16649280D01*
X18521300Y-16614280D02*
X18591300Y-16614280D01*
X18556300Y-17004280D02*
X18556300Y-17074280D01*
X18521300Y-17039280D02*
X18591300Y-17039280D01*
X18727300Y-15629280D02*
X18727300Y-15699280D01*
X18692300Y-15664280D02*
X18762300Y-15664280D01*
X18727300Y-16137280D02*
X18727300Y-16207280D01*
X18692300Y-16172280D02*
X18762300Y-16172280D01*
X19177300Y-15629280D02*
X19177300Y-15699280D01*
X19142300Y-15664280D02*
X19212300Y-15664280D01*
X19177300Y-16137280D02*
X19177300Y-16207280D01*
X19142300Y-16172280D02*
X19212300Y-16172280D01*
X19323300Y-16579280D02*
X19323300Y-16649280D01*
X19288300Y-16614280D02*
X19358300Y-16614280D01*
X19323300Y-17004280D02*
X19323300Y-17074280D01*
X19288300Y-17039280D02*
X19358300Y-17039280D01*
X19427300Y-10004280D02*
X19427300Y-10074280D01*
X19392300Y-10039280D02*
X19462300Y-10039280D01*
X19427300Y-10512280D02*
X19427300Y-10582280D01*
X19392300Y-10547280D02*
X19462300Y-10547280D01*
X19677300Y-15625280D02*
X19677300Y-15695280D01*
X19642300Y-15660280D02*
X19712300Y-15660280D01*
X19677300Y-16133280D02*
X19677300Y-16203280D01*
X19642300Y-16168280D02*
X19712300Y-16168280D01*
X19827300Y-17496280D02*
X19827300Y-17566280D01*
X19792300Y-17531280D02*
X19862300Y-17531280D01*
X19827300Y-18004280D02*
X19827300Y-18074280D01*
X19792300Y-18039280D02*
X19862300Y-18039280D01*
X19831300Y-16579280D02*
X19831300Y-16649280D01*
X19796300Y-16614280D02*
X19866300Y-16614280D01*
X19831300Y-17004280D02*
X19831300Y-17074280D01*
X19796300Y-17039280D02*
X19866300Y-17039280D01*
X20698300Y-16579280D02*
X20698300Y-16649280D01*
X20663300Y-16614280D02*
X20733300Y-16614280D01*
X20698300Y-17004280D02*
X20698300Y-17074280D01*
X20663300Y-17039280D02*
X20733300Y-17039280D01*
X20702300Y-17508280D02*
X20702300Y-17578280D01*
X20667300Y-17543280D02*
X20737300Y-17543280D01*
X20702300Y-18016280D02*
X20702300Y-18086280D01*
X20667300Y-18051280D02*
X20737300Y-18051280D01*
X20902300Y-15621280D02*
X20902300Y-15691280D01*
X20867300Y-15656280D02*
X20937300Y-15656280D01*
X20902300Y-16129280D02*
X20902300Y-16199280D01*
X20867300Y-16164280D02*
X20937300Y-16164280D01*
X21206300Y-16579280D02*
X21206300Y-16649280D01*
X21171300Y-16614280D02*
X21241300Y-16614280D01*
X21206300Y-17004280D02*
X21206300Y-17074280D01*
X21171300Y-17039280D02*
X21241300Y-17039280D01*
X21402300Y-15621280D02*
X21402300Y-15691280D01*
X21367300Y-15656280D02*
X21437300Y-15656280D01*
X21402300Y-16129280D02*
X21402300Y-16199280D01*
X21367300Y-16164280D02*
X21437300Y-16164280D01*
X21902300Y-15621280D02*
X21902300Y-15691280D01*
X21867300Y-15656280D02*
X21937300Y-15656280D01*
X21902300Y-16129280D02*
X21902300Y-16199280D01*
X21867300Y-16164280D02*
X21937300Y-16164280D01*
X22094300Y-17004280D02*
X22094300Y-17074280D01*
X22059300Y-17039280D02*
X22129300Y-17039280D01*
X22098300Y-16579280D02*
X22098300Y-16649280D01*
X22063300Y-16614280D02*
X22133300Y-16614280D01*
X22402300Y-15625280D02*
X22402300Y-15695280D01*
X22367300Y-15660280D02*
X22437300Y-15660280D01*
X22402300Y-16133280D02*
X22402300Y-16203280D01*
X22367300Y-16168280D02*
X22437300Y-16168280D01*
X22602300Y-17004280D02*
X22602300Y-17074280D01*
X22567300Y-17039280D02*
X22637300Y-17039280D01*
X22602300Y-17504280D02*
X22602300Y-17574280D01*
X22567300Y-17539280D02*
X22637300Y-17539280D01*
X22602300Y-18012280D02*
X22602300Y-18082280D01*
X22567300Y-18047280D02*
X22637300Y-18047280D01*
X22606300Y-16579280D02*
X22606300Y-16649280D01*
X22571300Y-16614280D02*
X22641300Y-16614280D01*
D15*
X10716434Y-3635084D02*
X10716434Y-3578515D01*
X10659865Y-3578515D01*
X10659865Y-3635084D01*
X10716434Y-3635084D01*
X10916435Y-3635084D02*
X10916435Y-3578515D01*
X10859866Y-3578515D01*
X10859866Y-3635084D01*
X10916435Y-3635084D01*
X11116434Y-3635084D02*
X11116434Y-3578515D01*
X11059865Y-3578515D01*
X11059865Y-3635084D01*
X11116434Y-3635084D01*
X11316434Y-3635084D02*
X11316434Y-3578515D01*
X11259865Y-3578515D01*
X11259865Y-3635084D01*
X11316434Y-3635084D01*
X11516434Y-3635084D02*
X11516434Y-3578515D01*
X11459865Y-3578515D01*
X11459865Y-3635084D01*
X11516434Y-3635084D01*
X11716434Y-3635084D02*
X11716434Y-3578515D01*
X11659865Y-3578515D01*
X11659865Y-3635084D01*
X11716434Y-3635084D01*
X11916434Y-3635084D02*
X11916434Y-3578515D01*
X11859865Y-3578515D01*
X11859865Y-3635084D01*
X11916434Y-3635084D01*
X12116434Y-3635084D02*
X12116434Y-3578515D01*
X12059865Y-3578515D01*
X12059865Y-3635084D01*
X12116434Y-3635084D01*
X12316434Y-3635084D02*
X12316434Y-3578515D01*
X12259865Y-3578515D01*
X12259865Y-3635084D01*
X12316434Y-3635084D01*
X12516434Y-3635084D02*
X12516434Y-3578515D01*
X12459865Y-3578515D01*
X12459865Y-3635084D01*
X12516434Y-3635084D01*
X12716434Y-3635084D02*
X12716434Y-3578515D01*
X12659865Y-3578515D01*
X12659865Y-3635084D01*
X12716434Y-3635084D01*
X12863084Y-11194714D02*
X12863084Y-11138145D01*
X12806515Y-11138145D01*
X12806515Y-11194714D01*
X12863084Y-11194714D01*
X12863084Y-11394714D02*
X12863084Y-11338145D01*
X12806515Y-11338145D01*
X12806515Y-11394714D01*
X12863084Y-11394714D01*
X12916434Y-3635084D02*
X12916434Y-3578515D01*
X12859865Y-3578515D01*
X12859865Y-3635084D01*
X12916434Y-3635084D01*
X13518584Y-11392564D02*
X13518584Y-11335995D01*
X13462015Y-11335995D01*
X13462015Y-11392564D01*
X13518584Y-11392564D01*
X13955584Y-20267565D02*
X13955584Y-20210996D01*
X13899015Y-20210996D01*
X13899015Y-20267565D01*
X13955584Y-20267565D01*
X14055584Y-17617565D02*
X14055584Y-17560996D01*
X13999015Y-17560996D01*
X13999015Y-17617565D01*
X14055584Y-17617565D01*
X14205584Y-20267565D02*
X14205584Y-20210996D01*
X14149015Y-20210996D01*
X14149015Y-20267565D01*
X14205584Y-20267565D01*
X14280584Y-11392564D02*
X14280584Y-11335995D01*
X14224015Y-11335995D01*
X14224015Y-11392564D01*
X14280584Y-11392564D01*
X14305584Y-17617565D02*
X14305584Y-17560996D01*
X14249015Y-17560996D01*
X14249015Y-17617565D01*
X14305584Y-17617565D01*
X16205584Y-11467564D02*
X16205584Y-11410995D01*
X16149015Y-11410995D01*
X16149015Y-11467564D01*
X16205584Y-11467564D01*
X16555584Y-11467564D02*
X16555584Y-11410995D01*
X16499015Y-11410995D01*
X16499015Y-11467564D01*
X16555584Y-11467564D01*
X16580584Y-20267565D02*
X16580584Y-20210996D01*
X16524015Y-20210996D01*
X16524015Y-20267565D01*
X16580584Y-20267565D01*
X16680584Y-17617565D02*
X16680584Y-17560996D01*
X16624015Y-17560996D01*
X16624015Y-17617565D01*
X16680584Y-17617565D01*
X16830585Y-20267565D02*
X16830585Y-20210996D01*
X16774015Y-20210996D01*
X16774015Y-20267565D01*
X16830585Y-20267565D01*
X16930585Y-17617565D02*
X16930585Y-17560996D01*
X16874016Y-17560996D01*
X16874016Y-17617565D01*
X16930585Y-17617565D01*
X19105585Y-20267565D02*
X19105585Y-20210996D01*
X19049016Y-20210996D01*
X19049016Y-20267565D01*
X19105585Y-20267565D01*
X19205585Y-17617565D02*
X19205585Y-17560996D01*
X19149016Y-17560996D01*
X19149016Y-17617565D01*
X19205585Y-17617565D01*
X19355585Y-20267565D02*
X19355585Y-20210996D01*
X19299016Y-20210996D01*
X19299016Y-20267565D01*
X19355585Y-20267565D01*
X19455585Y-17617565D02*
X19455585Y-17560996D01*
X19399016Y-17560996D01*
X19399016Y-17617565D01*
X19455585Y-17617565D01*
X21398085Y-11390415D02*
X21398085Y-11333846D01*
X21341516Y-11333846D01*
X21341516Y-11390415D01*
X21398085Y-11390415D01*
X21805585Y-20267565D02*
X21805585Y-20210996D01*
X21749016Y-20210996D01*
X21749016Y-20267565D01*
X21805585Y-20267565D01*
X21955585Y-17625565D02*
X21955585Y-17568996D01*
X21899016Y-17568996D01*
X21899016Y-17625565D01*
X21955585Y-17625565D01*
X22055585Y-20267565D02*
X22055585Y-20210996D01*
X21999016Y-20210996D01*
X21999016Y-20267565D01*
X22055585Y-20267565D01*
X22160085Y-11390415D02*
X22160085Y-11333846D01*
X22103516Y-11333846D01*
X22103516Y-11390415D01*
X22160085Y-11390415D01*
X22205585Y-17625565D02*
X22205585Y-17568996D01*
X22149016Y-17568996D01*
X22149016Y-17625565D01*
X22205585Y-17625565D01*
X22780584Y-11192564D02*
X22780584Y-11135996D01*
X22724015Y-11135996D01*
X22724015Y-11192564D01*
X22780584Y-11192564D01*
X22780584Y-11392565D02*
X22780584Y-11335996D01*
X22724015Y-11335996D01*
X22724015Y-11392565D01*
X22780584Y-11392565D01*
X23287284Y-3633484D02*
X23287284Y-3576915D01*
X23230715Y-3576915D01*
X23230715Y-3633484D01*
X23287284Y-3633484D01*
X23487285Y-3633484D02*
X23487285Y-3576915D01*
X23430716Y-3576915D01*
X23430716Y-3633484D01*
X23487285Y-3633484D01*
X23687284Y-3633484D02*
X23687284Y-3576915D01*
X23630715Y-3576915D01*
X23630715Y-3633484D01*
X23687284Y-3633484D01*
X23887285Y-3633484D02*
X23887285Y-3576915D01*
X23830716Y-3576915D01*
X23830716Y-3633484D01*
X23887285Y-3633484D01*
X24087284Y-3633484D02*
X24087284Y-3576915D01*
X24030715Y-3576915D01*
X24030715Y-3633484D01*
X24087284Y-3633484D01*
X24287284Y-3633484D02*
X24287284Y-3576915D01*
X24230715Y-3576915D01*
X24230715Y-3633484D01*
X24287284Y-3633484D01*
X24487284Y-3633484D02*
X24487284Y-3576915D01*
X24430715Y-3576915D01*
X24430715Y-3633484D01*
X24487284Y-3633484D01*
X24687284Y-3633484D02*
X24687284Y-3576915D01*
X24630715Y-3576915D01*
X24630715Y-3633484D01*
X24687284Y-3633484D01*
X24887285Y-3633484D02*
X24887285Y-3576915D01*
X24830716Y-3576915D01*
X24830716Y-3633484D01*
X24887285Y-3633484D01*
X25087284Y-3633484D02*
X25087284Y-3576915D01*
X25030715Y-3576915D01*
X25030715Y-3633484D01*
X25087284Y-3633484D01*
X25287285Y-3633484D02*
X25287285Y-3576915D01*
X25230716Y-3576915D01*
X25230716Y-3633484D01*
X25287285Y-3633484D01*
X25487284Y-3633484D02*
X25487284Y-3576915D01*
X25430715Y-3576915D01*
X25430715Y-3633484D01*
X25487284Y-3633484D01*
D16*
X13380300Y-18145280D02*
X13425300Y-18100280D01*
X13380300Y-18055280D01*
X13335300Y-18100280D01*
X13380300Y-18145280D01*
X13380300Y-18399280D02*
X13425300Y-18354280D01*
X13380300Y-18309280D01*
X13335300Y-18354280D01*
X13380300Y-18399280D01*
X13380300Y-18653280D02*
X13425300Y-18608280D01*
X13380300Y-18563280D01*
X13335300Y-18608280D01*
X13380300Y-18653280D01*
X13380300Y-18907280D02*
X13425300Y-18862280D01*
X13380300Y-18817280D01*
X13335300Y-18862280D01*
X13380300Y-18907280D01*
X13380300Y-19161280D02*
X13425300Y-19116280D01*
X13380300Y-19071280D01*
X13335300Y-19116280D01*
X13380300Y-19161280D01*
X13380300Y-19415280D02*
X13425300Y-19370280D01*
X13380300Y-19325280D01*
X13335300Y-19370280D01*
X13380300Y-19415280D01*
X13380300Y-19669280D02*
X13425300Y-19624280D01*
X13380300Y-19579280D01*
X13335300Y-19624280D01*
X13380300Y-19669280D01*
X13380300Y-19923280D02*
X13425300Y-19878280D01*
X13380300Y-19833280D01*
X13335300Y-19878280D01*
X13380300Y-19923280D01*
X14174300Y-18145280D02*
X14219300Y-18100280D01*
X14174300Y-18055280D01*
X14129300Y-18100280D01*
X14174300Y-18145280D01*
X14174300Y-18399280D02*
X14219300Y-18354280D01*
X14174300Y-18309280D01*
X14129300Y-18354280D01*
X14174300Y-18399280D01*
X14174300Y-18653280D02*
X14219300Y-18608280D01*
X14174300Y-18563280D01*
X14129300Y-18608280D01*
X14174300Y-18653280D01*
X14174300Y-18907280D02*
X14219300Y-18862280D01*
X14174300Y-18817280D01*
X14129300Y-18862280D01*
X14174300Y-18907280D01*
X14174300Y-19161280D02*
X14219300Y-19116280D01*
X14174300Y-19071280D01*
X14129300Y-19116280D01*
X14174300Y-19161280D01*
X14174300Y-19415280D02*
X14219300Y-19370280D01*
X14174300Y-19325280D01*
X14129300Y-19370280D01*
X14174300Y-19415280D01*
X14174300Y-19669280D02*
X14219300Y-19624280D01*
X14174300Y-19579280D01*
X14129300Y-19624280D01*
X14174300Y-19669280D01*
X14174300Y-19923280D02*
X14219300Y-19878280D01*
X14174300Y-19833280D01*
X14129300Y-19878280D01*
X14174300Y-19923280D01*
X14977300Y-11156780D02*
X15022300Y-11111780D01*
X14977300Y-11066780D01*
X14932300Y-11111780D01*
X14977300Y-11156780D01*
X14977300Y-11410780D02*
X15022300Y-11365780D01*
X14977300Y-11320780D01*
X14932300Y-11365780D01*
X14977300Y-11410780D01*
X16005300Y-18145280D02*
X16050300Y-18100280D01*
X16005300Y-18055280D01*
X15960300Y-18100280D01*
X16005300Y-18145280D01*
X16005300Y-18399280D02*
X16050300Y-18354280D01*
X16005300Y-18309280D01*
X15960300Y-18354280D01*
X16005300Y-18399280D01*
X16005300Y-18653280D02*
X16050300Y-18608280D01*
X16005300Y-18563280D01*
X15960300Y-18608280D01*
X16005300Y-18653280D01*
X16005300Y-18907280D02*
X16050300Y-18862280D01*
X16005300Y-18817280D01*
X15960300Y-18862280D01*
X16005300Y-18907280D01*
X16005300Y-19161280D02*
X16050300Y-19116280D01*
X16005300Y-19071280D01*
X15960300Y-19116280D01*
X16005300Y-19161280D01*
X16005300Y-19415280D02*
X16050300Y-19370280D01*
X16005300Y-19325280D01*
X15960300Y-19370280D01*
X16005300Y-19415280D01*
X16005300Y-19669280D02*
X16050300Y-19624280D01*
X16005300Y-19579280D01*
X15960300Y-19624280D01*
X16005300Y-19669280D01*
X16005300Y-19923280D02*
X16050300Y-19878280D01*
X16005300Y-19833280D01*
X15960300Y-19878280D01*
X16005300Y-19923280D01*
X16799300Y-18145280D02*
X16844300Y-18100280D01*
X16799300Y-18055280D01*
X16754300Y-18100280D01*
X16799300Y-18145280D01*
X16799300Y-18399280D02*
X16844300Y-18354280D01*
X16799300Y-18309280D01*
X16754300Y-18354280D01*
X16799300Y-18399280D01*
X16799300Y-18653280D02*
X16844300Y-18608280D01*
X16799300Y-18563280D01*
X16754300Y-18608280D01*
X16799300Y-18653280D01*
X16799300Y-18907280D02*
X16844300Y-18862280D01*
X16799300Y-18817280D01*
X16754300Y-18862280D01*
X16799300Y-18907280D01*
X16799300Y-19161280D02*
X16844300Y-19116280D01*
X16799300Y-19071280D01*
X16754300Y-19116280D01*
X16799300Y-19161280D01*
X16799300Y-19415280D02*
X16844300Y-19370280D01*
X16799300Y-19325280D01*
X16754300Y-19370280D01*
X16799300Y-19415280D01*
X16799300Y-19669280D02*
X16844300Y-19624280D01*
X16799300Y-19579280D01*
X16754300Y-19624280D01*
X16799300Y-19669280D01*
X16799300Y-19923280D02*
X16844300Y-19878280D01*
X16799300Y-19833280D01*
X16754300Y-19878280D01*
X16799300Y-19923280D01*
X18530300Y-18145280D02*
X18575300Y-18100280D01*
X18530300Y-18055280D01*
X18485300Y-18100280D01*
X18530300Y-18145280D01*
X18530300Y-18399280D02*
X18575300Y-18354280D01*
X18530300Y-18309280D01*
X18485300Y-18354280D01*
X18530300Y-18399280D01*
X18530300Y-18653280D02*
X18575300Y-18608280D01*
X18530300Y-18563280D01*
X18485300Y-18608280D01*
X18530300Y-18653280D01*
X18530300Y-18907280D02*
X18575300Y-18862280D01*
X18530300Y-18817280D01*
X18485300Y-18862280D01*
X18530300Y-18907280D01*
X18530300Y-19161280D02*
X18575300Y-19116280D01*
X18530300Y-19071280D01*
X18485300Y-19116280D01*
X18530300Y-19161280D01*
X18530300Y-19415280D02*
X18575300Y-19370280D01*
X18530300Y-19325280D01*
X18485300Y-19370280D01*
X18530300Y-19415280D01*
X18530300Y-19669280D02*
X18575300Y-19624280D01*
X18530300Y-19579280D01*
X18485300Y-19624280D01*
X18530300Y-19669280D01*
X18530300Y-19923280D02*
X18575300Y-19878280D01*
X18530300Y-19833280D01*
X18485300Y-19878280D01*
X18530300Y-19923280D01*
X18627300Y-10384280D02*
X18672300Y-10339280D01*
X18627300Y-10294280D01*
X18582300Y-10339280D01*
X18627300Y-10384280D01*
X18881300Y-10384280D02*
X18926300Y-10339280D01*
X18881300Y-10294280D01*
X18836300Y-10339280D01*
X18881300Y-10384280D01*
X19324300Y-18145280D02*
X19369300Y-18100280D01*
X19324300Y-18055280D01*
X19279300Y-18100280D01*
X19324300Y-18145280D01*
X19324300Y-18399280D02*
X19369300Y-18354280D01*
X19324300Y-18309280D01*
X19279300Y-18354280D01*
X19324300Y-18399280D01*
X19324300Y-18653280D02*
X19369300Y-18608280D01*
X19324300Y-18563280D01*
X19279300Y-18608280D01*
X19324300Y-18653280D01*
X19324300Y-18907280D02*
X19369300Y-18862280D01*
X19324300Y-18817280D01*
X19279300Y-18862280D01*
X19324300Y-18907280D01*
X19324300Y-19161280D02*
X19369300Y-19116280D01*
X19324300Y-19071280D01*
X19279300Y-19116280D01*
X19324300Y-19161280D01*
X19324300Y-19415280D02*
X19369300Y-19370280D01*
X19324300Y-19325280D01*
X19279300Y-19370280D01*
X19324300Y-19415280D01*
X19324300Y-19669280D02*
X19369300Y-19624280D01*
X19324300Y-19579280D01*
X19279300Y-19624280D01*
X19324300Y-19669280D01*
X19324300Y-19923280D02*
X19369300Y-19878280D01*
X19324300Y-19833280D01*
X19279300Y-19878280D01*
X19324300Y-19923280D01*
X20619800Y-11157130D02*
X20664800Y-11112130D01*
X20619800Y-11067130D01*
X20574800Y-11112130D01*
X20619800Y-11157130D01*
X20619800Y-11411130D02*
X20664800Y-11366130D01*
X20619800Y-11321130D01*
X20574800Y-11366130D01*
X20619800Y-11411130D01*
X21230300Y-18170280D02*
X21275300Y-18125280D01*
X21230300Y-18080280D01*
X21185300Y-18125280D01*
X21230300Y-18170280D01*
X21230300Y-18424280D02*
X21275300Y-18379280D01*
X21230300Y-18334280D01*
X21185300Y-18379280D01*
X21230300Y-18424280D01*
X21230300Y-18678280D02*
X21275300Y-18633280D01*
X21230300Y-18588280D01*
X21185300Y-18633280D01*
X21230300Y-18678280D01*
X21230300Y-18932280D02*
X21275300Y-18887280D01*
X21230300Y-18842280D01*
X21185300Y-18887280D01*
X21230300Y-18932280D01*
X21230300Y-19186280D02*
X21275300Y-19141280D01*
X21230300Y-19096280D01*
X21185300Y-19141280D01*
X21230300Y-19186280D01*
X21230300Y-19440280D02*
X21275300Y-19395280D01*
X21230300Y-19350280D01*
X21185300Y-19395280D01*
X21230300Y-19440280D01*
X21230300Y-19694280D02*
X21275300Y-19649280D01*
X21230300Y-19604280D01*
X21185300Y-19649280D01*
X21230300Y-19694280D01*
X21230300Y-19948280D02*
X21275300Y-19903280D01*
X21230300Y-19858280D01*
X21185300Y-19903280D01*
X21230300Y-19948280D01*
X22024300Y-18170280D02*
X22069300Y-18125280D01*
X22024300Y-18080280D01*
X21979300Y-18125280D01*
X22024300Y-18170280D01*
X22024300Y-18424280D02*
X22069300Y-18379280D01*
X22024300Y-18334280D01*
X21979300Y-18379280D01*
X22024300Y-18424280D01*
X22024300Y-18678280D02*
X22069300Y-18633280D01*
X22024300Y-18588280D01*
X21979300Y-18633280D01*
X22024300Y-18678280D01*
X22024300Y-18932280D02*
X22069300Y-18887280D01*
X22024300Y-18842280D01*
X21979300Y-18887280D01*
X22024300Y-18932280D01*
X22024300Y-19186280D02*
X22069300Y-19141280D01*
X22024300Y-19096280D01*
X21979300Y-19141280D01*
X22024300Y-19186280D01*
X22024300Y-19440280D02*
X22069300Y-19395280D01*
X22024300Y-19350280D01*
X21979300Y-19395280D01*
X22024300Y-19440280D01*
X22024300Y-19694280D02*
X22069300Y-19649280D01*
X22024300Y-19604280D01*
X21979300Y-19649280D01*
X22024300Y-19694280D01*
X22024300Y-19948280D02*
X22069300Y-19903280D01*
X22024300Y-19858280D01*
X21979300Y-19903280D01*
X22024300Y-19948280D01*
D17*
X15793300Y-21294280D02*
X15893300Y-21394280D01*
X15893300Y-21294280D02*
X15793300Y-21394280D01*
X15893300Y-21344280D02*
G75*
G03*
X15893300Y-21344280I-50000J0D01*
G01*
X16047300Y-21294280D02*
X16147300Y-21394280D01*
X16147300Y-21294280D02*
X16047300Y-21394280D01*
X16147300Y-21344280D02*
G75*
G03*
X16147300Y-21344280I-50000J0D01*
G01*
X16301300Y-21294280D02*
X16401300Y-21394280D01*
X16401300Y-21294280D02*
X16301300Y-21394280D01*
X16401300Y-21344280D02*
G75*
G03*
X16401300Y-21344280I-50000J0D01*
G01*
X16555300Y-21294280D02*
X16655300Y-21394280D01*
X16655300Y-21294280D02*
X16555300Y-21394280D01*
X16655300Y-21344280D02*
G75*
G03*
X16655300Y-21344280I-50000J0D01*
G01*
X16809300Y-21294280D02*
X16909300Y-21394280D01*
X16909300Y-21294280D02*
X16809300Y-21394280D01*
X16909300Y-21344280D02*
G75*
G03*
X16909300Y-21344280I-50000J0D01*
G01*
X17063300Y-21294280D02*
X17163300Y-21394280D01*
X17163300Y-21294280D02*
X17063300Y-21394280D01*
X17163300Y-21344280D02*
G75*
G03*
X17163300Y-21344280I-50000J0D01*
G01*
X17096300Y-10589280D02*
X17196300Y-10689280D01*
X17196300Y-10589280D02*
X17096300Y-10689280D01*
X17196300Y-10639280D02*
G75*
G03*
X17196300Y-10639280I-50000J0D01*
G01*
X17317300Y-21294280D02*
X17417300Y-21394280D01*
X17417300Y-21294280D02*
X17317300Y-21394280D01*
X17417300Y-21344280D02*
G75*
G03*
X17417300Y-21344280I-50000J0D01*
G01*
X17571300Y-21294280D02*
X17671300Y-21394280D01*
X17671300Y-21294280D02*
X17571300Y-21394280D01*
X17671300Y-21344280D02*
G75*
G03*
X17671300Y-21344280I-50000J0D01*
G01*
X17825300Y-21294280D02*
X17925300Y-21394280D01*
X17925300Y-21294280D02*
X17825300Y-21394280D01*
X17925300Y-21344280D02*
G75*
G03*
X17925300Y-21344280I-50000J0D01*
G01*
X17858300Y-10589280D02*
X17958300Y-10689280D01*
X17958300Y-10589280D02*
X17858300Y-10689280D01*
X17958300Y-10639280D02*
G75*
G03*
X17958300Y-10639280I-50000J0D01*
G01*
X18079300Y-21294280D02*
X18179300Y-21394280D01*
X18179300Y-21294280D02*
X18079300Y-21394280D01*
X18179300Y-21344280D02*
G75*
G03*
X18179300Y-21344280I-50000J0D01*
G01*
X18333300Y-21294280D02*
X18433300Y-21394280D01*
X18433300Y-21294280D02*
X18333300Y-21394280D01*
X18433300Y-21344280D02*
G75*
G03*
X18433300Y-21344280I-50000J0D01*
G01*
X18352300Y-12689280D02*
X18452300Y-12789280D01*
X18452300Y-12689280D02*
X18352300Y-12789280D01*
X18452300Y-12739280D02*
G75*
G03*
X18452300Y-12739280I-50000J0D01*
G01*
X18587300Y-21294280D02*
X18687300Y-21394280D01*
X18687300Y-21294280D02*
X18587300Y-21394280D01*
X18687300Y-21344280D02*
G75*
G03*
X18687300Y-21344280I-50000J0D01*
G01*
X18841300Y-21294280D02*
X18941300Y-21394280D01*
X18941300Y-21294280D02*
X18841300Y-21394280D01*
X18941300Y-21344280D02*
G75*
G03*
X18941300Y-21344280I-50000J0D01*
G01*
X19095300Y-21294280D02*
X19195300Y-21394280D01*
X19195300Y-21294280D02*
X19095300Y-21394280D01*
X19195300Y-21344280D02*
G75*
G03*
X19195300Y-21344280I-50000J0D01*
G01*
X19102300Y-12689280D02*
X19202300Y-12789280D01*
X19202300Y-12689280D02*
X19102300Y-12789280D01*
X19202300Y-12739280D02*
G75*
G03*
X19202300Y-12739280I-50000J0D01*
G01*
X19349300Y-21294280D02*
X19449300Y-21394280D01*
X19449300Y-21294280D02*
X19349300Y-21394280D01*
X19449300Y-21344280D02*
G75*
G03*
X19449300Y-21344280I-50000J0D01*
G01*
X19603300Y-21294280D02*
X19703300Y-21394280D01*
X19703300Y-21294280D02*
X19603300Y-21394280D01*
X19703300Y-21344280D02*
G75*
G03*
X19703300Y-21344280I-50000J0D01*
G01*
D18*
X15568900Y-8693480D02*
X15670900Y-8795480D01*
X15670900Y-8693480D02*
X15568900Y-8795480D01*
X15619900Y-8693480D02*
X15619900Y-8795480D01*
X15568900Y-8744480D02*
X15670900Y-8744480D01*
X15568900Y-9201480D02*
X15670900Y-9303480D01*
X15670900Y-9201480D02*
X15568900Y-9303480D01*
X15619900Y-9201480D02*
X15619900Y-9303480D01*
X15568900Y-9252480D02*
X15670900Y-9252480D01*
X15721300Y-4172280D02*
X15823300Y-4274280D01*
X15823300Y-4172280D02*
X15721300Y-4274280D01*
X15772300Y-4172280D02*
X15772300Y-4274280D01*
X15721300Y-4223280D02*
X15823300Y-4223280D01*
X15721300Y-4425151D02*
X15823300Y-4527151D01*
X15823300Y-4425151D02*
X15721300Y-4527151D01*
X15772300Y-4425151D02*
X15772300Y-4527151D01*
X15721300Y-4476151D02*
X15823300Y-4476151D01*
X15721300Y-4678022D02*
X15823300Y-4780022D01*
X15823300Y-4678022D02*
X15721300Y-4780022D01*
X15772300Y-4678022D02*
X15772300Y-4780022D01*
X15721300Y-4729022D02*
X15823300Y-4729022D01*
X15721300Y-4930893D02*
X15823300Y-5032893D01*
X15823300Y-4930893D02*
X15721300Y-5032893D01*
X15772300Y-4930893D02*
X15772300Y-5032893D01*
X15721300Y-4981893D02*
X15823300Y-4981893D01*
X15721300Y-5183764D02*
X15823300Y-5285764D01*
X15823300Y-5183764D02*
X15721300Y-5285764D01*
X15772300Y-5183764D02*
X15772300Y-5285764D01*
X15721300Y-5234764D02*
X15823300Y-5234764D01*
X15721300Y-5436635D02*
X15823300Y-5538635D01*
X15823300Y-5436635D02*
X15721300Y-5538635D01*
X15772300Y-5436635D02*
X15772300Y-5538635D01*
X15721300Y-5487635D02*
X15823300Y-5487635D01*
X15721300Y-5689505D02*
X15823300Y-5791505D01*
X15823300Y-5689505D02*
X15721300Y-5791505D01*
X15772300Y-5689505D02*
X15772300Y-5791505D01*
X15721300Y-5740505D02*
X15823300Y-5740505D01*
X15721300Y-5942376D02*
X15823300Y-6044376D01*
X15823300Y-5942376D02*
X15721300Y-6044376D01*
X15772300Y-5942376D02*
X15772300Y-6044376D01*
X15721300Y-5993376D02*
X15823300Y-5993376D01*
X15721300Y-6195247D02*
X15823300Y-6297247D01*
X15823300Y-6195247D02*
X15721300Y-6297247D01*
X15772300Y-6195247D02*
X15772300Y-6297247D01*
X15721300Y-6246247D02*
X15823300Y-6246247D01*
X15721300Y-6448118D02*
X15823300Y-6550118D01*
X15823300Y-6448118D02*
X15721300Y-6550118D01*
X15772300Y-6448118D02*
X15772300Y-6550118D01*
X15721300Y-6499118D02*
X15823300Y-6499118D01*
X15721300Y-6700989D02*
X15823300Y-6802989D01*
X15823300Y-6700989D02*
X15721300Y-6802989D01*
X15772300Y-6700989D02*
X15772300Y-6802989D01*
X15721300Y-6751989D02*
X15823300Y-6751989D01*
X15721300Y-6953860D02*
X15823300Y-7055860D01*
X15823300Y-6953860D02*
X15721300Y-7055860D01*
X15772300Y-6953860D02*
X15772300Y-7055860D01*
X15721300Y-7004860D02*
X15823300Y-7004860D01*
X15721300Y-7206731D02*
X15823300Y-7308731D01*
X15823300Y-7206731D02*
X15721300Y-7308731D01*
X15772300Y-7206731D02*
X15772300Y-7308731D01*
X15721300Y-7257731D02*
X15823300Y-7257731D01*
X15721300Y-7459602D02*
X15823300Y-7561602D01*
X15823300Y-7459602D02*
X15721300Y-7561602D01*
X15772300Y-7459602D02*
X15772300Y-7561602D01*
X15721300Y-7510602D02*
X15823300Y-7510602D01*
X15721300Y-7712473D02*
X15823300Y-7814473D01*
X15823300Y-7712473D02*
X15721300Y-7814473D01*
X15772300Y-7712473D02*
X15772300Y-7814473D01*
X15721300Y-7763473D02*
X15823300Y-7763473D01*
X15721300Y-7965344D02*
X15823300Y-8067344D01*
X15823300Y-7965344D02*
X15721300Y-8067344D01*
X15772300Y-7965344D02*
X15772300Y-8067344D01*
X15721300Y-8016344D02*
X15823300Y-8016344D01*
X15975300Y-4172280D02*
X16077300Y-4274280D01*
X16077300Y-4172280D02*
X15975300Y-4274280D01*
X16026300Y-4172280D02*
X16026300Y-4274280D01*
X15975300Y-4223280D02*
X16077300Y-4223280D01*
X15975300Y-4425151D02*
X16077300Y-4527151D01*
X16077300Y-4425151D02*
X15975300Y-4527151D01*
X16026300Y-4425151D02*
X16026300Y-4527151D01*
X15975300Y-4476151D02*
X16077300Y-4476151D01*
X15975300Y-4678022D02*
X16077300Y-4780022D01*
X16077300Y-4678022D02*
X15975300Y-4780022D01*
X16026300Y-4678022D02*
X16026300Y-4780022D01*
X15975300Y-4729022D02*
X16077300Y-4729022D01*
X15975300Y-4930893D02*
X16077300Y-5032893D01*
X16077300Y-4930893D02*
X15975300Y-5032893D01*
X16026300Y-4930893D02*
X16026300Y-5032893D01*
X15975300Y-4981893D02*
X16077300Y-4981893D01*
X15975300Y-5183764D02*
X16077300Y-5285764D01*
X16077300Y-5183764D02*
X15975300Y-5285764D01*
X16026300Y-5183764D02*
X16026300Y-5285764D01*
X15975300Y-5234764D02*
X16077300Y-5234764D01*
X15975300Y-5436635D02*
X16077300Y-5538635D01*
X16077300Y-5436635D02*
X15975300Y-5538635D01*
X16026300Y-5436635D02*
X16026300Y-5538635D01*
X15975300Y-5487635D02*
X16077300Y-5487635D01*
X15975300Y-5689505D02*
X16077300Y-5791505D01*
X16077300Y-5689505D02*
X15975300Y-5791505D01*
X16026300Y-5689505D02*
X16026300Y-5791505D01*
X15975300Y-5740505D02*
X16077300Y-5740505D01*
X15975300Y-5942376D02*
X16077300Y-6044376D01*
X16077300Y-5942376D02*
X15975300Y-6044376D01*
X16026300Y-5942376D02*
X16026300Y-6044376D01*
X15975300Y-5993376D02*
X16077300Y-5993376D01*
X15975300Y-6195247D02*
X16077300Y-6297247D01*
X16077300Y-6195247D02*
X15975300Y-6297247D01*
X16026300Y-6195247D02*
X16026300Y-6297247D01*
X15975300Y-6246247D02*
X16077300Y-6246247D01*
X15975300Y-6448118D02*
X16077300Y-6550118D01*
X16077300Y-6448118D02*
X15975300Y-6550118D01*
X16026300Y-6448118D02*
X16026300Y-6550118D01*
X15975300Y-6499118D02*
X16077300Y-6499118D01*
X15975300Y-6700989D02*
X16077300Y-6802989D01*
X16077300Y-6700989D02*
X15975300Y-6802989D01*
X16026300Y-6700989D02*
X16026300Y-6802989D01*
X15975300Y-6751989D02*
X16077300Y-6751989D01*
X15975300Y-6953860D02*
X16077300Y-7055860D01*
X16077300Y-6953860D02*
X15975300Y-7055860D01*
X16026300Y-6953860D02*
X16026300Y-7055860D01*
X15975300Y-7004860D02*
X16077300Y-7004860D01*
X15975300Y-7206731D02*
X16077300Y-7308731D01*
X16077300Y-7206731D02*
X15975300Y-7308731D01*
X16026300Y-7206731D02*
X16026300Y-7308731D01*
X15975300Y-7257731D02*
X16077300Y-7257731D01*
X15975300Y-7459602D02*
X16077300Y-7561602D01*
X16077300Y-7459602D02*
X15975300Y-7561602D01*
X16026300Y-7459602D02*
X16026300Y-7561602D01*
X15975300Y-7510602D02*
X16077300Y-7510602D01*
X15975300Y-7712473D02*
X16077300Y-7814473D01*
X16077300Y-7712473D02*
X15975300Y-7814473D01*
X16026300Y-7712473D02*
X16026300Y-7814473D01*
X15975300Y-7763473D02*
X16077300Y-7763473D01*
X15975300Y-7965344D02*
X16077300Y-8067344D01*
X16077300Y-7965344D02*
X15975300Y-8067344D01*
X16026300Y-7965344D02*
X16026300Y-8067344D01*
X15975300Y-8016344D02*
X16077300Y-8016344D01*
X16483300Y-4172280D02*
X16585300Y-4274280D01*
X16585300Y-4172280D02*
X16483300Y-4274280D01*
X16534300Y-4172280D02*
X16534300Y-4274280D01*
X16483300Y-4223280D02*
X16585300Y-4223280D01*
X16483300Y-4425151D02*
X16585300Y-4527151D01*
X16585300Y-4425151D02*
X16483300Y-4527151D01*
X16534300Y-4425151D02*
X16534300Y-4527151D01*
X16483300Y-4476151D02*
X16585300Y-4476151D01*
X16483300Y-4678022D02*
X16585300Y-4780022D01*
X16585300Y-4678022D02*
X16483300Y-4780022D01*
X16534300Y-4678022D02*
X16534300Y-4780022D01*
X16483300Y-4729022D02*
X16585300Y-4729022D01*
X16483300Y-4930893D02*
X16585300Y-5032893D01*
X16585300Y-4930893D02*
X16483300Y-5032893D01*
X16534300Y-4930893D02*
X16534300Y-5032893D01*
X16483300Y-4981893D02*
X16585300Y-4981893D01*
X16483300Y-5183764D02*
X16585300Y-5285764D01*
X16585300Y-5183764D02*
X16483300Y-5285764D01*
X16534300Y-5183764D02*
X16534300Y-5285764D01*
X16483300Y-5234764D02*
X16585300Y-5234764D01*
X16483300Y-5436635D02*
X16585300Y-5538635D01*
X16585300Y-5436635D02*
X16483300Y-5538635D01*
X16534300Y-5436635D02*
X16534300Y-5538635D01*
X16483300Y-5487635D02*
X16585300Y-5487635D01*
X16483300Y-5689505D02*
X16585300Y-5791505D01*
X16585300Y-5689505D02*
X16483300Y-5791505D01*
X16534300Y-5689505D02*
X16534300Y-5791505D01*
X16483300Y-5740505D02*
X16585300Y-5740505D01*
X16483300Y-5942376D02*
X16585300Y-6044376D01*
X16585300Y-5942376D02*
X16483300Y-6044376D01*
X16534300Y-5942376D02*
X16534300Y-6044376D01*
X16483300Y-5993376D02*
X16585300Y-5993376D01*
X16483300Y-6195247D02*
X16585300Y-6297247D01*
X16585300Y-6195247D02*
X16483300Y-6297247D01*
X16534300Y-6195247D02*
X16534300Y-6297247D01*
X16483300Y-6246247D02*
X16585300Y-6246247D01*
X16483300Y-6448118D02*
X16585300Y-6550118D01*
X16585300Y-6448118D02*
X16483300Y-6550118D01*
X16534300Y-6448118D02*
X16534300Y-6550118D01*
X16483300Y-6499118D02*
X16585300Y-6499118D01*
X16483300Y-6700989D02*
X16585300Y-6802989D01*
X16585300Y-6700989D02*
X16483300Y-6802989D01*
X16534300Y-6700989D02*
X16534300Y-6802989D01*
X16483300Y-6751989D02*
X16585300Y-6751989D01*
X16483300Y-6953860D02*
X16585300Y-7055860D01*
X16585300Y-6953860D02*
X16483300Y-7055860D01*
X16534300Y-6953860D02*
X16534300Y-7055860D01*
X16483300Y-7004860D02*
X16585300Y-7004860D01*
X16483300Y-7206731D02*
X16585300Y-7308731D01*
X16585300Y-7206731D02*
X16483300Y-7308731D01*
X16534300Y-7206731D02*
X16534300Y-7308731D01*
X16483300Y-7257731D02*
X16585300Y-7257731D01*
X16483300Y-7459602D02*
X16585300Y-7561602D01*
X16585300Y-7459602D02*
X16483300Y-7561602D01*
X16534300Y-7459602D02*
X16534300Y-7561602D01*
X16483300Y-7510602D02*
X16585300Y-7510602D01*
X16483300Y-7712473D02*
X16585300Y-7814473D01*
X16585300Y-7712473D02*
X16483300Y-7814473D01*
X16534300Y-7712473D02*
X16534300Y-7814473D01*
X16483300Y-7763473D02*
X16585300Y-7763473D01*
X16483300Y-7965344D02*
X16585300Y-8067344D01*
X16585300Y-7965344D02*
X16483300Y-8067344D01*
X16534300Y-7965344D02*
X16534300Y-8067344D01*
X16483300Y-8016344D02*
X16585300Y-8016344D01*
X16737300Y-4172280D02*
X16839300Y-4274280D01*
X16839300Y-4172280D02*
X16737300Y-4274280D01*
X16788300Y-4172280D02*
X16788300Y-4274280D01*
X16737300Y-4223280D02*
X16839300Y-4223280D01*
X16737300Y-4425151D02*
X16839300Y-4527151D01*
X16839300Y-4425151D02*
X16737300Y-4527151D01*
X16788300Y-4425151D02*
X16788300Y-4527151D01*
X16737300Y-4476151D02*
X16839300Y-4476151D01*
X16737300Y-4678022D02*
X16839300Y-4780022D01*
X16839300Y-4678022D02*
X16737300Y-4780022D01*
X16788300Y-4678022D02*
X16788300Y-4780022D01*
X16737300Y-4729022D02*
X16839300Y-4729022D01*
X16737300Y-4930893D02*
X16839300Y-5032893D01*
X16839300Y-4930893D02*
X16737300Y-5032893D01*
X16788300Y-4930893D02*
X16788300Y-5032893D01*
X16737300Y-4981893D02*
X16839300Y-4981893D01*
X16737300Y-5183764D02*
X16839300Y-5285764D01*
X16839300Y-5183764D02*
X16737300Y-5285764D01*
X16788300Y-5183764D02*
X16788300Y-5285764D01*
X16737300Y-5234764D02*
X16839300Y-5234764D01*
X16737300Y-5436635D02*
X16839300Y-5538635D01*
X16839300Y-5436635D02*
X16737300Y-5538635D01*
X16788300Y-5436635D02*
X16788300Y-5538635D01*
X16737300Y-5487635D02*
X16839300Y-5487635D01*
X16737300Y-5689505D02*
X16839300Y-5791505D01*
X16839300Y-5689505D02*
X16737300Y-5791505D01*
X16788300Y-5689505D02*
X16788300Y-5791505D01*
X16737300Y-5740505D02*
X16839300Y-5740505D01*
X16737300Y-5942376D02*
X16839300Y-6044376D01*
X16839300Y-5942376D02*
X16737300Y-6044376D01*
X16788300Y-5942376D02*
X16788300Y-6044376D01*
X16737300Y-5993376D02*
X16839300Y-5993376D01*
X16737300Y-6195247D02*
X16839300Y-6297247D01*
X16839300Y-6195247D02*
X16737300Y-6297247D01*
X16788300Y-6195247D02*
X16788300Y-6297247D01*
X16737300Y-6246247D02*
X16839300Y-6246247D01*
X16737300Y-6448118D02*
X16839300Y-6550118D01*
X16839300Y-6448118D02*
X16737300Y-6550118D01*
X16788300Y-6448118D02*
X16788300Y-6550118D01*
X16737300Y-6499118D02*
X16839300Y-6499118D01*
X16737300Y-6700989D02*
X16839300Y-6802989D01*
X16839300Y-6700989D02*
X16737300Y-6802989D01*
X16788300Y-6700989D02*
X16788300Y-6802989D01*
X16737300Y-6751989D02*
X16839300Y-6751989D01*
X16737300Y-6953860D02*
X16839300Y-7055860D01*
X16839300Y-6953860D02*
X16737300Y-7055860D01*
X16788300Y-6953860D02*
X16788300Y-7055860D01*
X16737300Y-7004860D02*
X16839300Y-7004860D01*
X16737300Y-7206731D02*
X16839300Y-7308731D01*
X16839300Y-7206731D02*
X16737300Y-7308731D01*
X16788300Y-7206731D02*
X16788300Y-7308731D01*
X16737300Y-7257731D02*
X16839300Y-7257731D01*
X16737300Y-7459602D02*
X16839300Y-7561602D01*
X16839300Y-7459602D02*
X16737300Y-7561602D01*
X16788300Y-7459602D02*
X16788300Y-7561602D01*
X16737300Y-7510602D02*
X16839300Y-7510602D01*
X16737300Y-7712473D02*
X16839300Y-7814473D01*
X16839300Y-7712473D02*
X16737300Y-7814473D01*
X16788300Y-7712473D02*
X16788300Y-7814473D01*
X16737300Y-7763473D02*
X16839300Y-7763473D01*
X16737300Y-7965344D02*
X16839300Y-8067344D01*
X16839300Y-7965344D02*
X16737300Y-8067344D01*
X16788300Y-7965344D02*
X16788300Y-8067344D01*
X16737300Y-8016344D02*
X16839300Y-8016344D01*
X16991300Y-4172280D02*
X17093300Y-4274280D01*
X17093300Y-4172280D02*
X16991300Y-4274280D01*
X17042300Y-4172280D02*
X17042300Y-4274280D01*
X16991300Y-4223280D02*
X17093300Y-4223280D01*
X16991300Y-4425151D02*
X17093300Y-4527151D01*
X17093300Y-4425151D02*
X16991300Y-4527151D01*
X17042300Y-4425151D02*
X17042300Y-4527151D01*
X16991300Y-4476151D02*
X17093300Y-4476151D01*
X16991300Y-4678022D02*
X17093300Y-4780022D01*
X17093300Y-4678022D02*
X16991300Y-4780022D01*
X17042300Y-4678022D02*
X17042300Y-4780022D01*
X16991300Y-4729022D02*
X17093300Y-4729022D01*
X16991300Y-4930893D02*
X17093300Y-5032893D01*
X17093300Y-4930893D02*
X16991300Y-5032893D01*
X17042300Y-4930893D02*
X17042300Y-5032893D01*
X16991300Y-4981893D02*
X17093300Y-4981893D01*
X16991300Y-5183764D02*
X17093300Y-5285764D01*
X17093300Y-5183764D02*
X16991300Y-5285764D01*
X17042300Y-5183764D02*
X17042300Y-5285764D01*
X16991300Y-5234764D02*
X17093300Y-5234764D01*
X16991300Y-5436635D02*
X17093300Y-5538635D01*
X17093300Y-5436635D02*
X16991300Y-5538635D01*
X17042300Y-5436635D02*
X17042300Y-5538635D01*
X16991300Y-5487635D02*
X17093300Y-5487635D01*
X16991300Y-5689505D02*
X17093300Y-5791505D01*
X17093300Y-5689505D02*
X16991300Y-5791505D01*
X17042300Y-5689505D02*
X17042300Y-5791505D01*
X16991300Y-5740505D02*
X17093300Y-5740505D01*
X16991300Y-5942376D02*
X17093300Y-6044376D01*
X17093300Y-5942376D02*
X16991300Y-6044376D01*
X17042300Y-5942376D02*
X17042300Y-6044376D01*
X16991300Y-5993376D02*
X17093300Y-5993376D01*
X16991300Y-6195247D02*
X17093300Y-6297247D01*
X17093300Y-6195247D02*
X16991300Y-6297247D01*
X17042300Y-6195247D02*
X17042300Y-6297247D01*
X16991300Y-6246247D02*
X17093300Y-6246247D01*
X16991300Y-6448118D02*
X17093300Y-6550118D01*
X17093300Y-6448118D02*
X16991300Y-6550118D01*
X17042300Y-6448118D02*
X17042300Y-6550118D01*
X16991300Y-6499118D02*
X17093300Y-6499118D01*
X16991300Y-6700989D02*
X17093300Y-6802989D01*
X17093300Y-6700989D02*
X16991300Y-6802989D01*
X17042300Y-6700989D02*
X17042300Y-6802989D01*
X16991300Y-6751989D02*
X17093300Y-6751989D01*
X16991300Y-6953860D02*
X17093300Y-7055860D01*
X17093300Y-6953860D02*
X16991300Y-7055860D01*
X17042300Y-6953860D02*
X17042300Y-7055860D01*
X16991300Y-7004860D02*
X17093300Y-7004860D01*
X16991300Y-7206731D02*
X17093300Y-7308731D01*
X17093300Y-7206731D02*
X16991300Y-7308731D01*
X17042300Y-7206731D02*
X17042300Y-7308731D01*
X16991300Y-7257731D02*
X17093300Y-7257731D01*
X16991300Y-7459602D02*
X17093300Y-7561602D01*
X17093300Y-7459602D02*
X16991300Y-7561602D01*
X17042300Y-7459602D02*
X17042300Y-7561602D01*
X16991300Y-7510602D02*
X17093300Y-7510602D01*
X16991300Y-7712473D02*
X17093300Y-7814473D01*
X17093300Y-7712473D02*
X16991300Y-7814473D01*
X17042300Y-7712473D02*
X17042300Y-7814473D01*
X16991300Y-7763473D02*
X17093300Y-7763473D01*
X16991300Y-7965344D02*
X17093300Y-8067344D01*
X17093300Y-7965344D02*
X16991300Y-8067344D01*
X17042300Y-7965344D02*
X17042300Y-8067344D01*
X16991300Y-8016344D02*
X17093300Y-8016344D01*
X17245300Y-4172280D02*
X17347300Y-4274280D01*
X17347300Y-4172280D02*
X17245300Y-4274280D01*
X17296300Y-4172280D02*
X17296300Y-4274280D01*
X17245300Y-4223280D02*
X17347300Y-4223280D01*
X17245300Y-4425151D02*
X17347300Y-4527151D01*
X17347300Y-4425151D02*
X17245300Y-4527151D01*
X17296300Y-4425151D02*
X17296300Y-4527151D01*
X17245300Y-4476151D02*
X17347300Y-4476151D01*
X17245300Y-4678022D02*
X17347300Y-4780022D01*
X17347300Y-4678022D02*
X17245300Y-4780022D01*
X17296300Y-4678022D02*
X17296300Y-4780022D01*
X17245300Y-4729022D02*
X17347300Y-4729022D01*
X17245300Y-4930893D02*
X17347300Y-5032893D01*
X17347300Y-4930893D02*
X17245300Y-5032893D01*
X17296300Y-4930893D02*
X17296300Y-5032893D01*
X17245300Y-4981893D02*
X17347300Y-4981893D01*
X17245300Y-5183764D02*
X17347300Y-5285764D01*
X17347300Y-5183764D02*
X17245300Y-5285764D01*
X17296300Y-5183764D02*
X17296300Y-5285764D01*
X17245300Y-5234764D02*
X17347300Y-5234764D01*
X17245300Y-5436635D02*
X17347300Y-5538635D01*
X17347300Y-5436635D02*
X17245300Y-5538635D01*
X17296300Y-5436635D02*
X17296300Y-5538635D01*
X17245300Y-5487635D02*
X17347300Y-5487635D01*
X17245300Y-5689505D02*
X17347300Y-5791505D01*
X17347300Y-5689505D02*
X17245300Y-5791505D01*
X17296300Y-5689505D02*
X17296300Y-5791505D01*
X17245300Y-5740505D02*
X17347300Y-5740505D01*
X17245300Y-5942376D02*
X17347300Y-6044376D01*
X17347300Y-5942376D02*
X17245300Y-6044376D01*
X17296300Y-5942376D02*
X17296300Y-6044376D01*
X17245300Y-5993376D02*
X17347300Y-5993376D01*
X17245300Y-6195247D02*
X17347300Y-6297247D01*
X17347300Y-6195247D02*
X17245300Y-6297247D01*
X17296300Y-6195247D02*
X17296300Y-6297247D01*
X17245300Y-6246247D02*
X17347300Y-6246247D01*
X17245300Y-6448118D02*
X17347300Y-6550118D01*
X17347300Y-6448118D02*
X17245300Y-6550118D01*
X17296300Y-6448118D02*
X17296300Y-6550118D01*
X17245300Y-6499118D02*
X17347300Y-6499118D01*
X17245300Y-6700989D02*
X17347300Y-6802989D01*
X17347300Y-6700989D02*
X17245300Y-6802989D01*
X17296300Y-6700989D02*
X17296300Y-6802989D01*
X17245300Y-6751989D02*
X17347300Y-6751989D01*
X17245300Y-6953860D02*
X17347300Y-7055860D01*
X17347300Y-6953860D02*
X17245300Y-7055860D01*
X17296300Y-6953860D02*
X17296300Y-7055860D01*
X17245300Y-7004860D02*
X17347300Y-7004860D01*
X17245300Y-7206731D02*
X17347300Y-7308731D01*
X17347300Y-7206731D02*
X17245300Y-7308731D01*
X17296300Y-7206731D02*
X17296300Y-7308731D01*
X17245300Y-7257731D02*
X17347300Y-7257731D01*
X17245300Y-7459602D02*
X17347300Y-7561602D01*
X17347300Y-7459602D02*
X17245300Y-7561602D01*
X17296300Y-7459602D02*
X17296300Y-7561602D01*
X17245300Y-7510602D02*
X17347300Y-7510602D01*
X17245300Y-7712473D02*
X17347300Y-7814473D01*
X17347300Y-7712473D02*
X17245300Y-7814473D01*
X17296300Y-7712473D02*
X17296300Y-7814473D01*
X17245300Y-7763473D02*
X17347300Y-7763473D01*
X17245300Y-7965344D02*
X17347300Y-8067344D01*
X17347300Y-7965344D02*
X17245300Y-8067344D01*
X17296300Y-7965344D02*
X17296300Y-8067344D01*
X17245300Y-8016344D02*
X17347300Y-8016344D01*
X17600900Y-8693480D02*
X17702900Y-8795480D01*
X17702900Y-8693480D02*
X17600900Y-8795480D01*
X17651900Y-8693480D02*
X17651900Y-8795480D01*
X17600900Y-8744480D02*
X17702900Y-8744480D01*
X17600900Y-9201480D02*
X17702900Y-9303480D01*
X17702900Y-9201480D02*
X17600900Y-9303480D01*
X17651900Y-9201480D02*
X17651900Y-9303480D01*
X17600900Y-9252480D02*
X17702900Y-9252480D01*
X17854900Y-8693480D02*
X17956900Y-8795480D01*
X17956900Y-8693480D02*
X17854900Y-8795480D01*
X17905900Y-8693480D02*
X17905900Y-8795480D01*
X17854900Y-8744480D02*
X17956900Y-8744480D01*
X17854900Y-9201480D02*
X17956900Y-9303480D01*
X17956900Y-9201480D02*
X17854900Y-9303480D01*
X17905900Y-9201480D02*
X17905900Y-9303480D01*
X17854900Y-9252480D02*
X17956900Y-9252480D01*
X18003300Y-4425151D02*
X18105300Y-4527151D01*
X18105300Y-4425151D02*
X18003300Y-4527151D01*
X18054300Y-4425151D02*
X18054300Y-4527151D01*
X18003300Y-4476151D02*
X18105300Y-4476151D01*
X18003300Y-4678022D02*
X18105300Y-4780022D01*
X18105300Y-4678022D02*
X18003300Y-4780022D01*
X18054300Y-4678022D02*
X18054300Y-4780022D01*
X18003300Y-4729022D02*
X18105300Y-4729022D01*
X18007300Y-4172280D02*
X18109300Y-4274280D01*
X18109300Y-4172280D02*
X18007300Y-4274280D01*
X18058300Y-4172280D02*
X18058300Y-4274280D01*
X18007300Y-4223280D02*
X18109300Y-4223280D01*
X18007300Y-4930893D02*
X18109300Y-5032893D01*
X18109300Y-4930893D02*
X18007300Y-5032893D01*
X18058300Y-4930893D02*
X18058300Y-5032893D01*
X18007300Y-4981893D02*
X18109300Y-4981893D01*
X18007300Y-5183764D02*
X18109300Y-5285764D01*
X18109300Y-5183764D02*
X18007300Y-5285764D01*
X18058300Y-5183764D02*
X18058300Y-5285764D01*
X18007300Y-5234764D02*
X18109300Y-5234764D01*
X18007300Y-5436635D02*
X18109300Y-5538635D01*
X18109300Y-5436635D02*
X18007300Y-5538635D01*
X18058300Y-5436635D02*
X18058300Y-5538635D01*
X18007300Y-5487635D02*
X18109300Y-5487635D01*
X18007300Y-5689505D02*
X18109300Y-5791505D01*
X18109300Y-5689505D02*
X18007300Y-5791505D01*
X18058300Y-5689505D02*
X18058300Y-5791505D01*
X18007300Y-5740505D02*
X18109300Y-5740505D01*
X18007300Y-5942376D02*
X18109300Y-6044376D01*
X18109300Y-5942376D02*
X18007300Y-6044376D01*
X18058300Y-5942376D02*
X18058300Y-6044376D01*
X18007300Y-5993376D02*
X18109300Y-5993376D01*
X18007300Y-6195247D02*
X18109300Y-6297247D01*
X18109300Y-6195247D02*
X18007300Y-6297247D01*
X18058300Y-6195247D02*
X18058300Y-6297247D01*
X18007300Y-6246247D02*
X18109300Y-6246247D01*
X18007300Y-6448118D02*
X18109300Y-6550118D01*
X18109300Y-6448118D02*
X18007300Y-6550118D01*
X18058300Y-6448118D02*
X18058300Y-6550118D01*
X18007300Y-6499118D02*
X18109300Y-6499118D01*
X18007300Y-6700989D02*
X18109300Y-6802989D01*
X18109300Y-6700989D02*
X18007300Y-6802989D01*
X18058300Y-6700989D02*
X18058300Y-6802989D01*
X18007300Y-6751989D02*
X18109300Y-6751989D01*
X18007300Y-6953860D02*
X18109300Y-7055860D01*
X18109300Y-6953860D02*
X18007300Y-7055860D01*
X18058300Y-6953860D02*
X18058300Y-7055860D01*
X18007300Y-7004860D02*
X18109300Y-7004860D01*
X18007300Y-7206731D02*
X18109300Y-7308731D01*
X18109300Y-7206731D02*
X18007300Y-7308731D01*
X18058300Y-7206731D02*
X18058300Y-7308731D01*
X18007300Y-7257731D02*
X18109300Y-7257731D01*
X18007300Y-7459602D02*
X18109300Y-7561602D01*
X18109300Y-7459602D02*
X18007300Y-7561602D01*
X18058300Y-7459602D02*
X18058300Y-7561602D01*
X18007300Y-7510602D02*
X18109300Y-7510602D01*
X18007300Y-7712473D02*
X18109300Y-7814473D01*
X18109300Y-7712473D02*
X18007300Y-7814473D01*
X18058300Y-7712473D02*
X18058300Y-7814473D01*
X18007300Y-7763473D02*
X18109300Y-7763473D01*
X18007300Y-7965344D02*
X18109300Y-8067344D01*
X18109300Y-7965344D02*
X18007300Y-8067344D01*
X18058300Y-7965344D02*
X18058300Y-8067344D01*
X18007300Y-8016344D02*
X18109300Y-8016344D01*
X18257300Y-4678022D02*
X18359300Y-4780022D01*
X18359300Y-4678022D02*
X18257300Y-4780022D01*
X18308300Y-4678022D02*
X18308300Y-4780022D01*
X18257300Y-4729022D02*
X18359300Y-4729022D01*
X18258633Y-4425151D02*
X18360633Y-4527151D01*
X18360633Y-4425151D02*
X18258633Y-4527151D01*
X18309633Y-4425151D02*
X18309633Y-4527151D01*
X18258633Y-4476151D02*
X18360633Y-4476151D01*
X18259300Y-6700989D02*
X18361300Y-6802989D01*
X18361300Y-6700989D02*
X18259300Y-6802989D01*
X18310300Y-6700989D02*
X18310300Y-6802989D01*
X18259300Y-6751989D02*
X18361300Y-6751989D01*
X18259700Y-6953860D02*
X18361700Y-7055860D01*
X18361700Y-6953860D02*
X18259700Y-7055860D01*
X18310700Y-6953860D02*
X18310700Y-7055860D01*
X18259700Y-7004860D02*
X18361700Y-7004860D01*
X18261300Y-4172280D02*
X18363300Y-4274280D01*
X18363300Y-4172280D02*
X18261300Y-4274280D01*
X18312300Y-4172280D02*
X18312300Y-4274280D01*
X18261300Y-4223280D02*
X18363300Y-4223280D01*
X18261300Y-4930893D02*
X18363300Y-5032893D01*
X18363300Y-4930893D02*
X18261300Y-5032893D01*
X18312300Y-4930893D02*
X18312300Y-5032893D01*
X18261300Y-4981893D02*
X18363300Y-4981893D01*
X18261300Y-5183764D02*
X18363300Y-5285764D01*
X18363300Y-5183764D02*
X18261300Y-5285764D01*
X18312300Y-5183764D02*
X18312300Y-5285764D01*
X18261300Y-5234764D02*
X18363300Y-5234764D01*
X18261300Y-5436635D02*
X18363300Y-5538635D01*
X18363300Y-5436635D02*
X18261300Y-5538635D01*
X18312300Y-5436635D02*
X18312300Y-5538635D01*
X18261300Y-5487635D02*
X18363300Y-5487635D01*
X18261300Y-5689505D02*
X18363300Y-5791505D01*
X18363300Y-5689505D02*
X18261300Y-5791505D01*
X18312300Y-5689505D02*
X18312300Y-5791505D01*
X18261300Y-5740505D02*
X18363300Y-5740505D01*
X18261300Y-5942376D02*
X18363300Y-6044376D01*
X18363300Y-5942376D02*
X18261300Y-6044376D01*
X18312300Y-5942376D02*
X18312300Y-6044376D01*
X18261300Y-5993376D02*
X18363300Y-5993376D01*
X18261300Y-6195247D02*
X18363300Y-6297247D01*
X18363300Y-6195247D02*
X18261300Y-6297247D01*
X18312300Y-6195247D02*
X18312300Y-6297247D01*
X18261300Y-6246247D02*
X18363300Y-6246247D01*
X18261300Y-6448118D02*
X18363300Y-6550118D01*
X18363300Y-6448118D02*
X18261300Y-6550118D01*
X18312300Y-6448118D02*
X18312300Y-6550118D01*
X18261300Y-6499118D02*
X18363300Y-6499118D01*
X18261300Y-7206731D02*
X18363300Y-7308731D01*
X18363300Y-7206731D02*
X18261300Y-7308731D01*
X18312300Y-7206731D02*
X18312300Y-7308731D01*
X18261300Y-7257731D02*
X18363300Y-7257731D01*
X18261300Y-7459602D02*
X18363300Y-7561602D01*
X18363300Y-7459602D02*
X18261300Y-7561602D01*
X18312300Y-7459602D02*
X18312300Y-7561602D01*
X18261300Y-7510602D02*
X18363300Y-7510602D01*
X18261300Y-7712473D02*
X18363300Y-7814473D01*
X18363300Y-7712473D02*
X18261300Y-7814473D01*
X18312300Y-7712473D02*
X18312300Y-7814473D01*
X18261300Y-7763473D02*
X18363300Y-7763473D01*
X18261300Y-7965344D02*
X18363300Y-8067344D01*
X18363300Y-7965344D02*
X18261300Y-8067344D01*
X18312300Y-7965344D02*
X18312300Y-8067344D01*
X18261300Y-8016344D02*
X18363300Y-8016344D01*
X18511300Y-4678022D02*
X18613300Y-4780022D01*
X18613300Y-4678022D02*
X18511300Y-4780022D01*
X18562300Y-4678022D02*
X18562300Y-4780022D01*
X18511300Y-4729022D02*
X18613300Y-4729022D01*
X18511300Y-6700989D02*
X18613300Y-6802989D01*
X18613300Y-6700989D02*
X18511300Y-6802989D01*
X18562300Y-6700989D02*
X18562300Y-6802989D01*
X18511300Y-6751989D02*
X18613300Y-6751989D01*
X18512100Y-6953860D02*
X18614100Y-7055860D01*
X18614100Y-6953860D02*
X18512100Y-7055860D01*
X18563100Y-6953860D02*
X18563100Y-7055860D01*
X18512100Y-7004860D02*
X18614100Y-7004860D01*
X18513967Y-4425151D02*
X18615967Y-4527151D01*
X18615967Y-4425151D02*
X18513967Y-4527151D01*
X18564967Y-4425151D02*
X18564967Y-4527151D01*
X18513967Y-4476151D02*
X18615967Y-4476151D01*
X18515300Y-4172280D02*
X18617300Y-4274280D01*
X18617300Y-4172280D02*
X18515300Y-4274280D01*
X18566300Y-4172280D02*
X18566300Y-4274280D01*
X18515300Y-4223280D02*
X18617300Y-4223280D01*
X18515300Y-4930893D02*
X18617300Y-5032893D01*
X18617300Y-4930893D02*
X18515300Y-5032893D01*
X18566300Y-4930893D02*
X18566300Y-5032893D01*
X18515300Y-4981893D02*
X18617300Y-4981893D01*
X18515300Y-5183764D02*
X18617300Y-5285764D01*
X18617300Y-5183764D02*
X18515300Y-5285764D01*
X18566300Y-5183764D02*
X18566300Y-5285764D01*
X18515300Y-5234764D02*
X18617300Y-5234764D01*
X18515300Y-5436635D02*
X18617300Y-5538635D01*
X18617300Y-5436635D02*
X18515300Y-5538635D01*
X18566300Y-5436635D02*
X18566300Y-5538635D01*
X18515300Y-5487635D02*
X18617300Y-5487635D01*
X18515300Y-5689505D02*
X18617300Y-5791505D01*
X18617300Y-5689505D02*
X18515300Y-5791505D01*
X18566300Y-5689505D02*
X18566300Y-5791505D01*
X18515300Y-5740505D02*
X18617300Y-5740505D01*
X18515300Y-5942376D02*
X18617300Y-6044376D01*
X18617300Y-5942376D02*
X18515300Y-6044376D01*
X18566300Y-5942376D02*
X18566300Y-6044376D01*
X18515300Y-5993376D02*
X18617300Y-5993376D01*
X18515300Y-6195247D02*
X18617300Y-6297247D01*
X18617300Y-6195247D02*
X18515300Y-6297247D01*
X18566300Y-6195247D02*
X18566300Y-6297247D01*
X18515300Y-6246247D02*
X18617300Y-6246247D01*
X18515300Y-6448118D02*
X18617300Y-6550118D01*
X18617300Y-6448118D02*
X18515300Y-6550118D01*
X18566300Y-6448118D02*
X18566300Y-6550118D01*
X18515300Y-6499118D02*
X18617300Y-6499118D01*
X18515300Y-7206731D02*
X18617300Y-7308731D01*
X18617300Y-7206731D02*
X18515300Y-7308731D01*
X18566300Y-7206731D02*
X18566300Y-7308731D01*
X18515300Y-7257731D02*
X18617300Y-7257731D01*
X18515300Y-7459602D02*
X18617300Y-7561602D01*
X18617300Y-7459602D02*
X18515300Y-7561602D01*
X18566300Y-7459602D02*
X18566300Y-7561602D01*
X18515300Y-7510602D02*
X18617300Y-7510602D01*
X18515300Y-7712473D02*
X18617300Y-7814473D01*
X18617300Y-7712473D02*
X18515300Y-7814473D01*
X18566300Y-7712473D02*
X18566300Y-7814473D01*
X18515300Y-7763473D02*
X18617300Y-7763473D01*
X18515300Y-7965344D02*
X18617300Y-8067344D01*
X18617300Y-7965344D02*
X18515300Y-8067344D01*
X18566300Y-7965344D02*
X18566300Y-8067344D01*
X18515300Y-8016344D02*
X18617300Y-8016344D01*
X18763300Y-6700989D02*
X18865300Y-6802989D01*
X18865300Y-6700989D02*
X18763300Y-6802989D01*
X18814300Y-6700989D02*
X18814300Y-6802989D01*
X18763300Y-6751989D02*
X18865300Y-6751989D01*
X18764500Y-6953860D02*
X18866500Y-7055860D01*
X18866500Y-6953860D02*
X18764500Y-7055860D01*
X18815500Y-6953860D02*
X18815500Y-7055860D01*
X18764500Y-7004860D02*
X18866500Y-7004860D01*
X18765300Y-4678022D02*
X18867300Y-4780022D01*
X18867300Y-4678022D02*
X18765300Y-4780022D01*
X18816300Y-4678022D02*
X18816300Y-4780022D01*
X18765300Y-4729022D02*
X18867300Y-4729022D01*
X18769300Y-4172280D02*
X18871300Y-4274280D01*
X18871300Y-4172280D02*
X18769300Y-4274280D01*
X18820300Y-4172280D02*
X18820300Y-4274280D01*
X18769300Y-4223280D02*
X18871300Y-4223280D01*
X18769300Y-4425151D02*
X18871300Y-4527151D01*
X18871300Y-4425151D02*
X18769300Y-4527151D01*
X18820300Y-4425151D02*
X18820300Y-4527151D01*
X18769300Y-4476151D02*
X18871300Y-4476151D01*
X18769300Y-4930893D02*
X18871300Y-5032893D01*
X18871300Y-4930893D02*
X18769300Y-5032893D01*
X18820300Y-4930893D02*
X18820300Y-5032893D01*
X18769300Y-4981893D02*
X18871300Y-4981893D01*
X18769300Y-5183764D02*
X18871300Y-5285764D01*
X18871300Y-5183764D02*
X18769300Y-5285764D01*
X18820300Y-5183764D02*
X18820300Y-5285764D01*
X18769300Y-5234764D02*
X18871300Y-5234764D01*
X18769300Y-5436635D02*
X18871300Y-5538635D01*
X18871300Y-5436635D02*
X18769300Y-5538635D01*
X18820300Y-5436635D02*
X18820300Y-5538635D01*
X18769300Y-5487635D02*
X18871300Y-5487635D01*
X18769300Y-5689505D02*
X18871300Y-5791505D01*
X18871300Y-5689505D02*
X18769300Y-5791505D01*
X18820300Y-5689505D02*
X18820300Y-5791505D01*
X18769300Y-5740505D02*
X18871300Y-5740505D01*
X18769300Y-5942376D02*
X18871300Y-6044376D01*
X18871300Y-5942376D02*
X18769300Y-6044376D01*
X18820300Y-5942376D02*
X18820300Y-6044376D01*
X18769300Y-5993376D02*
X18871300Y-5993376D01*
X18769300Y-6195247D02*
X18871300Y-6297247D01*
X18871300Y-6195247D02*
X18769300Y-6297247D01*
X18820300Y-6195247D02*
X18820300Y-6297247D01*
X18769300Y-6246247D02*
X18871300Y-6246247D01*
X18769300Y-6448118D02*
X18871300Y-6550118D01*
X18871300Y-6448118D02*
X18769300Y-6550118D01*
X18820300Y-6448118D02*
X18820300Y-6550118D01*
X18769300Y-6499118D02*
X18871300Y-6499118D01*
X18769300Y-7206731D02*
X18871300Y-7308731D01*
X18871300Y-7206731D02*
X18769300Y-7308731D01*
X18820300Y-7206731D02*
X18820300Y-7308731D01*
X18769300Y-7257731D02*
X18871300Y-7257731D01*
X18769300Y-7459602D02*
X18871300Y-7561602D01*
X18871300Y-7459602D02*
X18769300Y-7561602D01*
X18820300Y-7459602D02*
X18820300Y-7561602D01*
X18769300Y-7510602D02*
X18871300Y-7510602D01*
X18769300Y-7712473D02*
X18871300Y-7814473D01*
X18871300Y-7712473D02*
X18769300Y-7814473D01*
X18820300Y-7712473D02*
X18820300Y-7814473D01*
X18769300Y-7763473D02*
X18871300Y-7763473D01*
X18769300Y-7965344D02*
X18871300Y-8067344D01*
X18871300Y-7965344D02*
X18769300Y-8067344D01*
X18820300Y-7965344D02*
X18820300Y-8067344D01*
X18769300Y-8016344D02*
X18871300Y-8016344D01*
X19277300Y-4172280D02*
X19379300Y-4274280D01*
X19379300Y-4172280D02*
X19277300Y-4274280D01*
X19328300Y-4172280D02*
X19328300Y-4274280D01*
X19277300Y-4223280D02*
X19379300Y-4223280D01*
X19277300Y-4425151D02*
X19379300Y-4527151D01*
X19379300Y-4425151D02*
X19277300Y-4527151D01*
X19328300Y-4425151D02*
X19328300Y-4527151D01*
X19277300Y-4476151D02*
X19379300Y-4476151D01*
X19277300Y-4678022D02*
X19379300Y-4780022D01*
X19379300Y-4678022D02*
X19277300Y-4780022D01*
X19328300Y-4678022D02*
X19328300Y-4780022D01*
X19277300Y-4729022D02*
X19379300Y-4729022D01*
X19277300Y-4930893D02*
X19379300Y-5032893D01*
X19379300Y-4930893D02*
X19277300Y-5032893D01*
X19328300Y-4930893D02*
X19328300Y-5032893D01*
X19277300Y-4981893D02*
X19379300Y-4981893D01*
X19277300Y-5183764D02*
X19379300Y-5285764D01*
X19379300Y-5183764D02*
X19277300Y-5285764D01*
X19328300Y-5183764D02*
X19328300Y-5285764D01*
X19277300Y-5234764D02*
X19379300Y-5234764D01*
X19277300Y-5436635D02*
X19379300Y-5538635D01*
X19379300Y-5436635D02*
X19277300Y-5538635D01*
X19328300Y-5436635D02*
X19328300Y-5538635D01*
X19277300Y-5487635D02*
X19379300Y-5487635D01*
X19277300Y-5689505D02*
X19379300Y-5791505D01*
X19379300Y-5689505D02*
X19277300Y-5791505D01*
X19328300Y-5689505D02*
X19328300Y-5791505D01*
X19277300Y-5740505D02*
X19379300Y-5740505D01*
X19277300Y-5942376D02*
X19379300Y-6044376D01*
X19379300Y-5942376D02*
X19277300Y-6044376D01*
X19328300Y-5942376D02*
X19328300Y-6044376D01*
X19277300Y-5993376D02*
X19379300Y-5993376D01*
X19277300Y-6195247D02*
X19379300Y-6297247D01*
X19379300Y-6195247D02*
X19277300Y-6297247D01*
X19328300Y-6195247D02*
X19328300Y-6297247D01*
X19277300Y-6246247D02*
X19379300Y-6246247D01*
X19277300Y-6448118D02*
X19379300Y-6550118D01*
X19379300Y-6448118D02*
X19277300Y-6550118D01*
X19328300Y-6448118D02*
X19328300Y-6550118D01*
X19277300Y-6499118D02*
X19379300Y-6499118D01*
X19277300Y-6700989D02*
X19379300Y-6802989D01*
X19379300Y-6700989D02*
X19277300Y-6802989D01*
X19328300Y-6700989D02*
X19328300Y-6802989D01*
X19277300Y-6751989D02*
X19379300Y-6751989D01*
X19277300Y-6953860D02*
X19379300Y-7055860D01*
X19379300Y-6953860D02*
X19277300Y-7055860D01*
X19328300Y-6953860D02*
X19328300Y-7055860D01*
X19277300Y-7004860D02*
X19379300Y-7004860D01*
X19277300Y-7206731D02*
X19379300Y-7308731D01*
X19379300Y-7206731D02*
X19277300Y-7308731D01*
X19328300Y-7206731D02*
X19328300Y-7308731D01*
X19277300Y-7257731D02*
X19379300Y-7257731D01*
X19277300Y-7459602D02*
X19379300Y-7561602D01*
X19379300Y-7459602D02*
X19277300Y-7561602D01*
X19328300Y-7459602D02*
X19328300Y-7561602D01*
X19277300Y-7510602D02*
X19379300Y-7510602D01*
X19277300Y-7712473D02*
X19379300Y-7814473D01*
X19379300Y-7712473D02*
X19277300Y-7814473D01*
X19328300Y-7712473D02*
X19328300Y-7814473D01*
X19277300Y-7763473D02*
X19379300Y-7763473D01*
X19277300Y-7965344D02*
X19379300Y-8067344D01*
X19379300Y-7965344D02*
X19277300Y-8067344D01*
X19328300Y-7965344D02*
X19328300Y-8067344D01*
X19277300Y-8016344D02*
X19379300Y-8016344D01*
X19886900Y-8693480D02*
X19988900Y-8795480D01*
X19988900Y-8693480D02*
X19886900Y-8795480D01*
X19937900Y-8693480D02*
X19937900Y-8795480D01*
X19886900Y-8744480D02*
X19988900Y-8744480D01*
X19886900Y-9201480D02*
X19988900Y-9303480D01*
X19988900Y-9201480D02*
X19886900Y-9303480D01*
X19937900Y-9201480D02*
X19937900Y-9303480D01*
X19886900Y-9252480D02*
X19988900Y-9252480D01*
D19*
X17059800Y-11871780D02*
X17194800Y-12006780D01*
X17194800Y-11871780D02*
X17059800Y-12006780D01*
X17175030Y-11987010D02*
X17175030Y-11891550D01*
X17079570Y-11891550D01*
X17079570Y-11987010D01*
X17175030Y-11987010D01*
X17229800Y-11501780D02*
X17364800Y-11636780D01*
X17364800Y-11501780D02*
X17229800Y-11636780D01*
X17345030Y-11617010D02*
X17345030Y-11521550D01*
X17249570Y-11521550D01*
X17249570Y-11617010D01*
X17345030Y-11617010D01*
X17399800Y-11871780D02*
X17534800Y-12006780D01*
X17534800Y-11871780D02*
X17399800Y-12006780D01*
X17515030Y-11987010D02*
X17515030Y-11891550D01*
X17419570Y-11891550D01*
X17419570Y-11987010D01*
X17515030Y-11987010D01*
X17569800Y-11501780D02*
X17704800Y-11636780D01*
X17704800Y-11501780D02*
X17569800Y-11636780D01*
X17685030Y-11617010D02*
X17685030Y-11521550D01*
X17589570Y-11521550D01*
X17589570Y-11617010D01*
X17685030Y-11617010D01*
X17739800Y-11871780D02*
X17874800Y-12006780D01*
X17874800Y-11871780D02*
X17739800Y-12006780D01*
X17855030Y-11987010D02*
X17855030Y-11891550D01*
X17759570Y-11891550D01*
X17759570Y-11987010D01*
X17855030Y-11987010D01*
D20*
X16047900Y-8664480D02*
X16207900Y-8824480D01*
X16207900Y-8664480D02*
X16047900Y-8824480D01*
X16127900Y-8824480D02*
X16207900Y-8744480D01*
X16127900Y-8664480D01*
X16047900Y-8744480D01*
X16127900Y-8824480D01*
X16047900Y-9172480D02*
X16207900Y-9332480D01*
X16207900Y-9172480D02*
X16047900Y-9332480D01*
X16127900Y-9332480D02*
X16207900Y-9252480D01*
X16127900Y-9172480D01*
X16047900Y-9252480D01*
X16127900Y-9332480D01*
X16085300Y-12459280D02*
X16245300Y-12619280D01*
X16245300Y-12459280D02*
X16085300Y-12619280D01*
X16165300Y-12619280D02*
X16245300Y-12539280D01*
X16165300Y-12459280D01*
X16085300Y-12539280D01*
X16165300Y-12619280D01*
X17063900Y-8664480D02*
X17223900Y-8824480D01*
X17223900Y-8664480D02*
X17063900Y-8824480D01*
X17143900Y-8824480D02*
X17223900Y-8744480D01*
X17143900Y-8664480D01*
X17063900Y-8744480D01*
X17143900Y-8824480D01*
X17063900Y-9172480D02*
X17223900Y-9332480D01*
X17223900Y-9172480D02*
X17063900Y-9332480D01*
X17143900Y-9332480D02*
X17223900Y-9252480D01*
X17143900Y-9172480D01*
X17063900Y-9252480D01*
X17143900Y-9332480D01*
X17609300Y-12459280D02*
X17769300Y-12619280D01*
X17769300Y-12459280D02*
X17609300Y-12619280D01*
X17689300Y-12619280D02*
X17769300Y-12539280D01*
X17689300Y-12459280D01*
X17609300Y-12539280D01*
X17689300Y-12619280D01*
X18333900Y-8668512D02*
X18493900Y-8828512D01*
X18493900Y-8668512D02*
X18333900Y-8828512D01*
X18413900Y-8828512D02*
X18493900Y-8748512D01*
X18413900Y-8668512D01*
X18333900Y-8748512D01*
X18413900Y-8828512D01*
X18333900Y-9172480D02*
X18493900Y-9332480D01*
X18493900Y-9172480D02*
X18333900Y-9332480D01*
X18413900Y-9332480D02*
X18493900Y-9252480D01*
X18413900Y-9172480D01*
X18333900Y-9252480D01*
X18413900Y-9332480D01*
X19349900Y-8664480D02*
X19509900Y-8824480D01*
X19509900Y-8664480D02*
X19349900Y-8824480D01*
X19429900Y-8824480D02*
X19509900Y-8744480D01*
X19429900Y-8664480D01*
X19349900Y-8744480D01*
X19429900Y-8824480D01*
X19349900Y-9172480D02*
X19509900Y-9332480D01*
X19509900Y-9172480D02*
X19349900Y-9332480D01*
X19429900Y-9332480D02*
X19509900Y-9252480D01*
X19429900Y-9172480D01*
X19349900Y-9252480D01*
X19429900Y-9332480D01*
D21*
X4652300Y-11088137D02*
X4652300Y-11291337D01*
X4550700Y-11189737D02*
X4753900Y-11189737D01*
X4753900Y-11189737D02*
G75*
G03*
X4753900Y-11189737I-101600J0D01*
G01*
X4652300Y-12452117D02*
X4652300Y-12655317D01*
X4550700Y-12553717D02*
X4753900Y-12553717D01*
X4753900Y-12553717D02*
G75*
G03*
X4753900Y-12553717I-101600J0D01*
G01*
X4702300Y-6272366D02*
X4702300Y-6475566D01*
X4600700Y-6373966D02*
X4803900Y-6373966D01*
X4803900Y-6373966D02*
G75*
G03*
X4803900Y-6373966I-101600J0D01*
G01*
X4702300Y-7636346D02*
X4702300Y-7839546D01*
X4600700Y-7737946D02*
X4803900Y-7737946D01*
X4803900Y-7737946D02*
G75*
G03*
X4803900Y-7737946I-101600J0D01*
G01*
X4702300Y-15903908D02*
X4702300Y-16107108D01*
X4600700Y-16005508D02*
X4803900Y-16005508D01*
X4803900Y-16005508D02*
G75*
G03*
X4803900Y-16005508I-101600J0D01*
G01*
X4702300Y-17267889D02*
X4702300Y-17471089D01*
X4600700Y-17369489D02*
X4803900Y-17369489D01*
X4803900Y-17369489D02*
G75*
G03*
X4803900Y-17369489I-101600J0D01*
G01*
X4702300Y-20719680D02*
X4702300Y-20922880D01*
X4600700Y-20821280D02*
X4803900Y-20821280D01*
X4803900Y-20821280D02*
G75*
G03*
X4803900Y-20821280I-101600J0D01*
G01*
X4702300Y-22083660D02*
X4702300Y-22286860D01*
X4600700Y-22185260D02*
X4803900Y-22185260D01*
X4803900Y-22185260D02*
G75*
G03*
X4803900Y-22185260I-101600J0D01*
G01*
X7664400Y-8676471D02*
X7664400Y-8879671D01*
X7562800Y-8778071D02*
X7766000Y-8778071D01*
X7766000Y-8778071D02*
G75*
G03*
X7766000Y-8778071I-101600J0D01*
G01*
X7664400Y-10040451D02*
X7664400Y-10243651D01*
X7562800Y-10142051D02*
X7766000Y-10142051D01*
X7766000Y-10142051D02*
G75*
G03*
X7766000Y-10142051I-101600J0D01*
G01*
X7664400Y-13492243D02*
X7664400Y-13695443D01*
X7562800Y-13593843D02*
X7766000Y-13593843D01*
X7766000Y-13593843D02*
G75*
G03*
X7766000Y-13593843I-101600J0D01*
G01*
X7664400Y-14856223D02*
X7664400Y-15059423D01*
X7562800Y-14957823D02*
X7766000Y-14957823D01*
X7766000Y-14957823D02*
G75*
G03*
X7766000Y-14957823I-101600J0D01*
G01*
X7668300Y-18308014D02*
X7668300Y-18511214D01*
X7566700Y-18409614D02*
X7769900Y-18409614D01*
X7769900Y-18409614D02*
G75*
G03*
X7769900Y-18409614I-101600J0D01*
G01*
X7668300Y-19671994D02*
X7668300Y-19875194D01*
X7566700Y-19773594D02*
X7769900Y-19773594D01*
X7769900Y-19773594D02*
G75*
G03*
X7769900Y-19773594I-101600J0D01*
G01*
X7698400Y-3860700D02*
X7698400Y-4063900D01*
X7596800Y-3962300D02*
X7800000Y-3962300D01*
X7800000Y-3962300D02*
G75*
G03*
X7800000Y-3962300I-101600J0D01*
G01*
X7698400Y-5224680D02*
X7698400Y-5427880D01*
X7596800Y-5326280D02*
X7800000Y-5326280D01*
X7800000Y-5326280D02*
G75*
G03*
X7800000Y-5326280I-101600J0D01*
G01*
X27768300Y-3864480D02*
X27768300Y-4067680D01*
X27666700Y-3966080D02*
X27869900Y-3966080D01*
X27869900Y-3966080D02*
G75*
G03*
X27869900Y-3966080I-101600J0D01*
G01*
X27768300Y-5228460D02*
X27768300Y-5431660D01*
X27666700Y-5330060D02*
X27869900Y-5330060D01*
X27869900Y-5330060D02*
G75*
G03*
X27869900Y-5330060I-101600J0D01*
G01*
X27768300Y-8634480D02*
X27768300Y-8837680D01*
X27666700Y-8736080D02*
X27869900Y-8736080D01*
X27869900Y-8736080D02*
G75*
G03*
X27869900Y-8736080I-101600J0D01*
G01*
X27768300Y-9998460D02*
X27768300Y-10201660D01*
X27666700Y-10100060D02*
X27869900Y-10100060D01*
X27869900Y-10100060D02*
G75*
G03*
X27869900Y-10100060I-101600J0D01*
G01*
X27768300Y-13404480D02*
X27768300Y-13607680D01*
X27666700Y-13506080D02*
X27869900Y-13506080D01*
X27869900Y-13506080D02*
G75*
G03*
X27869900Y-13506080I-101600J0D01*
G01*
X27768300Y-14768460D02*
X27768300Y-14971660D01*
X27666700Y-14870060D02*
X27869900Y-14870060D01*
X27869900Y-14870060D02*
G75*
G03*
X27869900Y-14870060I-101600J0D01*
G01*
X27768300Y-18174480D02*
X27768300Y-18377680D01*
X27666700Y-18276080D02*
X27869900Y-18276080D01*
X27869900Y-18276080D02*
G75*
G03*
X27869900Y-18276080I-101600J0D01*
G01*
X27768300Y-19538460D02*
X27768300Y-19741660D01*
X27666700Y-19640060D02*
X27869900Y-19640060D01*
X27869900Y-19640060D02*
G75*
G03*
X27869900Y-19640060I-101600J0D01*
G01*
X30752300Y-6245700D02*
X30752300Y-6448900D01*
X30650700Y-6347300D02*
X30853900Y-6347300D01*
X30853900Y-6347300D02*
G75*
G03*
X30853900Y-6347300I-101600J0D01*
G01*
X30752300Y-7609680D02*
X30752300Y-7812880D01*
X30650700Y-7711280D02*
X30853900Y-7711280D01*
X30853900Y-7711280D02*
G75*
G03*
X30853900Y-7711280I-101600J0D01*
G01*
X30752300Y-11015700D02*
X30752300Y-11218900D01*
X30650700Y-11117300D02*
X30853900Y-11117300D01*
X30853900Y-11117300D02*
G75*
G03*
X30853900Y-11117300I-101600J0D01*
G01*
X30752300Y-12379680D02*
X30752300Y-12582880D01*
X30650700Y-12481280D02*
X30853900Y-12481280D01*
X30853900Y-12481280D02*
G75*
G03*
X30853900Y-12481280I-101600J0D01*
G01*
X30752300Y-15785700D02*
X30752300Y-15988900D01*
X30650700Y-15887300D02*
X30853900Y-15887300D01*
X30853900Y-15887300D02*
G75*
G03*
X30853900Y-15887300I-101600J0D01*
G01*
X30752300Y-17149680D02*
X30752300Y-17352880D01*
X30650700Y-17251280D02*
X30853900Y-17251280D01*
X30853900Y-17251280D02*
G75*
G03*
X30853900Y-17251280I-101600J0D01*
G01*
X30802300Y-20555700D02*
X30802300Y-20758900D01*
X30700700Y-20657300D02*
X30903900Y-20657300D01*
X30903900Y-20657300D02*
G75*
G03*
X30903900Y-20657300I-101600J0D01*
G01*
X30802300Y-21919680D02*
X30802300Y-22122880D01*
X30700700Y-22021280D02*
X30903900Y-22021280D01*
X30903900Y-22021280D02*
G75*
G03*
X30903900Y-22021280I-101600J0D01*
G01*
D22*
X9685044Y-5591804D02*
X9685044Y-5358316D01*
X9451556Y-5358316D01*
X9451556Y-5591804D01*
X9685044Y-5591804D01*
X9733400Y-5475060D02*
G75*
G03*
X9733400Y-5475060I-165100J0D01*
G01*
X9685044Y-9511024D02*
X9685044Y-9277536D01*
X9451556Y-9277536D01*
X9451556Y-9511024D01*
X9685044Y-9511024D01*
X9733400Y-9394280D02*
G75*
G03*
X9733400Y-9394280I-165100J0D01*
G01*
X15019044Y-5591804D02*
X15019044Y-5358316D01*
X14785556Y-5358316D01*
X14785556Y-5591804D01*
X15019044Y-5591804D01*
X15067400Y-5475060D02*
G75*
G03*
X15067400Y-5475060I-165100J0D01*
G01*
X15019044Y-9511024D02*
X15019044Y-9277536D01*
X14785556Y-9277536D01*
X14785556Y-9511024D01*
X15019044Y-9511024D01*
X15067400Y-9394280D02*
G75*
G03*
X15067400Y-9394280I-165100J0D01*
G01*
X20702544Y-5591804D02*
X20702544Y-5358316D01*
X20469056Y-5358316D01*
X20469056Y-5591804D01*
X20702544Y-5591804D01*
X20750900Y-5475060D02*
G75*
G03*
X20750900Y-5475060I-165100J0D01*
G01*
X20702544Y-9511024D02*
X20702544Y-9277536D01*
X20469056Y-9277536D01*
X20469056Y-9511024D01*
X20702544Y-9511024D01*
X20750900Y-9394280D02*
G75*
G03*
X20750900Y-9394280I-165100J0D01*
G01*
X26036544Y-5591804D02*
X26036544Y-5358316D01*
X25803056Y-5358316D01*
X25803056Y-5591804D01*
X26036544Y-5591804D01*
X26084900Y-5475060D02*
G75*
G03*
X26084900Y-5475060I-165100J0D01*
G01*
X26036544Y-9511024D02*
X26036544Y-9277536D01*
X25803056Y-9277536D01*
X25803056Y-9511024D01*
X26036544Y-9511024D01*
X26084900Y-9394280D02*
G75*
G03*
X26084900Y-9394280I-165100J0D01*
G01*
D23*
X10268300Y-11838430D02*
X10439750Y-11666980D01*
X10268300Y-11495530D01*
X10096850Y-11666980D01*
X10268300Y-11838430D01*
X10439750Y-11666980D02*
G75*
G03*
X10439750Y-11666980I-171450J0D01*
G01*
X10268300Y-20842730D02*
X10439750Y-20671280D01*
X10268300Y-20499830D01*
X10096850Y-20671280D01*
X10268300Y-20842730D01*
X10439750Y-20671280D02*
G75*
G03*
X10439750Y-20671280I-171450J0D01*
G01*
X25252300Y-11838430D02*
X25423750Y-11666980D01*
X25252300Y-11495530D01*
X25080850Y-11666980D01*
X25252300Y-11838430D01*
X25423750Y-11666980D02*
G75*
G03*
X25423750Y-11666980I-171450J0D01*
G01*
X25252300Y-20842730D02*
X25423750Y-20671280D01*
X25252300Y-20499830D01*
X25080850Y-20671280D01*
X25252300Y-20842730D01*
X25423750Y-20671280D02*
G75*
G03*
X25423750Y-20671280I-171450J0D01*
G01*
D24*
X3121660Y-6608240D02*
X3121660Y-7138240D01*
X2856660Y-6873240D02*
X3386660Y-6873240D01*
X3309045Y-7060625D02*
X3309045Y-6685855D01*
X2934275Y-6685855D01*
X2934275Y-7060625D01*
X3309045Y-7060625D01*
X3121660Y-19105040D02*
X3121660Y-19635040D01*
X2856660Y-19370040D02*
X3386660Y-19370040D01*
X3309045Y-19557425D02*
X3309045Y-19182655D01*
X2934275Y-19182655D01*
X2934275Y-19557425D01*
X3309045Y-19557425D01*
X9279890Y-2956990D02*
X9279890Y-3486990D01*
X9014890Y-3221990D02*
X9544890Y-3221990D01*
X9467275Y-3409375D02*
X9467275Y-3034605D01*
X9092505Y-3034605D01*
X9092505Y-3409375D01*
X9467275Y-3409375D01*
X9279890Y-22756290D02*
X9279890Y-23286290D01*
X9014890Y-23021290D02*
X9544890Y-23021290D01*
X9467275Y-23208675D02*
X9467275Y-22833905D01*
X9092505Y-22833905D01*
X9092505Y-23208675D01*
X9467275Y-23208675D01*
X14278610Y-2956990D02*
X14278610Y-3486990D01*
X14013610Y-3221990D02*
X14543610Y-3221990D01*
X14465995Y-3409375D02*
X14465995Y-3034605D01*
X14091225Y-3034605D01*
X14091225Y-3409375D01*
X14465995Y-3409375D01*
X14278610Y-22756290D02*
X14278610Y-23286290D01*
X14013610Y-23021290D02*
X14543610Y-23021290D01*
X14465995Y-23208675D02*
X14465995Y-22833905D01*
X14091225Y-22833905D01*
X14091225Y-23208675D01*
X14465995Y-23208675D01*
X21776690Y-2956990D02*
X21776690Y-3486990D01*
X21511690Y-3221990D02*
X22041690Y-3221990D01*
X21964075Y-3409375D02*
X21964075Y-3034605D01*
X21589305Y-3034605D01*
X21589305Y-3409375D01*
X21964075Y-3409375D01*
X21776690Y-22756290D02*
X21776690Y-23286290D01*
X21511690Y-23021290D02*
X22041690Y-23021290D01*
X21964075Y-23208675D02*
X21964075Y-22833905D01*
X21589305Y-22833905D01*
X21589305Y-23208675D01*
X21964075Y-23208675D01*
X26775410Y-2956990D02*
X26775410Y-3486990D01*
X26510410Y-3221990D02*
X27040410Y-3221990D01*
X26962795Y-3409375D02*
X26962795Y-3034605D01*
X26588025Y-3034605D01*
X26588025Y-3409375D01*
X26962795Y-3409375D01*
X26775410Y-22756290D02*
X26775410Y-23286290D01*
X26510410Y-23021290D02*
X27040410Y-23021290D01*
X26962795Y-23208675D02*
X26962795Y-22833905D01*
X26588025Y-22833905D01*
X26588025Y-23208675D01*
X26962795Y-23208675D01*
X32920940Y-6608240D02*
X32920940Y-7138240D01*
X32655940Y-6873240D02*
X33185940Y-6873240D01*
X33108325Y-7060625D02*
X33108325Y-6685855D01*
X32733555Y-6685855D01*
X32733555Y-7060625D01*
X33108325Y-7060625D01*
X32920940Y-19105040D02*
X32920940Y-19635040D01*
X32655940Y-19370040D02*
X33185940Y-19370040D01*
X33108325Y-19557425D02*
X33108325Y-19182655D01*
X32733555Y-19182655D01*
X32733555Y-19557425D01*
X33108325Y-19557425D01*
D11*
X2779919Y-23937476D02*
X2779919Y-23737476D01*
X2827538Y-23737476D01*
X2856109Y-23747000D01*
X2875157Y-23766048D01*
X2884681Y-23785095D01*
X2894205Y-23823190D01*
X2894205Y-23851762D01*
X2884681Y-23889857D01*
X2875157Y-23908905D01*
X2856109Y-23927952D01*
X2827538Y-23937476D01*
X2779919Y-23937476D01*
X2979919Y-23937476D02*
X2979919Y-23804143D01*
X2979919Y-23842238D02*
X2989443Y-23823190D01*
X2998967Y-23813667D01*
X3018014Y-23804143D01*
X3037062Y-23804143D01*
X3103728Y-23937476D02*
X3103728Y-23804143D01*
X3103728Y-23737476D02*
X3094205Y-23747000D01*
X3103728Y-23756524D01*
X3113252Y-23747000D01*
X3103728Y-23737476D01*
X3103728Y-23756524D01*
X3227538Y-23937476D02*
X3208490Y-23927952D01*
X3198967Y-23908905D01*
X3198967Y-23737476D01*
X3332300Y-23937476D02*
X3313252Y-23927952D01*
X3303728Y-23908905D01*
X3303728Y-23737476D01*
X3560871Y-23937476D02*
X3560871Y-23737476D01*
X3627538Y-23880333D01*
X3694205Y-23737476D01*
X3694205Y-23937476D01*
X3875157Y-23937476D02*
X3875157Y-23832714D01*
X3865633Y-23813667D01*
X3846586Y-23804143D01*
X3808490Y-23804143D01*
X3789443Y-23813667D01*
X3875157Y-23927952D02*
X3856109Y-23937476D01*
X3808490Y-23937476D01*
X3789443Y-23927952D01*
X3779919Y-23908905D01*
X3779919Y-23889857D01*
X3789443Y-23870809D01*
X3808490Y-23861286D01*
X3856109Y-23861286D01*
X3875157Y-23851762D01*
X3970395Y-23804143D02*
X3970395Y-24004143D01*
X3970395Y-23813667D02*
X3989443Y-23804143D01*
X4027538Y-23804143D01*
X4046586Y-23813667D01*
X4056109Y-23823190D01*
X4065633Y-23842238D01*
X4065633Y-23899381D01*
X4056109Y-23918428D01*
X4046586Y-23927952D01*
X4027538Y-23937476D01*
X3989443Y-23937476D01*
X3970395Y-23927952D01*
X4151348Y-23918428D02*
X4160871Y-23927952D01*
X4151348Y-23937476D01*
X4141824Y-23927952D01*
X4151348Y-23918428D01*
X4151348Y-23937476D01*
X4151348Y-23813667D02*
X4160871Y-23823190D01*
X4151348Y-23832714D01*
X4141824Y-23823190D01*
X4151348Y-23813667D01*
X4151348Y-23832714D01*
D12*
X2492300Y-24252000D02*
X2522300Y-24282000D01*
X2522300Y-24252000D02*
X2492300Y-24282000D01*
D11*
X2818014Y-24157476D02*
X2837062Y-24157476D01*
X2856109Y-24167000D01*
X2865633Y-24176524D01*
X2875157Y-24195571D01*
X2884681Y-24233667D01*
X2884681Y-24281286D01*
X2875157Y-24319381D01*
X2865633Y-24338428D01*
X2856109Y-24347952D01*
X2837062Y-24357476D01*
X2818014Y-24357476D01*
X2798967Y-24347952D01*
X2789443Y-24338428D01*
X2779919Y-24319381D01*
X2770395Y-24281286D01*
X2770395Y-24233667D01*
X2779919Y-24195571D01*
X2789443Y-24176524D01*
X2798967Y-24167000D01*
X2818014Y-24157476D01*
X2970395Y-24338428D02*
X2979919Y-24347952D01*
X2970395Y-24357476D01*
X2960871Y-24347952D01*
X2970395Y-24338428D01*
X2970395Y-24357476D01*
X3046586Y-24157476D02*
X3170395Y-24157476D01*
X3103728Y-24233667D01*
X3132300Y-24233667D01*
X3151348Y-24243190D01*
X3160871Y-24252714D01*
X3170395Y-24271762D01*
X3170395Y-24319381D01*
X3160871Y-24338428D01*
X3151348Y-24347952D01*
X3132300Y-24357476D01*
X3075157Y-24357476D01*
X3056109Y-24347952D01*
X3046586Y-24338428D01*
X3294205Y-24157476D02*
X3313252Y-24157476D01*
X3332300Y-24167000D01*
X3341824Y-24176524D01*
X3351348Y-24195571D01*
X3360871Y-24233667D01*
X3360871Y-24281286D01*
X3351348Y-24319381D01*
X3341824Y-24338428D01*
X3332300Y-24347952D01*
X3313252Y-24357476D01*
X3294205Y-24357476D01*
X3275157Y-24347952D01*
X3265633Y-24338428D01*
X3256109Y-24319381D01*
X3246586Y-24281286D01*
X3246586Y-24233667D01*
X3256109Y-24195571D01*
X3265633Y-24176524D01*
X3275157Y-24167000D01*
X3294205Y-24157476D01*
X3484681Y-24157476D02*
X3503728Y-24157476D01*
X3522776Y-24167000D01*
X3532300Y-24176524D01*
X3541824Y-24195571D01*
X3551348Y-24233667D01*
X3551348Y-24281286D01*
X3541824Y-24319381D01*
X3532300Y-24338428D01*
X3522776Y-24347952D01*
X3503728Y-24357476D01*
X3484681Y-24357476D01*
X3465633Y-24347952D01*
X3456109Y-24338428D01*
X3446586Y-24319381D01*
X3437062Y-24281286D01*
X3437062Y-24233667D01*
X3446586Y-24195571D01*
X3456109Y-24176524D01*
X3465633Y-24167000D01*
X3484681Y-24157476D01*
X3637062Y-24357476D02*
X3637062Y-24224143D01*
X3637062Y-24243190D02*
X3646586Y-24233667D01*
X3665633Y-24224143D01*
X3694205Y-24224143D01*
X3713252Y-24233667D01*
X3722776Y-24252714D01*
X3722776Y-24357476D01*
X3722776Y-24252714D02*
X3732300Y-24233667D01*
X3751348Y-24224143D01*
X3779919Y-24224143D01*
X3798967Y-24233667D01*
X3808490Y-24252714D01*
X3808490Y-24357476D01*
X3903728Y-24357476D02*
X3903728Y-24224143D01*
X3903728Y-24243190D02*
X3913252Y-24233667D01*
X3932300Y-24224143D01*
X3960871Y-24224143D01*
X3979919Y-24233667D01*
X3989443Y-24252714D01*
X3989443Y-24357476D01*
X3989443Y-24252714D02*
X3998967Y-24233667D01*
X4018014Y-24224143D01*
X4046586Y-24224143D01*
X4065633Y-24233667D01*
X4075157Y-24252714D01*
X4075157Y-24357476D01*
X4465633Y-24147952D02*
X4294205Y-24405095D01*
X4722776Y-24157476D02*
X4741824Y-24157476D01*
X4760871Y-24167000D01*
X4770395Y-24176524D01*
X4779919Y-24195571D01*
X4789443Y-24233667D01*
X4789443Y-24281286D01*
X4779919Y-24319381D01*
X4770395Y-24338428D01*
X4760871Y-24347952D01*
X4741824Y-24357476D01*
X4722776Y-24357476D01*
X4703729Y-24347952D01*
X4694205Y-24338428D01*
X4684681Y-24319381D01*
X4675157Y-24281286D01*
X4675157Y-24233667D01*
X4684681Y-24195571D01*
X4694205Y-24176524D01*
X4703729Y-24167000D01*
X4722776Y-24157476D01*
X4875157Y-24338428D02*
X4884681Y-24347952D01*
X4875157Y-24357476D01*
X4865633Y-24347952D01*
X4875157Y-24338428D01*
X4875157Y-24357476D01*
X5008490Y-24157476D02*
X5027538Y-24157476D01*
X5046586Y-24167000D01*
X5056110Y-24176524D01*
X5065633Y-24195571D01*
X5075157Y-24233667D01*
X5075157Y-24281286D01*
X5065633Y-24319381D01*
X5056110Y-24338428D01*
X5046586Y-24347952D01*
X5027538Y-24357476D01*
X5008490Y-24357476D01*
X4989443Y-24347952D01*
X4979919Y-24338428D01*
X4970395Y-24319381D01*
X4960871Y-24281286D01*
X4960871Y-24233667D01*
X4970395Y-24195571D01*
X4979919Y-24176524D01*
X4989443Y-24167000D01*
X5008490Y-24157476D01*
X5265633Y-24357476D02*
X5151348Y-24357476D01*
X5208490Y-24357476D02*
X5208490Y-24157476D01*
X5189443Y-24186048D01*
X5170395Y-24205095D01*
X5151348Y-24214619D01*
X5456110Y-24357476D02*
X5341824Y-24357476D01*
X5398967Y-24357476D02*
X5398967Y-24157476D01*
X5379919Y-24186048D01*
X5360871Y-24205095D01*
X5341824Y-24214619D01*
X5570395Y-24243190D02*
X5551348Y-24233667D01*
X5541824Y-24224143D01*
X5532300Y-24205095D01*
X5532300Y-24195571D01*
X5541824Y-24176524D01*
X5551348Y-24167000D01*
X5570395Y-24157476D01*
X5608490Y-24157476D01*
X5627538Y-24167000D01*
X5637062Y-24176524D01*
X5646586Y-24195571D01*
X5646586Y-24205095D01*
X5637062Y-24224143D01*
X5627538Y-24233667D01*
X5608490Y-24243190D01*
X5570395Y-24243190D01*
X5551348Y-24252714D01*
X5541824Y-24262238D01*
X5532300Y-24281286D01*
X5532300Y-24319381D01*
X5541824Y-24338428D01*
X5551348Y-24347952D01*
X5570395Y-24357476D01*
X5608490Y-24357476D01*
X5627538Y-24347952D01*
X5637062Y-24338428D01*
X5646586Y-24319381D01*
X5646586Y-24281286D01*
X5637062Y-24262238D01*
X5627538Y-24252714D01*
X5608490Y-24243190D01*
X5722776Y-24157476D02*
X5722776Y-24195571D01*
X5798967Y-24157476D02*
X5798967Y-24195571D01*
X6094205Y-24433667D02*
X6084681Y-24424143D01*
X6065633Y-24395571D01*
X6056109Y-24376524D01*
X6046586Y-24347952D01*
X6037062Y-24300333D01*
X6037062Y-24262238D01*
X6046586Y-24214619D01*
X6056109Y-24186048D01*
X6065633Y-24167000D01*
X6084681Y-24138428D01*
X6094205Y-24128905D01*
X6275157Y-24357476D02*
X6160871Y-24357476D01*
X6218014Y-24357476D02*
X6218014Y-24157476D01*
X6198967Y-24186048D01*
X6179919Y-24205095D01*
X6160871Y-24214619D01*
X6446586Y-24157476D02*
X6408490Y-24157476D01*
X6389443Y-24167000D01*
X6379919Y-24176524D01*
X6360871Y-24205095D01*
X6351348Y-24243190D01*
X6351348Y-24319381D01*
X6360871Y-24338428D01*
X6370395Y-24347952D01*
X6389443Y-24357476D01*
X6427538Y-24357476D01*
X6446586Y-24347952D01*
X6456109Y-24338428D01*
X6465633Y-24319381D01*
X6465633Y-24271762D01*
X6456109Y-24252714D01*
X6446586Y-24243190D01*
X6427538Y-24233667D01*
X6389443Y-24233667D01*
X6370395Y-24243190D01*
X6360871Y-24252714D01*
X6351348Y-24271762D01*
X6703728Y-24357476D02*
X6703728Y-24157476D01*
X6789443Y-24357476D02*
X6789443Y-24252714D01*
X6779919Y-24233667D01*
X6760871Y-24224143D01*
X6732300Y-24224143D01*
X6713252Y-24233667D01*
X6703728Y-24243190D01*
X6913252Y-24357476D02*
X6894205Y-24347952D01*
X6884681Y-24338428D01*
X6875157Y-24319381D01*
X6875157Y-24262238D01*
X6884681Y-24243190D01*
X6894205Y-24233667D01*
X6913252Y-24224143D01*
X6941824Y-24224143D01*
X6960871Y-24233667D01*
X6970395Y-24243190D01*
X6979919Y-24262238D01*
X6979919Y-24319381D01*
X6970395Y-24338428D01*
X6960871Y-24347952D01*
X6941824Y-24357476D01*
X6913252Y-24357476D01*
X7094205Y-24357476D02*
X7075157Y-24347952D01*
X7065633Y-24328905D01*
X7065633Y-24157476D01*
X7246586Y-24347952D02*
X7227538Y-24357476D01*
X7189443Y-24357476D01*
X7170395Y-24347952D01*
X7160871Y-24328905D01*
X7160871Y-24252714D01*
X7170395Y-24233667D01*
X7189443Y-24224143D01*
X7227538Y-24224143D01*
X7246586Y-24233667D01*
X7256109Y-24252714D01*
X7256109Y-24271762D01*
X7160871Y-24290809D01*
X7332300Y-24347952D02*
X7351348Y-24357476D01*
X7389443Y-24357476D01*
X7408490Y-24347952D01*
X7418014Y-24328905D01*
X7418014Y-24319381D01*
X7408490Y-24300333D01*
X7389443Y-24290809D01*
X7360871Y-24290809D01*
X7341824Y-24281286D01*
X7332300Y-24262238D01*
X7332300Y-24252714D01*
X7341824Y-24233667D01*
X7360871Y-24224143D01*
X7389443Y-24224143D01*
X7408490Y-24233667D01*
X7484681Y-24433667D02*
X7494205Y-24424143D01*
X7513252Y-24395571D01*
X7522776Y-24376524D01*
X7532300Y-24347952D01*
X7541824Y-24300333D01*
X7541824Y-24262238D01*
X7532300Y-24214619D01*
X7522776Y-24186048D01*
X7513252Y-24167000D01*
X7494205Y-24138428D01*
X7484681Y-24128905D01*
D13*
X2522300Y-24531000D02*
G75*
G03*
X2522300Y-24531000I-20000J0D01*
G01*
D11*
X2818014Y-24421476D02*
X2837062Y-24421476D01*
X2856109Y-24431000D01*
X2865633Y-24440524D01*
X2875157Y-24459571D01*
X2884681Y-24497667D01*
X2884681Y-24545286D01*
X2875157Y-24583381D01*
X2865633Y-24602428D01*
X2856109Y-24611952D01*
X2837062Y-24621476D01*
X2818014Y-24621476D01*
X2798967Y-24611952D01*
X2789443Y-24602428D01*
X2779919Y-24583381D01*
X2770395Y-24545286D01*
X2770395Y-24497667D01*
X2779919Y-24459571D01*
X2789443Y-24440524D01*
X2798967Y-24431000D01*
X2818014Y-24421476D01*
X2970395Y-24602428D02*
X2979919Y-24611952D01*
X2970395Y-24621476D01*
X2960871Y-24611952D01*
X2970395Y-24602428D01*
X2970395Y-24621476D01*
X3151348Y-24488143D02*
X3151348Y-24621476D01*
X3103728Y-24411952D02*
X3056109Y-24554809D01*
X3179919Y-24554809D01*
X3294205Y-24421476D02*
X3313252Y-24421476D01*
X3332300Y-24431000D01*
X3341824Y-24440524D01*
X3351348Y-24459571D01*
X3360871Y-24497667D01*
X3360871Y-24545286D01*
X3351348Y-24583381D01*
X3341824Y-24602428D01*
X3332300Y-24611952D01*
X3313252Y-24621476D01*
X3294205Y-24621476D01*
X3275157Y-24611952D01*
X3265633Y-24602428D01*
X3256109Y-24583381D01*
X3246586Y-24545286D01*
X3246586Y-24497667D01*
X3256109Y-24459571D01*
X3265633Y-24440524D01*
X3275157Y-24431000D01*
X3294205Y-24421476D01*
X3484681Y-24421476D02*
X3503728Y-24421476D01*
X3522776Y-24431000D01*
X3532300Y-24440524D01*
X3541824Y-24459571D01*
X3551348Y-24497667D01*
X3551348Y-24545286D01*
X3541824Y-24583381D01*
X3532300Y-24602428D01*
X3522776Y-24611952D01*
X3503728Y-24621476D01*
X3484681Y-24621476D01*
X3465633Y-24611952D01*
X3456109Y-24602428D01*
X3446586Y-24583381D01*
X3437062Y-24545286D01*
X3437062Y-24497667D01*
X3446586Y-24459571D01*
X3456109Y-24440524D01*
X3465633Y-24431000D01*
X3484681Y-24421476D01*
X3637062Y-24621476D02*
X3637062Y-24488143D01*
X3637062Y-24507190D02*
X3646586Y-24497667D01*
X3665633Y-24488143D01*
X3694205Y-24488143D01*
X3713252Y-24497667D01*
X3722776Y-24516714D01*
X3722776Y-24621476D01*
X3722776Y-24516714D02*
X3732300Y-24497667D01*
X3751348Y-24488143D01*
X3779919Y-24488143D01*
X3798967Y-24497667D01*
X3808490Y-24516714D01*
X3808490Y-24621476D01*
X3903728Y-24621476D02*
X3903728Y-24488143D01*
X3903728Y-24507190D02*
X3913252Y-24497667D01*
X3932300Y-24488143D01*
X3960871Y-24488143D01*
X3979919Y-24497667D01*
X3989443Y-24516714D01*
X3989443Y-24621476D01*
X3989443Y-24516714D02*
X3998967Y-24497667D01*
X4018014Y-24488143D01*
X4046586Y-24488143D01*
X4065633Y-24497667D01*
X4075157Y-24516714D01*
X4075157Y-24621476D01*
X4465633Y-24411952D02*
X4294205Y-24669095D01*
X4722776Y-24421476D02*
X4741824Y-24421476D01*
X4760871Y-24431000D01*
X4770395Y-24440524D01*
X4779919Y-24459571D01*
X4789443Y-24497667D01*
X4789443Y-24545286D01*
X4779919Y-24583381D01*
X4770395Y-24602428D01*
X4760871Y-24611952D01*
X4741824Y-24621476D01*
X4722776Y-24621476D01*
X4703729Y-24611952D01*
X4694205Y-24602428D01*
X4684681Y-24583381D01*
X4675157Y-24545286D01*
X4675157Y-24497667D01*
X4684681Y-24459571D01*
X4694205Y-24440524D01*
X4703729Y-24431000D01*
X4722776Y-24421476D01*
X4875157Y-24602428D02*
X4884681Y-24611952D01*
X4875157Y-24621476D01*
X4865633Y-24611952D01*
X4875157Y-24602428D01*
X4875157Y-24621476D01*
X5008490Y-24421476D02*
X5027538Y-24421476D01*
X5046586Y-24431000D01*
X5056110Y-24440524D01*
X5065633Y-24459571D01*
X5075157Y-24497667D01*
X5075157Y-24545286D01*
X5065633Y-24583381D01*
X5056110Y-24602428D01*
X5046586Y-24611952D01*
X5027538Y-24621476D01*
X5008490Y-24621476D01*
X4989443Y-24611952D01*
X4979919Y-24602428D01*
X4970395Y-24583381D01*
X4960871Y-24545286D01*
X4960871Y-24497667D01*
X4970395Y-24459571D01*
X4979919Y-24440524D01*
X4989443Y-24431000D01*
X5008490Y-24421476D01*
X5265633Y-24621476D02*
X5151348Y-24621476D01*
X5208490Y-24621476D02*
X5208490Y-24421476D01*
X5189443Y-24450048D01*
X5170395Y-24469095D01*
X5151348Y-24478619D01*
X5446586Y-24421476D02*
X5351348Y-24421476D01*
X5341824Y-24516714D01*
X5351348Y-24507190D01*
X5370395Y-24497667D01*
X5418014Y-24497667D01*
X5437062Y-24507190D01*
X5446586Y-24516714D01*
X5456110Y-24535762D01*
X5456110Y-24583381D01*
X5446586Y-24602428D01*
X5437062Y-24611952D01*
X5418014Y-24621476D01*
X5370395Y-24621476D01*
X5351348Y-24611952D01*
X5341824Y-24602428D01*
X5522776Y-24421476D02*
X5656109Y-24421476D01*
X5570395Y-24621476D01*
X5722776Y-24421476D02*
X5722776Y-24459571D01*
X5798967Y-24421476D02*
X5798967Y-24459571D01*
X6094205Y-24697667D02*
X6084681Y-24688143D01*
X6065633Y-24659571D01*
X6056109Y-24640524D01*
X6046586Y-24611952D01*
X6037062Y-24564333D01*
X6037062Y-24526238D01*
X6046586Y-24478619D01*
X6056109Y-24450048D01*
X6065633Y-24431000D01*
X6084681Y-24402428D01*
X6094205Y-24392905D01*
X6179919Y-24621476D02*
X6218014Y-24621476D01*
X6237062Y-24611952D01*
X6246586Y-24602428D01*
X6265633Y-24573857D01*
X6275157Y-24535762D01*
X6275157Y-24459571D01*
X6265633Y-24440524D01*
X6256109Y-24431000D01*
X6237062Y-24421476D01*
X6198967Y-24421476D01*
X6179919Y-24431000D01*
X6170395Y-24440524D01*
X6160871Y-24459571D01*
X6160871Y-24507190D01*
X6170395Y-24526238D01*
X6179919Y-24535762D01*
X6198967Y-24545286D01*
X6237062Y-24545286D01*
X6256109Y-24535762D01*
X6265633Y-24526238D01*
X6275157Y-24507190D01*
X6341824Y-24421476D02*
X6475157Y-24421476D01*
X6389443Y-24621476D01*
X6703728Y-24621476D02*
X6703728Y-24421476D01*
X6789443Y-24621476D02*
X6789443Y-24516714D01*
X6779919Y-24497667D01*
X6760871Y-24488143D01*
X6732300Y-24488143D01*
X6713252Y-24497667D01*
X6703728Y-24507190D01*
X6913252Y-24621476D02*
X6894205Y-24611952D01*
X6884681Y-24602428D01*
X6875157Y-24583381D01*
X6875157Y-24526238D01*
X6884681Y-24507190D01*
X6894205Y-24497667D01*
X6913252Y-24488143D01*
X6941824Y-24488143D01*
X6960871Y-24497667D01*
X6970395Y-24507190D01*
X6979919Y-24526238D01*
X6979919Y-24583381D01*
X6970395Y-24602428D01*
X6960871Y-24611952D01*
X6941824Y-24621476D01*
X6913252Y-24621476D01*
X7094205Y-24621476D02*
X7075157Y-24611952D01*
X7065633Y-24592905D01*
X7065633Y-24421476D01*
X7246586Y-24611952D02*
X7227538Y-24621476D01*
X7189443Y-24621476D01*
X7170395Y-24611952D01*
X7160871Y-24592905D01*
X7160871Y-24516714D01*
X7170395Y-24497667D01*
X7189443Y-24488143D01*
X7227538Y-24488143D01*
X7246586Y-24497667D01*
X7256109Y-24516714D01*
X7256109Y-24535762D01*
X7160871Y-24554809D01*
X7332300Y-24611952D02*
X7351348Y-24621476D01*
X7389443Y-24621476D01*
X7408490Y-24611952D01*
X7418014Y-24592905D01*
X7418014Y-24583381D01*
X7408490Y-24564333D01*
X7389443Y-24554809D01*
X7360871Y-24554809D01*
X7341824Y-24545286D01*
X7332300Y-24526238D01*
X7332300Y-24516714D01*
X7341824Y-24497667D01*
X7360871Y-24488143D01*
X7389443Y-24488143D01*
X7408490Y-24497667D01*
X7484681Y-24697667D02*
X7494205Y-24688143D01*
X7513252Y-24659571D01*
X7522776Y-24640524D01*
X7532300Y-24611952D01*
X7541824Y-24564333D01*
X7541824Y-24526238D01*
X7532300Y-24478619D01*
X7522776Y-24450048D01*
X7513252Y-24431000D01*
X7494205Y-24402428D01*
X7484681Y-24392905D01*
D14*
X2487300Y-24760000D02*
X2487300Y-24830000D01*
X2452300Y-24795000D02*
X2522300Y-24795000D01*
D11*
X2818014Y-24685476D02*
X2837062Y-24685476D01*
X2856109Y-24695000D01*
X2865633Y-24704524D01*
X2875157Y-24723571D01*
X2884681Y-24761667D01*
X2884681Y-24809286D01*
X2875157Y-24847381D01*
X2865633Y-24866428D01*
X2856109Y-24875952D01*
X2837062Y-24885476D01*
X2818014Y-24885476D01*
X2798967Y-24875952D01*
X2789443Y-24866428D01*
X2779919Y-24847381D01*
X2770395Y-24809286D01*
X2770395Y-24761667D01*
X2779919Y-24723571D01*
X2789443Y-24704524D01*
X2798967Y-24695000D01*
X2818014Y-24685476D01*
X2970395Y-24866428D02*
X2979919Y-24875952D01*
X2970395Y-24885476D01*
X2960871Y-24875952D01*
X2970395Y-24866428D01*
X2970395Y-24885476D01*
X3046586Y-24685476D02*
X3179919Y-24685476D01*
X3094205Y-24885476D01*
X3294205Y-24685476D02*
X3313252Y-24685476D01*
X3332300Y-24695000D01*
X3341824Y-24704524D01*
X3351348Y-24723571D01*
X3360871Y-24761667D01*
X3360871Y-24809286D01*
X3351348Y-24847381D01*
X3341824Y-24866428D01*
X3332300Y-24875952D01*
X3313252Y-24885476D01*
X3294205Y-24885476D01*
X3275157Y-24875952D01*
X3265633Y-24866428D01*
X3256109Y-24847381D01*
X3246586Y-24809286D01*
X3246586Y-24761667D01*
X3256109Y-24723571D01*
X3265633Y-24704524D01*
X3275157Y-24695000D01*
X3294205Y-24685476D01*
X3484681Y-24685476D02*
X3503728Y-24685476D01*
X3522776Y-24695000D01*
X3532300Y-24704524D01*
X3541824Y-24723571D01*
X3551348Y-24761667D01*
X3551348Y-24809286D01*
X3541824Y-24847381D01*
X3532300Y-24866428D01*
X3522776Y-24875952D01*
X3503728Y-24885476D01*
X3484681Y-24885476D01*
X3465633Y-24875952D01*
X3456109Y-24866428D01*
X3446586Y-24847381D01*
X3437062Y-24809286D01*
X3437062Y-24761667D01*
X3446586Y-24723571D01*
X3456109Y-24704524D01*
X3465633Y-24695000D01*
X3484681Y-24685476D01*
X3637062Y-24885476D02*
X3637062Y-24752143D01*
X3637062Y-24771190D02*
X3646586Y-24761667D01*
X3665633Y-24752143D01*
X3694205Y-24752143D01*
X3713252Y-24761667D01*
X3722776Y-24780714D01*
X3722776Y-24885476D01*
X3722776Y-24780714D02*
X3732300Y-24761667D01*
X3751348Y-24752143D01*
X3779919Y-24752143D01*
X3798967Y-24761667D01*
X3808490Y-24780714D01*
X3808490Y-24885476D01*
X3903728Y-24885476D02*
X3903728Y-24752143D01*
X3903728Y-24771190D02*
X3913252Y-24761667D01*
X3932300Y-24752143D01*
X3960871Y-24752143D01*
X3979919Y-24761667D01*
X3989443Y-24780714D01*
X3989443Y-24885476D01*
X3989443Y-24780714D02*
X3998967Y-24761667D01*
X4018014Y-24752143D01*
X4046586Y-24752143D01*
X4065633Y-24761667D01*
X4075157Y-24780714D01*
X4075157Y-24885476D01*
X4465633Y-24675952D02*
X4294205Y-24933095D01*
X4722776Y-24685476D02*
X4741824Y-24685476D01*
X4760871Y-24695000D01*
X4770395Y-24704524D01*
X4779919Y-24723571D01*
X4789443Y-24761667D01*
X4789443Y-24809286D01*
X4779919Y-24847381D01*
X4770395Y-24866428D01*
X4760871Y-24875952D01*
X4741824Y-24885476D01*
X4722776Y-24885476D01*
X4703729Y-24875952D01*
X4694205Y-24866428D01*
X4684681Y-24847381D01*
X4675157Y-24809286D01*
X4675157Y-24761667D01*
X4684681Y-24723571D01*
X4694205Y-24704524D01*
X4703729Y-24695000D01*
X4722776Y-24685476D01*
X4875157Y-24866428D02*
X4884681Y-24875952D01*
X4875157Y-24885476D01*
X4865633Y-24875952D01*
X4875157Y-24866428D01*
X4875157Y-24885476D01*
X5008490Y-24685476D02*
X5027538Y-24685476D01*
X5046586Y-24695000D01*
X5056110Y-24704524D01*
X5065633Y-24723571D01*
X5075157Y-24761667D01*
X5075157Y-24809286D01*
X5065633Y-24847381D01*
X5056110Y-24866428D01*
X5046586Y-24875952D01*
X5027538Y-24885476D01*
X5008490Y-24885476D01*
X4989443Y-24875952D01*
X4979919Y-24866428D01*
X4970395Y-24847381D01*
X4960871Y-24809286D01*
X4960871Y-24761667D01*
X4970395Y-24723571D01*
X4979919Y-24704524D01*
X4989443Y-24695000D01*
X5008490Y-24685476D01*
X5151348Y-24704524D02*
X5160871Y-24695000D01*
X5179919Y-24685476D01*
X5227538Y-24685476D01*
X5246586Y-24695000D01*
X5256110Y-24704524D01*
X5265633Y-24723571D01*
X5265633Y-24742619D01*
X5256110Y-24771190D01*
X5141824Y-24885476D01*
X5265633Y-24885476D01*
X5332300Y-24685476D02*
X5465633Y-24685476D01*
X5379919Y-24885476D01*
X5627538Y-24685476D02*
X5589443Y-24685476D01*
X5570395Y-24695000D01*
X5560871Y-24704524D01*
X5541824Y-24733095D01*
X5532300Y-24771190D01*
X5532300Y-24847381D01*
X5541824Y-24866428D01*
X5551348Y-24875952D01*
X5570395Y-24885476D01*
X5608490Y-24885476D01*
X5627538Y-24875952D01*
X5637062Y-24866428D01*
X5646586Y-24847381D01*
X5646586Y-24799762D01*
X5637062Y-24780714D01*
X5627538Y-24771190D01*
X5608490Y-24761667D01*
X5570395Y-24761667D01*
X5551348Y-24771190D01*
X5541824Y-24780714D01*
X5532300Y-24799762D01*
X5722776Y-24685476D02*
X5722776Y-24723571D01*
X5798967Y-24685476D02*
X5798967Y-24723571D01*
X6094205Y-24961667D02*
X6084681Y-24952143D01*
X6065633Y-24923571D01*
X6056109Y-24904524D01*
X6046586Y-24875952D01*
X6037062Y-24828333D01*
X6037062Y-24790238D01*
X6046586Y-24742619D01*
X6056109Y-24714048D01*
X6065633Y-24695000D01*
X6084681Y-24666428D01*
X6094205Y-24656905D01*
X6198967Y-24771190D02*
X6179919Y-24761667D01*
X6170395Y-24752143D01*
X6160871Y-24733095D01*
X6160871Y-24723571D01*
X6170395Y-24704524D01*
X6179919Y-24695000D01*
X6198967Y-24685476D01*
X6237062Y-24685476D01*
X6256109Y-24695000D01*
X6265633Y-24704524D01*
X6275157Y-24723571D01*
X6275157Y-24733095D01*
X6265633Y-24752143D01*
X6256109Y-24761667D01*
X6237062Y-24771190D01*
X6198967Y-24771190D01*
X6179919Y-24780714D01*
X6170395Y-24790238D01*
X6160871Y-24809286D01*
X6160871Y-24847381D01*
X6170395Y-24866428D01*
X6179919Y-24875952D01*
X6198967Y-24885476D01*
X6237062Y-24885476D01*
X6256109Y-24875952D01*
X6265633Y-24866428D01*
X6275157Y-24847381D01*
X6275157Y-24809286D01*
X6265633Y-24790238D01*
X6256109Y-24780714D01*
X6237062Y-24771190D01*
X6446586Y-24685476D02*
X6408490Y-24685476D01*
X6389443Y-24695000D01*
X6379919Y-24704524D01*
X6360871Y-24733095D01*
X6351348Y-24771190D01*
X6351348Y-24847381D01*
X6360871Y-24866428D01*
X6370395Y-24875952D01*
X6389443Y-24885476D01*
X6427538Y-24885476D01*
X6446586Y-24875952D01*
X6456109Y-24866428D01*
X6465633Y-24847381D01*
X6465633Y-24799762D01*
X6456109Y-24780714D01*
X6446586Y-24771190D01*
X6427538Y-24761667D01*
X6389443Y-24761667D01*
X6370395Y-24771190D01*
X6360871Y-24780714D01*
X6351348Y-24799762D01*
X6703728Y-24885476D02*
X6703728Y-24685476D01*
X6789443Y-24885476D02*
X6789443Y-24780714D01*
X6779919Y-24761667D01*
X6760871Y-24752143D01*
X6732300Y-24752143D01*
X6713252Y-24761667D01*
X6703728Y-24771190D01*
X6913252Y-24885476D02*
X6894205Y-24875952D01*
X6884681Y-24866428D01*
X6875157Y-24847381D01*
X6875157Y-24790238D01*
X6884681Y-24771190D01*
X6894205Y-24761667D01*
X6913252Y-24752143D01*
X6941824Y-24752143D01*
X6960871Y-24761667D01*
X6970395Y-24771190D01*
X6979919Y-24790238D01*
X6979919Y-24847381D01*
X6970395Y-24866428D01*
X6960871Y-24875952D01*
X6941824Y-24885476D01*
X6913252Y-24885476D01*
X7094205Y-24885476D02*
X7075157Y-24875952D01*
X7065633Y-24856905D01*
X7065633Y-24685476D01*
X7246586Y-24875952D02*
X7227538Y-24885476D01*
X7189443Y-24885476D01*
X7170395Y-24875952D01*
X7160871Y-24856905D01*
X7160871Y-24780714D01*
X7170395Y-24761667D01*
X7189443Y-24752143D01*
X7227538Y-24752143D01*
X7246586Y-24761667D01*
X7256109Y-24780714D01*
X7256109Y-24799762D01*
X7160871Y-24818809D01*
X7332300Y-24875952D02*
X7351348Y-24885476D01*
X7389443Y-24885476D01*
X7408490Y-24875952D01*
X7418014Y-24856905D01*
X7418014Y-24847381D01*
X7408490Y-24828333D01*
X7389443Y-24818809D01*
X7360871Y-24818809D01*
X7341824Y-24809286D01*
X7332300Y-24790238D01*
X7332300Y-24780714D01*
X7341824Y-24761667D01*
X7360871Y-24752143D01*
X7389443Y-24752143D01*
X7408490Y-24761667D01*
X7484681Y-24961667D02*
X7494205Y-24952143D01*
X7513252Y-24923571D01*
X7522776Y-24904524D01*
X7532300Y-24875952D01*
X7541824Y-24828333D01*
X7541824Y-24790238D01*
X7532300Y-24742619D01*
X7522776Y-24714048D01*
X7513252Y-24695000D01*
X7494205Y-24666428D01*
X7484681Y-24656905D01*
D15*
X2510585Y-25087284D02*
X2510585Y-25030715D01*
X2454016Y-25030715D01*
X2454016Y-25087284D01*
X2510585Y-25087284D01*
D11*
X2818014Y-24949476D02*
X2837062Y-24949476D01*
X2856109Y-24959000D01*
X2865633Y-24968524D01*
X2875157Y-24987571D01*
X2884681Y-25025667D01*
X2884681Y-25073286D01*
X2875157Y-25111381D01*
X2865633Y-25130428D01*
X2856109Y-25139952D01*
X2837062Y-25149476D01*
X2818014Y-25149476D01*
X2798967Y-25139952D01*
X2789443Y-25130428D01*
X2779919Y-25111381D01*
X2770395Y-25073286D01*
X2770395Y-25025667D01*
X2779919Y-24987571D01*
X2789443Y-24968524D01*
X2798967Y-24959000D01*
X2818014Y-24949476D01*
X2970395Y-25130428D02*
X2979919Y-25139952D01*
X2970395Y-25149476D01*
X2960871Y-25139952D01*
X2970395Y-25130428D01*
X2970395Y-25149476D01*
X3094205Y-25035190D02*
X3075157Y-25025667D01*
X3065633Y-25016143D01*
X3056109Y-24997095D01*
X3056109Y-24987571D01*
X3065633Y-24968524D01*
X3075157Y-24959000D01*
X3094205Y-24949476D01*
X3132300Y-24949476D01*
X3151348Y-24959000D01*
X3160871Y-24968524D01*
X3170395Y-24987571D01*
X3170395Y-24997095D01*
X3160871Y-25016143D01*
X3151348Y-25025667D01*
X3132300Y-25035190D01*
X3094205Y-25035190D01*
X3075157Y-25044714D01*
X3065633Y-25054238D01*
X3056109Y-25073286D01*
X3056109Y-25111381D01*
X3065633Y-25130428D01*
X3075157Y-25139952D01*
X3094205Y-25149476D01*
X3132300Y-25149476D01*
X3151348Y-25139952D01*
X3160871Y-25130428D01*
X3170395Y-25111381D01*
X3170395Y-25073286D01*
X3160871Y-25054238D01*
X3151348Y-25044714D01*
X3132300Y-25035190D01*
X3294205Y-24949476D02*
X3313252Y-24949476D01*
X3332300Y-24959000D01*
X3341824Y-24968524D01*
X3351348Y-24987571D01*
X3360871Y-25025667D01*
X3360871Y-25073286D01*
X3351348Y-25111381D01*
X3341824Y-25130428D01*
X3332300Y-25139952D01*
X3313252Y-25149476D01*
X3294205Y-25149476D01*
X3275157Y-25139952D01*
X3265633Y-25130428D01*
X3256109Y-25111381D01*
X3246586Y-25073286D01*
X3246586Y-25025667D01*
X3256109Y-24987571D01*
X3265633Y-24968524D01*
X3275157Y-24959000D01*
X3294205Y-24949476D01*
X3484681Y-24949476D02*
X3503728Y-24949476D01*
X3522776Y-24959000D01*
X3532300Y-24968524D01*
X3541824Y-24987571D01*
X3551348Y-25025667D01*
X3551348Y-25073286D01*
X3541824Y-25111381D01*
X3532300Y-25130428D01*
X3522776Y-25139952D01*
X3503728Y-25149476D01*
X3484681Y-25149476D01*
X3465633Y-25139952D01*
X3456109Y-25130428D01*
X3446586Y-25111381D01*
X3437062Y-25073286D01*
X3437062Y-25025667D01*
X3446586Y-24987571D01*
X3456109Y-24968524D01*
X3465633Y-24959000D01*
X3484681Y-24949476D01*
X3637062Y-25149476D02*
X3637062Y-25016143D01*
X3637062Y-25035190D02*
X3646586Y-25025667D01*
X3665633Y-25016143D01*
X3694205Y-25016143D01*
X3713252Y-25025667D01*
X3722776Y-25044714D01*
X3722776Y-25149476D01*
X3722776Y-25044714D02*
X3732300Y-25025667D01*
X3751348Y-25016143D01*
X3779919Y-25016143D01*
X3798967Y-25025667D01*
X3808490Y-25044714D01*
X3808490Y-25149476D01*
X3903728Y-25149476D02*
X3903728Y-25016143D01*
X3903728Y-25035190D02*
X3913252Y-25025667D01*
X3932300Y-25016143D01*
X3960871Y-25016143D01*
X3979919Y-25025667D01*
X3989443Y-25044714D01*
X3989443Y-25149476D01*
X3989443Y-25044714D02*
X3998967Y-25025667D01*
X4018014Y-25016143D01*
X4046586Y-25016143D01*
X4065633Y-25025667D01*
X4075157Y-25044714D01*
X4075157Y-25149476D01*
X4465633Y-24939952D02*
X4294205Y-25197095D01*
X4722776Y-24949476D02*
X4741824Y-24949476D01*
X4760871Y-24959000D01*
X4770395Y-24968524D01*
X4779919Y-24987571D01*
X4789443Y-25025667D01*
X4789443Y-25073286D01*
X4779919Y-25111381D01*
X4770395Y-25130428D01*
X4760871Y-25139952D01*
X4741824Y-25149476D01*
X4722776Y-25149476D01*
X4703729Y-25139952D01*
X4694205Y-25130428D01*
X4684681Y-25111381D01*
X4675157Y-25073286D01*
X4675157Y-25025667D01*
X4684681Y-24987571D01*
X4694205Y-24968524D01*
X4703729Y-24959000D01*
X4722776Y-24949476D01*
X4875157Y-25130428D02*
X4884681Y-25139952D01*
X4875157Y-25149476D01*
X4865633Y-25139952D01*
X4875157Y-25130428D01*
X4875157Y-25149476D01*
X5008490Y-24949476D02*
X5027538Y-24949476D01*
X5046586Y-24959000D01*
X5056110Y-24968524D01*
X5065633Y-24987571D01*
X5075157Y-25025667D01*
X5075157Y-25073286D01*
X5065633Y-25111381D01*
X5056110Y-25130428D01*
X5046586Y-25139952D01*
X5027538Y-25149476D01*
X5008490Y-25149476D01*
X4989443Y-25139952D01*
X4979919Y-25130428D01*
X4970395Y-25111381D01*
X4960871Y-25073286D01*
X4960871Y-25025667D01*
X4970395Y-24987571D01*
X4979919Y-24968524D01*
X4989443Y-24959000D01*
X5008490Y-24949476D01*
X5141824Y-24949476D02*
X5265633Y-24949476D01*
X5198967Y-25025667D01*
X5227538Y-25025667D01*
X5246586Y-25035190D01*
X5256110Y-25044714D01*
X5265633Y-25063762D01*
X5265633Y-25111381D01*
X5256110Y-25130428D01*
X5246586Y-25139952D01*
X5227538Y-25149476D01*
X5170395Y-25149476D01*
X5151348Y-25139952D01*
X5141824Y-25130428D01*
X5456110Y-25149476D02*
X5341824Y-25149476D01*
X5398967Y-25149476D02*
X5398967Y-24949476D01*
X5379919Y-24978048D01*
X5360871Y-24997095D01*
X5341824Y-25006619D01*
X5637062Y-24949476D02*
X5541824Y-24949476D01*
X5532300Y-25044714D01*
X5541824Y-25035190D01*
X5560871Y-25025667D01*
X5608490Y-25025667D01*
X5627538Y-25035190D01*
X5637062Y-25044714D01*
X5646586Y-25063762D01*
X5646586Y-25111381D01*
X5637062Y-25130428D01*
X5627538Y-25139952D01*
X5608490Y-25149476D01*
X5560871Y-25149476D01*
X5541824Y-25139952D01*
X5532300Y-25130428D01*
X5722776Y-24949476D02*
X5722776Y-24987571D01*
X5798967Y-24949476D02*
X5798967Y-24987571D01*
X6094205Y-25225667D02*
X6084681Y-25216143D01*
X6065633Y-25187571D01*
X6056109Y-25168524D01*
X6046586Y-25139952D01*
X6037062Y-25092333D01*
X6037062Y-25054238D01*
X6046586Y-25006619D01*
X6056109Y-24978048D01*
X6065633Y-24959000D01*
X6084681Y-24930428D01*
X6094205Y-24920905D01*
X6265633Y-24949476D02*
X6170395Y-24949476D01*
X6160871Y-25044714D01*
X6170395Y-25035190D01*
X6189443Y-25025667D01*
X6237062Y-25025667D01*
X6256109Y-25035190D01*
X6265633Y-25044714D01*
X6275157Y-25063762D01*
X6275157Y-25111381D01*
X6265633Y-25130428D01*
X6256109Y-25139952D01*
X6237062Y-25149476D01*
X6189443Y-25149476D01*
X6170395Y-25139952D01*
X6160871Y-25130428D01*
X6398967Y-24949476D02*
X6418014Y-24949476D01*
X6437062Y-24959000D01*
X6446586Y-24968524D01*
X6456109Y-24987571D01*
X6465633Y-25025667D01*
X6465633Y-25073286D01*
X6456109Y-25111381D01*
X6446586Y-25130428D01*
X6437062Y-25139952D01*
X6418014Y-25149476D01*
X6398967Y-25149476D01*
X6379919Y-25139952D01*
X6370395Y-25130428D01*
X6360871Y-25111381D01*
X6351348Y-25073286D01*
X6351348Y-25025667D01*
X6360871Y-24987571D01*
X6370395Y-24968524D01*
X6379919Y-24959000D01*
X6398967Y-24949476D01*
X6703728Y-25149476D02*
X6703728Y-24949476D01*
X6789443Y-25149476D02*
X6789443Y-25044714D01*
X6779919Y-25025667D01*
X6760871Y-25016143D01*
X6732300Y-25016143D01*
X6713252Y-25025667D01*
X6703728Y-25035190D01*
X6913252Y-25149476D02*
X6894205Y-25139952D01*
X6884681Y-25130428D01*
X6875157Y-25111381D01*
X6875157Y-25054238D01*
X6884681Y-25035190D01*
X6894205Y-25025667D01*
X6913252Y-25016143D01*
X6941824Y-25016143D01*
X6960871Y-25025667D01*
X6970395Y-25035190D01*
X6979919Y-25054238D01*
X6979919Y-25111381D01*
X6970395Y-25130428D01*
X6960871Y-25139952D01*
X6941824Y-25149476D01*
X6913252Y-25149476D01*
X7094205Y-25149476D02*
X7075157Y-25139952D01*
X7065633Y-25120905D01*
X7065633Y-24949476D01*
X7246586Y-25139952D02*
X7227538Y-25149476D01*
X7189443Y-25149476D01*
X7170395Y-25139952D01*
X7160871Y-25120905D01*
X7160871Y-25044714D01*
X7170395Y-25025667D01*
X7189443Y-25016143D01*
X7227538Y-25016143D01*
X7246586Y-25025667D01*
X7256109Y-25044714D01*
X7256109Y-25063762D01*
X7160871Y-25082809D01*
X7332300Y-25139952D02*
X7351348Y-25149476D01*
X7389443Y-25149476D01*
X7408490Y-25139952D01*
X7418014Y-25120905D01*
X7418014Y-25111381D01*
X7408490Y-25092333D01*
X7389443Y-25082809D01*
X7360871Y-25082809D01*
X7341824Y-25073286D01*
X7332300Y-25054238D01*
X7332300Y-25044714D01*
X7341824Y-25025667D01*
X7360871Y-25016143D01*
X7389443Y-25016143D01*
X7408490Y-25025667D01*
X7484681Y-25225667D02*
X7494205Y-25216143D01*
X7513252Y-25187571D01*
X7522776Y-25168524D01*
X7532300Y-25139952D01*
X7541824Y-25092333D01*
X7541824Y-25054238D01*
X7532300Y-25006619D01*
X7522776Y-24978048D01*
X7513252Y-24959000D01*
X7494205Y-24930428D01*
X7484681Y-24920905D01*
D16*
X2477300Y-25368000D02*
X2522300Y-25323000D01*
X2477300Y-25278000D01*
X2432300Y-25323000D01*
X2477300Y-25368000D01*
D11*
X2818014Y-25213476D02*
X2837062Y-25213476D01*
X2856109Y-25223000D01*
X2865633Y-25232524D01*
X2875157Y-25251571D01*
X2884681Y-25289667D01*
X2884681Y-25337286D01*
X2875157Y-25375381D01*
X2865633Y-25394428D01*
X2856109Y-25403952D01*
X2837062Y-25413476D01*
X2818014Y-25413476D01*
X2798967Y-25403952D01*
X2789443Y-25394428D01*
X2779919Y-25375381D01*
X2770395Y-25337286D01*
X2770395Y-25289667D01*
X2779919Y-25251571D01*
X2789443Y-25232524D01*
X2798967Y-25223000D01*
X2818014Y-25213476D01*
X2970395Y-25394428D02*
X2979919Y-25403952D01*
X2970395Y-25413476D01*
X2960871Y-25403952D01*
X2970395Y-25394428D01*
X2970395Y-25413476D01*
X3075157Y-25413476D02*
X3113252Y-25413476D01*
X3132300Y-25403952D01*
X3141824Y-25394428D01*
X3160871Y-25365857D01*
X3170395Y-25327762D01*
X3170395Y-25251571D01*
X3160871Y-25232524D01*
X3151348Y-25223000D01*
X3132300Y-25213476D01*
X3094205Y-25213476D01*
X3075157Y-25223000D01*
X3065633Y-25232524D01*
X3056109Y-25251571D01*
X3056109Y-25299190D01*
X3065633Y-25318238D01*
X3075157Y-25327762D01*
X3094205Y-25337286D01*
X3132300Y-25337286D01*
X3151348Y-25327762D01*
X3160871Y-25318238D01*
X3170395Y-25299190D01*
X3294205Y-25213476D02*
X3313252Y-25213476D01*
X3332300Y-25223000D01*
X3341824Y-25232524D01*
X3351348Y-25251571D01*
X3360871Y-25289667D01*
X3360871Y-25337286D01*
X3351348Y-25375381D01*
X3341824Y-25394428D01*
X3332300Y-25403952D01*
X3313252Y-25413476D01*
X3294205Y-25413476D01*
X3275157Y-25403952D01*
X3265633Y-25394428D01*
X3256109Y-25375381D01*
X3246586Y-25337286D01*
X3246586Y-25289667D01*
X3256109Y-25251571D01*
X3265633Y-25232524D01*
X3275157Y-25223000D01*
X3294205Y-25213476D01*
X3484681Y-25213476D02*
X3503728Y-25213476D01*
X3522776Y-25223000D01*
X3532300Y-25232524D01*
X3541824Y-25251571D01*
X3551348Y-25289667D01*
X3551348Y-25337286D01*
X3541824Y-25375381D01*
X3532300Y-25394428D01*
X3522776Y-25403952D01*
X3503728Y-25413476D01*
X3484681Y-25413476D01*
X3465633Y-25403952D01*
X3456109Y-25394428D01*
X3446586Y-25375381D01*
X3437062Y-25337286D01*
X3437062Y-25289667D01*
X3446586Y-25251571D01*
X3456109Y-25232524D01*
X3465633Y-25223000D01*
X3484681Y-25213476D01*
X3637062Y-25413476D02*
X3637062Y-25280143D01*
X3637062Y-25299190D02*
X3646586Y-25289667D01*
X3665633Y-25280143D01*
X3694205Y-25280143D01*
X3713252Y-25289667D01*
X3722776Y-25308714D01*
X3722776Y-25413476D01*
X3722776Y-25308714D02*
X3732300Y-25289667D01*
X3751348Y-25280143D01*
X3779919Y-25280143D01*
X3798967Y-25289667D01*
X3808490Y-25308714D01*
X3808490Y-25413476D01*
X3903728Y-25413476D02*
X3903728Y-25280143D01*
X3903728Y-25299190D02*
X3913252Y-25289667D01*
X3932300Y-25280143D01*
X3960871Y-25280143D01*
X3979919Y-25289667D01*
X3989443Y-25308714D01*
X3989443Y-25413476D01*
X3989443Y-25308714D02*
X3998967Y-25289667D01*
X4018014Y-25280143D01*
X4046586Y-25280143D01*
X4065633Y-25289667D01*
X4075157Y-25308714D01*
X4075157Y-25413476D01*
X4465633Y-25203952D02*
X4294205Y-25461095D01*
X4722776Y-25213476D02*
X4741824Y-25213476D01*
X4760871Y-25223000D01*
X4770395Y-25232524D01*
X4779919Y-25251571D01*
X4789443Y-25289667D01*
X4789443Y-25337286D01*
X4779919Y-25375381D01*
X4770395Y-25394428D01*
X4760871Y-25403952D01*
X4741824Y-25413476D01*
X4722776Y-25413476D01*
X4703729Y-25403952D01*
X4694205Y-25394428D01*
X4684681Y-25375381D01*
X4675157Y-25337286D01*
X4675157Y-25289667D01*
X4684681Y-25251571D01*
X4694205Y-25232524D01*
X4703729Y-25223000D01*
X4722776Y-25213476D01*
X4875157Y-25394428D02*
X4884681Y-25403952D01*
X4875157Y-25413476D01*
X4865633Y-25403952D01*
X4875157Y-25394428D01*
X4875157Y-25413476D01*
X5008490Y-25213476D02*
X5027538Y-25213476D01*
X5046586Y-25223000D01*
X5056110Y-25232524D01*
X5065633Y-25251571D01*
X5075157Y-25289667D01*
X5075157Y-25337286D01*
X5065633Y-25375381D01*
X5056110Y-25394428D01*
X5046586Y-25403952D01*
X5027538Y-25413476D01*
X5008490Y-25413476D01*
X4989443Y-25403952D01*
X4979919Y-25394428D01*
X4970395Y-25375381D01*
X4960871Y-25337286D01*
X4960871Y-25289667D01*
X4970395Y-25251571D01*
X4979919Y-25232524D01*
X4989443Y-25223000D01*
X5008490Y-25213476D01*
X5141824Y-25213476D02*
X5265633Y-25213476D01*
X5198967Y-25289667D01*
X5227538Y-25289667D01*
X5246586Y-25299190D01*
X5256110Y-25308714D01*
X5265633Y-25327762D01*
X5265633Y-25375381D01*
X5256110Y-25394428D01*
X5246586Y-25403952D01*
X5227538Y-25413476D01*
X5170395Y-25413476D01*
X5151348Y-25403952D01*
X5141824Y-25394428D01*
X5446586Y-25213476D02*
X5351348Y-25213476D01*
X5341824Y-25308714D01*
X5351348Y-25299190D01*
X5370395Y-25289667D01*
X5418014Y-25289667D01*
X5437062Y-25299190D01*
X5446586Y-25308714D01*
X5456110Y-25327762D01*
X5456110Y-25375381D01*
X5446586Y-25394428D01*
X5437062Y-25403952D01*
X5418014Y-25413476D01*
X5370395Y-25413476D01*
X5351348Y-25403952D01*
X5341824Y-25394428D01*
X5627538Y-25280143D02*
X5627538Y-25413476D01*
X5579919Y-25203952D02*
X5532300Y-25346809D01*
X5656109Y-25346809D01*
X5722776Y-25213476D02*
X5722776Y-25251571D01*
X5798967Y-25213476D02*
X5798967Y-25251571D01*
X6094205Y-25489667D02*
X6084681Y-25480143D01*
X6065633Y-25451571D01*
X6056109Y-25432524D01*
X6046586Y-25403952D01*
X6037062Y-25356333D01*
X6037062Y-25318238D01*
X6046586Y-25270619D01*
X6056109Y-25242048D01*
X6065633Y-25223000D01*
X6084681Y-25194428D01*
X6094205Y-25184905D01*
X6151348Y-25213476D02*
X6284681Y-25213476D01*
X6198967Y-25413476D01*
X6398967Y-25213476D02*
X6418014Y-25213476D01*
X6437062Y-25223000D01*
X6446586Y-25232524D01*
X6456109Y-25251571D01*
X6465633Y-25289667D01*
X6465633Y-25337286D01*
X6456109Y-25375381D01*
X6446586Y-25394428D01*
X6437062Y-25403952D01*
X6418014Y-25413476D01*
X6398967Y-25413476D01*
X6379919Y-25403952D01*
X6370395Y-25394428D01*
X6360871Y-25375381D01*
X6351348Y-25337286D01*
X6351348Y-25289667D01*
X6360871Y-25251571D01*
X6370395Y-25232524D01*
X6379919Y-25223000D01*
X6398967Y-25213476D01*
X6703728Y-25413476D02*
X6703728Y-25213476D01*
X6789443Y-25413476D02*
X6789443Y-25308714D01*
X6779919Y-25289667D01*
X6760871Y-25280143D01*
X6732300Y-25280143D01*
X6713252Y-25289667D01*
X6703728Y-25299190D01*
X6913252Y-25413476D02*
X6894205Y-25403952D01*
X6884681Y-25394428D01*
X6875157Y-25375381D01*
X6875157Y-25318238D01*
X6884681Y-25299190D01*
X6894205Y-25289667D01*
X6913252Y-25280143D01*
X6941824Y-25280143D01*
X6960871Y-25289667D01*
X6970395Y-25299190D01*
X6979919Y-25318238D01*
X6979919Y-25375381D01*
X6970395Y-25394428D01*
X6960871Y-25403952D01*
X6941824Y-25413476D01*
X6913252Y-25413476D01*
X7094205Y-25413476D02*
X7075157Y-25403952D01*
X7065633Y-25384905D01*
X7065633Y-25213476D01*
X7246586Y-25403952D02*
X7227538Y-25413476D01*
X7189443Y-25413476D01*
X7170395Y-25403952D01*
X7160871Y-25384905D01*
X7160871Y-25308714D01*
X7170395Y-25289667D01*
X7189443Y-25280143D01*
X7227538Y-25280143D01*
X7246586Y-25289667D01*
X7256109Y-25308714D01*
X7256109Y-25327762D01*
X7160871Y-25346809D01*
X7332300Y-25403952D02*
X7351348Y-25413476D01*
X7389443Y-25413476D01*
X7408490Y-25403952D01*
X7418014Y-25384905D01*
X7418014Y-25375381D01*
X7408490Y-25356333D01*
X7389443Y-25346809D01*
X7360871Y-25346809D01*
X7341824Y-25337286D01*
X7332300Y-25318238D01*
X7332300Y-25308714D01*
X7341824Y-25289667D01*
X7360871Y-25280143D01*
X7389443Y-25280143D01*
X7408490Y-25289667D01*
X7484681Y-25489667D02*
X7494205Y-25480143D01*
X7513252Y-25451571D01*
X7522776Y-25432524D01*
X7532300Y-25403952D01*
X7541824Y-25356333D01*
X7541824Y-25318238D01*
X7532300Y-25270619D01*
X7522776Y-25242048D01*
X7513252Y-25223000D01*
X7494205Y-25194428D01*
X7484681Y-25184905D01*
D17*
X2422300Y-25537000D02*
X2522300Y-25637000D01*
X2522300Y-25537000D02*
X2422300Y-25637000D01*
X2522300Y-25587000D02*
G75*
G03*
X2522300Y-25587000I-50000J0D01*
G01*
D11*
X2884681Y-25677476D02*
X2770395Y-25677476D01*
X2827538Y-25677476D02*
X2827538Y-25477476D01*
X2808490Y-25506048D01*
X2789443Y-25525095D01*
X2770395Y-25534619D01*
X2970395Y-25658428D02*
X2979919Y-25667952D01*
X2970395Y-25677476D01*
X2960871Y-25667952D01*
X2970395Y-25658428D01*
X2970395Y-25677476D01*
X3103728Y-25477476D02*
X3122776Y-25477476D01*
X3141824Y-25487000D01*
X3151348Y-25496524D01*
X3160871Y-25515571D01*
X3170395Y-25553667D01*
X3170395Y-25601286D01*
X3160871Y-25639381D01*
X3151348Y-25658428D01*
X3141824Y-25667952D01*
X3122776Y-25677476D01*
X3103728Y-25677476D01*
X3084681Y-25667952D01*
X3075157Y-25658428D01*
X3065633Y-25639381D01*
X3056109Y-25601286D01*
X3056109Y-25553667D01*
X3065633Y-25515571D01*
X3075157Y-25496524D01*
X3084681Y-25487000D01*
X3103728Y-25477476D01*
X3294205Y-25477476D02*
X3313252Y-25477476D01*
X3332300Y-25487000D01*
X3341824Y-25496524D01*
X3351348Y-25515571D01*
X3360871Y-25553667D01*
X3360871Y-25601286D01*
X3351348Y-25639381D01*
X3341824Y-25658428D01*
X3332300Y-25667952D01*
X3313252Y-25677476D01*
X3294205Y-25677476D01*
X3275157Y-25667952D01*
X3265633Y-25658428D01*
X3256109Y-25639381D01*
X3246586Y-25601286D01*
X3246586Y-25553667D01*
X3256109Y-25515571D01*
X3265633Y-25496524D01*
X3275157Y-25487000D01*
X3294205Y-25477476D01*
X3484681Y-25477476D02*
X3503728Y-25477476D01*
X3522776Y-25487000D01*
X3532300Y-25496524D01*
X3541824Y-25515571D01*
X3551348Y-25553667D01*
X3551348Y-25601286D01*
X3541824Y-25639381D01*
X3532300Y-25658428D01*
X3522776Y-25667952D01*
X3503728Y-25677476D01*
X3484681Y-25677476D01*
X3465633Y-25667952D01*
X3456109Y-25658428D01*
X3446586Y-25639381D01*
X3437062Y-25601286D01*
X3437062Y-25553667D01*
X3446586Y-25515571D01*
X3456109Y-25496524D01*
X3465633Y-25487000D01*
X3484681Y-25477476D01*
X3637062Y-25677476D02*
X3637062Y-25544143D01*
X3637062Y-25563190D02*
X3646586Y-25553667D01*
X3665633Y-25544143D01*
X3694205Y-25544143D01*
X3713252Y-25553667D01*
X3722776Y-25572714D01*
X3722776Y-25677476D01*
X3722776Y-25572714D02*
X3732300Y-25553667D01*
X3751348Y-25544143D01*
X3779919Y-25544143D01*
X3798967Y-25553667D01*
X3808490Y-25572714D01*
X3808490Y-25677476D01*
X3903728Y-25677476D02*
X3903728Y-25544143D01*
X3903728Y-25563190D02*
X3913252Y-25553667D01*
X3932300Y-25544143D01*
X3960871Y-25544143D01*
X3979919Y-25553667D01*
X3989443Y-25572714D01*
X3989443Y-25677476D01*
X3989443Y-25572714D02*
X3998967Y-25553667D01*
X4018014Y-25544143D01*
X4046586Y-25544143D01*
X4065633Y-25553667D01*
X4075157Y-25572714D01*
X4075157Y-25677476D01*
X4465633Y-25467952D02*
X4294205Y-25725095D01*
X4722776Y-25477476D02*
X4741824Y-25477476D01*
X4760871Y-25487000D01*
X4770395Y-25496524D01*
X4779919Y-25515571D01*
X4789443Y-25553667D01*
X4789443Y-25601286D01*
X4779919Y-25639381D01*
X4770395Y-25658428D01*
X4760871Y-25667952D01*
X4741824Y-25677476D01*
X4722776Y-25677476D01*
X4703729Y-25667952D01*
X4694205Y-25658428D01*
X4684681Y-25639381D01*
X4675157Y-25601286D01*
X4675157Y-25553667D01*
X4684681Y-25515571D01*
X4694205Y-25496524D01*
X4703729Y-25487000D01*
X4722776Y-25477476D01*
X4875157Y-25658428D02*
X4884681Y-25667952D01*
X4875157Y-25677476D01*
X4865633Y-25667952D01*
X4875157Y-25658428D01*
X4875157Y-25677476D01*
X5008490Y-25477476D02*
X5027538Y-25477476D01*
X5046586Y-25487000D01*
X5056110Y-25496524D01*
X5065633Y-25515571D01*
X5075157Y-25553667D01*
X5075157Y-25601286D01*
X5065633Y-25639381D01*
X5056110Y-25658428D01*
X5046586Y-25667952D01*
X5027538Y-25677476D01*
X5008490Y-25677476D01*
X4989443Y-25667952D01*
X4979919Y-25658428D01*
X4970395Y-25639381D01*
X4960871Y-25601286D01*
X4960871Y-25553667D01*
X4970395Y-25515571D01*
X4979919Y-25496524D01*
X4989443Y-25487000D01*
X5008490Y-25477476D01*
X5141824Y-25477476D02*
X5265633Y-25477476D01*
X5198967Y-25553667D01*
X5227538Y-25553667D01*
X5246586Y-25563190D01*
X5256110Y-25572714D01*
X5265633Y-25591762D01*
X5265633Y-25639381D01*
X5256110Y-25658428D01*
X5246586Y-25667952D01*
X5227538Y-25677476D01*
X5170395Y-25677476D01*
X5151348Y-25667952D01*
X5141824Y-25658428D01*
X5360871Y-25677476D02*
X5398967Y-25677476D01*
X5418014Y-25667952D01*
X5427538Y-25658428D01*
X5446586Y-25629857D01*
X5456110Y-25591762D01*
X5456110Y-25515571D01*
X5446586Y-25496524D01*
X5437062Y-25487000D01*
X5418014Y-25477476D01*
X5379919Y-25477476D01*
X5360871Y-25487000D01*
X5351348Y-25496524D01*
X5341824Y-25515571D01*
X5341824Y-25563190D01*
X5351348Y-25582238D01*
X5360871Y-25591762D01*
X5379919Y-25601286D01*
X5418014Y-25601286D01*
X5437062Y-25591762D01*
X5446586Y-25582238D01*
X5456110Y-25563190D01*
X5627538Y-25544143D02*
X5627538Y-25677476D01*
X5579919Y-25467952D02*
X5532300Y-25610809D01*
X5656109Y-25610809D01*
X5722776Y-25477476D02*
X5722776Y-25515571D01*
X5798967Y-25477476D02*
X5798967Y-25515571D01*
X6094205Y-25753667D02*
X6084681Y-25744143D01*
X6065633Y-25715571D01*
X6056109Y-25696524D01*
X6046586Y-25667952D01*
X6037062Y-25620333D01*
X6037062Y-25582238D01*
X6046586Y-25534619D01*
X6056109Y-25506048D01*
X6065633Y-25487000D01*
X6084681Y-25458428D01*
X6094205Y-25448905D01*
X6160871Y-25496524D02*
X6170395Y-25487000D01*
X6189443Y-25477476D01*
X6237062Y-25477476D01*
X6256109Y-25487000D01*
X6265633Y-25496524D01*
X6275157Y-25515571D01*
X6275157Y-25534619D01*
X6265633Y-25563190D01*
X6151348Y-25677476D01*
X6275157Y-25677476D01*
X6398967Y-25477476D02*
X6418014Y-25477476D01*
X6437062Y-25487000D01*
X6446586Y-25496524D01*
X6456109Y-25515571D01*
X6465633Y-25553667D01*
X6465633Y-25601286D01*
X6456109Y-25639381D01*
X6446586Y-25658428D01*
X6437062Y-25667952D01*
X6418014Y-25677476D01*
X6398967Y-25677476D01*
X6379919Y-25667952D01*
X6370395Y-25658428D01*
X6360871Y-25639381D01*
X6351348Y-25601286D01*
X6351348Y-25553667D01*
X6360871Y-25515571D01*
X6370395Y-25496524D01*
X6379919Y-25487000D01*
X6398967Y-25477476D01*
X6703728Y-25677476D02*
X6703728Y-25477476D01*
X6789443Y-25677476D02*
X6789443Y-25572714D01*
X6779919Y-25553667D01*
X6760871Y-25544143D01*
X6732300Y-25544143D01*
X6713252Y-25553667D01*
X6703728Y-25563190D01*
X6913252Y-25677476D02*
X6894205Y-25667952D01*
X6884681Y-25658428D01*
X6875157Y-25639381D01*
X6875157Y-25582238D01*
X6884681Y-25563190D01*
X6894205Y-25553667D01*
X6913252Y-25544143D01*
X6941824Y-25544143D01*
X6960871Y-25553667D01*
X6970395Y-25563190D01*
X6979919Y-25582238D01*
X6979919Y-25639381D01*
X6970395Y-25658428D01*
X6960871Y-25667952D01*
X6941824Y-25677476D01*
X6913252Y-25677476D01*
X7094205Y-25677476D02*
X7075157Y-25667952D01*
X7065633Y-25648905D01*
X7065633Y-25477476D01*
X7246586Y-25667952D02*
X7227538Y-25677476D01*
X7189443Y-25677476D01*
X7170395Y-25667952D01*
X7160871Y-25648905D01*
X7160871Y-25572714D01*
X7170395Y-25553667D01*
X7189443Y-25544143D01*
X7227538Y-25544143D01*
X7246586Y-25553667D01*
X7256109Y-25572714D01*
X7256109Y-25591762D01*
X7160871Y-25610809D01*
X7332300Y-25667952D02*
X7351348Y-25677476D01*
X7389443Y-25677476D01*
X7408490Y-25667952D01*
X7418014Y-25648905D01*
X7418014Y-25639381D01*
X7408490Y-25620333D01*
X7389443Y-25610809D01*
X7360871Y-25610809D01*
X7341824Y-25601286D01*
X7332300Y-25582238D01*
X7332300Y-25572714D01*
X7341824Y-25553667D01*
X7360871Y-25544143D01*
X7389443Y-25544143D01*
X7408490Y-25553667D01*
X7484681Y-25753667D02*
X7494205Y-25744143D01*
X7513252Y-25715571D01*
X7522776Y-25696524D01*
X7532300Y-25667952D01*
X7541824Y-25620333D01*
X7541824Y-25582238D01*
X7532300Y-25534619D01*
X7522776Y-25506048D01*
X7513252Y-25487000D01*
X7494205Y-25458428D01*
X7484681Y-25448905D01*
D18*
X2420300Y-25800000D02*
X2522300Y-25902000D01*
X2522300Y-25800000D02*
X2420300Y-25902000D01*
X2471300Y-25800000D02*
X2471300Y-25902000D01*
X2420300Y-25851000D02*
X2522300Y-25851000D01*
D11*
X2884681Y-25941476D02*
X2770395Y-25941476D01*
X2827538Y-25941476D02*
X2827538Y-25741476D01*
X2808490Y-25770048D01*
X2789443Y-25789095D01*
X2770395Y-25798619D01*
X2970395Y-25922428D02*
X2979919Y-25931952D01*
X2970395Y-25941476D01*
X2960871Y-25931952D01*
X2970395Y-25922428D01*
X2970395Y-25941476D01*
X3103728Y-25741476D02*
X3122776Y-25741476D01*
X3141824Y-25751000D01*
X3151348Y-25760524D01*
X3160871Y-25779571D01*
X3170395Y-25817667D01*
X3170395Y-25865286D01*
X3160871Y-25903381D01*
X3151348Y-25922428D01*
X3141824Y-25931952D01*
X3122776Y-25941476D01*
X3103728Y-25941476D01*
X3084681Y-25931952D01*
X3075157Y-25922428D01*
X3065633Y-25903381D01*
X3056109Y-25865286D01*
X3056109Y-25817667D01*
X3065633Y-25779571D01*
X3075157Y-25760524D01*
X3084681Y-25751000D01*
X3103728Y-25741476D01*
X3246586Y-25760524D02*
X3256109Y-25751000D01*
X3275157Y-25741476D01*
X3322776Y-25741476D01*
X3341824Y-25751000D01*
X3351348Y-25760524D01*
X3360871Y-25779571D01*
X3360871Y-25798619D01*
X3351348Y-25827190D01*
X3237062Y-25941476D01*
X3360871Y-25941476D01*
X3484681Y-25741476D02*
X3503728Y-25741476D01*
X3522776Y-25751000D01*
X3532300Y-25760524D01*
X3541824Y-25779571D01*
X3551348Y-25817667D01*
X3551348Y-25865286D01*
X3541824Y-25903381D01*
X3532300Y-25922428D01*
X3522776Y-25931952D01*
X3503728Y-25941476D01*
X3484681Y-25941476D01*
X3465633Y-25931952D01*
X3456109Y-25922428D01*
X3446586Y-25903381D01*
X3437062Y-25865286D01*
X3437062Y-25817667D01*
X3446586Y-25779571D01*
X3456109Y-25760524D01*
X3465633Y-25751000D01*
X3484681Y-25741476D01*
X3637062Y-25941476D02*
X3637062Y-25808143D01*
X3637062Y-25827190D02*
X3646586Y-25817667D01*
X3665633Y-25808143D01*
X3694205Y-25808143D01*
X3713252Y-25817667D01*
X3722776Y-25836714D01*
X3722776Y-25941476D01*
X3722776Y-25836714D02*
X3732300Y-25817667D01*
X3751348Y-25808143D01*
X3779919Y-25808143D01*
X3798967Y-25817667D01*
X3808490Y-25836714D01*
X3808490Y-25941476D01*
X3903728Y-25941476D02*
X3903728Y-25808143D01*
X3903728Y-25827190D02*
X3913252Y-25817667D01*
X3932300Y-25808143D01*
X3960871Y-25808143D01*
X3979919Y-25817667D01*
X3989443Y-25836714D01*
X3989443Y-25941476D01*
X3989443Y-25836714D02*
X3998967Y-25817667D01*
X4018014Y-25808143D01*
X4046586Y-25808143D01*
X4065633Y-25817667D01*
X4075157Y-25836714D01*
X4075157Y-25941476D01*
X4465633Y-25731952D02*
X4294205Y-25989095D01*
X4722776Y-25741476D02*
X4741824Y-25741476D01*
X4760871Y-25751000D01*
X4770395Y-25760524D01*
X4779919Y-25779571D01*
X4789443Y-25817667D01*
X4789443Y-25865286D01*
X4779919Y-25903381D01*
X4770395Y-25922428D01*
X4760871Y-25931952D01*
X4741824Y-25941476D01*
X4722776Y-25941476D01*
X4703729Y-25931952D01*
X4694205Y-25922428D01*
X4684681Y-25903381D01*
X4675157Y-25865286D01*
X4675157Y-25817667D01*
X4684681Y-25779571D01*
X4694205Y-25760524D01*
X4703729Y-25751000D01*
X4722776Y-25741476D01*
X4875157Y-25922428D02*
X4884681Y-25931952D01*
X4875157Y-25941476D01*
X4865633Y-25931952D01*
X4875157Y-25922428D01*
X4875157Y-25941476D01*
X5008490Y-25741476D02*
X5027538Y-25741476D01*
X5046586Y-25751000D01*
X5056110Y-25760524D01*
X5065633Y-25779571D01*
X5075157Y-25817667D01*
X5075157Y-25865286D01*
X5065633Y-25903381D01*
X5056110Y-25922428D01*
X5046586Y-25931952D01*
X5027538Y-25941476D01*
X5008490Y-25941476D01*
X4989443Y-25931952D01*
X4979919Y-25922428D01*
X4970395Y-25903381D01*
X4960871Y-25865286D01*
X4960871Y-25817667D01*
X4970395Y-25779571D01*
X4979919Y-25760524D01*
X4989443Y-25751000D01*
X5008490Y-25741476D01*
X5246586Y-25808143D02*
X5246586Y-25941476D01*
X5198967Y-25731952D02*
X5151348Y-25874809D01*
X5275157Y-25874809D01*
X5389443Y-25741476D02*
X5408490Y-25741476D01*
X5427538Y-25751000D01*
X5437062Y-25760524D01*
X5446586Y-25779571D01*
X5456110Y-25817667D01*
X5456110Y-25865286D01*
X5446586Y-25903381D01*
X5437062Y-25922428D01*
X5427538Y-25931952D01*
X5408490Y-25941476D01*
X5389443Y-25941476D01*
X5370395Y-25931952D01*
X5360871Y-25922428D01*
X5351348Y-25903381D01*
X5341824Y-25865286D01*
X5341824Y-25817667D01*
X5351348Y-25779571D01*
X5360871Y-25760524D01*
X5370395Y-25751000D01*
X5389443Y-25741476D01*
X5532300Y-25760524D02*
X5541824Y-25751000D01*
X5560871Y-25741476D01*
X5608490Y-25741476D01*
X5627538Y-25751000D01*
X5637062Y-25760524D01*
X5646586Y-25779571D01*
X5646586Y-25798619D01*
X5637062Y-25827190D01*
X5522776Y-25941476D01*
X5646586Y-25941476D01*
X5722776Y-25741476D02*
X5722776Y-25779571D01*
X5798967Y-25741476D02*
X5798967Y-25779571D01*
X6094205Y-26017667D02*
X6084681Y-26008143D01*
X6065633Y-25979571D01*
X6056109Y-25960524D01*
X6046586Y-25931952D01*
X6037062Y-25884333D01*
X6037062Y-25846238D01*
X6046586Y-25798619D01*
X6056109Y-25770048D01*
X6065633Y-25751000D01*
X6084681Y-25722428D01*
X6094205Y-25712905D01*
X6275157Y-25941476D02*
X6160871Y-25941476D01*
X6218014Y-25941476D02*
X6218014Y-25741476D01*
X6198967Y-25770048D01*
X6179919Y-25789095D01*
X6160871Y-25798619D01*
X6389443Y-25827190D02*
X6370395Y-25817667D01*
X6360871Y-25808143D01*
X6351348Y-25789095D01*
X6351348Y-25779571D01*
X6360871Y-25760524D01*
X6370395Y-25751000D01*
X6389443Y-25741476D01*
X6427538Y-25741476D01*
X6446586Y-25751000D01*
X6456109Y-25760524D01*
X6465633Y-25779571D01*
X6465633Y-25789095D01*
X6456109Y-25808143D01*
X6446586Y-25817667D01*
X6427538Y-25827190D01*
X6389443Y-25827190D01*
X6370395Y-25836714D01*
X6360871Y-25846238D01*
X6351348Y-25865286D01*
X6351348Y-25903381D01*
X6360871Y-25922428D01*
X6370395Y-25931952D01*
X6389443Y-25941476D01*
X6427538Y-25941476D01*
X6446586Y-25931952D01*
X6456109Y-25922428D01*
X6465633Y-25903381D01*
X6465633Y-25865286D01*
X6456109Y-25846238D01*
X6446586Y-25836714D01*
X6427538Y-25827190D01*
X6637062Y-25808143D02*
X6637062Y-25941476D01*
X6589443Y-25731952D02*
X6541824Y-25874809D01*
X6665633Y-25874809D01*
X6894205Y-25941476D02*
X6894205Y-25741476D01*
X6979919Y-25941476D02*
X6979919Y-25836714D01*
X6970395Y-25817667D01*
X6951348Y-25808143D01*
X6922776Y-25808143D01*
X6903728Y-25817667D01*
X6894205Y-25827190D01*
X7103728Y-25941476D02*
X7084681Y-25931952D01*
X7075157Y-25922428D01*
X7065633Y-25903381D01*
X7065633Y-25846238D01*
X7075157Y-25827190D01*
X7084681Y-25817667D01*
X7103728Y-25808143D01*
X7132300Y-25808143D01*
X7151348Y-25817667D01*
X7160871Y-25827190D01*
X7170395Y-25846238D01*
X7170395Y-25903381D01*
X7160871Y-25922428D01*
X7151348Y-25931952D01*
X7132300Y-25941476D01*
X7103728Y-25941476D01*
X7284681Y-25941476D02*
X7265633Y-25931952D01*
X7256109Y-25912905D01*
X7256109Y-25741476D01*
X7437062Y-25931952D02*
X7418014Y-25941476D01*
X7379919Y-25941476D01*
X7360871Y-25931952D01*
X7351348Y-25912905D01*
X7351348Y-25836714D01*
X7360871Y-25817667D01*
X7379919Y-25808143D01*
X7418014Y-25808143D01*
X7437062Y-25817667D01*
X7446586Y-25836714D01*
X7446586Y-25855762D01*
X7351348Y-25874809D01*
X7522776Y-25931952D02*
X7541824Y-25941476D01*
X7579919Y-25941476D01*
X7598967Y-25931952D01*
X7608490Y-25912905D01*
X7608490Y-25903381D01*
X7598967Y-25884333D01*
X7579919Y-25874809D01*
X7551348Y-25874809D01*
X7532300Y-25865286D01*
X7522776Y-25846238D01*
X7522776Y-25836714D01*
X7532300Y-25817667D01*
X7551348Y-25808143D01*
X7579919Y-25808143D01*
X7598967Y-25817667D01*
X7675157Y-26017667D02*
X7684681Y-26008143D01*
X7703728Y-25979571D01*
X7713252Y-25960524D01*
X7722776Y-25931952D01*
X7732300Y-25884333D01*
X7732300Y-25846238D01*
X7722776Y-25798619D01*
X7713252Y-25770048D01*
X7703728Y-25751000D01*
X7684681Y-25722428D01*
X7675157Y-25712905D01*
D19*
X2387300Y-26047500D02*
X2522300Y-26182500D01*
X2522300Y-26047500D02*
X2387300Y-26182500D01*
X2502530Y-26162730D02*
X2502530Y-26067270D01*
X2407070Y-26067270D01*
X2407070Y-26162730D01*
X2502530Y-26162730D01*
D11*
X2884681Y-26205476D02*
X2770395Y-26205476D01*
X2827538Y-26205476D02*
X2827538Y-26005476D01*
X2808490Y-26034048D01*
X2789443Y-26053095D01*
X2770395Y-26062619D01*
X2970395Y-26186428D02*
X2979919Y-26195952D01*
X2970395Y-26205476D01*
X2960871Y-26195952D01*
X2970395Y-26186428D01*
X2970395Y-26205476D01*
X3046586Y-26005476D02*
X3170395Y-26005476D01*
X3103728Y-26081667D01*
X3132300Y-26081667D01*
X3151348Y-26091190D01*
X3160871Y-26100714D01*
X3170395Y-26119762D01*
X3170395Y-26167381D01*
X3160871Y-26186428D01*
X3151348Y-26195952D01*
X3132300Y-26205476D01*
X3075157Y-26205476D01*
X3056109Y-26195952D01*
X3046586Y-26186428D01*
X3351348Y-26005476D02*
X3256109Y-26005476D01*
X3246586Y-26100714D01*
X3256109Y-26091190D01*
X3275157Y-26081667D01*
X3322776Y-26081667D01*
X3341824Y-26091190D01*
X3351348Y-26100714D01*
X3360871Y-26119762D01*
X3360871Y-26167381D01*
X3351348Y-26186428D01*
X3341824Y-26195952D01*
X3322776Y-26205476D01*
X3275157Y-26205476D01*
X3256109Y-26195952D01*
X3246586Y-26186428D01*
X3484681Y-26005476D02*
X3503728Y-26005476D01*
X3522776Y-26015000D01*
X3532300Y-26024524D01*
X3541824Y-26043571D01*
X3551348Y-26081667D01*
X3551348Y-26129286D01*
X3541824Y-26167381D01*
X3532300Y-26186428D01*
X3522776Y-26195952D01*
X3503728Y-26205476D01*
X3484681Y-26205476D01*
X3465633Y-26195952D01*
X3456109Y-26186428D01*
X3446586Y-26167381D01*
X3437062Y-26129286D01*
X3437062Y-26081667D01*
X3446586Y-26043571D01*
X3456109Y-26024524D01*
X3465633Y-26015000D01*
X3484681Y-26005476D01*
X3637062Y-26205476D02*
X3637062Y-26072143D01*
X3637062Y-26091190D02*
X3646586Y-26081667D01*
X3665633Y-26072143D01*
X3694205Y-26072143D01*
X3713252Y-26081667D01*
X3722776Y-26100714D01*
X3722776Y-26205476D01*
X3722776Y-26100714D02*
X3732300Y-26081667D01*
X3751348Y-26072143D01*
X3779919Y-26072143D01*
X3798967Y-26081667D01*
X3808490Y-26100714D01*
X3808490Y-26205476D01*
X3903728Y-26205476D02*
X3903728Y-26072143D01*
X3903728Y-26091190D02*
X3913252Y-26081667D01*
X3932300Y-26072143D01*
X3960871Y-26072143D01*
X3979919Y-26081667D01*
X3989443Y-26100714D01*
X3989443Y-26205476D01*
X3989443Y-26100714D02*
X3998967Y-26081667D01*
X4018014Y-26072143D01*
X4046586Y-26072143D01*
X4065633Y-26081667D01*
X4075157Y-26100714D01*
X4075157Y-26205476D01*
X4465633Y-25995952D02*
X4294205Y-26253095D01*
X4722776Y-26005476D02*
X4741824Y-26005476D01*
X4760871Y-26015000D01*
X4770395Y-26024524D01*
X4779919Y-26043571D01*
X4789443Y-26081667D01*
X4789443Y-26129286D01*
X4779919Y-26167381D01*
X4770395Y-26186428D01*
X4760871Y-26195952D01*
X4741824Y-26205476D01*
X4722776Y-26205476D01*
X4703729Y-26195952D01*
X4694205Y-26186428D01*
X4684681Y-26167381D01*
X4675157Y-26129286D01*
X4675157Y-26081667D01*
X4684681Y-26043571D01*
X4694205Y-26024524D01*
X4703729Y-26015000D01*
X4722776Y-26005476D01*
X4875157Y-26186428D02*
X4884681Y-26195952D01*
X4875157Y-26205476D01*
X4865633Y-26195952D01*
X4875157Y-26186428D01*
X4875157Y-26205476D01*
X5008490Y-26005476D02*
X5027538Y-26005476D01*
X5046586Y-26015000D01*
X5056110Y-26024524D01*
X5065633Y-26043571D01*
X5075157Y-26081667D01*
X5075157Y-26129286D01*
X5065633Y-26167381D01*
X5056110Y-26186428D01*
X5046586Y-26195952D01*
X5027538Y-26205476D01*
X5008490Y-26205476D01*
X4989443Y-26195952D01*
X4979919Y-26186428D01*
X4970395Y-26167381D01*
X4960871Y-26129286D01*
X4960871Y-26081667D01*
X4970395Y-26043571D01*
X4979919Y-26024524D01*
X4989443Y-26015000D01*
X5008490Y-26005476D01*
X5256110Y-26005476D02*
X5160871Y-26005476D01*
X5151348Y-26100714D01*
X5160871Y-26091190D01*
X5179919Y-26081667D01*
X5227538Y-26081667D01*
X5246586Y-26091190D01*
X5256110Y-26100714D01*
X5265633Y-26119762D01*
X5265633Y-26167381D01*
X5256110Y-26186428D01*
X5246586Y-26195952D01*
X5227538Y-26205476D01*
X5179919Y-26205476D01*
X5160871Y-26195952D01*
X5151348Y-26186428D01*
X5332300Y-26005476D02*
X5456110Y-26005476D01*
X5389443Y-26081667D01*
X5418014Y-26081667D01*
X5437062Y-26091190D01*
X5446586Y-26100714D01*
X5456110Y-26119762D01*
X5456110Y-26167381D01*
X5446586Y-26186428D01*
X5437062Y-26195952D01*
X5418014Y-26205476D01*
X5360871Y-26205476D01*
X5341824Y-26195952D01*
X5332300Y-26186428D01*
X5646586Y-26205476D02*
X5532300Y-26205476D01*
X5589443Y-26205476D02*
X5589443Y-26005476D01*
X5570395Y-26034048D01*
X5551348Y-26053095D01*
X5532300Y-26062619D01*
X5722776Y-26005476D02*
X5722776Y-26043571D01*
X5798967Y-26005476D02*
X5798967Y-26043571D01*
X6094205Y-26281667D02*
X6084681Y-26272143D01*
X6065633Y-26243571D01*
X6056109Y-26224524D01*
X6046586Y-26195952D01*
X6037062Y-26148333D01*
X6037062Y-26110238D01*
X6046586Y-26062619D01*
X6056109Y-26034048D01*
X6065633Y-26015000D01*
X6084681Y-25986428D01*
X6094205Y-25976905D01*
X6265633Y-26005476D02*
X6170395Y-26005476D01*
X6160871Y-26100714D01*
X6170395Y-26091190D01*
X6189443Y-26081667D01*
X6237062Y-26081667D01*
X6256109Y-26091190D01*
X6265633Y-26100714D01*
X6275157Y-26119762D01*
X6275157Y-26167381D01*
X6265633Y-26186428D01*
X6256109Y-26195952D01*
X6237062Y-26205476D01*
X6189443Y-26205476D01*
X6170395Y-26195952D01*
X6160871Y-26186428D01*
X6513252Y-26205476D02*
X6513252Y-26005476D01*
X6598967Y-26205476D02*
X6598967Y-26100714D01*
X6589443Y-26081667D01*
X6570395Y-26072143D01*
X6541824Y-26072143D01*
X6522776Y-26081667D01*
X6513252Y-26091190D01*
X6722776Y-26205476D02*
X6703728Y-26195952D01*
X6694205Y-26186428D01*
X6684681Y-26167381D01*
X6684681Y-26110238D01*
X6694205Y-26091190D01*
X6703728Y-26081667D01*
X6722776Y-26072143D01*
X6751348Y-26072143D01*
X6770395Y-26081667D01*
X6779919Y-26091190D01*
X6789443Y-26110238D01*
X6789443Y-26167381D01*
X6779919Y-26186428D01*
X6770395Y-26195952D01*
X6751348Y-26205476D01*
X6722776Y-26205476D01*
X6903728Y-26205476D02*
X6884681Y-26195952D01*
X6875157Y-26176905D01*
X6875157Y-26005476D01*
X7056109Y-26195952D02*
X7037062Y-26205476D01*
X6998967Y-26205476D01*
X6979919Y-26195952D01*
X6970395Y-26176905D01*
X6970395Y-26100714D01*
X6979919Y-26081667D01*
X6998967Y-26072143D01*
X7037062Y-26072143D01*
X7056109Y-26081667D01*
X7065633Y-26100714D01*
X7065633Y-26119762D01*
X6970395Y-26138809D01*
X7141824Y-26195952D02*
X7160871Y-26205476D01*
X7198967Y-26205476D01*
X7218014Y-26195952D01*
X7227538Y-26176905D01*
X7227538Y-26167381D01*
X7218014Y-26148333D01*
X7198967Y-26138809D01*
X7170395Y-26138809D01*
X7151348Y-26129286D01*
X7141824Y-26110238D01*
X7141824Y-26100714D01*
X7151348Y-26081667D01*
X7170395Y-26072143D01*
X7198967Y-26072143D01*
X7218014Y-26081667D01*
X7294205Y-26281667D02*
X7303728Y-26272143D01*
X7322776Y-26243571D01*
X7332300Y-26224524D01*
X7341824Y-26195952D01*
X7351348Y-26148333D01*
X7351348Y-26110238D01*
X7341824Y-26062619D01*
X7332300Y-26034048D01*
X7322776Y-26015000D01*
X7303728Y-25986428D01*
X7294205Y-25976905D01*
D20*
X2362300Y-26299000D02*
X2522300Y-26459000D01*
X2522300Y-26299000D02*
X2362300Y-26459000D01*
X2442300Y-26459000D02*
X2522300Y-26379000D01*
X2442300Y-26299000D01*
X2362300Y-26379000D01*
X2442300Y-26459000D01*
D11*
X2884681Y-26469476D02*
X2770395Y-26469476D01*
X2827538Y-26469476D02*
X2827538Y-26269476D01*
X2808490Y-26298048D01*
X2789443Y-26317095D01*
X2770395Y-26326619D01*
X2970395Y-26450428D02*
X2979919Y-26459952D01*
X2970395Y-26469476D01*
X2960871Y-26459952D01*
X2970395Y-26450428D01*
X2970395Y-26469476D01*
X3151348Y-26269476D02*
X3113252Y-26269476D01*
X3094205Y-26279000D01*
X3084681Y-26288524D01*
X3065633Y-26317095D01*
X3056109Y-26355190D01*
X3056109Y-26431381D01*
X3065633Y-26450428D01*
X3075157Y-26459952D01*
X3094205Y-26469476D01*
X3132300Y-26469476D01*
X3151348Y-26459952D01*
X3160871Y-26450428D01*
X3170395Y-26431381D01*
X3170395Y-26383762D01*
X3160871Y-26364714D01*
X3151348Y-26355190D01*
X3132300Y-26345667D01*
X3094205Y-26345667D01*
X3075157Y-26355190D01*
X3065633Y-26364714D01*
X3056109Y-26383762D01*
X3294205Y-26269476D02*
X3313252Y-26269476D01*
X3332300Y-26279000D01*
X3341824Y-26288524D01*
X3351348Y-26307571D01*
X3360871Y-26345667D01*
X3360871Y-26393286D01*
X3351348Y-26431381D01*
X3341824Y-26450428D01*
X3332300Y-26459952D01*
X3313252Y-26469476D01*
X3294205Y-26469476D01*
X3275157Y-26459952D01*
X3265633Y-26450428D01*
X3256109Y-26431381D01*
X3246586Y-26393286D01*
X3246586Y-26345667D01*
X3256109Y-26307571D01*
X3265633Y-26288524D01*
X3275157Y-26279000D01*
X3294205Y-26269476D01*
X3484681Y-26269476D02*
X3503728Y-26269476D01*
X3522776Y-26279000D01*
X3532300Y-26288524D01*
X3541824Y-26307571D01*
X3551348Y-26345667D01*
X3551348Y-26393286D01*
X3541824Y-26431381D01*
X3532300Y-26450428D01*
X3522776Y-26459952D01*
X3503728Y-26469476D01*
X3484681Y-26469476D01*
X3465633Y-26459952D01*
X3456109Y-26450428D01*
X3446586Y-26431381D01*
X3437062Y-26393286D01*
X3437062Y-26345667D01*
X3446586Y-26307571D01*
X3456109Y-26288524D01*
X3465633Y-26279000D01*
X3484681Y-26269476D01*
X3637062Y-26469476D02*
X3637062Y-26336143D01*
X3637062Y-26355190D02*
X3646586Y-26345667D01*
X3665633Y-26336143D01*
X3694205Y-26336143D01*
X3713252Y-26345667D01*
X3722776Y-26364714D01*
X3722776Y-26469476D01*
X3722776Y-26364714D02*
X3732300Y-26345667D01*
X3751348Y-26336143D01*
X3779919Y-26336143D01*
X3798967Y-26345667D01*
X3808490Y-26364714D01*
X3808490Y-26469476D01*
X3903728Y-26469476D02*
X3903728Y-26336143D01*
X3903728Y-26355190D02*
X3913252Y-26345667D01*
X3932300Y-26336143D01*
X3960871Y-26336143D01*
X3979919Y-26345667D01*
X3989443Y-26364714D01*
X3989443Y-26469476D01*
X3989443Y-26364714D02*
X3998967Y-26345667D01*
X4018014Y-26336143D01*
X4046586Y-26336143D01*
X4065633Y-26345667D01*
X4075157Y-26364714D01*
X4075157Y-26469476D01*
X4465633Y-26259952D02*
X4294205Y-26517095D01*
X4722776Y-26269476D02*
X4741824Y-26269476D01*
X4760871Y-26279000D01*
X4770395Y-26288524D01*
X4779919Y-26307571D01*
X4789443Y-26345667D01*
X4789443Y-26393286D01*
X4779919Y-26431381D01*
X4770395Y-26450428D01*
X4760871Y-26459952D01*
X4741824Y-26469476D01*
X4722776Y-26469476D01*
X4703729Y-26459952D01*
X4694205Y-26450428D01*
X4684681Y-26431381D01*
X4675157Y-26393286D01*
X4675157Y-26345667D01*
X4684681Y-26307571D01*
X4694205Y-26288524D01*
X4703729Y-26279000D01*
X4722776Y-26269476D01*
X4875157Y-26450428D02*
X4884681Y-26459952D01*
X4875157Y-26469476D01*
X4865633Y-26459952D01*
X4875157Y-26450428D01*
X4875157Y-26469476D01*
X5008490Y-26269476D02*
X5027538Y-26269476D01*
X5046586Y-26279000D01*
X5056110Y-26288524D01*
X5065633Y-26307571D01*
X5075157Y-26345667D01*
X5075157Y-26393286D01*
X5065633Y-26431381D01*
X5056110Y-26450428D01*
X5046586Y-26459952D01*
X5027538Y-26469476D01*
X5008490Y-26469476D01*
X4989443Y-26459952D01*
X4979919Y-26450428D01*
X4970395Y-26431381D01*
X4960871Y-26393286D01*
X4960871Y-26345667D01*
X4970395Y-26307571D01*
X4979919Y-26288524D01*
X4989443Y-26279000D01*
X5008490Y-26269476D01*
X5246586Y-26269476D02*
X5208490Y-26269476D01*
X5189443Y-26279000D01*
X5179919Y-26288524D01*
X5160871Y-26317095D01*
X5151348Y-26355190D01*
X5151348Y-26431381D01*
X5160871Y-26450428D01*
X5170395Y-26459952D01*
X5189443Y-26469476D01*
X5227538Y-26469476D01*
X5246586Y-26459952D01*
X5256110Y-26450428D01*
X5265633Y-26431381D01*
X5265633Y-26383762D01*
X5256110Y-26364714D01*
X5246586Y-26355190D01*
X5227538Y-26345667D01*
X5189443Y-26345667D01*
X5170395Y-26355190D01*
X5160871Y-26364714D01*
X5151348Y-26383762D01*
X5332300Y-26269476D02*
X5456110Y-26269476D01*
X5389443Y-26345667D01*
X5418014Y-26345667D01*
X5437062Y-26355190D01*
X5446586Y-26364714D01*
X5456110Y-26383762D01*
X5456110Y-26431381D01*
X5446586Y-26450428D01*
X5437062Y-26459952D01*
X5418014Y-26469476D01*
X5360871Y-26469476D01*
X5341824Y-26459952D01*
X5332300Y-26450428D01*
X5579919Y-26269476D02*
X5598967Y-26269476D01*
X5618014Y-26279000D01*
X5627538Y-26288524D01*
X5637062Y-26307571D01*
X5646586Y-26345667D01*
X5646586Y-26393286D01*
X5637062Y-26431381D01*
X5627538Y-26450428D01*
X5618014Y-26459952D01*
X5598967Y-26469476D01*
X5579919Y-26469476D01*
X5560871Y-26459952D01*
X5551348Y-26450428D01*
X5541824Y-26431381D01*
X5532300Y-26393286D01*
X5532300Y-26345667D01*
X5541824Y-26307571D01*
X5551348Y-26288524D01*
X5560871Y-26279000D01*
X5579919Y-26269476D01*
X5722776Y-26269476D02*
X5722776Y-26307571D01*
X5798967Y-26269476D02*
X5798967Y-26307571D01*
X6094205Y-26545667D02*
X6084681Y-26536143D01*
X6065633Y-26507571D01*
X6056109Y-26488524D01*
X6046586Y-26459952D01*
X6037062Y-26412333D01*
X6037062Y-26374238D01*
X6046586Y-26326619D01*
X6056109Y-26298048D01*
X6065633Y-26279000D01*
X6084681Y-26250428D01*
X6094205Y-26240905D01*
X6275157Y-26469476D02*
X6160871Y-26469476D01*
X6218014Y-26469476D02*
X6218014Y-26269476D01*
X6198967Y-26298048D01*
X6179919Y-26317095D01*
X6160871Y-26326619D01*
X6398967Y-26269476D02*
X6418014Y-26269476D01*
X6437062Y-26279000D01*
X6446586Y-26288524D01*
X6456109Y-26307571D01*
X6465633Y-26345667D01*
X6465633Y-26393286D01*
X6456109Y-26431381D01*
X6446586Y-26450428D01*
X6437062Y-26459952D01*
X6418014Y-26469476D01*
X6398967Y-26469476D01*
X6379919Y-26459952D01*
X6370395Y-26450428D01*
X6360871Y-26431381D01*
X6351348Y-26393286D01*
X6351348Y-26345667D01*
X6360871Y-26307571D01*
X6370395Y-26288524D01*
X6379919Y-26279000D01*
X6398967Y-26269476D01*
X6703728Y-26469476D02*
X6703728Y-26269476D01*
X6789443Y-26469476D02*
X6789443Y-26364714D01*
X6779919Y-26345667D01*
X6760871Y-26336143D01*
X6732300Y-26336143D01*
X6713252Y-26345667D01*
X6703728Y-26355190D01*
X6913252Y-26469476D02*
X6894205Y-26459952D01*
X6884681Y-26450428D01*
X6875157Y-26431381D01*
X6875157Y-26374238D01*
X6884681Y-26355190D01*
X6894205Y-26345667D01*
X6913252Y-26336143D01*
X6941824Y-26336143D01*
X6960871Y-26345667D01*
X6970395Y-26355190D01*
X6979919Y-26374238D01*
X6979919Y-26431381D01*
X6970395Y-26450428D01*
X6960871Y-26459952D01*
X6941824Y-26469476D01*
X6913252Y-26469476D01*
X7094205Y-26469476D02*
X7075157Y-26459952D01*
X7065633Y-26440905D01*
X7065633Y-26269476D01*
X7246586Y-26459952D02*
X7227538Y-26469476D01*
X7189443Y-26469476D01*
X7170395Y-26459952D01*
X7160871Y-26440905D01*
X7160871Y-26364714D01*
X7170395Y-26345667D01*
X7189443Y-26336143D01*
X7227538Y-26336143D01*
X7246586Y-26345667D01*
X7256109Y-26364714D01*
X7256109Y-26383762D01*
X7160871Y-26402809D01*
X7332300Y-26459952D02*
X7351348Y-26469476D01*
X7389443Y-26469476D01*
X7408490Y-26459952D01*
X7418014Y-26440905D01*
X7418014Y-26431381D01*
X7408490Y-26412333D01*
X7389443Y-26402809D01*
X7360871Y-26402809D01*
X7341824Y-26393286D01*
X7332300Y-26374238D01*
X7332300Y-26364714D01*
X7341824Y-26345667D01*
X7360871Y-26336143D01*
X7389443Y-26336143D01*
X7408490Y-26345667D01*
X7484681Y-26545667D02*
X7494205Y-26536143D01*
X7513252Y-26507571D01*
X7522776Y-26488524D01*
X7532300Y-26459952D01*
X7541824Y-26412333D01*
X7541824Y-26374238D01*
X7532300Y-26326619D01*
X7522776Y-26298048D01*
X7513252Y-26279000D01*
X7494205Y-26250428D01*
X7484681Y-26240905D01*
X2422300Y-26559000D02*
X2422300Y-26759000D01*
X2322300Y-26659000D02*
X2522300Y-26659000D01*
X2522300Y-26659000D02*
G75*
G03*
X2522300Y-26659000I-100000J0D01*
G01*
X2770395Y-26568524D02*
X2779919Y-26559000D01*
X2798967Y-26549476D01*
X2846586Y-26549476D01*
X2865633Y-26559000D01*
X2875157Y-26568524D01*
X2884681Y-26587571D01*
X2884681Y-26606619D01*
X2875157Y-26635190D01*
X2760871Y-26749476D01*
X2884681Y-26749476D01*
X2970395Y-26730428D02*
X2979919Y-26739952D01*
X2970395Y-26749476D01*
X2960871Y-26739952D01*
X2970395Y-26730428D01*
X2970395Y-26749476D01*
X3103728Y-26549476D02*
X3122776Y-26549476D01*
X3141824Y-26559000D01*
X3151348Y-26568524D01*
X3160871Y-26587571D01*
X3170395Y-26625667D01*
X3170395Y-26673286D01*
X3160871Y-26711381D01*
X3151348Y-26730428D01*
X3141824Y-26739952D01*
X3122776Y-26749476D01*
X3103728Y-26749476D01*
X3084681Y-26739952D01*
X3075157Y-26730428D01*
X3065633Y-26711381D01*
X3056109Y-26673286D01*
X3056109Y-26625667D01*
X3065633Y-26587571D01*
X3075157Y-26568524D01*
X3084681Y-26559000D01*
X3103728Y-26549476D01*
X3237062Y-26549476D02*
X3360871Y-26549476D01*
X3294205Y-26625667D01*
X3322776Y-26625667D01*
X3341824Y-26635190D01*
X3351348Y-26644714D01*
X3360871Y-26663762D01*
X3360871Y-26711381D01*
X3351348Y-26730428D01*
X3341824Y-26739952D01*
X3322776Y-26749476D01*
X3265633Y-26749476D01*
X3246586Y-26739952D01*
X3237062Y-26730428D01*
X3437062Y-26568524D02*
X3446586Y-26559000D01*
X3465633Y-26549476D01*
X3513252Y-26549476D01*
X3532300Y-26559000D01*
X3541824Y-26568524D01*
X3551348Y-26587571D01*
X3551348Y-26606619D01*
X3541824Y-26635190D01*
X3427538Y-26749476D01*
X3551348Y-26749476D01*
X3637062Y-26749476D02*
X3637062Y-26616143D01*
X3637062Y-26635190D02*
X3646586Y-26625667D01*
X3665633Y-26616143D01*
X3694205Y-26616143D01*
X3713252Y-26625667D01*
X3722776Y-26644714D01*
X3722776Y-26749476D01*
X3722776Y-26644714D02*
X3732300Y-26625667D01*
X3751348Y-26616143D01*
X3779919Y-26616143D01*
X3798967Y-26625667D01*
X3808490Y-26644714D01*
X3808490Y-26749476D01*
X3903728Y-26749476D02*
X3903728Y-26616143D01*
X3903728Y-26635190D02*
X3913252Y-26625667D01*
X3932300Y-26616143D01*
X3960871Y-26616143D01*
X3979919Y-26625667D01*
X3989443Y-26644714D01*
X3989443Y-26749476D01*
X3989443Y-26644714D02*
X3998967Y-26625667D01*
X4018014Y-26616143D01*
X4046586Y-26616143D01*
X4065633Y-26625667D01*
X4075157Y-26644714D01*
X4075157Y-26749476D01*
X4465633Y-26539952D02*
X4294205Y-26797095D01*
X4722776Y-26549476D02*
X4741824Y-26549476D01*
X4760871Y-26559000D01*
X4770395Y-26568524D01*
X4779919Y-26587571D01*
X4789443Y-26625667D01*
X4789443Y-26673286D01*
X4779919Y-26711381D01*
X4770395Y-26730428D01*
X4760871Y-26739952D01*
X4741824Y-26749476D01*
X4722776Y-26749476D01*
X4703729Y-26739952D01*
X4694205Y-26730428D01*
X4684681Y-26711381D01*
X4675157Y-26673286D01*
X4675157Y-26625667D01*
X4684681Y-26587571D01*
X4694205Y-26568524D01*
X4703729Y-26559000D01*
X4722776Y-26549476D01*
X4875157Y-26730428D02*
X4884681Y-26739952D01*
X4875157Y-26749476D01*
X4865633Y-26739952D01*
X4875157Y-26730428D01*
X4875157Y-26749476D01*
X5008490Y-26549476D02*
X5027538Y-26549476D01*
X5046586Y-26559000D01*
X5056110Y-26568524D01*
X5065633Y-26587571D01*
X5075157Y-26625667D01*
X5075157Y-26673286D01*
X5065633Y-26711381D01*
X5056110Y-26730428D01*
X5046586Y-26739952D01*
X5027538Y-26749476D01*
X5008490Y-26749476D01*
X4989443Y-26739952D01*
X4979919Y-26730428D01*
X4970395Y-26711381D01*
X4960871Y-26673286D01*
X4960871Y-26625667D01*
X4970395Y-26587571D01*
X4979919Y-26568524D01*
X4989443Y-26559000D01*
X5008490Y-26549476D01*
X5189443Y-26635190D02*
X5170395Y-26625667D01*
X5160871Y-26616143D01*
X5151348Y-26597095D01*
X5151348Y-26587571D01*
X5160871Y-26568524D01*
X5170395Y-26559000D01*
X5189443Y-26549476D01*
X5227538Y-26549476D01*
X5246586Y-26559000D01*
X5256110Y-26568524D01*
X5265633Y-26587571D01*
X5265633Y-26597095D01*
X5256110Y-26616143D01*
X5246586Y-26625667D01*
X5227538Y-26635190D01*
X5189443Y-26635190D01*
X5170395Y-26644714D01*
X5160871Y-26654238D01*
X5151348Y-26673286D01*
X5151348Y-26711381D01*
X5160871Y-26730428D01*
X5170395Y-26739952D01*
X5189443Y-26749476D01*
X5227538Y-26749476D01*
X5246586Y-26739952D01*
X5256110Y-26730428D01*
X5265633Y-26711381D01*
X5265633Y-26673286D01*
X5256110Y-26654238D01*
X5246586Y-26644714D01*
X5227538Y-26635190D01*
X5389443Y-26549476D02*
X5408490Y-26549476D01*
X5427538Y-26559000D01*
X5437062Y-26568524D01*
X5446586Y-26587571D01*
X5456110Y-26625667D01*
X5456110Y-26673286D01*
X5446586Y-26711381D01*
X5437062Y-26730428D01*
X5427538Y-26739952D01*
X5408490Y-26749476D01*
X5389443Y-26749476D01*
X5370395Y-26739952D01*
X5360871Y-26730428D01*
X5351348Y-26711381D01*
X5341824Y-26673286D01*
X5341824Y-26625667D01*
X5351348Y-26587571D01*
X5360871Y-26568524D01*
X5370395Y-26559000D01*
X5389443Y-26549476D01*
X5579919Y-26549476D02*
X5598967Y-26549476D01*
X5618014Y-26559000D01*
X5627538Y-26568524D01*
X5637062Y-26587571D01*
X5646586Y-26625667D01*
X5646586Y-26673286D01*
X5637062Y-26711381D01*
X5627538Y-26730428D01*
X5618014Y-26739952D01*
X5598967Y-26749476D01*
X5579919Y-26749476D01*
X5560871Y-26739952D01*
X5551348Y-26730428D01*
X5541824Y-26711381D01*
X5532300Y-26673286D01*
X5532300Y-26625667D01*
X5541824Y-26587571D01*
X5551348Y-26568524D01*
X5560871Y-26559000D01*
X5579919Y-26549476D01*
X5722776Y-26549476D02*
X5722776Y-26587571D01*
X5798967Y-26549476D02*
X5798967Y-26587571D01*
X6094205Y-26825667D02*
X6084681Y-26816143D01*
X6065633Y-26787571D01*
X6056109Y-26768524D01*
X6046586Y-26739952D01*
X6037062Y-26692333D01*
X6037062Y-26654238D01*
X6046586Y-26606619D01*
X6056109Y-26578048D01*
X6065633Y-26559000D01*
X6084681Y-26530428D01*
X6094205Y-26520905D01*
X6151348Y-26549476D02*
X6275157Y-26549476D01*
X6208490Y-26625667D01*
X6237062Y-26625667D01*
X6256109Y-26635190D01*
X6265633Y-26644714D01*
X6275157Y-26663762D01*
X6275157Y-26711381D01*
X6265633Y-26730428D01*
X6256109Y-26739952D01*
X6237062Y-26749476D01*
X6179919Y-26749476D01*
X6160871Y-26739952D01*
X6151348Y-26730428D01*
X6351348Y-26568524D02*
X6360871Y-26559000D01*
X6379919Y-26549476D01*
X6427538Y-26549476D01*
X6446586Y-26559000D01*
X6456109Y-26568524D01*
X6465633Y-26587571D01*
X6465633Y-26606619D01*
X6456109Y-26635190D01*
X6341824Y-26749476D01*
X6465633Y-26749476D01*
X6703728Y-26749476D02*
X6703728Y-26549476D01*
X6789443Y-26749476D02*
X6789443Y-26644714D01*
X6779919Y-26625667D01*
X6760871Y-26616143D01*
X6732300Y-26616143D01*
X6713252Y-26625667D01*
X6703728Y-26635190D01*
X6913252Y-26749476D02*
X6894205Y-26739952D01*
X6884681Y-26730428D01*
X6875157Y-26711381D01*
X6875157Y-26654238D01*
X6884681Y-26635190D01*
X6894205Y-26625667D01*
X6913252Y-26616143D01*
X6941824Y-26616143D01*
X6960871Y-26625667D01*
X6970395Y-26635190D01*
X6979919Y-26654238D01*
X6979919Y-26711381D01*
X6970395Y-26730428D01*
X6960871Y-26739952D01*
X6941824Y-26749476D01*
X6913252Y-26749476D01*
X7094205Y-26749476D02*
X7075157Y-26739952D01*
X7065633Y-26720905D01*
X7065633Y-26549476D01*
X7246586Y-26739952D02*
X7227538Y-26749476D01*
X7189443Y-26749476D01*
X7170395Y-26739952D01*
X7160871Y-26720905D01*
X7160871Y-26644714D01*
X7170395Y-26625667D01*
X7189443Y-26616143D01*
X7227538Y-26616143D01*
X7246586Y-26625667D01*
X7256109Y-26644714D01*
X7256109Y-26663762D01*
X7160871Y-26682809D01*
X7332300Y-26739952D02*
X7351348Y-26749476D01*
X7389443Y-26749476D01*
X7408490Y-26739952D01*
X7418014Y-26720905D01*
X7418014Y-26711381D01*
X7408490Y-26692333D01*
X7389443Y-26682809D01*
X7360871Y-26682809D01*
X7341824Y-26673286D01*
X7332300Y-26654238D01*
X7332300Y-26644714D01*
X7341824Y-26625667D01*
X7360871Y-26616143D01*
X7389443Y-26616143D01*
X7408490Y-26625667D01*
X7484681Y-26825667D02*
X7494205Y-26816143D01*
X7513252Y-26787571D01*
X7522776Y-26768524D01*
X7532300Y-26739952D01*
X7541824Y-26692333D01*
X7541824Y-26654238D01*
X7532300Y-26606619D01*
X7522776Y-26578048D01*
X7513252Y-26559000D01*
X7494205Y-26530428D01*
X7484681Y-26520905D01*
X2493011Y-27049711D02*
X2493011Y-26908289D01*
X2351589Y-26908289D01*
X2351589Y-27049711D01*
X2493011Y-27049711D01*
X2522300Y-26979000D02*
G75*
G03*
X2522300Y-26979000I-100000J0D01*
G01*
X2760871Y-26869476D02*
X2884681Y-26869476D01*
X2818014Y-26945667D01*
X2846586Y-26945667D01*
X2865633Y-26955190D01*
X2875157Y-26964714D01*
X2884681Y-26983762D01*
X2884681Y-27031381D01*
X2875157Y-27050428D01*
X2865633Y-27059952D01*
X2846586Y-27069476D01*
X2789443Y-27069476D01*
X2770395Y-27059952D01*
X2760871Y-27050428D01*
X2970395Y-27050428D02*
X2979919Y-27059952D01*
X2970395Y-27069476D01*
X2960871Y-27059952D01*
X2970395Y-27050428D01*
X2970395Y-27069476D01*
X3046586Y-26869476D02*
X3170395Y-26869476D01*
X3103728Y-26945667D01*
X3132300Y-26945667D01*
X3151348Y-26955190D01*
X3160871Y-26964714D01*
X3170395Y-26983762D01*
X3170395Y-27031381D01*
X3160871Y-27050428D01*
X3151348Y-27059952D01*
X3132300Y-27069476D01*
X3075157Y-27069476D01*
X3056109Y-27059952D01*
X3046586Y-27050428D01*
X3294205Y-26869476D02*
X3313252Y-26869476D01*
X3332300Y-26879000D01*
X3341824Y-26888524D01*
X3351348Y-26907571D01*
X3360871Y-26945667D01*
X3360871Y-26993286D01*
X3351348Y-27031381D01*
X3341824Y-27050428D01*
X3332300Y-27059952D01*
X3313252Y-27069476D01*
X3294205Y-27069476D01*
X3275157Y-27059952D01*
X3265633Y-27050428D01*
X3256109Y-27031381D01*
X3246586Y-26993286D01*
X3246586Y-26945667D01*
X3256109Y-26907571D01*
X3265633Y-26888524D01*
X3275157Y-26879000D01*
X3294205Y-26869476D01*
X3437062Y-26888524D02*
X3446586Y-26879000D01*
X3465633Y-26869476D01*
X3513252Y-26869476D01*
X3532300Y-26879000D01*
X3541824Y-26888524D01*
X3551348Y-26907571D01*
X3551348Y-26926619D01*
X3541824Y-26955190D01*
X3427538Y-27069476D01*
X3551348Y-27069476D01*
X3637062Y-27069476D02*
X3637062Y-26936143D01*
X3637062Y-26955190D02*
X3646586Y-26945667D01*
X3665633Y-26936143D01*
X3694205Y-26936143D01*
X3713252Y-26945667D01*
X3722776Y-26964714D01*
X3722776Y-27069476D01*
X3722776Y-26964714D02*
X3732300Y-26945667D01*
X3751348Y-26936143D01*
X3779919Y-26936143D01*
X3798967Y-26945667D01*
X3808490Y-26964714D01*
X3808490Y-27069476D01*
X3903728Y-27069476D02*
X3903728Y-26936143D01*
X3903728Y-26955190D02*
X3913252Y-26945667D01*
X3932300Y-26936143D01*
X3960871Y-26936143D01*
X3979919Y-26945667D01*
X3989443Y-26964714D01*
X3989443Y-27069476D01*
X3989443Y-26964714D02*
X3998967Y-26945667D01*
X4018014Y-26936143D01*
X4046586Y-26936143D01*
X4065633Y-26945667D01*
X4075157Y-26964714D01*
X4075157Y-27069476D01*
X4465633Y-26859952D02*
X4294205Y-27117095D01*
X4722776Y-26869476D02*
X4741824Y-26869476D01*
X4760871Y-26879000D01*
X4770395Y-26888524D01*
X4779919Y-26907571D01*
X4789443Y-26945667D01*
X4789443Y-26993286D01*
X4779919Y-27031381D01*
X4770395Y-27050428D01*
X4760871Y-27059952D01*
X4741824Y-27069476D01*
X4722776Y-27069476D01*
X4703729Y-27059952D01*
X4694205Y-27050428D01*
X4684681Y-27031381D01*
X4675157Y-26993286D01*
X4675157Y-26945667D01*
X4684681Y-26907571D01*
X4694205Y-26888524D01*
X4703729Y-26879000D01*
X4722776Y-26869476D01*
X4875157Y-27050428D02*
X4884681Y-27059952D01*
X4875157Y-27069476D01*
X4865633Y-27059952D01*
X4875157Y-27050428D01*
X4875157Y-27069476D01*
X5075157Y-27069476D02*
X4960871Y-27069476D01*
X5018014Y-27069476D02*
X5018014Y-26869476D01*
X4998967Y-26898048D01*
X4979919Y-26917095D01*
X4960871Y-26926619D01*
X5141824Y-26869476D02*
X5265633Y-26869476D01*
X5198967Y-26945667D01*
X5227538Y-26945667D01*
X5246586Y-26955190D01*
X5256110Y-26964714D01*
X5265633Y-26983762D01*
X5265633Y-27031381D01*
X5256110Y-27050428D01*
X5246586Y-27059952D01*
X5227538Y-27069476D01*
X5170395Y-27069476D01*
X5151348Y-27059952D01*
X5141824Y-27050428D01*
X5389443Y-26869476D02*
X5408490Y-26869476D01*
X5427538Y-26879000D01*
X5437062Y-26888524D01*
X5446586Y-26907571D01*
X5456110Y-26945667D01*
X5456110Y-26993286D01*
X5446586Y-27031381D01*
X5437062Y-27050428D01*
X5427538Y-27059952D01*
X5408490Y-27069476D01*
X5389443Y-27069476D01*
X5370395Y-27059952D01*
X5360871Y-27050428D01*
X5351348Y-27031381D01*
X5341824Y-26993286D01*
X5341824Y-26945667D01*
X5351348Y-26907571D01*
X5360871Y-26888524D01*
X5370395Y-26879000D01*
X5389443Y-26869476D01*
X5579919Y-26869476D02*
X5598967Y-26869476D01*
X5618014Y-26879000D01*
X5627538Y-26888524D01*
X5637062Y-26907571D01*
X5646586Y-26945667D01*
X5646586Y-26993286D01*
X5637062Y-27031381D01*
X5627538Y-27050428D01*
X5618014Y-27059952D01*
X5598967Y-27069476D01*
X5579919Y-27069476D01*
X5560871Y-27059952D01*
X5551348Y-27050428D01*
X5541824Y-27031381D01*
X5532300Y-26993286D01*
X5532300Y-26945667D01*
X5541824Y-26907571D01*
X5551348Y-26888524D01*
X5560871Y-26879000D01*
X5579919Y-26869476D01*
X5722776Y-26869476D02*
X5722776Y-26907571D01*
X5798967Y-26869476D02*
X5798967Y-26907571D01*
X6094205Y-27145667D02*
X6084681Y-27136143D01*
X6065633Y-27107571D01*
X6056109Y-27088524D01*
X6046586Y-27059952D01*
X6037062Y-27012333D01*
X6037062Y-26974238D01*
X6046586Y-26926619D01*
X6056109Y-26898048D01*
X6065633Y-26879000D01*
X6084681Y-26850428D01*
X6094205Y-26840905D01*
X6198967Y-26955190D02*
X6179919Y-26945667D01*
X6170395Y-26936143D01*
X6160871Y-26917095D01*
X6160871Y-26907571D01*
X6170395Y-26888524D01*
X6179919Y-26879000D01*
X6198967Y-26869476D01*
X6237062Y-26869476D01*
X6256109Y-26879000D01*
X6265633Y-26888524D01*
X6275157Y-26907571D01*
X6275157Y-26917095D01*
X6265633Y-26936143D01*
X6256109Y-26945667D01*
X6237062Y-26955190D01*
X6198967Y-26955190D01*
X6179919Y-26964714D01*
X6170395Y-26974238D01*
X6160871Y-26993286D01*
X6160871Y-27031381D01*
X6170395Y-27050428D01*
X6179919Y-27059952D01*
X6198967Y-27069476D01*
X6237062Y-27069476D01*
X6256109Y-27059952D01*
X6265633Y-27050428D01*
X6275157Y-27031381D01*
X6275157Y-26993286D01*
X6265633Y-26974238D01*
X6256109Y-26964714D01*
X6237062Y-26955190D01*
X6513252Y-27069476D02*
X6513252Y-26869476D01*
X6598967Y-27069476D02*
X6598967Y-26964714D01*
X6589443Y-26945667D01*
X6570395Y-26936143D01*
X6541824Y-26936143D01*
X6522776Y-26945667D01*
X6513252Y-26955190D01*
X6722776Y-27069476D02*
X6703728Y-27059952D01*
X6694205Y-27050428D01*
X6684681Y-27031381D01*
X6684681Y-26974238D01*
X6694205Y-26955190D01*
X6703728Y-26945667D01*
X6722776Y-26936143D01*
X6751348Y-26936143D01*
X6770395Y-26945667D01*
X6779919Y-26955190D01*
X6789443Y-26974238D01*
X6789443Y-27031381D01*
X6779919Y-27050428D01*
X6770395Y-27059952D01*
X6751348Y-27069476D01*
X6722776Y-27069476D01*
X6903728Y-27069476D02*
X6884681Y-27059952D01*
X6875157Y-27040905D01*
X6875157Y-26869476D01*
X7056109Y-27059952D02*
X7037062Y-27069476D01*
X6998967Y-27069476D01*
X6979919Y-27059952D01*
X6970395Y-27040905D01*
X6970395Y-26964714D01*
X6979919Y-26945667D01*
X6998967Y-26936143D01*
X7037062Y-26936143D01*
X7056109Y-26945667D01*
X7065633Y-26964714D01*
X7065633Y-26983762D01*
X6970395Y-27002809D01*
X7141824Y-27059952D02*
X7160871Y-27069476D01*
X7198967Y-27069476D01*
X7218014Y-27059952D01*
X7227538Y-27040905D01*
X7227538Y-27031381D01*
X7218014Y-27012333D01*
X7198967Y-27002809D01*
X7170395Y-27002809D01*
X7151348Y-26993286D01*
X7141824Y-26974238D01*
X7141824Y-26964714D01*
X7151348Y-26945667D01*
X7170395Y-26936143D01*
X7198967Y-26936143D01*
X7218014Y-26945667D01*
X7294205Y-27145667D02*
X7303728Y-27136143D01*
X7322776Y-27107571D01*
X7332300Y-27088524D01*
X7341824Y-27059952D01*
X7351348Y-27012333D01*
X7351348Y-26974238D01*
X7341824Y-26926619D01*
X7332300Y-26898048D01*
X7322776Y-26879000D01*
X7303728Y-26850428D01*
X7294205Y-26840905D01*
X2422300Y-27399000D02*
X2522300Y-27299000D01*
X2422300Y-27199000D01*
X2322300Y-27299000D01*
X2422300Y-27399000D01*
X2522300Y-27299000D02*
G75*
G03*
X2522300Y-27299000I-100000J0D01*
G01*
X2760871Y-27189476D02*
X2884681Y-27189476D01*
X2818014Y-27265667D01*
X2846586Y-27265667D01*
X2865633Y-27275190D01*
X2875157Y-27284714D01*
X2884681Y-27303762D01*
X2884681Y-27351381D01*
X2875157Y-27370428D01*
X2865633Y-27379952D01*
X2846586Y-27389476D01*
X2789443Y-27389476D01*
X2770395Y-27379952D01*
X2760871Y-27370428D01*
X2970395Y-27370428D02*
X2979919Y-27379952D01*
X2970395Y-27389476D01*
X2960871Y-27379952D01*
X2970395Y-27370428D01*
X2970395Y-27389476D01*
X3151348Y-27256143D02*
X3151348Y-27389476D01*
X3103728Y-27179952D02*
X3056109Y-27322809D01*
X3179919Y-27322809D01*
X3246586Y-27208524D02*
X3256109Y-27199000D01*
X3275157Y-27189476D01*
X3322776Y-27189476D01*
X3341824Y-27199000D01*
X3351348Y-27208524D01*
X3360871Y-27227571D01*
X3360871Y-27246619D01*
X3351348Y-27275190D01*
X3237062Y-27389476D01*
X3360871Y-27389476D01*
X3456109Y-27389476D02*
X3494205Y-27389476D01*
X3513252Y-27379952D01*
X3522776Y-27370428D01*
X3541824Y-27341857D01*
X3551348Y-27303762D01*
X3551348Y-27227571D01*
X3541824Y-27208524D01*
X3532300Y-27199000D01*
X3513252Y-27189476D01*
X3475157Y-27189476D01*
X3456109Y-27199000D01*
X3446586Y-27208524D01*
X3437062Y-27227571D01*
X3437062Y-27275190D01*
X3446586Y-27294238D01*
X3456109Y-27303762D01*
X3475157Y-27313286D01*
X3513252Y-27313286D01*
X3532300Y-27303762D01*
X3541824Y-27294238D01*
X3551348Y-27275190D01*
X3637062Y-27389476D02*
X3637062Y-27256143D01*
X3637062Y-27275190D02*
X3646586Y-27265667D01*
X3665633Y-27256143D01*
X3694205Y-27256143D01*
X3713252Y-27265667D01*
X3722776Y-27284714D01*
X3722776Y-27389476D01*
X3722776Y-27284714D02*
X3732300Y-27265667D01*
X3751348Y-27256143D01*
X3779919Y-27256143D01*
X3798967Y-27265667D01*
X3808490Y-27284714D01*
X3808490Y-27389476D01*
X3903728Y-27389476D02*
X3903728Y-27256143D01*
X3903728Y-27275190D02*
X3913252Y-27265667D01*
X3932300Y-27256143D01*
X3960871Y-27256143D01*
X3979919Y-27265667D01*
X3989443Y-27284714D01*
X3989443Y-27389476D01*
X3989443Y-27284714D02*
X3998967Y-27265667D01*
X4018014Y-27256143D01*
X4046586Y-27256143D01*
X4065633Y-27265667D01*
X4075157Y-27284714D01*
X4075157Y-27389476D01*
X4465633Y-27179952D02*
X4294205Y-27437095D01*
X4722776Y-27189476D02*
X4741824Y-27189476D01*
X4760871Y-27199000D01*
X4770395Y-27208524D01*
X4779919Y-27227571D01*
X4789443Y-27265667D01*
X4789443Y-27313286D01*
X4779919Y-27351381D01*
X4770395Y-27370428D01*
X4760871Y-27379952D01*
X4741824Y-27389476D01*
X4722776Y-27389476D01*
X4703729Y-27379952D01*
X4694205Y-27370428D01*
X4684681Y-27351381D01*
X4675157Y-27313286D01*
X4675157Y-27265667D01*
X4684681Y-27227571D01*
X4694205Y-27208524D01*
X4703729Y-27199000D01*
X4722776Y-27189476D01*
X4875157Y-27370428D02*
X4884681Y-27379952D01*
X4875157Y-27389476D01*
X4865633Y-27379952D01*
X4875157Y-27370428D01*
X4875157Y-27389476D01*
X5075157Y-27389476D02*
X4960871Y-27389476D01*
X5018014Y-27389476D02*
X5018014Y-27189476D01*
X4998967Y-27218048D01*
X4979919Y-27237095D01*
X4960871Y-27246619D01*
X5141824Y-27189476D02*
X5265633Y-27189476D01*
X5198967Y-27265667D01*
X5227538Y-27265667D01*
X5246586Y-27275190D01*
X5256110Y-27284714D01*
X5265633Y-27303762D01*
X5265633Y-27351381D01*
X5256110Y-27370428D01*
X5246586Y-27379952D01*
X5227538Y-27389476D01*
X5170395Y-27389476D01*
X5151348Y-27379952D01*
X5141824Y-27370428D01*
X5446586Y-27189476D02*
X5351348Y-27189476D01*
X5341824Y-27284714D01*
X5351348Y-27275190D01*
X5370395Y-27265667D01*
X5418014Y-27265667D01*
X5437062Y-27275190D01*
X5446586Y-27284714D01*
X5456110Y-27303762D01*
X5456110Y-27351381D01*
X5446586Y-27370428D01*
X5437062Y-27379952D01*
X5418014Y-27389476D01*
X5370395Y-27389476D01*
X5351348Y-27379952D01*
X5341824Y-27370428D01*
X5579919Y-27189476D02*
X5598967Y-27189476D01*
X5618014Y-27199000D01*
X5627538Y-27208524D01*
X5637062Y-27227571D01*
X5646586Y-27265667D01*
X5646586Y-27313286D01*
X5637062Y-27351381D01*
X5627538Y-27370428D01*
X5618014Y-27379952D01*
X5598967Y-27389476D01*
X5579919Y-27389476D01*
X5560871Y-27379952D01*
X5551348Y-27370428D01*
X5541824Y-27351381D01*
X5532300Y-27313286D01*
X5532300Y-27265667D01*
X5541824Y-27227571D01*
X5551348Y-27208524D01*
X5560871Y-27199000D01*
X5579919Y-27189476D01*
X5722776Y-27189476D02*
X5722776Y-27227571D01*
X5798967Y-27189476D02*
X5798967Y-27227571D01*
X6094205Y-27465667D02*
X6084681Y-27456143D01*
X6065633Y-27427571D01*
X6056109Y-27408524D01*
X6046586Y-27379952D01*
X6037062Y-27332333D01*
X6037062Y-27294238D01*
X6046586Y-27246619D01*
X6056109Y-27218048D01*
X6065633Y-27199000D01*
X6084681Y-27170428D01*
X6094205Y-27160905D01*
X6256109Y-27256143D02*
X6256109Y-27389476D01*
X6208490Y-27179952D02*
X6160871Y-27322809D01*
X6284681Y-27322809D01*
X6513252Y-27389476D02*
X6513252Y-27189476D01*
X6598967Y-27389476D02*
X6598967Y-27284714D01*
X6589443Y-27265667D01*
X6570395Y-27256143D01*
X6541824Y-27256143D01*
X6522776Y-27265667D01*
X6513252Y-27275190D01*
X6722776Y-27389476D02*
X6703728Y-27379952D01*
X6694205Y-27370428D01*
X6684681Y-27351381D01*
X6684681Y-27294238D01*
X6694205Y-27275190D01*
X6703728Y-27265667D01*
X6722776Y-27256143D01*
X6751348Y-27256143D01*
X6770395Y-27265667D01*
X6779919Y-27275190D01*
X6789443Y-27294238D01*
X6789443Y-27351381D01*
X6779919Y-27370428D01*
X6770395Y-27379952D01*
X6751348Y-27389476D01*
X6722776Y-27389476D01*
X6903728Y-27389476D02*
X6884681Y-27379952D01*
X6875157Y-27360905D01*
X6875157Y-27189476D01*
X7056109Y-27379952D02*
X7037062Y-27389476D01*
X6998967Y-27389476D01*
X6979919Y-27379952D01*
X6970395Y-27360905D01*
X6970395Y-27284714D01*
X6979919Y-27265667D01*
X6998967Y-27256143D01*
X7037062Y-27256143D01*
X7056109Y-27265667D01*
X7065633Y-27284714D01*
X7065633Y-27303762D01*
X6970395Y-27322809D01*
X7141824Y-27379952D02*
X7160871Y-27389476D01*
X7198967Y-27389476D01*
X7218014Y-27379952D01*
X7227538Y-27360905D01*
X7227538Y-27351381D01*
X7218014Y-27332333D01*
X7198967Y-27322809D01*
X7170395Y-27322809D01*
X7151348Y-27313286D01*
X7141824Y-27294238D01*
X7141824Y-27284714D01*
X7151348Y-27265667D01*
X7170395Y-27256143D01*
X7198967Y-27256143D01*
X7218014Y-27265667D01*
X7294205Y-27465667D02*
X7303728Y-27456143D01*
X7322776Y-27427571D01*
X7332300Y-27408524D01*
X7341824Y-27379952D01*
X7351348Y-27332333D01*
X7351348Y-27294238D01*
X7341824Y-27246619D01*
X7332300Y-27218048D01*
X7322776Y-27199000D01*
X7303728Y-27170428D01*
X7294205Y-27160905D01*
X2422300Y-27519000D02*
X2422300Y-27719000D01*
X2322300Y-27619000D02*
X2522300Y-27619000D01*
X2493011Y-27689711D02*
X2493011Y-27548289D01*
X2351589Y-27548289D01*
X2351589Y-27689711D01*
X2493011Y-27689711D01*
X2875157Y-27509476D02*
X2779919Y-27509476D01*
X2770395Y-27604714D01*
X2779919Y-27595190D01*
X2798967Y-27585667D01*
X2846586Y-27585667D01*
X2865633Y-27595190D01*
X2875157Y-27604714D01*
X2884681Y-27623762D01*
X2884681Y-27671381D01*
X2875157Y-27690428D01*
X2865633Y-27699952D01*
X2846586Y-27709476D01*
X2798967Y-27709476D01*
X2779919Y-27699952D01*
X2770395Y-27690428D01*
X2970395Y-27690428D02*
X2979919Y-27699952D01*
X2970395Y-27709476D01*
X2960871Y-27699952D01*
X2970395Y-27690428D01*
X2970395Y-27709476D01*
X3046586Y-27509476D02*
X3170395Y-27509476D01*
X3103728Y-27585667D01*
X3132300Y-27585667D01*
X3151348Y-27595190D01*
X3160871Y-27604714D01*
X3170395Y-27623762D01*
X3170395Y-27671381D01*
X3160871Y-27690428D01*
X3151348Y-27699952D01*
X3132300Y-27709476D01*
X3075157Y-27709476D01*
X3056109Y-27699952D01*
X3046586Y-27690428D01*
X3294205Y-27509476D02*
X3313252Y-27509476D01*
X3332300Y-27519000D01*
X3341824Y-27528524D01*
X3351348Y-27547571D01*
X3360871Y-27585667D01*
X3360871Y-27633286D01*
X3351348Y-27671381D01*
X3341824Y-27690428D01*
X3332300Y-27699952D01*
X3313252Y-27709476D01*
X3294205Y-27709476D01*
X3275157Y-27699952D01*
X3265633Y-27690428D01*
X3256109Y-27671381D01*
X3246586Y-27633286D01*
X3246586Y-27585667D01*
X3256109Y-27547571D01*
X3265633Y-27528524D01*
X3275157Y-27519000D01*
X3294205Y-27509476D01*
X3484681Y-27509476D02*
X3503728Y-27509476D01*
X3522776Y-27519000D01*
X3532300Y-27528524D01*
X3541824Y-27547571D01*
X3551348Y-27585667D01*
X3551348Y-27633286D01*
X3541824Y-27671381D01*
X3532300Y-27690428D01*
X3522776Y-27699952D01*
X3503728Y-27709476D01*
X3484681Y-27709476D01*
X3465633Y-27699952D01*
X3456109Y-27690428D01*
X3446586Y-27671381D01*
X3437062Y-27633286D01*
X3437062Y-27585667D01*
X3446586Y-27547571D01*
X3456109Y-27528524D01*
X3465633Y-27519000D01*
X3484681Y-27509476D01*
X3637062Y-27709476D02*
X3637062Y-27576143D01*
X3637062Y-27595190D02*
X3646586Y-27585667D01*
X3665633Y-27576143D01*
X3694205Y-27576143D01*
X3713252Y-27585667D01*
X3722776Y-27604714D01*
X3722776Y-27709476D01*
X3722776Y-27604714D02*
X3732300Y-27585667D01*
X3751348Y-27576143D01*
X3779919Y-27576143D01*
X3798967Y-27585667D01*
X3808490Y-27604714D01*
X3808490Y-27709476D01*
X3903728Y-27709476D02*
X3903728Y-27576143D01*
X3903728Y-27595190D02*
X3913252Y-27585667D01*
X3932300Y-27576143D01*
X3960871Y-27576143D01*
X3979919Y-27585667D01*
X3989443Y-27604714D01*
X3989443Y-27709476D01*
X3989443Y-27604714D02*
X3998967Y-27585667D01*
X4018014Y-27576143D01*
X4046586Y-27576143D01*
X4065633Y-27585667D01*
X4075157Y-27604714D01*
X4075157Y-27709476D01*
X4465633Y-27499952D02*
X4294205Y-27757095D01*
X4722776Y-27509476D02*
X4741824Y-27509476D01*
X4760871Y-27519000D01*
X4770395Y-27528524D01*
X4779919Y-27547571D01*
X4789443Y-27585667D01*
X4789443Y-27633286D01*
X4779919Y-27671381D01*
X4770395Y-27690428D01*
X4760871Y-27699952D01*
X4741824Y-27709476D01*
X4722776Y-27709476D01*
X4703729Y-27699952D01*
X4694205Y-27690428D01*
X4684681Y-27671381D01*
X4675157Y-27633286D01*
X4675157Y-27585667D01*
X4684681Y-27547571D01*
X4694205Y-27528524D01*
X4703729Y-27519000D01*
X4722776Y-27509476D01*
X4875157Y-27690428D02*
X4884681Y-27699952D01*
X4875157Y-27709476D01*
X4865633Y-27699952D01*
X4875157Y-27690428D01*
X4875157Y-27709476D01*
X4960871Y-27528524D02*
X4970395Y-27519000D01*
X4989443Y-27509476D01*
X5037062Y-27509476D01*
X5056110Y-27519000D01*
X5065633Y-27528524D01*
X5075157Y-27547571D01*
X5075157Y-27566619D01*
X5065633Y-27595190D01*
X4951348Y-27709476D01*
X5075157Y-27709476D01*
X5198967Y-27509476D02*
X5218014Y-27509476D01*
X5237062Y-27519000D01*
X5246586Y-27528524D01*
X5256110Y-27547571D01*
X5265633Y-27585667D01*
X5265633Y-27633286D01*
X5256110Y-27671381D01*
X5246586Y-27690428D01*
X5237062Y-27699952D01*
X5218014Y-27709476D01*
X5198967Y-27709476D01*
X5179919Y-27699952D01*
X5170395Y-27690428D01*
X5160871Y-27671381D01*
X5151348Y-27633286D01*
X5151348Y-27585667D01*
X5160871Y-27547571D01*
X5170395Y-27528524D01*
X5179919Y-27519000D01*
X5198967Y-27509476D01*
X5379919Y-27595190D02*
X5360871Y-27585667D01*
X5351348Y-27576143D01*
X5341824Y-27557095D01*
X5341824Y-27547571D01*
X5351348Y-27528524D01*
X5360871Y-27519000D01*
X5379919Y-27509476D01*
X5418014Y-27509476D01*
X5437062Y-27519000D01*
X5446586Y-27528524D01*
X5456110Y-27547571D01*
X5456110Y-27557095D01*
X5446586Y-27576143D01*
X5437062Y-27585667D01*
X5418014Y-27595190D01*
X5379919Y-27595190D01*
X5360871Y-27604714D01*
X5351348Y-27614238D01*
X5341824Y-27633286D01*
X5341824Y-27671381D01*
X5351348Y-27690428D01*
X5360871Y-27699952D01*
X5379919Y-27709476D01*
X5418014Y-27709476D01*
X5437062Y-27699952D01*
X5446586Y-27690428D01*
X5456110Y-27671381D01*
X5456110Y-27633286D01*
X5446586Y-27614238D01*
X5437062Y-27604714D01*
X5418014Y-27595190D01*
X5522776Y-27509476D02*
X5656109Y-27509476D01*
X5570395Y-27709476D01*
X5722776Y-27509476D02*
X5722776Y-27547571D01*
X5798967Y-27509476D02*
X5798967Y-27547571D01*
X6094205Y-27785667D02*
X6084681Y-27776143D01*
X6065633Y-27747571D01*
X6056109Y-27728524D01*
X6046586Y-27699952D01*
X6037062Y-27652333D01*
X6037062Y-27614238D01*
X6046586Y-27566619D01*
X6056109Y-27538048D01*
X6065633Y-27519000D01*
X6084681Y-27490428D01*
X6094205Y-27480905D01*
X6275157Y-27709476D02*
X6160871Y-27709476D01*
X6218014Y-27709476D02*
X6218014Y-27509476D01*
X6198967Y-27538048D01*
X6179919Y-27557095D01*
X6160871Y-27566619D01*
X6351348Y-27528524D02*
X6360871Y-27519000D01*
X6379919Y-27509476D01*
X6427538Y-27509476D01*
X6446586Y-27519000D01*
X6456109Y-27528524D01*
X6465633Y-27547571D01*
X6465633Y-27566619D01*
X6456109Y-27595190D01*
X6341824Y-27709476D01*
X6465633Y-27709476D01*
X6703728Y-27709476D02*
X6703728Y-27509476D01*
X6789443Y-27709476D02*
X6789443Y-27604714D01*
X6779919Y-27585667D01*
X6760871Y-27576143D01*
X6732300Y-27576143D01*
X6713252Y-27585667D01*
X6703728Y-27595190D01*
X6913252Y-27709476D02*
X6894205Y-27699952D01*
X6884681Y-27690428D01*
X6875157Y-27671381D01*
X6875157Y-27614238D01*
X6884681Y-27595190D01*
X6894205Y-27585667D01*
X6913252Y-27576143D01*
X6941824Y-27576143D01*
X6960871Y-27585667D01*
X6970395Y-27595190D01*
X6979919Y-27614238D01*
X6979919Y-27671381D01*
X6970395Y-27690428D01*
X6960871Y-27699952D01*
X6941824Y-27709476D01*
X6913252Y-27709476D01*
X7094205Y-27709476D02*
X7075157Y-27699952D01*
X7065633Y-27680905D01*
X7065633Y-27509476D01*
X7246586Y-27699952D02*
X7227538Y-27709476D01*
X7189443Y-27709476D01*
X7170395Y-27699952D01*
X7160871Y-27680905D01*
X7160871Y-27604714D01*
X7170395Y-27585667D01*
X7189443Y-27576143D01*
X7227538Y-27576143D01*
X7246586Y-27585667D01*
X7256109Y-27604714D01*
X7256109Y-27623762D01*
X7160871Y-27642809D01*
X7332300Y-27699952D02*
X7351348Y-27709476D01*
X7389443Y-27709476D01*
X7408490Y-27699952D01*
X7418014Y-27680905D01*
X7418014Y-27671381D01*
X7408490Y-27652333D01*
X7389443Y-27642809D01*
X7360871Y-27642809D01*
X7341824Y-27633286D01*
X7332300Y-27614238D01*
X7332300Y-27604714D01*
X7341824Y-27585667D01*
X7360871Y-27576143D01*
X7389443Y-27576143D01*
X7408490Y-27585667D01*
X7484681Y-27785667D02*
X7494205Y-27776143D01*
X7513252Y-27747571D01*
X7522776Y-27728524D01*
X7532300Y-27699952D01*
X7541824Y-27652333D01*
X7541824Y-27614238D01*
X7532300Y-27566619D01*
X7522776Y-27538048D01*
X7513252Y-27519000D01*
X7494205Y-27490428D01*
X7484681Y-27480905D01*
M02*
