%TF.GenerationSoftware,KiCad,Pcbnew,(6.0.5)*%
%TF.CreationDate,2022-05-16T01:41:45-07:00*%
%TF.ProjectId,lta-power-module,6c74612d-706f-4776-9572-2d6d6f64756c,rev?*%
%TF.SameCoordinates,Original*%
%TF.FileFunction,Legend,Bot*%
%TF.FilePolarity,Positive*%
%FSLAX46Y46*%
G04 Gerber Fmt 4.6, Leading zero omitted, Abs format (unit mm)*
G04 Created by KiCad (PCBNEW (6.0.5)) date 2022-05-16 01:41:45*
%MOMM*%
%LPD*%
G01*
G04 APERTURE LIST*
G04 Aperture macros list*
%AMRoundRect*
0 Rectangle with rounded corners*
0 $1 Rounding radius*
0 $2 $3 $4 $5 $6 $7 $8 $9 X,Y pos of 4 corners*
0 Add a 4 corners polygon primitive as box body*
4,1,4,$2,$3,$4,$5,$6,$7,$8,$9,$2,$3,0*
0 Add four circle primitives for the rounded corners*
1,1,$1+$1,$2,$3*
1,1,$1+$1,$4,$5*
1,1,$1+$1,$6,$7*
1,1,$1+$1,$8,$9*
0 Add four rect primitives between the rounded corners*
20,1,$1+$1,$2,$3,$4,$5,0*
20,1,$1+$1,$4,$5,$6,$7,0*
20,1,$1+$1,$6,$7,$8,$9,0*
20,1,$1+$1,$8,$9,$2,$3,0*%
G04 Aperture macros list end*
%ADD10C,0.150000*%
%ADD11C,3.302000*%
%ADD12C,4.953000*%
%ADD13C,4.826000*%
%ADD14C,1.730000*%
%ADD15RoundRect,0.150000X-0.400000X-0.400000X0.400000X-0.400000X0.400000X0.400000X-0.400000X0.400000X0*%
%ADD16C,1.500000*%
%ADD17O,1.500000X1.500000*%
%ADD18RoundRect,0.050000X0.800000X0.800000X-0.800000X0.800000X-0.800000X-0.800000X0.800000X-0.800000X0*%
%ADD19C,1.700000*%
%ADD20C,3.300000*%
%ADD21C,9.600000*%
%ADD22RoundRect,0.050000X-0.790000X0.790000X-0.790000X-0.790000X0.790000X-0.790000X0.790000X0.790000X0*%
%ADD23C,1.680000*%
%ADD24RoundRect,0.050000X-0.575000X0.575000X-0.575000X-0.575000X0.575000X-0.575000X0.575000X0.575000X0*%
%ADD25C,1.250000*%
%ADD26C,1.900000*%
%ADD27RoundRect,0.050000X-0.750000X-0.750000X0.750000X-0.750000X0.750000X0.750000X-0.750000X0.750000X0*%
%ADD28C,1.600000*%
%ADD29O,1.700000X1.700000*%
%ADD30RoundRect,0.050000X-0.900000X0.900000X-0.900000X-0.900000X0.900000X-0.900000X0.900000X0.900000X0*%
%ADD31RoundRect,0.050000X-0.575000X-0.575000X0.575000X-0.575000X0.575000X0.575000X-0.575000X0.575000X0*%
%ADD32RoundRect,0.050000X1.600000X1.600000X-1.600000X1.600000X-1.600000X-1.600000X1.600000X-1.600000X0*%
%ADD33O,3.300000X3.300000*%
%ADD34RoundRect,0.050000X-0.900000X-0.900000X0.900000X-0.900000X0.900000X0.900000X-0.900000X0.900000X0*%
%ADD35RoundRect,0.050000X0.850000X-0.850000X0.850000X0.850000X-0.850000X0.850000X-0.850000X-0.850000X0*%
%ADD36O,1.800000X1.800000*%
%ADD37RoundRect,0.050000X-1.050000X-1.050000X1.050000X-1.050000X1.050000X1.050000X-1.050000X1.050000X0*%
%ADD38C,2.200000*%
G04 APERTURE END LIST*
D10*
X196329667Y-166545180D02*
X196663000Y-166068990D01*
X196901095Y-166545180D02*
X196901095Y-165545180D01*
X196520143Y-165545180D01*
X196424905Y-165592800D01*
X196377286Y-165640419D01*
X196329667Y-165735657D01*
X196329667Y-165878514D01*
X196377286Y-165973752D01*
X196424905Y-166021371D01*
X196520143Y-166068990D01*
X196901095Y-166068990D01*
X195472524Y-165878514D02*
X195472524Y-166545180D01*
X195710619Y-165497561D02*
X195948714Y-166211847D01*
X195329667Y-166211847D01*
X195043952Y-165545180D02*
X194377286Y-165545180D01*
X194805857Y-166545180D01*
X163589666Y-117099942D02*
X163637285Y-117147561D01*
X163780142Y-117195180D01*
X163875380Y-117195180D01*
X164018238Y-117147561D01*
X164113476Y-117052323D01*
X164161095Y-116957085D01*
X164208714Y-116766609D01*
X164208714Y-116623752D01*
X164161095Y-116433276D01*
X164113476Y-116338038D01*
X164018238Y-116242800D01*
X163875380Y-116195180D01*
X163780142Y-116195180D01*
X163637285Y-116242800D01*
X163589666Y-116290419D01*
X162637285Y-117195180D02*
X163208714Y-117195180D01*
X162923000Y-117195180D02*
X162923000Y-116195180D01*
X163018238Y-116338038D01*
X163113476Y-116433276D01*
X163208714Y-116480895D01*
X128625380Y-177526133D02*
X128149190Y-177192800D01*
X128625380Y-176954704D02*
X127625380Y-176954704D01*
X127625380Y-177335657D01*
X127673000Y-177430895D01*
X127720619Y-177478514D01*
X127815857Y-177526133D01*
X127958714Y-177526133D01*
X128053952Y-177478514D01*
X128101571Y-177430895D01*
X128149190Y-177335657D01*
X128149190Y-176954704D01*
X127625380Y-178383276D02*
X127625380Y-178192800D01*
X127673000Y-178097561D01*
X127720619Y-178049942D01*
X127863476Y-177954704D01*
X128053952Y-177907085D01*
X128434904Y-177907085D01*
X128530142Y-177954704D01*
X128577761Y-178002323D01*
X128625380Y-178097561D01*
X128625380Y-178288038D01*
X128577761Y-178383276D01*
X128530142Y-178430895D01*
X128434904Y-178478514D01*
X128196809Y-178478514D01*
X128101571Y-178430895D01*
X128053952Y-178383276D01*
X128006333Y-178288038D01*
X128006333Y-178097561D01*
X128053952Y-178002323D01*
X128101571Y-177954704D01*
X128196809Y-177907085D01*
X176706333Y-106997561D02*
X176563476Y-107045180D01*
X176325380Y-107045180D01*
X176230142Y-106997561D01*
X176182523Y-106949942D01*
X176134904Y-106854704D01*
X176134904Y-106759466D01*
X176182523Y-106664228D01*
X176230142Y-106616609D01*
X176325380Y-106568990D01*
X176515857Y-106521371D01*
X176611095Y-106473752D01*
X176658714Y-106426133D01*
X176706333Y-106330895D01*
X176706333Y-106235657D01*
X176658714Y-106140419D01*
X176611095Y-106092800D01*
X176515857Y-106045180D01*
X176277761Y-106045180D01*
X176134904Y-106092800D01*
X175801571Y-106045180D02*
X175563476Y-107045180D01*
X175373000Y-106330895D01*
X175182523Y-107045180D01*
X174944428Y-106045180D01*
X174039666Y-107045180D02*
X174611095Y-107045180D01*
X174325380Y-107045180D02*
X174325380Y-106045180D01*
X174420619Y-106188038D01*
X174515857Y-106283276D01*
X174611095Y-106330895D01*
X224079667Y-166545180D02*
X224413000Y-166068990D01*
X224651095Y-166545180D02*
X224651095Y-165545180D01*
X224270143Y-165545180D01*
X224174905Y-165592800D01*
X224127286Y-165640419D01*
X224079667Y-165735657D01*
X224079667Y-165878514D01*
X224127286Y-165973752D01*
X224174905Y-166021371D01*
X224270143Y-166068990D01*
X224651095Y-166068990D01*
X223174905Y-165545180D02*
X223651095Y-165545180D01*
X223698714Y-166021371D01*
X223651095Y-165973752D01*
X223555857Y-165926133D01*
X223317762Y-165926133D01*
X223222524Y-165973752D01*
X223174905Y-166021371D01*
X223127286Y-166116609D01*
X223127286Y-166354704D01*
X223174905Y-166449942D01*
X223222524Y-166497561D01*
X223317762Y-166545180D01*
X223555857Y-166545180D01*
X223651095Y-166497561D01*
X223698714Y-166449942D01*
X222270143Y-165878514D02*
X222270143Y-166545180D01*
X222508238Y-165497561D02*
X222746333Y-166211847D01*
X222127286Y-166211847D01*
X229575380Y-112359466D02*
X230289666Y-112359466D01*
X230432523Y-112311847D01*
X230527761Y-112216609D01*
X230575380Y-112073752D01*
X230575380Y-111978514D01*
X229670619Y-112788038D02*
X229623000Y-112835657D01*
X229575380Y-112930895D01*
X229575380Y-113168990D01*
X229623000Y-113264228D01*
X229670619Y-113311847D01*
X229765857Y-113359466D01*
X229861095Y-113359466D01*
X230003952Y-113311847D01*
X230575380Y-112740419D01*
X230575380Y-113359466D01*
X167989666Y-173849942D02*
X168037285Y-173897561D01*
X168180142Y-173945180D01*
X168275380Y-173945180D01*
X168418238Y-173897561D01*
X168513476Y-173802323D01*
X168561095Y-173707085D01*
X168608714Y-173516609D01*
X168608714Y-173373752D01*
X168561095Y-173183276D01*
X168513476Y-173088038D01*
X168418238Y-172992800D01*
X168275380Y-172945180D01*
X168180142Y-172945180D01*
X168037285Y-172992800D01*
X167989666Y-173040419D01*
X167132523Y-173278514D02*
X167132523Y-173945180D01*
X167370619Y-172897561D02*
X167608714Y-173611847D01*
X166989666Y-173611847D01*
X187739666Y-128045180D02*
X188215857Y-128045180D01*
X188215857Y-127045180D01*
X186882523Y-128045180D02*
X187453952Y-128045180D01*
X187168238Y-128045180D02*
X187168238Y-127045180D01*
X187263476Y-127188038D01*
X187358714Y-127283276D01*
X187453952Y-127330895D01*
X140062260Y-158482785D02*
X139586070Y-158149452D01*
X140062260Y-157911357D02*
X139062260Y-157911357D01*
X139062260Y-158292309D01*
X139109880Y-158387547D01*
X139157499Y-158435166D01*
X139252737Y-158482785D01*
X139395594Y-158482785D01*
X139490832Y-158435166D01*
X139538451Y-158387547D01*
X139586070Y-158292309D01*
X139586070Y-157911357D01*
X139157499Y-158863738D02*
X139109880Y-158911357D01*
X139062260Y-159006595D01*
X139062260Y-159244690D01*
X139109880Y-159339928D01*
X139157499Y-159387547D01*
X139252737Y-159435166D01*
X139347975Y-159435166D01*
X139490832Y-159387547D01*
X140062260Y-158816119D01*
X140062260Y-159435166D01*
X139062260Y-160054214D02*
X139062260Y-160149452D01*
X139109880Y-160244690D01*
X139157499Y-160292309D01*
X139252737Y-160339928D01*
X139443213Y-160387547D01*
X139681308Y-160387547D01*
X139871784Y-160339928D01*
X139967022Y-160292309D01*
X140014641Y-160244690D01*
X140062260Y-160149452D01*
X140062260Y-160054214D01*
X140014641Y-159958976D01*
X139967022Y-159911357D01*
X139871784Y-159863738D01*
X139681308Y-159816119D01*
X139443213Y-159816119D01*
X139252737Y-159863738D01*
X139157499Y-159911357D01*
X139109880Y-159958976D01*
X139062260Y-160054214D01*
X129876544Y-158456533D02*
X129400354Y-158123200D01*
X129876544Y-157885105D02*
X128876544Y-157885105D01*
X128876544Y-158266057D01*
X128924164Y-158361295D01*
X128971783Y-158408914D01*
X129067021Y-158456533D01*
X129209878Y-158456533D01*
X129305116Y-158408914D01*
X129352735Y-158361295D01*
X129400354Y-158266057D01*
X129400354Y-157885105D01*
X129876544Y-159408914D02*
X129876544Y-158837486D01*
X129876544Y-159123200D02*
X128876544Y-159123200D01*
X129019402Y-159027962D01*
X129114640Y-158932724D01*
X129162259Y-158837486D01*
X128971783Y-159789867D02*
X128924164Y-159837486D01*
X128876544Y-159932724D01*
X128876544Y-160170819D01*
X128924164Y-160266057D01*
X128971783Y-160313676D01*
X129067021Y-160361295D01*
X129162259Y-160361295D01*
X129305116Y-160313676D01*
X129876544Y-159742248D01*
X129876544Y-160361295D01*
X164134904Y-181495180D02*
X164134904Y-182304704D01*
X164087285Y-182399942D01*
X164039666Y-182447561D01*
X163944428Y-182495180D01*
X163753952Y-182495180D01*
X163658714Y-182447561D01*
X163611095Y-182399942D01*
X163563476Y-182304704D01*
X163563476Y-181495180D01*
X163182523Y-181495180D02*
X162515857Y-181495180D01*
X162944428Y-182495180D01*
X197287909Y-158476875D02*
X196811719Y-158143542D01*
X197287909Y-157905447D02*
X196287909Y-157905447D01*
X196287909Y-158286399D01*
X196335529Y-158381637D01*
X196383148Y-158429256D01*
X196478386Y-158476875D01*
X196621243Y-158476875D01*
X196716481Y-158429256D01*
X196764100Y-158381637D01*
X196811719Y-158286399D01*
X196811719Y-157905447D01*
X196621243Y-159334018D02*
X197287909Y-159334018D01*
X196240290Y-159095923D02*
X196954576Y-158857828D01*
X196954576Y-159476875D01*
X196621243Y-160286399D02*
X197287909Y-160286399D01*
X196240290Y-160048304D02*
X196954576Y-159810209D01*
X196954576Y-160429256D01*
X161532897Y-158437497D02*
X161056707Y-158104164D01*
X161532897Y-157866069D02*
X160532897Y-157866069D01*
X160532897Y-158247021D01*
X160580517Y-158342259D01*
X160628136Y-158389878D01*
X160723374Y-158437497D01*
X160866231Y-158437497D01*
X160961469Y-158389878D01*
X161009088Y-158342259D01*
X161056707Y-158247021D01*
X161056707Y-157866069D01*
X161532897Y-159389878D02*
X161532897Y-158818450D01*
X161532897Y-159104164D02*
X160532897Y-159104164D01*
X160675755Y-159008926D01*
X160770993Y-158913688D01*
X160818612Y-158818450D01*
X160532897Y-160294640D02*
X160532897Y-159818450D01*
X161009088Y-159770831D01*
X160961469Y-159818450D01*
X160913850Y-159913688D01*
X160913850Y-160151783D01*
X160961469Y-160247021D01*
X161009088Y-160294640D01*
X161104326Y-160342259D01*
X161342421Y-160342259D01*
X161437659Y-160294640D01*
X161485278Y-160247021D01*
X161532897Y-160151783D01*
X161532897Y-159913688D01*
X161485278Y-159818450D01*
X161437659Y-159770831D01*
X219689667Y-205299942D02*
X219737286Y-205347561D01*
X219880143Y-205395180D01*
X219975381Y-205395180D01*
X220118238Y-205347561D01*
X220213476Y-205252323D01*
X220261095Y-205157085D01*
X220308714Y-204966609D01*
X220308714Y-204823752D01*
X220261095Y-204633276D01*
X220213476Y-204538038D01*
X220118238Y-204442800D01*
X219975381Y-204395180D01*
X219880143Y-204395180D01*
X219737286Y-204442800D01*
X219689667Y-204490419D01*
X218737286Y-205395180D02*
X219308714Y-205395180D01*
X219023000Y-205395180D02*
X219023000Y-204395180D01*
X219118238Y-204538038D01*
X219213476Y-204633276D01*
X219308714Y-204680895D01*
X218118238Y-204395180D02*
X218023000Y-204395180D01*
X217927762Y-204442800D01*
X217880143Y-204490419D01*
X217832524Y-204585657D01*
X217784905Y-204776133D01*
X217784905Y-205014228D01*
X217832524Y-205204704D01*
X217880143Y-205299942D01*
X217927762Y-205347561D01*
X218023000Y-205395180D01*
X218118238Y-205395180D01*
X218213476Y-205347561D01*
X218261095Y-205299942D01*
X218308714Y-205204704D01*
X218356333Y-205014228D01*
X218356333Y-204776133D01*
X218308714Y-204585657D01*
X218261095Y-204490419D01*
X218213476Y-204442800D01*
X218118238Y-204395180D01*
X138879666Y-114245180D02*
X139213000Y-113768990D01*
X139451095Y-114245180D02*
X139451095Y-113245180D01*
X139070142Y-113245180D01*
X138974904Y-113292800D01*
X138927285Y-113340419D01*
X138879666Y-113435657D01*
X138879666Y-113578514D01*
X138927285Y-113673752D01*
X138974904Y-113721371D01*
X139070142Y-113768990D01*
X139451095Y-113768990D01*
X137927285Y-114245180D02*
X138498714Y-114245180D01*
X138213000Y-114245180D02*
X138213000Y-113245180D01*
X138308238Y-113388038D01*
X138403476Y-113483276D01*
X138498714Y-113530895D01*
X224525380Y-158499941D02*
X224049190Y-158166608D01*
X224525380Y-157928513D02*
X223525380Y-157928513D01*
X223525380Y-158309465D01*
X223573000Y-158404703D01*
X223620619Y-158452322D01*
X223715857Y-158499941D01*
X223858714Y-158499941D01*
X223953952Y-158452322D01*
X224001571Y-158404703D01*
X224049190Y-158309465D01*
X224049190Y-157928513D01*
X223525380Y-159404703D02*
X223525380Y-158928513D01*
X224001571Y-158880894D01*
X223953952Y-158928513D01*
X223906333Y-159023751D01*
X223906333Y-159261846D01*
X223953952Y-159357084D01*
X224001571Y-159404703D01*
X224096809Y-159452322D01*
X224334904Y-159452322D01*
X224430142Y-159404703D01*
X224477761Y-159357084D01*
X224525380Y-159261846D01*
X224525380Y-159023751D01*
X224477761Y-158928513D01*
X224430142Y-158880894D01*
X223620619Y-159833275D02*
X223573000Y-159880894D01*
X223525380Y-159976132D01*
X223525380Y-160214227D01*
X223573000Y-160309465D01*
X223620619Y-160357084D01*
X223715857Y-160404703D01*
X223811095Y-160404703D01*
X223953952Y-160357084D01*
X224525380Y-159785656D01*
X224525380Y-160404703D01*
X192989666Y-173849942D02*
X193037285Y-173897561D01*
X193180142Y-173945180D01*
X193275380Y-173945180D01*
X193418238Y-173897561D01*
X193513476Y-173802323D01*
X193561095Y-173707085D01*
X193608714Y-173516609D01*
X193608714Y-173373752D01*
X193561095Y-173183276D01*
X193513476Y-173088038D01*
X193418238Y-172992800D01*
X193275380Y-172945180D01*
X193180142Y-172945180D01*
X193037285Y-172992800D01*
X192989666Y-173040419D01*
X192656333Y-172945180D02*
X191989666Y-172945180D01*
X192418238Y-173945180D01*
X137884904Y-181495180D02*
X137884904Y-182304704D01*
X137837285Y-182399942D01*
X137789666Y-182447561D01*
X137694428Y-182495180D01*
X137503952Y-182495180D01*
X137408714Y-182447561D01*
X137361095Y-182399942D01*
X137313476Y-182304704D01*
X137313476Y-181495180D01*
X136408714Y-181495180D02*
X136599190Y-181495180D01*
X136694428Y-181542800D01*
X136742047Y-181590419D01*
X136837285Y-181733276D01*
X136884904Y-181923752D01*
X136884904Y-182304704D01*
X136837285Y-182399942D01*
X136789666Y-182447561D01*
X136694428Y-182495180D01*
X136503952Y-182495180D01*
X136408714Y-182447561D01*
X136361095Y-182399942D01*
X136313476Y-182304704D01*
X136313476Y-182066609D01*
X136361095Y-181971371D01*
X136408714Y-181923752D01*
X136503952Y-181876133D01*
X136694428Y-181876133D01*
X136789666Y-181923752D01*
X136837285Y-181971371D01*
X136884904Y-182066609D01*
X194775380Y-102826133D02*
X194299190Y-102492800D01*
X194775380Y-102254704D02*
X193775380Y-102254704D01*
X193775380Y-102635657D01*
X193823000Y-102730895D01*
X193870619Y-102778514D01*
X193965857Y-102826133D01*
X194108714Y-102826133D01*
X194203952Y-102778514D01*
X194251571Y-102730895D01*
X194299190Y-102635657D01*
X194299190Y-102254704D01*
X193775380Y-103730895D02*
X193775380Y-103254704D01*
X194251571Y-103207085D01*
X194203952Y-103254704D01*
X194156333Y-103349942D01*
X194156333Y-103588038D01*
X194203952Y-103683276D01*
X194251571Y-103730895D01*
X194346809Y-103778514D01*
X194584904Y-103778514D01*
X194680142Y-103730895D01*
X194727761Y-103683276D01*
X194775380Y-103588038D01*
X194775380Y-103349942D01*
X194727761Y-103254704D01*
X194680142Y-103207085D01*
X214543116Y-158440875D02*
X214066926Y-158107542D01*
X214543116Y-157869447D02*
X213543116Y-157869447D01*
X213543116Y-158250399D01*
X213590736Y-158345637D01*
X213638355Y-158393256D01*
X213733593Y-158440875D01*
X213876450Y-158440875D01*
X213971688Y-158393256D01*
X214019307Y-158345637D01*
X214066926Y-158250399D01*
X214066926Y-157869447D01*
X213876450Y-159298018D02*
X214543116Y-159298018D01*
X213495497Y-159059923D02*
X214209783Y-158821828D01*
X214209783Y-159440875D01*
X213543116Y-160298018D02*
X213543116Y-159821828D01*
X214019307Y-159774209D01*
X213971688Y-159821828D01*
X213924069Y-159917066D01*
X213924069Y-160155161D01*
X213971688Y-160250399D01*
X214019307Y-160298018D01*
X214114545Y-160345637D01*
X214352640Y-160345637D01*
X214447878Y-160298018D01*
X214495497Y-160250399D01*
X214543116Y-160155161D01*
X214543116Y-159917066D01*
X214495497Y-159821828D01*
X214447878Y-159774209D01*
X169611095Y-125845180D02*
X169611095Y-124845180D01*
X169373000Y-124845180D01*
X169230142Y-124892800D01*
X169134904Y-124988038D01*
X169087285Y-125083276D01*
X169039666Y-125273752D01*
X169039666Y-125416609D01*
X169087285Y-125607085D01*
X169134904Y-125702323D01*
X169230142Y-125797561D01*
X169373000Y-125845180D01*
X169611095Y-125845180D01*
X168706333Y-124845180D02*
X168087285Y-124845180D01*
X168420619Y-125226133D01*
X168277761Y-125226133D01*
X168182523Y-125273752D01*
X168134904Y-125321371D01*
X168087285Y-125416609D01*
X168087285Y-125654704D01*
X168134904Y-125749942D01*
X168182523Y-125797561D01*
X168277761Y-125845180D01*
X168563476Y-125845180D01*
X168658714Y-125797561D01*
X168706333Y-125749942D01*
X140713476Y-205249942D02*
X140761095Y-205297561D01*
X140903952Y-205345180D01*
X140999190Y-205345180D01*
X141142048Y-205297561D01*
X141237286Y-205202323D01*
X141284905Y-205107085D01*
X141332524Y-204916609D01*
X141332524Y-204773752D01*
X141284905Y-204583276D01*
X141237286Y-204488038D01*
X141142048Y-204392800D01*
X140999190Y-204345180D01*
X140903952Y-204345180D01*
X140761095Y-204392800D01*
X140713476Y-204440419D01*
X139808714Y-204345180D02*
X140284905Y-204345180D01*
X140332524Y-204821371D01*
X140284905Y-204773752D01*
X140189667Y-204726133D01*
X139951571Y-204726133D01*
X139856333Y-204773752D01*
X139808714Y-204821371D01*
X139761095Y-204916609D01*
X139761095Y-205154704D01*
X139808714Y-205249942D01*
X139856333Y-205297561D01*
X139951571Y-205345180D01*
X140189667Y-205345180D01*
X140284905Y-205297561D01*
X140332524Y-205249942D01*
X171169667Y-170575180D02*
X171503000Y-170098990D01*
X171741095Y-170575180D02*
X171741095Y-169575180D01*
X171360143Y-169575180D01*
X171264905Y-169622800D01*
X171217286Y-169670419D01*
X171169667Y-169765657D01*
X171169667Y-169908514D01*
X171217286Y-170003752D01*
X171264905Y-170051371D01*
X171360143Y-170098990D01*
X171741095Y-170098990D01*
X170788714Y-169670419D02*
X170741095Y-169622800D01*
X170645857Y-169575180D01*
X170407762Y-169575180D01*
X170312524Y-169622800D01*
X170264905Y-169670419D01*
X170217286Y-169765657D01*
X170217286Y-169860895D01*
X170264905Y-170003752D01*
X170836333Y-170575180D01*
X170217286Y-170575180D01*
X169360143Y-169575180D02*
X169550619Y-169575180D01*
X169645857Y-169622800D01*
X169693476Y-169670419D01*
X169788714Y-169813276D01*
X169836333Y-170003752D01*
X169836333Y-170384704D01*
X169788714Y-170479942D01*
X169741095Y-170527561D01*
X169645857Y-170575180D01*
X169455381Y-170575180D01*
X169360143Y-170527561D01*
X169312524Y-170479942D01*
X169264905Y-170384704D01*
X169264905Y-170146609D01*
X169312524Y-170051371D01*
X169360143Y-170003752D01*
X169455381Y-169956133D01*
X169645857Y-169956133D01*
X169741095Y-170003752D01*
X169788714Y-170051371D01*
X169836333Y-170146609D01*
X130513476Y-166415180D02*
X130846810Y-165938990D01*
X131084905Y-166415180D02*
X131084905Y-165415180D01*
X130703952Y-165415180D01*
X130608714Y-165462800D01*
X130561095Y-165510419D01*
X130513476Y-165605657D01*
X130513476Y-165748514D01*
X130561095Y-165843752D01*
X130608714Y-165891371D01*
X130703952Y-165938990D01*
X131084905Y-165938990D01*
X130037286Y-166415180D02*
X129846810Y-166415180D01*
X129751571Y-166367561D01*
X129703952Y-166319942D01*
X129608714Y-166177085D01*
X129561095Y-165986609D01*
X129561095Y-165605657D01*
X129608714Y-165510419D01*
X129656333Y-165462800D01*
X129751571Y-165415180D01*
X129942048Y-165415180D01*
X130037286Y-165462800D01*
X130084905Y-165510419D01*
X130132524Y-165605657D01*
X130132524Y-165843752D01*
X130084905Y-165938990D01*
X130037286Y-165986609D01*
X129942048Y-166034228D01*
X129751571Y-166034228D01*
X129656333Y-165986609D01*
X129608714Y-165938990D01*
X129561095Y-165843752D01*
X210129667Y-170745180D02*
X210463000Y-170268990D01*
X210701095Y-170745180D02*
X210701095Y-169745180D01*
X210320143Y-169745180D01*
X210224905Y-169792800D01*
X210177286Y-169840419D01*
X210129667Y-169935657D01*
X210129667Y-170078514D01*
X210177286Y-170173752D01*
X210224905Y-170221371D01*
X210320143Y-170268990D01*
X210701095Y-170268990D01*
X209796333Y-169745180D02*
X209177286Y-169745180D01*
X209510619Y-170126133D01*
X209367762Y-170126133D01*
X209272524Y-170173752D01*
X209224905Y-170221371D01*
X209177286Y-170316609D01*
X209177286Y-170554704D01*
X209224905Y-170649942D01*
X209272524Y-170697561D01*
X209367762Y-170745180D01*
X209653476Y-170745180D01*
X209748714Y-170697561D01*
X209796333Y-170649942D01*
X208701095Y-170745180D02*
X208510619Y-170745180D01*
X208415381Y-170697561D01*
X208367762Y-170649942D01*
X208272524Y-170507085D01*
X208224905Y-170316609D01*
X208224905Y-169935657D01*
X208272524Y-169840419D01*
X208320143Y-169792800D01*
X208415381Y-169745180D01*
X208605857Y-169745180D01*
X208701095Y-169792800D01*
X208748714Y-169840419D01*
X208796333Y-169935657D01*
X208796333Y-170173752D01*
X208748714Y-170268990D01*
X208701095Y-170316609D01*
X208605857Y-170364228D01*
X208415381Y-170364228D01*
X208320143Y-170316609D01*
X208272524Y-170268990D01*
X208224905Y-170173752D01*
X220739666Y-173769942D02*
X220787285Y-173817561D01*
X220930142Y-173865180D01*
X221025380Y-173865180D01*
X221168238Y-173817561D01*
X221263476Y-173722323D01*
X221311095Y-173627085D01*
X221358714Y-173436609D01*
X221358714Y-173293752D01*
X221311095Y-173103276D01*
X221263476Y-173008038D01*
X221168238Y-172912800D01*
X221025380Y-172865180D01*
X220930142Y-172865180D01*
X220787285Y-172912800D01*
X220739666Y-172960419D01*
X220263476Y-173865180D02*
X220073000Y-173865180D01*
X219977761Y-173817561D01*
X219930142Y-173769942D01*
X219834904Y-173627085D01*
X219787285Y-173436609D01*
X219787285Y-173055657D01*
X219834904Y-172960419D01*
X219882523Y-172912800D01*
X219977761Y-172865180D01*
X220168238Y-172865180D01*
X220263476Y-172912800D01*
X220311095Y-172960419D01*
X220358714Y-173055657D01*
X220358714Y-173293752D01*
X220311095Y-173388990D01*
X220263476Y-173436609D01*
X220168238Y-173484228D01*
X219977761Y-173484228D01*
X219882523Y-173436609D01*
X219834904Y-173388990D01*
X219787285Y-173293752D01*
X183579667Y-166465180D02*
X183913000Y-165988990D01*
X184151095Y-166465180D02*
X184151095Y-165465180D01*
X183770143Y-165465180D01*
X183674905Y-165512800D01*
X183627286Y-165560419D01*
X183579667Y-165655657D01*
X183579667Y-165798514D01*
X183627286Y-165893752D01*
X183674905Y-165941371D01*
X183770143Y-165988990D01*
X184151095Y-165988990D01*
X183246333Y-165465180D02*
X182627286Y-165465180D01*
X182960619Y-165846133D01*
X182817762Y-165846133D01*
X182722524Y-165893752D01*
X182674905Y-165941371D01*
X182627286Y-166036609D01*
X182627286Y-166274704D01*
X182674905Y-166369942D01*
X182722524Y-166417561D01*
X182817762Y-166465180D01*
X183103476Y-166465180D01*
X183198714Y-166417561D01*
X183246333Y-166369942D01*
X181770143Y-165465180D02*
X181960619Y-165465180D01*
X182055857Y-165512800D01*
X182103476Y-165560419D01*
X182198714Y-165703276D01*
X182246333Y-165893752D01*
X182246333Y-166274704D01*
X182198714Y-166369942D01*
X182151095Y-166417561D01*
X182055857Y-166465180D01*
X181865381Y-166465180D01*
X181770143Y-166417561D01*
X181722524Y-166369942D01*
X181674905Y-166274704D01*
X181674905Y-166036609D01*
X181722524Y-165941371D01*
X181770143Y-165893752D01*
X181865381Y-165846133D01*
X182055857Y-165846133D01*
X182151095Y-165893752D01*
X182198714Y-165941371D01*
X182246333Y-166036609D01*
X145050110Y-158482785D02*
X144573920Y-158149452D01*
X145050110Y-157911357D02*
X144050110Y-157911357D01*
X144050110Y-158292309D01*
X144097730Y-158387547D01*
X144145349Y-158435166D01*
X144240587Y-158482785D01*
X144383444Y-158482785D01*
X144478682Y-158435166D01*
X144526301Y-158387547D01*
X144573920Y-158292309D01*
X144573920Y-157911357D01*
X144145349Y-158863738D02*
X144097730Y-158911357D01*
X144050110Y-159006595D01*
X144050110Y-159244690D01*
X144097730Y-159339928D01*
X144145349Y-159387547D01*
X144240587Y-159435166D01*
X144335825Y-159435166D01*
X144478682Y-159387547D01*
X145050110Y-158816119D01*
X145050110Y-159435166D01*
X144145349Y-159816119D02*
X144097730Y-159863738D01*
X144050110Y-159958976D01*
X144050110Y-160197071D01*
X144097730Y-160292309D01*
X144145349Y-160339928D01*
X144240587Y-160387547D01*
X144335825Y-160387547D01*
X144478682Y-160339928D01*
X145050110Y-159768500D01*
X145050110Y-160387547D01*
X219563781Y-158440875D02*
X219087591Y-158107542D01*
X219563781Y-157869447D02*
X218563781Y-157869447D01*
X218563781Y-158250399D01*
X218611401Y-158345637D01*
X218659020Y-158393256D01*
X218754258Y-158440875D01*
X218897115Y-158440875D01*
X218992353Y-158393256D01*
X219039972Y-158345637D01*
X219087591Y-158250399D01*
X219087591Y-157869447D01*
X218563781Y-159345637D02*
X218563781Y-158869447D01*
X219039972Y-158821828D01*
X218992353Y-158869447D01*
X218944734Y-158964685D01*
X218944734Y-159202780D01*
X218992353Y-159298018D01*
X219039972Y-159345637D01*
X219135210Y-159393256D01*
X219373305Y-159393256D01*
X219468543Y-159345637D01*
X219516162Y-159298018D01*
X219563781Y-159202780D01*
X219563781Y-158964685D01*
X219516162Y-158869447D01*
X219468543Y-158821828D01*
X219563781Y-160345637D02*
X219563781Y-159774209D01*
X219563781Y-160059923D02*
X218563781Y-160059923D01*
X218706639Y-159964685D01*
X218801877Y-159869447D01*
X218849496Y-159774209D01*
X210079667Y-166465180D02*
X210413000Y-165988990D01*
X210651095Y-166465180D02*
X210651095Y-165465180D01*
X210270143Y-165465180D01*
X210174905Y-165512800D01*
X210127286Y-165560419D01*
X210079667Y-165655657D01*
X210079667Y-165798514D01*
X210127286Y-165893752D01*
X210174905Y-165941371D01*
X210270143Y-165988990D01*
X210651095Y-165988990D01*
X209222524Y-165798514D02*
X209222524Y-166465180D01*
X209460619Y-165417561D02*
X209698714Y-166131847D01*
X209079667Y-166131847D01*
X208508238Y-165465180D02*
X208413000Y-165465180D01*
X208317762Y-165512800D01*
X208270143Y-165560419D01*
X208222524Y-165655657D01*
X208174905Y-165846133D01*
X208174905Y-166084228D01*
X208222524Y-166274704D01*
X208270143Y-166369942D01*
X208317762Y-166417561D01*
X208413000Y-166465180D01*
X208508238Y-166465180D01*
X208603476Y-166417561D01*
X208651095Y-166369942D01*
X208698714Y-166274704D01*
X208746333Y-166084228D01*
X208746333Y-165846133D01*
X208698714Y-165655657D01*
X208651095Y-165560419D01*
X208603476Y-165512800D01*
X208508238Y-165465180D01*
X198675380Y-177199942D02*
X198199190Y-176866609D01*
X198675380Y-176628514D02*
X197675380Y-176628514D01*
X197675380Y-177009466D01*
X197723000Y-177104704D01*
X197770619Y-177152323D01*
X197865857Y-177199942D01*
X198008714Y-177199942D01*
X198103952Y-177152323D01*
X198151571Y-177104704D01*
X198199190Y-177009466D01*
X198199190Y-176628514D01*
X198008714Y-178057085D02*
X198675380Y-178057085D01*
X197627761Y-177818990D02*
X198342047Y-177580895D01*
X198342047Y-178199942D01*
X198103952Y-178723752D02*
X198056333Y-178628514D01*
X198008714Y-178580895D01*
X197913476Y-178533276D01*
X197865857Y-178533276D01*
X197770619Y-178580895D01*
X197723000Y-178628514D01*
X197675380Y-178723752D01*
X197675380Y-178914228D01*
X197723000Y-179009466D01*
X197770619Y-179057085D01*
X197865857Y-179104704D01*
X197913476Y-179104704D01*
X198008714Y-179057085D01*
X198056333Y-179009466D01*
X198103952Y-178914228D01*
X198103952Y-178723752D01*
X198151571Y-178628514D01*
X198199190Y-178580895D01*
X198294428Y-178533276D01*
X198484904Y-178533276D01*
X198580142Y-178580895D01*
X198627761Y-178628514D01*
X198675380Y-178723752D01*
X198675380Y-178914228D01*
X198627761Y-179009466D01*
X198580142Y-179057085D01*
X198484904Y-179104704D01*
X198294428Y-179104704D01*
X198199190Y-179057085D01*
X198151571Y-179009466D01*
X198103952Y-178914228D01*
X183629667Y-170745180D02*
X183963000Y-170268990D01*
X184201095Y-170745180D02*
X184201095Y-169745180D01*
X183820143Y-169745180D01*
X183724905Y-169792800D01*
X183677286Y-169840419D01*
X183629667Y-169935657D01*
X183629667Y-170078514D01*
X183677286Y-170173752D01*
X183724905Y-170221371D01*
X183820143Y-170268990D01*
X184201095Y-170268990D01*
X183296333Y-169745180D02*
X182677286Y-169745180D01*
X183010619Y-170126133D01*
X182867762Y-170126133D01*
X182772524Y-170173752D01*
X182724905Y-170221371D01*
X182677286Y-170316609D01*
X182677286Y-170554704D01*
X182724905Y-170649942D01*
X182772524Y-170697561D01*
X182867762Y-170745180D01*
X183153476Y-170745180D01*
X183248714Y-170697561D01*
X183296333Y-170649942D01*
X181772524Y-169745180D02*
X182248714Y-169745180D01*
X182296333Y-170221371D01*
X182248714Y-170173752D01*
X182153476Y-170126133D01*
X181915381Y-170126133D01*
X181820143Y-170173752D01*
X181772524Y-170221371D01*
X181724905Y-170316609D01*
X181724905Y-170554704D01*
X181772524Y-170649942D01*
X181820143Y-170697561D01*
X181915381Y-170745180D01*
X182153476Y-170745180D01*
X182248714Y-170697561D01*
X182296333Y-170649942D01*
X226625380Y-177399942D02*
X226149190Y-177066609D01*
X226625380Y-176828514D02*
X225625380Y-176828514D01*
X225625380Y-177209466D01*
X225673000Y-177304704D01*
X225720619Y-177352323D01*
X225815857Y-177399942D01*
X225958714Y-177399942D01*
X226053952Y-177352323D01*
X226101571Y-177304704D01*
X226149190Y-177209466D01*
X226149190Y-176828514D01*
X225625380Y-178304704D02*
X225625380Y-177828514D01*
X226101571Y-177780895D01*
X226053952Y-177828514D01*
X226006333Y-177923752D01*
X226006333Y-178161847D01*
X226053952Y-178257085D01*
X226101571Y-178304704D01*
X226196809Y-178352323D01*
X226434904Y-178352323D01*
X226530142Y-178304704D01*
X226577761Y-178257085D01*
X226625380Y-178161847D01*
X226625380Y-177923752D01*
X226577761Y-177828514D01*
X226530142Y-177780895D01*
X225625380Y-179257085D02*
X225625380Y-178780895D01*
X226101571Y-178733276D01*
X226053952Y-178780895D01*
X226006333Y-178876133D01*
X226006333Y-179114228D01*
X226053952Y-179209466D01*
X226101571Y-179257085D01*
X226196809Y-179304704D01*
X226434904Y-179304704D01*
X226530142Y-179257085D01*
X226577761Y-179209466D01*
X226625380Y-179114228D01*
X226625380Y-178876133D01*
X226577761Y-178780895D01*
X226530142Y-178733276D01*
X217689666Y-113895180D02*
X218023000Y-113418990D01*
X218261095Y-113895180D02*
X218261095Y-112895180D01*
X217880142Y-112895180D01*
X217784904Y-112942800D01*
X217737285Y-112990419D01*
X217689666Y-113085657D01*
X217689666Y-113228514D01*
X217737285Y-113323752D01*
X217784904Y-113371371D01*
X217880142Y-113418990D01*
X218261095Y-113418990D01*
X217308714Y-112990419D02*
X217261095Y-112942800D01*
X217165857Y-112895180D01*
X216927761Y-112895180D01*
X216832523Y-112942800D01*
X216784904Y-112990419D01*
X216737285Y-113085657D01*
X216737285Y-113180895D01*
X216784904Y-113323752D01*
X217356333Y-113895180D01*
X216737285Y-113895180D01*
X130539666Y-170895180D02*
X130873000Y-170418990D01*
X131111095Y-170895180D02*
X131111095Y-169895180D01*
X130730142Y-169895180D01*
X130634904Y-169942800D01*
X130587285Y-169990419D01*
X130539666Y-170085657D01*
X130539666Y-170228514D01*
X130587285Y-170323752D01*
X130634904Y-170371371D01*
X130730142Y-170418990D01*
X131111095Y-170418990D01*
X129968238Y-170323752D02*
X130063476Y-170276133D01*
X130111095Y-170228514D01*
X130158714Y-170133276D01*
X130158714Y-170085657D01*
X130111095Y-169990419D01*
X130063476Y-169942800D01*
X129968238Y-169895180D01*
X129777761Y-169895180D01*
X129682523Y-169942800D01*
X129634904Y-169990419D01*
X129587285Y-170085657D01*
X129587285Y-170133276D01*
X129634904Y-170228514D01*
X129682523Y-170276133D01*
X129777761Y-170323752D01*
X129968238Y-170323752D01*
X130063476Y-170371371D01*
X130111095Y-170418990D01*
X130158714Y-170514228D01*
X130158714Y-170704704D01*
X130111095Y-170799942D01*
X130063476Y-170847561D01*
X129968238Y-170895180D01*
X129777761Y-170895180D01*
X129682523Y-170847561D01*
X129634904Y-170799942D01*
X129587285Y-170704704D01*
X129587285Y-170514228D01*
X129634904Y-170418990D01*
X129682523Y-170371371D01*
X129777761Y-170323752D01*
X141489666Y-173849942D02*
X141537285Y-173897561D01*
X141680142Y-173945180D01*
X141775380Y-173945180D01*
X141918238Y-173897561D01*
X142013476Y-173802323D01*
X142061095Y-173707085D01*
X142108714Y-173516609D01*
X142108714Y-173373752D01*
X142061095Y-173183276D01*
X142013476Y-173088038D01*
X141918238Y-172992800D01*
X141775380Y-172945180D01*
X141680142Y-172945180D01*
X141537285Y-172992800D01*
X141489666Y-173040419D01*
X141156333Y-172945180D02*
X140537285Y-172945180D01*
X140870619Y-173326133D01*
X140727761Y-173326133D01*
X140632523Y-173373752D01*
X140584904Y-173421371D01*
X140537285Y-173516609D01*
X140537285Y-173754704D01*
X140584904Y-173849942D01*
X140632523Y-173897561D01*
X140727761Y-173945180D01*
X141013476Y-173945180D01*
X141108714Y-173897561D01*
X141156333Y-173849942D01*
X166376362Y-158437497D02*
X165900172Y-158104164D01*
X166376362Y-157866069D02*
X165376362Y-157866069D01*
X165376362Y-158247021D01*
X165423982Y-158342259D01*
X165471601Y-158389878D01*
X165566839Y-158437497D01*
X165709696Y-158437497D01*
X165804934Y-158389878D01*
X165852553Y-158342259D01*
X165900172Y-158247021D01*
X165900172Y-157866069D01*
X165471601Y-158818450D02*
X165423982Y-158866069D01*
X165376362Y-158961307D01*
X165376362Y-159199402D01*
X165423982Y-159294640D01*
X165471601Y-159342259D01*
X165566839Y-159389878D01*
X165662077Y-159389878D01*
X165804934Y-159342259D01*
X166376362Y-158770831D01*
X166376362Y-159389878D01*
X166376362Y-160342259D02*
X166376362Y-159770831D01*
X166376362Y-160056545D02*
X165376362Y-160056545D01*
X165519220Y-159961307D01*
X165614458Y-159866069D01*
X165662077Y-159770831D01*
X167825380Y-103276133D02*
X167349190Y-102942800D01*
X167825380Y-102704704D02*
X166825380Y-102704704D01*
X166825380Y-103085657D01*
X166873000Y-103180895D01*
X166920619Y-103228514D01*
X167015857Y-103276133D01*
X167158714Y-103276133D01*
X167253952Y-103228514D01*
X167301571Y-103180895D01*
X167349190Y-103085657D01*
X167349190Y-102704704D01*
X167158714Y-104133276D02*
X167825380Y-104133276D01*
X166777761Y-103895180D02*
X167492047Y-103657085D01*
X167492047Y-104276133D01*
X146925380Y-177099942D02*
X146449190Y-176766609D01*
X146925380Y-176528514D02*
X145925380Y-176528514D01*
X145925380Y-176909466D01*
X145973000Y-177004704D01*
X146020619Y-177052323D01*
X146115857Y-177099942D01*
X146258714Y-177099942D01*
X146353952Y-177052323D01*
X146401571Y-177004704D01*
X146449190Y-176909466D01*
X146449190Y-176528514D01*
X146020619Y-177480895D02*
X145973000Y-177528514D01*
X145925380Y-177623752D01*
X145925380Y-177861847D01*
X145973000Y-177957085D01*
X146020619Y-178004704D01*
X146115857Y-178052323D01*
X146211095Y-178052323D01*
X146353952Y-178004704D01*
X146925380Y-177433276D01*
X146925380Y-178052323D01*
X146353952Y-178623752D02*
X146306333Y-178528514D01*
X146258714Y-178480895D01*
X146163476Y-178433276D01*
X146115857Y-178433276D01*
X146020619Y-178480895D01*
X145973000Y-178528514D01*
X145925380Y-178623752D01*
X145925380Y-178814228D01*
X145973000Y-178909466D01*
X146020619Y-178957085D01*
X146115857Y-179004704D01*
X146163476Y-179004704D01*
X146258714Y-178957085D01*
X146306333Y-178909466D01*
X146353952Y-178814228D01*
X146353952Y-178623752D01*
X146401571Y-178528514D01*
X146449190Y-178480895D01*
X146544428Y-178433276D01*
X146734904Y-178433276D01*
X146830142Y-178480895D01*
X146877761Y-178528514D01*
X146925380Y-178623752D01*
X146925380Y-178814228D01*
X146877761Y-178909466D01*
X146830142Y-178957085D01*
X146734904Y-179004704D01*
X146544428Y-179004704D01*
X146449190Y-178957085D01*
X146401571Y-178909466D01*
X146353952Y-178814228D01*
X182284980Y-158516252D02*
X181808790Y-158182919D01*
X182284980Y-157944824D02*
X181284980Y-157944824D01*
X181284980Y-158325776D01*
X181332600Y-158421014D01*
X181380219Y-158468633D01*
X181475457Y-158516252D01*
X181618314Y-158516252D01*
X181713552Y-158468633D01*
X181761171Y-158421014D01*
X181808790Y-158325776D01*
X181808790Y-157944824D01*
X181284980Y-158849586D02*
X181284980Y-159468633D01*
X181665933Y-159135300D01*
X181665933Y-159278157D01*
X181713552Y-159373395D01*
X181761171Y-159421014D01*
X181856409Y-159468633D01*
X182094504Y-159468633D01*
X182189742Y-159421014D01*
X182237361Y-159373395D01*
X182284980Y-159278157D01*
X182284980Y-158992443D01*
X182237361Y-158897205D01*
X182189742Y-158849586D01*
X181284980Y-159801967D02*
X181284980Y-160468633D01*
X182284980Y-160040062D01*
X173525380Y-177199942D02*
X173049190Y-176866609D01*
X173525380Y-176628514D02*
X172525380Y-176628514D01*
X172525380Y-177009466D01*
X172573000Y-177104704D01*
X172620619Y-177152323D01*
X172715857Y-177199942D01*
X172858714Y-177199942D01*
X172953952Y-177152323D01*
X173001571Y-177104704D01*
X173049190Y-177009466D01*
X173049190Y-176628514D01*
X172620619Y-177580895D02*
X172573000Y-177628514D01*
X172525380Y-177723752D01*
X172525380Y-177961847D01*
X172573000Y-178057085D01*
X172620619Y-178104704D01*
X172715857Y-178152323D01*
X172811095Y-178152323D01*
X172953952Y-178104704D01*
X173525380Y-177533276D01*
X173525380Y-178152323D01*
X173525380Y-178628514D02*
X173525380Y-178818990D01*
X173477761Y-178914228D01*
X173430142Y-178961847D01*
X173287285Y-179057085D01*
X173096809Y-179104704D01*
X172715857Y-179104704D01*
X172620619Y-179057085D01*
X172573000Y-179009466D01*
X172525380Y-178914228D01*
X172525380Y-178723752D01*
X172573000Y-178628514D01*
X172620619Y-178580895D01*
X172715857Y-178533276D01*
X172953952Y-178533276D01*
X173049190Y-178580895D01*
X173096809Y-178628514D01*
X173144428Y-178723752D01*
X173144428Y-178914228D01*
X173096809Y-179009466D01*
X173049190Y-179057085D01*
X172953952Y-179104704D01*
X144365857Y-170795180D02*
X144699190Y-170318990D01*
X144937285Y-170795180D02*
X144937285Y-169795180D01*
X144556333Y-169795180D01*
X144461095Y-169842800D01*
X144413476Y-169890419D01*
X144365857Y-169985657D01*
X144365857Y-170128514D01*
X144413476Y-170223752D01*
X144461095Y-170271371D01*
X144556333Y-170318990D01*
X144937285Y-170318990D01*
X143984904Y-169890419D02*
X143937285Y-169842800D01*
X143842047Y-169795180D01*
X143603952Y-169795180D01*
X143508714Y-169842800D01*
X143461095Y-169890419D01*
X143413476Y-169985657D01*
X143413476Y-170080895D01*
X143461095Y-170223752D01*
X144032523Y-170795180D01*
X143413476Y-170795180D01*
X142556333Y-170128514D02*
X142556333Y-170795180D01*
X142794428Y-169747561D02*
X143032523Y-170461847D01*
X142413476Y-170461847D01*
X187797867Y-158516252D02*
X187321677Y-158182919D01*
X187797867Y-157944824D02*
X186797867Y-157944824D01*
X186797867Y-158325776D01*
X186845487Y-158421014D01*
X186893106Y-158468633D01*
X186988344Y-158516252D01*
X187131201Y-158516252D01*
X187226439Y-158468633D01*
X187274058Y-158421014D01*
X187321677Y-158325776D01*
X187321677Y-157944824D01*
X187131201Y-159373395D02*
X187797867Y-159373395D01*
X186750248Y-159135300D02*
X187464534Y-158897205D01*
X187464534Y-159516252D01*
X187797867Y-160421014D02*
X187797867Y-159849586D01*
X187797867Y-160135300D02*
X186797867Y-160135300D01*
X186940725Y-160040062D01*
X187035963Y-159944824D01*
X187083582Y-159849586D01*
X171298583Y-158437497D02*
X170822393Y-158104164D01*
X171298583Y-157866069D02*
X170298583Y-157866069D01*
X170298583Y-158247021D01*
X170346203Y-158342259D01*
X170393822Y-158389878D01*
X170489060Y-158437497D01*
X170631917Y-158437497D01*
X170727155Y-158389878D01*
X170774774Y-158342259D01*
X170822393Y-158247021D01*
X170822393Y-157866069D01*
X170393822Y-158818450D02*
X170346203Y-158866069D01*
X170298583Y-158961307D01*
X170298583Y-159199402D01*
X170346203Y-159294640D01*
X170393822Y-159342259D01*
X170489060Y-159389878D01*
X170584298Y-159389878D01*
X170727155Y-159342259D01*
X171298583Y-158770831D01*
X171298583Y-159389878D01*
X170298583Y-159723212D02*
X170298583Y-160342259D01*
X170679536Y-160008926D01*
X170679536Y-160151783D01*
X170727155Y-160247021D01*
X170774774Y-160294640D01*
X170870012Y-160342259D01*
X171108107Y-160342259D01*
X171203345Y-160294640D01*
X171250964Y-160247021D01*
X171298583Y-160151783D01*
X171298583Y-159866069D01*
X171250964Y-159770831D01*
X171203345Y-159723212D01*
X173339666Y-101895180D02*
X173673000Y-101418990D01*
X173911095Y-101895180D02*
X173911095Y-100895180D01*
X173530142Y-100895180D01*
X173434904Y-100942800D01*
X173387285Y-100990419D01*
X173339666Y-101085657D01*
X173339666Y-101228514D01*
X173387285Y-101323752D01*
X173434904Y-101371371D01*
X173530142Y-101418990D01*
X173911095Y-101418990D01*
X173006333Y-100895180D02*
X172387285Y-100895180D01*
X172720619Y-101276133D01*
X172577761Y-101276133D01*
X172482523Y-101323752D01*
X172434904Y-101371371D01*
X172387285Y-101466609D01*
X172387285Y-101704704D01*
X172434904Y-101799942D01*
X172482523Y-101847561D01*
X172577761Y-101895180D01*
X172863476Y-101895180D01*
X172958714Y-101847561D01*
X173006333Y-101799942D01*
X181125380Y-177249942D02*
X180649190Y-176916609D01*
X181125380Y-176678514D02*
X180125380Y-176678514D01*
X180125380Y-177059466D01*
X180173000Y-177154704D01*
X180220619Y-177202323D01*
X180315857Y-177249942D01*
X180458714Y-177249942D01*
X180553952Y-177202323D01*
X180601571Y-177154704D01*
X180649190Y-177059466D01*
X180649190Y-176678514D01*
X180125380Y-177583276D02*
X180125380Y-178202323D01*
X180506333Y-177868990D01*
X180506333Y-178011847D01*
X180553952Y-178107085D01*
X180601571Y-178154704D01*
X180696809Y-178202323D01*
X180934904Y-178202323D01*
X181030142Y-178154704D01*
X181077761Y-178107085D01*
X181125380Y-178011847D01*
X181125380Y-177726133D01*
X181077761Y-177630895D01*
X181030142Y-177583276D01*
X180458714Y-179059466D02*
X181125380Y-179059466D01*
X180077761Y-178821371D02*
X180792047Y-178583276D01*
X180792047Y-179202323D01*
X175384904Y-112795180D02*
X175384904Y-113604704D01*
X175337285Y-113699942D01*
X175289666Y-113747561D01*
X175194428Y-113795180D01*
X175003952Y-113795180D01*
X174908714Y-113747561D01*
X174861095Y-113699942D01*
X174813476Y-113604704D01*
X174813476Y-112795180D01*
X173861095Y-112795180D02*
X174337285Y-112795180D01*
X174384904Y-113271371D01*
X174337285Y-113223752D01*
X174242047Y-113176133D01*
X174003952Y-113176133D01*
X173908714Y-113223752D01*
X173861095Y-113271371D01*
X173813476Y-113366609D01*
X173813476Y-113604704D01*
X173861095Y-113699942D01*
X173908714Y-113747561D01*
X174003952Y-113795180D01*
X174242047Y-113795180D01*
X174337285Y-113747561D01*
X174384904Y-113699942D01*
X135045654Y-158499942D02*
X134569464Y-158166609D01*
X135045654Y-157928514D02*
X134045654Y-157928514D01*
X134045654Y-158309466D01*
X134093274Y-158404704D01*
X134140893Y-158452323D01*
X134236131Y-158499942D01*
X134378988Y-158499942D01*
X134474226Y-158452323D01*
X134521845Y-158404704D01*
X134569464Y-158309466D01*
X134569464Y-157928514D01*
X135045654Y-159452323D02*
X135045654Y-158880895D01*
X135045654Y-159166609D02*
X134045654Y-159166609D01*
X134188512Y-159071371D01*
X134283750Y-158976133D01*
X134331369Y-158880895D01*
X134378988Y-160309466D02*
X135045654Y-160309466D01*
X133998035Y-160071371D02*
X134712321Y-159833276D01*
X134712321Y-160452323D01*
X156579667Y-166465180D02*
X156913000Y-165988990D01*
X157151095Y-166465180D02*
X157151095Y-165465180D01*
X156770143Y-165465180D01*
X156674905Y-165512800D01*
X156627286Y-165560419D01*
X156579667Y-165655657D01*
X156579667Y-165798514D01*
X156627286Y-165893752D01*
X156674905Y-165941371D01*
X156770143Y-165988990D01*
X157151095Y-165988990D01*
X155627286Y-166465180D02*
X156198714Y-166465180D01*
X155913000Y-166465180D02*
X155913000Y-165465180D01*
X156008238Y-165608038D01*
X156103476Y-165703276D01*
X156198714Y-165750895D01*
X154674905Y-166465180D02*
X155246333Y-166465180D01*
X154960619Y-166465180D02*
X154960619Y-165465180D01*
X155055857Y-165608038D01*
X155151095Y-165703276D01*
X155246333Y-165750895D01*
X207625380Y-177349942D02*
X207149190Y-177016609D01*
X207625380Y-176778514D02*
X206625380Y-176778514D01*
X206625380Y-177159466D01*
X206673000Y-177254704D01*
X206720619Y-177302323D01*
X206815857Y-177349942D01*
X206958714Y-177349942D01*
X207053952Y-177302323D01*
X207101571Y-177254704D01*
X207149190Y-177159466D01*
X207149190Y-176778514D01*
X206625380Y-177683276D02*
X206625380Y-178302323D01*
X207006333Y-177968990D01*
X207006333Y-178111847D01*
X207053952Y-178207085D01*
X207101571Y-178254704D01*
X207196809Y-178302323D01*
X207434904Y-178302323D01*
X207530142Y-178254704D01*
X207577761Y-178207085D01*
X207625380Y-178111847D01*
X207625380Y-177826133D01*
X207577761Y-177730895D01*
X207530142Y-177683276D01*
X207053952Y-178873752D02*
X207006333Y-178778514D01*
X206958714Y-178730895D01*
X206863476Y-178683276D01*
X206815857Y-178683276D01*
X206720619Y-178730895D01*
X206673000Y-178778514D01*
X206625380Y-178873752D01*
X206625380Y-179064228D01*
X206673000Y-179159466D01*
X206720619Y-179207085D01*
X206815857Y-179254704D01*
X206863476Y-179254704D01*
X206958714Y-179207085D01*
X207006333Y-179159466D01*
X207053952Y-179064228D01*
X207053952Y-178873752D01*
X207101571Y-178778514D01*
X207149190Y-178730895D01*
X207244428Y-178683276D01*
X207434904Y-178683276D01*
X207530142Y-178730895D01*
X207577761Y-178778514D01*
X207625380Y-178873752D01*
X207625380Y-179064228D01*
X207577761Y-179159466D01*
X207530142Y-179207085D01*
X207434904Y-179254704D01*
X207244428Y-179254704D01*
X207149190Y-179207085D01*
X207101571Y-179159466D01*
X207053952Y-179064228D01*
X189384904Y-181495180D02*
X189384904Y-182304704D01*
X189337285Y-182399942D01*
X189289666Y-182447561D01*
X189194428Y-182495180D01*
X189003952Y-182495180D01*
X188908714Y-182447561D01*
X188861095Y-182399942D01*
X188813476Y-182304704D01*
X188813476Y-181495180D01*
X188194428Y-181923752D02*
X188289666Y-181876133D01*
X188337285Y-181828514D01*
X188384904Y-181733276D01*
X188384904Y-181685657D01*
X188337285Y-181590419D01*
X188289666Y-181542800D01*
X188194428Y-181495180D01*
X188003952Y-181495180D01*
X187908714Y-181542800D01*
X187861095Y-181590419D01*
X187813476Y-181685657D01*
X187813476Y-181733276D01*
X187861095Y-181828514D01*
X187908714Y-181876133D01*
X188003952Y-181923752D01*
X188194428Y-181923752D01*
X188289666Y-181971371D01*
X188337285Y-182018990D01*
X188384904Y-182114228D01*
X188384904Y-182304704D01*
X188337285Y-182399942D01*
X188289666Y-182447561D01*
X188194428Y-182495180D01*
X188003952Y-182495180D01*
X187908714Y-182447561D01*
X187861095Y-182399942D01*
X187813476Y-182304704D01*
X187813476Y-182114228D01*
X187861095Y-182018990D01*
X187908714Y-181971371D01*
X188003952Y-181923752D01*
X216384904Y-181245180D02*
X216384904Y-182054704D01*
X216337285Y-182149942D01*
X216289666Y-182197561D01*
X216194428Y-182245180D01*
X216003952Y-182245180D01*
X215908714Y-182197561D01*
X215861095Y-182149942D01*
X215813476Y-182054704D01*
X215813476Y-181245180D01*
X215289666Y-182245180D02*
X215099190Y-182245180D01*
X215003952Y-182197561D01*
X214956333Y-182149942D01*
X214861095Y-182007085D01*
X214813476Y-181816609D01*
X214813476Y-181435657D01*
X214861095Y-181340419D01*
X214908714Y-181292800D01*
X215003952Y-181245180D01*
X215194428Y-181245180D01*
X215289666Y-181292800D01*
X215337285Y-181340419D01*
X215384904Y-181435657D01*
X215384904Y-181673752D01*
X215337285Y-181768990D01*
X215289666Y-181816609D01*
X215194428Y-181864228D01*
X215003952Y-181864228D01*
X214908714Y-181816609D01*
X214861095Y-181768990D01*
X214813476Y-181673752D01*
X156531920Y-158437497D02*
X156055730Y-158104164D01*
X156531920Y-157866069D02*
X155531920Y-157866069D01*
X155531920Y-158247021D01*
X155579540Y-158342259D01*
X155627159Y-158389878D01*
X155722397Y-158437497D01*
X155865254Y-158437497D01*
X155960492Y-158389878D01*
X156008111Y-158342259D01*
X156055730Y-158247021D01*
X156055730Y-157866069D01*
X156531920Y-159389878D02*
X156531920Y-158818450D01*
X156531920Y-159104164D02*
X155531920Y-159104164D01*
X155674778Y-159008926D01*
X155770016Y-158913688D01*
X155817635Y-158818450D01*
X155531920Y-159723212D02*
X155531920Y-160342259D01*
X155912873Y-160008926D01*
X155912873Y-160151783D01*
X155960492Y-160247021D01*
X156008111Y-160294640D01*
X156103349Y-160342259D01*
X156341444Y-160342259D01*
X156436682Y-160294640D01*
X156484301Y-160247021D01*
X156531920Y-160151783D01*
X156531920Y-159866069D01*
X156484301Y-159770831D01*
X156436682Y-159723212D01*
X154175380Y-177626133D02*
X153699190Y-177292800D01*
X154175380Y-177054704D02*
X153175380Y-177054704D01*
X153175380Y-177435657D01*
X153223000Y-177530895D01*
X153270619Y-177578514D01*
X153365857Y-177626133D01*
X153508714Y-177626133D01*
X153603952Y-177578514D01*
X153651571Y-177530895D01*
X153699190Y-177435657D01*
X153699190Y-177054704D01*
X153175380Y-177959466D02*
X153175380Y-178626133D01*
X154175380Y-178197561D01*
X166963476Y-205449942D02*
X167011095Y-205497561D01*
X167153952Y-205545180D01*
X167249190Y-205545180D01*
X167392048Y-205497561D01*
X167487286Y-205402323D01*
X167534905Y-205307085D01*
X167582524Y-205116609D01*
X167582524Y-204973752D01*
X167534905Y-204783276D01*
X167487286Y-204688038D01*
X167392048Y-204592800D01*
X167249190Y-204545180D01*
X167153952Y-204545180D01*
X167011095Y-204592800D01*
X166963476Y-204640419D01*
X166106333Y-204545180D02*
X166296810Y-204545180D01*
X166392048Y-204592800D01*
X166439667Y-204640419D01*
X166534905Y-204783276D01*
X166582524Y-204973752D01*
X166582524Y-205354704D01*
X166534905Y-205449942D01*
X166487286Y-205497561D01*
X166392048Y-205545180D01*
X166201571Y-205545180D01*
X166106333Y-205497561D01*
X166058714Y-205449942D01*
X166011095Y-205354704D01*
X166011095Y-205116609D01*
X166058714Y-205021371D01*
X166106333Y-204973752D01*
X166201571Y-204926133D01*
X166392048Y-204926133D01*
X166487286Y-204973752D01*
X166534905Y-205021371D01*
X166582524Y-205116609D01*
X209695654Y-158399942D02*
X209219464Y-158066609D01*
X209695654Y-157828514D02*
X208695654Y-157828514D01*
X208695654Y-158209466D01*
X208743274Y-158304704D01*
X208790893Y-158352323D01*
X208886131Y-158399942D01*
X209028988Y-158399942D01*
X209124226Y-158352323D01*
X209171845Y-158304704D01*
X209219464Y-158209466D01*
X209219464Y-157828514D01*
X209028988Y-159257085D02*
X209695654Y-159257085D01*
X208648035Y-159018990D02*
X209362321Y-158780895D01*
X209362321Y-159399942D01*
X208790893Y-159733276D02*
X208743274Y-159780895D01*
X208695654Y-159876133D01*
X208695654Y-160114228D01*
X208743274Y-160209466D01*
X208790893Y-160257085D01*
X208886131Y-160304704D01*
X208981369Y-160304704D01*
X209124226Y-160257085D01*
X209695654Y-159685657D01*
X209695654Y-160304704D01*
X171039667Y-166495180D02*
X171373000Y-166018990D01*
X171611095Y-166495180D02*
X171611095Y-165495180D01*
X171230143Y-165495180D01*
X171134905Y-165542800D01*
X171087286Y-165590419D01*
X171039667Y-165685657D01*
X171039667Y-165828514D01*
X171087286Y-165923752D01*
X171134905Y-165971371D01*
X171230143Y-166018990D01*
X171611095Y-166018990D01*
X170658714Y-165590419D02*
X170611095Y-165542800D01*
X170515857Y-165495180D01*
X170277762Y-165495180D01*
X170182524Y-165542800D01*
X170134905Y-165590419D01*
X170087286Y-165685657D01*
X170087286Y-165780895D01*
X170134905Y-165923752D01*
X170706333Y-166495180D01*
X170087286Y-166495180D01*
X169753952Y-165495180D02*
X169087286Y-165495180D01*
X169515857Y-166495180D01*
X130175380Y-112159466D02*
X130889666Y-112159466D01*
X131032523Y-112111847D01*
X131127761Y-112016609D01*
X131175380Y-111873752D01*
X131175380Y-111778514D01*
X131175380Y-113159466D02*
X131175380Y-112588038D01*
X131175380Y-112873752D02*
X130175380Y-112873752D01*
X130318238Y-112778514D01*
X130413476Y-112683276D01*
X130461095Y-112588038D01*
X192286933Y-158516252D02*
X191810743Y-158182919D01*
X192286933Y-157944824D02*
X191286933Y-157944824D01*
X191286933Y-158325776D01*
X191334553Y-158421014D01*
X191382172Y-158468633D01*
X191477410Y-158516252D01*
X191620267Y-158516252D01*
X191715505Y-158468633D01*
X191763124Y-158421014D01*
X191810743Y-158325776D01*
X191810743Y-157944824D01*
X191620267Y-159373395D02*
X192286933Y-159373395D01*
X191239314Y-159135300D02*
X191953600Y-158897205D01*
X191953600Y-159516252D01*
X191286933Y-159801967D02*
X191286933Y-160421014D01*
X191667886Y-160087681D01*
X191667886Y-160230538D01*
X191715505Y-160325776D01*
X191763124Y-160373395D01*
X191858362Y-160421014D01*
X192096457Y-160421014D01*
X192191695Y-160373395D01*
X192239314Y-160325776D01*
X192286933Y-160230538D01*
X192286933Y-159944824D01*
X192239314Y-159849586D01*
X192191695Y-159801967D01*
X196379667Y-170825180D02*
X196713000Y-170348990D01*
X196951095Y-170825180D02*
X196951095Y-169825180D01*
X196570143Y-169825180D01*
X196474905Y-169872800D01*
X196427286Y-169920419D01*
X196379667Y-170015657D01*
X196379667Y-170158514D01*
X196427286Y-170253752D01*
X196474905Y-170301371D01*
X196570143Y-170348990D01*
X196951095Y-170348990D01*
X195522524Y-170158514D02*
X195522524Y-170825180D01*
X195760619Y-169777561D02*
X195998714Y-170491847D01*
X195379667Y-170491847D01*
X194570143Y-169825180D02*
X194760619Y-169825180D01*
X194855857Y-169872800D01*
X194903476Y-169920419D01*
X194998714Y-170063276D01*
X195046333Y-170253752D01*
X195046333Y-170634704D01*
X194998714Y-170729942D01*
X194951095Y-170777561D01*
X194855857Y-170825180D01*
X194665381Y-170825180D01*
X194570143Y-170777561D01*
X194522524Y-170729942D01*
X194474905Y-170634704D01*
X194474905Y-170396609D01*
X194522524Y-170301371D01*
X194570143Y-170253752D01*
X194665381Y-170206133D01*
X194855857Y-170206133D01*
X194951095Y-170253752D01*
X194998714Y-170301371D01*
X195046333Y-170396609D01*
X224089667Y-170825180D02*
X224423000Y-170348990D01*
X224661095Y-170825180D02*
X224661095Y-169825180D01*
X224280143Y-169825180D01*
X224184905Y-169872800D01*
X224137286Y-169920419D01*
X224089667Y-170015657D01*
X224089667Y-170158514D01*
X224137286Y-170253752D01*
X224184905Y-170301371D01*
X224280143Y-170348990D01*
X224661095Y-170348990D01*
X223184905Y-169825180D02*
X223661095Y-169825180D01*
X223708714Y-170301371D01*
X223661095Y-170253752D01*
X223565857Y-170206133D01*
X223327762Y-170206133D01*
X223232524Y-170253752D01*
X223184905Y-170301371D01*
X223137286Y-170396609D01*
X223137286Y-170634704D01*
X223184905Y-170729942D01*
X223232524Y-170777561D01*
X223327762Y-170825180D01*
X223565857Y-170825180D01*
X223661095Y-170777561D01*
X223708714Y-170729942D01*
X222803952Y-169825180D02*
X222184905Y-169825180D01*
X222518238Y-170206133D01*
X222375381Y-170206133D01*
X222280143Y-170253752D01*
X222232524Y-170301371D01*
X222184905Y-170396609D01*
X222184905Y-170634704D01*
X222232524Y-170729942D01*
X222280143Y-170777561D01*
X222375381Y-170825180D01*
X222661095Y-170825180D01*
X222756333Y-170777561D01*
X222803952Y-170729942D01*
X156629667Y-170795180D02*
X156963000Y-170318990D01*
X157201095Y-170795180D02*
X157201095Y-169795180D01*
X156820143Y-169795180D01*
X156724905Y-169842800D01*
X156677286Y-169890419D01*
X156629667Y-169985657D01*
X156629667Y-170128514D01*
X156677286Y-170223752D01*
X156724905Y-170271371D01*
X156820143Y-170318990D01*
X157201095Y-170318990D01*
X155677286Y-170795180D02*
X156248714Y-170795180D01*
X155963000Y-170795180D02*
X155963000Y-169795180D01*
X156058238Y-169938038D01*
X156153476Y-170033276D01*
X156248714Y-170080895D01*
X155058238Y-169795180D02*
X154963000Y-169795180D01*
X154867762Y-169842800D01*
X154820143Y-169890419D01*
X154772524Y-169985657D01*
X154724905Y-170176133D01*
X154724905Y-170414228D01*
X154772524Y-170604704D01*
X154820143Y-170699942D01*
X154867762Y-170747561D01*
X154963000Y-170795180D01*
X155058238Y-170795180D01*
X155153476Y-170747561D01*
X155201095Y-170699942D01*
X155248714Y-170604704D01*
X155296333Y-170414228D01*
X155296333Y-170176133D01*
X155248714Y-169985657D01*
X155201095Y-169890419D01*
X155153476Y-169842800D01*
X155058238Y-169795180D01*
X192213476Y-205299942D02*
X192261095Y-205347561D01*
X192403952Y-205395180D01*
X192499190Y-205395180D01*
X192642048Y-205347561D01*
X192737286Y-205252323D01*
X192784905Y-205157085D01*
X192832524Y-204966609D01*
X192832524Y-204823752D01*
X192784905Y-204633276D01*
X192737286Y-204538038D01*
X192642048Y-204442800D01*
X192499190Y-204395180D01*
X192403952Y-204395180D01*
X192261095Y-204442800D01*
X192213476Y-204490419D01*
X191642048Y-204823752D02*
X191737286Y-204776133D01*
X191784905Y-204728514D01*
X191832524Y-204633276D01*
X191832524Y-204585657D01*
X191784905Y-204490419D01*
X191737286Y-204442800D01*
X191642048Y-204395180D01*
X191451571Y-204395180D01*
X191356333Y-204442800D01*
X191308714Y-204490419D01*
X191261095Y-204585657D01*
X191261095Y-204633276D01*
X191308714Y-204728514D01*
X191356333Y-204776133D01*
X191451571Y-204823752D01*
X191642048Y-204823752D01*
X191737286Y-204871371D01*
X191784905Y-204918990D01*
X191832524Y-205014228D01*
X191832524Y-205204704D01*
X191784905Y-205299942D01*
X191737286Y-205347561D01*
X191642048Y-205395180D01*
X191451571Y-205395180D01*
X191356333Y-205347561D01*
X191308714Y-205299942D01*
X191261095Y-205204704D01*
X191261095Y-205014228D01*
X191308714Y-204918990D01*
X191356333Y-204871371D01*
X191451571Y-204823752D01*
X144315857Y-166695180D02*
X144649190Y-166218990D01*
X144887285Y-166695180D02*
X144887285Y-165695180D01*
X144506333Y-165695180D01*
X144411095Y-165742800D01*
X144363476Y-165790419D01*
X144315857Y-165885657D01*
X144315857Y-166028514D01*
X144363476Y-166123752D01*
X144411095Y-166171371D01*
X144506333Y-166218990D01*
X144887285Y-166218990D01*
X143934904Y-165790419D02*
X143887285Y-165742800D01*
X143792047Y-165695180D01*
X143553952Y-165695180D01*
X143458714Y-165742800D01*
X143411095Y-165790419D01*
X143363476Y-165885657D01*
X143363476Y-165980895D01*
X143411095Y-166123752D01*
X143982523Y-166695180D01*
X143363476Y-166695180D01*
X142458714Y-165695180D02*
X142934904Y-165695180D01*
X142982523Y-166171371D01*
X142934904Y-166123752D01*
X142839666Y-166076133D01*
X142601571Y-166076133D01*
X142506333Y-166123752D01*
X142458714Y-166171371D01*
X142411095Y-166266609D01*
X142411095Y-166504704D01*
X142458714Y-166599942D01*
X142506333Y-166647561D01*
X142601571Y-166695180D01*
X142839666Y-166695180D01*
X142934904Y-166647561D01*
X142982523Y-166599942D01*
%LPC*%
D11*
X277683000Y-196400600D03*
X277683000Y-182760800D03*
X307523000Y-111173000D03*
X307523000Y-124812800D03*
X76644000Y-135938428D03*
X76644000Y-149578228D03*
X47023000Y-221852600D03*
X47023000Y-208212800D03*
X47023000Y-77379457D03*
X47023000Y-63739657D03*
X307523000Y-158873000D03*
X307523000Y-172512800D03*
X308023000Y-206573000D03*
X308023000Y-220212800D03*
X277683000Y-148700600D03*
X277683000Y-135060800D03*
X307523000Y-63473000D03*
X307523000Y-77112800D03*
X277683000Y-53300600D03*
X277683000Y-39660800D03*
X76984000Y-39623000D03*
X76984000Y-53262800D03*
X46523000Y-125537171D03*
X46523000Y-111897371D03*
X277683000Y-101000600D03*
X277683000Y-87360800D03*
X76644000Y-87780714D03*
X76644000Y-101420514D03*
X47023000Y-173694885D03*
X47023000Y-160055085D03*
X76683000Y-184096142D03*
X76683000Y-197735942D03*
D12*
X102683000Y-206712800D03*
X102683000Y-116669800D03*
X252523000Y-206712800D03*
X252523000Y-116669800D03*
D13*
X95683000Y-54750600D03*
X149023000Y-93942800D03*
X95683000Y-93942800D03*
X149023000Y-54750600D03*
X205858000Y-54750600D03*
X259198000Y-93942800D03*
X205858000Y-93942800D03*
X259198000Y-54750600D03*
D14*
X170423000Y-47290218D03*
X157723000Y-67519890D03*
D15*
X88392000Y-40894000D03*
D14*
X172963000Y-52347636D03*
D16*
X198313000Y-166142800D03*
D17*
X193233000Y-166142800D03*
D18*
X165273000Y-114392800D03*
D19*
X161773000Y-114392800D03*
D14*
X188203000Y-54876346D03*
X172963000Y-70048599D03*
X180583000Y-70048600D03*
X167883000Y-77634726D03*
D20*
X171439000Y-87444800D03*
D14*
X167883000Y-44761509D03*
X170423000Y-80163436D03*
D21*
X92798900Y-32219900D03*
D14*
X172963000Y-80163436D03*
X183123000Y-54876346D03*
X160263000Y-49818927D03*
X165343000Y-54876345D03*
X193283000Y-70048600D03*
X180583000Y-54876346D03*
X170423000Y-59933763D03*
D21*
X142786100Y-32219900D03*
D14*
X170423000Y-57405054D03*
D15*
X267208000Y-41402000D03*
D14*
X188203000Y-42232801D03*
D15*
X93726000Y-40894000D03*
X173998000Y-219444000D03*
D14*
X172963000Y-64991181D03*
X193283000Y-67519891D03*
D16*
X128023000Y-175102800D03*
D17*
X128023000Y-180182800D03*
D22*
X171463000Y-106392800D03*
D23*
X179083000Y-106392800D03*
D14*
X172963000Y-67519890D03*
X193283000Y-64991182D03*
D20*
X194299000Y-87444800D03*
D14*
X185649666Y-44761510D03*
X188143000Y-67519891D03*
X185623000Y-47290219D03*
X170423000Y-70048599D03*
X160263000Y-75106017D03*
X185631000Y-70048600D03*
D20*
X184139000Y-92524800D03*
D14*
X180543000Y-44761510D03*
X167883000Y-59933763D03*
D16*
X226063000Y-166142800D03*
D17*
X220983000Y-166142800D03*
D24*
X227523000Y-111642800D03*
D25*
X227523000Y-113642801D03*
D14*
X165343000Y-64991181D03*
D20*
X184139000Y-87485122D03*
D14*
X165343000Y-52347636D03*
X167883000Y-42232800D03*
X170423000Y-49818927D03*
X172963000Y-62462472D03*
D19*
X169023000Y-175892800D03*
X166523000Y-175892800D03*
D14*
X180583000Y-67519891D03*
X185663000Y-54876346D03*
X183123000Y-42232801D03*
X180583000Y-80163436D03*
D26*
X191523000Y-127392800D03*
X184023000Y-127392800D03*
D14*
X157723000Y-52347636D03*
X156199000Y-87444800D03*
X156199000Y-92524800D03*
D16*
X139523000Y-156602800D03*
D17*
X139523000Y-161682800D03*
D14*
X185663000Y-57405055D03*
X172963000Y-57405054D03*
X180583000Y-59933764D03*
D20*
X194299000Y-92524800D03*
D14*
X170423000Y-52347636D03*
X188203000Y-75106018D03*
X165343000Y-75106017D03*
X170423000Y-67519890D03*
X167883000Y-67519890D03*
X167883000Y-72577308D03*
X160263000Y-62462472D03*
X183123000Y-49818928D03*
D15*
X121773000Y-113642800D03*
D20*
X161279000Y-92524800D03*
X171439000Y-92524800D03*
D14*
X165343000Y-77634726D03*
D16*
X129523000Y-156562800D03*
D17*
X129523000Y-161642800D03*
D14*
X179059000Y-92524800D03*
X157723000Y-59933763D03*
D27*
X160053000Y-181002800D03*
D28*
X160053000Y-183542800D03*
X160053000Y-186082800D03*
X160053000Y-188622800D03*
X160053000Y-191162800D03*
X160053000Y-193702800D03*
X160053000Y-196242800D03*
X160053000Y-198782800D03*
X167993000Y-198782800D03*
X167993000Y-196242800D03*
X167993000Y-193702800D03*
X167993000Y-191162800D03*
X167993000Y-188622800D03*
X167993000Y-186082800D03*
X167993000Y-183542800D03*
X167993000Y-181002800D03*
D14*
X185663000Y-72577309D03*
D16*
X196773000Y-156602800D03*
D17*
X196773000Y-161682800D03*
D16*
X161023000Y-156552800D03*
D17*
X161023000Y-161632800D03*
D14*
X172963000Y-75106017D03*
X176519000Y-87444800D03*
D19*
X220273000Y-202392800D03*
X217773000Y-202392800D03*
D14*
X157723000Y-54876345D03*
X165343000Y-57405054D03*
X160263000Y-70048599D03*
D21*
X267754100Y-230212900D03*
D14*
X165343000Y-72577308D03*
D15*
X178816000Y-219456000D03*
D19*
X142523000Y-113642800D03*
D29*
X134903000Y-113642800D03*
D14*
X160263000Y-42232800D03*
D16*
X224023000Y-156602800D03*
D17*
X224023000Y-161682800D03*
D14*
X185663000Y-80163436D03*
X183107000Y-70048600D03*
X167883000Y-57405054D03*
X193283000Y-57405055D03*
D19*
X194273000Y-175892800D03*
X191773000Y-175892800D03*
D14*
X193283000Y-42232801D03*
X180583000Y-57405055D03*
D20*
X161279000Y-87444800D03*
D27*
X133803000Y-181002800D03*
D28*
X133803000Y-183542800D03*
X133803000Y-186082800D03*
X133803000Y-188622800D03*
X133803000Y-191162800D03*
X133803000Y-193702800D03*
X133803000Y-196242800D03*
X133803000Y-198782800D03*
X141743000Y-198782800D03*
X141743000Y-196242800D03*
X141743000Y-193702800D03*
X141743000Y-191162800D03*
X141743000Y-188622800D03*
X141743000Y-186082800D03*
X141743000Y-183542800D03*
X141743000Y-181002800D03*
D30*
X149773000Y-111117800D03*
D26*
X149773000Y-113657800D03*
D15*
X196545200Y-219456000D03*
D14*
X167883000Y-70048599D03*
X183123000Y-64991182D03*
X165343000Y-80163436D03*
X188163000Y-47290219D03*
X167883000Y-52347636D03*
D15*
X118273000Y-113642800D03*
X234273000Y-113642800D03*
D14*
X180583000Y-77634727D03*
X188203000Y-59933764D03*
X165343000Y-62462472D03*
D16*
X194273000Y-100392800D03*
D17*
X194273000Y-105472800D03*
D16*
X214023000Y-156562800D03*
D17*
X214023000Y-161642800D03*
D14*
X157723000Y-42232800D03*
D15*
X168656000Y-219456000D03*
D21*
X142786100Y-230212900D03*
D31*
X232590000Y-36052000D03*
D25*
X234590001Y-36052000D03*
X236590000Y-36052000D03*
X238590001Y-36052000D03*
X240589999Y-36052000D03*
X242590000Y-36052000D03*
X244589999Y-36052000D03*
X246590000Y-36052000D03*
X248590001Y-36052000D03*
X250590000Y-36052000D03*
X252590001Y-36052000D03*
X254589999Y-36052000D03*
D14*
X185663000Y-42232801D03*
X170423000Y-42232800D03*
D32*
X176893000Y-125392800D03*
D33*
X161653000Y-125392800D03*
D30*
X206198000Y-111121301D03*
D26*
X206198000Y-113661301D03*
D14*
X180583000Y-62462473D03*
D21*
X92798900Y-230212900D03*
D19*
X141773000Y-202392800D03*
X139273000Y-202392800D03*
D14*
X157723000Y-72577308D03*
D31*
X106881499Y-36068000D03*
D25*
X108881500Y-36068000D03*
X110881499Y-36068000D03*
X112881500Y-36068000D03*
X114881498Y-36068000D03*
X116881499Y-36068000D03*
X118881498Y-36068000D03*
X120881499Y-36068000D03*
X122881500Y-36068000D03*
X124881499Y-36068000D03*
X126881500Y-36068000D03*
X128881498Y-36068000D03*
D21*
X329209400Y-193700400D03*
D14*
X193283000Y-44761510D03*
X185623000Y-67519891D03*
X157723000Y-47290218D03*
X188203000Y-64991182D03*
D21*
X267754100Y-32219900D03*
D15*
X176773000Y-132642800D03*
D16*
X173063000Y-170392800D03*
D17*
X167983000Y-170392800D03*
D14*
X193283000Y-52347637D03*
X165343000Y-47290218D03*
X185663000Y-49818928D03*
D16*
X127893000Y-166192800D03*
D17*
X132973000Y-166192800D03*
D14*
X183123000Y-57405055D03*
X172963000Y-54876345D03*
X183123000Y-72577309D03*
D16*
X206983000Y-170392800D03*
D17*
X212063000Y-170392800D03*
D14*
X167883000Y-75106017D03*
X185663000Y-77634727D03*
X165343000Y-44761509D03*
X170423000Y-44761509D03*
X180583000Y-42232801D03*
X188203000Y-77634727D03*
X199379000Y-92524800D03*
D21*
X31216600Y-68732400D03*
D14*
X170423000Y-54876345D03*
X180543000Y-47290219D03*
X188203000Y-49818928D03*
X157723000Y-80163436D03*
D21*
X217766900Y-230212900D03*
D14*
X157723000Y-49818927D03*
X160263000Y-72577308D03*
X172963000Y-77634726D03*
D19*
X221773000Y-175972800D03*
X219273000Y-175972800D03*
D14*
X160263000Y-67519890D03*
D16*
X180483000Y-166142800D03*
D17*
X185563000Y-166142800D03*
D16*
X144523000Y-156602800D03*
D17*
X144523000Y-161682800D03*
D14*
X160263000Y-64991181D03*
X183123000Y-77634727D03*
X188155000Y-70048600D03*
X188203000Y-52347637D03*
X172963000Y-42232800D03*
D16*
X219023000Y-156562800D03*
D17*
X219023000Y-161642800D03*
D14*
X157723000Y-70048599D03*
X165343000Y-67519890D03*
X157723000Y-64991181D03*
D16*
X206983000Y-166142800D03*
D17*
X212063000Y-166142800D03*
D21*
X31216600Y-193700400D03*
D14*
X193283000Y-49818928D03*
D16*
X198273000Y-180392800D03*
D17*
X198273000Y-175312800D03*
D16*
X180483000Y-170392800D03*
D17*
X185563000Y-170392800D03*
D34*
X186273000Y-103392800D03*
D26*
X188813000Y-103392800D03*
D14*
X172963000Y-59933763D03*
X172963000Y-47290218D03*
X185663000Y-64991182D03*
D35*
X158433000Y-213442800D03*
D36*
X160973000Y-213442800D03*
X163513000Y-213442800D03*
X166053000Y-213442800D03*
X168593000Y-213442800D03*
X171133000Y-213442800D03*
X173673000Y-213442800D03*
X176213000Y-213442800D03*
X178753000Y-213442800D03*
X181293000Y-213442800D03*
X183833000Y-213442800D03*
X186373000Y-213442800D03*
X188913000Y-213442800D03*
X191453000Y-213442800D03*
X193993000Y-213442800D03*
X196533000Y-213442800D03*
D14*
X172963000Y-49818927D03*
D16*
X226023000Y-180472800D03*
D17*
X226023000Y-175392800D03*
D14*
X157723000Y-77634726D03*
X188203000Y-44761510D03*
X160263000Y-44761509D03*
X157723000Y-44761509D03*
D19*
X213698000Y-113621301D03*
D29*
X221318000Y-113621301D03*
D16*
X127893000Y-170442800D03*
D17*
X132973000Y-170442800D03*
D14*
X183103000Y-67519891D03*
X188203000Y-57405055D03*
D19*
X142773000Y-175892800D03*
X140273000Y-175892800D03*
D14*
X170423000Y-72577308D03*
X160263000Y-57405054D03*
D16*
X165863000Y-156552800D03*
D17*
X165863000Y-161632800D03*
D14*
X199379000Y-87444800D03*
D16*
X167273000Y-100852800D03*
D17*
X167273000Y-105932800D03*
D16*
X146363000Y-180342800D03*
D17*
X146363000Y-175262800D03*
D14*
X165343000Y-70048599D03*
D16*
X181773000Y-156642800D03*
D17*
X181773000Y-161722800D03*
D14*
X160263000Y-54876345D03*
X183123000Y-52347637D03*
D15*
X237273000Y-113642800D03*
D14*
X172963000Y-44761509D03*
D16*
X173113000Y-180382800D03*
D17*
X173113000Y-175302800D03*
D14*
X188203000Y-80163436D03*
D16*
X146223000Y-170392800D03*
D17*
X141143000Y-170392800D03*
D16*
X187273000Y-156642800D03*
D17*
X187273000Y-161722800D03*
D14*
X185663000Y-52347637D03*
D15*
X199023000Y-116642800D03*
D14*
X176519000Y-92524800D03*
X165343000Y-42232800D03*
X180583000Y-72577309D03*
X180583000Y-75106018D03*
D16*
X170773000Y-156552800D03*
D17*
X170773000Y-161632800D03*
D14*
X180583000Y-52347637D03*
D16*
X175813000Y-101392800D03*
D17*
X170733000Y-101392800D03*
D14*
X172963000Y-72577308D03*
X179059000Y-87444800D03*
X160263000Y-80163436D03*
X180583000Y-49818928D03*
X160263000Y-47290218D03*
D16*
X180613000Y-175302800D03*
D17*
X180613000Y-180382800D03*
D37*
X171273000Y-119392800D03*
D38*
X172973000Y-115692800D03*
X174673000Y-119392800D03*
X176373000Y-115692800D03*
X178073000Y-119392800D03*
D14*
X167883000Y-80163436D03*
X193283000Y-54876346D03*
X160263000Y-77634726D03*
X183123000Y-80163436D03*
D16*
X134523000Y-156602800D03*
D17*
X134523000Y-161682800D03*
D14*
X193283000Y-47290219D03*
X183123000Y-59933764D03*
X160263000Y-59933763D03*
X167883000Y-54876345D03*
D16*
X153483000Y-166142800D03*
D17*
X158563000Y-166142800D03*
D16*
X207023000Y-175432800D03*
D17*
X207023000Y-180512800D03*
D14*
X167883000Y-47290218D03*
D27*
X185303000Y-181002800D03*
D28*
X185303000Y-183542800D03*
X185303000Y-186082800D03*
X185303000Y-188622800D03*
X185303000Y-191162800D03*
X185303000Y-193702800D03*
X185303000Y-196242800D03*
X185303000Y-198782800D03*
X193243000Y-198782800D03*
X193243000Y-196242800D03*
X193243000Y-193702800D03*
X193243000Y-191162800D03*
X193243000Y-188622800D03*
X193243000Y-186082800D03*
X193243000Y-183542800D03*
X193243000Y-181002800D03*
D27*
X212303000Y-181252800D03*
D28*
X212303000Y-183792800D03*
X212303000Y-186332800D03*
X212303000Y-188872800D03*
X212303000Y-191412800D03*
X212303000Y-193952800D03*
X212303000Y-196492800D03*
X212303000Y-199032800D03*
X220243000Y-199032800D03*
X220243000Y-196492800D03*
X220243000Y-193952800D03*
X220243000Y-191412800D03*
X220243000Y-188872800D03*
X220243000Y-186332800D03*
X220243000Y-183792800D03*
X220243000Y-181252800D03*
D16*
X156023000Y-156552800D03*
D17*
X156023000Y-161632800D03*
D14*
X193283000Y-75106018D03*
D16*
X153523000Y-175352800D03*
D17*
X153523000Y-180432800D03*
D14*
X157723000Y-62462472D03*
X183083000Y-47290219D03*
X170423000Y-75106017D03*
X193283000Y-59933764D03*
X193283000Y-77634727D03*
D19*
X168023000Y-202392800D03*
X165523000Y-202392800D03*
D16*
X209023000Y-156562800D03*
D17*
X209023000Y-161642800D03*
D15*
X158445200Y-219456000D03*
D16*
X173023000Y-166192800D03*
D17*
X167943000Y-166192800D03*
D24*
X128348000Y-111664299D03*
D25*
X128348000Y-113664300D03*
D14*
X157723000Y-57405054D03*
X160263000Y-52347636D03*
X193283000Y-80163436D03*
X167883000Y-49818927D03*
X165343000Y-59933763D03*
X185663000Y-62462473D03*
X183096333Y-44761510D03*
D16*
X191773000Y-156642800D03*
D17*
X191773000Y-161722800D03*
D14*
X170423000Y-64991181D03*
X167883000Y-62462472D03*
X185663000Y-75106018D03*
X193283000Y-72577309D03*
D16*
X198313000Y-170392800D03*
D17*
X193233000Y-170392800D03*
D14*
X183123000Y-62462473D03*
X157723000Y-75106017D03*
X167883000Y-64991181D03*
D16*
X226023000Y-170392800D03*
D17*
X220943000Y-170392800D03*
D14*
X180583000Y-64991182D03*
D15*
X261620000Y-41402000D03*
D16*
X153483000Y-170342800D03*
D17*
X158563000Y-170342800D03*
D21*
X329209400Y-68732400D03*
D19*
X193273000Y-202392800D03*
X190773000Y-202392800D03*
D14*
X193283000Y-62462473D03*
X185663000Y-59933764D03*
X183123000Y-75106018D03*
D21*
X217766900Y-32219900D03*
D14*
X170423000Y-77634726D03*
X165343000Y-49818927D03*
D16*
X146223000Y-166192800D03*
D17*
X141143000Y-166192800D03*
D14*
X170423000Y-62462472D03*
X188203000Y-62462473D03*
X188203000Y-72577309D03*
D15*
X199023000Y-112392800D03*
M02*
