M48
; DRILL file {KiCad (6.0.5)} date Sun Jun  5 15:57:24 2022
; FORMAT={-:-/ absolute / metric / decimal}
; #@! TF.CreationDate,2022-06-05T15:57:24-07:00
; #@! TF.GenerationSoftware,Kicad,Pcbnew,(6.0.5)
; #@! TF.FileFunction,NonPlated,1,2,NPTH
FMAT,2
METRIC
; #@! TA.AperFunction,NonPlated,NPTH,ComponentDrill
T1C0.600
%
G90
G05
T1
X15.5Y-22.0
X15.5Y-79.46
X16.5Y-22.0
X16.5Y-79.46
X17.5Y-22.0
X17.5Y-79.46
X18.5Y-22.0
X18.5Y-79.46
X19.5Y-22.0
X19.5Y-79.46
X22.0Y-15.5
X22.0Y-16.5
X22.0Y-17.5
X22.0Y-18.5
X22.0Y-19.5
X22.0Y-81.96
X22.0Y-82.96
X22.0Y-83.96
X22.0Y-84.96
X22.0Y-85.96
X22.002Y-27.58
X22.002Y-67.88
X22.002Y-47.73
X22.002Y-28.58
X22.002Y-68.88
X22.002Y-48.73
X22.002Y-29.58
X22.002Y-69.88
X22.002Y-49.73
X22.002Y-30.58
X22.002Y-70.88
X22.002Y-50.73
X22.003Y-31.58
X22.003Y-71.88
X22.003Y-51.73
X22.003Y-32.58
X22.003Y-72.88
X22.003Y-52.73
X22.003Y-33.58
X22.003Y-73.88
X22.003Y-53.73
X30.217Y-22.001
X30.217Y-39.156
X30.217Y-42.159
X30.217Y-59.304
X30.217Y-62.301
X30.217Y-79.456
X31.217Y-22.001
X31.217Y-39.156
X31.217Y-42.159
X31.217Y-59.304
X31.217Y-62.301
X31.217Y-79.456
X32.217Y-22.001
X32.217Y-39.157
X32.217Y-42.158
X32.217Y-59.303
X32.217Y-62.301
X32.217Y-79.456
X33.217Y-22.002
X33.217Y-39.157
X33.217Y-42.158
X33.217Y-59.303
X33.217Y-62.302
X33.217Y-79.457
X34.217Y-22.002
X34.217Y-39.157
X34.217Y-42.158
X34.217Y-59.303
X34.217Y-62.302
X34.217Y-79.457
X35.217Y-22.002
X35.217Y-39.157
X35.217Y-42.158
X35.217Y-59.303
X35.217Y-62.302
X35.217Y-79.457
X36.217Y-22.002
X36.217Y-39.157
X36.217Y-42.158
X36.217Y-59.303
X36.217Y-62.302
X36.217Y-79.457
X41.433Y-22.003
X41.433Y-39.158
X41.433Y-42.157
X41.433Y-59.302
X41.433Y-62.303
X41.433Y-79.458
X42.433Y-22.003
X42.433Y-39.158
X42.433Y-42.157
X42.433Y-59.302
X42.433Y-62.303
X42.433Y-79.458
X43.433Y-22.003
X43.433Y-39.158
X43.433Y-42.157
X43.433Y-59.302
X43.433Y-62.303
X43.433Y-79.458
X44.433Y-22.003
X44.433Y-39.158
X44.433Y-42.157
X44.433Y-59.302
X44.433Y-62.303
X44.433Y-79.458
X45.433Y-22.003
X45.433Y-39.158
X45.433Y-42.157
X45.433Y-59.301
X45.433Y-62.303
X45.433Y-79.459
X46.433Y-22.004
X46.433Y-39.159
X46.433Y-42.156
X46.433Y-59.301
X46.433Y-62.304
X46.433Y-79.459
X47.433Y-22.004
X47.433Y-39.159
X47.433Y-42.156
X47.433Y-59.301
X47.433Y-62.304
X47.433Y-79.459
X55.647Y-47.73
X55.647Y-27.58
X55.647Y-67.88
X55.647Y-48.73
X55.647Y-28.58
X55.647Y-68.88
X55.647Y-49.73
X55.647Y-29.58
X55.647Y-69.88
X55.647Y-50.73
X55.648Y-30.58
X55.648Y-70.88
X55.648Y-51.73
X55.648Y-31.58
X55.648Y-71.88
X55.648Y-52.73
X55.648Y-32.58
X55.648Y-72.88
X55.648Y-53.73
X55.648Y-33.58
X55.648Y-73.88
X58.647Y-53.73
X58.647Y-33.58
X58.647Y-73.88
X58.647Y-52.73
X58.647Y-32.58
X58.647Y-72.88
X58.647Y-51.73
X58.647Y-31.58
X58.647Y-71.88
X58.647Y-50.73
X58.648Y-30.58
X58.648Y-70.88
X58.648Y-49.73
X58.648Y-29.58
X58.648Y-69.88
X58.648Y-48.73
X58.648Y-28.58
X58.648Y-68.88
X58.648Y-47.73
X58.648Y-27.58
X58.648Y-67.88
X66.865Y-22.001
X66.865Y-39.156
X66.865Y-42.159
X66.865Y-59.304
X66.865Y-62.301
X66.865Y-79.456
X67.865Y-22.001
X67.865Y-39.156
X67.865Y-42.159
X67.865Y-59.304
X67.865Y-62.301
X67.865Y-79.456
X68.865Y-22.002
X68.865Y-39.156
X68.865Y-42.158
X68.865Y-59.303
X68.865Y-62.301
X68.865Y-79.456
X69.865Y-22.002
X69.865Y-39.157
X69.865Y-42.158
X69.865Y-59.303
X69.865Y-62.302
X69.865Y-79.457
X70.865Y-22.002
X70.865Y-39.157
X70.865Y-42.158
X70.865Y-59.303
X70.865Y-62.302
X70.865Y-79.457
X71.865Y-22.002
X71.865Y-39.157
X71.865Y-42.158
X71.865Y-59.303
X71.865Y-62.302
X71.865Y-79.457
X72.865Y-22.002
X72.865Y-39.157
X72.865Y-42.158
X72.865Y-59.303
X72.865Y-62.302
X72.865Y-79.457
X78.085Y-22.003
X78.085Y-39.158
X78.085Y-42.157
X78.085Y-59.302
X78.085Y-62.303
X78.085Y-79.458
X79.085Y-22.003
X79.085Y-39.158
X79.085Y-42.157
X79.085Y-59.302
X79.085Y-62.303
X79.085Y-79.458
X80.085Y-22.003
X80.085Y-39.158
X80.085Y-42.157
X80.085Y-59.302
X80.085Y-62.303
X80.085Y-79.458
X81.085Y-22.003
X81.085Y-39.158
X81.085Y-42.157
X81.085Y-59.302
X81.085Y-62.303
X81.085Y-79.458
X82.085Y-22.003
X82.085Y-39.158
X82.085Y-42.156
X82.085Y-59.301
X82.085Y-62.303
X82.085Y-79.458
X83.085Y-22.004
X83.085Y-39.159
X83.085Y-42.156
X83.085Y-59.301
X83.085Y-62.304
X83.085Y-79.459
X84.085Y-22.004
X84.085Y-39.159
X84.085Y-42.156
X84.085Y-59.301
X84.085Y-62.304
X84.085Y-79.459
X92.302Y-33.58
X92.302Y-73.88
X92.302Y-53.73
X92.302Y-32.58
X92.302Y-72.88
X92.302Y-52.73
X92.302Y-31.58
X92.302Y-71.88
X92.302Y-51.73
X92.302Y-30.58
X92.302Y-70.88
X92.302Y-50.73
X92.303Y-29.58
X92.303Y-69.88
X92.303Y-49.73
X92.303Y-28.58
X92.303Y-68.88
X92.303Y-48.73
X92.303Y-27.58
X92.303Y-67.88
X92.303Y-47.73
X92.305Y-15.5
X92.305Y-16.5
X92.305Y-17.5
X92.305Y-18.5
X92.305Y-19.5
X92.305Y-81.96
X92.305Y-82.96
X92.305Y-83.96
X92.305Y-84.96
X92.305Y-85.96
X94.805Y-22.0
X94.805Y-79.46
X95.805Y-22.0
X95.805Y-79.46
X96.805Y-22.0
X96.805Y-79.46
X97.805Y-22.0
X97.805Y-79.46
X98.805Y-22.0
X98.805Y-79.46
T0
M30
