%TF.GenerationSoftware,KiCad,Pcbnew,(6.0.5)*%
%TF.CreationDate,2022-06-05T15:56:58-07:00*%
%TF.ProjectId,mosfet_chip_panel,6d6f7366-6574-45f6-9368-69705f70616e,rev?*%
%TF.SameCoordinates,Original*%
%TF.FileFunction,Paste,Top*%
%TF.FilePolarity,Positive*%
%FSLAX46Y46*%
G04 Gerber Fmt 4.6, Leading zero omitted, Abs format (unit mm)*
G04 Created by KiCad (PCBNEW (6.0.5)) date 2022-06-05 15:56:58*
%MOMM*%
%LPD*%
G01*
G04 APERTURE LIST*
G04 Aperture macros list*
%AMRoundRect*
0 Rectangle with rounded corners*
0 $1 Rounding radius*
0 $2 $3 $4 $5 $6 $7 $8 $9 X,Y pos of 4 corners*
0 Add a 4 corners polygon primitive as box body*
4,1,4,$2,$3,$4,$5,$6,$7,$8,$9,$2,$3,0*
0 Add four circle primitives for the rounded corners*
1,1,$1+$1,$2,$3*
1,1,$1+$1,$4,$5*
1,1,$1+$1,$6,$7*
1,1,$1+$1,$8,$9*
0 Add four rect primitives between the rounded corners*
20,1,$1+$1,$2,$3,$4,$5,0*
20,1,$1+$1,$4,$5,$6,$7,0*
20,1,$1+$1,$6,$7,$8,$9,0*
20,1,$1+$1,$8,$9,$2,$3,0*%
G04 Aperture macros list end*
%ADD10RoundRect,0.218750X-0.218750X-0.256250X0.218750X-0.256250X0.218750X0.256250X-0.218750X0.256250X0*%
%ADD11RoundRect,0.200000X0.200000X0.275000X-0.200000X0.275000X-0.200000X-0.275000X0.200000X-0.275000X0*%
%ADD12RoundRect,0.200000X-0.200000X-0.275000X0.200000X-0.275000X0.200000X0.275000X-0.200000X0.275000X0*%
G04 APERTURE END LIST*
D10*
X34867500Y-45755000D03*
X36442500Y-45755000D03*
X71517500Y-65905000D03*
X73092500Y-65905000D03*
X71517500Y-45755000D03*
X73092500Y-45755000D03*
D11*
X81170000Y-65905000D03*
X79520000Y-65905000D03*
D12*
X75780000Y-25605000D03*
X77430000Y-25605000D03*
D11*
X68230000Y-25605000D03*
X66580000Y-25605000D03*
X31580000Y-45755000D03*
X29930000Y-45755000D03*
X68230000Y-65905000D03*
X66580000Y-65905000D03*
X44520000Y-25605000D03*
X42870000Y-25605000D03*
X44520000Y-65905000D03*
X42870000Y-65905000D03*
D12*
X39130000Y-65905000D03*
X40780000Y-65905000D03*
D10*
X34867500Y-65905000D03*
X36442500Y-65905000D03*
X34867500Y-25605000D03*
X36442500Y-25605000D03*
D11*
X81170000Y-45755000D03*
X79520000Y-45755000D03*
D12*
X75780000Y-65905000D03*
X77430000Y-65905000D03*
D11*
X68230000Y-45755000D03*
X66580000Y-45755000D03*
X31580000Y-25605000D03*
X29930000Y-25605000D03*
D10*
X71517500Y-25605000D03*
X73092500Y-25605000D03*
D12*
X39130000Y-25605000D03*
X40780000Y-25605000D03*
X39130000Y-45755000D03*
X40780000Y-45755000D03*
D11*
X81170000Y-25605000D03*
X79520000Y-25605000D03*
D12*
X75780000Y-45755000D03*
X77430000Y-45755000D03*
D11*
X44520000Y-45755000D03*
X42870000Y-45755000D03*
X31580000Y-65905000D03*
X29930000Y-65905000D03*
M02*
