%TF.GenerationSoftware,KiCad,Pcbnew,(6.0.5)*%
%TF.CreationDate,2022-06-05T15:56:58-07:00*%
%TF.ProjectId,mosfet_chip_panel,6d6f7366-6574-45f6-9368-69705f70616e,rev?*%
%TF.SameCoordinates,Original*%
%TF.FileFunction,Soldermask,Top*%
%TF.FilePolarity,Negative*%
%FSLAX46Y46*%
G04 Gerber Fmt 4.6, Leading zero omitted, Abs format (unit mm)*
G04 Created by KiCad (PCBNEW (6.0.5)) date 2022-06-05 15:56:58*
%MOMM*%
%LPD*%
G01*
G04 APERTURE LIST*
G04 Aperture macros list*
%AMRoundRect*
0 Rectangle with rounded corners*
0 $1 Rounding radius*
0 $2 $3 $4 $5 $6 $7 $8 $9 X,Y pos of 4 corners*
0 Add a 4 corners polygon primitive as box body*
4,1,4,$2,$3,$4,$5,$6,$7,$8,$9,$2,$3,0*
0 Add four circle primitives for the rounded corners*
1,1,$1+$1,$2,$3*
1,1,$1+$1,$4,$5*
1,1,$1+$1,$6,$7*
1,1,$1+$1,$8,$9*
0 Add four rect primitives between the rounded corners*
20,1,$1+$1,$2,$3,$4,$5,0*
20,1,$1+$1,$4,$5,$6,$7,0*
20,1,$1+$1,$6,$7,$8,$9,0*
20,1,$1+$1,$8,$9,$2,$3,0*%
G04 Aperture macros list end*
%ADD10C,0.700000*%
%ADD11RoundRect,0.268750X-0.218750X-0.256250X0.218750X-0.256250X0.218750X0.256250X-0.218750X0.256250X0*%
%ADD12C,2.132000*%
%ADD13C,2.386000*%
%ADD14RoundRect,0.250000X0.200000X0.275000X-0.200000X0.275000X-0.200000X-0.275000X0.200000X-0.275000X0*%
%ADD15RoundRect,0.050000X0.850000X-0.850000X0.850000X0.850000X-0.850000X0.850000X-0.850000X-0.850000X0*%
%ADD16O,1.800000X1.800000*%
%ADD17RoundRect,0.250000X-0.200000X-0.275000X0.200000X-0.275000X0.200000X0.275000X-0.200000X0.275000X0*%
%ADD18RoundRect,0.050000X-1.000000X0.952500X-1.000000X-0.952500X1.000000X-0.952500X1.000000X0.952500X0*%
%ADD19O,2.100000X2.005000*%
G04 APERTURE END LIST*
D10*
X22000000Y-15500000D03*
X22002801Y-71879999D03*
X22001895Y-28580000D03*
X84084999Y-62303802D03*
D11*
X34867500Y-45755000D03*
X36442500Y-45755000D03*
D10*
X35216666Y-59303045D03*
D12*
X68750012Y-50514990D03*
X68750012Y-55594990D03*
D10*
X15500000Y-79460000D03*
X66865000Y-42158801D03*
X32216666Y-59303499D03*
X34216666Y-79456803D03*
X22000000Y-19500000D03*
X79085000Y-62303046D03*
X84084999Y-39158801D03*
X58648104Y-68880000D03*
X67865000Y-62301349D03*
X58647499Y-50730000D03*
X47433333Y-59301197D03*
X66865000Y-62301198D03*
X79085000Y-42156953D03*
X67865000Y-39156348D03*
D12*
X50149988Y-35405010D03*
X50149988Y-30325010D03*
D13*
X23800002Y-57554998D03*
D10*
X92305000Y-82960000D03*
X36216666Y-62302104D03*
X31216666Y-42158651D03*
D11*
X71517500Y-65905000D03*
X73092500Y-65905000D03*
D10*
X55646594Y-67880000D03*
X55648406Y-33579999D03*
X55646592Y-47730000D03*
X22001593Y-27580000D03*
X79085000Y-22003046D03*
X92305000Y-16500000D03*
X55646896Y-28580000D03*
X82084999Y-59301500D03*
X58648406Y-27580000D03*
X81085000Y-59301651D03*
X44433333Y-22003348D03*
X92305000Y-15500000D03*
X71864999Y-39156953D03*
X66865000Y-59303802D03*
X22003103Y-32579999D03*
X41433333Y-42157105D03*
X44433333Y-59301651D03*
X34216666Y-42158197D03*
X55646594Y-27580000D03*
X45433333Y-62303499D03*
X83084999Y-59301349D03*
X31216666Y-59303650D03*
X22002802Y-51729999D03*
D13*
X60450002Y-64054988D03*
D10*
X33216666Y-59303348D03*
X66865000Y-22001198D03*
X18500000Y-22000000D03*
X55646896Y-68880000D03*
X69865000Y-59303348D03*
D11*
X71517500Y-45755000D03*
X73092500Y-45755000D03*
D10*
X72864999Y-59302895D03*
X46433333Y-62303650D03*
X31216666Y-79456349D03*
D14*
X81170000Y-65905000D03*
X79520000Y-65905000D03*
D10*
X22003407Y-53729999D03*
D15*
X49375000Y-24005000D03*
D16*
X51915009Y-24005008D03*
D17*
X75780000Y-25605000D03*
X77430000Y-25605000D03*
D10*
X81085000Y-39158348D03*
X41433333Y-22002894D03*
X81085000Y-42156651D03*
D15*
X49375000Y-64305000D03*
D16*
X51915009Y-64305008D03*
D10*
X72864999Y-62302105D03*
X78085000Y-22002895D03*
X82084999Y-62303500D03*
X70864999Y-79456802D03*
X94805000Y-79460000D03*
X70864999Y-39156802D03*
X47433333Y-62303802D03*
X19500000Y-79460000D03*
X30216666Y-22001197D03*
D18*
X40300000Y-51255000D03*
D19*
X40299995Y-53794994D03*
X40299995Y-56334994D03*
D10*
X78085000Y-62302895D03*
X72864999Y-42157894D03*
X55647802Y-71879999D03*
X58646594Y-33579999D03*
X92301594Y-53729999D03*
X84084999Y-59301198D03*
D14*
X68230000Y-25605000D03*
X66580000Y-25605000D03*
D10*
X45433333Y-79458500D03*
X43433333Y-22003196D03*
X33216666Y-62301651D03*
X41433333Y-79457895D03*
D13*
X23800002Y-23754988D03*
D10*
X22003405Y-33579999D03*
X92305000Y-85960000D03*
X46433333Y-42156349D03*
X98805000Y-22000000D03*
D14*
X31580000Y-45755000D03*
X29930000Y-45755000D03*
D10*
X98805000Y-79460000D03*
D13*
X23800002Y-77704998D03*
D10*
X69865000Y-79456651D03*
X43433333Y-39158197D03*
X84084999Y-79458801D03*
X55647198Y-69880000D03*
X58648405Y-47730000D03*
X58646592Y-53729999D03*
D13*
X23800002Y-43904988D03*
D10*
X96805000Y-79460000D03*
X66865000Y-39156197D03*
X58647801Y-49730000D03*
X35216666Y-79456954D03*
X36216666Y-59302894D03*
X30216666Y-79456197D03*
D12*
X50149988Y-55555010D03*
X50149988Y-50475010D03*
D10*
X80085000Y-79458196D03*
X58647500Y-30580000D03*
X79085000Y-79458045D03*
X92301593Y-73879999D03*
X81085000Y-79458348D03*
X41433333Y-59302104D03*
X83084999Y-42156348D03*
X55647500Y-30580000D03*
X68865000Y-59303500D03*
X43433333Y-42156803D03*
D14*
X68230000Y-65905000D03*
X66580000Y-65905000D03*
D10*
X22001896Y-48730000D03*
D18*
X76950000Y-51255000D03*
D19*
X76949995Y-53794994D03*
X76949995Y-56334994D03*
D10*
X80085000Y-42156802D03*
X22002801Y-31579999D03*
D15*
X86025000Y-64305000D03*
D16*
X88565009Y-64305008D03*
D13*
X23800002Y-64054988D03*
D10*
X58648103Y-48730000D03*
X71864999Y-42158045D03*
X82084999Y-39158499D03*
X22002500Y-50730000D03*
X32216666Y-42158500D03*
X92301593Y-33579999D03*
X32216666Y-22001499D03*
X58647802Y-29580000D03*
X55646894Y-48730000D03*
X92302499Y-70880000D03*
D14*
X44520000Y-25605000D03*
X42870000Y-25605000D03*
D10*
X46433333Y-59301348D03*
X55647801Y-51729999D03*
X55648406Y-73879999D03*
D13*
X60450002Y-43904988D03*
D10*
X15500000Y-22000000D03*
X41433333Y-62302894D03*
X70864999Y-59303197D03*
X42433333Y-39158046D03*
X30216666Y-42158802D03*
X16500000Y-22000000D03*
D12*
X86799988Y-75705010D03*
X86799988Y-70625010D03*
D14*
X44520000Y-65905000D03*
X42870000Y-65905000D03*
D10*
X83084999Y-39158650D03*
X22002499Y-70880000D03*
X32216666Y-39156500D03*
X35216666Y-39156954D03*
D17*
X39130000Y-65905000D03*
X40780000Y-65905000D03*
D10*
X17500000Y-22000000D03*
X30216666Y-62301197D03*
X82084999Y-22003500D03*
X92305000Y-84960000D03*
D18*
X76950000Y-31105000D03*
D19*
X76949995Y-33644994D03*
X76949995Y-36184994D03*
D10*
X70864999Y-62301803D03*
X36216666Y-79457105D03*
X67865000Y-42158650D03*
X92303105Y-48730000D03*
X92302500Y-50730000D03*
X92303103Y-28580000D03*
X92305000Y-81960000D03*
X67865000Y-59303651D03*
X30216666Y-39156197D03*
X35216666Y-62301953D03*
X92303103Y-68880000D03*
X55648104Y-72879999D03*
X67865000Y-22001349D03*
D12*
X86799988Y-35405010D03*
X86799988Y-30325010D03*
D13*
X60450002Y-77704998D03*
D10*
X31216666Y-62301348D03*
X82084999Y-79458499D03*
D12*
X68750012Y-30364990D03*
X68750012Y-35444990D03*
D10*
X30216666Y-59303802D03*
X78085000Y-42157104D03*
X44433333Y-39158348D03*
X22003105Y-52729999D03*
X96805000Y-22000000D03*
X32216666Y-79456500D03*
X68865000Y-79456499D03*
X58647198Y-71879999D03*
X22003405Y-73879999D03*
X78085000Y-39157894D03*
X33216666Y-42158348D03*
X36216666Y-39157105D03*
X35216666Y-42158046D03*
X43433333Y-59301802D03*
X92302801Y-29580000D03*
D11*
X34867500Y-65905000D03*
X36442500Y-65905000D03*
D10*
X34216666Y-22001802D03*
X68865000Y-42158499D03*
X83084999Y-22003651D03*
X92302499Y-30580000D03*
D11*
X34867500Y-25605000D03*
X36442500Y-25605000D03*
D10*
X34216666Y-62301802D03*
X55647500Y-70880000D03*
X92302197Y-31579999D03*
X58647198Y-31579999D03*
D14*
X81170000Y-45755000D03*
X79520000Y-45755000D03*
D10*
X22002197Y-29580000D03*
X66865000Y-79456197D03*
X71864999Y-79456953D03*
X33216666Y-39156651D03*
X79085000Y-39158045D03*
X80085000Y-59301803D03*
D13*
X60450002Y-37404998D03*
D10*
X83084999Y-62303651D03*
D17*
X75780000Y-65905000D03*
X77430000Y-65905000D03*
D15*
X49375000Y-44155000D03*
D16*
X51915009Y-44155008D03*
D10*
X22000000Y-85960000D03*
X22000000Y-83960000D03*
D15*
X86025000Y-44155000D03*
D16*
X88565009Y-44155008D03*
D10*
X46433333Y-39158651D03*
X55647198Y-29580000D03*
X92303405Y-27580000D03*
D12*
X50149988Y-75705010D03*
X50149988Y-70625010D03*
D10*
X81085000Y-62303348D03*
X92303405Y-67880000D03*
X36216666Y-22002104D03*
X92302198Y-51729999D03*
X22000000Y-18500000D03*
X55648405Y-53729999D03*
X22003103Y-72879999D03*
X44433333Y-42156651D03*
X79085000Y-59301954D03*
X83084999Y-79458650D03*
D14*
X68230000Y-45755000D03*
X66580000Y-45755000D03*
D10*
X72864999Y-79457104D03*
X22002499Y-30580000D03*
X69865000Y-39156651D03*
D13*
X60450002Y-23754988D03*
D10*
X58648104Y-28580000D03*
X71864999Y-22001954D03*
X92305000Y-19500000D03*
D12*
X32100012Y-50514990D03*
X32100012Y-55594990D03*
D10*
X22002198Y-49730000D03*
X42433333Y-42156954D03*
X58647500Y-70880000D03*
X41433333Y-39157895D03*
X78085000Y-59302105D03*
X45433333Y-39158500D03*
X69865000Y-22001651D03*
X55647499Y-50730000D03*
D12*
X32100012Y-70664990D03*
X32100012Y-75744990D03*
D15*
X86025000Y-24005000D03*
D16*
X88565009Y-24005008D03*
D10*
X92303407Y-47730000D03*
X92301895Y-32579999D03*
X45433333Y-42156500D03*
X92305000Y-18500000D03*
D12*
X68750012Y-70664990D03*
X68750012Y-75744990D03*
D10*
X68865000Y-62301500D03*
X22000000Y-16500000D03*
X80085000Y-62303197D03*
X34216666Y-59303196D03*
X44433333Y-79458348D03*
X42433333Y-59301953D03*
X17500000Y-79460000D03*
X92305000Y-83960000D03*
X33216666Y-79456651D03*
X84084999Y-22003802D03*
X58647197Y-51729999D03*
D14*
X31580000Y-25605000D03*
X29930000Y-25605000D03*
D10*
X80085000Y-22003197D03*
X71864999Y-59303046D03*
X92302197Y-71879999D03*
X22000000Y-17500000D03*
X97805000Y-79460000D03*
X36216666Y-42157895D03*
X45433333Y-22003499D03*
X72864999Y-39157104D03*
X71864999Y-62301954D03*
X42433333Y-62303045D03*
X69865000Y-62301651D03*
X95805000Y-79460000D03*
X22000000Y-82960000D03*
X92305000Y-17500000D03*
X58646896Y-32579999D03*
X44433333Y-62303348D03*
X84084999Y-42156197D03*
X78085000Y-79457894D03*
D11*
X71517500Y-25605000D03*
X73092500Y-25605000D03*
D10*
X92302801Y-69880000D03*
X46433333Y-22003650D03*
X22001895Y-68880000D03*
X47433333Y-22003802D03*
X69865000Y-42158348D03*
X22002197Y-69880000D03*
X43433333Y-79458197D03*
X35216666Y-22001953D03*
D17*
X39130000Y-25605000D03*
X40780000Y-25605000D03*
D10*
X33216666Y-22001651D03*
X32216666Y-62301499D03*
X58646894Y-52729999D03*
X80085000Y-39158196D03*
X68865000Y-22001500D03*
D18*
X40300000Y-31105000D03*
D19*
X40299995Y-33644994D03*
X40299995Y-36184994D03*
D17*
X39130000Y-45755000D03*
X40780000Y-45755000D03*
D14*
X81170000Y-25605000D03*
X79520000Y-25605000D03*
D10*
X31216666Y-39156349D03*
X22000000Y-81960000D03*
X94805000Y-22000000D03*
X68865000Y-39156499D03*
X55647802Y-31579999D03*
X42433333Y-79458046D03*
X55647197Y-49730000D03*
X82084999Y-42156499D03*
D12*
X32100012Y-30364990D03*
X32100012Y-35444990D03*
D10*
X55648104Y-32579999D03*
X92301896Y-52729999D03*
X92301895Y-72879999D03*
D13*
X23800002Y-37404998D03*
D10*
X43433333Y-62303196D03*
D17*
X75780000Y-45755000D03*
X77430000Y-45755000D03*
D18*
X76950000Y-71405000D03*
D19*
X76949995Y-73944994D03*
X76949995Y-76484994D03*
D12*
X86799988Y-55555010D03*
X86799988Y-50475010D03*
D10*
X34216666Y-39156803D03*
X55648103Y-52729999D03*
D13*
X60450002Y-57554998D03*
D10*
X19500000Y-22000000D03*
D18*
X40300000Y-71405000D03*
D19*
X40299995Y-73944994D03*
X40299995Y-76484994D03*
D10*
X92302802Y-49730000D03*
X95805000Y-22000000D03*
X70864999Y-22001803D03*
X58648406Y-67880000D03*
D14*
X44520000Y-45755000D03*
X42870000Y-45755000D03*
D10*
X47433333Y-39158802D03*
X42433333Y-22003045D03*
X22001593Y-67880000D03*
X31216666Y-22001348D03*
X67865000Y-79456348D03*
X81085000Y-22003348D03*
X45433333Y-59301499D03*
X72864999Y-22002105D03*
X58646896Y-72879999D03*
D14*
X31580000Y-65905000D03*
X29930000Y-65905000D03*
D10*
X58647802Y-69880000D03*
X47433333Y-42156197D03*
X47433333Y-79458802D03*
X58646594Y-73879999D03*
X46433333Y-79458651D03*
X22000000Y-84960000D03*
X18500000Y-79460000D03*
X70864999Y-42158196D03*
X16500000Y-79460000D03*
X97805000Y-22000000D03*
X22001594Y-47730000D03*
M02*
