%TF.GenerationSoftware,KiCad,Pcbnew,(6.0.5)*%
%TF.CreationDate,2022-06-05T15:56:58-07:00*%
%TF.ProjectId,mosfet_chip_panel,6d6f7366-6574-45f6-9368-69705f70616e,rev?*%
%TF.SameCoordinates,Original*%
%TF.FileFunction,Legend,Top*%
%TF.FilePolarity,Positive*%
%FSLAX46Y46*%
G04 Gerber Fmt 4.6, Leading zero omitted, Abs format (unit mm)*
G04 Created by KiCad (PCBNEW (6.0.5)) date 2022-06-05 15:56:58*
%MOMM*%
%LPD*%
G01*
G04 APERTURE LIST*
G04 Aperture macros list*
%AMRoundRect*
0 Rectangle with rounded corners*
0 $1 Rounding radius*
0 $2 $3 $4 $5 $6 $7 $8 $9 X,Y pos of 4 corners*
0 Add a 4 corners polygon primitive as box body*
4,1,4,$2,$3,$4,$5,$6,$7,$8,$9,$2,$3,0*
0 Add four circle primitives for the rounded corners*
1,1,$1+$1,$2,$3*
1,1,$1+$1,$4,$5*
1,1,$1+$1,$6,$7*
1,1,$1+$1,$8,$9*
0 Add four rect primitives between the rounded corners*
20,1,$1+$1,$2,$3,$4,$5,0*
20,1,$1+$1,$4,$5,$6,$7,0*
20,1,$1+$1,$6,$7,$8,$9,0*
20,1,$1+$1,$8,$9,$2,$3,0*%
G04 Aperture macros list end*
%ADD10C,0.150000*%
%ADD11C,0.300000*%
%ADD12C,0.250000*%
%ADD13C,0.120000*%
%ADD14C,0.700000*%
%ADD15RoundRect,0.268750X-0.218750X-0.256250X0.218750X-0.256250X0.218750X0.256250X-0.218750X0.256250X0*%
%ADD16C,2.132000*%
%ADD17C,2.386000*%
%ADD18RoundRect,0.250000X0.200000X0.275000X-0.200000X0.275000X-0.200000X-0.275000X0.200000X-0.275000X0*%
%ADD19RoundRect,0.050000X0.850000X-0.850000X0.850000X0.850000X-0.850000X0.850000X-0.850000X-0.850000X0*%
%ADD20O,1.800000X1.800000*%
%ADD21RoundRect,0.250000X-0.200000X-0.275000X0.200000X-0.275000X0.200000X0.275000X-0.200000X0.275000X0*%
%ADD22RoundRect,0.050000X-1.000000X0.952500X-1.000000X-0.952500X1.000000X-0.952500X1.000000X0.952500X0*%
%ADD23O,2.100000X2.005000*%
G04 APERTURE END LIST*
D10*
X25569047Y-29076428D02*
X26330952Y-29076428D01*
X25950000Y-29457380D02*
X25950000Y-28695476D01*
X62219047Y-69376428D02*
X62980952Y-69376428D01*
X62600000Y-69757380D02*
X62600000Y-68995476D01*
X25569047Y-69376428D02*
X26330952Y-69376428D01*
X25950000Y-69757380D02*
X25950000Y-68995476D01*
X62219047Y-49226428D02*
X62980952Y-49226428D01*
X62600000Y-49607380D02*
X62600000Y-48845476D01*
X25569047Y-49226428D02*
X26330952Y-49226428D01*
X25950000Y-49607380D02*
X25950000Y-48845476D01*
X62219047Y-29076428D02*
X62980952Y-29076428D01*
X62600000Y-29457380D02*
X62600000Y-28695476D01*
D11*
X33116785Y-17178571D02*
X33116785Y-18250000D01*
X33045357Y-18464285D01*
X32902500Y-18607142D01*
X32688214Y-18678571D01*
X32545357Y-18678571D01*
X34545357Y-18678571D02*
X33831071Y-18678571D01*
X33831071Y-17178571D01*
X35902500Y-18535714D02*
X35831071Y-18607142D01*
X35616785Y-18678571D01*
X35473928Y-18678571D01*
X35259642Y-18607142D01*
X35116785Y-18464285D01*
X35045357Y-18321428D01*
X34973928Y-18035714D01*
X34973928Y-17821428D01*
X35045357Y-17535714D01*
X35116785Y-17392857D01*
X35259642Y-17250000D01*
X35473928Y-17178571D01*
X35616785Y-17178571D01*
X35831071Y-17250000D01*
X35902500Y-17321428D01*
X36973928Y-17178571D02*
X36973928Y-18250000D01*
X36902500Y-18464285D01*
X36759642Y-18607142D01*
X36545357Y-18678571D01*
X36402500Y-18678571D01*
X38402500Y-18678571D02*
X37688214Y-18678571D01*
X37688214Y-17178571D01*
X39759642Y-18535714D02*
X39688214Y-18607142D01*
X39473928Y-18678571D01*
X39331071Y-18678571D01*
X39116785Y-18607142D01*
X38973928Y-18464285D01*
X38902500Y-18321428D01*
X38831071Y-18035714D01*
X38831071Y-17821428D01*
X38902500Y-17535714D01*
X38973928Y-17392857D01*
X39116785Y-17250000D01*
X39331071Y-17178571D01*
X39473928Y-17178571D01*
X39688214Y-17250000D01*
X39759642Y-17321428D01*
X40831071Y-17178571D02*
X40831071Y-18250000D01*
X40759642Y-18464285D01*
X40616785Y-18607142D01*
X40402500Y-18678571D01*
X40259642Y-18678571D01*
X42259642Y-18678571D02*
X41545357Y-18678571D01*
X41545357Y-17178571D01*
X43616785Y-18535714D02*
X43545357Y-18607142D01*
X43331071Y-18678571D01*
X43188214Y-18678571D01*
X42973928Y-18607142D01*
X42831071Y-18464285D01*
X42759642Y-18321428D01*
X42688214Y-18035714D01*
X42688214Y-17821428D01*
X42759642Y-17535714D01*
X42831071Y-17392857D01*
X42973928Y-17250000D01*
X43188214Y-17178571D01*
X43331071Y-17178571D01*
X43545357Y-17250000D01*
X43616785Y-17321428D01*
X44688214Y-17178571D02*
X44688214Y-18250000D01*
X44616785Y-18464285D01*
X44473928Y-18607142D01*
X44259642Y-18678571D01*
X44116785Y-18678571D01*
X46116785Y-18678571D02*
X45402500Y-18678571D01*
X45402500Y-17178571D01*
X47473928Y-18535714D02*
X47402500Y-18607142D01*
X47188214Y-18678571D01*
X47045357Y-18678571D01*
X46831071Y-18607142D01*
X46688214Y-18464285D01*
X46616785Y-18321428D01*
X46545357Y-18035714D01*
X46545357Y-17821428D01*
X46616785Y-17535714D01*
X46688214Y-17392857D01*
X46831071Y-17250000D01*
X47045357Y-17178571D01*
X47188214Y-17178571D01*
X47402500Y-17250000D01*
X47473928Y-17321428D01*
X49259642Y-18107142D02*
X50402500Y-18107142D01*
X52259642Y-18678571D02*
X52259642Y-17178571D01*
X52831071Y-17178571D01*
X52973928Y-17250000D01*
X53045357Y-17321428D01*
X53116785Y-17464285D01*
X53116785Y-17678571D01*
X53045357Y-17821428D01*
X52973928Y-17892857D01*
X52831071Y-17964285D01*
X52259642Y-17964285D01*
X53973928Y-18678571D02*
X53831071Y-18607142D01*
X53759642Y-18535714D01*
X53688214Y-18392857D01*
X53688214Y-17964285D01*
X53759642Y-17821428D01*
X53831071Y-17750000D01*
X53973928Y-17678571D01*
X54188214Y-17678571D01*
X54331071Y-17750000D01*
X54402500Y-17821428D01*
X54473928Y-17964285D01*
X54473928Y-18392857D01*
X54402500Y-18535714D01*
X54331071Y-18607142D01*
X54188214Y-18678571D01*
X53973928Y-18678571D01*
X54973928Y-17678571D02*
X55259642Y-18678571D01*
X55545357Y-17964285D01*
X55831071Y-18678571D01*
X56116785Y-17678571D01*
X57259642Y-18607142D02*
X57116785Y-18678571D01*
X56831071Y-18678571D01*
X56688214Y-18607142D01*
X56616785Y-18464285D01*
X56616785Y-17892857D01*
X56688214Y-17750000D01*
X56831071Y-17678571D01*
X57116785Y-17678571D01*
X57259642Y-17750000D01*
X57331071Y-17892857D01*
X57331071Y-18035714D01*
X56616785Y-18178571D01*
X57973928Y-18678571D02*
X57973928Y-17678571D01*
X57973928Y-17964285D02*
X58045357Y-17821428D01*
X58116785Y-17750000D01*
X58259642Y-17678571D01*
X58402500Y-17678571D01*
X60045357Y-18678571D02*
X60045357Y-17178571D01*
X60545357Y-18250000D01*
X61045357Y-17178571D01*
X61045357Y-18678571D01*
X62045357Y-17178571D02*
X62331071Y-17178571D01*
X62473928Y-17250000D01*
X62616785Y-17392857D01*
X62688214Y-17678571D01*
X62688214Y-18178571D01*
X62616785Y-18464285D01*
X62473928Y-18607142D01*
X62331071Y-18678571D01*
X62045357Y-18678571D01*
X61902500Y-18607142D01*
X61759642Y-18464285D01*
X61688214Y-18178571D01*
X61688214Y-17678571D01*
X61759642Y-17392857D01*
X61902500Y-17250000D01*
X62045357Y-17178571D01*
X63259642Y-18607142D02*
X63473928Y-18678571D01*
X63831071Y-18678571D01*
X63973928Y-18607142D01*
X64045357Y-18535714D01*
X64116785Y-18392857D01*
X64116785Y-18250000D01*
X64045357Y-18107142D01*
X63973928Y-18035714D01*
X63831071Y-17964285D01*
X63545357Y-17892857D01*
X63402500Y-17821428D01*
X63331071Y-17750000D01*
X63259642Y-17607142D01*
X63259642Y-17464285D01*
X63331071Y-17321428D01*
X63402500Y-17250000D01*
X63545357Y-17178571D01*
X63902500Y-17178571D01*
X64116785Y-17250000D01*
X65259642Y-17892857D02*
X64759642Y-17892857D01*
X64759642Y-18678571D02*
X64759642Y-17178571D01*
X65473928Y-17178571D01*
X66045357Y-17892857D02*
X66545357Y-17892857D01*
X66759642Y-18678571D02*
X66045357Y-18678571D01*
X66045357Y-17178571D01*
X66759642Y-17178571D01*
X67188214Y-17178571D02*
X68045357Y-17178571D01*
X67616785Y-18678571D02*
X67616785Y-17178571D01*
X70545357Y-18535714D02*
X70473928Y-18607142D01*
X70259642Y-18678571D01*
X70116785Y-18678571D01*
X69902500Y-18607142D01*
X69759642Y-18464285D01*
X69688214Y-18321428D01*
X69616785Y-18035714D01*
X69616785Y-17821428D01*
X69688214Y-17535714D01*
X69759642Y-17392857D01*
X69902500Y-17250000D01*
X70116785Y-17178571D01*
X70259642Y-17178571D01*
X70473928Y-17250000D01*
X70545357Y-17321428D01*
X71188214Y-18678571D02*
X71188214Y-17178571D01*
X71831071Y-18678571D02*
X71831071Y-17892857D01*
X71759642Y-17750000D01*
X71616785Y-17678571D01*
X71402500Y-17678571D01*
X71259642Y-17750000D01*
X71188214Y-17821428D01*
X72545357Y-18678571D02*
X72545357Y-17678571D01*
X72545357Y-17178571D02*
X72473928Y-17250000D01*
X72545357Y-17321428D01*
X72616785Y-17250000D01*
X72545357Y-17178571D01*
X72545357Y-17321428D01*
X73259642Y-17678571D02*
X73259642Y-19178571D01*
X73259642Y-17750000D02*
X73402500Y-17678571D01*
X73688214Y-17678571D01*
X73831071Y-17750000D01*
X73902500Y-17821428D01*
X73973928Y-17964285D01*
X73973928Y-18392857D01*
X73902500Y-18535714D01*
X73831071Y-18607142D01*
X73688214Y-18678571D01*
X73402500Y-18678571D01*
X73259642Y-18607142D01*
X75759642Y-18107142D02*
X76902500Y-18107142D01*
X79545357Y-18678571D02*
X78688214Y-18678571D01*
X79116785Y-18678571D02*
X79116785Y-17178571D01*
X78973928Y-17392857D01*
X78831071Y-17535714D01*
X78688214Y-17607142D01*
X80188214Y-18535714D02*
X80259642Y-18607142D01*
X80188214Y-18678571D01*
X80116785Y-18607142D01*
X80188214Y-18535714D01*
X80188214Y-18678571D01*
X81188214Y-17178571D02*
X81331071Y-17178571D01*
X81473928Y-17250000D01*
X81545357Y-17321428D01*
X81616785Y-17464285D01*
X81688214Y-17750000D01*
X81688214Y-18107142D01*
X81616785Y-18392857D01*
X81545357Y-18535714D01*
X81473928Y-18607142D01*
X81331071Y-18678571D01*
X81188214Y-18678571D01*
X81045357Y-18607142D01*
X80973928Y-18535714D01*
X80902500Y-18392857D01*
X80831071Y-18107142D01*
X80831071Y-17750000D01*
X80902500Y-17464285D01*
X80973928Y-17321428D01*
X81045357Y-17250000D01*
X81188214Y-17178571D01*
D10*
X47102380Y-25409761D02*
X46102380Y-25409761D01*
X46102380Y-25028809D01*
X46150000Y-24933571D01*
X46197619Y-24885952D01*
X46292857Y-24838333D01*
X46435714Y-24838333D01*
X46530952Y-24885952D01*
X46578571Y-24933571D01*
X46626190Y-25028809D01*
X46626190Y-25409761D01*
X46102380Y-24505000D02*
X47102380Y-24266904D01*
X46388095Y-24076428D01*
X47102380Y-23885952D01*
X46102380Y-23647857D01*
X47102380Y-23266904D02*
X46102380Y-23266904D01*
X46816666Y-22933571D01*
X46102380Y-22600238D01*
X47102380Y-22600238D01*
X83752380Y-65709761D02*
X82752380Y-65709761D01*
X82752380Y-65328809D01*
X82800000Y-65233571D01*
X82847619Y-65185952D01*
X82942857Y-65138333D01*
X83085714Y-65138333D01*
X83180952Y-65185952D01*
X83228571Y-65233571D01*
X83276190Y-65328809D01*
X83276190Y-65709761D01*
X82752380Y-64805000D02*
X83752380Y-64566904D01*
X83038095Y-64376428D01*
X83752380Y-64185952D01*
X82752380Y-63947857D01*
X83752380Y-63566904D02*
X82752380Y-63566904D01*
X83466666Y-63233571D01*
X82752380Y-62900238D01*
X83752380Y-62900238D01*
X47102380Y-65709761D02*
X46102380Y-65709761D01*
X46102380Y-65328809D01*
X46150000Y-65233571D01*
X46197619Y-65185952D01*
X46292857Y-65138333D01*
X46435714Y-65138333D01*
X46530952Y-65185952D01*
X46578571Y-65233571D01*
X46626190Y-65328809D01*
X46626190Y-65709761D01*
X46102380Y-64805000D02*
X47102380Y-64566904D01*
X46388095Y-64376428D01*
X47102380Y-64185952D01*
X46102380Y-63947857D01*
X47102380Y-63566904D02*
X46102380Y-63566904D01*
X46816666Y-63233571D01*
X46102380Y-62900238D01*
X47102380Y-62900238D01*
X83752380Y-45559761D02*
X82752380Y-45559761D01*
X82752380Y-45178809D01*
X82800000Y-45083571D01*
X82847619Y-45035952D01*
X82942857Y-44988333D01*
X83085714Y-44988333D01*
X83180952Y-45035952D01*
X83228571Y-45083571D01*
X83276190Y-45178809D01*
X83276190Y-45559761D01*
X82752380Y-44655000D02*
X83752380Y-44416904D01*
X83038095Y-44226428D01*
X83752380Y-44035952D01*
X82752380Y-43797857D01*
X83752380Y-43416904D02*
X82752380Y-43416904D01*
X83466666Y-43083571D01*
X82752380Y-42750238D01*
X83752380Y-42750238D01*
X47102380Y-45559761D02*
X46102380Y-45559761D01*
X46102380Y-45178809D01*
X46150000Y-45083571D01*
X46197619Y-45035952D01*
X46292857Y-44988333D01*
X46435714Y-44988333D01*
X46530952Y-45035952D01*
X46578571Y-45083571D01*
X46626190Y-45178809D01*
X46626190Y-45559761D01*
X46102380Y-44655000D02*
X47102380Y-44416904D01*
X46388095Y-44226428D01*
X47102380Y-44035952D01*
X46102380Y-43797857D01*
X47102380Y-43416904D02*
X46102380Y-43416904D01*
X46816666Y-43083571D01*
X46102380Y-42750238D01*
X47102380Y-42750238D01*
X83752380Y-25409761D02*
X82752380Y-25409761D01*
X82752380Y-25028809D01*
X82800000Y-24933571D01*
X82847619Y-24885952D01*
X82942857Y-24838333D01*
X83085714Y-24838333D01*
X83180952Y-24885952D01*
X83228571Y-24933571D01*
X83276190Y-25028809D01*
X83276190Y-25409761D01*
X82752380Y-24505000D02*
X83752380Y-24266904D01*
X83038095Y-24076428D01*
X83752380Y-23885952D01*
X82752380Y-23647857D01*
X83752380Y-23266904D02*
X82752380Y-23266904D01*
X83466666Y-22933571D01*
X82752380Y-22600238D01*
X83752380Y-22600238D01*
X26221428Y-37485952D02*
X26221428Y-36724047D01*
X62871428Y-77785952D02*
X62871428Y-77024047D01*
X26221428Y-77785952D02*
X26221428Y-77024047D01*
X62871428Y-57635952D02*
X62871428Y-56874047D01*
X26221428Y-57635952D02*
X26221428Y-56874047D01*
X62871428Y-37485952D02*
X62871428Y-36724047D01*
D12*
X23207142Y-31105000D02*
X24407142Y-31105000D01*
X24407142Y-31562142D01*
X24350000Y-31676428D01*
X24292857Y-31733571D01*
X24178571Y-31790714D01*
X24007142Y-31790714D01*
X23892857Y-31733571D01*
X23835714Y-31676428D01*
X23778571Y-31562142D01*
X23778571Y-31105000D01*
X24407142Y-32190714D02*
X23207142Y-32476428D01*
X24064285Y-32705000D01*
X23207142Y-32933571D01*
X24407142Y-33219285D01*
X23207142Y-34362142D02*
X23778571Y-33962142D01*
X23207142Y-33676428D02*
X24407142Y-33676428D01*
X24407142Y-34133571D01*
X24350000Y-34247857D01*
X24292857Y-34305000D01*
X24178571Y-34362142D01*
X24007142Y-34362142D01*
X23892857Y-34305000D01*
X23835714Y-34247857D01*
X23778571Y-34133571D01*
X23778571Y-33676428D01*
X59857142Y-71405000D02*
X61057142Y-71405000D01*
X61057142Y-71862142D01*
X61000000Y-71976428D01*
X60942857Y-72033571D01*
X60828571Y-72090714D01*
X60657142Y-72090714D01*
X60542857Y-72033571D01*
X60485714Y-71976428D01*
X60428571Y-71862142D01*
X60428571Y-71405000D01*
X61057142Y-72490714D02*
X59857142Y-72776428D01*
X60714285Y-73005000D01*
X59857142Y-73233571D01*
X61057142Y-73519285D01*
X59857142Y-74662142D02*
X60428571Y-74262142D01*
X59857142Y-73976428D02*
X61057142Y-73976428D01*
X61057142Y-74433571D01*
X61000000Y-74547857D01*
X60942857Y-74605000D01*
X60828571Y-74662142D01*
X60657142Y-74662142D01*
X60542857Y-74605000D01*
X60485714Y-74547857D01*
X60428571Y-74433571D01*
X60428571Y-73976428D01*
X23207142Y-71405000D02*
X24407142Y-71405000D01*
X24407142Y-71862142D01*
X24350000Y-71976428D01*
X24292857Y-72033571D01*
X24178571Y-72090714D01*
X24007142Y-72090714D01*
X23892857Y-72033571D01*
X23835714Y-71976428D01*
X23778571Y-71862142D01*
X23778571Y-71405000D01*
X24407142Y-72490714D02*
X23207142Y-72776428D01*
X24064285Y-73005000D01*
X23207142Y-73233571D01*
X24407142Y-73519285D01*
X23207142Y-74662142D02*
X23778571Y-74262142D01*
X23207142Y-73976428D02*
X24407142Y-73976428D01*
X24407142Y-74433571D01*
X24350000Y-74547857D01*
X24292857Y-74605000D01*
X24178571Y-74662142D01*
X24007142Y-74662142D01*
X23892857Y-74605000D01*
X23835714Y-74547857D01*
X23778571Y-74433571D01*
X23778571Y-73976428D01*
X59857142Y-51255000D02*
X61057142Y-51255000D01*
X61057142Y-51712142D01*
X61000000Y-51826428D01*
X60942857Y-51883571D01*
X60828571Y-51940714D01*
X60657142Y-51940714D01*
X60542857Y-51883571D01*
X60485714Y-51826428D01*
X60428571Y-51712142D01*
X60428571Y-51255000D01*
X61057142Y-52340714D02*
X59857142Y-52626428D01*
X60714285Y-52855000D01*
X59857142Y-53083571D01*
X61057142Y-53369285D01*
X59857142Y-54512142D02*
X60428571Y-54112142D01*
X59857142Y-53826428D02*
X61057142Y-53826428D01*
X61057142Y-54283571D01*
X61000000Y-54397857D01*
X60942857Y-54455000D01*
X60828571Y-54512142D01*
X60657142Y-54512142D01*
X60542857Y-54455000D01*
X60485714Y-54397857D01*
X60428571Y-54283571D01*
X60428571Y-53826428D01*
X23207142Y-51255000D02*
X24407142Y-51255000D01*
X24407142Y-51712142D01*
X24350000Y-51826428D01*
X24292857Y-51883571D01*
X24178571Y-51940714D01*
X24007142Y-51940714D01*
X23892857Y-51883571D01*
X23835714Y-51826428D01*
X23778571Y-51712142D01*
X23778571Y-51255000D01*
X24407142Y-52340714D02*
X23207142Y-52626428D01*
X24064285Y-52855000D01*
X23207142Y-53083571D01*
X24407142Y-53369285D01*
X23207142Y-54512142D02*
X23778571Y-54112142D01*
X23207142Y-53826428D02*
X24407142Y-53826428D01*
X24407142Y-54283571D01*
X24350000Y-54397857D01*
X24292857Y-54455000D01*
X24178571Y-54512142D01*
X24007142Y-54512142D01*
X23892857Y-54455000D01*
X23835714Y-54397857D01*
X23778571Y-54283571D01*
X23778571Y-53826428D01*
X59857142Y-31105000D02*
X61057142Y-31105000D01*
X61057142Y-31562142D01*
X61000000Y-31676428D01*
X60942857Y-31733571D01*
X60828571Y-31790714D01*
X60657142Y-31790714D01*
X60542857Y-31733571D01*
X60485714Y-31676428D01*
X60428571Y-31562142D01*
X60428571Y-31105000D01*
X61057142Y-32190714D02*
X59857142Y-32476428D01*
X60714285Y-32705000D01*
X59857142Y-32933571D01*
X61057142Y-33219285D01*
X59857142Y-34362142D02*
X60428571Y-33962142D01*
X59857142Y-33676428D02*
X61057142Y-33676428D01*
X61057142Y-34133571D01*
X61000000Y-34247857D01*
X60942857Y-34305000D01*
X60828571Y-34362142D01*
X60657142Y-34362142D01*
X60542857Y-34305000D01*
X60485714Y-34247857D01*
X60428571Y-34133571D01*
X60428571Y-33676428D01*
D10*
X54100000Y-24766904D02*
X54052380Y-24862142D01*
X54052380Y-25005000D01*
X54100000Y-25147857D01*
X54195238Y-25243095D01*
X54290476Y-25290714D01*
X54480952Y-25338333D01*
X54623809Y-25338333D01*
X54814285Y-25290714D01*
X54909523Y-25243095D01*
X55004761Y-25147857D01*
X55052380Y-25005000D01*
X55052380Y-24909761D01*
X55004761Y-24766904D01*
X54957142Y-24719285D01*
X54623809Y-24719285D01*
X54623809Y-24909761D01*
X55052380Y-24290714D02*
X54052380Y-24290714D01*
X55052380Y-23719285D01*
X54052380Y-23719285D01*
X55052380Y-23243095D02*
X54052380Y-23243095D01*
X54052380Y-23005000D01*
X54100000Y-22862142D01*
X54195238Y-22766904D01*
X54290476Y-22719285D01*
X54480952Y-22671666D01*
X54623809Y-22671666D01*
X54814285Y-22719285D01*
X54909523Y-22766904D01*
X55004761Y-22862142D01*
X55052380Y-23005000D01*
X55052380Y-23243095D01*
X90750000Y-65066904D02*
X90702380Y-65162142D01*
X90702380Y-65305000D01*
X90750000Y-65447857D01*
X90845238Y-65543095D01*
X90940476Y-65590714D01*
X91130952Y-65638333D01*
X91273809Y-65638333D01*
X91464285Y-65590714D01*
X91559523Y-65543095D01*
X91654761Y-65447857D01*
X91702380Y-65305000D01*
X91702380Y-65209761D01*
X91654761Y-65066904D01*
X91607142Y-65019285D01*
X91273809Y-65019285D01*
X91273809Y-65209761D01*
X91702380Y-64590714D02*
X90702380Y-64590714D01*
X91702380Y-64019285D01*
X90702380Y-64019285D01*
X91702380Y-63543095D02*
X90702380Y-63543095D01*
X90702380Y-63305000D01*
X90750000Y-63162142D01*
X90845238Y-63066904D01*
X90940476Y-63019285D01*
X91130952Y-62971666D01*
X91273809Y-62971666D01*
X91464285Y-63019285D01*
X91559523Y-63066904D01*
X91654761Y-63162142D01*
X91702380Y-63305000D01*
X91702380Y-63543095D01*
X54100000Y-65066904D02*
X54052380Y-65162142D01*
X54052380Y-65305000D01*
X54100000Y-65447857D01*
X54195238Y-65543095D01*
X54290476Y-65590714D01*
X54480952Y-65638333D01*
X54623809Y-65638333D01*
X54814285Y-65590714D01*
X54909523Y-65543095D01*
X55004761Y-65447857D01*
X55052380Y-65305000D01*
X55052380Y-65209761D01*
X55004761Y-65066904D01*
X54957142Y-65019285D01*
X54623809Y-65019285D01*
X54623809Y-65209761D01*
X55052380Y-64590714D02*
X54052380Y-64590714D01*
X55052380Y-64019285D01*
X54052380Y-64019285D01*
X55052380Y-63543095D02*
X54052380Y-63543095D01*
X54052380Y-63305000D01*
X54100000Y-63162142D01*
X54195238Y-63066904D01*
X54290476Y-63019285D01*
X54480952Y-62971666D01*
X54623809Y-62971666D01*
X54814285Y-63019285D01*
X54909523Y-63066904D01*
X55004761Y-63162142D01*
X55052380Y-63305000D01*
X55052380Y-63543095D01*
X90750000Y-44916904D02*
X90702380Y-45012142D01*
X90702380Y-45155000D01*
X90750000Y-45297857D01*
X90845238Y-45393095D01*
X90940476Y-45440714D01*
X91130952Y-45488333D01*
X91273809Y-45488333D01*
X91464285Y-45440714D01*
X91559523Y-45393095D01*
X91654761Y-45297857D01*
X91702380Y-45155000D01*
X91702380Y-45059761D01*
X91654761Y-44916904D01*
X91607142Y-44869285D01*
X91273809Y-44869285D01*
X91273809Y-45059761D01*
X91702380Y-44440714D02*
X90702380Y-44440714D01*
X91702380Y-43869285D01*
X90702380Y-43869285D01*
X91702380Y-43393095D02*
X90702380Y-43393095D01*
X90702380Y-43155000D01*
X90750000Y-43012142D01*
X90845238Y-42916904D01*
X90940476Y-42869285D01*
X91130952Y-42821666D01*
X91273809Y-42821666D01*
X91464285Y-42869285D01*
X91559523Y-42916904D01*
X91654761Y-43012142D01*
X91702380Y-43155000D01*
X91702380Y-43393095D01*
X54100000Y-44916904D02*
X54052380Y-45012142D01*
X54052380Y-45155000D01*
X54100000Y-45297857D01*
X54195238Y-45393095D01*
X54290476Y-45440714D01*
X54480952Y-45488333D01*
X54623809Y-45488333D01*
X54814285Y-45440714D01*
X54909523Y-45393095D01*
X55004761Y-45297857D01*
X55052380Y-45155000D01*
X55052380Y-45059761D01*
X55004761Y-44916904D01*
X54957142Y-44869285D01*
X54623809Y-44869285D01*
X54623809Y-45059761D01*
X55052380Y-44440714D02*
X54052380Y-44440714D01*
X55052380Y-43869285D01*
X54052380Y-43869285D01*
X55052380Y-43393095D02*
X54052380Y-43393095D01*
X54052380Y-43155000D01*
X54100000Y-43012142D01*
X54195238Y-42916904D01*
X54290476Y-42869285D01*
X54480952Y-42821666D01*
X54623809Y-42821666D01*
X54814285Y-42869285D01*
X54909523Y-42916904D01*
X55004761Y-43012142D01*
X55052380Y-43155000D01*
X55052380Y-43393095D01*
X90750000Y-24766904D02*
X90702380Y-24862142D01*
X90702380Y-25005000D01*
X90750000Y-25147857D01*
X90845238Y-25243095D01*
X90940476Y-25290714D01*
X91130952Y-25338333D01*
X91273809Y-25338333D01*
X91464285Y-25290714D01*
X91559523Y-25243095D01*
X91654761Y-25147857D01*
X91702380Y-25005000D01*
X91702380Y-24909761D01*
X91654761Y-24766904D01*
X91607142Y-24719285D01*
X91273809Y-24719285D01*
X91273809Y-24909761D01*
X91702380Y-24290714D02*
X90702380Y-24290714D01*
X91702380Y-23719285D01*
X90702380Y-23719285D01*
X91702380Y-23243095D02*
X90702380Y-23243095D01*
X90702380Y-23005000D01*
X90750000Y-22862142D01*
X90845238Y-22766904D01*
X90940476Y-22719285D01*
X91130952Y-22671666D01*
X91273809Y-22671666D01*
X91464285Y-22719285D01*
X91559523Y-22766904D01*
X91654761Y-22862142D01*
X91702380Y-23005000D01*
X91702380Y-23243095D01*
X70930000Y-64405000D02*
X71480000Y-64855000D01*
X34280000Y-44255000D02*
X34830000Y-44705000D01*
X34280000Y-64405000D02*
X34830000Y-64855000D01*
X70930000Y-44255000D02*
X71480000Y-44705000D01*
X34280000Y-24105000D02*
X34830000Y-24555000D01*
X70930000Y-24105000D02*
X71480000Y-24555000D01*
X34280000Y-44255000D02*
X34830000Y-43855000D01*
X34280000Y-64405000D02*
X34830000Y-64005000D01*
X70930000Y-44255000D02*
X71480000Y-43855000D01*
X70930000Y-64405000D02*
X71480000Y-64005000D01*
X70930000Y-24105000D02*
X71480000Y-23705000D01*
X34280000Y-24105000D02*
X34830000Y-23705000D01*
X34830000Y-64005000D02*
X34830000Y-64855000D01*
X71480000Y-64005000D02*
X71480000Y-64855000D01*
X34830000Y-43855000D02*
X34830000Y-44705000D01*
X71480000Y-43855000D02*
X71480000Y-44705000D01*
X34830000Y-23705000D02*
X34830000Y-24555000D01*
X71480000Y-23705000D02*
X71480000Y-24555000D01*
X35930000Y-44255000D02*
X33930000Y-44255000D01*
X72580000Y-44255000D02*
X70580000Y-44255000D01*
X72580000Y-64405000D02*
X70580000Y-64405000D01*
X35930000Y-64405000D02*
X33930000Y-64405000D01*
X35930000Y-24105000D02*
X33930000Y-24105000D01*
X72580000Y-24105000D02*
X70580000Y-24105000D01*
X34180000Y-43855000D02*
X34180000Y-44705000D01*
X70830000Y-64005000D02*
X70830000Y-64855000D01*
X34180000Y-64005000D02*
X34180000Y-64855000D01*
X70830000Y-43855000D02*
X70830000Y-44705000D01*
X70830000Y-23705000D02*
X70830000Y-24555000D01*
X34180000Y-23705000D02*
X34180000Y-24555000D01*
X36526904Y-44692380D02*
X36526904Y-43692380D01*
X36765000Y-43692380D01*
X36907857Y-43740000D01*
X37003095Y-43835238D01*
X37050714Y-43930476D01*
X37098333Y-44120952D01*
X37098333Y-44263809D01*
X37050714Y-44454285D01*
X37003095Y-44549523D01*
X36907857Y-44644761D01*
X36765000Y-44692380D01*
X36526904Y-44692380D01*
X38050714Y-44692380D02*
X37479285Y-44692380D01*
X37765000Y-44692380D02*
X37765000Y-43692380D01*
X37669761Y-43835238D01*
X37574523Y-43930476D01*
X37479285Y-43978095D01*
X68466666Y-52507380D02*
X68466666Y-53221666D01*
X68419047Y-53364523D01*
X68323809Y-53459761D01*
X68180952Y-53507380D01*
X68085714Y-53507380D01*
X68847619Y-52507380D02*
X69466666Y-52507380D01*
X69133333Y-52888333D01*
X69276190Y-52888333D01*
X69371428Y-52935952D01*
X69419047Y-52983571D01*
X69466666Y-53078809D01*
X69466666Y-53316904D01*
X69419047Y-53412142D01*
X69371428Y-53459761D01*
X69276190Y-53507380D01*
X68990476Y-53507380D01*
X68895238Y-53459761D01*
X68847619Y-53412142D01*
X49816666Y-32357380D02*
X49816666Y-33071666D01*
X49769047Y-33214523D01*
X49673809Y-33309761D01*
X49530952Y-33357380D01*
X49435714Y-33357380D01*
X50245238Y-32452619D02*
X50292857Y-32405000D01*
X50388095Y-32357380D01*
X50626190Y-32357380D01*
X50721428Y-32405000D01*
X50769047Y-32452619D01*
X50816666Y-32547857D01*
X50816666Y-32643095D01*
X50769047Y-32785952D01*
X50197619Y-33357380D01*
X50816666Y-33357380D01*
X73176904Y-64842380D02*
X73176904Y-63842380D01*
X73415000Y-63842380D01*
X73557857Y-63890000D01*
X73653095Y-63985238D01*
X73700714Y-64080476D01*
X73748333Y-64270952D01*
X73748333Y-64413809D01*
X73700714Y-64604285D01*
X73653095Y-64699523D01*
X73557857Y-64794761D01*
X73415000Y-64842380D01*
X73176904Y-64842380D01*
X74700714Y-64842380D02*
X74129285Y-64842380D01*
X74415000Y-64842380D02*
X74415000Y-63842380D01*
X74319761Y-63985238D01*
X74224523Y-64080476D01*
X74129285Y-64128095D01*
X73176904Y-44692380D02*
X73176904Y-43692380D01*
X73415000Y-43692380D01*
X73557857Y-43740000D01*
X73653095Y-43835238D01*
X73700714Y-43930476D01*
X73748333Y-44120952D01*
X73748333Y-44263809D01*
X73700714Y-44454285D01*
X73653095Y-44549523D01*
X73557857Y-44644761D01*
X73415000Y-44692380D01*
X73176904Y-44692380D01*
X74700714Y-44692380D02*
X74129285Y-44692380D01*
X74415000Y-44692380D02*
X74415000Y-43692380D01*
X74319761Y-43835238D01*
X74224523Y-43930476D01*
X74129285Y-43978095D01*
X80188333Y-64742380D02*
X79855000Y-64266190D01*
X79616904Y-64742380D02*
X79616904Y-63742380D01*
X79997857Y-63742380D01*
X80093095Y-63790000D01*
X80140714Y-63837619D01*
X80188333Y-63932857D01*
X80188333Y-64075714D01*
X80140714Y-64170952D01*
X80093095Y-64218571D01*
X79997857Y-64266190D01*
X79616904Y-64266190D01*
X81140714Y-64742380D02*
X80569285Y-64742380D01*
X80855000Y-64742380D02*
X80855000Y-63742380D01*
X80759761Y-63885238D01*
X80664523Y-63980476D01*
X80569285Y-64028095D01*
X76438333Y-24532380D02*
X76105000Y-24056190D01*
X75866904Y-24532380D02*
X75866904Y-23532380D01*
X76247857Y-23532380D01*
X76343095Y-23580000D01*
X76390714Y-23627619D01*
X76438333Y-23722857D01*
X76438333Y-23865714D01*
X76390714Y-23960952D01*
X76343095Y-24008571D01*
X76247857Y-24056190D01*
X75866904Y-24056190D01*
X76771666Y-23532380D02*
X77390714Y-23532380D01*
X77057380Y-23913333D01*
X77200238Y-23913333D01*
X77295476Y-23960952D01*
X77343095Y-24008571D01*
X77390714Y-24103809D01*
X77390714Y-24341904D01*
X77343095Y-24437142D01*
X77295476Y-24484761D01*
X77200238Y-24532380D01*
X76914523Y-24532380D01*
X76819285Y-24484761D01*
X76771666Y-24437142D01*
X40354761Y-48002619D02*
X40259523Y-47955000D01*
X40164285Y-47859761D01*
X40021428Y-47716904D01*
X39926190Y-47669285D01*
X39830952Y-47669285D01*
X39878571Y-47907380D02*
X39783333Y-47859761D01*
X39688095Y-47764523D01*
X39640476Y-47574047D01*
X39640476Y-47240714D01*
X39688095Y-47050238D01*
X39783333Y-46955000D01*
X39878571Y-46907380D01*
X40069047Y-46907380D01*
X40164285Y-46955000D01*
X40259523Y-47050238D01*
X40307142Y-47240714D01*
X40307142Y-47574047D01*
X40259523Y-47764523D01*
X40164285Y-47859761D01*
X40069047Y-47907380D01*
X39878571Y-47907380D01*
X41259523Y-47907380D02*
X40688095Y-47907380D01*
X40973809Y-47907380D02*
X40973809Y-46907380D01*
X40878571Y-47050238D01*
X40783333Y-47145476D01*
X40688095Y-47193095D01*
X67248333Y-24542380D02*
X66915000Y-24066190D01*
X66676904Y-24542380D02*
X66676904Y-23542380D01*
X67057857Y-23542380D01*
X67153095Y-23590000D01*
X67200714Y-23637619D01*
X67248333Y-23732857D01*
X67248333Y-23875714D01*
X67200714Y-23970952D01*
X67153095Y-24018571D01*
X67057857Y-24066190D01*
X66676904Y-24066190D01*
X67629285Y-23637619D02*
X67676904Y-23590000D01*
X67772142Y-23542380D01*
X68010238Y-23542380D01*
X68105476Y-23590000D01*
X68153095Y-23637619D01*
X68200714Y-23732857D01*
X68200714Y-23828095D01*
X68153095Y-23970952D01*
X67581666Y-24542380D01*
X68200714Y-24542380D01*
X30598333Y-44692380D02*
X30265000Y-44216190D01*
X30026904Y-44692380D02*
X30026904Y-43692380D01*
X30407857Y-43692380D01*
X30503095Y-43740000D01*
X30550714Y-43787619D01*
X30598333Y-43882857D01*
X30598333Y-44025714D01*
X30550714Y-44120952D01*
X30503095Y-44168571D01*
X30407857Y-44216190D01*
X30026904Y-44216190D01*
X30979285Y-43787619D02*
X31026904Y-43740000D01*
X31122142Y-43692380D01*
X31360238Y-43692380D01*
X31455476Y-43740000D01*
X31503095Y-43787619D01*
X31550714Y-43882857D01*
X31550714Y-43978095D01*
X31503095Y-44120952D01*
X30931666Y-44692380D01*
X31550714Y-44692380D01*
X49816666Y-52507380D02*
X49816666Y-53221666D01*
X49769047Y-53364523D01*
X49673809Y-53459761D01*
X49530952Y-53507380D01*
X49435714Y-53507380D01*
X50245238Y-52602619D02*
X50292857Y-52555000D01*
X50388095Y-52507380D01*
X50626190Y-52507380D01*
X50721428Y-52555000D01*
X50769047Y-52602619D01*
X50816666Y-52697857D01*
X50816666Y-52793095D01*
X50769047Y-52935952D01*
X50197619Y-53507380D01*
X50816666Y-53507380D01*
X67248333Y-64842380D02*
X66915000Y-64366190D01*
X66676904Y-64842380D02*
X66676904Y-63842380D01*
X67057857Y-63842380D01*
X67153095Y-63890000D01*
X67200714Y-63937619D01*
X67248333Y-64032857D01*
X67248333Y-64175714D01*
X67200714Y-64270952D01*
X67153095Y-64318571D01*
X67057857Y-64366190D01*
X66676904Y-64366190D01*
X67629285Y-63937619D02*
X67676904Y-63890000D01*
X67772142Y-63842380D01*
X68010238Y-63842380D01*
X68105476Y-63890000D01*
X68153095Y-63937619D01*
X68200714Y-64032857D01*
X68200714Y-64128095D01*
X68153095Y-64270952D01*
X67581666Y-64842380D01*
X68200714Y-64842380D01*
X77004761Y-48002619D02*
X76909523Y-47955000D01*
X76814285Y-47859761D01*
X76671428Y-47716904D01*
X76576190Y-47669285D01*
X76480952Y-47669285D01*
X76528571Y-47907380D02*
X76433333Y-47859761D01*
X76338095Y-47764523D01*
X76290476Y-47574047D01*
X76290476Y-47240714D01*
X76338095Y-47050238D01*
X76433333Y-46955000D01*
X76528571Y-46907380D01*
X76719047Y-46907380D01*
X76814285Y-46955000D01*
X76909523Y-47050238D01*
X76957142Y-47240714D01*
X76957142Y-47574047D01*
X76909523Y-47764523D01*
X76814285Y-47859761D01*
X76719047Y-47907380D01*
X76528571Y-47907380D01*
X77909523Y-47907380D02*
X77338095Y-47907380D01*
X77623809Y-47907380D02*
X77623809Y-46907380D01*
X77528571Y-47050238D01*
X77433333Y-47145476D01*
X77338095Y-47193095D01*
X43538333Y-24442380D02*
X43205000Y-23966190D01*
X42966904Y-24442380D02*
X42966904Y-23442380D01*
X43347857Y-23442380D01*
X43443095Y-23490000D01*
X43490714Y-23537619D01*
X43538333Y-23632857D01*
X43538333Y-23775714D01*
X43490714Y-23870952D01*
X43443095Y-23918571D01*
X43347857Y-23966190D01*
X42966904Y-23966190D01*
X44490714Y-24442380D02*
X43919285Y-24442380D01*
X44205000Y-24442380D02*
X44205000Y-23442380D01*
X44109761Y-23585238D01*
X44014523Y-23680476D01*
X43919285Y-23728095D01*
X86466666Y-72657380D02*
X86466666Y-73371666D01*
X86419047Y-73514523D01*
X86323809Y-73609761D01*
X86180952Y-73657380D01*
X86085714Y-73657380D01*
X86895238Y-72752619D02*
X86942857Y-72705000D01*
X87038095Y-72657380D01*
X87276190Y-72657380D01*
X87371428Y-72705000D01*
X87419047Y-72752619D01*
X87466666Y-72847857D01*
X87466666Y-72943095D01*
X87419047Y-73085952D01*
X86847619Y-73657380D01*
X87466666Y-73657380D01*
X43538333Y-64742380D02*
X43205000Y-64266190D01*
X42966904Y-64742380D02*
X42966904Y-63742380D01*
X43347857Y-63742380D01*
X43443095Y-63790000D01*
X43490714Y-63837619D01*
X43538333Y-63932857D01*
X43538333Y-64075714D01*
X43490714Y-64170952D01*
X43443095Y-64218571D01*
X43347857Y-64266190D01*
X42966904Y-64266190D01*
X44490714Y-64742380D02*
X43919285Y-64742380D01*
X44205000Y-64742380D02*
X44205000Y-63742380D01*
X44109761Y-63885238D01*
X44014523Y-63980476D01*
X43919285Y-64028095D01*
X39788333Y-64832380D02*
X39455000Y-64356190D01*
X39216904Y-64832380D02*
X39216904Y-63832380D01*
X39597857Y-63832380D01*
X39693095Y-63880000D01*
X39740714Y-63927619D01*
X39788333Y-64022857D01*
X39788333Y-64165714D01*
X39740714Y-64260952D01*
X39693095Y-64308571D01*
X39597857Y-64356190D01*
X39216904Y-64356190D01*
X40121666Y-63832380D02*
X40740714Y-63832380D01*
X40407380Y-64213333D01*
X40550238Y-64213333D01*
X40645476Y-64260952D01*
X40693095Y-64308571D01*
X40740714Y-64403809D01*
X40740714Y-64641904D01*
X40693095Y-64737142D01*
X40645476Y-64784761D01*
X40550238Y-64832380D01*
X40264523Y-64832380D01*
X40169285Y-64784761D01*
X40121666Y-64737142D01*
X77004761Y-27852619D02*
X76909523Y-27805000D01*
X76814285Y-27709761D01*
X76671428Y-27566904D01*
X76576190Y-27519285D01*
X76480952Y-27519285D01*
X76528571Y-27757380D02*
X76433333Y-27709761D01*
X76338095Y-27614523D01*
X76290476Y-27424047D01*
X76290476Y-27090714D01*
X76338095Y-26900238D01*
X76433333Y-26805000D01*
X76528571Y-26757380D01*
X76719047Y-26757380D01*
X76814285Y-26805000D01*
X76909523Y-26900238D01*
X76957142Y-27090714D01*
X76957142Y-27424047D01*
X76909523Y-27614523D01*
X76814285Y-27709761D01*
X76719047Y-27757380D01*
X76528571Y-27757380D01*
X77909523Y-27757380D02*
X77338095Y-27757380D01*
X77623809Y-27757380D02*
X77623809Y-26757380D01*
X77528571Y-26900238D01*
X77433333Y-26995476D01*
X77338095Y-27043095D01*
X86466666Y-32357380D02*
X86466666Y-33071666D01*
X86419047Y-33214523D01*
X86323809Y-33309761D01*
X86180952Y-33357380D01*
X86085714Y-33357380D01*
X86895238Y-32452619D02*
X86942857Y-32405000D01*
X87038095Y-32357380D01*
X87276190Y-32357380D01*
X87371428Y-32405000D01*
X87419047Y-32452619D01*
X87466666Y-32547857D01*
X87466666Y-32643095D01*
X87419047Y-32785952D01*
X86847619Y-33357380D01*
X87466666Y-33357380D01*
X68466666Y-32357380D02*
X68466666Y-33071666D01*
X68419047Y-33214523D01*
X68323809Y-33309761D01*
X68180952Y-33357380D01*
X68085714Y-33357380D01*
X68847619Y-32357380D02*
X69466666Y-32357380D01*
X69133333Y-32738333D01*
X69276190Y-32738333D01*
X69371428Y-32785952D01*
X69419047Y-32833571D01*
X69466666Y-32928809D01*
X69466666Y-33166904D01*
X69419047Y-33262142D01*
X69371428Y-33309761D01*
X69276190Y-33357380D01*
X68990476Y-33357380D01*
X68895238Y-33309761D01*
X68847619Y-33262142D01*
X36526904Y-64842380D02*
X36526904Y-63842380D01*
X36765000Y-63842380D01*
X36907857Y-63890000D01*
X37003095Y-63985238D01*
X37050714Y-64080476D01*
X37098333Y-64270952D01*
X37098333Y-64413809D01*
X37050714Y-64604285D01*
X37003095Y-64699523D01*
X36907857Y-64794761D01*
X36765000Y-64842380D01*
X36526904Y-64842380D01*
X38050714Y-64842380D02*
X37479285Y-64842380D01*
X37765000Y-64842380D02*
X37765000Y-63842380D01*
X37669761Y-63985238D01*
X37574523Y-64080476D01*
X37479285Y-64128095D01*
X36526904Y-24542380D02*
X36526904Y-23542380D01*
X36765000Y-23542380D01*
X36907857Y-23590000D01*
X37003095Y-23685238D01*
X37050714Y-23780476D01*
X37098333Y-23970952D01*
X37098333Y-24113809D01*
X37050714Y-24304285D01*
X37003095Y-24399523D01*
X36907857Y-24494761D01*
X36765000Y-24542380D01*
X36526904Y-24542380D01*
X38050714Y-24542380D02*
X37479285Y-24542380D01*
X37765000Y-24542380D02*
X37765000Y-23542380D01*
X37669761Y-23685238D01*
X37574523Y-23780476D01*
X37479285Y-23828095D01*
X80188333Y-44592380D02*
X79855000Y-44116190D01*
X79616904Y-44592380D02*
X79616904Y-43592380D01*
X79997857Y-43592380D01*
X80093095Y-43640000D01*
X80140714Y-43687619D01*
X80188333Y-43782857D01*
X80188333Y-43925714D01*
X80140714Y-44020952D01*
X80093095Y-44068571D01*
X79997857Y-44116190D01*
X79616904Y-44116190D01*
X81140714Y-44592380D02*
X80569285Y-44592380D01*
X80855000Y-44592380D02*
X80855000Y-43592380D01*
X80759761Y-43735238D01*
X80664523Y-43830476D01*
X80569285Y-43878095D01*
X76438333Y-64832380D02*
X76105000Y-64356190D01*
X75866904Y-64832380D02*
X75866904Y-63832380D01*
X76247857Y-63832380D01*
X76343095Y-63880000D01*
X76390714Y-63927619D01*
X76438333Y-64022857D01*
X76438333Y-64165714D01*
X76390714Y-64260952D01*
X76343095Y-64308571D01*
X76247857Y-64356190D01*
X75866904Y-64356190D01*
X76771666Y-63832380D02*
X77390714Y-63832380D01*
X77057380Y-64213333D01*
X77200238Y-64213333D01*
X77295476Y-64260952D01*
X77343095Y-64308571D01*
X77390714Y-64403809D01*
X77390714Y-64641904D01*
X77343095Y-64737142D01*
X77295476Y-64784761D01*
X77200238Y-64832380D01*
X76914523Y-64832380D01*
X76819285Y-64784761D01*
X76771666Y-64737142D01*
X49816666Y-72657380D02*
X49816666Y-73371666D01*
X49769047Y-73514523D01*
X49673809Y-73609761D01*
X49530952Y-73657380D01*
X49435714Y-73657380D01*
X50245238Y-72752619D02*
X50292857Y-72705000D01*
X50388095Y-72657380D01*
X50626190Y-72657380D01*
X50721428Y-72705000D01*
X50769047Y-72752619D01*
X50816666Y-72847857D01*
X50816666Y-72943095D01*
X50769047Y-73085952D01*
X50197619Y-73657380D01*
X50816666Y-73657380D01*
X67248333Y-44692380D02*
X66915000Y-44216190D01*
X66676904Y-44692380D02*
X66676904Y-43692380D01*
X67057857Y-43692380D01*
X67153095Y-43740000D01*
X67200714Y-43787619D01*
X67248333Y-43882857D01*
X67248333Y-44025714D01*
X67200714Y-44120952D01*
X67153095Y-44168571D01*
X67057857Y-44216190D01*
X66676904Y-44216190D01*
X67629285Y-43787619D02*
X67676904Y-43740000D01*
X67772142Y-43692380D01*
X68010238Y-43692380D01*
X68105476Y-43740000D01*
X68153095Y-43787619D01*
X68200714Y-43882857D01*
X68200714Y-43978095D01*
X68153095Y-44120952D01*
X67581666Y-44692380D01*
X68200714Y-44692380D01*
X31816666Y-52507380D02*
X31816666Y-53221666D01*
X31769047Y-53364523D01*
X31673809Y-53459761D01*
X31530952Y-53507380D01*
X31435714Y-53507380D01*
X32197619Y-52507380D02*
X32816666Y-52507380D01*
X32483333Y-52888333D01*
X32626190Y-52888333D01*
X32721428Y-52935952D01*
X32769047Y-52983571D01*
X32816666Y-53078809D01*
X32816666Y-53316904D01*
X32769047Y-53412142D01*
X32721428Y-53459761D01*
X32626190Y-53507380D01*
X32340476Y-53507380D01*
X32245238Y-53459761D01*
X32197619Y-53412142D01*
X31816666Y-72657380D02*
X31816666Y-73371666D01*
X31769047Y-73514523D01*
X31673809Y-73609761D01*
X31530952Y-73657380D01*
X31435714Y-73657380D01*
X32197619Y-72657380D02*
X32816666Y-72657380D01*
X32483333Y-73038333D01*
X32626190Y-73038333D01*
X32721428Y-73085952D01*
X32769047Y-73133571D01*
X32816666Y-73228809D01*
X32816666Y-73466904D01*
X32769047Y-73562142D01*
X32721428Y-73609761D01*
X32626190Y-73657380D01*
X32340476Y-73657380D01*
X32245238Y-73609761D01*
X32197619Y-73562142D01*
X68466666Y-72657380D02*
X68466666Y-73371666D01*
X68419047Y-73514523D01*
X68323809Y-73609761D01*
X68180952Y-73657380D01*
X68085714Y-73657380D01*
X68847619Y-72657380D02*
X69466666Y-72657380D01*
X69133333Y-73038333D01*
X69276190Y-73038333D01*
X69371428Y-73085952D01*
X69419047Y-73133571D01*
X69466666Y-73228809D01*
X69466666Y-73466904D01*
X69419047Y-73562142D01*
X69371428Y-73609761D01*
X69276190Y-73657380D01*
X68990476Y-73657380D01*
X68895238Y-73609761D01*
X68847619Y-73562142D01*
X30598333Y-24542380D02*
X30265000Y-24066190D01*
X30026904Y-24542380D02*
X30026904Y-23542380D01*
X30407857Y-23542380D01*
X30503095Y-23590000D01*
X30550714Y-23637619D01*
X30598333Y-23732857D01*
X30598333Y-23875714D01*
X30550714Y-23970952D01*
X30503095Y-24018571D01*
X30407857Y-24066190D01*
X30026904Y-24066190D01*
X30979285Y-23637619D02*
X31026904Y-23590000D01*
X31122142Y-23542380D01*
X31360238Y-23542380D01*
X31455476Y-23590000D01*
X31503095Y-23637619D01*
X31550714Y-23732857D01*
X31550714Y-23828095D01*
X31503095Y-23970952D01*
X30931666Y-24542380D01*
X31550714Y-24542380D01*
X73176904Y-24542380D02*
X73176904Y-23542380D01*
X73415000Y-23542380D01*
X73557857Y-23590000D01*
X73653095Y-23685238D01*
X73700714Y-23780476D01*
X73748333Y-23970952D01*
X73748333Y-24113809D01*
X73700714Y-24304285D01*
X73653095Y-24399523D01*
X73557857Y-24494761D01*
X73415000Y-24542380D01*
X73176904Y-24542380D01*
X74700714Y-24542380D02*
X74129285Y-24542380D01*
X74415000Y-24542380D02*
X74415000Y-23542380D01*
X74319761Y-23685238D01*
X74224523Y-23780476D01*
X74129285Y-23828095D01*
X39788333Y-24532380D02*
X39455000Y-24056190D01*
X39216904Y-24532380D02*
X39216904Y-23532380D01*
X39597857Y-23532380D01*
X39693095Y-23580000D01*
X39740714Y-23627619D01*
X39788333Y-23722857D01*
X39788333Y-23865714D01*
X39740714Y-23960952D01*
X39693095Y-24008571D01*
X39597857Y-24056190D01*
X39216904Y-24056190D01*
X40121666Y-23532380D02*
X40740714Y-23532380D01*
X40407380Y-23913333D01*
X40550238Y-23913333D01*
X40645476Y-23960952D01*
X40693095Y-24008571D01*
X40740714Y-24103809D01*
X40740714Y-24341904D01*
X40693095Y-24437142D01*
X40645476Y-24484761D01*
X40550238Y-24532380D01*
X40264523Y-24532380D01*
X40169285Y-24484761D01*
X40121666Y-24437142D01*
X40354761Y-27852619D02*
X40259523Y-27805000D01*
X40164285Y-27709761D01*
X40021428Y-27566904D01*
X39926190Y-27519285D01*
X39830952Y-27519285D01*
X39878571Y-27757380D02*
X39783333Y-27709761D01*
X39688095Y-27614523D01*
X39640476Y-27424047D01*
X39640476Y-27090714D01*
X39688095Y-26900238D01*
X39783333Y-26805000D01*
X39878571Y-26757380D01*
X40069047Y-26757380D01*
X40164285Y-26805000D01*
X40259523Y-26900238D01*
X40307142Y-27090714D01*
X40307142Y-27424047D01*
X40259523Y-27614523D01*
X40164285Y-27709761D01*
X40069047Y-27757380D01*
X39878571Y-27757380D01*
X41259523Y-27757380D02*
X40688095Y-27757380D01*
X40973809Y-27757380D02*
X40973809Y-26757380D01*
X40878571Y-26900238D01*
X40783333Y-26995476D01*
X40688095Y-27043095D01*
X39788333Y-44682380D02*
X39455000Y-44206190D01*
X39216904Y-44682380D02*
X39216904Y-43682380D01*
X39597857Y-43682380D01*
X39693095Y-43730000D01*
X39740714Y-43777619D01*
X39788333Y-43872857D01*
X39788333Y-44015714D01*
X39740714Y-44110952D01*
X39693095Y-44158571D01*
X39597857Y-44206190D01*
X39216904Y-44206190D01*
X40121666Y-43682380D02*
X40740714Y-43682380D01*
X40407380Y-44063333D01*
X40550238Y-44063333D01*
X40645476Y-44110952D01*
X40693095Y-44158571D01*
X40740714Y-44253809D01*
X40740714Y-44491904D01*
X40693095Y-44587142D01*
X40645476Y-44634761D01*
X40550238Y-44682380D01*
X40264523Y-44682380D01*
X40169285Y-44634761D01*
X40121666Y-44587142D01*
X80188333Y-24442380D02*
X79855000Y-23966190D01*
X79616904Y-24442380D02*
X79616904Y-23442380D01*
X79997857Y-23442380D01*
X80093095Y-23490000D01*
X80140714Y-23537619D01*
X80188333Y-23632857D01*
X80188333Y-23775714D01*
X80140714Y-23870952D01*
X80093095Y-23918571D01*
X79997857Y-23966190D01*
X79616904Y-23966190D01*
X81140714Y-24442380D02*
X80569285Y-24442380D01*
X80855000Y-24442380D02*
X80855000Y-23442380D01*
X80759761Y-23585238D01*
X80664523Y-23680476D01*
X80569285Y-23728095D01*
X31816666Y-32357380D02*
X31816666Y-33071666D01*
X31769047Y-33214523D01*
X31673809Y-33309761D01*
X31530952Y-33357380D01*
X31435714Y-33357380D01*
X32197619Y-32357380D02*
X32816666Y-32357380D01*
X32483333Y-32738333D01*
X32626190Y-32738333D01*
X32721428Y-32785952D01*
X32769047Y-32833571D01*
X32816666Y-32928809D01*
X32816666Y-33166904D01*
X32769047Y-33262142D01*
X32721428Y-33309761D01*
X32626190Y-33357380D01*
X32340476Y-33357380D01*
X32245238Y-33309761D01*
X32197619Y-33262142D01*
X76438333Y-44682380D02*
X76105000Y-44206190D01*
X75866904Y-44682380D02*
X75866904Y-43682380D01*
X76247857Y-43682380D01*
X76343095Y-43730000D01*
X76390714Y-43777619D01*
X76438333Y-43872857D01*
X76438333Y-44015714D01*
X76390714Y-44110952D01*
X76343095Y-44158571D01*
X76247857Y-44206190D01*
X75866904Y-44206190D01*
X76771666Y-43682380D02*
X77390714Y-43682380D01*
X77057380Y-44063333D01*
X77200238Y-44063333D01*
X77295476Y-44110952D01*
X77343095Y-44158571D01*
X77390714Y-44253809D01*
X77390714Y-44491904D01*
X77343095Y-44587142D01*
X77295476Y-44634761D01*
X77200238Y-44682380D01*
X76914523Y-44682380D01*
X76819285Y-44634761D01*
X76771666Y-44587142D01*
X77004761Y-68152619D02*
X76909523Y-68105000D01*
X76814285Y-68009761D01*
X76671428Y-67866904D01*
X76576190Y-67819285D01*
X76480952Y-67819285D01*
X76528571Y-68057380D02*
X76433333Y-68009761D01*
X76338095Y-67914523D01*
X76290476Y-67724047D01*
X76290476Y-67390714D01*
X76338095Y-67200238D01*
X76433333Y-67105000D01*
X76528571Y-67057380D01*
X76719047Y-67057380D01*
X76814285Y-67105000D01*
X76909523Y-67200238D01*
X76957142Y-67390714D01*
X76957142Y-67724047D01*
X76909523Y-67914523D01*
X76814285Y-68009761D01*
X76719047Y-68057380D01*
X76528571Y-68057380D01*
X77909523Y-68057380D02*
X77338095Y-68057380D01*
X77623809Y-68057380D02*
X77623809Y-67057380D01*
X77528571Y-67200238D01*
X77433333Y-67295476D01*
X77338095Y-67343095D01*
X86466666Y-52507380D02*
X86466666Y-53221666D01*
X86419047Y-53364523D01*
X86323809Y-53459761D01*
X86180952Y-53507380D01*
X86085714Y-53507380D01*
X86895238Y-52602619D02*
X86942857Y-52555000D01*
X87038095Y-52507380D01*
X87276190Y-52507380D01*
X87371428Y-52555000D01*
X87419047Y-52602619D01*
X87466666Y-52697857D01*
X87466666Y-52793095D01*
X87419047Y-52935952D01*
X86847619Y-53507380D01*
X87466666Y-53507380D01*
X40354761Y-68152619D02*
X40259523Y-68105000D01*
X40164285Y-68009761D01*
X40021428Y-67866904D01*
X39926190Y-67819285D01*
X39830952Y-67819285D01*
X39878571Y-68057380D02*
X39783333Y-68009761D01*
X39688095Y-67914523D01*
X39640476Y-67724047D01*
X39640476Y-67390714D01*
X39688095Y-67200238D01*
X39783333Y-67105000D01*
X39878571Y-67057380D01*
X40069047Y-67057380D01*
X40164285Y-67105000D01*
X40259523Y-67200238D01*
X40307142Y-67390714D01*
X40307142Y-67724047D01*
X40259523Y-67914523D01*
X40164285Y-68009761D01*
X40069047Y-68057380D01*
X39878571Y-68057380D01*
X41259523Y-68057380D02*
X40688095Y-68057380D01*
X40973809Y-68057380D02*
X40973809Y-67057380D01*
X40878571Y-67200238D01*
X40783333Y-67295476D01*
X40688095Y-67343095D01*
X43538333Y-44592380D02*
X43205000Y-44116190D01*
X42966904Y-44592380D02*
X42966904Y-43592380D01*
X43347857Y-43592380D01*
X43443095Y-43640000D01*
X43490714Y-43687619D01*
X43538333Y-43782857D01*
X43538333Y-43925714D01*
X43490714Y-44020952D01*
X43443095Y-44068571D01*
X43347857Y-44116190D01*
X42966904Y-44116190D01*
X44490714Y-44592380D02*
X43919285Y-44592380D01*
X44205000Y-44592380D02*
X44205000Y-43592380D01*
X44109761Y-43735238D01*
X44014523Y-43830476D01*
X43919285Y-43878095D01*
X30598333Y-64842380D02*
X30265000Y-64366190D01*
X30026904Y-64842380D02*
X30026904Y-63842380D01*
X30407857Y-63842380D01*
X30503095Y-63890000D01*
X30550714Y-63937619D01*
X30598333Y-64032857D01*
X30598333Y-64175714D01*
X30550714Y-64270952D01*
X30503095Y-64318571D01*
X30407857Y-64366190D01*
X30026904Y-64366190D01*
X30979285Y-63937619D02*
X31026904Y-63890000D01*
X31122142Y-63842380D01*
X31360238Y-63842380D01*
X31455476Y-63890000D01*
X31503095Y-63937619D01*
X31550714Y-64032857D01*
X31550714Y-64128095D01*
X31503095Y-64270952D01*
X30931666Y-64842380D01*
X31550714Y-64842380D01*
D13*
X34170000Y-45020000D02*
X34170000Y-46490000D01*
X36455000Y-45020000D02*
X34170000Y-45020000D01*
X34170000Y-46490000D02*
X36455000Y-46490000D01*
X74777001Y-47848000D02*
X63797000Y-47848000D01*
X63797000Y-58262000D02*
X74777001Y-58262000D01*
X74777001Y-58262000D02*
X74777001Y-47848000D01*
X71036000Y-50515000D02*
G75*
G03*
X71036000Y-50515000I-381000J0D01*
G01*
X44122999Y-38072000D02*
X55103000Y-38072000D01*
X55103000Y-27658000D02*
X44122999Y-27658000D01*
X44122999Y-27658000D02*
X44122999Y-38072000D01*
X48626000Y-35405000D02*
G75*
G03*
X48626000Y-35405000I-381000J0D01*
G01*
X70820000Y-65170000D02*
X70820000Y-66640000D01*
X73105000Y-65170000D02*
X70820000Y-65170000D01*
X70820000Y-66640000D02*
X73105000Y-66640000D01*
X70820000Y-45020000D02*
X70820000Y-46490000D01*
X70820000Y-46490000D02*
X73105000Y-46490000D01*
X73105000Y-45020000D02*
X70820000Y-45020000D01*
X80582258Y-66427500D02*
X80107742Y-66427500D01*
X80582258Y-65382500D02*
X80107742Y-65382500D01*
X50645000Y-25335000D02*
X50645000Y-22675000D01*
X50645000Y-22675000D02*
X53245000Y-22675000D01*
X48045000Y-25335000D02*
X48045000Y-24005000D01*
X53245000Y-25335000D02*
X53245000Y-22675000D01*
X49375000Y-25335000D02*
X48045000Y-25335000D01*
X50645000Y-25335000D02*
X53245000Y-25335000D01*
X76367742Y-26127500D02*
X76842258Y-26127500D01*
X76367742Y-25082500D02*
X76842258Y-25082500D01*
X50645000Y-62975000D02*
X53245000Y-62975000D01*
X50645000Y-65635000D02*
X53245000Y-65635000D01*
X53245000Y-65635000D02*
X53245000Y-62975000D01*
X50645000Y-65635000D02*
X50645000Y-62975000D01*
X48045000Y-65635000D02*
X48045000Y-64305000D01*
X49375000Y-65635000D02*
X48045000Y-65635000D01*
X42060000Y-48675000D02*
X42060000Y-58915000D01*
X43570000Y-48675000D02*
X43570000Y-58915000D01*
X38929000Y-48675000D02*
X38929000Y-58915000D01*
X43570000Y-55646000D02*
X42060000Y-55646000D01*
X43570000Y-48675000D02*
X38929000Y-48675000D01*
X43570000Y-58915000D02*
X38929000Y-58915000D01*
X43570000Y-51945000D02*
X42060000Y-51945000D01*
X67642258Y-26127500D02*
X67167742Y-26127500D01*
X67642258Y-25082500D02*
X67167742Y-25082500D01*
X30992258Y-46277500D02*
X30517742Y-46277500D01*
X30992258Y-45232500D02*
X30517742Y-45232500D01*
X55103000Y-47808000D02*
X44122999Y-47808000D01*
X44122999Y-47808000D02*
X44122999Y-58222000D01*
X44122999Y-58222000D02*
X55103000Y-58222000D01*
X48626000Y-55555000D02*
G75*
G03*
X48626000Y-55555000I-381000J0D01*
G01*
X67642258Y-66427500D02*
X67167742Y-66427500D01*
X67642258Y-65382500D02*
X67167742Y-65382500D01*
X80220000Y-55646000D02*
X78710000Y-55646000D01*
X80220000Y-48675000D02*
X75579000Y-48675000D01*
X80220000Y-48675000D02*
X80220000Y-58915000D01*
X75579000Y-48675000D02*
X75579000Y-58915000D01*
X78710000Y-48675000D02*
X78710000Y-58915000D01*
X80220000Y-58915000D02*
X75579000Y-58915000D01*
X80220000Y-51945000D02*
X78710000Y-51945000D01*
X87295000Y-65635000D02*
X89895000Y-65635000D01*
X84695000Y-65635000D02*
X84695000Y-64305000D01*
X87295000Y-62975000D02*
X89895000Y-62975000D01*
X87295000Y-65635000D02*
X87295000Y-62975000D01*
X89895000Y-65635000D02*
X89895000Y-62975000D01*
X86025000Y-65635000D02*
X84695000Y-65635000D01*
X43932258Y-26127500D02*
X43457742Y-26127500D01*
X43932258Y-25082500D02*
X43457742Y-25082500D01*
X80772999Y-67958000D02*
X80772999Y-78372000D01*
X91753000Y-67958000D02*
X80772999Y-67958000D01*
X80772999Y-78372000D02*
X91753000Y-78372000D01*
X85276000Y-75705000D02*
G75*
G03*
X85276000Y-75705000I-381000J0D01*
G01*
X43932258Y-66427500D02*
X43457742Y-66427500D01*
X43932258Y-65382500D02*
X43457742Y-65382500D01*
X39717742Y-66427500D02*
X40192258Y-66427500D01*
X39717742Y-65382500D02*
X40192258Y-65382500D01*
X78710000Y-28525000D02*
X78710000Y-38765000D01*
X80220000Y-38765000D02*
X75579000Y-38765000D01*
X80220000Y-31795000D02*
X78710000Y-31795000D01*
X80220000Y-35496000D02*
X78710000Y-35496000D01*
X80220000Y-28525000D02*
X80220000Y-38765000D01*
X75579000Y-28525000D02*
X75579000Y-38765000D01*
X80220000Y-28525000D02*
X75579000Y-28525000D01*
X80772999Y-38072000D02*
X91753000Y-38072000D01*
X91753000Y-27658000D02*
X80772999Y-27658000D01*
X80772999Y-27658000D02*
X80772999Y-38072000D01*
X85276000Y-35405000D02*
G75*
G03*
X85276000Y-35405000I-381000J0D01*
G01*
X74777001Y-38112000D02*
X74777001Y-27698000D01*
X74777001Y-27698000D02*
X63797000Y-27698000D01*
X63797000Y-38112000D02*
X74777001Y-38112000D01*
X71036000Y-30365000D02*
G75*
G03*
X71036000Y-30365000I-381000J0D01*
G01*
X34170000Y-66640000D02*
X36455000Y-66640000D01*
X34170000Y-65170000D02*
X34170000Y-66640000D01*
X36455000Y-65170000D02*
X34170000Y-65170000D01*
X36455000Y-24870000D02*
X34170000Y-24870000D01*
X34170000Y-26340000D02*
X36455000Y-26340000D01*
X34170000Y-24870000D02*
X34170000Y-26340000D01*
X80582258Y-46277500D02*
X80107742Y-46277500D01*
X80582258Y-45232500D02*
X80107742Y-45232500D01*
X76367742Y-65382500D02*
X76842258Y-65382500D01*
X76367742Y-66427500D02*
X76842258Y-66427500D01*
X50645000Y-45485000D02*
X53245000Y-45485000D01*
X48045000Y-45485000D02*
X48045000Y-44155000D01*
X50645000Y-42825000D02*
X53245000Y-42825000D01*
X53245000Y-45485000D02*
X53245000Y-42825000D01*
X49375000Y-45485000D02*
X48045000Y-45485000D01*
X50645000Y-45485000D02*
X50645000Y-42825000D01*
X87295000Y-42825000D02*
X89895000Y-42825000D01*
X86025000Y-45485000D02*
X84695000Y-45485000D01*
X84695000Y-45485000D02*
X84695000Y-44155000D01*
X87295000Y-45485000D02*
X87295000Y-42825000D01*
X87295000Y-45485000D02*
X89895000Y-45485000D01*
X89895000Y-45485000D02*
X89895000Y-42825000D01*
X55103000Y-67958000D02*
X44122999Y-67958000D01*
X44122999Y-67958000D02*
X44122999Y-78372000D01*
X44122999Y-78372000D02*
X55103000Y-78372000D01*
X48626000Y-75705000D02*
G75*
G03*
X48626000Y-75705000I-381000J0D01*
G01*
X67642258Y-45232500D02*
X67167742Y-45232500D01*
X67642258Y-46277500D02*
X67167742Y-46277500D01*
X38127001Y-47848000D02*
X27147000Y-47848000D01*
X38127001Y-58262000D02*
X38127001Y-47848000D01*
X27147000Y-58262000D02*
X38127001Y-58262000D01*
X34386000Y-50515000D02*
G75*
G03*
X34386000Y-50515000I-381000J0D01*
G01*
X27147000Y-78412000D02*
X38127001Y-78412000D01*
X38127001Y-67998000D02*
X27147000Y-67998000D01*
X38127001Y-78412000D02*
X38127001Y-67998000D01*
X34386000Y-70665000D02*
G75*
G03*
X34386000Y-70665000I-381000J0D01*
G01*
X84695000Y-25335000D02*
X84695000Y-24005000D01*
X87295000Y-22675000D02*
X89895000Y-22675000D01*
X86025000Y-25335000D02*
X84695000Y-25335000D01*
X87295000Y-25335000D02*
X89895000Y-25335000D01*
X89895000Y-25335000D02*
X89895000Y-22675000D01*
X87295000Y-25335000D02*
X87295000Y-22675000D01*
X74777001Y-67998000D02*
X63797000Y-67998000D01*
X74777001Y-78412000D02*
X74777001Y-67998000D01*
X63797000Y-78412000D02*
X74777001Y-78412000D01*
X71036000Y-70665000D02*
G75*
G03*
X71036000Y-70665000I-381000J0D01*
G01*
X30992258Y-25082500D02*
X30517742Y-25082500D01*
X30992258Y-26127500D02*
X30517742Y-26127500D01*
X70820000Y-24870000D02*
X70820000Y-26340000D01*
X73105000Y-24870000D02*
X70820000Y-24870000D01*
X70820000Y-26340000D02*
X73105000Y-26340000D01*
X39717742Y-26127500D02*
X40192258Y-26127500D01*
X39717742Y-25082500D02*
X40192258Y-25082500D01*
X43570000Y-31795000D02*
X42060000Y-31795000D01*
X43570000Y-28525000D02*
X43570000Y-38765000D01*
X43570000Y-35496000D02*
X42060000Y-35496000D01*
X43570000Y-38765000D02*
X38929000Y-38765000D01*
X38929000Y-28525000D02*
X38929000Y-38765000D01*
X43570000Y-28525000D02*
X38929000Y-28525000D01*
X42060000Y-28525000D02*
X42060000Y-38765000D01*
X39717742Y-45232500D02*
X40192258Y-45232500D01*
X39717742Y-46277500D02*
X40192258Y-46277500D01*
X80582258Y-26127500D02*
X80107742Y-26127500D01*
X80582258Y-25082500D02*
X80107742Y-25082500D01*
X38127001Y-27698000D02*
X27147000Y-27698000D01*
X38127001Y-38112000D02*
X38127001Y-27698000D01*
X27147000Y-38112000D02*
X38127001Y-38112000D01*
X34386000Y-30365000D02*
G75*
G03*
X34386000Y-30365000I-381000J0D01*
G01*
X76367742Y-45232500D02*
X76842258Y-45232500D01*
X76367742Y-46277500D02*
X76842258Y-46277500D01*
X80220000Y-68825000D02*
X75579000Y-68825000D01*
X80220000Y-68825000D02*
X80220000Y-79065000D01*
X80220000Y-79065000D02*
X75579000Y-79065000D01*
X75579000Y-68825000D02*
X75579000Y-79065000D01*
X80220000Y-72095000D02*
X78710000Y-72095000D01*
X78710000Y-68825000D02*
X78710000Y-79065000D01*
X80220000Y-75796000D02*
X78710000Y-75796000D01*
X80772999Y-47808000D02*
X80772999Y-58222000D01*
X80772999Y-58222000D02*
X91753000Y-58222000D01*
X91753000Y-47808000D02*
X80772999Y-47808000D01*
X85276000Y-55555000D02*
G75*
G03*
X85276000Y-55555000I-381000J0D01*
G01*
X43570000Y-68825000D02*
X38929000Y-68825000D01*
X43570000Y-68825000D02*
X43570000Y-79065000D01*
X43570000Y-72095000D02*
X42060000Y-72095000D01*
X38929000Y-68825000D02*
X38929000Y-79065000D01*
X43570000Y-75796000D02*
X42060000Y-75796000D01*
X42060000Y-68825000D02*
X42060000Y-79065000D01*
X43570000Y-79065000D02*
X38929000Y-79065000D01*
X43932258Y-45232500D02*
X43457742Y-45232500D01*
X43932258Y-46277500D02*
X43457742Y-46277500D01*
X30992258Y-66427500D02*
X30517742Y-66427500D01*
X30992258Y-65382500D02*
X30517742Y-65382500D01*
%LPC*%
D14*
X22000000Y-15500000D03*
X22002801Y-71879999D03*
X22001895Y-28580000D03*
X84084999Y-62303802D03*
D15*
X34867500Y-45755000D03*
X36442500Y-45755000D03*
D14*
X35216666Y-59303045D03*
D16*
X68750012Y-50514990D03*
X68750012Y-55594990D03*
D14*
X15500000Y-79460000D03*
X66865000Y-42158801D03*
X32216666Y-59303499D03*
X34216666Y-79456803D03*
X22000000Y-19500000D03*
X79085000Y-62303046D03*
X84084999Y-39158801D03*
X58648104Y-68880000D03*
X67865000Y-62301349D03*
X58647499Y-50730000D03*
X47433333Y-59301197D03*
X66865000Y-62301198D03*
X79085000Y-42156953D03*
X67865000Y-39156348D03*
D16*
X50149988Y-35405010D03*
X50149988Y-30325010D03*
D17*
X23800002Y-57554998D03*
D14*
X92305000Y-82960000D03*
X36216666Y-62302104D03*
X31216666Y-42158651D03*
D15*
X71517500Y-65905000D03*
X73092500Y-65905000D03*
D14*
X55646594Y-67880000D03*
X55648406Y-33579999D03*
X55646592Y-47730000D03*
X22001593Y-27580000D03*
X79085000Y-22003046D03*
X92305000Y-16500000D03*
X55646896Y-28580000D03*
X82084999Y-59301500D03*
X58648406Y-27580000D03*
X81085000Y-59301651D03*
X44433333Y-22003348D03*
X92305000Y-15500000D03*
X71864999Y-39156953D03*
X66865000Y-59303802D03*
X22003103Y-32579999D03*
X41433333Y-42157105D03*
X44433333Y-59301651D03*
X34216666Y-42158197D03*
X55646594Y-27580000D03*
X45433333Y-62303499D03*
X83084999Y-59301349D03*
X31216666Y-59303650D03*
X22002802Y-51729999D03*
D17*
X60450002Y-64054988D03*
D14*
X33216666Y-59303348D03*
X66865000Y-22001198D03*
X18500000Y-22000000D03*
X55646896Y-68880000D03*
X69865000Y-59303348D03*
D15*
X71517500Y-45755000D03*
X73092500Y-45755000D03*
D14*
X72864999Y-59302895D03*
X46433333Y-62303650D03*
X31216666Y-79456349D03*
D18*
X81170000Y-65905000D03*
X79520000Y-65905000D03*
D14*
X22003407Y-53729999D03*
D19*
X49375000Y-24005000D03*
D20*
X51915009Y-24005008D03*
D21*
X75780000Y-25605000D03*
X77430000Y-25605000D03*
D14*
X81085000Y-39158348D03*
X41433333Y-22002894D03*
X81085000Y-42156651D03*
D19*
X49375000Y-64305000D03*
D20*
X51915009Y-64305008D03*
D14*
X72864999Y-62302105D03*
X78085000Y-22002895D03*
X82084999Y-62303500D03*
X70864999Y-79456802D03*
X94805000Y-79460000D03*
X70864999Y-39156802D03*
X47433333Y-62303802D03*
X19500000Y-79460000D03*
X30216666Y-22001197D03*
D22*
X40300000Y-51255000D03*
D23*
X40299995Y-53794994D03*
X40299995Y-56334994D03*
D14*
X78085000Y-62302895D03*
X72864999Y-42157894D03*
X55647802Y-71879999D03*
X58646594Y-33579999D03*
X92301594Y-53729999D03*
X84084999Y-59301198D03*
D18*
X68230000Y-25605000D03*
X66580000Y-25605000D03*
D14*
X45433333Y-79458500D03*
X43433333Y-22003196D03*
X33216666Y-62301651D03*
X41433333Y-79457895D03*
D17*
X23800002Y-23754988D03*
D14*
X22003405Y-33579999D03*
X92305000Y-85960000D03*
X46433333Y-42156349D03*
X98805000Y-22000000D03*
D18*
X31580000Y-45755000D03*
X29930000Y-45755000D03*
D14*
X98805000Y-79460000D03*
D17*
X23800002Y-77704998D03*
D14*
X69865000Y-79456651D03*
X43433333Y-39158197D03*
X84084999Y-79458801D03*
X55647198Y-69880000D03*
X58648405Y-47730000D03*
X58646592Y-53729999D03*
D17*
X23800002Y-43904988D03*
D14*
X96805000Y-79460000D03*
X66865000Y-39156197D03*
X58647801Y-49730000D03*
X35216666Y-79456954D03*
X36216666Y-59302894D03*
X30216666Y-79456197D03*
D16*
X50149988Y-55555010D03*
X50149988Y-50475010D03*
D14*
X80085000Y-79458196D03*
X58647500Y-30580000D03*
X79085000Y-79458045D03*
X92301593Y-73879999D03*
X81085000Y-79458348D03*
X41433333Y-59302104D03*
X83084999Y-42156348D03*
X55647500Y-30580000D03*
X68865000Y-59303500D03*
X43433333Y-42156803D03*
D18*
X68230000Y-65905000D03*
X66580000Y-65905000D03*
D14*
X22001896Y-48730000D03*
D22*
X76950000Y-51255000D03*
D23*
X76949995Y-53794994D03*
X76949995Y-56334994D03*
D14*
X80085000Y-42156802D03*
X22002801Y-31579999D03*
D19*
X86025000Y-64305000D03*
D20*
X88565009Y-64305008D03*
D17*
X23800002Y-64054988D03*
D14*
X58648103Y-48730000D03*
X71864999Y-42158045D03*
X82084999Y-39158499D03*
X22002500Y-50730000D03*
X32216666Y-42158500D03*
X92301593Y-33579999D03*
X32216666Y-22001499D03*
X58647802Y-29580000D03*
X55646894Y-48730000D03*
X92302499Y-70880000D03*
D18*
X44520000Y-25605000D03*
X42870000Y-25605000D03*
D14*
X46433333Y-59301348D03*
X55647801Y-51729999D03*
X55648406Y-73879999D03*
D17*
X60450002Y-43904988D03*
D14*
X15500000Y-22000000D03*
X41433333Y-62302894D03*
X70864999Y-59303197D03*
X42433333Y-39158046D03*
X30216666Y-42158802D03*
X16500000Y-22000000D03*
D16*
X86799988Y-75705010D03*
X86799988Y-70625010D03*
D18*
X44520000Y-65905000D03*
X42870000Y-65905000D03*
D14*
X83084999Y-39158650D03*
X22002499Y-70880000D03*
X32216666Y-39156500D03*
X35216666Y-39156954D03*
D21*
X39130000Y-65905000D03*
X40780000Y-65905000D03*
D14*
X17500000Y-22000000D03*
X30216666Y-62301197D03*
X82084999Y-22003500D03*
X92305000Y-84960000D03*
D22*
X76950000Y-31105000D03*
D23*
X76949995Y-33644994D03*
X76949995Y-36184994D03*
D14*
X70864999Y-62301803D03*
X36216666Y-79457105D03*
X67865000Y-42158650D03*
X92303105Y-48730000D03*
X92302500Y-50730000D03*
X92303103Y-28580000D03*
X92305000Y-81960000D03*
X67865000Y-59303651D03*
X30216666Y-39156197D03*
X35216666Y-62301953D03*
X92303103Y-68880000D03*
X55648104Y-72879999D03*
X67865000Y-22001349D03*
D16*
X86799988Y-35405010D03*
X86799988Y-30325010D03*
D17*
X60450002Y-77704998D03*
D14*
X31216666Y-62301348D03*
X82084999Y-79458499D03*
D16*
X68750012Y-30364990D03*
X68750012Y-35444990D03*
D14*
X30216666Y-59303802D03*
X78085000Y-42157104D03*
X44433333Y-39158348D03*
X22003105Y-52729999D03*
X96805000Y-22000000D03*
X32216666Y-79456500D03*
X68865000Y-79456499D03*
X58647198Y-71879999D03*
X22003405Y-73879999D03*
X78085000Y-39157894D03*
X33216666Y-42158348D03*
X36216666Y-39157105D03*
X35216666Y-42158046D03*
X43433333Y-59301802D03*
X92302801Y-29580000D03*
D15*
X34867500Y-65905000D03*
X36442500Y-65905000D03*
D14*
X34216666Y-22001802D03*
X68865000Y-42158499D03*
X83084999Y-22003651D03*
X92302499Y-30580000D03*
D15*
X34867500Y-25605000D03*
X36442500Y-25605000D03*
D14*
X34216666Y-62301802D03*
X55647500Y-70880000D03*
X92302197Y-31579999D03*
X58647198Y-31579999D03*
D18*
X81170000Y-45755000D03*
X79520000Y-45755000D03*
D14*
X22002197Y-29580000D03*
X66865000Y-79456197D03*
X71864999Y-79456953D03*
X33216666Y-39156651D03*
X79085000Y-39158045D03*
X80085000Y-59301803D03*
D17*
X60450002Y-37404998D03*
D14*
X83084999Y-62303651D03*
D21*
X75780000Y-65905000D03*
X77430000Y-65905000D03*
D19*
X49375000Y-44155000D03*
D20*
X51915009Y-44155008D03*
D14*
X22000000Y-85960000D03*
X22000000Y-83960000D03*
D19*
X86025000Y-44155000D03*
D20*
X88565009Y-44155008D03*
D14*
X46433333Y-39158651D03*
X55647198Y-29580000D03*
X92303405Y-27580000D03*
D16*
X50149988Y-75705010D03*
X50149988Y-70625010D03*
D14*
X81085000Y-62303348D03*
X92303405Y-67880000D03*
X36216666Y-22002104D03*
X92302198Y-51729999D03*
X22000000Y-18500000D03*
X55648405Y-53729999D03*
X22003103Y-72879999D03*
X44433333Y-42156651D03*
X79085000Y-59301954D03*
X83084999Y-79458650D03*
D18*
X68230000Y-45755000D03*
X66580000Y-45755000D03*
D14*
X72864999Y-79457104D03*
X22002499Y-30580000D03*
X69865000Y-39156651D03*
D17*
X60450002Y-23754988D03*
D14*
X58648104Y-28580000D03*
X71864999Y-22001954D03*
X92305000Y-19500000D03*
D16*
X32100012Y-50514990D03*
X32100012Y-55594990D03*
D14*
X22002198Y-49730000D03*
X42433333Y-42156954D03*
X58647500Y-70880000D03*
X41433333Y-39157895D03*
X78085000Y-59302105D03*
X45433333Y-39158500D03*
X69865000Y-22001651D03*
X55647499Y-50730000D03*
D16*
X32100012Y-70664990D03*
X32100012Y-75744990D03*
D19*
X86025000Y-24005000D03*
D20*
X88565009Y-24005008D03*
D14*
X92303407Y-47730000D03*
X92301895Y-32579999D03*
X45433333Y-42156500D03*
X92305000Y-18500000D03*
D16*
X68750012Y-70664990D03*
X68750012Y-75744990D03*
D14*
X68865000Y-62301500D03*
X22000000Y-16500000D03*
X80085000Y-62303197D03*
X34216666Y-59303196D03*
X44433333Y-79458348D03*
X42433333Y-59301953D03*
X17500000Y-79460000D03*
X92305000Y-83960000D03*
X33216666Y-79456651D03*
X84084999Y-22003802D03*
X58647197Y-51729999D03*
D18*
X31580000Y-25605000D03*
X29930000Y-25605000D03*
D14*
X80085000Y-22003197D03*
X71864999Y-59303046D03*
X92302197Y-71879999D03*
X22000000Y-17500000D03*
X97805000Y-79460000D03*
X36216666Y-42157895D03*
X45433333Y-22003499D03*
X72864999Y-39157104D03*
X71864999Y-62301954D03*
X42433333Y-62303045D03*
X69865000Y-62301651D03*
X95805000Y-79460000D03*
X22000000Y-82960000D03*
X92305000Y-17500000D03*
X58646896Y-32579999D03*
X44433333Y-62303348D03*
X84084999Y-42156197D03*
X78085000Y-79457894D03*
D15*
X71517500Y-25605000D03*
X73092500Y-25605000D03*
D14*
X92302801Y-69880000D03*
X46433333Y-22003650D03*
X22001895Y-68880000D03*
X47433333Y-22003802D03*
X69865000Y-42158348D03*
X22002197Y-69880000D03*
X43433333Y-79458197D03*
X35216666Y-22001953D03*
D21*
X39130000Y-25605000D03*
X40780000Y-25605000D03*
D14*
X33216666Y-22001651D03*
X32216666Y-62301499D03*
X58646894Y-52729999D03*
X80085000Y-39158196D03*
X68865000Y-22001500D03*
D22*
X40300000Y-31105000D03*
D23*
X40299995Y-33644994D03*
X40299995Y-36184994D03*
D21*
X39130000Y-45755000D03*
X40780000Y-45755000D03*
D18*
X81170000Y-25605000D03*
X79520000Y-25605000D03*
D14*
X31216666Y-39156349D03*
X22000000Y-81960000D03*
X94805000Y-22000000D03*
X68865000Y-39156499D03*
X55647802Y-31579999D03*
X42433333Y-79458046D03*
X55647197Y-49730000D03*
X82084999Y-42156499D03*
D16*
X32100012Y-30364990D03*
X32100012Y-35444990D03*
D14*
X55648104Y-32579999D03*
X92301896Y-52729999D03*
X92301895Y-72879999D03*
D17*
X23800002Y-37404998D03*
D14*
X43433333Y-62303196D03*
D21*
X75780000Y-45755000D03*
X77430000Y-45755000D03*
D22*
X76950000Y-71405000D03*
D23*
X76949995Y-73944994D03*
X76949995Y-76484994D03*
D16*
X86799988Y-55555010D03*
X86799988Y-50475010D03*
D14*
X34216666Y-39156803D03*
X55648103Y-52729999D03*
D17*
X60450002Y-57554998D03*
D14*
X19500000Y-22000000D03*
D22*
X40300000Y-71405000D03*
D23*
X40299995Y-73944994D03*
X40299995Y-76484994D03*
D14*
X92302802Y-49730000D03*
X95805000Y-22000000D03*
X70864999Y-22001803D03*
X58648406Y-67880000D03*
D18*
X44520000Y-45755000D03*
X42870000Y-45755000D03*
D14*
X47433333Y-39158802D03*
X42433333Y-22003045D03*
X22001593Y-67880000D03*
X31216666Y-22001348D03*
X67865000Y-79456348D03*
X81085000Y-22003348D03*
X45433333Y-59301499D03*
X72864999Y-22002105D03*
X58646896Y-72879999D03*
D18*
X31580000Y-65905000D03*
X29930000Y-65905000D03*
D14*
X58647802Y-69880000D03*
X47433333Y-42156197D03*
X47433333Y-79458802D03*
X58646594Y-73879999D03*
X46433333Y-79458651D03*
X22000000Y-84960000D03*
X18500000Y-79460000D03*
X70864999Y-42158196D03*
X16500000Y-79460000D03*
X97805000Y-22000000D03*
X22001594Y-47730000D03*
M02*
