M48
; DRILL file {KiCad (6.0.5)} date Sun Jun  5 15:57:24 2022
; FORMAT={-:-/ absolute / metric / decimal}
; #@! TF.CreationDate,2022-06-05T15:57:24-07:00
; #@! TF.GenerationSoftware,Kicad,Pcbnew,(6.0.5)
; #@! TF.FileFunction,Plated,1,2,PTH
FMAT,2
METRIC
; #@! TA.AperFunction,Plated,PTH,ViaDrill
T1C0.400
; #@! TA.AperFunction,Plated,PTH,ComponentDrill
T2C1.000
; #@! TA.AperFunction,Plated,PTH,ComponentDrill
T3C1.100
; #@! TA.AperFunction,Plated,PTH,ComponentDrill
T4C1.397
; #@! TA.AperFunction,Plated,PTH,ComponentDrill
T5C2.032
%
G90
G05
T1
X25.25Y-30.605
X25.25Y-50.755
X25.25Y-70.905
X33.15Y-24.605
X33.15Y-44.755
X33.15Y-64.905
X54.5Y-26.255
X54.5Y-46.405
X54.5Y-66.555
X61.9Y-30.605
X61.9Y-50.755
X61.9Y-70.905
X69.8Y-24.605
X69.8Y-44.755
X69.8Y-64.905
X91.15Y-26.255
X91.15Y-46.405
X91.15Y-66.555
T2
X49.375Y-24.005
X49.375Y-44.155
X49.375Y-64.305
X51.915Y-24.005
X51.915Y-44.155
X51.915Y-64.305
X86.025Y-24.005
X86.025Y-44.155
X86.025Y-64.305
X88.565Y-24.005
X88.565Y-44.155
X88.565Y-64.305
T3
X40.3Y-33.645
X40.3Y-36.185
X40.3Y-53.795
X40.3Y-56.335
X40.3Y-73.945
X40.3Y-76.485
X40.3Y-31.105
X40.3Y-51.255
X40.3Y-71.405
X76.95Y-33.645
X76.95Y-36.185
X76.95Y-53.795
X76.95Y-56.335
X76.95Y-73.945
X76.95Y-76.485
X76.95Y-31.105
X76.95Y-51.255
X76.95Y-71.405
T4
X32.1Y-30.365
X32.1Y-35.445
X32.1Y-50.515
X32.1Y-55.595
X32.1Y-70.665
X32.1Y-75.745
X50.15Y-30.325
X50.15Y-35.405
X50.15Y-50.475
X50.15Y-55.555
X50.15Y-70.625
X50.15Y-75.705
X68.75Y-30.365
X68.75Y-35.445
X68.75Y-50.515
X68.75Y-55.595
X68.75Y-70.665
X68.75Y-75.745
X86.8Y-30.325
X86.8Y-35.405
X86.8Y-50.475
X86.8Y-55.555
X86.8Y-70.625
X86.8Y-75.705
T5
X23.8Y-23.755
X23.8Y-37.405
X23.8Y-43.905
X23.8Y-57.555
X23.8Y-64.055
X23.8Y-77.705
X60.45Y-23.755
X60.45Y-37.405
X60.45Y-43.905
X60.45Y-57.555
X60.45Y-64.055
X60.45Y-77.705
T0
M30
