%TF.GenerationSoftware,KiCad,Pcbnew,(6.0.5)*%
%TF.CreationDate,2022-06-05T15:56:59-07:00*%
%TF.ProjectId,mosfet_chip_panel,6d6f7366-6574-45f6-9368-69705f70616e,rev?*%
%TF.SameCoordinates,Original*%
%TF.FileFunction,Profile,NP*%
%FSLAX46Y46*%
G04 Gerber Fmt 4.6, Leading zero omitted, Abs format (unit mm)*
G04 Created by KiCad (PCBNEW (6.0.5)) date 2022-06-05 15:56:59*
%MOMM*%
%LPD*%
G01*
G04 APERTURE LIST*
%TA.AperFunction,Profile*%
%ADD10C,0.100000*%
%TD*%
G04 APERTURE END LIST*
D10*
X92331179Y-53979205D02*
X92344148Y-53932386D01*
X29726693Y-42158877D02*
X22377356Y-42159989D01*
X20892963Y-20004770D02*
X20941423Y-20001195D01*
X46963005Y-20749450D02*
X46975965Y-20702619D01*
X47074158Y-21522792D02*
X47050211Y-21480516D01*
X78555322Y-60051607D02*
X78565970Y-60099022D01*
X57849622Y-33099032D02*
X57897041Y-33109683D01*
X35811719Y-20566721D02*
X35833567Y-20523318D01*
X21836603Y-53669831D02*
X21862603Y-53710871D01*
X30521803Y-59704086D02*
X30549787Y-59743816D01*
X41493346Y-20166847D02*
X41533073Y-20194826D01*
X55721894Y-67769062D02*
X55704399Y-67723739D01*
X93412036Y-33084770D02*
X93460262Y-33090718D01*
X78468121Y-41633819D02*
X78444175Y-41676094D01*
X41922613Y-60146902D02*
X41928562Y-60195133D01*
X78468077Y-59825457D02*
X78489928Y-59868863D01*
X66423721Y-79457325D02*
X66472176Y-79460907D01*
X93648519Y-48172125D02*
X93602380Y-48187368D01*
X72589763Y-79819080D02*
X72621507Y-79782285D01*
X72976248Y-42082501D02*
X72931819Y-42062812D01*
X41088461Y-62292121D02*
X41040230Y-62298063D01*
X47050211Y-61780516D02*
X47028368Y-61737116D01*
X67307125Y-20656480D02*
X67322368Y-20702619D01*
X92526273Y-33441822D02*
X92558012Y-33405040D01*
X30235542Y-62160322D02*
X30193257Y-62184270D01*
X20019025Y-80663138D02*
X20010718Y-80615262D01*
X78018375Y-39252919D02*
X78061772Y-39274769D01*
X83627640Y-80161468D02*
X83642885Y-80115325D01*
X78018180Y-59397187D02*
X78061590Y-59419031D01*
X30193348Y-20116900D02*
X30235626Y-20140851D01*
X78468077Y-61779543D02*
X78444122Y-61821825D01*
X66615427Y-62271482D02*
X66568010Y-62282123D01*
X46952358Y-20796861D02*
X46963005Y-20749450D01*
X29775098Y-62299934D02*
X29726394Y-62301122D01*
X58590601Y-27423739D02*
X58573106Y-27469062D01*
X55691116Y-74082851D02*
X55706350Y-74036700D01*
X93781681Y-27963099D02*
X93738278Y-27984946D01*
X55527632Y-79396474D02*
X55551150Y-79377265D01*
X72369769Y-61409207D02*
X72366195Y-61360751D01*
X46991196Y-59957633D02*
X47008681Y-59912302D01*
X93555549Y-81430328D02*
X93508138Y-81440974D01*
X83585000Y-60291246D02*
X83586195Y-60242551D01*
X30060076Y-62243288D02*
X30013931Y-62258526D01*
X78580228Y-60195133D02*
X78583804Y-60243598D01*
X67039900Y-39412637D02*
X67075086Y-39446142D01*
X58125153Y-27963143D02*
X58081757Y-27984982D01*
X55638275Y-79237222D02*
X55645114Y-79207636D01*
X47158055Y-81098047D02*
X47128160Y-81059740D01*
X21984478Y-54026604D02*
X21992797Y-54074469D01*
X56169847Y-68263143D02*
X56127574Y-68239201D01*
X58321389Y-53486554D02*
X58356583Y-53520072D01*
X35774529Y-59959331D02*
X35792014Y-59913999D01*
X92663499Y-53454638D02*
X92701803Y-53424754D01*
X46991196Y-21347365D02*
X46975957Y-21301230D01*
X35717862Y-41216402D02*
X35716666Y-41167698D01*
X58824612Y-62332711D02*
X58785249Y-62354559D01*
X21973819Y-33829205D02*
X21984476Y-33876604D01*
X66374877Y-81460000D02*
X47923456Y-81460000D01*
X78527125Y-80803519D02*
X78509637Y-80848855D01*
X73354972Y-22002179D02*
X73306278Y-22000977D01*
X55365194Y-59304291D02*
X55388124Y-59302338D01*
X57656323Y-33080000D02*
X57705032Y-33081195D01*
X20361952Y-53454721D02*
X20400259Y-53424826D01*
X55551150Y-62382734D02*
X55527224Y-62363225D01*
X30426753Y-39446143D02*
X30460253Y-39481334D01*
X78259782Y-59558586D02*
X78294980Y-59592093D01*
X29919676Y-21982122D02*
X29871795Y-21990424D01*
X41322188Y-20075362D02*
X41366611Y-20095053D01*
X56493264Y-73390722D02*
X56541499Y-73384771D01*
X56491211Y-68369285D02*
X56443344Y-68360981D01*
X67198121Y-21561183D02*
X67170136Y-21600913D01*
X30391508Y-20256460D02*
X30426700Y-20289966D01*
X58356585Y-73670072D02*
X58390092Y-73705276D01*
X15356513Y-86224768D02*
X15375464Y-86240321D01*
X66568267Y-79475174D02*
X66615672Y-79485825D01*
X72531847Y-81020012D02*
X72505851Y-80978960D01*
X41903661Y-20749450D02*
X41914307Y-20796861D01*
X30697641Y-80663138D02*
X30686994Y-80710549D01*
X47544374Y-59376528D02*
X47589703Y-59359036D01*
X83585000Y-20990122D02*
X83586195Y-20941423D01*
X67140319Y-39518126D02*
X67170209Y-39556431D01*
X72440362Y-20611144D02*
X72460053Y-20566721D01*
X72369771Y-80350132D02*
X72375720Y-80301902D01*
X30391508Y-81203539D02*
X30354714Y-81235278D01*
X41571445Y-39382596D02*
X41608233Y-39414334D01*
X20941423Y-20001195D02*
X20990122Y-20000000D01*
X47682906Y-79488518D02*
X47730323Y-79477877D01*
X83947017Y-79683544D02*
X83985330Y-79653650D01*
X22232483Y-22012929D02*
X22188564Y-22026709D01*
X72407640Y-39859771D02*
X72422885Y-39813628D01*
X67039782Y-59560284D02*
X67074980Y-59593790D01*
X46934528Y-60242550D02*
X46938102Y-60194095D01*
X47028368Y-21437116D02*
X47008681Y-21392697D01*
X78489946Y-80893278D02*
X78468099Y-80936681D01*
X73209871Y-79467877D02*
X73258103Y-79461935D01*
X56541498Y-53234771D02*
X56589967Y-53231195D01*
X35883483Y-61862145D02*
X35857491Y-61821095D01*
X67365000Y-61311001D02*
X67363804Y-61359705D01*
X41676919Y-39483031D02*
X41708652Y-39519824D01*
X22160981Y-79420588D02*
X22188564Y-79433290D01*
X22160981Y-22039411D02*
X22134826Y-22054838D01*
X78565978Y-39954699D02*
X78574283Y-40002571D01*
X30235711Y-39297025D02*
X30276757Y-39323023D01*
X55971709Y-27823633D02*
X55936518Y-27790139D01*
X22134826Y-42204838D02*
X22110365Y-42222832D01*
X78259900Y-79714334D02*
X78295086Y-79747839D01*
X47295351Y-79683545D02*
X47333664Y-79653651D01*
X15628871Y-86388014D02*
X15709568Y-86416577D01*
X41040509Y-39162604D02*
X41088730Y-39168559D01*
X47028404Y-39725560D02*
X47050256Y-39682154D01*
X36283291Y-21907079D02*
X36239894Y-21885229D01*
X67224175Y-39637207D02*
X67248121Y-39679483D01*
X20656480Y-48172125D02*
X20611144Y-48154637D01*
X73161732Y-21983128D02*
X73114327Y-21972476D01*
X67074980Y-21711210D02*
X67039782Y-21744716D01*
X41816432Y-20523318D02*
X41838280Y-20566721D01*
X92496377Y-73780116D02*
X92526273Y-73741822D01*
X92096717Y-59288741D02*
X92124927Y-59277500D01*
X22098849Y-59227265D02*
X22122775Y-59246774D01*
X47295351Y-41931455D02*
X47258550Y-41899716D01*
X47923306Y-62303876D02*
X47874611Y-62302673D01*
X41766454Y-61862879D02*
X41738470Y-61902609D01*
X41875470Y-39814331D02*
X41890709Y-39860466D01*
X83751816Y-61863843D02*
X83725824Y-61822792D01*
X21984476Y-33876604D02*
X21992795Y-33924469D01*
X36609629Y-81455229D02*
X36561403Y-81449281D01*
X47100212Y-39598817D02*
X47128196Y-39559087D01*
X78222982Y-21778152D02*
X78184669Y-21808047D01*
X93555549Y-20029671D02*
X93602380Y-20042631D01*
X66708630Y-79514036D02*
X66753959Y-79531528D01*
X94303804Y-34021423D02*
X94305000Y-34070122D01*
X46963011Y-41406696D02*
X46952362Y-41359280D01*
X58749225Y-39077604D02*
X58772775Y-39096774D01*
X29919676Y-59322876D02*
X29967093Y-59333517D01*
X36116997Y-41963046D02*
X36078684Y-41933152D01*
X47777936Y-62293138D02*
X47730065Y-62284825D01*
X55649291Y-42439805D02*
X55645114Y-42402363D01*
X66708519Y-81402125D02*
X66662380Y-81417368D01*
X36419285Y-20042631D02*
X36466117Y-20029671D01*
X30711895Y-21108168D02*
X30705946Y-21156399D01*
X58839034Y-59283478D02*
X58867290Y-59293136D01*
X47635835Y-21961208D02*
X47589703Y-21945962D01*
X72365000Y-41167697D02*
X72365000Y-40147301D01*
X58571170Y-73991351D02*
X58588651Y-74036700D01*
X55502291Y-79413206D02*
X55527632Y-79396474D01*
X84066124Y-39299676D02*
X84108409Y-39275728D01*
X84477963Y-81455229D02*
X84429737Y-81449281D01*
X77594727Y-22002821D02*
X73354972Y-22002179D01*
X58529640Y-53753500D02*
X58551483Y-53796916D01*
X73021369Y-62244266D02*
X72976040Y-62226774D01*
X20892963Y-53234770D02*
X20941423Y-53231195D01*
X83586195Y-61362449D02*
X83585000Y-61313754D01*
X92870199Y-68284910D02*
X92826789Y-68263055D01*
X55551150Y-79377265D02*
X55572604Y-79355774D01*
X72654913Y-62012160D02*
X72621413Y-61976969D01*
X58646446Y-34070421D02*
X58645006Y-38848085D01*
X56304972Y-53287896D02*
X56351119Y-53272648D01*
X73355122Y-81460000D02*
X73306423Y-81458804D01*
X67365000Y-41168753D02*
X67363804Y-41217448D01*
X73257823Y-21997395D02*
X73209603Y-21991441D01*
X83779790Y-61903568D02*
X83751816Y-61863843D01*
X20941423Y-53231195D02*
X20990122Y-53230000D01*
X78328539Y-20325158D02*
X78360278Y-20361952D01*
X92628608Y-68123445D02*
X92593414Y-68089927D01*
X84108318Y-20116900D02*
X84151721Y-20095053D01*
X41184005Y-79487523D02*
X41230830Y-79500488D01*
X94209946Y-53796721D02*
X94229637Y-53841144D01*
X72726887Y-21777404D02*
X72690099Y-21745665D01*
X41914304Y-60099021D02*
X41922613Y-60146902D01*
X94262368Y-27377380D02*
X94247125Y-27423519D01*
X72460035Y-61735419D02*
X72440347Y-61691000D01*
X36609769Y-42153064D02*
X36561538Y-42147122D01*
X94300229Y-74272963D02*
X94303804Y-74321423D01*
X35811701Y-61735419D02*
X35792014Y-61690999D01*
X55608206Y-39007291D02*
X55622288Y-38980387D01*
X57849620Y-53249032D02*
X57897039Y-53259683D01*
X15698160Y-15047194D02*
X15617206Y-15076495D01*
X84429603Y-21993138D02*
X84381732Y-21984825D01*
X83985330Y-39353650D02*
X84025064Y-39325671D01*
X21960850Y-33782386D02*
X21973819Y-33829205D01*
X66568010Y-59322876D02*
X66615427Y-59333518D01*
X22231990Y-42163044D02*
X22203282Y-42171258D01*
X30658803Y-39812634D02*
X30674042Y-39858769D01*
X93738278Y-27984946D02*
X93693855Y-28004637D01*
X36283485Y-79552187D02*
X36327915Y-79532498D01*
X21678290Y-33336366D02*
X21713481Y-33369860D01*
X84287735Y-39201472D02*
X84334572Y-39188517D01*
X20042631Y-80757380D02*
X20029671Y-80710549D01*
X77643431Y-62301632D02*
X77594727Y-62302821D01*
X94080278Y-33441952D02*
X94110173Y-33480259D01*
X20844737Y-20010718D02*
X20892963Y-20004770D01*
X84574972Y-62303876D02*
X84526278Y-62302674D01*
X36373256Y-42099986D02*
X36327915Y-42082501D01*
X73021590Y-42099985D02*
X72976248Y-42082501D01*
X92398516Y-47663083D02*
X92378831Y-47618648D01*
X78360236Y-61940919D02*
X78328492Y-61977714D01*
X73067502Y-59345488D02*
X73114327Y-59332523D01*
X55903014Y-68054959D02*
X55871275Y-68018177D01*
X67170173Y-20400259D02*
X67198152Y-20439987D01*
X58588649Y-53886700D02*
X58603883Y-53932851D01*
X22058225Y-79332224D02*
X22088208Y-79367149D01*
X29775388Y-39157326D02*
X29823843Y-39160907D01*
X83680071Y-80025559D02*
X83701922Y-79982153D01*
X55343829Y-62304999D02*
X47923306Y-62303876D01*
X20892963Y-68375229D02*
X20844737Y-68369281D01*
X41922613Y-61458096D02*
X41914304Y-61505977D01*
X35792028Y-80848855D02*
X35774540Y-80803519D01*
X94305000Y-74370122D02*
X94305000Y-80469877D01*
X92559909Y-47904723D02*
X92528170Y-47867917D01*
X30549850Y-41718843D02*
X30521875Y-41758568D01*
X78061590Y-59419031D02*
X78103875Y-59442980D01*
X83910158Y-81203539D02*
X83874966Y-81170033D01*
X15076495Y-85842793D02*
X15118462Y-85931469D01*
X56259630Y-33155390D02*
X56304973Y-33137896D01*
X94188099Y-33603318D02*
X94209946Y-33646721D01*
X21806723Y-27679597D02*
X21776829Y-27717917D01*
X21745092Y-47904723D02*
X21711585Y-47939927D01*
X56257660Y-68304666D02*
X56213244Y-68284982D01*
X36373256Y-39215014D02*
X36419402Y-39199776D01*
X36283388Y-20095053D02*
X36327811Y-20075362D01*
X72845955Y-59443722D02*
X72888227Y-59419770D01*
X78184740Y-20194826D02*
X78223047Y-20224721D01*
X47189793Y-81134841D02*
X47158055Y-81098047D01*
X78542359Y-60004771D02*
X78555322Y-60051607D01*
X92741526Y-53396785D02*
X92782574Y-53370798D01*
X78390209Y-41756870D02*
X78360319Y-41795175D01*
X58323291Y-47973633D02*
X58286500Y-48005361D01*
X58684411Y-79294018D02*
X58708225Y-79332224D01*
X58079798Y-53325089D02*
X58123208Y-53346944D01*
X92053135Y-42159974D02*
X92004067Y-42155138D01*
X15817049Y-15017413D02*
X15793005Y-15022196D01*
X22003757Y-38827077D02*
X22000721Y-38870695D01*
X58666422Y-38952197D02*
X58677499Y-38979927D01*
X36419402Y-39199776D02*
X36466239Y-39186821D01*
X67140236Y-61939221D02*
X67108492Y-61976017D01*
X72531878Y-39597119D02*
X72559863Y-39557389D01*
X66924935Y-62134328D02*
X66883875Y-62160323D01*
X72422863Y-59959331D02*
X72440347Y-59914000D01*
X41875448Y-21346370D02*
X41857956Y-21391710D01*
X94247125Y-33736480D02*
X94262368Y-33782619D01*
X46991218Y-39815326D02*
X47008709Y-39769987D01*
X41571445Y-79682596D02*
X41608233Y-79714334D01*
X83985330Y-79653650D02*
X84025064Y-79625671D01*
X35941347Y-59664823D02*
X35973080Y-59628030D01*
X92023015Y-62306112D02*
X91993829Y-62304999D01*
X20029671Y-67630549D02*
X20019025Y-67583138D01*
X93460262Y-81449281D02*
X93412036Y-81455229D01*
X55591774Y-22127775D02*
X55572604Y-22104225D01*
X35721436Y-80567036D02*
X35717862Y-80518576D01*
X41571380Y-81235278D02*
X41533073Y-81265173D01*
X21206655Y-73399018D02*
X21254057Y-73409660D01*
X73209737Y-81449281D02*
X73161861Y-81440974D01*
X46944051Y-20844737D02*
X46952358Y-20796861D01*
X94262368Y-53932619D02*
X94275328Y-53979450D01*
X21973819Y-74129205D02*
X21984476Y-74176604D01*
X67365000Y-80469877D02*
X67363804Y-80518576D01*
X93412036Y-53234770D02*
X93460262Y-53240718D01*
X36657944Y-62300976D02*
X36609490Y-62297395D01*
X92211791Y-79367149D02*
X92241774Y-79332224D01*
X94229637Y-53841144D02*
X94247125Y-53886480D01*
X56539428Y-68375231D02*
X56491211Y-68369285D01*
X21862603Y-53710871D02*
X21886557Y-53753137D01*
X21252040Y-28050316D02*
X21204620Y-28060967D01*
X41230830Y-39200488D02*
X41276963Y-39215734D01*
X55971707Y-47973633D02*
X55936516Y-47940139D01*
X20439987Y-73546847D02*
X20481039Y-73520851D01*
X92826789Y-68263055D02*
X92784505Y-68239095D01*
X30316335Y-62106348D02*
X30276601Y-62134327D01*
X83589770Y-80567036D02*
X83586195Y-80518576D01*
X72407623Y-60005466D02*
X72422863Y-59959331D01*
X41914311Y-80254700D02*
X41922617Y-80302572D01*
X58691536Y-59156854D02*
X58708225Y-59182224D01*
X47100180Y-20439987D02*
X47128160Y-20400259D01*
X67075033Y-20289966D02*
X67108539Y-20325158D01*
X77973751Y-21927501D02*
X77928409Y-21944986D01*
X92626707Y-33336366D02*
X92663498Y-33304638D01*
X58167426Y-27939201D02*
X58125153Y-27963143D01*
X35746344Y-39906607D02*
X35759306Y-39859772D01*
X22041536Y-79306854D02*
X22058225Y-79332224D01*
X83604029Y-41359280D02*
X83595720Y-41311399D01*
X22021709Y-38966435D02*
X22034411Y-38994018D01*
X21808620Y-33480116D02*
X21836601Y-33519831D01*
X36706939Y-79457179D02*
X40943360Y-79457820D01*
X57755571Y-48225231D02*
X57707121Y-48228804D01*
X30276757Y-41991977D02*
X30235711Y-42017975D01*
X36156653Y-81293152D02*
X36116926Y-81265173D01*
X98487950Y-86442586D02*
X98511994Y-86437803D01*
X41816410Y-59825456D02*
X41838261Y-59868862D01*
X15227380Y-86094389D02*
X15293281Y-86167065D01*
X92470297Y-27639857D02*
X92444303Y-27598791D01*
X78468121Y-39681180D02*
X78489964Y-39724580D01*
X41040509Y-42152395D02*
X40992055Y-42155977D01*
X20010718Y-47385262D02*
X20004770Y-47337036D01*
X22067511Y-42265757D02*
X22049559Y-42290249D01*
X55502291Y-39113206D02*
X55527632Y-39096474D01*
X94138152Y-47790012D02*
X94110173Y-47829740D01*
X22008044Y-79223009D02*
X22016258Y-79251717D01*
X30460206Y-20325158D02*
X30491944Y-20361952D01*
X92378831Y-47618648D02*
X92361350Y-47573299D01*
X58648554Y-27090176D02*
X58647345Y-27138866D01*
X55763444Y-67856862D02*
X55741591Y-67813472D01*
X47636068Y-42113527D02*
X47589923Y-42098288D01*
X30549819Y-20439987D02*
X30575815Y-20481039D01*
X30426647Y-59593789D02*
X30460158Y-59628982D01*
X41792508Y-39638904D02*
X41816454Y-39681180D01*
X55641955Y-22236990D02*
X55633577Y-22207802D01*
X92304657Y-42460298D02*
X92292070Y-42387483D01*
X21345026Y-68322103D02*
X21298879Y-68337351D01*
X30549850Y-79896157D02*
X30575841Y-79937207D01*
X83595716Y-61459125D02*
X83589769Y-61410904D01*
X41932138Y-80399248D02*
X41933333Y-80469877D01*
X56636567Y-48230000D02*
X56587877Y-48228804D01*
X58810981Y-79420588D02*
X58853282Y-79438741D01*
X30715471Y-80397551D02*
X30716666Y-80469877D01*
X21392339Y-73455333D02*
X21436755Y-73475017D01*
X72805064Y-79623974D02*
X72846124Y-79597979D01*
X77973855Y-81384637D02*
X77928519Y-81402125D01*
X72384029Y-41360977D02*
X72375720Y-41313096D01*
X20194826Y-27679740D02*
X20166847Y-27640012D01*
X20057874Y-80803519D02*
X20042631Y-80757380D01*
X22305818Y-22000315D02*
X22232483Y-22012929D01*
X47074158Y-59782206D02*
X47100149Y-59741156D01*
X99012065Y-86166718D02*
X99069768Y-86103486D01*
X47050256Y-39682154D02*
X47074211Y-39639872D01*
X46952355Y-60098002D02*
X46962999Y-60050596D01*
X92265588Y-42315981D02*
X92250440Y-42290249D01*
X20001195Y-54171423D02*
X20004770Y-54122963D01*
X67002982Y-21776455D02*
X66964669Y-21806349D01*
X66615672Y-42129173D02*
X66568267Y-42139825D01*
X94262368Y-47527380D02*
X94247125Y-47573519D01*
X47456651Y-81343099D02*
X47414373Y-81319148D01*
X55600161Y-62439826D02*
X55572604Y-62404225D01*
X58785249Y-62354559D02*
X58760365Y-62372832D01*
X92139018Y-42189411D02*
X92111435Y-42176709D01*
X66883875Y-62160323D02*
X66841590Y-62184271D01*
X21884642Y-47706499D02*
X21860695Y-47748791D01*
X41410014Y-20116900D02*
X41452293Y-20140851D01*
X21971834Y-27330304D02*
X21958883Y-27377148D01*
X22134826Y-22054838D02*
X22110757Y-22072511D01*
X36327915Y-79532498D02*
X36373256Y-79515014D01*
X58658044Y-42386990D02*
X58652597Y-42417378D01*
X22077395Y-59205774D02*
X22098849Y-59227265D01*
X66884044Y-42017974D02*
X66841772Y-42041926D01*
X55272643Y-59300010D02*
X55322018Y-59301232D01*
X21836601Y-73819831D02*
X21862601Y-73860871D01*
X83910158Y-20256460D02*
X83946952Y-20224721D01*
X41903667Y-80207293D02*
X41914311Y-80254700D01*
X83910099Y-59557637D02*
X83946887Y-59525899D01*
X73354972Y-62302179D02*
X73306278Y-62300977D01*
X93460262Y-28069281D02*
X93412036Y-28075229D01*
X58286501Y-68155361D02*
X58248197Y-68185245D01*
X83725824Y-61822792D02*
X83701878Y-61780516D01*
X36706789Y-20000000D02*
X40943210Y-20000000D01*
X55903011Y-47904959D02*
X55871273Y-47868177D01*
X78223112Y-39382595D02*
X78259900Y-39414334D01*
X21806724Y-47829597D02*
X21776830Y-47867917D01*
X35721435Y-21109206D02*
X35717861Y-21060751D01*
X58635768Y-74225005D02*
X58641703Y-74273242D01*
X41890693Y-61600227D02*
X41875448Y-61646370D01*
X73209603Y-59313559D02*
X73257823Y-59307604D01*
X22088208Y-79367149D02*
X22110757Y-79387488D01*
X20000000Y-67389877D02*
X20000000Y-54220122D01*
X72460071Y-39723862D02*
X72481922Y-39680456D01*
X83614677Y-39908303D02*
X83627640Y-39861468D01*
X58451725Y-73780402D02*
X58479702Y-73820142D01*
X58957153Y-62300001D02*
X58944560Y-62300409D01*
X22049559Y-42290249D02*
X22034176Y-42316431D01*
X22000263Y-27138287D02*
X21996702Y-27186757D01*
X83642863Y-21347365D02*
X83627623Y-21301230D01*
X55657202Y-47385530D02*
X55651242Y-47337315D01*
X55765358Y-73903499D02*
X55789305Y-73861208D01*
X35759306Y-80159772D02*
X35774551Y-80113629D01*
X47295285Y-81235278D02*
X47258491Y-81203539D01*
X72365000Y-60292943D02*
X72366195Y-60244248D01*
X78527114Y-61646371D02*
X78509623Y-61691711D01*
X58451725Y-33480402D02*
X58479702Y-33520142D01*
X78489964Y-41590419D02*
X78468121Y-41633819D01*
X20075362Y-47618855D02*
X20057874Y-47573519D01*
X83874913Y-62013857D02*
X83841413Y-61978666D01*
X35716666Y-60292942D02*
X35717861Y-60244247D01*
X77788010Y-59321179D02*
X77835427Y-59331821D01*
X66662497Y-42116208D02*
X66615672Y-42129173D01*
X66753855Y-20075362D02*
X66798278Y-20095053D01*
X66964811Y-41963996D02*
X66925090Y-41991976D01*
X21906483Y-67813083D02*
X21884641Y-67856500D01*
X78489964Y-80024580D02*
X78509652Y-80068999D01*
X94048539Y-47904841D02*
X94015033Y-47940033D01*
X94209946Y-20566721D02*
X94229637Y-20611144D01*
X20256460Y-33405158D02*
X20289966Y-33369966D01*
X20523318Y-27963099D02*
X20481039Y-27939148D01*
X30687000Y-39905596D02*
X30697644Y-39953003D01*
X57897039Y-53259683D02*
X57943879Y-53272648D01*
X57803789Y-68369285D02*
X57755572Y-68375231D01*
X47028386Y-80893278D02*
X47008695Y-80848855D01*
X66520396Y-79466861D02*
X66568267Y-79475174D01*
X20194826Y-33480259D02*
X20224721Y-33441952D01*
X93602380Y-33122631D02*
X93648519Y-33137874D01*
X72375718Y-20844737D02*
X72384025Y-20796861D01*
X47258433Y-21747362D02*
X47223246Y-21713856D01*
X55813398Y-27640168D02*
X55787398Y-27599128D01*
X30715471Y-80518576D02*
X30711896Y-80567036D01*
X30658781Y-21344673D02*
X30641290Y-21390012D01*
X30658803Y-80112634D02*
X30674042Y-80158769D01*
X55843275Y-53630402D02*
X55873169Y-53592082D01*
X47499957Y-59396222D02*
X47544374Y-59376528D01*
X22027499Y-79279927D02*
X22041536Y-79306854D01*
X72846124Y-79597979D02*
X72888409Y-79574031D01*
X77691896Y-59306936D02*
X77740128Y-59312878D01*
X20010718Y-80615262D02*
X20004770Y-80567036D01*
X56638677Y-33080000D02*
X57656323Y-33080000D01*
X41230597Y-62260223D02*
X41183760Y-62273178D01*
X94209946Y-67813278D02*
X94188099Y-67856681D01*
X20001195Y-74321423D02*
X20004770Y-74272963D01*
X66374727Y-62301123D02*
X58957153Y-62300001D01*
X56008498Y-48005361D02*
X55971707Y-47973633D01*
X21778726Y-53591822D02*
X21808622Y-53630116D01*
X58323292Y-68123633D02*
X58286501Y-68155361D01*
X35721437Y-80350133D02*
X35727386Y-80301903D01*
X78061590Y-21885968D02*
X78018180Y-21907813D01*
X22034411Y-38994018D02*
X22049838Y-39020173D01*
X72460053Y-20566721D02*
X72481900Y-20523318D01*
X93865012Y-81293152D02*
X93823960Y-81319148D01*
X20749450Y-68350328D02*
X20702619Y-68337368D01*
X92303553Y-67389578D02*
X92304731Y-62601010D01*
X55651242Y-47337315D02*
X55647654Y-47288866D01*
X93004117Y-73422615D02*
X93050940Y-73409660D01*
X58772775Y-39096774D02*
X58797708Y-39113206D01*
X57707122Y-28078804D02*
X57658432Y-28080000D01*
X46934528Y-20941423D02*
X46938103Y-20892963D01*
X67248077Y-59827154D02*
X67269928Y-59870560D01*
X56443344Y-28060981D02*
X56395942Y-28050339D01*
X47050256Y-79982154D02*
X47074211Y-79939872D01*
X30715471Y-41217449D02*
X30711897Y-41265904D01*
X66423431Y-62299935D02*
X66374727Y-62301123D01*
X41608115Y-62046412D02*
X41571315Y-62078151D01*
X20611144Y-53305362D02*
X20656480Y-53287874D01*
X83627631Y-80757380D02*
X83614671Y-80710549D01*
X41183760Y-21973178D02*
X41136343Y-21983820D01*
X56493263Y-53240722D02*
X56541498Y-53234771D01*
X30715471Y-40097551D02*
X30716666Y-40146246D01*
X83680071Y-41589439D02*
X83660376Y-41545013D01*
X58853282Y-79438741D02*
X58897363Y-79450114D01*
X67360229Y-80567036D02*
X67354281Y-80615262D01*
X55723831Y-73991351D02*
X55743516Y-73946916D01*
X72460035Y-21435419D02*
X72440347Y-21391000D01*
X58946346Y-39154874D02*
X66375027Y-39156123D01*
X55973609Y-33336554D02*
X56010406Y-33304804D01*
X21204620Y-68360967D02*
X21156735Y-68369277D01*
X41933333Y-41167057D02*
X41932138Y-41215752D01*
X36078554Y-59527595D02*
X36116854Y-59497700D01*
X83875019Y-41866209D02*
X83841507Y-41831016D01*
X41643419Y-39447840D02*
X41676919Y-39483031D01*
X72931721Y-20095053D02*
X72976144Y-20075362D01*
X58165494Y-73520904D02*
X58206552Y-73546909D01*
X83660347Y-61692697D02*
X83642863Y-61647365D01*
X20796861Y-53249025D02*
X20844737Y-53240718D01*
X94110173Y-33480259D02*
X94138152Y-33519987D01*
X92250440Y-39019750D02*
X92265823Y-38993568D01*
X20844737Y-73390718D02*
X20892963Y-73384770D01*
X98776469Y-86341537D02*
X98860605Y-86291080D01*
X67365000Y-20990122D02*
X67363804Y-21059705D01*
X83841460Y-20325158D02*
X83874966Y-20289966D01*
X46952355Y-21206996D02*
X46944049Y-21159125D01*
X93823960Y-73520851D02*
X93865012Y-73546847D01*
X66841590Y-59420728D02*
X66883875Y-59444677D01*
X83874913Y-59591143D02*
X83910099Y-59557637D01*
X55446717Y-42171258D02*
X55402636Y-42159885D01*
X58603885Y-74082851D02*
X58616835Y-74129695D01*
X41792482Y-20481039D02*
X41816432Y-20523318D01*
X72765330Y-79651952D02*
X72805064Y-79623974D01*
X92559907Y-68054723D02*
X92528168Y-68017917D01*
X30521875Y-79856432D02*
X30549850Y-79896157D01*
X55649736Y-74321712D02*
X55653297Y-74273242D01*
X41571315Y-59526847D02*
X41608115Y-59558586D01*
X67360230Y-80349095D02*
X67363804Y-80397550D01*
X83725824Y-21522792D02*
X83701878Y-21480516D01*
X41493268Y-21836024D02*
X41452209Y-21862019D01*
X73114572Y-39186820D02*
X73161989Y-39176178D01*
X20361952Y-48005278D02*
X20325158Y-47973539D01*
X46934529Y-41214705D02*
X46933333Y-41166000D01*
X78555333Y-39907293D02*
X78565978Y-39954699D01*
X83910099Y-21747362D02*
X83874913Y-21713857D01*
X21908408Y-73946527D02*
X21928105Y-73990937D01*
X93148262Y-28069277D02*
X93100377Y-28060967D01*
X94110173Y-53630259D02*
X94138152Y-53669987D01*
X41932138Y-41215752D02*
X41928564Y-41264207D01*
X29871929Y-20010718D02*
X29919805Y-20019025D01*
X21806723Y-67979597D02*
X21776829Y-68017917D01*
X92302654Y-74321133D02*
X92306242Y-74272684D01*
X30235711Y-79597025D02*
X30276757Y-79623023D01*
X92376893Y-33690937D02*
X92396590Y-33646527D01*
X73306423Y-20001195D02*
X73355122Y-20000000D01*
X93100379Y-48210967D02*
X93052960Y-48200316D01*
X92291955Y-79223009D02*
X92298925Y-79177510D01*
X78444175Y-39638904D02*
X78468121Y-39681180D01*
X41452209Y-21862019D02*
X41409923Y-21885968D01*
X72365000Y-61312056D02*
X72365000Y-60292943D01*
X94110173Y-27679740D02*
X94080278Y-27718047D01*
X55938414Y-53520072D02*
X55973608Y-53486554D01*
X93943047Y-27855278D02*
X93904740Y-27885173D01*
X55787398Y-67899128D02*
X55763444Y-67856862D01*
X66471896Y-21996367D02*
X66423431Y-21999935D01*
X21926168Y-67768648D02*
X21906483Y-67813083D01*
X92376893Y-73990937D02*
X92396590Y-73946527D01*
X58627472Y-74177117D02*
X58635768Y-74225005D01*
X30621595Y-59870559D02*
X30641290Y-59914986D01*
X35973080Y-21676968D02*
X35941347Y-21640175D01*
X93943047Y-48005278D02*
X93904740Y-48035173D01*
X21298880Y-48187351D02*
X21252041Y-48200316D01*
X92868242Y-73475017D02*
X92912658Y-73455333D01*
X21522425Y-73520798D02*
X21563472Y-73546785D01*
X66568010Y-62282123D02*
X66520128Y-62290425D01*
X83841507Y-79783982D02*
X83875019Y-79748789D01*
X83627623Y-61601230D02*
X83614666Y-61554403D01*
X55676177Y-47480794D02*
X55665521Y-47433395D01*
X22049838Y-59170173D02*
X22077395Y-59205774D01*
X83725877Y-79939871D02*
X83751878Y-79898816D01*
X73258103Y-79461935D02*
X73306568Y-79458367D01*
X36156575Y-21835279D02*
X36116854Y-21807299D01*
X92015194Y-59304291D02*
X92038124Y-59302338D01*
X21639594Y-48005194D02*
X21601284Y-48035100D01*
X98292727Y-86460000D02*
X98402743Y-86454905D01*
X73021480Y-20057874D02*
X73067619Y-20042631D01*
X30705950Y-80300874D02*
X30711897Y-80349096D01*
X20116900Y-53753318D02*
X20140851Y-53711039D01*
X84334450Y-20029671D02*
X84381861Y-20019025D01*
X55646446Y-27090176D02*
X55645024Y-22382366D01*
X21204621Y-48210967D02*
X21156736Y-48219277D01*
X72589763Y-39519080D02*
X72621507Y-39482285D01*
X41766516Y-79897854D02*
X41792508Y-79938904D01*
X92304731Y-62601010D02*
X92288136Y-62522290D01*
X78418152Y-20439987D02*
X78444148Y-20481039D01*
X56127572Y-48089201D02*
X56086525Y-48063214D01*
X84287735Y-79501472D02*
X84334572Y-79488517D01*
X92743449Y-48063090D02*
X92703717Y-48035100D01*
X22284304Y-42155721D02*
X22261875Y-42157661D01*
X47028404Y-41589440D02*
X47008709Y-41545013D01*
X92346114Y-27377148D02*
X92333164Y-27330304D01*
X58643757Y-67487315D02*
X58637796Y-67535530D01*
X20400259Y-81265173D02*
X20361952Y-81235278D01*
X58507601Y-47749128D02*
X58481602Y-47790168D01*
X41875448Y-59958628D02*
X41890693Y-60004771D01*
X93979841Y-47973539D02*
X93943047Y-48005278D01*
X67108586Y-39481333D02*
X67140319Y-39518126D01*
X92359398Y-74036260D02*
X92376893Y-73990937D01*
X22002343Y-74321133D02*
X22003553Y-74369823D01*
X58641703Y-74273242D02*
X58645265Y-74321712D01*
X78328492Y-61977714D02*
X78294980Y-62012907D01*
X94275328Y-20749450D02*
X94285974Y-20796861D01*
X30641290Y-21390012D02*
X30621595Y-21434439D01*
X35973174Y-79782286D02*
X36006686Y-79747093D01*
X66471896Y-62296367D02*
X66423431Y-62299935D01*
X56086525Y-48063214D02*
X56046801Y-48035245D01*
X66841590Y-21884271D02*
X66798180Y-21906116D01*
X83680035Y-61737117D02*
X83660347Y-61692697D01*
X83680053Y-20566721D02*
X83701900Y-20523318D01*
X47635952Y-20042631D02*
X47682783Y-20029671D01*
X58206552Y-73546909D02*
X58246284Y-73574899D01*
X35833567Y-20523318D02*
X35857517Y-20481039D01*
X30575841Y-79937207D02*
X30599788Y-79979483D01*
X83874966Y-20289966D02*
X83910158Y-20256460D01*
X58684411Y-62465981D02*
X58671521Y-62494034D01*
X58760365Y-42222832D02*
X58727734Y-42253849D01*
X92444303Y-67898791D02*
X92420357Y-67856500D01*
X93363576Y-33081195D02*
X93412036Y-33084770D01*
X84526423Y-20001195D02*
X84575122Y-20000000D01*
X47414457Y-39299677D02*
X47456742Y-39275729D01*
X36657944Y-22000976D02*
X36609490Y-21997395D01*
X92306242Y-74272684D02*
X92312203Y-74224469D01*
X83946887Y-62079101D02*
X83910099Y-62047362D01*
X94303804Y-80518576D02*
X94300229Y-80567036D01*
X20116900Y-33603318D02*
X20140851Y-33561039D01*
X58727395Y-79355774D02*
X58748849Y-79377265D01*
X78145012Y-81293152D02*
X78103960Y-81319148D01*
X83701878Y-61780516D02*
X83680035Y-61737117D01*
X93979841Y-27823539D02*
X93943047Y-27855278D01*
X41136343Y-62283820D02*
X41088461Y-62292121D01*
X47635835Y-62261208D02*
X47589703Y-62245962D01*
X77835427Y-21973179D02*
X77788010Y-21983821D01*
X47730194Y-20019025D02*
X47778070Y-20010718D01*
X41922615Y-20844737D02*
X41928563Y-20892963D01*
X67322359Y-61598531D02*
X67307114Y-61644674D01*
X15047194Y-85761839D02*
X15076495Y-85842793D01*
X92663498Y-33304638D02*
X92701802Y-33274754D01*
X77882264Y-21960224D02*
X77835427Y-21973179D01*
X30674026Y-21298530D02*
X30658781Y-21344673D01*
X20941423Y-81458804D02*
X20892963Y-81455229D01*
X93943047Y-33304721D02*
X93979841Y-33336460D01*
X83841413Y-61978666D02*
X83809680Y-61941873D01*
X94080278Y-68018047D02*
X94048539Y-68054841D01*
X78585000Y-61312698D02*
X78583804Y-61361402D01*
X36327707Y-59378225D02*
X36373036Y-59360733D01*
X46933333Y-41166000D02*
X46933333Y-40148999D01*
X29823563Y-62296366D02*
X29775098Y-62299934D01*
X41643419Y-41867160D02*
X41608233Y-41900665D01*
X55572604Y-79355774D02*
X55591774Y-79332224D01*
X72765188Y-59497700D02*
X72804909Y-59469720D01*
X22135249Y-62354559D02*
X22110757Y-62372511D01*
X20289966Y-20289966D02*
X20325158Y-20256460D01*
X20004770Y-27187036D02*
X20001195Y-27138576D01*
X93781681Y-53346900D02*
X93823960Y-53370851D01*
X36197790Y-39297980D02*
X36240076Y-39274031D01*
X58321391Y-33336554D02*
X58356585Y-33370072D01*
X21206657Y-53249018D02*
X21254059Y-53259660D01*
X36609490Y-59307604D02*
X36657944Y-59304022D01*
X41533002Y-59496953D02*
X41571315Y-59526847D01*
X56215200Y-73475089D02*
X56259630Y-73455390D01*
X72384021Y-61505300D02*
X72375716Y-61457428D01*
X78184669Y-62108047D02*
X78144935Y-62136025D01*
X47333664Y-79653651D02*
X47373398Y-79625672D01*
X22034176Y-42316431D02*
X22021709Y-42343564D01*
X46952362Y-39955719D02*
X46963011Y-39908304D01*
X83595718Y-80615262D02*
X83589770Y-80567036D01*
X78444148Y-20481039D02*
X78468099Y-20523318D01*
X58358481Y-47940139D02*
X58323291Y-47973633D01*
X36327811Y-20075362D02*
X36373146Y-20057874D01*
X78580229Y-20892963D02*
X78583804Y-20941423D01*
X35746332Y-61552706D02*
X35735688Y-61505299D01*
X56443344Y-68360981D02*
X56395942Y-68350339D01*
X92558012Y-33405040D02*
X92591517Y-33369860D01*
X92308298Y-47336757D02*
X92304736Y-47288287D01*
X55676180Y-27330794D02*
X55665523Y-27283395D01*
X47333521Y-62108996D02*
X47295220Y-62079100D01*
X41276853Y-20057874D02*
X41322188Y-20075362D01*
X66964811Y-79651003D02*
X67003112Y-79680898D01*
X66423431Y-59305065D02*
X66471896Y-59308633D01*
X93098343Y-33099018D02*
X93146210Y-33090714D01*
X56541499Y-73384771D02*
X56589968Y-73381195D01*
X99305000Y-85447727D02*
X99305000Y-16012272D01*
X55645114Y-62552363D02*
X55638275Y-62522777D01*
X58896864Y-39150025D02*
X58946346Y-39154874D01*
X47874611Y-62302673D02*
X47826156Y-62299092D01*
X92297402Y-38892621D02*
X92299875Y-38858636D01*
X41533073Y-81265173D02*
X41493346Y-81293152D01*
X30705950Y-41314125D02*
X30697644Y-41361997D01*
X92333166Y-47480304D02*
X92322529Y-47432882D01*
X67248099Y-20523318D02*
X67269946Y-20566721D01*
X72394671Y-80710549D02*
X72384025Y-80663138D01*
X56086527Y-68213214D02*
X56046803Y-68185245D01*
X94080278Y-73741952D02*
X94110173Y-73780259D01*
X58637795Y-47385530D02*
X58629477Y-47433395D01*
X92959973Y-48172103D02*
X92914630Y-48154609D01*
X92784507Y-48089095D02*
X92743449Y-48063090D01*
X93148265Y-48219277D02*
X93100379Y-48210967D01*
X78418121Y-59742120D02*
X78444122Y-59783175D01*
X57945882Y-28037384D02*
X57899059Y-28050339D01*
X92004067Y-42155138D02*
X84575272Y-42156123D01*
X92496377Y-33480116D02*
X92526273Y-33441822D01*
X78580230Y-41264206D02*
X78574283Y-41312427D01*
X20116900Y-20523318D02*
X20140851Y-20481039D01*
X29872063Y-39166861D02*
X29919934Y-39175174D01*
X84477963Y-20004770D02*
X84526423Y-20001195D01*
X72384025Y-20796861D02*
X72394671Y-20749450D01*
X36239985Y-20116900D02*
X36283388Y-20095053D01*
X72505877Y-41676824D02*
X72481922Y-41634542D01*
X47028386Y-20566721D02*
X47050233Y-20523318D01*
X41792508Y-79938904D02*
X41816454Y-79981180D01*
X22021709Y-42343564D02*
X22011863Y-42372290D01*
X67108492Y-21676017D02*
X67074980Y-21711210D01*
X30235542Y-21860322D02*
X30193257Y-21884270D01*
X21252040Y-68350316D02*
X21204620Y-68360967D01*
X47589703Y-59359036D02*
X47635835Y-59343790D01*
X94048539Y-73705158D02*
X94080278Y-73741952D01*
X30705948Y-80615262D02*
X30697641Y-80663138D01*
X41792455Y-21521824D02*
X41766454Y-21562879D01*
X72559863Y-39557389D02*
X72589763Y-39519080D01*
X15168919Y-86015605D02*
X15227380Y-86094389D01*
X57943881Y-73422648D02*
X57990028Y-73437896D01*
X92053135Y-22009974D02*
X92004032Y-22005137D01*
X73209871Y-39167877D02*
X73258103Y-39161935D01*
X92177224Y-59246774D02*
X92200774Y-59227604D01*
X72407623Y-21299533D02*
X72394666Y-21252706D01*
X21990766Y-27234994D02*
X21982470Y-27282882D01*
X72407640Y-41455228D02*
X72394677Y-41408392D01*
X20702619Y-73422631D02*
X20749450Y-73409671D01*
X73257963Y-81455229D02*
X73209737Y-81449281D01*
X47778204Y-79469575D02*
X47826436Y-79463633D01*
X72690217Y-39413586D02*
X72727017Y-39381847D01*
X94015033Y-47940033D02*
X93979841Y-47973539D01*
X72846039Y-20140851D02*
X72888318Y-20116900D01*
X58505694Y-53711208D02*
X58529640Y-53753500D01*
X20796861Y-68360974D02*
X20749450Y-68350328D01*
X94247125Y-80803519D02*
X94229637Y-80848855D01*
X58037341Y-28004666D02*
X57992013Y-28022147D01*
X55741589Y-47663472D02*
X55721892Y-47619062D01*
X58645007Y-58987215D02*
X58645397Y-59000220D01*
X93602380Y-73422631D02*
X93648519Y-73437874D01*
X35774529Y-21345668D02*
X35759290Y-21299533D01*
X21943649Y-27423299D02*
X21926168Y-27468648D01*
X58652597Y-62567378D02*
X58650136Y-62600985D01*
X22011724Y-59087222D02*
X22021709Y-59116435D01*
X47258491Y-20256460D02*
X47295285Y-20224721D01*
X58671521Y-42344034D02*
X58658044Y-42386990D01*
X16012272Y-15000000D02*
X15902256Y-15005094D01*
X41903661Y-80710549D02*
X41890701Y-80757380D01*
X73355272Y-39157178D02*
X77595027Y-39157820D01*
X72559863Y-79857389D02*
X72589763Y-79819080D01*
X67363804Y-80397550D02*
X67365000Y-80469877D01*
X93738278Y-68284946D02*
X93693855Y-68304637D01*
X58588651Y-74036700D02*
X58603885Y-74082851D01*
X66708630Y-39214036D02*
X66753959Y-39231528D01*
X99129158Y-15434572D02*
X99069768Y-15356513D01*
X22247363Y-39150114D02*
X22276984Y-39153887D01*
X20566721Y-53325053D02*
X20611144Y-53305362D01*
X83595716Y-60145875D02*
X83604021Y-60098003D01*
X55615588Y-62465981D02*
X55600161Y-62439826D01*
X92444305Y-47748791D02*
X92420359Y-47706499D01*
X57897041Y-73409683D02*
X57943881Y-73422648D01*
X21776829Y-27717917D02*
X21745091Y-27754723D01*
X78583804Y-41215751D02*
X78580230Y-41264206D01*
X73354972Y-59302821D02*
X77594727Y-59302179D01*
X30641290Y-59914986D02*
X30658781Y-59960325D01*
X55417516Y-59297070D02*
X55446717Y-59288741D01*
X72845955Y-21861277D02*
X72804909Y-21835280D01*
X21926168Y-27468648D02*
X21906483Y-27513083D01*
X58684411Y-42315981D02*
X58671521Y-42344034D01*
X78018278Y-20095053D02*
X78061681Y-20116900D01*
X67170209Y-39556431D02*
X67198183Y-39596156D01*
X55647654Y-47288866D02*
X55646444Y-47240176D01*
X20140851Y-67898960D02*
X20116900Y-67856681D01*
X58165492Y-53370904D02*
X58206550Y-53396909D01*
X20042631Y-27377380D02*
X20029671Y-27330549D01*
X83586195Y-80400294D02*
X83589771Y-80351830D01*
X83874913Y-21713857D02*
X83841413Y-21678666D01*
X77835672Y-79487523D02*
X77882497Y-79500487D01*
X94138152Y-20439987D02*
X94164148Y-20481039D01*
X83642874Y-80803519D02*
X83627631Y-80757380D01*
X30235542Y-59444677D02*
X30276601Y-59470671D01*
X30621595Y-61734439D02*
X30599743Y-61777845D01*
X55460965Y-22026521D02*
X55432222Y-22016724D01*
X84526423Y-81458804D02*
X84477963Y-81455229D01*
X72931819Y-42062812D02*
X72888409Y-42040968D01*
X93904740Y-73574826D02*
X93943047Y-73604721D01*
X67170209Y-79856431D02*
X67198183Y-79896156D01*
X84151819Y-79553883D02*
X84196248Y-79534195D01*
X66753855Y-81384637D02*
X66708519Y-81402125D01*
X66662380Y-20042631D02*
X66708519Y-20057874D01*
X36561269Y-59313558D02*
X36609490Y-59307604D01*
X93648519Y-73437874D02*
X93693855Y-73455362D01*
X41708611Y-81098047D02*
X41676872Y-81134841D01*
X93244969Y-48228804D02*
X93196500Y-48225228D01*
X67248077Y-21477846D02*
X67224122Y-21520128D01*
X94080278Y-20361952D02*
X94110173Y-20400259D01*
X20400259Y-27885173D02*
X20361952Y-27855278D01*
X98511994Y-86437803D02*
X98606839Y-86412805D01*
X30014164Y-79498791D02*
X30060296Y-79514037D01*
X56587879Y-68378804D02*
X56539428Y-68375231D01*
X55743515Y-53796916D02*
X55765357Y-53753500D01*
X20095053Y-27513278D02*
X20075362Y-27468855D01*
X67075086Y-79746142D02*
X67108586Y-79781333D01*
X35717862Y-80398598D02*
X35721437Y-80350133D01*
X41890693Y-21300227D02*
X41875448Y-21346370D01*
X55723830Y-53841351D02*
X55743515Y-53796916D01*
X58208473Y-48063214D02*
X58167425Y-48089201D01*
X20749450Y-20029671D02*
X20796861Y-20019025D01*
X78103875Y-59442980D02*
X78144935Y-59468975D01*
X84024909Y-62136977D02*
X83985188Y-62108996D01*
X55343755Y-42155001D02*
X47923605Y-42156123D01*
X67289623Y-59914986D02*
X67307114Y-59960326D01*
X30711897Y-41265904D02*
X30705950Y-41314125D01*
X66520262Y-81449281D02*
X66472036Y-81455229D01*
X58666258Y-59101717D02*
X58677499Y-59129927D01*
X41838280Y-80893278D02*
X41816432Y-80936681D01*
X94164148Y-67898960D02*
X94138152Y-67940012D01*
X47028368Y-61737116D02*
X47008681Y-61692697D01*
X47223299Y-81170033D02*
X47189793Y-81134841D01*
X56491209Y-48219285D02*
X56443342Y-48210981D01*
X66925090Y-79623022D02*
X66964811Y-79651003D01*
X21480152Y-33196856D02*
X21522425Y-33220798D01*
X30354714Y-81235278D02*
X30316407Y-81265173D01*
X67039841Y-20256460D02*
X67075033Y-20289966D01*
X67224122Y-21520128D02*
X67198121Y-21561183D01*
X58248197Y-27885245D02*
X58208474Y-27913214D01*
X84334327Y-59330826D02*
X84381732Y-59320174D01*
X83809763Y-39520778D02*
X83841507Y-39483982D01*
X72460053Y-80893278D02*
X72440362Y-80848855D01*
X72384029Y-39954021D02*
X72394677Y-39906606D01*
X46962999Y-21254403D02*
X46952355Y-21206996D01*
X21992795Y-33924469D02*
X21998755Y-33972684D01*
X36116854Y-62107299D02*
X36078554Y-62077403D01*
X41838261Y-61736136D02*
X41816410Y-61779542D01*
X84429871Y-42145424D02*
X84381989Y-42137123D01*
X30599743Y-21477845D02*
X30575788Y-21520127D01*
X66662497Y-79498790D02*
X66708630Y-79514036D01*
X56129505Y-53370904D02*
X56171790Y-53346944D01*
X36561403Y-20010718D02*
X36609629Y-20004770D01*
X94303804Y-27138576D02*
X94300229Y-27187036D01*
X20116900Y-80936681D02*
X20095053Y-80893278D01*
X93050940Y-73409660D02*
X93098343Y-73399018D01*
X58671709Y-79266435D02*
X58684411Y-79294018D01*
X56302988Y-28022147D02*
X56257660Y-28004666D01*
X94305000Y-34070122D02*
X94305000Y-47239877D01*
X35833567Y-80936681D02*
X35811719Y-80893278D01*
X36706639Y-59302820D02*
X40943060Y-59302179D01*
X67365000Y-60293999D02*
X67365000Y-61311001D01*
X92498276Y-47829597D02*
X92470299Y-47789857D01*
X58605852Y-67677613D02*
X58590601Y-67723739D01*
X78509652Y-41545999D02*
X78489964Y-41590419D01*
X55648887Y-59028015D02*
X55649998Y-58998590D01*
X92359398Y-33736260D02*
X92376893Y-33690937D01*
X78489946Y-20566721D02*
X78509637Y-20611144D01*
X22004974Y-42401864D02*
X22000139Y-42450914D01*
X94110173Y-20400259D02*
X94138152Y-20439987D01*
X55904908Y-73705276D02*
X55938415Y-73670072D01*
X29919676Y-62282122D02*
X29871795Y-62290424D01*
X21298879Y-28037351D02*
X21252040Y-28050316D01*
X30013931Y-21958526D02*
X29967093Y-21971481D01*
X21156735Y-68369277D02*
X21108500Y-68375228D01*
X47874756Y-81458804D02*
X47826296Y-81455229D01*
X77973751Y-59377498D02*
X78018180Y-59397187D01*
X78360236Y-21640919D02*
X78328492Y-21677714D01*
X47333521Y-59496002D02*
X47373242Y-59468022D01*
X20749450Y-53259671D02*
X20796861Y-53249025D01*
X36327811Y-81384637D02*
X36283388Y-81364946D01*
X35941430Y-79819081D02*
X35973174Y-79782286D01*
X93363576Y-53231195D02*
X93412036Y-53234770D01*
X30549787Y-21561182D02*
X30521803Y-21600912D01*
X21984476Y-74176604D02*
X21992795Y-74224469D01*
X22110365Y-42222832D02*
X22087850Y-42243208D01*
X93693855Y-81384637D02*
X93648519Y-81402125D01*
X55873169Y-53592082D02*
X55904907Y-53555276D01*
X84196144Y-81384637D02*
X84151721Y-81364946D01*
X78061681Y-20116900D02*
X78103960Y-20140851D01*
X93823960Y-20140851D02*
X93865012Y-20166847D01*
X92096717Y-62321258D02*
X92052636Y-62309885D01*
X93293678Y-48230000D02*
X93244969Y-48228804D01*
X55608206Y-79307291D02*
X55622288Y-79280387D01*
X92004032Y-22005137D02*
X84574972Y-22003876D01*
X92200774Y-59227604D02*
X92222604Y-59205774D01*
X20702619Y-33122631D02*
X20749450Y-33109671D01*
X55657204Y-27235530D02*
X55651244Y-27187315D01*
X93693855Y-53305362D02*
X93738278Y-53325053D01*
X55572604Y-62404225D02*
X55551150Y-62382734D01*
X22034411Y-22165981D02*
X22021709Y-22193564D01*
X58646446Y-74370421D02*
X58645268Y-79158989D01*
X35911457Y-59703128D02*
X35941347Y-59664823D01*
X47100212Y-41716183D02*
X47074211Y-41675128D01*
X21958883Y-27377148D02*
X21943649Y-27423299D01*
X55871273Y-47868177D02*
X55841377Y-47829883D01*
X15293281Y-86167065D02*
X15356513Y-86224768D01*
X92189634Y-22072832D02*
X92165173Y-22054838D01*
X58573106Y-27469062D02*
X58553409Y-27513472D01*
X47500055Y-81364946D02*
X47456651Y-81343099D01*
X56443342Y-48210981D02*
X56395940Y-48200339D01*
X78509623Y-21391711D02*
X78489928Y-21436137D01*
X56587877Y-48228804D02*
X56539426Y-48225231D01*
X41875459Y-20656480D02*
X41890701Y-20702619D01*
X72690158Y-20256460D02*
X72726952Y-20224721D01*
X72726952Y-81235278D02*
X72690158Y-81203539D01*
X94303804Y-20941423D02*
X94305000Y-20990122D01*
X92628610Y-47973445D02*
X92593416Y-47939927D01*
X47414457Y-79599677D02*
X47456742Y-79575729D01*
X58284593Y-53454805D02*
X58321389Y-53486554D01*
X21862601Y-33560871D02*
X21886555Y-33603137D01*
X92314231Y-27234994D02*
X92308296Y-27186757D01*
X55704399Y-27423739D02*
X55689149Y-27377613D01*
X21745091Y-68054723D02*
X21711584Y-68089927D01*
X66568138Y-81440974D02*
X66520262Y-81449281D01*
X92304708Y-22300525D02*
X92288275Y-22222777D01*
X41816454Y-41633819D02*
X41792508Y-41676095D01*
X83595720Y-40003599D02*
X83604029Y-39955718D01*
X55638275Y-42372777D02*
X55628290Y-42343564D01*
X57992013Y-28022147D02*
X57945882Y-28037384D01*
X58453622Y-27679883D02*
X58423726Y-27718177D01*
X15709568Y-86416577D02*
X15804728Y-86440438D01*
X92784505Y-68239095D02*
X92743447Y-68213090D01*
X84108409Y-39275728D02*
X84151819Y-39253883D01*
X22276984Y-39153887D02*
X22306170Y-39155000D01*
X22175072Y-42182499D02*
X22134826Y-42204838D01*
X41136600Y-42138128D02*
X41088730Y-42146441D01*
X30193257Y-59420728D02*
X30235542Y-59444677D01*
X20439987Y-48063152D02*
X20400259Y-48035173D01*
X21713483Y-53519860D02*
X21746988Y-53555040D01*
X58551485Y-33646916D02*
X58571170Y-33691351D01*
X67198183Y-79896156D02*
X67224175Y-79937207D01*
X22161431Y-39120823D02*
X22203282Y-39138741D01*
X30060186Y-81402125D02*
X30014047Y-81417368D01*
X41932137Y-20941423D02*
X41933333Y-21012697D01*
X41088730Y-42146441D02*
X41040509Y-42152395D01*
X58650136Y-42450985D02*
X58648553Y-47240176D01*
X41857985Y-80069000D02*
X41875470Y-80114331D01*
X93412036Y-48225229D02*
X93363576Y-48228804D01*
X73306423Y-81458804D02*
X73257963Y-81455229D01*
X83751847Y-81020012D02*
X83725851Y-80978960D01*
X72931819Y-39252186D02*
X72976248Y-39232498D01*
X93242878Y-53231195D02*
X93314877Y-53230000D01*
X58727734Y-62403849D02*
X58708225Y-62427775D01*
X30460253Y-39481334D02*
X30491986Y-39518126D01*
X92628608Y-27823445D02*
X92593414Y-27789927D01*
X55417516Y-39147070D02*
X55460965Y-39133478D01*
X20325158Y-47973539D02*
X20289966Y-47940033D01*
X72422874Y-20656480D02*
X72440362Y-20611144D01*
X83779790Y-21603568D02*
X83751816Y-21563843D01*
X36240076Y-79574031D02*
X36283485Y-79552187D01*
X58390092Y-33405276D02*
X58421831Y-33442082D01*
X41914311Y-41360300D02*
X41903667Y-41407706D01*
X41875448Y-61646370D02*
X41857956Y-61691710D01*
X72589680Y-61940176D02*
X72559790Y-61901871D01*
X72846124Y-39297979D02*
X72888409Y-39274031D01*
X36465994Y-59332522D02*
X36513399Y-59321871D01*
X30697637Y-60100719D02*
X30705946Y-60148599D01*
X20439987Y-27913152D02*
X20400259Y-27885173D01*
X66374727Y-59303876D02*
X66423431Y-59305065D01*
X55676180Y-67630794D02*
X55665523Y-67583395D01*
X22021709Y-62493564D02*
X22011863Y-62522290D01*
X58479702Y-33520142D02*
X58505696Y-33561208D01*
X41857971Y-20611144D02*
X41875459Y-20656480D01*
X29823563Y-59308632D02*
X29871795Y-59314574D01*
X57755572Y-28075231D02*
X57707122Y-28078804D01*
X67289652Y-39767302D02*
X67307136Y-39812634D01*
X21808622Y-53630116D02*
X21836603Y-53669831D01*
X35941388Y-81098047D02*
X35911493Y-81059740D01*
X58573105Y-47619062D02*
X58553408Y-47663472D01*
X66471896Y-59308633D02*
X66520128Y-59314575D01*
X83660362Y-20611144D02*
X83680053Y-20566721D01*
X78360319Y-79819823D02*
X78390209Y-79858128D01*
X92265588Y-62465981D02*
X92241774Y-62427775D01*
X72369771Y-40050132D02*
X72375720Y-40001902D01*
X72804909Y-21835280D02*
X72765188Y-21807299D01*
X58206550Y-53396909D02*
X58246282Y-53424899D01*
X67075086Y-41868856D02*
X67039900Y-41902362D01*
X73161989Y-42138820D02*
X73114572Y-42128178D01*
X20224721Y-47868047D02*
X20194826Y-47829740D01*
X21561551Y-27913090D02*
X21520493Y-27939095D01*
X21478208Y-68263055D02*
X21434799Y-68284910D01*
X21746985Y-33405040D02*
X21778724Y-33441822D01*
X47414457Y-42015322D02*
X47373398Y-41989328D01*
X46975973Y-39861469D02*
X46991218Y-39815326D01*
X30235626Y-81319148D02*
X30193348Y-81343099D01*
X21252041Y-48200316D02*
X21204621Y-48210967D01*
X40991910Y-81458804D02*
X40943210Y-81460000D01*
X92295025Y-59058135D02*
X92298887Y-59028015D01*
X93693855Y-48154637D02*
X93648519Y-48172125D01*
X55871275Y-27718177D02*
X55841379Y-27679883D01*
X58423726Y-27718177D02*
X58391987Y-27754959D01*
X77788267Y-39176871D02*
X77835672Y-39187523D01*
X93693855Y-33155362D02*
X93738278Y-33175053D01*
X73306278Y-62300977D02*
X73257823Y-62297395D01*
X99069768Y-86103486D02*
X99085321Y-86084535D01*
X55648554Y-54220421D02*
X55649735Y-54171712D01*
X67198183Y-39596156D02*
X67224175Y-39637207D01*
X41922617Y-40002572D02*
X41928564Y-40050793D01*
X77595027Y-39157820D02*
X77643721Y-39159022D01*
X20042631Y-20702619D02*
X20057874Y-20656480D01*
X36006580Y-21712159D02*
X35973080Y-21676968D01*
X66520128Y-21990425D02*
X66471896Y-21996367D01*
X30705946Y-21156399D02*
X30697637Y-21204280D01*
X93648519Y-53287874D02*
X93693855Y-53305362D01*
X94262368Y-67677380D02*
X94247125Y-67723519D01*
X41738506Y-20400259D02*
X41766485Y-20439987D01*
X73067502Y-62259512D02*
X73021369Y-62244266D01*
X36197622Y-21861277D02*
X36156575Y-21835279D01*
X30674042Y-39858769D02*
X30687000Y-39905596D01*
X20224721Y-27718047D02*
X20194826Y-27679740D01*
X93148262Y-68369277D02*
X93100377Y-68360967D01*
X22000720Y-79169693D02*
X22002661Y-79193124D01*
X58590601Y-67723739D02*
X58573106Y-67769062D01*
X20892963Y-33084770D02*
X20941423Y-33081195D01*
X20019025Y-20796861D02*
X20029671Y-20749450D01*
X36419402Y-42115224D02*
X36373256Y-42099986D01*
X78294980Y-62012907D02*
X78259782Y-62046413D01*
X21713481Y-33369860D02*
X21746985Y-33405040D01*
X72654913Y-59592840D02*
X72690099Y-59559335D01*
X30316478Y-79651003D02*
X30354779Y-79680899D01*
X30491986Y-39518126D02*
X30521875Y-39556432D01*
X73161989Y-39176178D02*
X73209871Y-39167877D01*
X77788010Y-21983821D02*
X77740128Y-21992122D01*
X78061681Y-81343099D02*
X78018278Y-81364946D01*
X72422863Y-21345668D02*
X72407623Y-21299533D01*
X55689149Y-27377613D02*
X55676180Y-27330794D01*
X20523318Y-48113099D02*
X20481039Y-48089148D01*
X92320521Y-33876604D02*
X92331178Y-33829205D01*
X35833545Y-59826180D02*
X35857491Y-59783904D01*
X15081367Y-15606222D02*
X15071985Y-15628871D01*
X58321391Y-73636554D02*
X58356585Y-73670072D01*
X66964669Y-21806349D02*
X66924935Y-21834328D01*
X67335322Y-61551696D02*
X67322359Y-61598531D01*
X41276963Y-42099266D02*
X41230830Y-42114512D01*
X83589771Y-40051830D02*
X83595720Y-40003599D01*
X83680053Y-80893278D02*
X83660362Y-80848855D01*
X21943650Y-47573299D02*
X21926169Y-47618648D01*
X35717861Y-60244247D02*
X35721435Y-60195792D01*
X92312204Y-54074469D02*
X92320522Y-54026604D01*
X29919934Y-42139825D02*
X29872063Y-42148138D01*
X83595716Y-21159125D02*
X83589769Y-21110904D01*
X15902256Y-15005094D02*
X15817049Y-15017413D01*
X41276963Y-79515734D02*
X41322292Y-79533225D01*
X78390173Y-81059740D02*
X78360278Y-81098047D01*
X21776829Y-68017917D02*
X21745091Y-68054723D01*
X72888409Y-79574031D02*
X72931819Y-79552186D01*
X15365610Y-15227380D02*
X15292934Y-15293281D01*
X30426700Y-81170033D02*
X30391508Y-81203539D01*
X58691793Y-39007291D02*
X58708525Y-39032632D01*
X35759298Y-80757380D02*
X35746338Y-80710549D01*
X99142778Y-15454956D02*
X99129158Y-15434572D01*
X21300882Y-53272615D02*
X21347013Y-53287852D01*
X21434799Y-68284910D02*
X21390369Y-68304609D01*
X78018180Y-21907813D02*
X77973751Y-21927501D01*
X72690099Y-21745665D02*
X72654913Y-21712160D01*
X36239894Y-21885229D02*
X36197622Y-21861277D01*
X20194826Y-81059740D02*
X20166847Y-81020012D01*
X94229637Y-27468855D02*
X94209946Y-27513278D01*
X84477823Y-62299092D02*
X84429603Y-62293138D01*
X55645025Y-59058135D02*
X55648887Y-59028015D01*
X83751816Y-21563843D02*
X83725824Y-21522792D01*
X21945600Y-33736260D02*
X21960850Y-33782386D01*
X35746332Y-21252706D02*
X35735688Y-21205299D01*
X73355122Y-20000000D02*
X77594877Y-20000000D01*
X93196498Y-28075228D02*
X93148262Y-28069277D01*
X47373242Y-62136976D02*
X47333521Y-62108996D01*
X67140319Y-79818126D02*
X67170209Y-79856431D01*
X56169845Y-48113143D02*
X56127572Y-48089201D01*
X58677499Y-59129927D02*
X58691536Y-59156854D01*
X83910217Y-39415283D02*
X83947017Y-39383544D01*
X72804987Y-20166847D02*
X72846039Y-20140851D01*
X30316407Y-20194826D02*
X30354714Y-20224721D01*
X58627470Y-54027117D02*
X58635766Y-54075005D01*
X92301445Y-74369823D02*
X92302654Y-74321133D01*
X93508138Y-73399025D02*
X93555549Y-73409671D01*
X21601283Y-68185100D02*
X21561551Y-68213090D01*
X92312203Y-33924469D02*
X92320521Y-33876604D01*
X35792014Y-21390999D02*
X35774529Y-21345668D01*
X30621595Y-21434439D02*
X30599743Y-21477845D01*
X77691896Y-62298064D02*
X77643431Y-62301632D01*
X46938102Y-60194095D02*
X46944049Y-60145874D01*
X92870199Y-27984910D02*
X92826789Y-27963055D01*
X94305000Y-67389877D02*
X94303804Y-67438576D01*
X20004770Y-67487036D02*
X20001195Y-67438576D01*
X30491944Y-20361952D02*
X30521839Y-20400259D01*
X41452377Y-79598722D02*
X41493424Y-79624720D01*
X56397959Y-33109683D02*
X56445379Y-33099032D01*
X20166847Y-20439987D02*
X20194826Y-20400259D01*
X83586195Y-21062449D02*
X83585000Y-20990122D01*
X36240076Y-42040968D02*
X36197790Y-42017020D01*
X20361952Y-73604721D02*
X20400259Y-73574826D01*
X47100149Y-21563842D02*
X47074158Y-21522792D01*
X55622500Y-59129927D02*
X55633741Y-59101717D01*
X55938415Y-73670072D02*
X55973609Y-73636554D01*
X46944049Y-60145874D02*
X46952355Y-60098002D01*
X20844737Y-33090718D02*
X20892963Y-33084770D01*
X35883483Y-59742854D02*
X35911457Y-59703128D01*
X78509623Y-59913289D02*
X78527114Y-59958628D01*
X47778070Y-20010718D02*
X47826296Y-20004770D01*
X72888318Y-20116900D02*
X72931721Y-20095053D01*
X83660347Y-21392697D02*
X83642863Y-21347365D01*
X36513656Y-39176179D02*
X36561538Y-39167878D01*
X94285974Y-33876861D02*
X94294281Y-33924737D01*
X66662380Y-81417368D02*
X66615549Y-81430328D01*
X58079800Y-33175089D02*
X58123210Y-33196944D01*
X35833545Y-61778819D02*
X35811701Y-61735419D01*
X92201150Y-39077265D02*
X92232167Y-39044634D01*
X77740262Y-81449281D02*
X77692036Y-81455229D01*
X56127574Y-27939201D02*
X56086527Y-27913214D01*
X56539426Y-48225231D02*
X56491209Y-48219285D01*
X78018375Y-79552919D02*
X78061772Y-79574769D01*
X30705948Y-20844737D02*
X30711896Y-20892963D01*
X94080278Y-27718047D02*
X94048539Y-27754841D01*
X41322292Y-79533225D02*
X41366708Y-79552920D01*
X36078684Y-39381848D02*
X36116997Y-39351953D01*
X41608233Y-41900665D02*
X41571445Y-41932404D01*
X72481878Y-21478819D02*
X72460035Y-21435419D01*
X36373256Y-79515014D02*
X36419402Y-79499776D01*
X93508138Y-28060974D02*
X93460262Y-28069281D01*
X94048539Y-33405158D02*
X94080278Y-33441952D01*
X22049838Y-62439826D02*
X22034411Y-62465981D01*
X58643757Y-27187315D02*
X58637796Y-27235530D01*
X94229637Y-80848855D02*
X94209946Y-80893278D01*
X67170173Y-81059740D02*
X67140278Y-81098047D01*
X47258491Y-81203539D02*
X47223299Y-81170033D01*
X73306568Y-39158367D02*
X73355272Y-39157178D01*
X35911457Y-21601870D02*
X35883483Y-21562145D01*
X78565974Y-20796861D02*
X78574281Y-20844737D01*
X20140851Y-20481039D02*
X20166847Y-20439987D01*
X47826296Y-81455229D02*
X47778070Y-81449281D01*
X91972028Y-59301233D02*
X92015194Y-59304291D01*
X47589703Y-62245962D02*
X47544374Y-62228471D01*
X93508138Y-33099025D02*
X93555549Y-33109671D01*
X55488568Y-42189176D02*
X55446717Y-42171258D01*
X78222982Y-62078152D02*
X78184669Y-62108047D01*
X78103960Y-81319148D02*
X78061681Y-81343099D01*
X20075362Y-73991144D02*
X20095053Y-73946721D01*
X55572604Y-39055774D02*
X55591774Y-39032224D01*
X22004978Y-58927603D02*
X22003760Y-58977052D01*
X58946313Y-59304873D02*
X66374727Y-59303876D01*
X35883514Y-81020012D02*
X35857517Y-80978960D01*
X67360228Y-21108169D02*
X67354279Y-21156400D01*
X94275328Y-33829450D02*
X94285974Y-33876861D01*
X20075362Y-80848855D02*
X20057874Y-80803519D01*
X93904740Y-81265173D02*
X93865012Y-81293152D01*
X58037340Y-48154666D02*
X57992012Y-48172147D01*
X21561551Y-68213090D02*
X21520493Y-68239095D01*
X36041884Y-79713587D02*
X36078684Y-79681848D01*
X41230830Y-79500488D02*
X41276963Y-79515734D01*
X57851656Y-68360981D02*
X57803789Y-68369285D01*
X20481039Y-73520851D02*
X20523318Y-73496900D01*
X73114572Y-79486820D02*
X73161989Y-79476178D01*
X41766485Y-81020012D02*
X41738506Y-81059740D01*
X58356583Y-53520072D02*
X58390090Y-53555276D01*
X94138152Y-67940012D02*
X94110173Y-67979740D01*
X92826789Y-27963055D02*
X92784505Y-27939095D01*
X92914628Y-28004609D02*
X92870199Y-27984910D01*
X36706939Y-39157179D02*
X40943360Y-39157820D01*
X72394666Y-61552706D02*
X72384021Y-61505300D01*
X92211791Y-22092850D02*
X92189634Y-22072832D01*
X58286501Y-27855361D02*
X58248197Y-27885245D01*
X84151624Y-62208777D02*
X84108227Y-62186927D01*
X35792043Y-80068289D02*
X35811738Y-80023863D01*
X83701922Y-79982153D02*
X83725877Y-79939871D01*
X35941347Y-61940175D02*
X35911457Y-61901870D01*
X47730194Y-81440974D02*
X47682783Y-81430328D01*
X72369770Y-80567036D02*
X72366195Y-80518576D01*
X20166847Y-67940012D02*
X20140851Y-67898960D01*
X41088461Y-21992121D02*
X41040230Y-21998063D01*
X78418152Y-81020012D02*
X78390173Y-81059740D01*
X66925012Y-20166847D02*
X66964740Y-20194826D01*
X35811719Y-80893278D02*
X35792028Y-80848855D01*
X20325158Y-20256460D02*
X20361952Y-20224721D01*
X20075362Y-27468855D02*
X20057874Y-27423519D01*
X46944053Y-80303600D02*
X46952362Y-80255719D01*
X20019025Y-67583138D02*
X20010718Y-67535262D01*
X47456651Y-20116900D02*
X47500055Y-20095053D01*
X30575841Y-41677793D02*
X30549850Y-41718843D01*
X30014047Y-81417368D02*
X29967216Y-81430328D01*
X66568010Y-21982123D02*
X66520128Y-21990425D01*
X30674034Y-80757380D02*
X30658792Y-80803519D01*
X67345978Y-41361996D02*
X67335333Y-41409403D01*
X67108539Y-20325158D02*
X67140278Y-20361952D01*
X55645114Y-79207636D02*
X55648925Y-79177510D01*
X20941423Y-48228804D02*
X20892963Y-48225229D01*
X41533145Y-79652700D02*
X41571445Y-79682596D01*
X66925012Y-81293152D02*
X66883960Y-81319148D01*
X92258463Y-59156854D02*
X92272500Y-59129927D01*
X55706349Y-53886700D02*
X55723830Y-53841351D01*
X67224175Y-79937207D02*
X67248121Y-79979483D01*
X20095053Y-47663278D02*
X20075362Y-47618855D01*
X35857491Y-59783904D02*
X35883483Y-59742854D01*
X84196248Y-42080804D02*
X84151819Y-42061115D01*
X36657944Y-59304022D02*
X36706639Y-59302820D01*
X30060296Y-42100963D02*
X30014164Y-42116209D01*
X99186537Y-85931469D02*
X99223632Y-85853777D01*
X83809721Y-20361952D02*
X83841460Y-20325158D01*
X58727395Y-59205774D02*
X58749225Y-59227604D01*
X22002343Y-34021133D02*
X22003553Y-34069823D01*
X92082222Y-79443275D02*
X92124927Y-79427500D01*
X92593414Y-68089927D02*
X92559907Y-68054723D01*
X35857544Y-79938175D02*
X35883545Y-79897120D01*
X30193438Y-79573072D02*
X30235711Y-79597025D01*
X58652597Y-42417378D02*
X58650136Y-42450985D01*
X58635768Y-33925005D02*
X58641703Y-33973242D01*
X67360230Y-40049095D02*
X67363804Y-40097550D01*
X83725877Y-39639871D02*
X83751878Y-39598816D01*
X55649998Y-38848590D02*
X55648554Y-34070421D01*
X30716666Y-80469877D02*
X30715471Y-80518576D01*
X72375716Y-21157428D02*
X72369769Y-21109207D01*
X36513399Y-21983127D02*
X36465994Y-21972476D01*
X20289966Y-47940033D02*
X20256460Y-47904841D01*
X56088448Y-33246909D02*
X56129506Y-33220904D01*
X67269964Y-39722882D02*
X67289652Y-39767302D01*
X35911457Y-61901870D02*
X35883483Y-61862145D01*
X78444122Y-61821825D02*
X78418121Y-61862880D01*
X92232167Y-39044634D02*
X92250440Y-39019750D01*
X21960852Y-53932386D02*
X21973822Y-53979205D01*
X41136600Y-79476872D02*
X41184005Y-79487523D01*
X41933333Y-40147943D02*
X41933333Y-41167057D01*
X41933333Y-80469877D02*
X41932137Y-80518576D01*
X29967216Y-20029671D02*
X30014047Y-20042631D01*
X78509637Y-20611144D02*
X78527125Y-20656480D01*
X72505824Y-21521095D02*
X72481878Y-21478819D01*
X36609769Y-39161936D02*
X36658234Y-39158368D01*
X20749450Y-33109671D02*
X20796861Y-33099025D01*
X78360236Y-59664081D02*
X78390136Y-59702390D01*
X78444175Y-79938904D02*
X78468121Y-79981180D01*
X72366195Y-60244248D02*
X72369769Y-60195793D01*
X92914628Y-68304609D02*
X92870199Y-68284910D01*
X83589771Y-41263169D02*
X83586195Y-41214704D01*
X41875459Y-80803519D02*
X41857971Y-80848855D01*
X36466239Y-39186821D02*
X36513656Y-39176179D01*
X93865012Y-27913152D02*
X93823960Y-27939148D01*
X21563472Y-33246785D02*
X21603196Y-33274754D01*
X30697637Y-61504280D02*
X30686988Y-61551695D01*
X21906484Y-47663083D02*
X21884642Y-47706499D01*
X36078619Y-20224721D02*
X36116926Y-20194826D01*
X92701803Y-53424754D02*
X92741526Y-53396785D01*
X72589763Y-41795918D02*
X72559863Y-41757609D01*
X41838261Y-21436136D02*
X41816410Y-21479542D01*
X93146210Y-33090714D02*
X93194427Y-33084768D01*
X72481900Y-80936681D02*
X72460053Y-80893278D01*
X66798375Y-39251222D02*
X66841772Y-39273072D01*
X55938415Y-33370072D02*
X55973609Y-33336554D01*
X47544477Y-81384637D02*
X47500055Y-81364946D01*
X20796861Y-28060974D02*
X20749450Y-28050328D01*
X55936518Y-27790139D02*
X55903014Y-27754959D01*
X58645397Y-59000220D02*
X58657929Y-59072516D01*
X78583804Y-20941423D02*
X78585000Y-21012698D01*
X84575272Y-39158876D02*
X91992846Y-39159998D01*
X78585000Y-21012698D02*
X78583804Y-21061402D01*
X41708652Y-79819824D02*
X41738542Y-79858129D01*
X35792014Y-59913999D02*
X35811701Y-59869579D01*
X21563472Y-73546785D02*
X21603196Y-73574754D01*
X41838280Y-20566721D02*
X41857971Y-20611144D01*
X83614666Y-21254403D02*
X83604021Y-21206997D01*
X77692176Y-42152395D02*
X77643721Y-42155976D01*
X66520396Y-42148137D02*
X66472176Y-42154092D01*
X94080278Y-53591952D02*
X94110173Y-53630259D01*
X83701878Y-59824483D02*
X83725824Y-59782207D01*
X20796861Y-20019025D02*
X20844737Y-20010718D01*
X47874901Y-39160065D02*
X47923605Y-39158877D01*
X20941423Y-68378804D02*
X20892963Y-68375229D01*
X92333164Y-27330304D02*
X92322527Y-27282882D01*
X93194427Y-33084768D02*
X93242877Y-33081195D01*
X21860694Y-67898791D02*
X21834701Y-67939857D01*
X35759306Y-39859772D02*
X35774551Y-39813629D01*
X41857985Y-41546000D02*
X41838298Y-41590420D01*
X15528530Y-15118462D02*
X15444394Y-15168919D01*
X21436755Y-33175017D02*
X21480152Y-33196856D01*
X30686988Y-60053303D02*
X30697637Y-60100719D01*
X20042631Y-67677380D02*
X20029671Y-67630549D01*
X55843276Y-73780402D02*
X55873170Y-73742082D01*
X94285974Y-67583138D02*
X94275328Y-67630549D01*
X30060296Y-79514037D02*
X30105625Y-79531528D01*
X41857971Y-80848855D02*
X41838280Y-80893278D01*
X77835549Y-81430328D02*
X77788138Y-81440974D01*
X67363804Y-20941423D02*
X67365000Y-20990122D01*
X66753751Y-62225804D02*
X66708409Y-62243289D01*
X56351120Y-33122648D02*
X56397959Y-33109683D01*
X78468121Y-79981180D02*
X78489964Y-80024580D01*
X47189746Y-59626333D02*
X47223246Y-59591142D01*
X93904740Y-27885173D02*
X93865012Y-27913152D01*
X21860695Y-47748791D02*
X21834702Y-47789857D01*
X94164148Y-73861039D02*
X94188099Y-73903318D01*
X20611144Y-20075362D02*
X20656480Y-20057874D01*
X46963005Y-80710549D02*
X46952358Y-80663138D01*
X35746332Y-60052293D02*
X35759290Y-60005466D01*
X41914307Y-80663138D02*
X41903661Y-80710549D01*
X21884641Y-67856500D02*
X21860694Y-67898791D01*
X93508138Y-48210974D02*
X93460262Y-48219281D01*
X20611144Y-28004637D02*
X20566721Y-27984946D01*
X20439987Y-20166847D02*
X20481039Y-20140851D01*
X58708225Y-62427775D02*
X58684411Y-62465981D01*
X55645021Y-42532396D02*
X55646239Y-42482947D01*
X66423431Y-21999935D02*
X66374727Y-22001123D01*
X30711897Y-80349096D02*
X30715471Y-80397551D01*
X35727382Y-60147571D02*
X35735688Y-60099699D01*
X78574281Y-20844737D02*
X78580229Y-20892963D01*
X73114572Y-42128178D02*
X73067735Y-42115223D01*
X15444394Y-15168919D02*
X15365610Y-15227380D01*
X41608233Y-79714334D02*
X41643419Y-79747840D01*
X46938102Y-61410903D02*
X46934528Y-61362448D01*
X66798180Y-21906116D02*
X66753751Y-21925804D01*
X83642874Y-20656480D02*
X83660362Y-20611144D01*
X29726543Y-81460000D02*
X20990122Y-81460000D01*
X66753959Y-42083471D02*
X66708630Y-42100962D01*
X20010718Y-67535262D02*
X20004770Y-67487036D01*
X94138152Y-81020012D02*
X94110173Y-81059740D01*
X55903014Y-27754959D02*
X55871275Y-27718177D01*
X72805064Y-39323974D02*
X72846124Y-39297979D01*
X41409923Y-59419031D02*
X41452209Y-59442979D01*
X36373036Y-59360733D02*
X36419169Y-59345487D01*
X93781681Y-33196900D02*
X93823960Y-33220851D01*
X30641318Y-39767302D02*
X30658803Y-39812634D01*
X67224148Y-80978960D02*
X67198152Y-81020012D01*
X93602380Y-53272631D02*
X93648519Y-53287874D01*
X35717861Y-21060751D02*
X35716666Y-20990122D01*
X83586195Y-20941423D02*
X83589770Y-20892963D01*
X58637796Y-27235530D02*
X58629478Y-27283395D01*
X46952362Y-80255719D02*
X46963011Y-80208304D01*
X67269964Y-80022882D02*
X67289652Y-80067302D01*
X92442397Y-73860871D02*
X92468396Y-73819831D01*
X94110173Y-47829740D02*
X94080278Y-47868047D01*
X67345978Y-80253002D02*
X67354283Y-80300874D01*
X77882497Y-42114511D02*
X77835672Y-42127476D01*
X67224148Y-20481039D02*
X67248099Y-20523318D01*
X22188564Y-62326709D02*
X22160981Y-62339411D01*
X58125152Y-48113143D02*
X58081756Y-48134982D01*
X41928562Y-61409866D02*
X41922613Y-61458096D01*
X41903667Y-41407706D02*
X41890709Y-41454533D01*
X41183760Y-59331820D02*
X41230597Y-59344775D01*
X41708569Y-21640918D02*
X41676825Y-21677713D01*
X56304973Y-73437896D02*
X56351120Y-73422648D01*
X46975957Y-21301230D02*
X46962999Y-21254403D01*
X41857985Y-39769000D02*
X41875470Y-39814331D01*
X92308296Y-27186757D02*
X92304734Y-27138287D01*
X36609490Y-62297395D02*
X36561269Y-62291440D01*
X22261875Y-42157661D02*
X22231990Y-42163044D01*
X21862601Y-73860871D02*
X21886555Y-73903137D01*
X22021709Y-22193564D02*
X22011863Y-22222290D01*
X92912659Y-53305333D02*
X92957987Y-53287852D01*
X92082709Y-22016863D02*
X92053135Y-22009974D01*
X93738278Y-48134946D02*
X93693855Y-48154637D01*
X73067619Y-81417368D02*
X73021480Y-81402125D01*
X72394677Y-80206606D02*
X72407640Y-80159771D01*
X47682906Y-42126482D02*
X47636068Y-42113527D01*
X56539428Y-28075231D02*
X56491211Y-28069285D01*
X83660347Y-59912303D02*
X83680035Y-59867883D01*
X58391987Y-68054959D02*
X58358482Y-68090139D01*
X46934529Y-40100295D02*
X46938104Y-40051831D01*
X92241774Y-79332224D02*
X92258463Y-79306854D01*
X22377356Y-42159989D02*
X22327981Y-42158767D01*
X22110757Y-22072511D02*
X22088208Y-22092850D01*
X21345026Y-28022103D02*
X21298879Y-28037351D01*
X84241369Y-21945963D02*
X84196040Y-21928471D01*
X92468396Y-33519831D02*
X92496377Y-33480116D01*
X72976144Y-20075362D02*
X73021480Y-20057874D01*
X30391449Y-59560283D02*
X30426647Y-59593789D01*
X66520128Y-59314575D02*
X66568010Y-59322876D01*
X36041884Y-39413587D02*
X36078684Y-39381848D01*
X55446717Y-62321258D02*
X55402636Y-62309885D01*
X67269928Y-59870560D02*
X67289623Y-59914986D01*
X66964740Y-81265173D02*
X66925012Y-81293152D01*
X66883960Y-20140851D02*
X66925012Y-20166847D01*
X92420359Y-47706499D02*
X92398516Y-47663083D01*
X30316478Y-41963997D02*
X30276757Y-41991977D01*
X30674026Y-60006468D02*
X30686988Y-60053303D01*
X36373036Y-21944265D02*
X36327707Y-21926774D01*
X58423725Y-47868177D02*
X58391986Y-47904959D01*
X20611144Y-33155362D02*
X20656480Y-33137874D01*
X20019025Y-33876861D02*
X20029671Y-33829450D01*
X73257823Y-62297395D02*
X73209603Y-62291441D01*
X66925090Y-41991976D02*
X66884044Y-42017974D01*
X30621631Y-39722883D02*
X30641318Y-39767302D01*
X56349119Y-28037384D02*
X56302988Y-28022147D01*
X67108539Y-81134841D02*
X67075033Y-81170033D01*
X78418121Y-61862880D02*
X78390136Y-61902610D01*
X20481039Y-27939148D02*
X20439987Y-27913152D01*
X46938104Y-40051831D02*
X46944053Y-40003600D01*
X35857517Y-80978960D02*
X35833567Y-80936681D01*
X78489928Y-59868863D02*
X78509623Y-59913289D01*
X78527136Y-39814331D02*
X78542376Y-39860466D01*
X41676872Y-81134841D02*
X41643366Y-81170033D01*
X35941347Y-21640175D02*
X35911457Y-21601870D01*
X55527632Y-22063525D02*
X55502291Y-22046793D01*
X35735688Y-60099699D02*
X35746332Y-60052293D01*
X92111435Y-22026709D02*
X92082709Y-22016863D01*
X55704399Y-67723739D02*
X55689149Y-67677613D01*
X93648519Y-33137874D02*
X93693855Y-33155362D01*
X72726952Y-20224721D02*
X72765259Y-20194826D01*
X66615672Y-79485825D02*
X66662497Y-79498790D01*
X20796861Y-33099025D02*
X20844737Y-33090718D01*
X92470299Y-47789857D02*
X92444305Y-47748791D01*
X20400259Y-73574826D02*
X20439987Y-73546847D01*
X22011863Y-42372290D02*
X22004974Y-42401864D01*
X83642863Y-59957634D02*
X83660347Y-59912303D01*
X30193438Y-42041927D02*
X30150042Y-42063777D01*
X83604021Y-61506997D02*
X83595716Y-61459125D01*
X36041825Y-81203539D02*
X36006633Y-81170033D01*
X83586195Y-40100294D02*
X83589771Y-40051830D01*
X36156731Y-79623975D02*
X36197790Y-79597980D01*
X67002982Y-59528545D02*
X67039782Y-59560284D01*
X30060186Y-20057874D02*
X30105522Y-20075362D01*
X30549787Y-59743816D02*
X30575788Y-59784871D01*
X92165173Y-79405161D02*
X92189634Y-79387167D01*
X21060031Y-28078804D02*
X21011322Y-28080000D01*
X41410105Y-39274770D02*
X41452377Y-39298722D01*
X41676825Y-59627285D02*
X41708569Y-59664081D01*
X58505696Y-33561208D02*
X58529642Y-33603499D01*
X20224721Y-20361952D02*
X20256460Y-20325158D01*
X78527125Y-20656480D02*
X78542368Y-20702619D01*
X41933333Y-61312697D02*
X41932137Y-61361401D01*
X58671521Y-62494034D02*
X58658044Y-62536990D01*
X20057874Y-67723519D02*
X20042631Y-67677380D01*
X58645006Y-38848085D02*
X58645409Y-38860439D01*
X92124927Y-79427500D02*
X92165173Y-79405161D01*
X93781681Y-68263099D02*
X93738278Y-68284946D01*
X78103875Y-21862020D02*
X78061590Y-21885968D01*
X72976040Y-21926774D02*
X72931624Y-21907080D01*
X41493424Y-41990280D02*
X41452377Y-42016278D01*
X94164148Y-33561039D02*
X94188099Y-33603318D01*
X20523318Y-81343099D02*
X20481039Y-81319148D01*
X56086527Y-27913214D02*
X56046803Y-27885245D01*
X84575122Y-81460000D02*
X84526423Y-81458804D01*
X72765259Y-81265173D02*
X72726952Y-81235278D01*
X83751816Y-59741157D02*
X83779790Y-59701432D01*
X30686994Y-20749450D02*
X30697641Y-20796861D01*
X58551485Y-73946916D02*
X58571170Y-73991351D01*
X92320522Y-54026604D02*
X92331179Y-53979205D01*
X20481039Y-81319148D02*
X20439987Y-81293152D01*
X77928519Y-20057874D02*
X77973855Y-20075362D01*
X67002982Y-62076455D02*
X66964669Y-62106349D01*
X57990028Y-33137896D02*
X58035371Y-33155390D01*
X77973751Y-62227501D02*
X77928409Y-62244986D01*
X72365000Y-80447301D02*
X72366195Y-80398597D01*
X94294281Y-74224737D02*
X94300229Y-74272963D01*
X92301445Y-34069823D02*
X92302654Y-34021133D01*
X78585000Y-80469877D02*
X78583804Y-80518576D01*
X78574283Y-80302571D02*
X78580230Y-80350792D01*
X56129506Y-73520904D02*
X56171791Y-73496944D01*
X30354648Y-62076454D02*
X30316335Y-62106348D01*
X20325158Y-53486460D02*
X20361952Y-53454721D01*
X47544581Y-39234196D02*
X47589923Y-39216711D01*
X21390369Y-28004609D02*
X21345026Y-28022103D01*
X20010718Y-27235262D02*
X20004770Y-27187036D01*
X55638275Y-62522777D02*
X55628478Y-62494034D01*
X72931624Y-59397920D02*
X72976040Y-59378226D01*
X35857491Y-21521095D02*
X35833545Y-21478819D01*
X47258550Y-39415284D02*
X47295351Y-39383545D01*
X41903655Y-61553392D02*
X41890693Y-61600227D01*
X21478208Y-27963055D02*
X21434799Y-27984910D01*
X58605852Y-27377613D02*
X58590601Y-27423739D01*
X92784505Y-27939095D02*
X92743447Y-27913090D01*
X72440347Y-61691000D02*
X72422863Y-61645668D01*
X41040370Y-20004770D02*
X41088596Y-20010718D01*
X36658234Y-79458368D02*
X36706939Y-79457179D01*
X41452293Y-20140851D02*
X41493346Y-20166847D01*
X83585000Y-61313754D02*
X83585000Y-60291246D01*
X21713481Y-73669860D02*
X21746985Y-73705040D01*
X55653296Y-54123242D02*
X55659232Y-54075005D01*
X58479702Y-73820142D02*
X58505696Y-73861208D01*
X93979841Y-73636460D02*
X94015033Y-73669966D01*
X78444148Y-80978960D02*
X78418152Y-81020012D01*
X21808620Y-73780116D02*
X21836601Y-73819831D01*
X93508138Y-68360974D02*
X93460262Y-68369281D01*
X72804909Y-59469720D02*
X72845955Y-59443722D01*
X47414373Y-81319148D02*
X47373320Y-81293152D01*
X35883514Y-20439987D02*
X35911493Y-20400259D01*
X56213244Y-27984982D02*
X56169847Y-27963143D01*
X58957153Y-22000001D02*
X58944560Y-22000409D01*
X93943047Y-73604721D02*
X93979841Y-73636460D01*
X93363576Y-68378804D02*
X93293676Y-68380000D01*
X29967338Y-79485826D02*
X30014164Y-79498791D01*
X67039900Y-79712637D02*
X67075086Y-79746142D01*
X93738278Y-20095053D02*
X93781681Y-20116900D01*
X58797708Y-39113206D02*
X58839034Y-39133478D01*
X92288136Y-62522290D02*
X92278290Y-62493564D01*
X84151819Y-42061115D02*
X84108409Y-42039271D01*
X30641304Y-20611144D02*
X30658792Y-20656480D01*
X30521839Y-20400259D02*
X30549819Y-20439987D01*
X73021369Y-21944266D02*
X72976040Y-21926774D01*
X41493424Y-39324720D02*
X41533145Y-39352700D01*
X21254059Y-53259660D02*
X21300882Y-53272615D01*
X73355272Y-42157820D02*
X73306568Y-42156631D01*
X92418442Y-73903137D02*
X92442397Y-73860871D01*
X35973127Y-20325158D02*
X36006633Y-20289966D01*
X36116926Y-20194826D02*
X36156653Y-20166847D01*
X20140851Y-27598960D02*
X20116900Y-27556681D01*
X78574283Y-41312427D02*
X78565978Y-41360299D01*
X56587879Y-28078804D02*
X56539428Y-28075231D01*
X94275328Y-74129450D02*
X94285974Y-74176861D01*
X92824846Y-73496856D02*
X92868242Y-73475017D01*
X84066124Y-79599676D02*
X84108409Y-79575728D01*
X67269928Y-21434440D02*
X67248077Y-21477846D01*
X29823843Y-79460907D02*
X29872063Y-79466861D01*
X22003555Y-54219823D02*
X22004978Y-58927603D01*
X93412036Y-28075229D02*
X93363576Y-28078804D01*
X29775388Y-42157674D02*
X29726693Y-42158877D01*
X41230714Y-81417368D02*
X41183882Y-81430328D01*
X58505696Y-73861208D02*
X58529642Y-73903499D01*
X35973080Y-61976968D02*
X35941347Y-61940175D01*
X20289966Y-53519966D02*
X20325158Y-53486460D01*
X94303804Y-54171423D02*
X94305000Y-54220122D01*
X98776469Y-15118462D02*
X98687793Y-15076495D01*
X72375716Y-60147572D02*
X72384021Y-60099700D01*
X56048716Y-33274899D02*
X56088448Y-33246909D01*
X58645265Y-34021712D02*
X58646446Y-34070421D01*
X41366514Y-21907812D02*
X41322084Y-21927501D01*
X92591517Y-73669860D02*
X92626707Y-73636366D01*
X29823843Y-39160907D02*
X29872063Y-39166861D01*
X40943060Y-22002820D02*
X36706639Y-22002179D01*
X20702619Y-81417368D02*
X20656480Y-81402125D01*
X41857956Y-21391710D02*
X41838261Y-21436136D01*
X99011718Y-15292934D02*
X98939010Y-15227069D01*
X92418443Y-53753137D02*
X92442398Y-53710871D01*
X93904740Y-20194826D02*
X93943047Y-20224721D01*
X41738542Y-79858129D02*
X41766516Y-79897854D01*
X36041766Y-21745665D02*
X36006580Y-21712159D01*
X92304736Y-47288287D02*
X92303555Y-47239578D01*
X30391449Y-21744715D02*
X30354648Y-21776454D01*
X47189841Y-79783983D02*
X47223352Y-79748790D01*
X58684176Y-22166431D02*
X58666422Y-22207802D01*
X35911529Y-41757610D02*
X35883545Y-41717880D01*
X73021590Y-79515013D02*
X73067735Y-79499775D01*
X22001445Y-27089578D02*
X22000263Y-27138287D01*
X84478103Y-39163632D02*
X84526568Y-39160064D01*
X30697641Y-20796861D02*
X30705948Y-20844737D01*
X35746344Y-41408393D02*
X35735695Y-41360978D01*
X21982470Y-27282882D02*
X21971834Y-27330304D01*
X66375027Y-42158876D02*
X59027340Y-42159987D01*
X30599788Y-41635517D02*
X30575841Y-41677793D01*
X21060031Y-68378804D02*
X21011322Y-68380000D01*
X46934529Y-80400295D02*
X46938104Y-80351831D01*
X55649291Y-62589805D02*
X55645114Y-62552363D01*
X92359399Y-53886259D02*
X92376894Y-53840937D01*
X72366195Y-80518576D02*
X72365000Y-80447301D01*
X55873170Y-33442082D02*
X55904908Y-33405276D01*
X36466117Y-20029671D02*
X36513527Y-20019025D01*
X94209946Y-73946721D02*
X94229637Y-73991144D01*
X30193438Y-39273072D02*
X30235711Y-39297025D01*
X20019025Y-47433138D02*
X20010718Y-47385262D01*
X84066124Y-42015322D02*
X84025064Y-41989327D01*
X92306242Y-33972684D02*
X92312203Y-33924469D01*
X84575272Y-42156123D02*
X84526568Y-42154934D01*
X15019561Y-15804728D02*
X15005094Y-15902256D01*
X47050233Y-20523318D02*
X47074184Y-20481039D01*
X21480154Y-53346856D02*
X21522427Y-53370798D01*
X47778204Y-39169575D02*
X47826436Y-39163633D01*
X78509652Y-80068999D02*
X78527136Y-80114331D01*
X92361348Y-67723299D02*
X92346114Y-67677148D01*
X72589680Y-21640176D02*
X72559790Y-21601871D01*
X78574281Y-80615262D02*
X78565974Y-80663138D01*
X58246282Y-53424899D02*
X58284593Y-53454805D01*
X66924935Y-21834328D02*
X66883875Y-21860323D01*
X55936518Y-68090139D02*
X55903014Y-68054959D01*
X46938104Y-80351831D02*
X46944053Y-80303600D01*
X72366195Y-20941423D02*
X72369770Y-20892963D01*
X94294281Y-67535262D02*
X94285974Y-67583138D01*
X83946887Y-59525899D02*
X83985188Y-59496003D01*
X92288275Y-22222777D02*
X92272500Y-22180072D01*
X72655019Y-41867906D02*
X72621507Y-41832713D01*
X30715470Y-60245294D02*
X30716666Y-60293999D01*
X21776830Y-47867917D02*
X21745092Y-47904723D01*
X93555549Y-68350328D02*
X93508138Y-68360974D01*
X35774551Y-41501371D02*
X35759306Y-41455228D01*
X78418121Y-21562880D02*
X78390136Y-21602610D01*
X84575122Y-20000000D02*
X93314877Y-20000000D01*
X35774540Y-80803519D02*
X35759298Y-80757380D01*
X66472176Y-42154092D02*
X66423721Y-42157673D01*
X66883960Y-81319148D02*
X66841681Y-81343099D01*
X21390370Y-48154609D02*
X21345027Y-48172103D01*
X58421831Y-73742082D02*
X58451725Y-73780402D01*
X83589769Y-61410904D02*
X83586195Y-61362449D01*
X78542376Y-39860466D02*
X78555333Y-39907293D01*
X94110173Y-81059740D02*
X94080278Y-81098047D01*
X22003553Y-74369823D02*
X22004975Y-79077633D01*
X93460262Y-48219281D02*
X93412036Y-48225229D01*
X72621413Y-61976969D02*
X72589680Y-61940176D01*
X83875019Y-79748789D02*
X83910217Y-79715283D01*
X20749450Y-73409671D02*
X20796861Y-73399025D01*
X57753499Y-53234771D02*
X57801734Y-53240722D01*
X99299905Y-85557743D02*
X99305000Y-85447727D01*
X22122775Y-59246774D02*
X22161431Y-59270823D01*
X84287619Y-81417368D02*
X84241480Y-81402125D01*
X72655019Y-39447092D02*
X72690217Y-39413586D01*
X66708630Y-42100962D02*
X66662497Y-42116208D01*
X84477823Y-21999092D02*
X84429603Y-21993138D01*
X58206552Y-33246909D02*
X58246284Y-33274899D01*
X58944560Y-22000409D02*
X58901831Y-22008953D01*
X41676919Y-79783031D02*
X41708652Y-79819824D01*
X94048539Y-81134841D02*
X94015033Y-81170033D01*
X67335333Y-80205596D02*
X67345978Y-80253002D01*
X92300001Y-58998741D02*
X92301446Y-54219823D01*
X55388124Y-59302338D02*
X55417516Y-59297070D01*
X20042631Y-74082619D02*
X20057874Y-74036480D01*
X67322359Y-21298531D02*
X67307114Y-21344674D01*
X30575815Y-20481039D02*
X30599766Y-20523318D01*
X77740396Y-39168558D02*
X77788267Y-39176871D01*
X78018375Y-42062079D02*
X77973959Y-42081773D01*
X41230597Y-59344775D02*
X41276743Y-59360013D01*
X58658044Y-22236990D02*
X58652597Y-22267378D01*
X36419169Y-62259511D02*
X36373036Y-62244265D01*
X72531847Y-20439987D02*
X72559826Y-20400259D01*
X55622288Y-79280387D02*
X55638275Y-79237222D01*
X67248121Y-41635516D02*
X67224175Y-41677792D01*
X41230714Y-20042631D02*
X41276853Y-20057874D01*
X55615588Y-42315981D02*
X55600161Y-42289826D01*
X20000000Y-54220122D02*
X20001195Y-54171423D01*
X93738278Y-81364946D02*
X93693855Y-81384637D01*
X21836601Y-33519831D02*
X21862601Y-33560871D01*
X98402743Y-15005094D02*
X98292727Y-15000000D01*
X55446717Y-59288741D02*
X55474927Y-59277500D01*
X22004974Y-22251864D02*
X22000139Y-22300914D01*
X58391986Y-47904959D02*
X58358481Y-47940139D01*
X36239894Y-62185229D02*
X36197622Y-62161277D01*
X67322376Y-39858769D02*
X67335333Y-39905596D01*
X30316335Y-21806348D02*
X30276601Y-21834327D01*
X21522425Y-33220798D02*
X21563472Y-33246785D01*
X77643576Y-81458804D02*
X77594877Y-81460000D01*
X92165173Y-42204838D02*
X92139018Y-42189411D01*
X72440347Y-59914000D02*
X72460035Y-59869580D01*
X41914307Y-20796861D02*
X41922615Y-20844737D01*
X72559790Y-21601871D02*
X72531816Y-21562145D01*
X92232488Y-42265757D02*
X92212149Y-42243208D01*
X20004770Y-54122963D02*
X20010718Y-54074737D01*
X58699559Y-22140249D02*
X58684176Y-22166431D01*
X66964740Y-20194826D02*
X67003047Y-20224721D01*
X22003553Y-34069823D02*
X22004975Y-38777633D01*
X72531816Y-21562145D02*
X72505824Y-21521095D01*
X21520494Y-48089095D02*
X21478209Y-48113055D01*
X55432222Y-22016724D02*
X55403135Y-22009974D01*
X47295351Y-39383545D02*
X47333664Y-39353651D01*
X20325158Y-81203539D02*
X20289966Y-81170033D01*
X94262368Y-80757380D02*
X94247125Y-80803519D01*
X56349117Y-48187384D02*
X56302986Y-48172147D01*
X92067516Y-59297070D02*
X92096717Y-59288741D01*
X93648519Y-20057874D02*
X93693855Y-20075362D01*
X55743516Y-73946916D02*
X55765358Y-73903499D01*
X30521803Y-21600912D02*
X30491903Y-21639221D01*
X78489928Y-61736137D02*
X78468077Y-61779543D01*
X73067619Y-20042631D02*
X73114450Y-20029671D01*
X58645265Y-74321712D02*
X58646446Y-74370421D01*
X78145090Y-39324719D02*
X78184811Y-39352700D01*
X41890701Y-80757380D02*
X41875459Y-80803519D01*
X55667529Y-33877117D02*
X55678165Y-33829695D01*
X41676872Y-20325158D02*
X41708611Y-20361952D01*
X84287735Y-42113526D02*
X84241590Y-42098288D01*
X20000000Y-20990122D02*
X20001195Y-20941423D01*
X94247125Y-53886480D02*
X94262368Y-53932619D01*
X93781681Y-81343099D02*
X93738278Y-81364946D01*
X20224721Y-33441952D02*
X20256460Y-33405158D01*
X22034411Y-62465981D02*
X22021709Y-62493564D01*
X78328492Y-59627286D02*
X78360236Y-59664081D01*
X73257963Y-20004770D02*
X73306423Y-20001195D01*
X83725851Y-20481039D02*
X83751847Y-20439987D01*
X55689149Y-67677613D02*
X55676180Y-67630794D01*
X55600161Y-42289826D02*
X55572604Y-42254225D01*
X30354779Y-39380899D02*
X30391566Y-39412637D01*
X78259782Y-21746413D02*
X78222982Y-21778152D01*
X58035371Y-73455390D02*
X58079800Y-73475089D01*
X20481039Y-53370851D02*
X20523318Y-53346900D01*
X94285974Y-54026861D02*
X94294281Y-54074737D01*
X92665406Y-48005194D02*
X92628610Y-47973445D01*
X93363576Y-73381195D02*
X93412036Y-73384770D01*
X20400259Y-48035173D02*
X20361952Y-48005278D01*
X77928519Y-81402125D02*
X77882380Y-81417368D01*
X20990122Y-81460000D02*
X20941423Y-81458804D01*
X58531557Y-67856862D02*
X58507602Y-67899128D01*
X77692176Y-39162604D02*
X77740396Y-39168558D01*
X55633741Y-59101717D02*
X55645025Y-59058135D01*
X41276963Y-39215734D02*
X41322292Y-39233225D01*
X93823960Y-81319148D02*
X93781681Y-81343099D01*
X47008695Y-80848855D02*
X46991207Y-80803519D01*
X94015033Y-27790033D02*
X93979841Y-27823539D01*
X21746985Y-73705040D02*
X21778724Y-73741822D01*
X92912658Y-33155333D02*
X92957986Y-33137852D01*
X30674042Y-41456231D02*
X30658803Y-41502366D01*
X20000000Y-47239877D02*
X20000000Y-34070122D01*
X30105625Y-39231528D02*
X30150042Y-39251223D01*
X35811738Y-41591137D02*
X35792043Y-41546710D01*
X20439987Y-81293152D02*
X20400259Y-81265173D01*
X92442398Y-53710871D02*
X92468397Y-53669831D01*
X98606839Y-15047194D02*
X98511994Y-15022196D01*
X77928409Y-62244986D02*
X77882264Y-62260224D01*
X47258433Y-59557637D02*
X47295220Y-59525898D01*
X47636068Y-39201473D02*
X47682906Y-39188518D01*
X46933333Y-61313753D02*
X46933333Y-60291245D01*
X92303553Y-27089578D02*
X92304708Y-22300525D01*
X83585000Y-41166000D02*
X83585000Y-40148998D01*
X47730323Y-42137123D02*
X47682906Y-42126482D01*
X66798375Y-42063776D02*
X66753959Y-42083471D01*
X20611144Y-73455362D02*
X20656480Y-73437874D01*
X67224175Y-41677792D02*
X67198183Y-41718842D01*
X20844737Y-48219281D02*
X20796861Y-48210974D01*
X93004118Y-53272615D02*
X93050941Y-53259660D01*
X77643576Y-20001195D02*
X77692036Y-20004770D01*
X41088730Y-39168559D02*
X41136600Y-39176872D01*
X92222604Y-62404225D02*
X92200774Y-62382395D01*
X77835549Y-20029671D02*
X77882380Y-20042631D01*
X36373146Y-20057874D02*
X36419285Y-20042631D01*
X35857544Y-41676825D02*
X35833589Y-41634543D01*
X56171790Y-53346944D02*
X56215199Y-53325089D01*
X30316478Y-39351003D02*
X30354779Y-39380899D01*
X21641499Y-33304638D02*
X21678290Y-33336366D01*
X58421831Y-33442082D02*
X58451725Y-33480402D01*
X21434800Y-48134910D02*
X21390370Y-48154609D01*
X47100212Y-79898817D02*
X47128196Y-79859087D01*
X20361952Y-27855278D02*
X20325158Y-27823539D01*
X91992846Y-39159998D02*
X92005439Y-39159590D01*
X47223246Y-62013856D02*
X47189746Y-61978665D01*
X41708569Y-59664081D02*
X41738470Y-59702389D01*
X78061772Y-79574769D02*
X78104044Y-79598722D01*
X99282860Y-15793243D02*
X99261577Y-15709568D01*
X55649735Y-54171712D02*
X55653296Y-54123242D01*
X92526274Y-53591822D02*
X92558013Y-53555040D01*
X67108492Y-59628983D02*
X67140236Y-59665778D01*
X41230597Y-21960223D02*
X41183760Y-21973178D01*
X56589967Y-53231195D02*
X56638676Y-53230000D01*
X78580229Y-80567036D02*
X78574281Y-80615262D01*
X55591774Y-59182224D02*
X55608463Y-59156854D01*
X93244967Y-68378804D02*
X93196498Y-68375228D01*
X92912658Y-73455333D02*
X92957986Y-73437852D01*
X57658431Y-48230000D02*
X56636567Y-48230000D01*
X72589680Y-59664824D02*
X72621413Y-59628031D01*
X55649736Y-34021712D02*
X55653297Y-33973242D01*
X78574279Y-21158097D02*
X78565970Y-21205978D01*
X94164148Y-80978960D02*
X94138152Y-81020012D01*
X94229637Y-47618855D02*
X94209946Y-47663278D01*
X92626707Y-73636366D02*
X92663498Y-73604638D01*
X58944560Y-62300409D02*
X58901831Y-62308953D01*
X92272500Y-22180072D02*
X92250161Y-22139826D01*
X94110173Y-67979740D02*
X94080278Y-68018047D01*
X30711897Y-40049096D02*
X30715471Y-40097551D01*
X36156575Y-59469719D02*
X36197622Y-59443721D01*
X73067502Y-21959512D02*
X73021369Y-21944266D01*
X55502291Y-22046793D02*
X55460965Y-22026521D01*
X78103960Y-20140851D02*
X78145012Y-20166847D01*
X47158096Y-39520778D02*
X47189841Y-39483983D01*
X21711584Y-27789927D02*
X21676390Y-27823445D01*
X92165173Y-22054838D02*
X92139018Y-22039411D01*
X21945600Y-74036260D02*
X21960850Y-74082386D01*
X78360278Y-81098047D02*
X78328539Y-81134841D01*
X21998757Y-54122684D02*
X22002345Y-54171133D01*
X94015033Y-81170033D02*
X93979841Y-81203539D01*
X36373146Y-81402125D02*
X36327811Y-81384637D01*
X30013931Y-62258526D02*
X29967093Y-62271481D01*
X84241590Y-79516710D02*
X84287735Y-79501472D01*
X35811701Y-59869579D02*
X35833545Y-59826180D01*
X15022196Y-85666994D02*
X15047194Y-85761839D01*
X55551150Y-22082734D02*
X55527632Y-22063525D01*
X73355272Y-79457178D02*
X77595027Y-79457820D01*
X92212149Y-42243208D02*
X92189634Y-42222832D01*
X56046801Y-48035245D02*
X56008498Y-48005361D01*
X36419169Y-21959511D02*
X36373036Y-21944265D01*
X77973855Y-20075362D02*
X78018278Y-20095053D01*
X55527224Y-62363225D02*
X55488568Y-62339176D01*
X59027340Y-42159987D02*
X58977971Y-42158766D01*
X46944049Y-61459125D02*
X46938102Y-61410903D01*
X40943360Y-79457820D02*
X40992055Y-79459023D01*
X22067832Y-22115365D02*
X22049838Y-22139826D01*
X20481039Y-20140851D02*
X20523318Y-20116900D01*
X30426700Y-20289966D02*
X30460206Y-20325158D01*
X21011322Y-68380000D02*
X20941423Y-68378804D01*
X20057874Y-27423519D02*
X20042631Y-27377380D01*
X84065955Y-21862975D02*
X84024909Y-21836977D01*
X93363576Y-20001195D02*
X93412036Y-20004770D01*
X92241774Y-62427775D02*
X92222604Y-62404225D01*
X83595720Y-41311399D02*
X83589771Y-41263169D01*
X58629478Y-67583395D02*
X58618821Y-67630794D01*
X46991218Y-80115326D02*
X47008709Y-80069987D01*
X93865012Y-53396847D02*
X93904740Y-53424826D01*
X55591774Y-79332224D02*
X55608206Y-79307291D01*
X20523318Y-73496900D02*
X20566721Y-73475053D01*
X55373015Y-42156112D02*
X55343755Y-42155001D01*
X41928564Y-40050793D02*
X41932138Y-40099248D01*
X41838261Y-59868862D02*
X41857956Y-59913289D01*
X41643419Y-79747840D02*
X41676919Y-79783031D01*
X92824847Y-53346856D02*
X92868243Y-53325017D01*
X58956170Y-79455000D02*
X66375027Y-79456123D01*
X73114327Y-59332523D02*
X73161732Y-59321872D01*
X41738542Y-41756871D02*
X41708652Y-41795176D01*
X58645263Y-54171712D02*
X58646444Y-54220421D01*
X58453621Y-47829883D02*
X58423725Y-47868177D01*
X55651244Y-27187315D02*
X55647656Y-27138866D01*
X78444122Y-21521825D02*
X78418121Y-21562880D01*
X21522427Y-53370798D02*
X21563474Y-53396785D01*
X36283485Y-39252187D02*
X36327915Y-39232498D01*
X22305818Y-62300315D02*
X22232483Y-62312929D01*
X30105418Y-62225803D02*
X30060076Y-62243288D01*
X92468396Y-73819831D02*
X92496377Y-73780116D01*
X77643431Y-22001632D02*
X77594727Y-22002821D01*
X84287502Y-59343791D02*
X84334327Y-59330826D01*
X41452209Y-59442979D02*
X41493268Y-59468974D01*
X20361952Y-20224721D02*
X20400259Y-20194826D01*
X41184005Y-42127477D02*
X41136600Y-42138128D01*
X55645024Y-22382366D02*
X55648935Y-22282584D01*
X67198183Y-41718842D02*
X67170209Y-41758567D01*
X35833589Y-39680457D02*
X35857544Y-39638175D01*
X67075086Y-39446142D02*
X67108586Y-39481333D01*
X29823703Y-81455229D02*
X29775243Y-81458804D01*
X78489928Y-21436137D02*
X78468077Y-21479543D01*
X35716666Y-80447302D02*
X35717862Y-80398598D01*
X55572604Y-42254225D02*
X55550774Y-42232395D01*
X46975973Y-80161469D02*
X46991218Y-80115326D01*
X72440376Y-80068288D02*
X72460071Y-80023862D01*
X47074211Y-39639872D02*
X47100212Y-39598817D01*
X83725877Y-41675127D02*
X83701922Y-41632845D01*
X29775388Y-79457326D02*
X29823843Y-79460907D01*
X35716666Y-41167698D02*
X35716666Y-40147302D01*
X20224721Y-53591952D02*
X20256460Y-53555158D01*
X41322292Y-42081774D02*
X41276963Y-42099266D01*
X78574283Y-40002571D02*
X78580230Y-40050792D01*
X21886557Y-53753137D02*
X21908410Y-53796527D01*
X93412036Y-68375229D02*
X93363576Y-68378804D01*
X30491903Y-61939221D02*
X30460158Y-61976016D01*
X67345974Y-20796861D02*
X67354281Y-20844737D01*
X35857491Y-61821095D02*
X35833545Y-61778819D01*
X72888227Y-21885230D02*
X72845955Y-21861277D01*
X21480152Y-73496856D02*
X21522425Y-73520798D01*
X41890709Y-39860466D02*
X41903667Y-39907293D01*
X72690099Y-62045665D02*
X72654913Y-62012160D01*
X47636068Y-79501473D02*
X47682906Y-79488518D01*
X20019025Y-74176861D02*
X20029671Y-74129450D01*
X66883875Y-21860323D02*
X66841590Y-21884271D01*
X55973609Y-73636554D02*
X56010406Y-73604804D01*
X78018278Y-81364946D02*
X77973855Y-81384637D01*
X92283577Y-38952197D02*
X92291955Y-38923009D01*
X41452377Y-42016278D02*
X41410105Y-42040230D01*
X47223299Y-20289966D02*
X47258491Y-20256460D01*
X66520128Y-62290425D02*
X66471896Y-62296367D01*
X67140278Y-81098047D02*
X67108539Y-81134841D01*
X78259900Y-39414334D02*
X78295086Y-39447839D01*
X35735688Y-61505299D02*
X35727382Y-61457427D01*
X92250161Y-22139826D02*
X92232167Y-22115365D01*
X78565970Y-21205978D02*
X78555322Y-21253393D01*
X93602380Y-20042631D02*
X93648519Y-20057874D01*
X92663498Y-73604638D02*
X92701802Y-73574754D01*
X66615427Y-21971482D02*
X66568010Y-21982123D01*
X22011724Y-38937222D02*
X22021709Y-38966435D01*
X58167425Y-48089201D02*
X58125152Y-48113143D01*
X84241590Y-39216710D02*
X84287735Y-39201472D01*
X58481603Y-67940168D02*
X58453622Y-67979883D01*
X20256460Y-27754841D02*
X20224721Y-27718047D01*
X30276601Y-59470671D02*
X30316335Y-59498650D01*
X30391449Y-62044715D02*
X30354648Y-62076454D01*
X55488568Y-62339176D02*
X55446717Y-62321258D01*
X84574972Y-22003876D02*
X84526278Y-22002674D01*
X41838298Y-41590420D02*
X41816454Y-41633819D01*
X67354279Y-60148600D02*
X67360228Y-60196830D01*
X58603883Y-53932851D02*
X58616833Y-53979695D01*
X20566721Y-81364946D02*
X20523318Y-81343099D01*
X57803788Y-48219285D02*
X57755571Y-48225231D01*
X30599788Y-39679483D02*
X30621631Y-39722883D01*
X84429603Y-59311862D02*
X84477823Y-59305907D01*
X41766454Y-21562879D02*
X41738470Y-21602609D01*
X92300001Y-79148741D02*
X92301445Y-74369823D01*
X58618821Y-27330794D02*
X58605852Y-27377613D01*
X15162221Y-15454956D02*
X15118231Y-15528963D01*
X92361348Y-27423299D02*
X92346114Y-27377148D01*
X83841507Y-39483982D02*
X83875019Y-39448789D01*
X35727386Y-40001903D02*
X35735695Y-39954022D01*
X58035369Y-53305390D02*
X58079798Y-53325089D01*
X67345970Y-61504281D02*
X67335322Y-61551696D01*
X57849622Y-73399032D02*
X57897041Y-73409683D01*
X21561552Y-48063090D02*
X21520494Y-48089095D01*
X47128160Y-81059740D02*
X47100180Y-81020012D01*
X94300229Y-80567036D02*
X94294281Y-80615262D01*
X72369771Y-41264866D02*
X72366195Y-41216401D01*
X15071985Y-15628871D02*
X15043422Y-15709568D01*
X93979841Y-81203539D02*
X93943047Y-81235278D01*
X36465994Y-62272476D02*
X36419169Y-62259511D01*
X15606222Y-86378632D02*
X15628871Y-86388014D01*
X72481922Y-41634542D02*
X72460071Y-41591136D01*
X21641501Y-53454638D02*
X21678292Y-53486366D01*
X72846039Y-81319148D02*
X72804987Y-81293152D01*
X92189634Y-79387167D02*
X92211791Y-79367149D01*
X36197706Y-20140851D02*
X36239985Y-20116900D01*
X47128196Y-39559087D02*
X47158096Y-39520778D01*
X72727017Y-39381847D02*
X72765330Y-39351952D01*
X56589968Y-33081195D02*
X56638677Y-33080000D01*
X72888409Y-39274031D02*
X72931819Y-39252186D01*
X30687000Y-80205596D02*
X30697644Y-80253003D01*
X66615549Y-20029671D02*
X66662380Y-20042631D01*
X35883545Y-39597120D02*
X35911529Y-39557390D01*
X92222604Y-59205774D02*
X92241774Y-59182224D01*
X30711895Y-60196830D02*
X30715470Y-60245294D01*
X46975973Y-41453531D02*
X46963011Y-41406696D01*
X30575788Y-59784871D02*
X30599743Y-59827153D01*
X35727382Y-21157427D02*
X35721435Y-21109206D01*
X55646239Y-42482947D02*
X55649291Y-42439805D01*
X72931721Y-81364946D02*
X72888318Y-81343099D01*
X92468397Y-53669831D02*
X92496378Y-53630116D01*
X92378829Y-27468648D02*
X92361348Y-27423299D01*
X92124927Y-59277500D02*
X92151854Y-59263463D01*
X22077395Y-39055774D02*
X22098849Y-39077265D01*
X83627640Y-39861468D02*
X83642885Y-39815325D01*
X36466239Y-79486821D02*
X36513656Y-79476179D01*
X66883875Y-59444677D02*
X66924935Y-59470672D01*
X36373036Y-62244265D02*
X36327707Y-62226774D01*
X72621413Y-59628031D02*
X72654913Y-59592840D01*
X30621631Y-41592117D02*
X30599788Y-41635517D01*
X56129506Y-33220904D02*
X56171791Y-33196944D01*
X83947017Y-41931454D02*
X83910217Y-41899715D01*
X55691115Y-53932851D02*
X55706349Y-53886700D01*
X21254057Y-33109660D02*
X21300880Y-33122615D01*
X47778070Y-81449281D02*
X47730194Y-81440974D01*
X72727017Y-79681847D02*
X72765330Y-79651952D01*
X20844737Y-68369281D02*
X20796861Y-68360974D01*
X40992055Y-79459023D02*
X41040509Y-79462604D01*
X92361350Y-47573299D02*
X92346116Y-47527148D01*
X20042631Y-53932619D02*
X20057874Y-53886480D01*
X20749450Y-28050328D02*
X20702619Y-28037368D01*
X92306243Y-54122684D02*
X92312204Y-54074469D01*
X92344147Y-33782386D02*
X92359398Y-33736260D01*
X55813396Y-47790168D02*
X55787396Y-47749128D01*
X47128160Y-20400259D02*
X47158055Y-20361952D01*
X36419402Y-79499776D02*
X36466239Y-79486821D01*
X78184669Y-21808047D02*
X78144935Y-21836025D01*
X41816454Y-39681180D02*
X41838298Y-39724580D01*
X77788138Y-81440974D02*
X77740262Y-81449281D01*
X35941388Y-20361952D02*
X35973127Y-20325158D01*
X72531878Y-41717879D02*
X72505877Y-41676824D01*
X92782573Y-73520798D02*
X92824846Y-73496856D01*
X55591774Y-39032224D02*
X55608206Y-39007291D01*
X20256460Y-20325158D02*
X20289966Y-20289966D01*
X92314233Y-47384994D02*
X92308298Y-47336757D01*
X92743447Y-27913090D02*
X92703715Y-27885100D01*
X55373015Y-62306112D02*
X55343829Y-62304999D01*
X35735688Y-21205299D02*
X35727382Y-21157427D01*
X72765188Y-62107299D02*
X72726887Y-62077404D01*
X47189746Y-61978665D02*
X47158013Y-61941873D01*
X84066039Y-20140851D02*
X84108318Y-20116900D01*
X46991207Y-80803519D02*
X46975965Y-80757380D01*
X55550774Y-42232395D02*
X55527224Y-42213225D01*
X15375464Y-86240321D02*
X15454956Y-86297778D01*
X36283291Y-62207079D02*
X36239894Y-62185229D01*
X84381989Y-79477876D02*
X84429871Y-79469574D01*
X58553408Y-47663472D02*
X58531556Y-47706862D01*
X92957986Y-73437852D02*
X93004117Y-73422615D01*
X72621507Y-79782285D02*
X72655019Y-79747092D01*
X58785249Y-42204559D02*
X58760365Y-42222832D01*
X55638275Y-38937222D02*
X55645114Y-38907636D01*
X41922617Y-80302572D02*
X41928564Y-80350793D01*
X57801734Y-53240722D02*
X57849620Y-53249032D01*
X30316407Y-81265173D02*
X30276679Y-81293152D01*
X66472176Y-79460907D02*
X66520396Y-79466861D01*
X46944049Y-21159125D02*
X46938102Y-21110903D01*
X41088730Y-79468559D02*
X41136600Y-79476872D01*
X55813398Y-67940168D02*
X55787398Y-67899128D01*
X36078554Y-62077403D02*
X36041766Y-62045665D01*
X36197706Y-81319148D02*
X36156653Y-81293152D01*
X58657929Y-59072516D02*
X58666258Y-59101717D01*
X83586195Y-80518576D02*
X83585000Y-80448998D01*
X58037341Y-68304666D02*
X57992013Y-68322147D01*
X72654966Y-20289966D02*
X72690158Y-20256460D01*
X41838298Y-80024580D02*
X41857985Y-80069000D01*
X93412036Y-81455229D02*
X93363576Y-81458804D01*
X72976144Y-81384637D02*
X72931721Y-81364946D01*
X46975965Y-80757380D02*
X46963005Y-80710549D01*
X98402743Y-86454905D02*
X98487950Y-86442586D01*
X78360319Y-39519823D02*
X78390209Y-39558128D01*
X92003989Y-79459731D02*
X92082222Y-79443275D01*
X84381732Y-59320174D02*
X84429603Y-59311862D01*
X94164148Y-47748960D02*
X94138152Y-47790012D01*
X83875019Y-39448789D02*
X83910217Y-39415283D01*
X36513399Y-59321871D02*
X36561269Y-59313558D01*
X72365000Y-40147301D02*
X72366195Y-40098597D01*
X77692036Y-20004770D02*
X77740262Y-20010718D01*
X41040230Y-62298063D02*
X40991765Y-62301631D01*
X58648554Y-67390176D02*
X58647345Y-67438866D01*
X41136600Y-39176872D02*
X41184005Y-39187523D01*
X55403135Y-22009974D02*
X55354032Y-22005137D01*
X92139018Y-22039411D02*
X92111435Y-22026709D01*
X22000263Y-67438287D02*
X21996702Y-67486757D01*
X58479700Y-53670142D02*
X58505694Y-53711208D01*
X78444175Y-41676094D02*
X78418183Y-41717145D01*
X66568267Y-42139825D02*
X66520396Y-42148137D01*
X22004975Y-79077633D02*
X22003757Y-79127077D01*
X78328586Y-41831968D02*
X78295086Y-41867159D01*
X22110757Y-62372511D02*
X22088208Y-62392850D01*
X47500152Y-42061116D02*
X47456742Y-42039271D01*
X72384021Y-21205300D02*
X72375716Y-21157428D01*
X58079800Y-73475089D02*
X58123210Y-73496944D01*
X66662264Y-21958527D02*
X66615427Y-21971482D01*
X58641703Y-33973242D02*
X58645265Y-34021712D01*
X92396590Y-33646527D02*
X92418442Y-33603137D01*
X20481039Y-68239148D02*
X20439987Y-68213152D01*
X58772367Y-79396474D02*
X58810981Y-79420588D01*
X47826156Y-59305906D02*
X47874611Y-59302325D01*
X72366195Y-21060751D02*
X72365000Y-20990122D01*
X55344181Y-39159684D02*
X55417516Y-39147070D01*
X93648519Y-81402125D02*
X93602380Y-81417368D01*
X41643366Y-20289966D02*
X41676872Y-20325158D01*
X40992055Y-42155977D02*
X40943360Y-42157179D01*
X93052960Y-48200316D02*
X93006120Y-48187351D01*
X36078684Y-79681848D02*
X36116997Y-79651953D01*
X77835427Y-62273179D02*
X77788010Y-62283821D01*
X72394666Y-21252706D02*
X72384021Y-21205300D01*
X36116997Y-79651953D02*
X36156731Y-79623975D01*
X84334572Y-79488517D02*
X84381989Y-79477876D01*
X21345027Y-48172103D02*
X21298880Y-48187351D01*
X57656323Y-73380000D02*
X57705032Y-73381195D01*
X15292934Y-15293281D02*
X15235231Y-15356513D01*
X67289623Y-21390013D02*
X67269928Y-21434440D01*
X72621507Y-41832713D02*
X72589763Y-41795918D01*
X58123208Y-53346944D02*
X58165492Y-53370904D01*
X93242877Y-33081195D02*
X93291567Y-33080000D01*
X94300229Y-33972963D02*
X94303804Y-34021423D01*
X73161861Y-20019025D02*
X73209737Y-20010718D01*
X22122775Y-39096774D02*
X22161431Y-39120823D01*
X78583804Y-21061402D02*
X78580228Y-21109867D01*
X20194826Y-20400259D02*
X20224721Y-20361952D01*
X58529642Y-73903499D02*
X58551485Y-73946916D01*
X99305000Y-16012272D02*
X99299857Y-15901768D01*
X55841377Y-47829883D02*
X55813396Y-47790168D01*
X56257658Y-48154666D02*
X56213242Y-48134982D01*
X92177224Y-39096774D02*
X92201150Y-39077265D01*
X30599788Y-79979483D02*
X30621631Y-80022883D01*
X94229637Y-73991144D02*
X94247125Y-74036480D01*
X30426647Y-62011209D02*
X30391449Y-62044715D01*
X57656321Y-53230000D02*
X57705030Y-53231195D01*
X47923605Y-79458877D02*
X55344181Y-79459684D01*
X72460071Y-41591136D02*
X72440376Y-41546710D01*
X20439987Y-68213152D02*
X20400259Y-68185173D01*
X55691116Y-33782851D02*
X55706350Y-33736700D01*
X22016258Y-79251717D02*
X22027499Y-79279927D01*
X58618820Y-47480794D02*
X58605851Y-47527613D01*
X41932138Y-40099248D02*
X41933333Y-40147943D01*
X58629477Y-47433395D02*
X58618820Y-47480794D01*
X93314877Y-53230000D02*
X93363576Y-53231195D01*
X67345970Y-60100719D02*
X67354279Y-60148600D01*
X30491903Y-21639221D02*
X30460158Y-21676016D01*
X78509652Y-39768999D02*
X78527136Y-39814331D01*
X47189841Y-41831017D02*
X47158096Y-41794221D01*
X94015033Y-20289966D02*
X94048539Y-20325158D01*
X21639593Y-27855195D02*
X21601283Y-27885100D01*
X41608115Y-59558586D02*
X41643313Y-59592092D01*
X41914304Y-61505977D02*
X41903655Y-61553392D01*
X20166847Y-27640012D02*
X20140851Y-27598960D01*
X20057874Y-33736480D02*
X20075362Y-33691144D01*
X47333521Y-21808996D02*
X47295220Y-21779100D01*
X30460158Y-21676016D02*
X30426647Y-21711209D01*
X20523318Y-20116900D02*
X20566721Y-20095053D01*
X73161861Y-81440974D02*
X73114450Y-81430328D01*
X47333592Y-81265173D02*
X47295285Y-81235278D01*
X93006120Y-48187351D02*
X92959973Y-48172103D01*
X93602380Y-81417368D02*
X93555549Y-81430328D01*
X15528530Y-86341537D02*
X15606222Y-86378632D01*
X93100377Y-28060967D02*
X93052958Y-28050316D01*
X47589813Y-20057874D02*
X47635952Y-20042631D01*
X22276984Y-59303887D02*
X22306244Y-59304998D01*
X94138152Y-27640012D02*
X94110173Y-27679740D01*
X35774529Y-61645668D02*
X35759290Y-61599533D01*
X66615672Y-39185825D02*
X66662497Y-39198790D01*
X47128124Y-61903567D02*
X47100149Y-61863842D01*
X83589769Y-21110904D02*
X83586195Y-21062449D01*
X94275328Y-53979450D02*
X94285974Y-54026861D01*
X67335328Y-20749450D02*
X67345974Y-20796861D01*
X22160981Y-62339411D02*
X22135249Y-62354559D01*
X72369769Y-60195793D02*
X72375716Y-60147572D01*
X78555333Y-41407705D02*
X78542376Y-41454533D01*
X41136343Y-59321179D02*
X41183760Y-59331820D01*
X41366611Y-81364946D02*
X41322188Y-81384637D01*
X84151624Y-21908777D02*
X84108227Y-21886927D01*
X92111435Y-42176709D02*
X92082709Y-42166863D01*
X57990028Y-73437896D02*
X58035371Y-73455390D01*
X35735692Y-20796861D02*
X35746338Y-20749450D01*
X22306244Y-59304998D02*
X29726394Y-59303876D01*
X83985259Y-81265173D02*
X83946952Y-81235278D01*
X58246284Y-33274899D02*
X58284595Y-33304804D01*
X30276601Y-21834327D02*
X30235542Y-21860322D01*
X35973174Y-41832714D02*
X35941430Y-41795918D01*
X77692176Y-79462604D02*
X77740396Y-79468558D01*
X35911529Y-79857390D02*
X35941430Y-79819081D01*
X47223352Y-79748790D02*
X47258550Y-79715284D01*
X22110757Y-79387488D02*
X22135249Y-79405440D01*
X72407640Y-80159771D02*
X72422885Y-80113628D01*
X29726693Y-39156123D02*
X29775388Y-39157326D01*
X72375720Y-80301902D02*
X72384029Y-80254021D01*
X94300229Y-67487036D02*
X94294281Y-67535262D01*
X15902256Y-86454905D02*
X16012272Y-86460000D01*
X83725824Y-59782207D02*
X83751816Y-59741157D01*
X20523318Y-68263099D02*
X20481039Y-68239148D01*
X36658089Y-20001195D02*
X36706789Y-20000000D01*
X83779790Y-59701432D02*
X83809680Y-59663127D01*
X20075362Y-20611144D02*
X20095053Y-20566721D01*
X36006580Y-62012159D02*
X35973080Y-61976968D01*
X94015033Y-53519966D02*
X94048539Y-53555158D01*
X92376894Y-53840937D02*
X92396591Y-53796527D01*
X56395942Y-68350339D02*
X56349119Y-68337384D01*
X58839034Y-39133478D02*
X58867777Y-39143275D01*
X84526568Y-42154934D02*
X84478103Y-42151366D01*
X92418442Y-33603137D02*
X92442397Y-33560871D01*
X36706639Y-62302179D02*
X36657944Y-62300976D01*
X36327707Y-62226774D02*
X36283291Y-62207079D01*
X21996702Y-27186757D02*
X21990766Y-27234994D01*
X67360229Y-20892963D02*
X67363804Y-20941423D01*
X78542368Y-20702619D02*
X78555328Y-20749450D01*
X72589721Y-20361952D02*
X72621460Y-20325158D01*
X55647656Y-27138866D02*
X55646446Y-27090176D01*
X47074211Y-79939872D02*
X47100212Y-79898817D01*
X47158096Y-41794221D02*
X47128196Y-41755913D01*
X78565974Y-80663138D02*
X78555328Y-80710549D01*
X93693855Y-73455362D02*
X93738278Y-73475053D01*
X41276743Y-59360013D02*
X41322084Y-59377498D01*
X78580230Y-40050792D02*
X78583804Y-40099248D01*
X99085321Y-86084535D02*
X99142778Y-86005043D01*
X20000000Y-80469877D02*
X20000000Y-74370122D01*
X21347011Y-33137852D02*
X21392339Y-33155333D01*
X93602380Y-68337368D02*
X93555549Y-68350328D01*
X29775098Y-59305064D02*
X29823563Y-59308632D01*
X46962999Y-61554403D02*
X46952355Y-61506996D01*
X35774551Y-39813629D02*
X35792043Y-39768289D01*
X58629478Y-27283395D02*
X58618821Y-27330794D01*
X78390136Y-21602610D02*
X78360236Y-21640919D01*
X35911529Y-39557390D02*
X35941430Y-39519081D01*
X58748849Y-79377265D02*
X58772367Y-79396474D01*
X47923306Y-59301122D02*
X55272643Y-59300010D01*
X72765188Y-21807299D02*
X72726887Y-21777404D01*
X83841460Y-81134841D02*
X83809721Y-81098047D01*
X58573106Y-67769062D02*
X58553409Y-67813472D01*
X47874611Y-59302325D02*
X47923306Y-59301122D01*
X66708409Y-59361711D02*
X66753751Y-59379195D01*
X93098343Y-73399018D02*
X93146210Y-73390714D01*
X93100377Y-68360967D02*
X93052958Y-68350316D01*
X94188099Y-27556681D02*
X94164148Y-27598960D01*
X58358482Y-27790139D02*
X58323292Y-27823633D01*
X55648925Y-79177510D02*
X55649998Y-79148590D01*
X21971834Y-67630304D02*
X21958883Y-67677148D01*
X84381861Y-20019025D02*
X84429737Y-20010718D01*
X57658432Y-68380000D02*
X56636569Y-68380000D01*
X21392341Y-53305333D02*
X21436757Y-53325017D01*
X20361952Y-33304721D02*
X20400259Y-33274826D01*
X29967093Y-21971481D02*
X29919676Y-21982122D01*
X35973127Y-81134841D02*
X35941388Y-81098047D01*
X21603196Y-33274754D02*
X21641499Y-33304638D01*
X67075033Y-81170033D02*
X67039841Y-81203539D01*
X22306170Y-39155000D02*
X29726693Y-39156123D01*
X83910217Y-41899715D02*
X83875019Y-41866209D01*
X40943210Y-81460000D02*
X36706789Y-81460000D01*
X92322527Y-67582882D02*
X92314231Y-67534994D01*
X56638676Y-53230000D02*
X57656321Y-53230000D01*
X93146211Y-53240714D02*
X93194428Y-53234768D01*
X21908408Y-33646527D02*
X21928105Y-33690937D01*
X58645409Y-38860439D02*
X58658044Y-38923009D01*
X98292727Y-15000000D02*
X16012272Y-15000000D01*
X93555549Y-53259671D02*
X93602380Y-53272631D01*
X73257823Y-59307604D02*
X73306278Y-59304023D01*
X93781681Y-73496900D02*
X93823960Y-73520851D01*
X72765330Y-41963046D02*
X72727017Y-41933151D01*
X84241480Y-81402125D02*
X84196144Y-81384637D01*
X21601283Y-27885100D02*
X21561551Y-27913090D01*
X92250440Y-42290249D02*
X92232488Y-42265757D01*
X72690217Y-79713586D02*
X72727017Y-79681847D01*
X21928105Y-73990937D02*
X21945600Y-74036260D01*
X55659233Y-74225005D02*
X55667529Y-74177117D01*
X55527632Y-39096474D02*
X55551150Y-39077265D01*
X78555328Y-20749450D02*
X78565974Y-20796861D01*
X93979841Y-20256460D02*
X94015033Y-20289966D01*
X41410014Y-81343099D02*
X41366611Y-81364946D01*
X84334450Y-81430328D02*
X84287619Y-81417368D01*
X20361952Y-68155278D02*
X20325158Y-68123539D01*
X93904740Y-33274826D02*
X93943047Y-33304721D01*
X72440376Y-41546710D02*
X72422885Y-41501371D01*
X94229637Y-67768855D02*
X94209946Y-67813278D01*
X73114327Y-21972476D02*
X73067502Y-21959512D01*
X36513656Y-79476179D02*
X36561538Y-79467878D01*
X78542368Y-80757380D02*
X78527125Y-80803519D01*
X30641318Y-80067302D02*
X30658803Y-80112634D01*
X47456561Y-59418072D02*
X47499957Y-59396222D01*
X93412036Y-20004770D02*
X93460262Y-20010718D01*
X20656480Y-53287874D02*
X20702619Y-53272631D01*
X20702619Y-53272631D02*
X20749450Y-53259671D01*
X58323292Y-27823633D02*
X58286501Y-27855361D01*
X67170136Y-61900913D02*
X67140236Y-61939221D01*
X55904907Y-53555276D02*
X55938414Y-53520072D01*
X55646446Y-67390176D02*
X55645024Y-62682366D01*
X78259900Y-41900664D02*
X78223112Y-41932403D01*
X92333164Y-67630304D02*
X92322527Y-67582882D01*
X41932137Y-61361401D02*
X41928562Y-61409866D01*
X56008500Y-68155361D02*
X55971709Y-68123633D01*
X73209603Y-21991441D02*
X73161732Y-21983128D01*
X84241369Y-62245963D02*
X84196040Y-62228471D01*
X47189793Y-20325158D02*
X47223299Y-20289966D01*
X57753501Y-33084771D02*
X57801737Y-33090722D01*
X92701802Y-73574754D02*
X92741525Y-73546785D01*
X58853282Y-42171258D02*
X58824612Y-42182711D01*
X66568267Y-39175174D02*
X66615672Y-39185825D01*
X84196248Y-39234195D02*
X84241590Y-39216710D01*
X58081757Y-68284982D02*
X58037341Y-68304666D01*
X67039841Y-81203539D02*
X67003047Y-81235278D01*
X55501854Y-59263463D02*
X55527224Y-59246774D01*
X73161732Y-59321872D02*
X73209603Y-59313559D01*
X92344148Y-53932386D02*
X92359399Y-53886259D01*
X78104044Y-42016277D02*
X78061772Y-42040229D01*
X41366708Y-42062080D02*
X41322292Y-42081774D01*
X41857956Y-61691710D02*
X41838261Y-61736136D01*
X92591518Y-53519860D02*
X92626708Y-53486366D01*
X55646242Y-62632922D02*
X55649291Y-62589805D01*
X21392339Y-33155333D02*
X21436755Y-33175017D01*
X55973608Y-53486554D02*
X56010405Y-53454805D01*
X21886555Y-33603137D02*
X21908408Y-33646527D01*
X83701900Y-20523318D02*
X83725851Y-20481039D01*
X72765330Y-39351952D02*
X72805064Y-39323974D01*
X20289966Y-81170033D02*
X20256460Y-81134841D01*
X35833545Y-21478819D02*
X35811701Y-21435419D01*
X58081757Y-27984982D02*
X58037341Y-28004666D01*
X78390209Y-79858128D02*
X78418183Y-79897854D01*
X77835427Y-59331821D02*
X77882264Y-59344776D01*
X67322368Y-80757380D02*
X67307125Y-80803519D01*
X83985188Y-62108996D02*
X83946887Y-62079101D01*
X29919805Y-20019025D02*
X29967216Y-20029671D01*
X99069768Y-15356513D02*
X99011718Y-15292934D01*
X20749450Y-81430328D02*
X20702619Y-81417368D01*
X41903655Y-21253392D02*
X41890693Y-21300227D01*
X20439987Y-33246847D02*
X20481039Y-33220851D01*
X41533145Y-39352700D02*
X41571445Y-39382596D01*
X20611144Y-68304637D02*
X20566721Y-68284946D01*
X41766516Y-41717145D02*
X41738542Y-41756871D01*
X36706789Y-81460000D02*
X36658089Y-81458804D01*
X35727386Y-41313097D02*
X35721437Y-41264866D01*
X67170209Y-41758567D02*
X67140319Y-41796872D01*
X41409923Y-21885968D02*
X41366514Y-21907812D01*
X58421829Y-53592082D02*
X58451723Y-53630402D01*
X35727382Y-61457427D02*
X35721435Y-61409206D01*
X92331178Y-33829205D02*
X92344147Y-33782386D01*
X72366195Y-61360751D02*
X72365000Y-61312056D01*
X46933333Y-40148999D02*
X46934529Y-40100295D01*
X30711896Y-20892963D02*
X30715471Y-20941423D01*
X78527114Y-21346371D02*
X78509623Y-21391711D01*
X94048539Y-53555158D02*
X94080278Y-53591952D01*
X94080278Y-47868047D02*
X94048539Y-47904841D01*
X15804728Y-86440438D02*
X15902256Y-86454905D01*
X41183760Y-62273178D02*
X41136343Y-62283820D01*
X83946952Y-20224721D02*
X83985259Y-20194826D01*
X67363804Y-61359705D02*
X67360228Y-61408169D01*
X56169847Y-27963143D02*
X56127574Y-27939201D01*
X22188564Y-79433290D02*
X22217290Y-79443136D01*
X47826436Y-39163633D02*
X47874901Y-39160065D01*
X41738470Y-61902609D02*
X41708569Y-61940918D01*
X20990122Y-33080000D02*
X21062120Y-33081195D01*
X36078684Y-41933152D02*
X36041884Y-41901413D01*
X21520493Y-68239095D02*
X21478208Y-68263055D01*
X22246864Y-79450025D02*
X22295967Y-79454862D01*
X72505824Y-59783905D02*
X72531816Y-59742854D01*
X55665523Y-67583395D02*
X55657204Y-67535530D01*
X20166847Y-33519987D02*
X20194826Y-33480259D01*
X22011863Y-62522290D02*
X22004974Y-62551864D01*
X47544477Y-20075362D02*
X47589813Y-20057874D01*
X72460071Y-80023862D02*
X72481922Y-79980456D01*
X15005094Y-85557743D02*
X15017413Y-85642950D01*
X77740128Y-21992122D02*
X77691896Y-21998064D01*
X36006580Y-59592839D02*
X36041766Y-59559334D01*
X72888318Y-81343099D02*
X72846039Y-81319148D01*
X30641290Y-61690012D02*
X30621595Y-61734439D01*
X83701922Y-39682153D02*
X83725877Y-39639871D01*
X93242877Y-73381195D02*
X93314877Y-73380000D01*
X78104044Y-39298722D02*
X78145090Y-39324719D01*
X30674026Y-61598530D02*
X30658781Y-61644673D01*
X83660376Y-39769986D02*
X83680071Y-39725559D01*
X78583804Y-60243598D02*
X78585000Y-60292302D01*
X30491903Y-59665778D02*
X30521803Y-59704086D01*
X56215199Y-53325089D02*
X56259629Y-53305390D01*
X21992795Y-74224469D02*
X21998755Y-74272684D01*
X41452377Y-39298722D02*
X41493424Y-39324720D01*
X83751878Y-41716182D02*
X83725877Y-41675127D01*
X55787398Y-27599128D02*
X55763444Y-27556862D01*
X30521875Y-39556432D02*
X30549850Y-39596157D01*
X77928409Y-59360014D02*
X77973751Y-59377498D01*
X72621460Y-81134841D02*
X72589721Y-81098047D01*
X94209946Y-27513278D02*
X94188099Y-27556681D01*
X55608206Y-22152708D02*
X55591774Y-22127775D01*
X36197622Y-62161277D02*
X36156575Y-62135279D01*
X20523318Y-53346900D02*
X20566721Y-53325053D01*
X67335333Y-41409403D02*
X67322376Y-41456230D01*
X35883545Y-41717880D02*
X35857544Y-41676825D01*
X67170136Y-59704087D02*
X67198121Y-59743817D01*
X93194427Y-73384768D02*
X93242877Y-73381195D01*
X58284595Y-73604804D02*
X58321391Y-73636554D01*
X93098343Y-53249018D02*
X93146211Y-53240714D01*
X93738278Y-53325053D02*
X93781681Y-53346900D01*
X22004975Y-38777633D02*
X22003757Y-38827077D01*
X36609629Y-20004770D02*
X36658089Y-20001195D01*
X92283741Y-59101717D02*
X92295025Y-59058135D01*
X67363804Y-80518576D02*
X67360229Y-80567036D01*
X92291955Y-38923009D02*
X92297402Y-38892621D01*
X41410105Y-79574770D02*
X41452377Y-79598722D01*
X30391566Y-79712637D02*
X30426753Y-79746143D01*
X99223632Y-85853777D02*
X99233014Y-85831128D01*
X72726887Y-59527596D02*
X72765188Y-59497700D01*
X46991196Y-61647365D02*
X46975957Y-61601230D01*
X41766454Y-59742119D02*
X41792455Y-59783174D01*
X84381732Y-21984825D02*
X84334327Y-21974174D01*
X72804987Y-81293152D02*
X72765259Y-81265173D01*
X20289966Y-27790033D02*
X20256460Y-27754841D01*
X20325158Y-27823539D02*
X20289966Y-27790033D01*
X55572604Y-22104225D02*
X55551150Y-22082734D01*
X72976248Y-39232498D02*
X73021590Y-39215013D01*
X20029671Y-80710549D02*
X20019025Y-80663138D01*
X57945882Y-68337384D02*
X57899059Y-68350339D01*
X67248121Y-39679483D02*
X67269964Y-39722882D01*
X72422885Y-80113628D02*
X72440376Y-80068288D01*
X84381989Y-42137123D02*
X84334572Y-42126481D01*
X56046803Y-68185245D02*
X56008500Y-68155361D01*
X41276853Y-81402125D02*
X41230714Y-81417368D01*
X78583804Y-80518576D02*
X78580229Y-80567036D01*
X15017413Y-85642950D02*
X15022196Y-85666994D01*
X41322084Y-62227501D02*
X41276743Y-62244985D01*
X35716666Y-20990122D02*
X35717862Y-20941423D01*
X77740128Y-62292122D02*
X77691896Y-62298064D01*
X94247125Y-20656480D02*
X94262368Y-20702619D01*
X58727734Y-39056150D02*
X58749225Y-39077604D01*
X92470297Y-67939857D02*
X92444303Y-67898791D01*
X58391987Y-27754959D02*
X58358482Y-27790139D01*
X72690217Y-41901413D02*
X72655019Y-41867906D01*
X58647345Y-67438866D02*
X58643757Y-67487315D01*
X20019025Y-54026861D02*
X20029671Y-53979450D01*
X92398514Y-27513083D02*
X92378829Y-27468648D01*
X78360278Y-20361952D02*
X78390173Y-20400259D01*
X77643721Y-79459022D02*
X77692176Y-79462604D01*
X72422885Y-39813628D02*
X72440376Y-39768288D01*
X58650124Y-22301363D02*
X58648554Y-27090176D01*
X47008709Y-41545013D02*
X46991218Y-41499674D01*
X47028404Y-80025560D02*
X47050256Y-79982154D01*
X94209946Y-80893278D02*
X94188099Y-80936681D01*
X56010406Y-73604804D02*
X56048716Y-73574899D01*
X21347011Y-73437852D02*
X21392339Y-73455333D01*
X55527224Y-59246774D02*
X55550774Y-59227604D01*
X77643431Y-59303368D02*
X77691896Y-59306936D01*
X20057874Y-20656480D02*
X20075362Y-20611144D01*
X47923605Y-39158877D02*
X55344181Y-39159684D01*
X30105625Y-79531528D02*
X30150042Y-79551223D01*
X36197790Y-79597980D02*
X36240076Y-79574031D01*
X21434799Y-27984910D02*
X21390369Y-28004609D01*
X92826791Y-48113055D02*
X92784507Y-48089095D01*
X84108409Y-42039271D02*
X84066124Y-42015322D01*
X72726887Y-62077404D02*
X72690099Y-62045665D01*
X94294281Y-33924737D02*
X94300229Y-33972963D01*
X47158013Y-21641873D02*
X47128124Y-21603567D01*
X67074980Y-62011210D02*
X67039782Y-62044716D01*
X30150042Y-79551223D02*
X30193438Y-79573072D01*
X93004117Y-33122615D02*
X93050940Y-33109660D01*
X41890709Y-80160466D02*
X41903667Y-80207293D01*
X22021709Y-59116435D02*
X22034411Y-59144018D01*
X20095053Y-67813278D02*
X20075362Y-67768855D01*
X30316335Y-59498650D02*
X30354648Y-59528544D01*
X47373320Y-81293152D02*
X47333592Y-81265173D01*
X36706639Y-22002179D02*
X36657944Y-22000976D01*
X72531878Y-79897119D02*
X72559863Y-79857389D01*
X30716666Y-60293999D02*
X30716666Y-61311000D01*
X55743516Y-33646916D02*
X55765358Y-33603499D01*
X30105522Y-81384637D02*
X30060186Y-81402125D01*
X20001195Y-20941423D02*
X20004770Y-20892963D01*
X35792043Y-39768289D02*
X35811738Y-39723863D01*
X66662264Y-59346473D02*
X66708409Y-59361711D01*
X72559790Y-61901871D02*
X72531816Y-61862145D01*
X56010406Y-33304804D02*
X56048716Y-33274899D01*
X20941423Y-33081195D02*
X20990122Y-33080000D01*
X94294281Y-27235262D02*
X94285974Y-27283138D01*
X77740262Y-20010718D02*
X77788138Y-20019025D01*
X20256460Y-53555158D02*
X20289966Y-53519966D01*
X41410105Y-42040230D02*
X41366708Y-42062080D01*
X30716666Y-40146246D02*
X30716666Y-41168754D01*
X58658044Y-62536990D02*
X58652597Y-62567378D01*
X47373398Y-41989328D02*
X47333664Y-41961349D01*
X20566721Y-68284946D02*
X20523318Y-68263099D01*
X72407623Y-61599533D02*
X72394666Y-61552706D01*
X83595718Y-20844737D02*
X83604025Y-20796861D01*
X47223352Y-39448790D02*
X47258550Y-39415284D01*
X21990766Y-67534994D02*
X21982470Y-67582882D01*
X83589771Y-80351830D02*
X83595720Y-80303599D01*
X72654966Y-81170033D02*
X72621460Y-81134841D01*
X92378829Y-67768648D02*
X92361348Y-67723299D01*
X41366708Y-39252920D02*
X41410105Y-39274770D01*
X36466239Y-42128179D02*
X36419402Y-42115224D01*
X77973959Y-79533225D02*
X78018375Y-79552919D01*
X36006686Y-79747093D02*
X36041884Y-79713587D01*
X30235711Y-42017975D02*
X30193438Y-42041927D01*
X58286500Y-48005361D02*
X58248196Y-48035245D01*
X92526273Y-73741822D02*
X92558012Y-73705040D01*
X41533002Y-21808046D02*
X41493268Y-21836024D01*
X72559826Y-20400259D02*
X72589721Y-20361952D01*
X78328539Y-81134841D02*
X78295033Y-81170033D01*
X78555333Y-80207293D02*
X78565978Y-80254699D01*
X29726693Y-79456123D02*
X29775388Y-79457326D01*
X41493268Y-62136024D02*
X41452209Y-62162019D01*
X36609490Y-21997395D02*
X36561269Y-21991440D01*
X93781681Y-20116900D02*
X93823960Y-20140851D01*
X83585000Y-40148998D02*
X83586195Y-40100294D01*
X47223246Y-59591142D02*
X47258433Y-59557637D01*
X29726394Y-62301122D02*
X22305818Y-62300315D01*
X93865012Y-20166847D02*
X93904740Y-20194826D01*
X66423721Y-42157673D02*
X66375027Y-42158876D01*
X30426753Y-79746143D02*
X30460253Y-79781334D01*
X58926984Y-79453887D02*
X58956170Y-79455000D01*
X66924935Y-59470672D02*
X66964669Y-59498650D01*
X93823960Y-48089148D02*
X93781681Y-48113099D01*
X73209737Y-20010718D02*
X73257963Y-20004770D01*
X83642885Y-41499673D02*
X83627640Y-41453530D01*
X83604021Y-21206997D02*
X83595716Y-21159125D01*
X30705946Y-60148599D02*
X30711895Y-60196830D01*
X20656480Y-28022125D02*
X20611144Y-28004637D01*
X47414373Y-20140851D02*
X47456651Y-20116900D01*
X84429737Y-81449281D02*
X84381861Y-81440974D01*
X30658792Y-20656480D02*
X30674034Y-20702619D01*
X72654913Y-21712160D02*
X72621413Y-21676969D01*
X84287502Y-21961209D02*
X84241369Y-21945963D01*
X55871275Y-68018177D02*
X55841379Y-67979883D01*
X20029671Y-53979450D02*
X20042631Y-53932619D01*
X66798278Y-81364946D02*
X66753855Y-81384637D01*
X78328586Y-39483030D02*
X78360319Y-39519823D01*
X94275328Y-80710549D02*
X94262368Y-80757380D01*
X30641304Y-80848855D02*
X30621613Y-80893278D01*
X40991910Y-20001195D02*
X41040370Y-20004770D01*
X84574972Y-59301123D02*
X91922659Y-59300012D01*
X83586195Y-41214704D02*
X83585000Y-41166000D01*
X29823703Y-20004770D02*
X29871929Y-20010718D01*
X92272500Y-59129927D02*
X92283741Y-59101717D01*
X83874966Y-81170033D02*
X83841460Y-81134841D01*
X73114450Y-81430328D02*
X73067619Y-81417368D01*
X30276679Y-20166847D02*
X30316407Y-20194826D01*
X20844737Y-28069281D02*
X20796861Y-28060974D01*
X83589769Y-60194096D02*
X83595716Y-60145875D01*
X47414288Y-21862974D02*
X47373242Y-21836976D01*
X93555549Y-28050328D02*
X93508138Y-28060974D01*
X47158013Y-59663126D02*
X47189746Y-59626333D01*
X35759290Y-61599533D02*
X35746332Y-61552706D01*
X30354714Y-20224721D02*
X30391508Y-20256460D01*
X41493346Y-81293152D02*
X41452293Y-81319148D01*
X20095053Y-20566721D02*
X20116900Y-20523318D01*
X67360228Y-60196830D02*
X67363804Y-60245295D01*
X41903655Y-60051606D02*
X41914304Y-60099021D01*
X46934528Y-21062448D02*
X46933333Y-20990122D01*
X58125153Y-68263143D02*
X58081757Y-68284982D01*
X20656480Y-33137874D02*
X20702619Y-33122631D01*
X20990122Y-53230000D02*
X21062122Y-53231195D01*
X41276743Y-62244985D02*
X41230597Y-62260223D01*
X58390090Y-53555276D02*
X58421829Y-53592082D01*
X46934528Y-80518576D02*
X46933333Y-80448999D01*
X83985188Y-59496003D02*
X84024909Y-59468023D01*
X84108227Y-62186927D02*
X84065955Y-62162975D01*
X67363804Y-41217448D02*
X67360230Y-41265903D01*
X21254057Y-73409660D02*
X21300880Y-73422615D01*
X67140278Y-20361952D02*
X67170173Y-20400259D01*
X21778724Y-73741822D02*
X21808620Y-73780116D01*
X94080278Y-81098047D02*
X94048539Y-81134841D01*
X41708652Y-41795176D02*
X41676919Y-41831969D01*
X47100149Y-61863842D02*
X47074158Y-61822792D01*
X20010718Y-20844737D02*
X20019025Y-20796861D01*
X93943047Y-68155278D02*
X93904740Y-68185173D01*
X47050256Y-41632846D02*
X47028404Y-41589440D01*
X84196040Y-62228471D02*
X84151624Y-62208777D01*
X94209946Y-47663278D02*
X94188099Y-47706681D01*
X55789305Y-73861208D02*
X55815298Y-73820142D01*
X22000264Y-47288287D02*
X21996703Y-47336757D01*
X77788267Y-79476871D02*
X77835672Y-79487523D01*
X29919805Y-81440974D02*
X29871929Y-81449281D01*
X21300880Y-73422615D02*
X21347011Y-73437852D01*
X58616835Y-74129695D02*
X58627472Y-74177117D01*
X72845955Y-62161277D02*
X72804909Y-62135280D01*
X47826296Y-20004770D02*
X47874756Y-20001195D01*
X41792455Y-59783174D02*
X41816410Y-59825456D01*
X72481878Y-61778819D02*
X72460035Y-61735419D01*
X67224122Y-59784872D02*
X67248077Y-59827154D01*
X56257660Y-28004666D02*
X56213244Y-27984982D01*
X47923456Y-20000000D02*
X66374877Y-20000000D01*
X29726543Y-20000000D02*
X29775243Y-20001195D01*
X73161989Y-79476178D02*
X73209871Y-79467877D01*
X94285974Y-27283138D02*
X94275328Y-27330549D01*
X72931819Y-79552186D02*
X72976248Y-79532498D01*
X84108227Y-59418073D02*
X84151624Y-59396223D01*
X84334327Y-62274174D02*
X84287502Y-62261209D01*
X20439987Y-53396847D02*
X20481039Y-53370851D01*
X47730323Y-79477877D02*
X47778204Y-79469575D01*
X92320521Y-74176604D02*
X92331178Y-74129205D01*
X47544581Y-79534196D02*
X47589923Y-79516711D01*
X46934528Y-61362448D02*
X46933333Y-61313753D01*
X55706350Y-33736700D02*
X55723831Y-33691351D01*
X21971835Y-47480304D02*
X21958884Y-47527148D01*
X20325158Y-33336460D02*
X20361952Y-33304721D01*
X56008500Y-27855361D02*
X55971709Y-27823633D01*
X40992055Y-39159023D02*
X41040509Y-39162604D01*
X83779863Y-79859086D02*
X83809763Y-79820778D01*
X92558012Y-73705040D02*
X92591517Y-73669860D01*
X36561269Y-21991440D02*
X36513399Y-21983127D01*
X41088596Y-81449281D02*
X41040370Y-81455229D01*
X22087850Y-42243208D02*
X22067511Y-42265757D01*
X30150042Y-42063777D02*
X30105625Y-42083471D01*
X93648519Y-68322125D02*
X93602380Y-68337368D01*
X94229637Y-20611144D02*
X94247125Y-20656480D01*
X55789305Y-33561208D02*
X55815298Y-33520142D01*
X15005094Y-15902256D02*
X15000000Y-16012272D01*
X57707121Y-48228804D02*
X57658431Y-48230000D01*
X83680035Y-21437117D02*
X83660347Y-21392697D01*
X41040370Y-81455229D02*
X40991910Y-81458804D01*
X57897041Y-33109683D02*
X57943881Y-33122648D01*
X93648519Y-28022125D02*
X93602380Y-28037368D01*
X55648925Y-38877510D02*
X55649998Y-38848590D01*
X57851656Y-28060981D02*
X57803789Y-28069285D01*
X58123210Y-33196944D02*
X58165494Y-33220904D01*
X20010718Y-33924737D02*
X20019025Y-33876861D01*
X15043422Y-15709568D02*
X15019561Y-15804728D01*
X55843276Y-33480402D02*
X55873170Y-33442082D01*
X92301446Y-54219823D02*
X92302655Y-54171133D01*
X30460253Y-41833666D02*
X30426753Y-41868857D01*
X15118462Y-85931469D02*
X15168919Y-86015605D01*
X47050233Y-80936681D02*
X47028386Y-80893278D01*
X30426647Y-21711209D02*
X30391449Y-21744715D01*
X30193257Y-21884270D02*
X30149847Y-21906115D01*
X92283577Y-79252197D02*
X92291955Y-79223009D01*
X67198121Y-61861183D02*
X67170136Y-61900913D01*
X58553409Y-67813472D02*
X58531557Y-67856862D01*
X35973174Y-39482286D02*
X36006686Y-39447093D01*
X29967093Y-59333517D02*
X30013931Y-59346472D01*
X66423576Y-20001195D02*
X66472036Y-20004770D01*
X94048539Y-27754841D02*
X94015033Y-27790033D01*
X57707122Y-68378804D02*
X57658432Y-68380000D01*
X55723831Y-33691351D02*
X55743516Y-33646916D01*
X78468099Y-20523318D02*
X78489946Y-20566721D01*
X55354032Y-22005137D02*
X47923306Y-22003876D01*
X58529642Y-33603499D02*
X58551485Y-33646916D01*
X83809680Y-61941873D02*
X83779790Y-61903568D01*
X72846124Y-42017019D02*
X72805064Y-41991024D01*
X67003047Y-20224721D02*
X67039841Y-20256460D01*
X47544374Y-21928471D02*
X47499957Y-21908776D01*
X92626708Y-53486366D02*
X92663499Y-53454638D01*
X20029671Y-74129450D02*
X20042631Y-74082619D01*
X30235626Y-20140851D02*
X30276679Y-20166847D01*
X47682661Y-62274173D02*
X47635835Y-62261208D01*
X46963011Y-80208304D02*
X46975973Y-80161469D01*
X72481900Y-20523318D02*
X72505851Y-20481039D01*
X66423576Y-81458804D02*
X66374877Y-81460000D01*
X20166847Y-81020012D02*
X20140851Y-80978960D01*
X67322359Y-60006469D02*
X67335322Y-60053304D01*
X41643366Y-81170033D02*
X41608174Y-81203539D01*
X35727386Y-80301903D02*
X35735695Y-80254022D01*
X83586195Y-60242551D02*
X83589769Y-60194096D01*
X58896864Y-59300025D02*
X58946313Y-59304873D01*
X46933333Y-20990122D02*
X46934528Y-20941423D01*
X35727384Y-80615262D02*
X35721436Y-80567036D01*
X47456742Y-39275729D02*
X47500152Y-39253884D01*
X92870201Y-48134910D02*
X92826791Y-48113055D01*
X78580228Y-61409867D02*
X78574279Y-61458097D01*
X22000721Y-59020695D02*
X22004885Y-59057636D01*
X92498274Y-27679597D02*
X92470297Y-27639857D01*
X58553409Y-27513472D02*
X58531557Y-27556862D01*
X30060076Y-59361711D02*
X30105418Y-59379195D01*
X47589703Y-21945962D02*
X47544374Y-21928471D01*
X36658234Y-39158368D02*
X36706939Y-39157179D01*
X21436757Y-53325017D02*
X21480154Y-53346856D01*
X15000000Y-85447727D02*
X15005094Y-85557743D01*
X22034411Y-59144018D02*
X22049838Y-59170173D01*
X58901831Y-22008953D02*
X58852802Y-22021422D01*
X56636569Y-28080000D02*
X56587879Y-28078804D01*
X41040230Y-59306935D02*
X41088461Y-59312877D01*
X20325158Y-68123539D02*
X20289966Y-68090033D01*
X57943879Y-53272648D02*
X57990026Y-53287896D01*
X30599743Y-59827153D02*
X30621595Y-59870559D01*
X94048539Y-20325158D02*
X94080278Y-20361952D01*
X55873170Y-73742082D02*
X55904908Y-73705276D01*
X84241590Y-42098288D02*
X84196248Y-42080804D01*
X55608463Y-59156854D02*
X55622500Y-59129927D01*
X40943360Y-42157179D02*
X36706939Y-42157820D01*
X78468077Y-21479543D02*
X78444122Y-21521825D01*
X83841413Y-59626334D02*
X83874913Y-59591143D01*
X55721894Y-27469062D02*
X55704399Y-27423739D01*
X78489964Y-39724580D02*
X78509652Y-39768999D01*
X72375718Y-80615262D02*
X72369770Y-80567036D01*
X41922615Y-80615262D02*
X41914307Y-80663138D01*
X47295285Y-20224721D02*
X47333592Y-20194826D01*
X21998755Y-74272684D02*
X22002343Y-74321133D01*
X93865012Y-33246847D02*
X93904740Y-33274826D01*
X72460035Y-59869580D02*
X72481878Y-59826180D01*
X22203282Y-42171258D02*
X22175072Y-42182499D01*
X21945602Y-53886259D02*
X21960852Y-53932386D01*
X58760365Y-62372832D02*
X58727734Y-62403849D01*
X93194428Y-53234768D02*
X93242878Y-53231195D01*
X58635766Y-54075005D02*
X58641701Y-54123242D01*
X66964669Y-62106349D02*
X66924935Y-62134328D01*
X83751878Y-39598816D02*
X83779863Y-39559086D01*
X41676825Y-21677713D02*
X41643313Y-21712906D01*
X47778204Y-42145425D02*
X47730323Y-42137123D01*
X29775098Y-21999934D02*
X29726394Y-22001122D01*
X55667528Y-54027117D02*
X55678164Y-53979695D01*
X20029671Y-33829450D02*
X20042631Y-33782619D01*
X94138152Y-73819987D02*
X94164148Y-73861039D01*
X78565978Y-80254699D02*
X78574283Y-80302571D01*
X47456561Y-21886927D02*
X47414288Y-21862974D01*
X58358482Y-68090139D02*
X58323292Y-68123633D01*
X56127574Y-68239201D02*
X56086527Y-68213214D01*
X84575272Y-79458876D02*
X92003989Y-79459731D01*
X92048168Y-39151046D02*
X92097197Y-39138577D01*
X94209946Y-33646721D02*
X94229637Y-33691144D01*
X21601284Y-48035100D02*
X21561552Y-48063090D01*
X21928107Y-53840937D02*
X21945602Y-53886259D01*
X92396590Y-73946527D02*
X92418442Y-73903137D01*
X58603885Y-33782851D02*
X58616835Y-33829695D01*
X78061772Y-39274769D02*
X78104044Y-39298722D01*
X21676391Y-47973445D02*
X21639594Y-48005194D01*
X67108492Y-61976017D02*
X67074980Y-62011210D01*
X57755572Y-68375231D02*
X57707122Y-68378804D01*
X41643313Y-21712906D02*
X41608115Y-21746412D01*
X46938104Y-41263169D02*
X46934529Y-41214705D01*
X92558013Y-53555040D02*
X92591518Y-53519860D01*
X21390369Y-68304609D02*
X21345026Y-68322103D01*
X41452209Y-62162019D02*
X41409923Y-62185968D01*
X77595027Y-42157178D02*
X73355272Y-42157820D01*
X67307114Y-21344674D02*
X67289623Y-21390013D01*
X77595027Y-79457820D02*
X77643721Y-79459022D01*
X21745091Y-27754723D02*
X21711584Y-27789927D01*
X30149944Y-20095053D02*
X30193348Y-20116900D01*
X47730065Y-59320174D02*
X47777936Y-59311861D01*
X72727017Y-41933151D02*
X72690217Y-41901413D01*
X92703715Y-68185100D02*
X92665404Y-68155195D01*
X41040230Y-21998063D02*
X40991765Y-22001631D01*
X56349119Y-68337384D02*
X56302988Y-68322147D01*
X20001195Y-47288576D02*
X20000000Y-47239877D01*
X35735695Y-41360978D02*
X35727386Y-41313097D01*
X83585000Y-80448998D02*
X83586195Y-80400294D01*
X30641318Y-41547697D02*
X30621631Y-41592117D01*
X66520262Y-20010718D02*
X66568138Y-20019025D01*
X20029671Y-27330549D02*
X20019025Y-27283138D01*
X84196040Y-59376528D02*
X84241369Y-59359037D01*
X93363576Y-28078804D02*
X93293676Y-28080000D01*
X66884044Y-39297024D02*
X66925090Y-39323022D01*
X36658234Y-42156632D02*
X36609769Y-42153064D01*
X72976248Y-79532498D02*
X73021590Y-79515013D01*
X94138152Y-33519987D02*
X94164148Y-33561039D01*
X73306278Y-22000977D02*
X73257823Y-21997395D01*
X21108500Y-68375228D02*
X21060031Y-68378804D01*
X72805064Y-41991024D02*
X72765330Y-41963046D01*
X98860605Y-86291080D02*
X98939389Y-86232619D01*
X30697637Y-21204280D02*
X30686988Y-21251695D01*
X47008681Y-59912302D02*
X47028368Y-59867882D01*
X20004770Y-74272963D02*
X20010718Y-74224737D01*
X29775243Y-81458804D02*
X29726543Y-81460000D01*
X58507602Y-67899128D02*
X58481603Y-67940168D01*
X93244967Y-28078804D02*
X93196498Y-28075228D01*
X67354281Y-80615262D02*
X67345974Y-80663138D01*
X94305000Y-20990122D02*
X94305000Y-27089877D01*
X92824846Y-33196856D02*
X92868242Y-33175017D01*
X40991765Y-22001631D02*
X40943060Y-22002820D01*
X47682783Y-20029671D02*
X47730194Y-20019025D01*
X72384029Y-80254021D02*
X72394677Y-80206606D01*
X30599766Y-80936681D02*
X30575815Y-80978960D01*
X77692036Y-81455229D02*
X77643576Y-81458804D01*
X93196498Y-68375228D02*
X93148262Y-68369277D01*
X40943060Y-62302820D02*
X36706639Y-62302179D01*
X84151819Y-39253883D02*
X84196248Y-39234195D01*
X72690099Y-59559335D02*
X72726887Y-59527596D01*
X40991765Y-62301631D02*
X40943060Y-62302820D01*
X41571380Y-20224721D02*
X41608174Y-20256460D01*
X36078619Y-81235278D02*
X36041825Y-81203539D01*
X73306568Y-79458367D02*
X73355272Y-79457178D01*
X72621413Y-21676969D02*
X72589680Y-21640176D01*
X93460262Y-73390718D02*
X93508138Y-73399025D01*
X94229637Y-33691144D02*
X94247125Y-33736480D01*
X36197790Y-42017020D02*
X36156731Y-41991025D01*
X20057874Y-47573519D02*
X20042631Y-47527380D01*
X83809763Y-41794221D02*
X83779863Y-41755912D01*
X47500152Y-79553884D02*
X47544581Y-79534196D01*
X30599766Y-20523318D02*
X30621613Y-20566721D01*
X41366514Y-62207812D02*
X41322084Y-62227501D01*
X58748849Y-22082734D02*
X58717832Y-22115365D01*
X92302655Y-54171133D02*
X92306243Y-54122684D01*
X56445379Y-33099032D02*
X56493264Y-33090722D01*
X22011863Y-22222290D02*
X22004974Y-22251864D01*
X35792043Y-41546710D02*
X35774551Y-41501371D01*
X73209603Y-62291441D02*
X73161732Y-62283128D01*
X21108501Y-48225228D02*
X21060032Y-48228804D01*
X67335322Y-60053304D02*
X67345970Y-60100719D01*
X57945881Y-48187384D02*
X57899058Y-48200339D01*
X47826156Y-62299092D02*
X47777936Y-62293138D01*
X46963011Y-39908304D02*
X46975973Y-39861469D01*
X66841681Y-81343099D02*
X66798278Y-81364946D01*
X94188099Y-73903318D02*
X94209946Y-73946721D01*
X92308296Y-67486757D02*
X92304734Y-67438287D01*
X66615427Y-59333518D02*
X66662264Y-59346473D01*
X93363576Y-81458804D02*
X93314877Y-81460000D01*
X72384025Y-80663138D02*
X72375718Y-80615262D01*
X41890709Y-41454533D02*
X41875470Y-41500668D01*
X55649998Y-58998590D02*
X55648554Y-54220421D01*
X20116900Y-47706681D02*
X20095053Y-47663278D01*
X78295086Y-41867159D02*
X78259900Y-41900664D01*
X93555549Y-48200328D02*
X93508138Y-48210974D01*
X29871795Y-21990424D02*
X29823563Y-21996366D01*
X67354281Y-20844737D02*
X67360229Y-20892963D01*
X66520396Y-39166861D02*
X66568267Y-39175174D01*
X93314877Y-81460000D02*
X84575122Y-81460000D01*
X56048715Y-53424899D02*
X56088447Y-53396909D01*
X92868243Y-53325017D02*
X92912659Y-53305333D01*
X55550774Y-59227604D02*
X55572265Y-59206150D01*
X72422874Y-80803519D02*
X72407631Y-80757380D01*
X55648554Y-74370421D02*
X55649736Y-74321712D01*
X67170136Y-21600913D02*
X67140236Y-21639221D01*
X72505877Y-39638174D02*
X72531878Y-39597119D01*
X92005439Y-39159590D02*
X92048168Y-39151046D01*
X55648554Y-34070421D02*
X55649736Y-34021712D01*
X29967338Y-39185826D02*
X30014164Y-39198791D01*
X66841772Y-39273072D02*
X66884044Y-39297024D01*
X66423721Y-39157325D02*
X66472176Y-39160907D01*
X41533073Y-20194826D02*
X41571380Y-20224721D01*
X21206655Y-33099018D02*
X21254057Y-33109660D01*
X78565970Y-60099022D02*
X78574279Y-60146903D01*
X29919934Y-39175174D02*
X29967338Y-39185826D01*
X67269946Y-80893278D02*
X67248099Y-80936681D01*
X92052636Y-62309885D02*
X92023015Y-62306112D01*
X92200774Y-62382395D02*
X92177224Y-62363225D01*
X20702619Y-68337368D02*
X20656480Y-68322125D01*
X47414288Y-59442024D02*
X47456561Y-59418072D01*
X94294281Y-54074737D02*
X94300229Y-54122963D01*
X92782573Y-33220798D02*
X92824846Y-33196856D01*
X84241480Y-20057874D02*
X84287619Y-20042631D01*
X47333592Y-20194826D02*
X47373320Y-20166847D01*
X83680035Y-59867883D02*
X83701878Y-59824483D01*
X84108318Y-81343099D02*
X84066039Y-81319148D01*
X58824612Y-42182711D02*
X58785249Y-42204559D01*
X83660362Y-80848855D02*
X83642874Y-80803519D01*
X78184811Y-79652700D02*
X78223112Y-79682595D01*
X67289623Y-61690013D02*
X67269928Y-61734440D01*
X57851656Y-48210981D02*
X57803788Y-48219285D01*
X35941430Y-41795918D02*
X35911529Y-41757610D01*
X84526568Y-79460064D02*
X84575272Y-79458876D01*
X67039782Y-62044716D02*
X67002982Y-62076455D01*
X36561538Y-42147122D02*
X36513656Y-42138820D01*
X41184005Y-39187523D02*
X41230830Y-39200488D01*
X29967338Y-42129174D02*
X29919934Y-42139825D01*
X47074184Y-20481039D02*
X47100180Y-20439987D01*
X20166847Y-47790012D02*
X20140851Y-47748960D01*
X57899058Y-48200339D02*
X57851656Y-48210981D01*
X30149847Y-21906115D02*
X30105418Y-21925803D01*
X20656480Y-81402125D02*
X20611144Y-81384637D01*
X78542376Y-41454533D02*
X78527136Y-41500668D01*
X20611144Y-81384637D02*
X20566721Y-81364946D01*
X20224721Y-73741952D02*
X20256460Y-73705158D01*
X55628290Y-42343564D02*
X55615588Y-42315981D01*
X20481039Y-48089148D02*
X20439987Y-48063152D01*
X78542376Y-80160466D02*
X78555333Y-80207293D01*
X58645268Y-79158989D02*
X58661863Y-79237709D01*
X22088208Y-62392850D02*
X22067832Y-62415365D01*
X41183882Y-20029671D02*
X41230714Y-20042631D01*
X41922617Y-41312428D02*
X41914311Y-41360300D01*
X40943360Y-39157820D02*
X40992055Y-39159023D01*
X83910099Y-62047362D02*
X83874913Y-62013857D01*
X29967216Y-81430328D02*
X29919805Y-81440974D01*
X66753959Y-39231528D02*
X66798375Y-39251222D01*
X36561538Y-39167878D02*
X36609769Y-39161936D01*
X93904740Y-48035173D02*
X93865012Y-48063152D01*
X84065955Y-62162975D02*
X84024909Y-62136977D01*
X92298887Y-59028015D02*
X92300001Y-58998741D01*
X20400259Y-20194826D02*
X20439987Y-20166847D01*
X36116854Y-59497700D02*
X36156575Y-59469719D01*
X21860694Y-27598791D02*
X21834701Y-27639857D01*
X21982471Y-47432882D02*
X21971835Y-47480304D01*
X47499957Y-62208776D02*
X47456561Y-62186927D01*
X47333664Y-39353651D02*
X47373398Y-39325672D01*
X83779826Y-20400259D02*
X83809721Y-20361952D01*
X47333664Y-41961349D02*
X47295351Y-41931455D01*
X20844737Y-81449281D02*
X20796861Y-81440974D01*
X29871929Y-81449281D02*
X29823703Y-81455229D01*
X41493424Y-79624720D02*
X41533145Y-79652700D01*
X36513527Y-20019025D02*
X36561403Y-20010718D01*
X93865012Y-68213152D02*
X93823960Y-68239148D01*
X36156575Y-62135279D02*
X36116854Y-62107299D01*
X55765358Y-33603499D02*
X55789305Y-33561208D01*
X94303804Y-47288576D02*
X94300229Y-47337036D01*
X94188099Y-67856681D02*
X94164148Y-67898960D01*
X30276601Y-62134327D02*
X30235542Y-62160322D01*
X36078554Y-21777403D02*
X36041766Y-21745665D01*
X67289637Y-80848855D02*
X67269946Y-80893278D01*
X47589923Y-39216711D02*
X47636068Y-39201473D01*
X58551483Y-53796916D02*
X58571168Y-53841351D01*
X41792508Y-41676095D02*
X41766516Y-41717145D01*
X84381732Y-62284825D02*
X84334327Y-62274174D01*
X47223352Y-41866210D02*
X47189841Y-41831017D01*
X66798180Y-59398884D02*
X66841590Y-59420728D01*
X94262368Y-74082619D02*
X94275328Y-74129450D01*
X56046803Y-27885245D02*
X56008500Y-27855361D01*
X20941423Y-73381195D02*
X20990122Y-73380000D01*
X93693855Y-68304637D02*
X93648519Y-68322125D01*
X35735695Y-80254022D02*
X35746344Y-80206607D01*
X30575815Y-80978960D02*
X30549819Y-81020012D01*
X78259782Y-62046413D02*
X78222982Y-62078152D01*
X92703717Y-48035100D02*
X92665406Y-48005194D01*
X72481922Y-79980456D02*
X72505877Y-79938174D01*
X78390209Y-39558128D02*
X78418183Y-39597854D01*
X58867777Y-39143275D02*
X58896864Y-39150025D01*
X99142778Y-86005043D02*
X99186537Y-85931469D01*
X84478103Y-42151366D02*
X84429871Y-42145424D01*
X72931624Y-62207080D02*
X72888227Y-62185230D01*
X67140236Y-21639221D02*
X67108492Y-21676017D01*
X83841413Y-21678666D02*
X83809680Y-21641873D01*
X78184811Y-39352700D02*
X78223112Y-39382595D01*
X22002345Y-54171133D02*
X22003555Y-54219823D01*
X94294281Y-20844737D02*
X94300229Y-20892963D01*
X84108409Y-79575728D02*
X84151819Y-79553883D01*
X83680071Y-39725559D02*
X83701922Y-39682153D01*
X67322376Y-80158769D02*
X67335333Y-80205596D01*
X47923456Y-81460000D02*
X47874756Y-81458804D01*
X20194826Y-67979740D02*
X20166847Y-67940012D01*
X30391566Y-41902362D02*
X30354779Y-41934101D01*
X94275328Y-27330549D02*
X94262368Y-27377380D01*
X92299875Y-38858636D02*
X92301445Y-34069823D01*
X30491986Y-41796873D02*
X30460253Y-41833666D01*
X93602380Y-48187368D02*
X93555549Y-48200328D01*
X35911493Y-20400259D02*
X35941388Y-20361952D01*
X35717862Y-80518576D02*
X35716666Y-80447302D01*
X67345974Y-80663138D02*
X67335328Y-80710549D01*
X77928630Y-42099265D02*
X77882497Y-42114511D01*
X92298925Y-79177510D02*
X92300001Y-79148741D01*
X93904740Y-53424826D02*
X93943047Y-53454721D01*
X58453622Y-67979883D02*
X58423726Y-68018177D01*
X20166847Y-73819987D02*
X20194826Y-73780259D01*
X92312203Y-74224469D02*
X92320521Y-74176604D01*
X22098849Y-39077265D02*
X22122775Y-39096774D01*
X92303555Y-47239578D02*
X92304657Y-42460298D01*
X41816454Y-79981180D02*
X41838298Y-80024580D01*
X20001195Y-34021423D02*
X20004770Y-33972963D01*
X83751847Y-20439987D02*
X83779826Y-20400259D01*
X57753501Y-73384771D02*
X57801737Y-73390722D01*
X29919934Y-79475174D02*
X29967338Y-79485826D01*
X30599743Y-61777845D02*
X30575788Y-61820127D01*
X15219678Y-15375464D02*
X15162221Y-15454956D01*
X67039782Y-21744716D02*
X67002982Y-21776455D01*
X92914630Y-48154609D02*
X92870201Y-48134910D01*
X77740128Y-59312878D02*
X77788010Y-59321179D01*
X35911493Y-81059740D02*
X35883514Y-81020012D01*
X47544581Y-42080804D02*
X47500152Y-42061116D01*
X93291567Y-33080000D02*
X93363576Y-33081195D01*
X66662264Y-62258527D02*
X66615427Y-62271482D01*
X20075362Y-67768855D02*
X20057874Y-67723519D01*
X30013931Y-59346472D02*
X30060076Y-59361711D01*
X73161732Y-62283128D02*
X73114327Y-62272476D01*
X72422863Y-61645668D02*
X72407623Y-61599533D01*
X20566721Y-20095053D02*
X20611144Y-20075362D01*
X15793005Y-15022196D02*
X15698160Y-15047194D01*
X67198152Y-20439987D02*
X67224148Y-20481039D01*
X78018180Y-62207813D02*
X77973751Y-62227501D01*
X77788138Y-20019025D02*
X77835549Y-20029671D01*
X41230830Y-42114512D02*
X41184005Y-42127477D01*
X30354648Y-21776454D02*
X30316335Y-21806348D01*
X41928564Y-41264207D02*
X41922617Y-41312428D01*
X77882497Y-39200487D02*
X77928630Y-39215733D01*
X58616833Y-53979695D02*
X58627470Y-54027117D01*
X66841772Y-42041926D02*
X66798375Y-42063776D01*
X58977971Y-42158766D02*
X58934805Y-42155708D01*
X92272500Y-79279927D02*
X92283577Y-79252197D01*
X78565978Y-41360299D02*
X78555333Y-41407705D01*
X78145012Y-20166847D02*
X78184740Y-20194826D01*
X93508138Y-53249025D02*
X93555549Y-53259671D01*
X67322368Y-20702619D02*
X67335328Y-20749450D01*
X47258550Y-79715284D02*
X47295351Y-79683545D01*
X93460262Y-20010718D02*
X93508138Y-20019025D01*
X56445379Y-73399032D02*
X56493264Y-73390722D01*
X55815297Y-53670142D02*
X55843275Y-53630402D01*
X56395940Y-48200339D02*
X56349117Y-48187384D01*
X36006633Y-20289966D02*
X36041825Y-20256460D01*
X46952358Y-80663138D02*
X46944051Y-80615262D01*
X21992797Y-54074469D02*
X21998757Y-54122684D01*
X83604021Y-60098003D02*
X83614666Y-60050596D01*
X67198152Y-81020012D02*
X67170173Y-81059740D01*
X21108500Y-28075228D02*
X21060031Y-28078804D01*
X30658781Y-59960325D02*
X30674026Y-60006468D01*
X77788267Y-42138127D02*
X77740396Y-42146440D01*
X78223112Y-79682595D02*
X78259900Y-79714334D01*
X58246284Y-73574899D02*
X58284595Y-73604804D01*
X20194826Y-73780259D02*
X20224721Y-73741952D01*
X41643313Y-62012906D02*
X41608115Y-62046412D01*
X94303804Y-67438576D02*
X94300229Y-67487036D01*
X41366514Y-59397186D02*
X41409923Y-59419031D01*
X58708525Y-39032632D02*
X58727734Y-39056150D01*
X94247125Y-74036480D02*
X94262368Y-74082619D01*
X41738542Y-39558129D02*
X41766516Y-39597854D01*
X20057874Y-74036480D02*
X20075362Y-73991144D01*
X47874611Y-22002673D02*
X47826156Y-21999092D01*
X41136472Y-20019025D02*
X41183882Y-20029671D01*
X72375720Y-41313096D02*
X72369771Y-41264866D01*
X20095053Y-33646721D02*
X20116900Y-33603318D01*
X84381861Y-81440974D02*
X84334450Y-81430328D01*
X55763442Y-47706862D02*
X55741589Y-47663472D01*
X67289652Y-41547696D02*
X67269964Y-41592116D01*
X21908410Y-53796527D02*
X21928107Y-53840937D01*
X57803789Y-28069285D02*
X57755572Y-28075231D01*
X21834702Y-47789857D02*
X21806724Y-47829597D01*
X55665523Y-27283395D02*
X55657204Y-27235530D01*
X92346116Y-47527148D02*
X92333166Y-47480304D01*
X78418183Y-39597854D02*
X78444175Y-39638904D01*
X21062120Y-33081195D02*
X21110571Y-33084768D01*
X93904740Y-68185173D02*
X93865012Y-68213152D01*
X40943210Y-20000000D02*
X40991910Y-20001195D01*
X67224122Y-61820128D02*
X67198121Y-61861183D01*
X22135249Y-79405440D02*
X22160981Y-79420588D01*
X21298879Y-68337351D02*
X21252040Y-68350316D01*
X83614666Y-60050596D02*
X83627623Y-60003769D01*
X21011323Y-48230000D02*
X20941423Y-48228804D01*
X93460262Y-68369281D02*
X93412036Y-68375229D01*
X93823960Y-27939148D02*
X93781681Y-27963099D01*
X22004885Y-59057636D02*
X22011724Y-59087222D01*
X21982470Y-67582882D02*
X21971834Y-67630304D01*
X57801737Y-73390722D02*
X57849622Y-73399032D01*
X56351119Y-53272648D02*
X56397958Y-53259683D01*
X21603198Y-53424754D02*
X21641501Y-53454638D01*
X20289966Y-73669966D02*
X20325158Y-73636460D01*
X20001195Y-67438576D02*
X20000000Y-67389877D01*
X92957986Y-33137852D02*
X93004117Y-33122615D01*
X78583804Y-40099248D02*
X78585000Y-40147943D01*
X41928562Y-21109866D02*
X41922613Y-21158096D01*
X94164148Y-20481039D02*
X94188099Y-20523318D01*
X47500055Y-20095053D02*
X47544477Y-20075362D01*
X56302988Y-68322147D02*
X56257660Y-68304666D01*
X66375027Y-79456123D02*
X66423721Y-79457325D01*
X72366195Y-80398597D02*
X72369771Y-80350132D01*
X77928409Y-21944986D02*
X77882264Y-21960224D01*
X20566721Y-27984946D02*
X20523318Y-27963099D01*
X30687000Y-41409403D02*
X30674042Y-41456231D01*
X35716666Y-61312056D02*
X35716666Y-60292942D01*
X22000139Y-62600914D02*
X22001445Y-67389578D01*
X78144935Y-62136025D02*
X78103875Y-62162020D01*
X55689147Y-47527613D02*
X55676177Y-47480794D01*
X21996702Y-67486757D02*
X21990766Y-67534994D01*
X46944053Y-41311400D02*
X46938104Y-41263169D01*
X30354779Y-79680899D02*
X30391566Y-79712637D01*
X36116854Y-21807299D02*
X36078554Y-21777403D01*
X83841507Y-41831016D02*
X83809763Y-41794221D01*
X57992012Y-48172147D02*
X57945881Y-48187384D01*
X47158055Y-20361952D02*
X47189793Y-20325158D01*
X47414288Y-62162974D02*
X47373242Y-62136976D01*
X67248099Y-80936681D02*
X67224148Y-80978960D01*
X78509623Y-61691711D02*
X78489928Y-61736137D01*
X47456742Y-79575729D02*
X47500152Y-79553884D01*
X22000139Y-42450914D02*
X22001445Y-47239578D01*
X78223112Y-41932403D02*
X78184811Y-41962299D01*
X35774540Y-20656480D02*
X35792028Y-20611144D01*
X72366195Y-40098597D02*
X72369771Y-40050132D01*
X47373320Y-20166847D02*
X47414373Y-20140851D01*
X73258103Y-42153063D02*
X73209871Y-42147121D01*
X78585000Y-40147943D02*
X78585000Y-41167056D01*
X46975965Y-20702619D02*
X46991207Y-20656480D01*
X41890693Y-60004771D02*
X41903655Y-60051606D01*
X55402636Y-62309885D02*
X55373015Y-62306112D01*
X35716666Y-40147302D02*
X35717862Y-40098598D01*
X93823960Y-53370851D02*
X93865012Y-53396847D01*
X94164148Y-27598960D02*
X94138152Y-27640012D01*
X47128124Y-21603567D02*
X47100149Y-21563842D01*
X30621613Y-20566721D02*
X30641304Y-20611144D01*
X78184740Y-81265173D02*
X78145012Y-81293152D01*
X84334572Y-42126481D02*
X84287735Y-42113526D01*
X20095053Y-73946721D02*
X20116900Y-73903318D01*
X20224721Y-68018047D02*
X20194826Y-67979740D01*
X47295220Y-21779100D02*
X47258433Y-21747362D01*
X83614677Y-80208303D02*
X83627640Y-80161468D01*
X55763444Y-27556862D02*
X55741591Y-27513472D01*
X21347013Y-53287852D02*
X21392341Y-53305333D01*
X58897363Y-79450114D02*
X58926984Y-79453887D01*
X47128124Y-59701431D02*
X47158013Y-59663126D01*
X47589813Y-81402125D02*
X47544477Y-81384637D01*
X78390136Y-61902610D02*
X78360236Y-61940919D01*
X55628478Y-62494034D02*
X55615588Y-62465981D01*
X67198121Y-59743817D02*
X67224122Y-59784872D01*
X20057874Y-53886480D02*
X20075362Y-53841144D01*
X20941423Y-28078804D02*
X20892963Y-28075229D01*
X67307125Y-80803519D02*
X67289637Y-80848855D01*
X20892963Y-48225229D02*
X20844737Y-48219281D01*
X41643313Y-59592092D02*
X41676825Y-59627285D01*
X78583804Y-80399248D02*
X78585000Y-80469877D01*
X55721892Y-47619062D02*
X55704397Y-47573740D01*
X66615549Y-81430328D02*
X66568138Y-81440974D01*
X30149944Y-81364946D02*
X30105522Y-81384637D01*
X58666422Y-22207802D02*
X58658044Y-22236990D01*
X41792482Y-80978960D02*
X41766485Y-81020012D01*
X78259841Y-81203539D02*
X78223047Y-81235278D01*
X41928562Y-60195133D02*
X41932137Y-60243597D01*
X94015033Y-68090033D02*
X93979841Y-68123539D01*
X58641701Y-54123242D02*
X58645263Y-54171712D01*
X67360230Y-41265903D02*
X67354283Y-41314124D01*
X78580228Y-21109867D02*
X78574279Y-21158097D01*
X36658089Y-81458804D02*
X36609629Y-81455229D01*
X55651244Y-67487315D02*
X55647656Y-67438866D01*
X55659233Y-33925005D02*
X55667529Y-33877117D01*
X92138568Y-62339176D02*
X92096717Y-62321258D01*
X46952362Y-41359280D02*
X46944053Y-41311400D01*
X78418183Y-41717145D02*
X78390209Y-41756870D01*
X21678290Y-73636366D02*
X21713481Y-73669860D01*
X58658044Y-38923009D02*
X58666422Y-38952197D01*
X35746338Y-20749450D02*
X35759298Y-20702619D01*
X55904908Y-33405276D02*
X55938415Y-33370072D01*
X35759290Y-60005466D02*
X35774529Y-59959331D01*
X55653297Y-33973242D02*
X55659233Y-33925005D01*
X92292070Y-42387483D02*
X92278290Y-42343564D01*
X30105522Y-20075362D02*
X30149944Y-20095053D01*
X41183882Y-81430328D02*
X41136472Y-81440974D01*
X47777936Y-59311861D02*
X47826156Y-59305906D01*
X20656480Y-20057874D02*
X20702619Y-20042631D01*
X93943047Y-81235278D02*
X93904740Y-81265173D01*
X93293676Y-28080000D02*
X93244967Y-28078804D01*
X55741591Y-27513472D02*
X55721894Y-27469062D01*
X30391566Y-39412637D02*
X30426753Y-39446143D01*
X73258103Y-39161935D02*
X73306568Y-39158367D01*
X29726394Y-59303876D02*
X29775098Y-59305064D01*
X73067735Y-42115223D02*
X73021590Y-42099985D01*
X72505851Y-80978960D02*
X72481900Y-80936681D01*
X22247363Y-59300114D02*
X22276984Y-59303887D01*
X83946952Y-81235278D02*
X83910158Y-81203539D01*
X55665521Y-47433395D02*
X55657202Y-47385530D01*
X83614677Y-41406695D02*
X83604029Y-41359280D01*
X92591517Y-33369860D02*
X92626707Y-33336366D01*
X72505877Y-79938174D02*
X72531878Y-79897119D01*
X67307136Y-41502365D02*
X67289652Y-41547696D01*
X47635835Y-59343790D02*
X47682661Y-59330825D01*
X41708611Y-20361952D02*
X41738506Y-20400259D01*
X83985330Y-41961349D02*
X83947017Y-41931454D01*
X30697644Y-39953003D02*
X30705950Y-40000874D01*
X93555549Y-33109671D02*
X93602380Y-33122631D01*
X20194826Y-47829740D02*
X20166847Y-47790012D01*
X46938103Y-20892963D02*
X46944051Y-20844737D01*
X47456742Y-42039271D02*
X47414457Y-42015322D01*
X78390173Y-20400259D02*
X78418152Y-20439987D01*
X78580230Y-80350792D02*
X78583804Y-80399248D01*
X98511994Y-15022196D02*
X98487950Y-15017413D01*
X30354648Y-59528544D02*
X30391449Y-59560283D01*
X35811738Y-39723863D02*
X35833589Y-39680457D01*
X21676390Y-27823445D02*
X21639593Y-27855195D01*
X47777936Y-21993138D02*
X47730065Y-21984825D01*
X47008709Y-80069987D02*
X47028404Y-80025560D01*
X41933333Y-60292301D02*
X41933333Y-61312697D01*
X30715471Y-20941423D02*
X30716666Y-21011000D01*
X30105418Y-21925803D02*
X30060076Y-21943288D01*
X58284595Y-33304804D02*
X58321391Y-33336554D01*
X67307114Y-61644674D02*
X67289623Y-61690013D01*
X20004770Y-33972963D02*
X20010718Y-33924737D01*
X21110571Y-33084768D02*
X21158788Y-33090714D01*
X36156731Y-39323975D02*
X36197790Y-39297980D01*
X46933333Y-80448999D02*
X46934529Y-80400295D01*
X92528168Y-27717917D02*
X92498274Y-27679597D01*
X67363804Y-60245295D02*
X67365000Y-60293999D01*
X30705950Y-40000874D02*
X30711897Y-40049096D01*
X84526568Y-39160064D02*
X84575272Y-39158876D01*
X30060076Y-21943288D02*
X30013931Y-21958526D01*
X72407631Y-80757380D02*
X72394671Y-80710549D01*
X58618821Y-67630794D02*
X58605852Y-67677613D01*
X58708225Y-59182224D02*
X58727395Y-59205774D01*
X20001195Y-80518576D02*
X20000000Y-80469877D01*
X83589770Y-20892963D02*
X83595718Y-20844737D01*
X36240076Y-39274031D02*
X36283485Y-39252187D01*
X21676390Y-68123445D02*
X21639593Y-68155195D01*
X72976040Y-59378226D02*
X73021369Y-59360734D01*
X46938103Y-80567036D02*
X46934528Y-80518576D01*
X55460965Y-79433478D02*
X55502291Y-79413206D01*
X93555549Y-73409671D02*
X93602380Y-73422631D01*
X92741525Y-33246785D02*
X92782573Y-33220798D01*
X55474927Y-59277500D02*
X55501854Y-59263463D01*
X41766485Y-20439987D02*
X41792482Y-20481039D01*
X20075362Y-33691144D02*
X20095053Y-33646721D01*
X29871795Y-59314574D02*
X29919676Y-59322876D01*
X29872063Y-79466861D02*
X29919934Y-79475174D01*
X78555328Y-80710549D02*
X78542368Y-80757380D01*
X67354283Y-80300874D02*
X67360230Y-80349095D01*
X83627623Y-60003769D02*
X83642863Y-59957634D01*
X35721437Y-40050133D02*
X35727386Y-40001903D01*
X58772367Y-22063525D02*
X58748849Y-22082734D01*
X47074158Y-61822792D02*
X47050211Y-61780516D01*
X73114450Y-20029671D02*
X73161861Y-20019025D01*
X93781681Y-48113099D02*
X93738278Y-48134946D01*
X72365000Y-20990122D02*
X72366195Y-20941423D01*
X58647345Y-27138866D02*
X58643757Y-27187315D01*
X20256460Y-73705158D02*
X20289966Y-73669966D01*
X84477823Y-59305907D02*
X84526278Y-59302326D01*
X29823563Y-21996366D02*
X29775098Y-21999934D01*
X46938102Y-21110903D02*
X46934528Y-21062448D01*
X46991218Y-41499674D02*
X46975973Y-41453531D01*
X56213242Y-48134982D02*
X56169845Y-48113143D01*
X58605851Y-47527613D02*
X58590600Y-47573740D01*
X58248196Y-48035245D02*
X58208473Y-48063214D01*
X93738278Y-33175053D02*
X93781681Y-33196900D01*
X73067735Y-79499775D02*
X73114572Y-79486820D01*
X93865012Y-48063152D02*
X93823960Y-48089148D01*
X98687793Y-15076495D02*
X98606839Y-15047194D01*
X41608174Y-20256460D02*
X41643366Y-20289966D01*
X67003112Y-41934100D02*
X66964811Y-41963996D01*
X21478209Y-48113055D02*
X21434800Y-48134910D01*
X55706350Y-74036700D02*
X55723831Y-73991351D01*
X98860197Y-15168647D02*
X98776469Y-15118462D01*
X84196040Y-21928471D02*
X84151624Y-21908777D01*
X21156735Y-28069277D02*
X21108500Y-28075228D01*
X92241774Y-59182224D02*
X92258463Y-59156854D01*
X41676919Y-41831969D02*
X41643419Y-41867160D01*
X20256460Y-68054841D02*
X20224721Y-68018047D01*
X20140851Y-53711039D02*
X20166847Y-53669987D01*
X36156731Y-41991025D02*
X36116997Y-41963046D01*
X77835672Y-42127476D02*
X77788267Y-42138127D01*
X22003760Y-58977052D02*
X22000721Y-59020695D01*
X67360228Y-61408169D02*
X67354279Y-61456400D01*
X72888409Y-42040968D02*
X72846124Y-42017019D01*
X72976040Y-62226774D02*
X72931624Y-62207080D01*
X41928564Y-80350793D02*
X41932138Y-80399248D01*
X58451723Y-53630402D02*
X58479700Y-53670142D01*
X92189634Y-42222832D02*
X92165173Y-42204838D01*
X92177224Y-62363225D02*
X92138568Y-62339176D01*
X22001445Y-47239578D02*
X22000264Y-47288287D01*
X21958883Y-67677148D02*
X21943649Y-67723299D01*
X15000000Y-16012272D02*
X15000000Y-85447727D01*
X41816410Y-21479542D02*
X41792455Y-21521824D01*
X47028368Y-59867882D02*
X47050211Y-59824482D01*
X47189746Y-21678665D02*
X47158013Y-21641873D01*
X21834701Y-27639857D02*
X21806723Y-27679597D01*
X78144935Y-21836025D02*
X78103875Y-21862020D01*
X72375720Y-40001902D02*
X72384029Y-39954021D01*
X72394677Y-39906606D02*
X72407640Y-39859771D01*
X41933333Y-21012697D02*
X41932137Y-21061401D01*
X41608174Y-81203539D02*
X41571380Y-81235278D01*
X55648935Y-22282584D02*
X55641955Y-22236990D01*
X20095053Y-53796721D02*
X20116900Y-53753318D01*
X46952355Y-61506996D02*
X46944049Y-61459125D01*
X57899059Y-68350339D02*
X57851656Y-68360981D01*
X92420357Y-27556500D02*
X92398514Y-27513083D01*
X84196248Y-79534195D02*
X84241590Y-79516710D01*
X93052958Y-28050316D02*
X93006118Y-28037351D01*
X84526278Y-62302674D02*
X84477823Y-62299092D01*
X46944053Y-40003600D02*
X46952362Y-39955719D01*
X83627623Y-21301230D02*
X83614666Y-21254403D01*
X30686988Y-61551695D02*
X30674026Y-61598530D01*
X67269946Y-20566721D02*
X67289637Y-20611144D01*
X21300880Y-33122615D02*
X21347011Y-33137852D01*
X20140851Y-80978960D02*
X20116900Y-80936681D01*
X15235231Y-15356513D02*
X15219678Y-15375464D01*
X41571315Y-62078151D02*
X41533002Y-62108046D01*
X93460262Y-53240718D02*
X93508138Y-53249025D01*
X67003112Y-79680898D02*
X67039900Y-79712637D01*
X41040509Y-79462604D02*
X41088730Y-79468559D01*
X78574279Y-60146903D02*
X78580228Y-60195133D01*
X47589923Y-79516711D02*
X47636068Y-79501473D01*
X20224721Y-81098047D02*
X20194826Y-81059740D01*
X20892963Y-28075229D02*
X20844737Y-28069281D01*
X20400259Y-33274826D02*
X20439987Y-33246847D01*
X92528168Y-68017917D02*
X92498274Y-67979597D01*
X55678165Y-74129695D02*
X55691116Y-74082851D01*
X36561538Y-79467878D02*
X36609769Y-79461936D01*
X77740396Y-79468558D02*
X77788267Y-79476871D01*
X20566721Y-48134946D02*
X20523318Y-48113099D01*
X47008681Y-61692697D02*
X46991196Y-61647365D01*
X55622288Y-38980387D02*
X55638275Y-38937222D01*
X20140851Y-47748960D02*
X20116900Y-47706681D01*
X84429871Y-79469574D02*
X84478103Y-79463632D01*
X41928563Y-20892963D02*
X41932137Y-20941423D01*
X67108586Y-79781333D02*
X67140319Y-79818126D01*
X20656480Y-73437874D02*
X20702619Y-73422631D01*
X30460253Y-79781334D02*
X30491986Y-79818126D01*
X83701878Y-21480516D02*
X83680035Y-21437117D01*
X30697644Y-80253003D02*
X30705950Y-80300874D01*
X58727734Y-42253849D02*
X58708225Y-42277775D01*
X92665404Y-68155195D02*
X92628608Y-68123445D01*
X29872063Y-42148138D02*
X29823843Y-42154093D01*
X22161431Y-59270823D02*
X22203282Y-59288741D01*
X94048539Y-68054841D02*
X94015033Y-68090033D01*
X36239894Y-59419769D02*
X36283291Y-59397919D01*
X94285974Y-74176861D02*
X94294281Y-74224737D01*
X30658803Y-41502366D02*
X30641318Y-41547697D01*
X83660376Y-80069986D02*
X83680071Y-80025559D01*
X58208474Y-27913214D02*
X58167426Y-27939201D01*
X94247125Y-67723519D02*
X94229637Y-67768855D01*
X47456561Y-62186927D02*
X47414288Y-62162974D01*
X47923605Y-42156123D02*
X47874901Y-42154935D01*
X77643721Y-39159022D02*
X77692176Y-39162604D01*
X30276679Y-81293152D02*
X30235626Y-81319148D01*
X58616835Y-33829695D02*
X58627472Y-33877117D01*
X58934805Y-42155708D02*
X58896864Y-42159974D01*
X78223047Y-20224721D02*
X78259841Y-20256460D01*
X41533002Y-62108046D02*
X41493268Y-62136024D01*
X83604025Y-20796861D02*
X83614671Y-20749450D01*
X20140851Y-73861039D02*
X20166847Y-73819987D01*
X47050211Y-21480516D02*
X47028368Y-21437116D01*
X41571315Y-21778151D02*
X41533002Y-21808046D01*
X78295086Y-79747839D02*
X78328586Y-79783030D01*
X78585000Y-60292302D02*
X78585000Y-61312698D01*
X56541499Y-33084771D02*
X56589968Y-33081195D01*
X21158788Y-73390714D02*
X21206655Y-73399018D01*
X22004885Y-38907636D02*
X22011724Y-38937222D01*
X66798278Y-20095053D02*
X66841681Y-20116900D01*
X56259630Y-73455390D02*
X56304973Y-73437896D01*
X20400259Y-68185173D02*
X20361952Y-68155278D01*
X67345970Y-21204281D02*
X67335322Y-21251696D01*
X92346114Y-67677148D02*
X92333164Y-67630304D01*
X66472036Y-20004770D02*
X66520262Y-20010718D01*
X35717862Y-40098598D02*
X35721437Y-40050133D01*
X22004974Y-62551864D02*
X22000139Y-62600914D01*
X84334572Y-39188517D02*
X84381989Y-39177876D01*
X58248197Y-68185245D02*
X58208474Y-68213214D01*
X78259841Y-20256460D02*
X78295033Y-20289966D01*
X55789304Y-53711208D02*
X55815297Y-53670142D01*
X67363804Y-40097550D02*
X67365000Y-40146245D01*
X30460158Y-59628982D02*
X30491903Y-59665778D01*
X92959971Y-28022103D02*
X92914628Y-28004609D01*
X36156653Y-20166847D02*
X36197706Y-20140851D01*
X66708409Y-62243289D02*
X66662264Y-62258527D01*
X92344147Y-74082386D02*
X92359398Y-74036260D01*
X30716666Y-61311000D02*
X30715470Y-61359704D01*
X35759290Y-21299533D02*
X35746332Y-21252706D01*
X93943047Y-53454721D02*
X93979841Y-53486460D01*
X47874901Y-79460065D02*
X47923605Y-79458877D01*
X67269964Y-41592116D02*
X67248121Y-41635516D01*
X46975957Y-61601230D02*
X46962999Y-61554403D01*
X72589721Y-81098047D02*
X72559826Y-81059740D01*
X92258463Y-79306854D02*
X92272500Y-79279927D01*
X30276757Y-79623023D02*
X30316478Y-79651003D01*
X30426753Y-41868857D02*
X30391566Y-41902362D01*
X47100180Y-81020012D02*
X47074184Y-80978960D01*
X92957987Y-53287852D02*
X93004118Y-53272615D01*
X93460262Y-33090718D02*
X93508138Y-33099025D01*
X41608233Y-39414334D02*
X41643419Y-39447840D01*
X94188099Y-80936681D02*
X94164148Y-80978960D01*
X22232483Y-62312929D02*
X22188564Y-62326709D01*
X55678165Y-33829695D02*
X55691116Y-33782851D01*
X55460965Y-39133478D02*
X55502291Y-39113206D01*
X20019025Y-27283138D02*
X20010718Y-27235262D01*
X36706939Y-42157820D02*
X36658234Y-42156632D01*
X93314877Y-20000000D02*
X93363576Y-20001195D01*
X21603196Y-73574754D02*
X21641499Y-73604638D01*
X73114327Y-62272476D02*
X73067502Y-62259512D01*
X36513656Y-42138820D02*
X36466239Y-42128179D01*
X94303804Y-74321423D02*
X94305000Y-74370122D01*
X58165494Y-33220904D02*
X58206552Y-33246909D01*
X55657204Y-67535530D02*
X55651244Y-67487315D01*
X21436755Y-73475017D02*
X21480152Y-73496856D01*
X84065955Y-59442025D02*
X84108227Y-59418073D01*
X20075362Y-53841144D02*
X20095053Y-53796721D01*
X56010405Y-53454805D02*
X56048715Y-53424899D01*
X16012272Y-86460000D02*
X98292727Y-86460000D01*
X20116900Y-67856681D02*
X20095053Y-67813278D01*
X35721437Y-41264866D02*
X35717862Y-41216402D01*
X30521875Y-41758568D02*
X30491986Y-41796873D01*
X35811738Y-80023863D02*
X35833589Y-79980457D01*
X94285974Y-47433138D02*
X94275328Y-47480549D01*
X83725851Y-80978960D02*
X83701900Y-80936681D01*
X67354283Y-41314124D02*
X67345978Y-41361996D01*
X30150042Y-39251223D02*
X30193438Y-39273072D01*
X47826436Y-79463633D02*
X47874901Y-79460065D01*
X47682661Y-21974173D02*
X47635835Y-21961208D01*
X94305000Y-47239877D02*
X94303804Y-47288576D01*
X15454956Y-86297778D02*
X15528530Y-86341537D01*
X92302654Y-34021133D02*
X92306242Y-33972684D01*
X77643721Y-42155976D02*
X77595027Y-42157178D01*
X35746344Y-80206607D02*
X35759306Y-80159772D01*
X47682661Y-59330825D02*
X47730065Y-59320174D01*
X46962999Y-60050596D02*
X46975957Y-60003768D01*
X84024909Y-21836977D02*
X83985188Y-21808996D01*
X21678292Y-53486366D02*
X21713483Y-53519860D01*
X56171791Y-73496944D02*
X56215200Y-73475089D01*
X22003757Y-79127077D02*
X22000720Y-79169693D01*
X66753751Y-21925804D02*
X66708409Y-21943289D01*
X84151721Y-20095053D02*
X84196144Y-20075362D01*
X30658781Y-61644673D02*
X30641290Y-61690012D01*
X30521803Y-61900912D02*
X30491903Y-61939221D01*
X55344181Y-79459684D02*
X55417516Y-79447070D01*
X78328586Y-79783030D02*
X78360319Y-79819823D01*
X67140236Y-59665778D02*
X67170136Y-59704087D01*
X20000000Y-74370122D02*
X20001195Y-74321423D01*
X78223047Y-81235278D02*
X78184740Y-81265173D01*
X30621631Y-80022883D02*
X30641318Y-80067302D01*
X30193257Y-62184270D02*
X30149847Y-62206115D01*
X55645114Y-42402363D02*
X55638275Y-42372777D01*
X83604029Y-80255718D02*
X83614677Y-80208303D01*
X30674042Y-80158769D02*
X30687000Y-80205596D01*
X92593416Y-47939927D02*
X92559909Y-47904723D01*
X93943047Y-20224721D02*
X93979841Y-20256460D01*
X22088208Y-22092850D02*
X22067832Y-22115365D01*
X92278290Y-62493564D02*
X92265588Y-62465981D01*
X41932137Y-21061401D02*
X41928562Y-21109866D01*
X20029671Y-20749450D02*
X20042631Y-20702619D01*
X20166847Y-53669987D02*
X20194826Y-53630259D01*
X58896864Y-42159974D02*
X58853282Y-42171258D01*
X21711584Y-68089927D02*
X21676390Y-68123445D01*
X58590600Y-47573740D02*
X58573105Y-47619062D01*
X56397958Y-53259683D02*
X56445378Y-53249032D01*
X84287619Y-20042631D02*
X84334450Y-20029671D01*
X66753751Y-59379195D02*
X66798180Y-59398884D01*
X30621613Y-80893278D02*
X30599766Y-80936681D01*
X35721435Y-61409206D02*
X35717861Y-61360751D01*
X73209871Y-42147121D02*
X73161989Y-42138820D01*
X29775243Y-20001195D02*
X29823703Y-20004770D01*
X58637796Y-67535530D02*
X58629478Y-67583395D01*
X99233014Y-85831128D02*
X99261577Y-85750431D01*
X78360319Y-41795175D02*
X78328586Y-41831968D01*
X56304973Y-33137896D02*
X56351120Y-33122648D01*
X41366708Y-79552920D02*
X41410105Y-79574770D01*
X93508138Y-81440974D02*
X93460262Y-81449281D01*
X66964811Y-39351003D02*
X67003112Y-39380898D01*
X78104044Y-79598722D02*
X78145090Y-79624719D01*
X67307136Y-80112634D02*
X67322376Y-80158769D01*
X58797708Y-59263206D02*
X58839034Y-59283478D01*
X72765259Y-20194826D02*
X72804987Y-20166847D01*
X58652597Y-22267378D02*
X58650124Y-22301363D01*
X83779863Y-41755912D02*
X83751878Y-41716182D01*
X58356585Y-33370072D02*
X58390092Y-33405276D01*
X30697644Y-41361997D02*
X30687000Y-41409403D01*
X91993829Y-62304999D02*
X84574972Y-62303876D01*
X47295220Y-62079100D02*
X47258433Y-62047362D01*
X83779826Y-81059740D02*
X83751847Y-81020012D01*
X66374877Y-20000000D02*
X66423576Y-20001195D01*
X46944051Y-80615262D02*
X46938103Y-80567036D01*
X93314877Y-73380000D02*
X93363576Y-73381195D01*
X20325158Y-73636460D02*
X20361952Y-73604721D01*
X41914304Y-21205977D02*
X41903655Y-21253392D01*
X77594877Y-20000000D02*
X77643576Y-20001195D01*
X72369769Y-21109207D02*
X72366195Y-21060751D01*
X92097197Y-39138577D02*
X92139018Y-39120588D01*
X94294281Y-47385262D02*
X94285974Y-47433138D01*
X55841379Y-67979883D02*
X55813398Y-67940168D01*
X47373398Y-39325672D02*
X47414457Y-39299677D01*
X94247125Y-27423519D02*
X94229637Y-27468855D01*
X93146210Y-73390714D02*
X93194427Y-73384768D01*
X84478103Y-79463632D02*
X84526568Y-79460064D01*
X41322292Y-39233225D02*
X41366708Y-39252920D01*
X57801737Y-33090722D02*
X57849622Y-33099032D01*
X47730065Y-62284825D02*
X47682661Y-62274173D01*
X78527136Y-41500668D02*
X78509652Y-41545999D01*
X98687793Y-86383504D02*
X98776469Y-86341537D01*
X57705030Y-53231195D02*
X57753499Y-53234771D01*
X21990767Y-47384994D02*
X21982471Y-47432882D01*
X56048716Y-73574899D02*
X56088448Y-73546909D01*
X99261577Y-85750431D02*
X99285438Y-85655271D01*
X84024987Y-20166847D02*
X84066039Y-20140851D01*
X67307114Y-59960326D02*
X67322359Y-60006469D01*
X93693855Y-28004637D02*
X93648519Y-28022125D01*
X22203282Y-59288741D02*
X22247363Y-59300114D01*
X41738470Y-59702389D02*
X41766454Y-59742119D01*
X58081756Y-48134982D02*
X58037340Y-48154666D01*
X77882264Y-62260224D02*
X77835427Y-62273179D01*
X57705032Y-33081195D02*
X57753501Y-33084771D01*
X36283291Y-59397919D02*
X36327707Y-59378225D01*
X20702619Y-28037368D02*
X20656480Y-28022125D01*
X92139018Y-39120588D02*
X92177224Y-39096774D01*
X93050941Y-53259660D02*
X93098343Y-53249018D01*
X41914311Y-39954700D02*
X41922617Y-40002572D01*
X84108227Y-21886927D02*
X84065955Y-21862975D01*
X72505824Y-61821095D02*
X72481878Y-61778819D01*
X47128196Y-41755913D02*
X47100212Y-41716183D01*
X92743447Y-68213090D02*
X92703715Y-68185100D01*
X83595720Y-80303599D02*
X83604029Y-80255718D01*
X83614671Y-80710549D02*
X83604025Y-80663138D01*
X84429871Y-39169574D02*
X84478103Y-39163632D01*
X22295967Y-79454862D02*
X29726693Y-79456123D01*
X72366195Y-41216401D02*
X72365000Y-41167697D01*
X58423726Y-68018177D02*
X58391987Y-68054959D01*
X93738278Y-73475053D02*
X93781681Y-73496900D01*
X93823960Y-33220851D02*
X93865012Y-33246847D01*
X21639593Y-68155195D02*
X21601283Y-68185100D01*
X55704397Y-47573740D02*
X55689147Y-47527613D01*
X83809680Y-59663127D02*
X83841413Y-59626334D01*
X47295220Y-59525898D02*
X47333521Y-59496002D01*
X93602380Y-28037368D02*
X93555549Y-28050328D01*
X41922613Y-21158096D02*
X41914304Y-21205977D01*
X83751878Y-79898816D02*
X83779863Y-79859086D01*
X67248077Y-61777846D02*
X67224122Y-61820128D01*
X67003047Y-81235278D02*
X66964740Y-81265173D01*
X58531556Y-47706862D02*
X58507601Y-47749128D01*
X56259629Y-53305390D02*
X56304972Y-53287896D01*
X47074184Y-80978960D02*
X47050233Y-80936681D01*
X41452293Y-81319148D02*
X41410014Y-81343099D01*
X30149847Y-62206115D02*
X30105418Y-62225803D01*
X56445378Y-53249032D02*
X56493263Y-53240722D01*
X20702619Y-48187368D02*
X20656480Y-48172125D01*
X72375716Y-61457428D02*
X72369769Y-61409207D01*
X30686988Y-21251695D02*
X30674026Y-21298530D01*
X36513527Y-81440974D02*
X36466117Y-81430328D01*
X83660376Y-41545013D02*
X83642885Y-41499673D01*
X92741525Y-73546785D02*
X92782573Y-73520798D01*
X21711585Y-47939927D02*
X21676391Y-47973445D01*
X78184811Y-41962299D02*
X78145090Y-41990279D01*
X30014047Y-20042631D02*
X30060186Y-20057874D01*
X67003112Y-39380898D02*
X67039900Y-39412637D01*
X77928630Y-79515733D02*
X77973959Y-79533225D01*
X36239985Y-81343099D02*
X36197706Y-81319148D01*
X83701922Y-41632845D02*
X83680071Y-41589439D01*
X41766516Y-39597854D02*
X41792508Y-39638904D01*
X35833589Y-79980457D02*
X35857544Y-79938175D01*
X41322084Y-21927501D02*
X41276743Y-21944985D01*
X94275328Y-67630549D02*
X94262368Y-67677380D01*
X84024909Y-59468023D02*
X84065955Y-59442025D01*
X77882497Y-79500487D02*
X77928630Y-79515733D01*
X47223246Y-21713856D02*
X47189746Y-21678665D01*
X47499957Y-21908776D02*
X47456561Y-21886927D01*
X21110571Y-73384768D02*
X21158788Y-73390714D01*
X36006686Y-39447093D02*
X36041884Y-39413587D01*
X55417516Y-79447070D02*
X55460965Y-79433478D01*
X21943649Y-67723299D02*
X21926168Y-67768648D01*
X36419285Y-81417368D02*
X36373146Y-81402125D01*
X66964669Y-59498650D02*
X67002982Y-59528545D01*
X84151721Y-81364946D02*
X84108318Y-81343099D01*
X99285438Y-85655271D02*
X99299905Y-85557743D01*
X83642885Y-39815325D02*
X83660376Y-39769986D01*
X20749450Y-48200328D02*
X20702619Y-48187368D01*
X47100149Y-59741156D02*
X47128124Y-59701431D01*
X22002661Y-79193124D02*
X22008044Y-79223009D01*
X20042631Y-33782619D02*
X20057874Y-33736480D01*
X35774551Y-80113629D02*
X35792043Y-80068289D01*
X41676825Y-61977713D02*
X41643313Y-62012906D01*
X67289652Y-80067302D02*
X67307136Y-80112634D01*
X21158790Y-53240714D02*
X21206657Y-53249018D01*
X92496378Y-53630116D02*
X92526274Y-53591822D01*
X20796861Y-73399025D02*
X20844737Y-73390718D01*
X36041766Y-62045665D02*
X36006580Y-62012159D01*
X92232167Y-22115365D02*
X92211791Y-22092850D01*
X35721436Y-20892963D02*
X35727384Y-20844737D01*
X77928630Y-39215733D02*
X77973959Y-39233225D01*
X94300229Y-20892963D02*
X94303804Y-20941423D01*
X58708225Y-79332224D02*
X58727395Y-79355774D01*
X83910217Y-79715283D02*
X83947017Y-79683544D01*
X72440376Y-39768288D02*
X72460071Y-39723862D01*
X22067832Y-62415365D02*
X22049838Y-62439826D01*
X83604025Y-80663138D02*
X83595718Y-80615262D01*
X55936516Y-47940139D02*
X55903011Y-47904959D01*
X78328492Y-21677714D02*
X78294980Y-21712907D01*
X58646444Y-54220421D02*
X58645007Y-58987215D01*
X35883483Y-21562145D02*
X35857491Y-21521095D01*
X72481878Y-59826180D02*
X72505824Y-59783905D01*
X40943060Y-59302179D02*
X40991765Y-59303367D01*
X29823843Y-42154093D02*
X29775388Y-42157674D01*
X47874901Y-42154935D02*
X47826436Y-42151367D01*
X77594877Y-81460000D02*
X73355122Y-81460000D01*
X94305000Y-80469877D02*
X94303804Y-80518576D01*
X20361952Y-81235278D02*
X20325158Y-81203539D01*
X93979841Y-53486460D02*
X94015033Y-53519966D01*
X47050211Y-59824482D02*
X47074158Y-59782206D01*
X57899059Y-28050339D02*
X57851656Y-28060981D01*
X35792028Y-20611144D02*
X35811719Y-20566721D01*
X21973822Y-53979205D02*
X21984478Y-54026604D01*
X20481039Y-33220851D02*
X20523318Y-33196900D01*
X84025064Y-39325671D02*
X84066124Y-39299676D01*
X67269928Y-61734440D02*
X67248077Y-61777846D01*
X92420357Y-67856500D02*
X92398514Y-67813083D01*
X20702619Y-20042631D02*
X20749450Y-20029671D01*
X83809680Y-21641873D02*
X83779790Y-21603568D01*
X92959971Y-68322103D02*
X92914628Y-68304609D01*
X58035371Y-33155390D02*
X58079800Y-33175089D01*
X77594727Y-62302821D02*
X73354972Y-62302179D01*
X83985259Y-20194826D02*
X84024987Y-20166847D01*
X20004770Y-80567036D02*
X20001195Y-80518576D01*
X40991765Y-59303367D02*
X41040230Y-59306935D01*
X55678164Y-53979695D02*
X55691115Y-53932851D01*
X93050940Y-33109660D02*
X93098343Y-33099018D01*
X21834701Y-67939857D02*
X21806723Y-67979597D01*
X30711895Y-61408168D02*
X30705946Y-61456399D01*
X72531816Y-59742854D02*
X72559790Y-59703129D01*
X66798375Y-79551222D02*
X66841772Y-79573072D01*
X20892963Y-81455229D02*
X20844737Y-81449281D01*
X55551150Y-39077265D02*
X55572604Y-39055774D01*
X92665404Y-27855195D02*
X92628608Y-27823445D01*
X22049838Y-39020173D02*
X22077395Y-39055774D01*
X94262368Y-20702619D02*
X94275328Y-20749450D01*
X56215200Y-33175089D02*
X56259630Y-33155390D01*
X92498274Y-67979597D02*
X92470297Y-67939857D01*
X30491944Y-81098047D02*
X30460206Y-81134841D01*
X83627640Y-41453530D02*
X83614677Y-41406695D01*
X55971709Y-68123633D02*
X55936518Y-68090139D01*
X58772775Y-59246774D02*
X58797708Y-59263206D01*
X94275328Y-47480549D02*
X94262368Y-47527380D01*
X78295086Y-39447839D02*
X78328586Y-39483030D01*
X72394666Y-60052294D02*
X72407623Y-60005466D01*
X20566721Y-33175053D02*
X20611144Y-33155362D01*
X66375027Y-39156123D02*
X66423721Y-39157325D01*
X30105418Y-59379195D02*
X30149847Y-59398883D01*
X47373242Y-59468022D02*
X47414288Y-59442024D01*
X77691896Y-21998064D02*
X77643431Y-22001632D01*
X92304734Y-27138287D02*
X92303553Y-27089578D01*
X78390136Y-59702390D02*
X78418121Y-59742120D01*
X66925090Y-39323022D02*
X66964811Y-39351003D01*
X73021369Y-59360734D02*
X73067502Y-59345488D01*
X55815298Y-33520142D02*
X55843276Y-33480402D01*
X55645024Y-62682366D02*
X55646242Y-62632922D01*
X72440347Y-21391000D02*
X72422863Y-21345668D01*
X21563474Y-53396785D02*
X21603198Y-53424754D01*
X47008695Y-20611144D02*
X47028386Y-20566721D01*
X21958884Y-47527148D02*
X21943650Y-47573299D01*
X99299857Y-15901768D02*
X99282860Y-15793243D01*
X77882380Y-81417368D02*
X77835549Y-81430328D01*
X41708569Y-61940918D02*
X41676825Y-61977713D01*
X99186768Y-15528963D02*
X99142778Y-15454956D01*
X21011322Y-28080000D02*
X20941423Y-28078804D01*
X78295033Y-20289966D02*
X78328539Y-20325158D01*
X21062120Y-73381195D02*
X21110571Y-73384768D01*
X55649998Y-79148590D02*
X55648554Y-74370421D01*
X41875470Y-41500668D02*
X41857985Y-41546000D01*
X92314231Y-67534994D02*
X92308296Y-67486757D01*
X30575788Y-21520127D02*
X30549787Y-21561182D01*
X67248121Y-79979483D02*
X67269964Y-80022882D01*
X93979841Y-68123539D02*
X93943047Y-68155278D01*
X56638677Y-73380000D02*
X57656323Y-73380000D01*
X55659232Y-54075005D02*
X55667528Y-54027117D01*
X30014164Y-39198791D02*
X30060296Y-39214037D01*
X21641499Y-73604638D02*
X21678290Y-73636366D01*
X21520493Y-27939095D02*
X21478208Y-27963055D01*
X30715470Y-21059704D02*
X30711895Y-21108168D01*
X94300229Y-54122963D02*
X94303804Y-54171423D01*
X78061590Y-62185968D02*
X78018180Y-62207813D01*
X94188099Y-53753318D02*
X94209946Y-53796721D01*
X20611144Y-48154637D02*
X20566721Y-48134946D01*
X72559863Y-41757609D02*
X72531878Y-41717879D01*
X36609769Y-79461936D02*
X36658234Y-79458368D01*
X92559907Y-27754723D02*
X92528168Y-27717917D01*
X72621507Y-39482285D02*
X72655019Y-39447092D01*
X93006118Y-28037351D02*
X92959971Y-28022103D01*
X78542359Y-21300228D02*
X78527114Y-21346371D01*
X47544374Y-62228471D02*
X47499957Y-62208776D01*
X20116900Y-27556681D02*
X20095053Y-27513278D01*
X78468099Y-80936681D02*
X78444148Y-80978960D01*
X77882380Y-20042631D02*
X77928519Y-20057874D01*
X78145090Y-41990279D02*
X78104044Y-42016277D01*
X92038124Y-59302338D02*
X92067516Y-59297070D01*
X58749225Y-59227604D02*
X58772775Y-59246774D01*
X93293676Y-68380000D02*
X93244967Y-68378804D01*
X56395942Y-28050339D02*
X56349119Y-28037384D01*
X94247125Y-47573519D02*
X94229637Y-47618855D01*
X56397959Y-73409683D02*
X56445379Y-73399032D01*
X30149847Y-59398883D02*
X30193257Y-59420728D01*
X77788010Y-62283821D02*
X77740128Y-62292122D01*
X66708409Y-21943289D02*
X66662264Y-21958527D01*
X66841772Y-79573072D02*
X66884044Y-79597024D01*
X66662497Y-39198790D02*
X66708630Y-39214036D01*
X66884044Y-79597024D02*
X66925090Y-79623022D01*
X47189841Y-39483983D02*
X47223352Y-39448790D01*
X55841379Y-27679883D02*
X55813398Y-27640168D01*
X94285974Y-80663138D02*
X94275328Y-80710549D01*
X83604029Y-39955718D02*
X83614677Y-39908303D01*
X78565970Y-61505978D02*
X78555322Y-61553393D01*
X78583804Y-61361402D02*
X78580228Y-61409867D01*
X56493264Y-33090722D02*
X56541499Y-33084771D01*
X94300229Y-27187036D02*
X94294281Y-27235262D01*
X29967093Y-62271481D02*
X29919676Y-62282122D01*
X73021480Y-81402125D02*
X72976144Y-81384637D01*
X57705032Y-73381195D02*
X57753501Y-73384771D01*
X83701900Y-80936681D02*
X83680053Y-80893278D01*
X66798180Y-62206116D02*
X66753751Y-62225804D01*
X73067735Y-39199775D02*
X73114572Y-39186820D01*
X36465994Y-21972476D02*
X36419169Y-21959511D01*
X57658432Y-28080000D02*
X56636569Y-28080000D01*
X92398514Y-67813083D02*
X92378829Y-67768648D01*
X93412036Y-73384770D02*
X93460262Y-73390718D01*
X58810981Y-22039411D02*
X58772367Y-22063525D01*
X41708652Y-39519824D02*
X41738542Y-39558129D01*
X67307136Y-39812634D02*
X67322376Y-39858769D01*
X47682906Y-39188518D02*
X47730323Y-39177877D01*
X78184669Y-59496953D02*
X78222982Y-59526848D01*
X20116900Y-73903318D02*
X20140851Y-73861039D01*
X92593414Y-27789927D02*
X92559907Y-27754723D01*
X78574279Y-61458097D02*
X78565970Y-61505978D01*
X47258433Y-62047362D02*
X47223246Y-62013856D01*
X21156736Y-48219277D02*
X21108501Y-48225228D01*
X72931624Y-21907080D02*
X72888227Y-21885230D01*
X21906483Y-27513083D02*
X21884641Y-27556500D01*
X55741591Y-67813472D02*
X55721894Y-67769062D01*
X94285974Y-20796861D02*
X94294281Y-20844737D01*
X58717832Y-22115365D02*
X58699559Y-22140249D01*
X58643756Y-47337315D02*
X58637795Y-47385530D01*
X30705946Y-61456399D02*
X30697637Y-61504280D01*
X22217290Y-79443136D02*
X22246864Y-79450025D01*
X84526278Y-59302326D02*
X84574972Y-59301123D01*
X22049838Y-22139826D02*
X22034411Y-22165981D01*
X35857544Y-39638175D02*
X35883545Y-39597120D01*
X15118231Y-15528963D02*
X15081367Y-15606222D01*
X36116926Y-81265173D02*
X36078619Y-81235278D01*
X47008709Y-39769987D02*
X47028404Y-39725560D01*
X58627472Y-33877117D02*
X58635768Y-33925005D01*
X55765357Y-53753500D02*
X55789304Y-53711208D01*
X35735695Y-39954022D02*
X35746344Y-39906607D01*
X58852802Y-22021422D02*
X58810981Y-22039411D01*
X41276743Y-21944985D02*
X41230597Y-21960223D01*
X56171791Y-33196944D02*
X56215200Y-33175089D01*
X36513399Y-62283127D02*
X36465994Y-62272476D01*
X35973080Y-59628030D02*
X36006580Y-59592839D01*
X41136343Y-21983820D02*
X41088461Y-21992121D01*
X36466117Y-81430328D02*
X36419285Y-81417368D01*
X35721435Y-60195792D02*
X35727382Y-60147571D01*
X20004770Y-20892963D02*
X20010718Y-20844737D01*
X67354279Y-21156400D02*
X67345970Y-21204281D01*
X35717861Y-61360751D02*
X35716666Y-61312056D01*
X94015033Y-33369966D02*
X94048539Y-33405158D01*
X78418183Y-79897854D02*
X78444175Y-79938904D01*
X92868242Y-33175017D02*
X92912658Y-33155333D01*
X66472036Y-81455229D02*
X66423576Y-81458804D01*
X41738506Y-81059740D02*
X41708611Y-81098047D01*
X20000000Y-27089877D02*
X20000000Y-20990122D01*
X67335322Y-21251696D02*
X67322359Y-21298531D01*
X29871795Y-62290424D02*
X29823563Y-62296366D01*
X84429737Y-20010718D02*
X84477963Y-20004770D01*
X72559826Y-81059740D02*
X72531847Y-81020012D01*
X92444303Y-27598791D02*
X92420357Y-27556500D01*
X35792014Y-61690999D02*
X35774529Y-61645668D01*
X20256460Y-81134841D02*
X20224721Y-81098047D01*
X56302986Y-48172147D02*
X56257658Y-48154666D01*
X41322084Y-59377498D02*
X41366514Y-59397186D01*
X67335333Y-39905596D02*
X67345978Y-39953002D01*
X58708225Y-42277775D02*
X58684411Y-42315981D01*
X84196144Y-20075362D02*
X84241480Y-20057874D01*
X99261577Y-15709568D02*
X99228692Y-15617659D01*
X92304734Y-67438287D02*
X92303553Y-67389578D01*
X47258550Y-41899716D02*
X47223352Y-41866210D01*
X98487950Y-15017413D02*
X98402743Y-15005094D01*
X30549850Y-39596157D02*
X30575841Y-39637207D01*
X77740396Y-42146440D02*
X77692176Y-42152395D01*
X58208474Y-68213214D02*
X58167426Y-68239201D01*
X41932137Y-60243597D02*
X41933333Y-60292301D01*
X35811701Y-21435419D02*
X35792014Y-21390999D01*
X55622288Y-22179612D02*
X55608206Y-22152708D01*
X21926169Y-47618648D02*
X21906484Y-47663083D01*
X30105625Y-42083471D02*
X30060296Y-42100963D01*
X36006633Y-81170033D02*
X35973127Y-81134841D01*
X83985188Y-21808996D02*
X83946887Y-21779101D01*
X83779863Y-39559086D02*
X83809763Y-39520778D01*
X47826436Y-42151367D02*
X47778204Y-42145425D01*
X55815298Y-73820142D02*
X55843276Y-73780402D01*
X92396591Y-53796527D02*
X92418443Y-53753137D01*
X30460206Y-81134841D02*
X30426700Y-81170033D01*
X20656480Y-68322125D02*
X20611144Y-68304637D01*
X92278290Y-42343564D02*
X92265588Y-42315981D01*
X78294980Y-21712907D02*
X78259782Y-21746413D01*
X22203282Y-39138741D02*
X22247363Y-39150114D01*
X72531816Y-61862145D02*
X72505824Y-61821095D01*
X30686994Y-80710549D02*
X30674034Y-80757380D01*
X41932137Y-80518576D02*
X41928563Y-80567036D01*
X94305000Y-54220122D02*
X94305000Y-67389877D01*
X47826156Y-21999092D02*
X47777936Y-21993138D01*
X21062122Y-53231195D02*
X21110573Y-53234768D01*
X78509637Y-80848855D02*
X78489946Y-80893278D01*
X84066039Y-81319148D02*
X84024987Y-81293152D01*
X35727384Y-20844737D02*
X35735692Y-20796861D01*
X35833589Y-41634543D02*
X35811738Y-41591137D01*
X83809763Y-79820778D02*
X83841507Y-79783982D01*
X35759306Y-41455228D02*
X35746344Y-41408393D01*
X83627631Y-20702619D02*
X83642874Y-20656480D01*
X20990122Y-20000000D02*
X29726543Y-20000000D01*
X30575841Y-39637207D02*
X30599788Y-39679483D01*
X93363576Y-48228804D02*
X93293678Y-48230000D01*
X92528170Y-47867917D02*
X92498276Y-47829597D01*
X47373398Y-79625672D02*
X47414457Y-79599677D01*
X35759298Y-20702619D02*
X35774540Y-20656480D01*
X41816432Y-80936681D02*
X41792482Y-80978960D01*
X20042631Y-47527380D02*
X20029671Y-47480549D01*
X98939389Y-86232619D02*
X99012065Y-86166718D01*
X67354279Y-61456400D02*
X67345970Y-61504281D01*
X58901831Y-62308953D02*
X58853282Y-62321258D01*
X67363804Y-21059705D02*
X67360228Y-21108169D01*
X57943881Y-33122648D02*
X57990028Y-33137896D01*
X67289637Y-20611144D02*
X67307125Y-20656480D01*
X78295033Y-81170033D02*
X78259841Y-81203539D01*
X20796861Y-48210974D02*
X20749450Y-48200328D01*
X92151854Y-59263463D02*
X92177224Y-59246774D01*
X58648553Y-47240176D02*
X58647344Y-47288866D01*
X20289966Y-33369966D02*
X20325158Y-33336460D01*
X83614671Y-20749450D02*
X83627631Y-20702619D01*
X30354779Y-41934101D02*
X30316478Y-41963997D01*
X58531557Y-27556862D02*
X58507602Y-27599128D01*
X30060296Y-39214037D02*
X30105625Y-39231528D01*
X35883545Y-79897120D02*
X35911529Y-79857390D01*
X66841590Y-62184271D02*
X66798180Y-62206116D01*
X72621460Y-20325158D02*
X72654966Y-20289966D01*
X36283485Y-42062813D02*
X36240076Y-42040968D01*
X56088447Y-53396909D02*
X56129505Y-53370904D01*
X30460158Y-61976016D02*
X30426647Y-62011209D01*
X30193348Y-81343099D02*
X30149944Y-81364946D01*
X21886555Y-73903137D02*
X21908408Y-73946527D01*
X55647656Y-67438866D02*
X55646446Y-67390176D01*
X35857517Y-20481039D02*
X35883514Y-20439987D01*
X30014164Y-42116209D02*
X29967338Y-42129174D01*
X41088461Y-59312877D02*
X41136343Y-59321179D01*
X41136472Y-81440974D02*
X41088596Y-81449281D01*
X83809721Y-81098047D02*
X83779826Y-81059740D01*
X58661863Y-79237709D02*
X58671709Y-79266435D01*
X94164148Y-53711039D02*
X94188099Y-53753318D01*
X46933333Y-60291245D02*
X46934528Y-60242550D01*
X93052958Y-68350316D02*
X93006118Y-68337351D01*
X84526278Y-22002674D02*
X84477823Y-21999092D01*
X41838298Y-39724580D02*
X41857985Y-39769000D01*
X29726394Y-22001122D02*
X22305818Y-22000315D01*
X98606839Y-86412805D02*
X98687793Y-86383504D01*
X78542359Y-61600228D02*
X78527114Y-61646371D01*
X41533145Y-41962299D02*
X41493424Y-41990280D01*
X36006686Y-41867907D02*
X35973174Y-41832714D01*
X20289966Y-68090033D02*
X20256460Y-68054841D01*
X72369770Y-20892963D02*
X72375718Y-20844737D01*
X94188099Y-47706681D02*
X94164148Y-47748960D01*
X58647344Y-47288866D02*
X58643756Y-47337315D01*
X20400259Y-53424826D02*
X20439987Y-53396847D01*
X47500152Y-39253884D02*
X47544581Y-39234196D01*
X22188564Y-22026709D02*
X22160981Y-22039411D01*
X72505851Y-20481039D02*
X72531847Y-20439987D01*
X41738470Y-21602609D02*
X41708569Y-21640918D01*
X36041825Y-20256460D02*
X36078619Y-20224721D01*
X41890701Y-20702619D02*
X41903661Y-20749450D01*
X84151624Y-59396223D02*
X84196040Y-59376528D01*
X47373242Y-21836976D02*
X47333521Y-21808996D01*
X55402636Y-42159885D02*
X55373015Y-42156112D01*
X58650136Y-62600985D02*
X58648554Y-67390176D01*
X94138152Y-53669987D02*
X94164148Y-53711039D01*
X21746988Y-53555040D02*
X21778726Y-53591822D01*
X78103875Y-62162020D02*
X78061590Y-62185968D01*
X94110173Y-73780259D02*
X94138152Y-73819987D01*
X21778724Y-33441822D02*
X21808620Y-33480116D01*
X55787396Y-47749128D02*
X55763442Y-47706862D01*
X20990122Y-73380000D02*
X21062120Y-73381195D01*
X30716666Y-41168754D02*
X30715471Y-41217449D01*
X66753959Y-79531528D02*
X66798375Y-79551222D01*
X72559790Y-59703129D02*
X72589680Y-59664824D01*
X92331178Y-74129205D02*
X92344147Y-74082386D01*
X47682783Y-81430328D02*
X47635952Y-81417368D01*
X92703715Y-27885100D02*
X92665404Y-27855195D01*
X30521839Y-81059740D02*
X30491944Y-81098047D01*
X58867290Y-59293136D02*
X58896864Y-59300025D01*
X93196500Y-48225228D02*
X93148265Y-48219277D01*
X72422885Y-41501371D02*
X72407640Y-41455228D01*
X77594727Y-59302179D02*
X77643431Y-59303368D01*
X72804909Y-62135280D02*
X72765188Y-62107299D01*
X21204620Y-28060967D02*
X21156735Y-28069277D01*
X46975957Y-60003768D02*
X46991196Y-59957633D01*
X55572265Y-59206150D02*
X55591774Y-59182224D01*
X72407631Y-20702619D02*
X72422874Y-20656480D01*
X73306568Y-42156631D02*
X73258103Y-42153063D01*
X94300229Y-47337036D02*
X94294281Y-47385262D01*
X78145090Y-79624719D02*
X78184811Y-79652700D01*
X84287502Y-62261209D02*
X84241369Y-62245963D01*
X36041884Y-41901413D02*
X36006686Y-41867907D01*
X92322529Y-47432882D02*
X92314233Y-47384994D01*
X93979841Y-33336460D02*
X94015033Y-33369966D01*
X15617206Y-15076495D02*
X15528530Y-15118462D01*
X78585000Y-41167056D02*
X78583804Y-41215751D01*
X41366611Y-20095053D02*
X41410014Y-20116900D01*
X92265823Y-38993568D02*
X92283577Y-38952197D01*
X58390092Y-73705276D02*
X58421831Y-73742082D01*
X56088448Y-73546909D02*
X56129506Y-73520904D01*
X84025064Y-41989327D02*
X83985330Y-41961349D01*
X30575788Y-61820127D02*
X30549787Y-61861182D01*
X83642863Y-61647365D02*
X83627623Y-61601230D01*
X67345978Y-39953002D02*
X67354283Y-40000874D01*
X58123210Y-73496944D02*
X58165494Y-73520904D01*
X46991207Y-20656480D02*
X47008695Y-20611144D01*
X47158013Y-61941873D02*
X47128124Y-61903567D01*
X72394671Y-20749450D02*
X72407631Y-20702619D01*
X20844737Y-53240718D02*
X20892963Y-53234770D01*
X57992013Y-68322147D02*
X57945882Y-68337384D01*
X47635952Y-81417368D02*
X47589813Y-81402125D01*
X36561403Y-81449281D02*
X36513527Y-81440974D01*
X20566721Y-73475053D02*
X20611144Y-73455362D01*
X92782574Y-53370798D02*
X92824847Y-53346856D01*
X72655019Y-79747092D02*
X72690217Y-79713586D01*
X41857956Y-59913289D02*
X41875448Y-59958628D01*
X36197622Y-59443721D02*
X36239894Y-59419769D01*
X21928105Y-33690937D02*
X21945600Y-33736260D01*
X30715470Y-61359704D02*
X30711895Y-61408168D01*
X77882264Y-59344776D02*
X77928409Y-59360014D01*
X30711896Y-80567036D02*
X30705948Y-80615262D01*
X20004770Y-47337036D02*
X20001195Y-47288576D01*
X58507602Y-27599128D02*
X58481603Y-27640168D01*
X47128196Y-79859087D02*
X47158096Y-79820778D01*
X55322018Y-59301232D02*
X55365194Y-59304291D01*
X84381989Y-39177876D02*
X84429871Y-39169574D01*
X47158096Y-79820778D02*
X47189841Y-79783983D01*
X22000139Y-22300914D02*
X22001445Y-27089578D01*
X92082709Y-42166863D02*
X92053135Y-42159974D01*
X20140851Y-33561039D02*
X20166847Y-33519987D01*
X66472176Y-39160907D02*
X66520396Y-39166861D01*
X20892963Y-73384770D02*
X20941423Y-73381195D01*
X22000721Y-38870695D02*
X22004885Y-38907636D01*
X72440362Y-80848855D02*
X72422874Y-80803519D01*
X55667529Y-74177117D02*
X55678165Y-74129695D01*
X93865012Y-73546847D02*
X93904740Y-73574826D01*
X94262368Y-33782619D02*
X94275328Y-33829450D01*
X21158788Y-33090714D02*
X21206655Y-33099018D01*
X58571168Y-53841351D02*
X58588649Y-53886700D01*
X41792455Y-61821824D02*
X41766454Y-61862879D01*
X20000000Y-34070122D02*
X20001195Y-34021423D01*
X47730323Y-39177877D02*
X47778204Y-39169575D01*
X47874756Y-20001195D02*
X47923456Y-20000000D01*
X78294980Y-59592093D02*
X78328492Y-59627286D01*
X67039900Y-41902362D02*
X67003112Y-41934100D01*
X56491211Y-28069285D02*
X56443344Y-28060981D01*
X72394677Y-41408392D02*
X72384029Y-41360977D01*
X41608115Y-21746412D02*
X41571315Y-21778151D01*
X66708519Y-20057874D02*
X66753855Y-20075362D01*
X56589968Y-73381195D02*
X56638677Y-73380000D01*
X77835672Y-39187523D02*
X77882497Y-39200487D01*
X66841681Y-20116900D02*
X66883960Y-20140851D01*
X21998755Y-33972684D02*
X22002343Y-34021133D01*
X67335328Y-80710549D02*
X67322368Y-80757380D01*
X41928563Y-80567036D02*
X41922615Y-80615262D01*
X36327707Y-21926774D02*
X36283291Y-21907079D01*
X21110573Y-53234768D02*
X21158790Y-53240714D01*
X20095053Y-80893278D02*
X20075362Y-80848855D01*
X83642885Y-80115325D02*
X83660376Y-80069986D01*
X55527224Y-42213225D02*
X55488568Y-42189176D01*
X36283388Y-81364946D02*
X36239985Y-81343099D01*
X41875470Y-80114331D02*
X41890709Y-80160466D01*
X20523318Y-33196900D02*
X20566721Y-33175053D01*
X78527136Y-80114331D02*
X78542376Y-80160466D01*
X84024987Y-81293152D02*
X83985259Y-81265173D01*
X30549787Y-61861182D02*
X30521803Y-61900912D01*
X73021590Y-39215013D02*
X73067735Y-39199775D01*
X78222982Y-59526848D02*
X78259782Y-59558586D01*
X72384021Y-60099700D02*
X72394666Y-60052294D01*
X47730065Y-21984825D02*
X47682661Y-21974173D01*
X41088596Y-20010718D02*
X41136472Y-20019025D01*
X36041766Y-59559334D02*
X36078554Y-59527595D01*
X58167426Y-68239201D02*
X58125153Y-68263143D01*
X78061772Y-42040229D02*
X78018375Y-42062079D01*
X84334327Y-21974174D02*
X84287502Y-21961209D01*
X56636569Y-68380000D02*
X56587879Y-68378804D01*
X30658792Y-80803519D02*
X30641304Y-80848855D01*
X73306278Y-59304023D02*
X73354972Y-59302821D01*
X47923306Y-22003876D02*
X47874611Y-22002673D01*
X47589923Y-42098288D02*
X47544581Y-42080804D01*
X20194826Y-53630259D02*
X20224721Y-53591952D01*
X92701802Y-33274754D02*
X92741525Y-33246785D01*
X94188099Y-20523318D02*
X94209946Y-20566721D01*
X66374727Y-22001123D02*
X58957153Y-22000001D01*
X91922659Y-59300012D02*
X91972028Y-59301233D01*
X35717862Y-20941423D02*
X35721436Y-20892963D01*
X77973959Y-39233225D02*
X78018375Y-39252919D01*
X67140319Y-41796872D02*
X67108586Y-41833665D01*
X83946887Y-21779101D02*
X83910099Y-21747362D01*
X56351120Y-73422648D02*
X56397959Y-73409683D01*
X22327981Y-42158767D02*
X22284304Y-42155721D01*
X78444122Y-59783175D02*
X78468077Y-59825457D01*
X78527114Y-59958628D02*
X78542359Y-60004771D01*
X93693855Y-20075362D02*
X93738278Y-20095053D01*
X20001195Y-27138576D02*
X20000000Y-27089877D01*
X21060032Y-48228804D02*
X21011323Y-48230000D01*
X56213244Y-68284982D02*
X56169847Y-68263143D01*
X55646444Y-47240176D02*
X55645021Y-42532396D01*
X78555322Y-21253393D02*
X78542359Y-21300228D01*
X30716666Y-21011000D02*
X30715470Y-21059704D01*
X55633577Y-22207802D02*
X55622288Y-22179612D01*
X83614666Y-61554403D02*
X83604021Y-61506997D01*
X30549819Y-81020012D02*
X30521839Y-81059740D01*
X36327915Y-42082501D02*
X36283485Y-42062813D01*
X67322376Y-41456230D02*
X67307136Y-41502365D01*
X58481603Y-27640168D02*
X58453622Y-27679883D01*
X36561269Y-62291440D02*
X36513399Y-62283127D01*
X35746338Y-80710549D02*
X35735692Y-80663138D01*
X66568138Y-20019025D02*
X66615549Y-20029671D01*
X58481602Y-47790168D02*
X58453621Y-47829883D01*
X41409923Y-62185968D02*
X41366514Y-62207812D01*
X41571445Y-41932404D02*
X41533145Y-41962299D01*
X20029671Y-47480549D02*
X20019025Y-47433138D01*
X47008681Y-21392697D02*
X46991196Y-21347365D01*
X99228692Y-15617659D02*
X99186768Y-15528963D01*
X98939010Y-15227069D02*
X98860197Y-15168647D01*
X41322188Y-81384637D02*
X41276853Y-81402125D01*
X21884641Y-27556500D02*
X21860694Y-27598791D01*
X67354283Y-40000874D02*
X67360230Y-40049095D01*
X72888227Y-62185230D02*
X72845955Y-62161277D01*
X20796861Y-81440974D02*
X20749450Y-81430328D01*
X41816410Y-61779542D02*
X41792455Y-61821824D01*
X94294281Y-80615262D02*
X94285974Y-80663138D01*
X93508138Y-20019025D02*
X93555549Y-20029671D01*
X30491986Y-79818126D02*
X30521875Y-79856432D01*
X20256460Y-47904841D02*
X20224721Y-47868047D01*
X20010718Y-74224737D02*
X20019025Y-74176861D01*
X58588651Y-33736700D02*
X58603885Y-33782851D01*
X41493268Y-59468974D02*
X41533002Y-59496953D01*
X78555322Y-61553393D02*
X78542359Y-61600228D01*
X92322527Y-27282882D02*
X92314231Y-27234994D01*
X55645114Y-38907636D02*
X55648925Y-38877510D01*
X22001445Y-67389578D02*
X22000263Y-67438287D01*
X67074980Y-59593790D02*
X67108492Y-59628983D01*
X58677499Y-38979927D02*
X58691793Y-39007291D01*
X84429603Y-62293138D02*
X84381732Y-62284825D01*
X35735692Y-80663138D02*
X35727384Y-80615262D01*
X36327915Y-39232498D02*
X36373256Y-39215014D01*
X78144935Y-59468975D02*
X78184669Y-59496953D01*
X30276757Y-39323023D02*
X30316478Y-39351003D01*
X94305000Y-27089877D02*
X94303804Y-27138576D01*
X35941430Y-39519081D02*
X35973174Y-39482286D01*
X36419169Y-59345487D02*
X36465994Y-59332522D01*
X72481922Y-39680456D02*
X72505877Y-39638174D01*
X93823960Y-68239148D02*
X93781681Y-68263099D01*
X55653297Y-74273242D02*
X55659233Y-74225005D01*
X21960850Y-74082386D02*
X21973819Y-74129205D01*
X21996703Y-47336757D02*
X21990767Y-47384994D01*
X92442397Y-33560871D02*
X92468396Y-33519831D01*
X72690158Y-81203539D02*
X72654966Y-81170033D01*
X72888227Y-59419770D02*
X72931624Y-59397920D01*
X84241369Y-59359037D02*
X84287502Y-59343791D01*
X47074211Y-41675128D02*
X47050256Y-41632846D01*
X93006118Y-68337351D02*
X92959971Y-68322103D01*
X94015033Y-73669966D02*
X94048539Y-73705158D01*
X67365000Y-40146245D02*
X67365000Y-41168753D01*
X41903667Y-39907293D02*
X41914311Y-39954700D01*
X30674034Y-20702619D02*
X30686994Y-20749450D01*
X36116997Y-39351953D02*
X36156731Y-39323975D01*
X67108586Y-41833665D02*
X67075086Y-41868856D01*
X58853282Y-62321258D02*
X58824612Y-62332711D01*
X77973959Y-42081773D02*
X77928630Y-42099265D01*
X58571170Y-33691351D02*
X58588651Y-33736700D01*
X83947017Y-39383544D02*
X83985330Y-39353650D01*
X20010718Y-54074737D02*
X20019025Y-54026861D01*
X84025064Y-79625671D02*
X84066124Y-79599676D01*
X57990026Y-53287896D02*
X58035369Y-53305390D01*
M02*
