%TF.GenerationSoftware,KiCad,Pcbnew,(6.0.5)*%
%TF.CreationDate,2022-06-05T15:56:58-07:00*%
%TF.ProjectId,mosfet_chip_panel,6d6f7366-6574-45f6-9368-69705f70616e,rev?*%
%TF.SameCoordinates,Original*%
%TF.FileFunction,Legend,Bot*%
%TF.FilePolarity,Positive*%
%FSLAX46Y46*%
G04 Gerber Fmt 4.6, Leading zero omitted, Abs format (unit mm)*
G04 Created by KiCad (PCBNEW (6.0.5)) date 2022-06-05 15:56:58*
%MOMM*%
%LPD*%
G01*
G04 APERTURE LIST*
G04 Aperture macros list*
%AMRoundRect*
0 Rectangle with rounded corners*
0 $1 Rounding radius*
0 $2 $3 $4 $5 $6 $7 $8 $9 X,Y pos of 4 corners*
0 Add a 4 corners polygon primitive as box body*
4,1,4,$2,$3,$4,$5,$6,$7,$8,$9,$2,$3,0*
0 Add four circle primitives for the rounded corners*
1,1,$1+$1,$2,$3*
1,1,$1+$1,$4,$5*
1,1,$1+$1,$6,$7*
1,1,$1+$1,$8,$9*
0 Add four rect primitives between the rounded corners*
20,1,$1+$1,$2,$3,$4,$5,0*
20,1,$1+$1,$4,$5,$6,$7,0*
20,1,$1+$1,$6,$7,$8,$9,0*
20,1,$1+$1,$8,$9,$2,$3,0*%
G04 Aperture macros list end*
%ADD10C,0.250000*%
%ADD11C,0.150000*%
%ADD12C,0.700000*%
%ADD13C,2.132000*%
%ADD14C,2.386000*%
%ADD15RoundRect,0.050000X0.850000X-0.850000X0.850000X0.850000X-0.850000X0.850000X-0.850000X-0.850000X0*%
%ADD16O,1.800000X1.800000*%
%ADD17RoundRect,0.050000X-1.000000X0.952500X-1.000000X-0.952500X1.000000X-0.952500X1.000000X0.952500X0*%
%ADD18O,2.100000X2.005000*%
G04 APERTURE END LIST*
D10*
X54320238Y-31840714D02*
X54320238Y-31293095D01*
X53170238Y-31293095D01*
X53170238Y-32443095D02*
X53170238Y-32662142D01*
X53225000Y-32771666D01*
X53334523Y-32881190D01*
X53553571Y-32935952D01*
X53936904Y-32935952D01*
X54155952Y-32881190D01*
X54265476Y-32771666D01*
X54320238Y-32662142D01*
X54320238Y-32443095D01*
X54265476Y-32333571D01*
X54155952Y-32224047D01*
X53936904Y-32169285D01*
X53553571Y-32169285D01*
X53334523Y-32224047D01*
X53225000Y-32333571D01*
X53170238Y-32443095D01*
X53991666Y-33374047D02*
X53991666Y-33921666D01*
X54320238Y-33264523D02*
X53170238Y-33647857D01*
X54320238Y-34031190D01*
X54320238Y-34414523D02*
X53170238Y-34414523D01*
X53170238Y-34688333D01*
X53225000Y-34852619D01*
X53334523Y-34962142D01*
X53444047Y-35016904D01*
X53663095Y-35071666D01*
X53827380Y-35071666D01*
X54046428Y-35016904D01*
X54155952Y-34962142D01*
X54265476Y-34852619D01*
X54320238Y-34688333D01*
X54320238Y-34414523D01*
X90970238Y-72140714D02*
X90970238Y-71593095D01*
X89820238Y-71593095D01*
X89820238Y-72743095D02*
X89820238Y-72962142D01*
X89875000Y-73071666D01*
X89984523Y-73181190D01*
X90203571Y-73235952D01*
X90586904Y-73235952D01*
X90805952Y-73181190D01*
X90915476Y-73071666D01*
X90970238Y-72962142D01*
X90970238Y-72743095D01*
X90915476Y-72633571D01*
X90805952Y-72524047D01*
X90586904Y-72469285D01*
X90203571Y-72469285D01*
X89984523Y-72524047D01*
X89875000Y-72633571D01*
X89820238Y-72743095D01*
X90641666Y-73674047D02*
X90641666Y-74221666D01*
X90970238Y-73564523D02*
X89820238Y-73947857D01*
X90970238Y-74331190D01*
X90970238Y-74714523D02*
X89820238Y-74714523D01*
X89820238Y-74988333D01*
X89875000Y-75152619D01*
X89984523Y-75262142D01*
X90094047Y-75316904D01*
X90313095Y-75371666D01*
X90477380Y-75371666D01*
X90696428Y-75316904D01*
X90805952Y-75262142D01*
X90915476Y-75152619D01*
X90970238Y-74988333D01*
X90970238Y-74714523D01*
X54320238Y-72140714D02*
X54320238Y-71593095D01*
X53170238Y-71593095D01*
X53170238Y-72743095D02*
X53170238Y-72962142D01*
X53225000Y-73071666D01*
X53334523Y-73181190D01*
X53553571Y-73235952D01*
X53936904Y-73235952D01*
X54155952Y-73181190D01*
X54265476Y-73071666D01*
X54320238Y-72962142D01*
X54320238Y-72743095D01*
X54265476Y-72633571D01*
X54155952Y-72524047D01*
X53936904Y-72469285D01*
X53553571Y-72469285D01*
X53334523Y-72524047D01*
X53225000Y-72633571D01*
X53170238Y-72743095D01*
X53991666Y-73674047D02*
X53991666Y-74221666D01*
X54320238Y-73564523D02*
X53170238Y-73947857D01*
X54320238Y-74331190D01*
X54320238Y-74714523D02*
X53170238Y-74714523D01*
X53170238Y-74988333D01*
X53225000Y-75152619D01*
X53334523Y-75262142D01*
X53444047Y-75316904D01*
X53663095Y-75371666D01*
X53827380Y-75371666D01*
X54046428Y-75316904D01*
X54155952Y-75262142D01*
X54265476Y-75152619D01*
X54320238Y-74988333D01*
X54320238Y-74714523D01*
X90970238Y-51990714D02*
X90970238Y-51443095D01*
X89820238Y-51443095D01*
X89820238Y-52593095D02*
X89820238Y-52812142D01*
X89875000Y-52921666D01*
X89984523Y-53031190D01*
X90203571Y-53085952D01*
X90586904Y-53085952D01*
X90805952Y-53031190D01*
X90915476Y-52921666D01*
X90970238Y-52812142D01*
X90970238Y-52593095D01*
X90915476Y-52483571D01*
X90805952Y-52374047D01*
X90586904Y-52319285D01*
X90203571Y-52319285D01*
X89984523Y-52374047D01*
X89875000Y-52483571D01*
X89820238Y-52593095D01*
X90641666Y-53524047D02*
X90641666Y-54071666D01*
X90970238Y-53414523D02*
X89820238Y-53797857D01*
X90970238Y-54181190D01*
X90970238Y-54564523D02*
X89820238Y-54564523D01*
X89820238Y-54838333D01*
X89875000Y-55002619D01*
X89984523Y-55112142D01*
X90094047Y-55166904D01*
X90313095Y-55221666D01*
X90477380Y-55221666D01*
X90696428Y-55166904D01*
X90805952Y-55112142D01*
X90915476Y-55002619D01*
X90970238Y-54838333D01*
X90970238Y-54564523D01*
X54320238Y-51990714D02*
X54320238Y-51443095D01*
X53170238Y-51443095D01*
X53170238Y-52593095D02*
X53170238Y-52812142D01*
X53225000Y-52921666D01*
X53334523Y-53031190D01*
X53553571Y-53085952D01*
X53936904Y-53085952D01*
X54155952Y-53031190D01*
X54265476Y-52921666D01*
X54320238Y-52812142D01*
X54320238Y-52593095D01*
X54265476Y-52483571D01*
X54155952Y-52374047D01*
X53936904Y-52319285D01*
X53553571Y-52319285D01*
X53334523Y-52374047D01*
X53225000Y-52483571D01*
X53170238Y-52593095D01*
X53991666Y-53524047D02*
X53991666Y-54071666D01*
X54320238Y-53414523D02*
X53170238Y-53797857D01*
X54320238Y-54181190D01*
X54320238Y-54564523D02*
X53170238Y-54564523D01*
X53170238Y-54838333D01*
X53225000Y-55002619D01*
X53334523Y-55112142D01*
X53444047Y-55166904D01*
X53663095Y-55221666D01*
X53827380Y-55221666D01*
X54046428Y-55166904D01*
X54155952Y-55112142D01*
X54265476Y-55002619D01*
X54320238Y-54838333D01*
X54320238Y-54564523D01*
X90970238Y-31840714D02*
X90970238Y-31293095D01*
X89820238Y-31293095D01*
X89820238Y-32443095D02*
X89820238Y-32662142D01*
X89875000Y-32771666D01*
X89984523Y-32881190D01*
X90203571Y-32935952D01*
X90586904Y-32935952D01*
X90805952Y-32881190D01*
X90915476Y-32771666D01*
X90970238Y-32662142D01*
X90970238Y-32443095D01*
X90915476Y-32333571D01*
X90805952Y-32224047D01*
X90586904Y-32169285D01*
X90203571Y-32169285D01*
X89984523Y-32224047D01*
X89875000Y-32333571D01*
X89820238Y-32443095D01*
X90641666Y-33374047D02*
X90641666Y-33921666D01*
X90970238Y-33264523D02*
X89820238Y-33647857D01*
X90970238Y-34031190D01*
X90970238Y-34414523D02*
X89820238Y-34414523D01*
X89820238Y-34688333D01*
X89875000Y-34852619D01*
X89984523Y-34962142D01*
X90094047Y-35016904D01*
X90313095Y-35071666D01*
X90477380Y-35071666D01*
X90696428Y-35016904D01*
X90805952Y-34962142D01*
X90915476Y-34852619D01*
X90970238Y-34688333D01*
X90970238Y-34414523D01*
D11*
X54130952Y-29076428D02*
X53369047Y-29076428D01*
X53750000Y-29457380D02*
X53750000Y-28695476D01*
X90780952Y-69376428D02*
X90019047Y-69376428D01*
X90400000Y-69757380D02*
X90400000Y-68995476D01*
X54130952Y-69376428D02*
X53369047Y-69376428D01*
X53750000Y-69757380D02*
X53750000Y-68995476D01*
X90780952Y-49226428D02*
X90019047Y-49226428D01*
X90400000Y-49607380D02*
X90400000Y-48845476D01*
X54130952Y-49226428D02*
X53369047Y-49226428D01*
X53750000Y-49607380D02*
X53750000Y-48845476D01*
X90780952Y-29076428D02*
X90019047Y-29076428D01*
X90400000Y-29457380D02*
X90400000Y-28695476D01*
X42464294Y-29538331D02*
X42511913Y-29490712D01*
X42607151Y-29347855D01*
X42654770Y-29252617D01*
X42702389Y-29109759D01*
X42750009Y-28871664D01*
X42750009Y-28681188D01*
X42702389Y-28443093D01*
X42654770Y-28300236D01*
X42607151Y-28204998D01*
X42511913Y-28062140D01*
X42464294Y-28014521D01*
X42083342Y-29157378D02*
X42083342Y-28157378D01*
X41035723Y-29157378D02*
X41369056Y-28681188D01*
X41607151Y-29157378D02*
X41607151Y-28157378D01*
X41226199Y-28157378D01*
X41130961Y-28204998D01*
X41083342Y-28252617D01*
X41035723Y-28347855D01*
X41035723Y-28490712D01*
X41083342Y-28585950D01*
X41130961Y-28633569D01*
X41226199Y-28681188D01*
X41607151Y-28681188D01*
X40130961Y-29157378D02*
X40607151Y-29157378D01*
X40607151Y-28157378D01*
X39892866Y-28157378D02*
X39226199Y-28157378D01*
X39892866Y-29157378D01*
X39226199Y-29157378D01*
X38940485Y-28157378D02*
X38321437Y-28157378D01*
X38654770Y-28538331D01*
X38511913Y-28538331D01*
X38416675Y-28585950D01*
X38369056Y-28633569D01*
X38321437Y-28728807D01*
X38321437Y-28966902D01*
X38369056Y-29062140D01*
X38416675Y-29109759D01*
X38511913Y-29157378D01*
X38797628Y-29157378D01*
X38892866Y-29109759D01*
X38940485Y-29062140D01*
X37464294Y-28490712D02*
X37464294Y-29157378D01*
X37702389Y-28109759D02*
X37940485Y-28824045D01*
X37321437Y-28824045D01*
X37035723Y-29538331D02*
X36988104Y-29490712D01*
X36892866Y-29347855D01*
X36845247Y-29252617D01*
X36797628Y-29109759D01*
X36750009Y-28871664D01*
X36750009Y-28681188D01*
X36797628Y-28443093D01*
X36845247Y-28300236D01*
X36892866Y-28204998D01*
X36988104Y-28062140D01*
X37035723Y-28014521D01*
X79114294Y-69838331D02*
X79161913Y-69790712D01*
X79257151Y-69647855D01*
X79304770Y-69552617D01*
X79352389Y-69409759D01*
X79400009Y-69171664D01*
X79400009Y-68981188D01*
X79352389Y-68743093D01*
X79304770Y-68600236D01*
X79257151Y-68504998D01*
X79161913Y-68362140D01*
X79114294Y-68314521D01*
X78733342Y-69457378D02*
X78733342Y-68457378D01*
X77685723Y-69457378D02*
X78019056Y-68981188D01*
X78257151Y-69457378D02*
X78257151Y-68457378D01*
X77876199Y-68457378D01*
X77780961Y-68504998D01*
X77733342Y-68552617D01*
X77685723Y-68647855D01*
X77685723Y-68790712D01*
X77733342Y-68885950D01*
X77780961Y-68933569D01*
X77876199Y-68981188D01*
X78257151Y-68981188D01*
X76780961Y-69457378D02*
X77257151Y-69457378D01*
X77257151Y-68457378D01*
X76542866Y-68457378D02*
X75876199Y-68457378D01*
X76542866Y-69457378D01*
X75876199Y-69457378D01*
X75590485Y-68457378D02*
X74971437Y-68457378D01*
X75304770Y-68838331D01*
X75161913Y-68838331D01*
X75066675Y-68885950D01*
X75019056Y-68933569D01*
X74971437Y-69028807D01*
X74971437Y-69266902D01*
X75019056Y-69362140D01*
X75066675Y-69409759D01*
X75161913Y-69457378D01*
X75447628Y-69457378D01*
X75542866Y-69409759D01*
X75590485Y-69362140D01*
X74114294Y-68790712D02*
X74114294Y-69457378D01*
X74352389Y-68409759D02*
X74590485Y-69124045D01*
X73971437Y-69124045D01*
X73685723Y-69838331D02*
X73638104Y-69790712D01*
X73542866Y-69647855D01*
X73495247Y-69552617D01*
X73447628Y-69409759D01*
X73400009Y-69171664D01*
X73400009Y-68981188D01*
X73447628Y-68743093D01*
X73495247Y-68600236D01*
X73542866Y-68504998D01*
X73638104Y-68362140D01*
X73685723Y-68314521D01*
X42464294Y-69838331D02*
X42511913Y-69790712D01*
X42607151Y-69647855D01*
X42654770Y-69552617D01*
X42702389Y-69409759D01*
X42750009Y-69171664D01*
X42750009Y-68981188D01*
X42702389Y-68743093D01*
X42654770Y-68600236D01*
X42607151Y-68504998D01*
X42511913Y-68362140D01*
X42464294Y-68314521D01*
X42083342Y-69457378D02*
X42083342Y-68457378D01*
X41035723Y-69457378D02*
X41369056Y-68981188D01*
X41607151Y-69457378D02*
X41607151Y-68457378D01*
X41226199Y-68457378D01*
X41130961Y-68504998D01*
X41083342Y-68552617D01*
X41035723Y-68647855D01*
X41035723Y-68790712D01*
X41083342Y-68885950D01*
X41130961Y-68933569D01*
X41226199Y-68981188D01*
X41607151Y-68981188D01*
X40130961Y-69457378D02*
X40607151Y-69457378D01*
X40607151Y-68457378D01*
X39892866Y-68457378D02*
X39226199Y-68457378D01*
X39892866Y-69457378D01*
X39226199Y-69457378D01*
X38940485Y-68457378D02*
X38321437Y-68457378D01*
X38654770Y-68838331D01*
X38511913Y-68838331D01*
X38416675Y-68885950D01*
X38369056Y-68933569D01*
X38321437Y-69028807D01*
X38321437Y-69266902D01*
X38369056Y-69362140D01*
X38416675Y-69409759D01*
X38511913Y-69457378D01*
X38797628Y-69457378D01*
X38892866Y-69409759D01*
X38940485Y-69362140D01*
X37464294Y-68790712D02*
X37464294Y-69457378D01*
X37702389Y-68409759D02*
X37940485Y-69124045D01*
X37321437Y-69124045D01*
X37035723Y-69838331D02*
X36988104Y-69790712D01*
X36892866Y-69647855D01*
X36845247Y-69552617D01*
X36797628Y-69409759D01*
X36750009Y-69171664D01*
X36750009Y-68981188D01*
X36797628Y-68743093D01*
X36845247Y-68600236D01*
X36892866Y-68504998D01*
X36988104Y-68362140D01*
X37035723Y-68314521D01*
X79114294Y-49688331D02*
X79161913Y-49640712D01*
X79257151Y-49497855D01*
X79304770Y-49402617D01*
X79352389Y-49259759D01*
X79400009Y-49021664D01*
X79400009Y-48831188D01*
X79352389Y-48593093D01*
X79304770Y-48450236D01*
X79257151Y-48354998D01*
X79161913Y-48212140D01*
X79114294Y-48164521D01*
X78733342Y-49307378D02*
X78733342Y-48307378D01*
X77685723Y-49307378D02*
X78019056Y-48831188D01*
X78257151Y-49307378D02*
X78257151Y-48307378D01*
X77876199Y-48307378D01*
X77780961Y-48354998D01*
X77733342Y-48402617D01*
X77685723Y-48497855D01*
X77685723Y-48640712D01*
X77733342Y-48735950D01*
X77780961Y-48783569D01*
X77876199Y-48831188D01*
X78257151Y-48831188D01*
X76780961Y-49307378D02*
X77257151Y-49307378D01*
X77257151Y-48307378D01*
X76542866Y-48307378D02*
X75876199Y-48307378D01*
X76542866Y-49307378D01*
X75876199Y-49307378D01*
X75590485Y-48307378D02*
X74971437Y-48307378D01*
X75304770Y-48688331D01*
X75161913Y-48688331D01*
X75066675Y-48735950D01*
X75019056Y-48783569D01*
X74971437Y-48878807D01*
X74971437Y-49116902D01*
X75019056Y-49212140D01*
X75066675Y-49259759D01*
X75161913Y-49307378D01*
X75447628Y-49307378D01*
X75542866Y-49259759D01*
X75590485Y-49212140D01*
X74114294Y-48640712D02*
X74114294Y-49307378D01*
X74352389Y-48259759D02*
X74590485Y-48974045D01*
X73971437Y-48974045D01*
X73685723Y-49688331D02*
X73638104Y-49640712D01*
X73542866Y-49497855D01*
X73495247Y-49402617D01*
X73447628Y-49259759D01*
X73400009Y-49021664D01*
X73400009Y-48831188D01*
X73447628Y-48593093D01*
X73495247Y-48450236D01*
X73542866Y-48354998D01*
X73638104Y-48212140D01*
X73685723Y-48164521D01*
X42464294Y-49688331D02*
X42511913Y-49640712D01*
X42607151Y-49497855D01*
X42654770Y-49402617D01*
X42702389Y-49259759D01*
X42750009Y-49021664D01*
X42750009Y-48831188D01*
X42702389Y-48593093D01*
X42654770Y-48450236D01*
X42607151Y-48354998D01*
X42511913Y-48212140D01*
X42464294Y-48164521D01*
X42083342Y-49307378D02*
X42083342Y-48307378D01*
X41035723Y-49307378D02*
X41369056Y-48831188D01*
X41607151Y-49307378D02*
X41607151Y-48307378D01*
X41226199Y-48307378D01*
X41130961Y-48354998D01*
X41083342Y-48402617D01*
X41035723Y-48497855D01*
X41035723Y-48640712D01*
X41083342Y-48735950D01*
X41130961Y-48783569D01*
X41226199Y-48831188D01*
X41607151Y-48831188D01*
X40130961Y-49307378D02*
X40607151Y-49307378D01*
X40607151Y-48307378D01*
X39892866Y-48307378D02*
X39226199Y-48307378D01*
X39892866Y-49307378D01*
X39226199Y-49307378D01*
X38940485Y-48307378D02*
X38321437Y-48307378D01*
X38654770Y-48688331D01*
X38511913Y-48688331D01*
X38416675Y-48735950D01*
X38369056Y-48783569D01*
X38321437Y-48878807D01*
X38321437Y-49116902D01*
X38369056Y-49212140D01*
X38416675Y-49259759D01*
X38511913Y-49307378D01*
X38797628Y-49307378D01*
X38892866Y-49259759D01*
X38940485Y-49212140D01*
X37464294Y-48640712D02*
X37464294Y-49307378D01*
X37702389Y-48259759D02*
X37940485Y-48974045D01*
X37321437Y-48974045D01*
X37035723Y-49688331D02*
X36988104Y-49640712D01*
X36892866Y-49497855D01*
X36845247Y-49402617D01*
X36797628Y-49259759D01*
X36750009Y-49021664D01*
X36750009Y-48831188D01*
X36797628Y-48593093D01*
X36845247Y-48450236D01*
X36892866Y-48354998D01*
X36988104Y-48212140D01*
X37035723Y-48164521D01*
X79114294Y-29538331D02*
X79161913Y-29490712D01*
X79257151Y-29347855D01*
X79304770Y-29252617D01*
X79352389Y-29109759D01*
X79400009Y-28871664D01*
X79400009Y-28681188D01*
X79352389Y-28443093D01*
X79304770Y-28300236D01*
X79257151Y-28204998D01*
X79161913Y-28062140D01*
X79114294Y-28014521D01*
X78733342Y-29157378D02*
X78733342Y-28157378D01*
X77685723Y-29157378D02*
X78019056Y-28681188D01*
X78257151Y-29157378D02*
X78257151Y-28157378D01*
X77876199Y-28157378D01*
X77780961Y-28204998D01*
X77733342Y-28252617D01*
X77685723Y-28347855D01*
X77685723Y-28490712D01*
X77733342Y-28585950D01*
X77780961Y-28633569D01*
X77876199Y-28681188D01*
X78257151Y-28681188D01*
X76780961Y-29157378D02*
X77257151Y-29157378D01*
X77257151Y-28157378D01*
X76542866Y-28157378D02*
X75876199Y-28157378D01*
X76542866Y-29157378D01*
X75876199Y-29157378D01*
X75590485Y-28157378D02*
X74971437Y-28157378D01*
X75304770Y-28538331D01*
X75161913Y-28538331D01*
X75066675Y-28585950D01*
X75019056Y-28633569D01*
X74971437Y-28728807D01*
X74971437Y-28966902D01*
X75019056Y-29062140D01*
X75066675Y-29109759D01*
X75161913Y-29157378D01*
X75447628Y-29157378D01*
X75542866Y-29109759D01*
X75590485Y-29062140D01*
X74114294Y-28490712D02*
X74114294Y-29157378D01*
X74352389Y-28109759D02*
X74590485Y-28824045D01*
X73971437Y-28824045D01*
X73685723Y-29538331D02*
X73638104Y-29490712D01*
X73542866Y-29347855D01*
X73495247Y-29252617D01*
X73447628Y-29109759D01*
X73400009Y-28871664D01*
X73400009Y-28681188D01*
X73447628Y-28443093D01*
X73495247Y-28300236D01*
X73542866Y-28204998D01*
X73638104Y-28062140D01*
X73685723Y-28014521D01*
X26730952Y-29076428D02*
X25969047Y-29076428D01*
X26350000Y-29457380D02*
X26350000Y-28695476D01*
X63380952Y-69376428D02*
X62619047Y-69376428D01*
X63000000Y-69757380D02*
X63000000Y-68995476D01*
X26730952Y-69376428D02*
X25969047Y-69376428D01*
X26350000Y-69757380D02*
X26350000Y-68995476D01*
X63380952Y-49226428D02*
X62619047Y-49226428D01*
X63000000Y-49607380D02*
X63000000Y-48845476D01*
X26730952Y-49226428D02*
X25969047Y-49226428D01*
X26350000Y-49607380D02*
X26350000Y-48845476D01*
X63380952Y-29076428D02*
X62619047Y-29076428D01*
X63000000Y-29457380D02*
X63000000Y-28695476D01*
X26428571Y-37485952D02*
X26428571Y-36724047D01*
X63078571Y-77785952D02*
X63078571Y-77024047D01*
X26428571Y-77785952D02*
X26428571Y-77024047D01*
X63078571Y-57635952D02*
X63078571Y-56874047D01*
X26428571Y-57635952D02*
X26428571Y-56874047D01*
X63078571Y-37485952D02*
X63078571Y-36724047D01*
D10*
X25657142Y-34855000D02*
X26857142Y-34855000D01*
X26857142Y-34397857D01*
X26800000Y-34283571D01*
X26742857Y-34226428D01*
X26628571Y-34169285D01*
X26457142Y-34169285D01*
X26342857Y-34226428D01*
X26285714Y-34283571D01*
X26228571Y-34397857D01*
X26228571Y-34855000D01*
X26857142Y-33769285D02*
X25657142Y-33483571D01*
X26514285Y-33255000D01*
X25657142Y-33026428D01*
X26857142Y-32740714D01*
X25657142Y-31597857D02*
X26228571Y-31997857D01*
X25657142Y-32283571D02*
X26857142Y-32283571D01*
X26857142Y-31826428D01*
X26800000Y-31712142D01*
X26742857Y-31655000D01*
X26628571Y-31597857D01*
X26457142Y-31597857D01*
X26342857Y-31655000D01*
X26285714Y-31712142D01*
X26228571Y-31826428D01*
X26228571Y-32283571D01*
X62307142Y-75155000D02*
X63507142Y-75155000D01*
X63507142Y-74697857D01*
X63450000Y-74583571D01*
X63392857Y-74526428D01*
X63278571Y-74469285D01*
X63107142Y-74469285D01*
X62992857Y-74526428D01*
X62935714Y-74583571D01*
X62878571Y-74697857D01*
X62878571Y-75155000D01*
X63507142Y-74069285D02*
X62307142Y-73783571D01*
X63164285Y-73555000D01*
X62307142Y-73326428D01*
X63507142Y-73040714D01*
X62307142Y-71897857D02*
X62878571Y-72297857D01*
X62307142Y-72583571D02*
X63507142Y-72583571D01*
X63507142Y-72126428D01*
X63450000Y-72012142D01*
X63392857Y-71955000D01*
X63278571Y-71897857D01*
X63107142Y-71897857D01*
X62992857Y-71955000D01*
X62935714Y-72012142D01*
X62878571Y-72126428D01*
X62878571Y-72583571D01*
X25657142Y-75155000D02*
X26857142Y-75155000D01*
X26857142Y-74697857D01*
X26800000Y-74583571D01*
X26742857Y-74526428D01*
X26628571Y-74469285D01*
X26457142Y-74469285D01*
X26342857Y-74526428D01*
X26285714Y-74583571D01*
X26228571Y-74697857D01*
X26228571Y-75155000D01*
X26857142Y-74069285D02*
X25657142Y-73783571D01*
X26514285Y-73555000D01*
X25657142Y-73326428D01*
X26857142Y-73040714D01*
X25657142Y-71897857D02*
X26228571Y-72297857D01*
X25657142Y-72583571D02*
X26857142Y-72583571D01*
X26857142Y-72126428D01*
X26800000Y-72012142D01*
X26742857Y-71955000D01*
X26628571Y-71897857D01*
X26457142Y-71897857D01*
X26342857Y-71955000D01*
X26285714Y-72012142D01*
X26228571Y-72126428D01*
X26228571Y-72583571D01*
X62307142Y-55005000D02*
X63507142Y-55005000D01*
X63507142Y-54547857D01*
X63450000Y-54433571D01*
X63392857Y-54376428D01*
X63278571Y-54319285D01*
X63107142Y-54319285D01*
X62992857Y-54376428D01*
X62935714Y-54433571D01*
X62878571Y-54547857D01*
X62878571Y-55005000D01*
X63507142Y-53919285D02*
X62307142Y-53633571D01*
X63164285Y-53405000D01*
X62307142Y-53176428D01*
X63507142Y-52890714D01*
X62307142Y-51747857D02*
X62878571Y-52147857D01*
X62307142Y-52433571D02*
X63507142Y-52433571D01*
X63507142Y-51976428D01*
X63450000Y-51862142D01*
X63392857Y-51805000D01*
X63278571Y-51747857D01*
X63107142Y-51747857D01*
X62992857Y-51805000D01*
X62935714Y-51862142D01*
X62878571Y-51976428D01*
X62878571Y-52433571D01*
X25657142Y-55005000D02*
X26857142Y-55005000D01*
X26857142Y-54547857D01*
X26800000Y-54433571D01*
X26742857Y-54376428D01*
X26628571Y-54319285D01*
X26457142Y-54319285D01*
X26342857Y-54376428D01*
X26285714Y-54433571D01*
X26228571Y-54547857D01*
X26228571Y-55005000D01*
X26857142Y-53919285D02*
X25657142Y-53633571D01*
X26514285Y-53405000D01*
X25657142Y-53176428D01*
X26857142Y-52890714D01*
X25657142Y-51747857D02*
X26228571Y-52147857D01*
X25657142Y-52433571D02*
X26857142Y-52433571D01*
X26857142Y-51976428D01*
X26800000Y-51862142D01*
X26742857Y-51805000D01*
X26628571Y-51747857D01*
X26457142Y-51747857D01*
X26342857Y-51805000D01*
X26285714Y-51862142D01*
X26228571Y-51976428D01*
X26228571Y-52433571D01*
X62307142Y-34855000D02*
X63507142Y-34855000D01*
X63507142Y-34397857D01*
X63450000Y-34283571D01*
X63392857Y-34226428D01*
X63278571Y-34169285D01*
X63107142Y-34169285D01*
X62992857Y-34226428D01*
X62935714Y-34283571D01*
X62878571Y-34397857D01*
X62878571Y-34855000D01*
X63507142Y-33769285D02*
X62307142Y-33483571D01*
X63164285Y-33255000D01*
X62307142Y-33026428D01*
X63507142Y-32740714D01*
X62307142Y-31597857D02*
X62878571Y-31997857D01*
X62307142Y-32283571D02*
X63507142Y-32283571D01*
X63507142Y-31826428D01*
X63450000Y-31712142D01*
X63392857Y-31655000D01*
X63278571Y-31597857D01*
X63107142Y-31597857D01*
X62992857Y-31655000D01*
X62935714Y-31712142D01*
X62878571Y-31826428D01*
X62878571Y-32283571D01*
D11*
X33178571Y-26590714D02*
X32940476Y-27257380D01*
X32702380Y-26590714D01*
X31797619Y-27257380D02*
X32369047Y-27257380D01*
X32083333Y-27257380D02*
X32083333Y-26257380D01*
X32178571Y-26400238D01*
X32273809Y-26495476D01*
X32369047Y-26543095D01*
X31369047Y-27162142D02*
X31321428Y-27209761D01*
X31369047Y-27257380D01*
X31416666Y-27209761D01*
X31369047Y-27162142D01*
X31369047Y-27257380D01*
X30702380Y-26257380D02*
X30607142Y-26257380D01*
X30511904Y-26305000D01*
X30464285Y-26352619D01*
X30416666Y-26447857D01*
X30369047Y-26638333D01*
X30369047Y-26876428D01*
X30416666Y-27066904D01*
X30464285Y-27162142D01*
X30511904Y-27209761D01*
X30607142Y-27257380D01*
X30702380Y-27257380D01*
X30797619Y-27209761D01*
X30845238Y-27162142D01*
X30892857Y-27066904D01*
X30940476Y-26876428D01*
X30940476Y-26638333D01*
X30892857Y-26447857D01*
X30845238Y-26352619D01*
X30797619Y-26305000D01*
X30702380Y-26257380D01*
X69828571Y-66890714D02*
X69590476Y-67557380D01*
X69352380Y-66890714D01*
X68447619Y-67557380D02*
X69019047Y-67557380D01*
X68733333Y-67557380D02*
X68733333Y-66557380D01*
X68828571Y-66700238D01*
X68923809Y-66795476D01*
X69019047Y-66843095D01*
X68019047Y-67462142D02*
X67971428Y-67509761D01*
X68019047Y-67557380D01*
X68066666Y-67509761D01*
X68019047Y-67462142D01*
X68019047Y-67557380D01*
X67352380Y-66557380D02*
X67257142Y-66557380D01*
X67161904Y-66605000D01*
X67114285Y-66652619D01*
X67066666Y-66747857D01*
X67019047Y-66938333D01*
X67019047Y-67176428D01*
X67066666Y-67366904D01*
X67114285Y-67462142D01*
X67161904Y-67509761D01*
X67257142Y-67557380D01*
X67352380Y-67557380D01*
X67447619Y-67509761D01*
X67495238Y-67462142D01*
X67542857Y-67366904D01*
X67590476Y-67176428D01*
X67590476Y-66938333D01*
X67542857Y-66747857D01*
X67495238Y-66652619D01*
X67447619Y-66605000D01*
X67352380Y-66557380D01*
X33178571Y-66890714D02*
X32940476Y-67557380D01*
X32702380Y-66890714D01*
X31797619Y-67557380D02*
X32369047Y-67557380D01*
X32083333Y-67557380D02*
X32083333Y-66557380D01*
X32178571Y-66700238D01*
X32273809Y-66795476D01*
X32369047Y-66843095D01*
X31369047Y-67462142D02*
X31321428Y-67509761D01*
X31369047Y-67557380D01*
X31416666Y-67509761D01*
X31369047Y-67462142D01*
X31369047Y-67557380D01*
X30702380Y-66557380D02*
X30607142Y-66557380D01*
X30511904Y-66605000D01*
X30464285Y-66652619D01*
X30416666Y-66747857D01*
X30369047Y-66938333D01*
X30369047Y-67176428D01*
X30416666Y-67366904D01*
X30464285Y-67462142D01*
X30511904Y-67509761D01*
X30607142Y-67557380D01*
X30702380Y-67557380D01*
X30797619Y-67509761D01*
X30845238Y-67462142D01*
X30892857Y-67366904D01*
X30940476Y-67176428D01*
X30940476Y-66938333D01*
X30892857Y-66747857D01*
X30845238Y-66652619D01*
X30797619Y-66605000D01*
X30702380Y-66557380D01*
X69828571Y-46740714D02*
X69590476Y-47407380D01*
X69352380Y-46740714D01*
X68447619Y-47407380D02*
X69019047Y-47407380D01*
X68733333Y-47407380D02*
X68733333Y-46407380D01*
X68828571Y-46550238D01*
X68923809Y-46645476D01*
X69019047Y-46693095D01*
X68019047Y-47312142D02*
X67971428Y-47359761D01*
X68019047Y-47407380D01*
X68066666Y-47359761D01*
X68019047Y-47312142D01*
X68019047Y-47407380D01*
X67352380Y-46407380D02*
X67257142Y-46407380D01*
X67161904Y-46455000D01*
X67114285Y-46502619D01*
X67066666Y-46597857D01*
X67019047Y-46788333D01*
X67019047Y-47026428D01*
X67066666Y-47216904D01*
X67114285Y-47312142D01*
X67161904Y-47359761D01*
X67257142Y-47407380D01*
X67352380Y-47407380D01*
X67447619Y-47359761D01*
X67495238Y-47312142D01*
X67542857Y-47216904D01*
X67590476Y-47026428D01*
X67590476Y-46788333D01*
X67542857Y-46597857D01*
X67495238Y-46502619D01*
X67447619Y-46455000D01*
X67352380Y-46407380D01*
X33178571Y-46740714D02*
X32940476Y-47407380D01*
X32702380Y-46740714D01*
X31797619Y-47407380D02*
X32369047Y-47407380D01*
X32083333Y-47407380D02*
X32083333Y-46407380D01*
X32178571Y-46550238D01*
X32273809Y-46645476D01*
X32369047Y-46693095D01*
X31369047Y-47312142D02*
X31321428Y-47359761D01*
X31369047Y-47407380D01*
X31416666Y-47359761D01*
X31369047Y-47312142D01*
X31369047Y-47407380D01*
X30702380Y-46407380D02*
X30607142Y-46407380D01*
X30511904Y-46455000D01*
X30464285Y-46502619D01*
X30416666Y-46597857D01*
X30369047Y-46788333D01*
X30369047Y-47026428D01*
X30416666Y-47216904D01*
X30464285Y-47312142D01*
X30511904Y-47359761D01*
X30607142Y-47407380D01*
X30702380Y-47407380D01*
X30797619Y-47359761D01*
X30845238Y-47312142D01*
X30892857Y-47216904D01*
X30940476Y-47026428D01*
X30940476Y-46788333D01*
X30892857Y-46597857D01*
X30845238Y-46502619D01*
X30797619Y-46455000D01*
X30702380Y-46407380D01*
X69828571Y-26590714D02*
X69590476Y-27257380D01*
X69352380Y-26590714D01*
X68447619Y-27257380D02*
X69019047Y-27257380D01*
X68733333Y-27257380D02*
X68733333Y-26257380D01*
X68828571Y-26400238D01*
X68923809Y-26495476D01*
X69019047Y-26543095D01*
X68019047Y-27162142D02*
X67971428Y-27209761D01*
X68019047Y-27257380D01*
X68066666Y-27209761D01*
X68019047Y-27162142D01*
X68019047Y-27257380D01*
X67352380Y-26257380D02*
X67257142Y-26257380D01*
X67161904Y-26305000D01*
X67114285Y-26352619D01*
X67066666Y-26447857D01*
X67019047Y-26638333D01*
X67019047Y-26876428D01*
X67066666Y-27066904D01*
X67114285Y-27162142D01*
X67161904Y-27209761D01*
X67257142Y-27257380D01*
X67352380Y-27257380D01*
X67447619Y-27209761D01*
X67495238Y-27162142D01*
X67542857Y-27066904D01*
X67590476Y-26876428D01*
X67590476Y-26638333D01*
X67542857Y-26447857D01*
X67495238Y-26352619D01*
X67447619Y-26305000D01*
X67352380Y-26257380D01*
X53778571Y-37485952D02*
X53778571Y-36724047D01*
X90428571Y-77785952D02*
X90428571Y-77024047D01*
X53778571Y-77785952D02*
X53778571Y-77024047D01*
X90428571Y-57635952D02*
X90428571Y-56874047D01*
X53778571Y-57635952D02*
X53778571Y-56874047D01*
X90428571Y-37485952D02*
X90428571Y-36724047D01*
X49564285Y-27257380D02*
X49564285Y-26257380D01*
X49183333Y-26257380D01*
X49088095Y-26305000D01*
X49040476Y-26352619D01*
X48992857Y-26447857D01*
X48992857Y-26590714D01*
X49040476Y-26685952D01*
X49088095Y-26733571D01*
X49183333Y-26781190D01*
X49564285Y-26781190D01*
X48421428Y-27257380D02*
X48516666Y-27209761D01*
X48564285Y-27162142D01*
X48611904Y-27066904D01*
X48611904Y-26781190D01*
X48564285Y-26685952D01*
X48516666Y-26638333D01*
X48421428Y-26590714D01*
X48278571Y-26590714D01*
X48183333Y-26638333D01*
X48135714Y-26685952D01*
X48088095Y-26781190D01*
X48088095Y-27066904D01*
X48135714Y-27162142D01*
X48183333Y-27209761D01*
X48278571Y-27257380D01*
X48421428Y-27257380D01*
X47754761Y-26590714D02*
X47564285Y-27257380D01*
X47373809Y-26781190D01*
X47183333Y-27257380D01*
X46992857Y-26590714D01*
X46230952Y-27209761D02*
X46326190Y-27257380D01*
X46516666Y-27257380D01*
X46611904Y-27209761D01*
X46659523Y-27114523D01*
X46659523Y-26733571D01*
X46611904Y-26638333D01*
X46516666Y-26590714D01*
X46326190Y-26590714D01*
X46230952Y-26638333D01*
X46183333Y-26733571D01*
X46183333Y-26828809D01*
X46659523Y-26924047D01*
X45754761Y-27257380D02*
X45754761Y-26590714D01*
X45754761Y-26781190D02*
X45707142Y-26685952D01*
X45659523Y-26638333D01*
X45564285Y-26590714D01*
X45469047Y-26590714D01*
X44373809Y-27257380D02*
X44373809Y-26257380D01*
X44040476Y-26971666D01*
X43707142Y-26257380D01*
X43707142Y-27257380D01*
X43040476Y-26257380D02*
X42850000Y-26257380D01*
X42754761Y-26305000D01*
X42659523Y-26400238D01*
X42611904Y-26590714D01*
X42611904Y-26924047D01*
X42659523Y-27114523D01*
X42754761Y-27209761D01*
X42850000Y-27257380D01*
X43040476Y-27257380D01*
X43135714Y-27209761D01*
X43230952Y-27114523D01*
X43278571Y-26924047D01*
X43278571Y-26590714D01*
X43230952Y-26400238D01*
X43135714Y-26305000D01*
X43040476Y-26257380D01*
X42230952Y-27209761D02*
X42088095Y-27257380D01*
X41850000Y-27257380D01*
X41754761Y-27209761D01*
X41707142Y-27162142D01*
X41659523Y-27066904D01*
X41659523Y-26971666D01*
X41707142Y-26876428D01*
X41754761Y-26828809D01*
X41850000Y-26781190D01*
X42040476Y-26733571D01*
X42135714Y-26685952D01*
X42183333Y-26638333D01*
X42230952Y-26543095D01*
X42230952Y-26447857D01*
X42183333Y-26352619D01*
X42135714Y-26305000D01*
X42040476Y-26257380D01*
X41802380Y-26257380D01*
X41659523Y-26305000D01*
X40897619Y-26733571D02*
X41230952Y-26733571D01*
X41230952Y-27257380D02*
X41230952Y-26257380D01*
X40754761Y-26257380D01*
X40373809Y-26733571D02*
X40040476Y-26733571D01*
X39897619Y-27257380D02*
X40373809Y-27257380D01*
X40373809Y-26257380D01*
X39897619Y-26257380D01*
X39611904Y-26257380D02*
X39040476Y-26257380D01*
X39326190Y-27257380D02*
X39326190Y-26257380D01*
X37373809Y-27162142D02*
X37421428Y-27209761D01*
X37564285Y-27257380D01*
X37659523Y-27257380D01*
X37802380Y-27209761D01*
X37897619Y-27114523D01*
X37945238Y-27019285D01*
X37992857Y-26828809D01*
X37992857Y-26685952D01*
X37945238Y-26495476D01*
X37897619Y-26400238D01*
X37802380Y-26305000D01*
X37659523Y-26257380D01*
X37564285Y-26257380D01*
X37421428Y-26305000D01*
X37373809Y-26352619D01*
X36945238Y-27257380D02*
X36945238Y-26257380D01*
X36516666Y-27257380D02*
X36516666Y-26733571D01*
X36564285Y-26638333D01*
X36659523Y-26590714D01*
X36802380Y-26590714D01*
X36897619Y-26638333D01*
X36945238Y-26685952D01*
X36040476Y-27257380D02*
X36040476Y-26590714D01*
X36040476Y-26257380D02*
X36088095Y-26305000D01*
X36040476Y-26352619D01*
X35992857Y-26305000D01*
X36040476Y-26257380D01*
X36040476Y-26352619D01*
X35564285Y-26590714D02*
X35564285Y-27590714D01*
X35564285Y-26638333D02*
X35469047Y-26590714D01*
X35278571Y-26590714D01*
X35183333Y-26638333D01*
X35135714Y-26685952D01*
X35088095Y-26781190D01*
X35088095Y-27066904D01*
X35135714Y-27162142D01*
X35183333Y-27209761D01*
X35278571Y-27257380D01*
X35469047Y-27257380D01*
X35564285Y-27209761D01*
X86214285Y-67557380D02*
X86214285Y-66557380D01*
X85833333Y-66557380D01*
X85738095Y-66605000D01*
X85690476Y-66652619D01*
X85642857Y-66747857D01*
X85642857Y-66890714D01*
X85690476Y-66985952D01*
X85738095Y-67033571D01*
X85833333Y-67081190D01*
X86214285Y-67081190D01*
X85071428Y-67557380D02*
X85166666Y-67509761D01*
X85214285Y-67462142D01*
X85261904Y-67366904D01*
X85261904Y-67081190D01*
X85214285Y-66985952D01*
X85166666Y-66938333D01*
X85071428Y-66890714D01*
X84928571Y-66890714D01*
X84833333Y-66938333D01*
X84785714Y-66985952D01*
X84738095Y-67081190D01*
X84738095Y-67366904D01*
X84785714Y-67462142D01*
X84833333Y-67509761D01*
X84928571Y-67557380D01*
X85071428Y-67557380D01*
X84404761Y-66890714D02*
X84214285Y-67557380D01*
X84023809Y-67081190D01*
X83833333Y-67557380D01*
X83642857Y-66890714D01*
X82880952Y-67509761D02*
X82976190Y-67557380D01*
X83166666Y-67557380D01*
X83261904Y-67509761D01*
X83309523Y-67414523D01*
X83309523Y-67033571D01*
X83261904Y-66938333D01*
X83166666Y-66890714D01*
X82976190Y-66890714D01*
X82880952Y-66938333D01*
X82833333Y-67033571D01*
X82833333Y-67128809D01*
X83309523Y-67224047D01*
X82404761Y-67557380D02*
X82404761Y-66890714D01*
X82404761Y-67081190D02*
X82357142Y-66985952D01*
X82309523Y-66938333D01*
X82214285Y-66890714D01*
X82119047Y-66890714D01*
X81023809Y-67557380D02*
X81023809Y-66557380D01*
X80690476Y-67271666D01*
X80357142Y-66557380D01*
X80357142Y-67557380D01*
X79690476Y-66557380D02*
X79500000Y-66557380D01*
X79404761Y-66605000D01*
X79309523Y-66700238D01*
X79261904Y-66890714D01*
X79261904Y-67224047D01*
X79309523Y-67414523D01*
X79404761Y-67509761D01*
X79500000Y-67557380D01*
X79690476Y-67557380D01*
X79785714Y-67509761D01*
X79880952Y-67414523D01*
X79928571Y-67224047D01*
X79928571Y-66890714D01*
X79880952Y-66700238D01*
X79785714Y-66605000D01*
X79690476Y-66557380D01*
X78880952Y-67509761D02*
X78738095Y-67557380D01*
X78500000Y-67557380D01*
X78404761Y-67509761D01*
X78357142Y-67462142D01*
X78309523Y-67366904D01*
X78309523Y-67271666D01*
X78357142Y-67176428D01*
X78404761Y-67128809D01*
X78500000Y-67081190D01*
X78690476Y-67033571D01*
X78785714Y-66985952D01*
X78833333Y-66938333D01*
X78880952Y-66843095D01*
X78880952Y-66747857D01*
X78833333Y-66652619D01*
X78785714Y-66605000D01*
X78690476Y-66557380D01*
X78452380Y-66557380D01*
X78309523Y-66605000D01*
X77547619Y-67033571D02*
X77880952Y-67033571D01*
X77880952Y-67557380D02*
X77880952Y-66557380D01*
X77404761Y-66557380D01*
X77023809Y-67033571D02*
X76690476Y-67033571D01*
X76547619Y-67557380D02*
X77023809Y-67557380D01*
X77023809Y-66557380D01*
X76547619Y-66557380D01*
X76261904Y-66557380D02*
X75690476Y-66557380D01*
X75976190Y-67557380D02*
X75976190Y-66557380D01*
X74023809Y-67462142D02*
X74071428Y-67509761D01*
X74214285Y-67557380D01*
X74309523Y-67557380D01*
X74452380Y-67509761D01*
X74547619Y-67414523D01*
X74595238Y-67319285D01*
X74642857Y-67128809D01*
X74642857Y-66985952D01*
X74595238Y-66795476D01*
X74547619Y-66700238D01*
X74452380Y-66605000D01*
X74309523Y-66557380D01*
X74214285Y-66557380D01*
X74071428Y-66605000D01*
X74023809Y-66652619D01*
X73595238Y-67557380D02*
X73595238Y-66557380D01*
X73166666Y-67557380D02*
X73166666Y-67033571D01*
X73214285Y-66938333D01*
X73309523Y-66890714D01*
X73452380Y-66890714D01*
X73547619Y-66938333D01*
X73595238Y-66985952D01*
X72690476Y-67557380D02*
X72690476Y-66890714D01*
X72690476Y-66557380D02*
X72738095Y-66605000D01*
X72690476Y-66652619D01*
X72642857Y-66605000D01*
X72690476Y-66557380D01*
X72690476Y-66652619D01*
X72214285Y-66890714D02*
X72214285Y-67890714D01*
X72214285Y-66938333D02*
X72119047Y-66890714D01*
X71928571Y-66890714D01*
X71833333Y-66938333D01*
X71785714Y-66985952D01*
X71738095Y-67081190D01*
X71738095Y-67366904D01*
X71785714Y-67462142D01*
X71833333Y-67509761D01*
X71928571Y-67557380D01*
X72119047Y-67557380D01*
X72214285Y-67509761D01*
X49564285Y-67557380D02*
X49564285Y-66557380D01*
X49183333Y-66557380D01*
X49088095Y-66605000D01*
X49040476Y-66652619D01*
X48992857Y-66747857D01*
X48992857Y-66890714D01*
X49040476Y-66985952D01*
X49088095Y-67033571D01*
X49183333Y-67081190D01*
X49564285Y-67081190D01*
X48421428Y-67557380D02*
X48516666Y-67509761D01*
X48564285Y-67462142D01*
X48611904Y-67366904D01*
X48611904Y-67081190D01*
X48564285Y-66985952D01*
X48516666Y-66938333D01*
X48421428Y-66890714D01*
X48278571Y-66890714D01*
X48183333Y-66938333D01*
X48135714Y-66985952D01*
X48088095Y-67081190D01*
X48088095Y-67366904D01*
X48135714Y-67462142D01*
X48183333Y-67509761D01*
X48278571Y-67557380D01*
X48421428Y-67557380D01*
X47754761Y-66890714D02*
X47564285Y-67557380D01*
X47373809Y-67081190D01*
X47183333Y-67557380D01*
X46992857Y-66890714D01*
X46230952Y-67509761D02*
X46326190Y-67557380D01*
X46516666Y-67557380D01*
X46611904Y-67509761D01*
X46659523Y-67414523D01*
X46659523Y-67033571D01*
X46611904Y-66938333D01*
X46516666Y-66890714D01*
X46326190Y-66890714D01*
X46230952Y-66938333D01*
X46183333Y-67033571D01*
X46183333Y-67128809D01*
X46659523Y-67224047D01*
X45754761Y-67557380D02*
X45754761Y-66890714D01*
X45754761Y-67081190D02*
X45707142Y-66985952D01*
X45659523Y-66938333D01*
X45564285Y-66890714D01*
X45469047Y-66890714D01*
X44373809Y-67557380D02*
X44373809Y-66557380D01*
X44040476Y-67271666D01*
X43707142Y-66557380D01*
X43707142Y-67557380D01*
X43040476Y-66557380D02*
X42850000Y-66557380D01*
X42754761Y-66605000D01*
X42659523Y-66700238D01*
X42611904Y-66890714D01*
X42611904Y-67224047D01*
X42659523Y-67414523D01*
X42754761Y-67509761D01*
X42850000Y-67557380D01*
X43040476Y-67557380D01*
X43135714Y-67509761D01*
X43230952Y-67414523D01*
X43278571Y-67224047D01*
X43278571Y-66890714D01*
X43230952Y-66700238D01*
X43135714Y-66605000D01*
X43040476Y-66557380D01*
X42230952Y-67509761D02*
X42088095Y-67557380D01*
X41850000Y-67557380D01*
X41754761Y-67509761D01*
X41707142Y-67462142D01*
X41659523Y-67366904D01*
X41659523Y-67271666D01*
X41707142Y-67176428D01*
X41754761Y-67128809D01*
X41850000Y-67081190D01*
X42040476Y-67033571D01*
X42135714Y-66985952D01*
X42183333Y-66938333D01*
X42230952Y-66843095D01*
X42230952Y-66747857D01*
X42183333Y-66652619D01*
X42135714Y-66605000D01*
X42040476Y-66557380D01*
X41802380Y-66557380D01*
X41659523Y-66605000D01*
X40897619Y-67033571D02*
X41230952Y-67033571D01*
X41230952Y-67557380D02*
X41230952Y-66557380D01*
X40754761Y-66557380D01*
X40373809Y-67033571D02*
X40040476Y-67033571D01*
X39897619Y-67557380D02*
X40373809Y-67557380D01*
X40373809Y-66557380D01*
X39897619Y-66557380D01*
X39611904Y-66557380D02*
X39040476Y-66557380D01*
X39326190Y-67557380D02*
X39326190Y-66557380D01*
X37373809Y-67462142D02*
X37421428Y-67509761D01*
X37564285Y-67557380D01*
X37659523Y-67557380D01*
X37802380Y-67509761D01*
X37897619Y-67414523D01*
X37945238Y-67319285D01*
X37992857Y-67128809D01*
X37992857Y-66985952D01*
X37945238Y-66795476D01*
X37897619Y-66700238D01*
X37802380Y-66605000D01*
X37659523Y-66557380D01*
X37564285Y-66557380D01*
X37421428Y-66605000D01*
X37373809Y-66652619D01*
X36945238Y-67557380D02*
X36945238Y-66557380D01*
X36516666Y-67557380D02*
X36516666Y-67033571D01*
X36564285Y-66938333D01*
X36659523Y-66890714D01*
X36802380Y-66890714D01*
X36897619Y-66938333D01*
X36945238Y-66985952D01*
X36040476Y-67557380D02*
X36040476Y-66890714D01*
X36040476Y-66557380D02*
X36088095Y-66605000D01*
X36040476Y-66652619D01*
X35992857Y-66605000D01*
X36040476Y-66557380D01*
X36040476Y-66652619D01*
X35564285Y-66890714D02*
X35564285Y-67890714D01*
X35564285Y-66938333D02*
X35469047Y-66890714D01*
X35278571Y-66890714D01*
X35183333Y-66938333D01*
X35135714Y-66985952D01*
X35088095Y-67081190D01*
X35088095Y-67366904D01*
X35135714Y-67462142D01*
X35183333Y-67509761D01*
X35278571Y-67557380D01*
X35469047Y-67557380D01*
X35564285Y-67509761D01*
X86214285Y-47407380D02*
X86214285Y-46407380D01*
X85833333Y-46407380D01*
X85738095Y-46455000D01*
X85690476Y-46502619D01*
X85642857Y-46597857D01*
X85642857Y-46740714D01*
X85690476Y-46835952D01*
X85738095Y-46883571D01*
X85833333Y-46931190D01*
X86214285Y-46931190D01*
X85071428Y-47407380D02*
X85166666Y-47359761D01*
X85214285Y-47312142D01*
X85261904Y-47216904D01*
X85261904Y-46931190D01*
X85214285Y-46835952D01*
X85166666Y-46788333D01*
X85071428Y-46740714D01*
X84928571Y-46740714D01*
X84833333Y-46788333D01*
X84785714Y-46835952D01*
X84738095Y-46931190D01*
X84738095Y-47216904D01*
X84785714Y-47312142D01*
X84833333Y-47359761D01*
X84928571Y-47407380D01*
X85071428Y-47407380D01*
X84404761Y-46740714D02*
X84214285Y-47407380D01*
X84023809Y-46931190D01*
X83833333Y-47407380D01*
X83642857Y-46740714D01*
X82880952Y-47359761D02*
X82976190Y-47407380D01*
X83166666Y-47407380D01*
X83261904Y-47359761D01*
X83309523Y-47264523D01*
X83309523Y-46883571D01*
X83261904Y-46788333D01*
X83166666Y-46740714D01*
X82976190Y-46740714D01*
X82880952Y-46788333D01*
X82833333Y-46883571D01*
X82833333Y-46978809D01*
X83309523Y-47074047D01*
X82404761Y-47407380D02*
X82404761Y-46740714D01*
X82404761Y-46931190D02*
X82357142Y-46835952D01*
X82309523Y-46788333D01*
X82214285Y-46740714D01*
X82119047Y-46740714D01*
X81023809Y-47407380D02*
X81023809Y-46407380D01*
X80690476Y-47121666D01*
X80357142Y-46407380D01*
X80357142Y-47407380D01*
X79690476Y-46407380D02*
X79500000Y-46407380D01*
X79404761Y-46455000D01*
X79309523Y-46550238D01*
X79261904Y-46740714D01*
X79261904Y-47074047D01*
X79309523Y-47264523D01*
X79404761Y-47359761D01*
X79500000Y-47407380D01*
X79690476Y-47407380D01*
X79785714Y-47359761D01*
X79880952Y-47264523D01*
X79928571Y-47074047D01*
X79928571Y-46740714D01*
X79880952Y-46550238D01*
X79785714Y-46455000D01*
X79690476Y-46407380D01*
X78880952Y-47359761D02*
X78738095Y-47407380D01*
X78500000Y-47407380D01*
X78404761Y-47359761D01*
X78357142Y-47312142D01*
X78309523Y-47216904D01*
X78309523Y-47121666D01*
X78357142Y-47026428D01*
X78404761Y-46978809D01*
X78500000Y-46931190D01*
X78690476Y-46883571D01*
X78785714Y-46835952D01*
X78833333Y-46788333D01*
X78880952Y-46693095D01*
X78880952Y-46597857D01*
X78833333Y-46502619D01*
X78785714Y-46455000D01*
X78690476Y-46407380D01*
X78452380Y-46407380D01*
X78309523Y-46455000D01*
X77547619Y-46883571D02*
X77880952Y-46883571D01*
X77880952Y-47407380D02*
X77880952Y-46407380D01*
X77404761Y-46407380D01*
X77023809Y-46883571D02*
X76690476Y-46883571D01*
X76547619Y-47407380D02*
X77023809Y-47407380D01*
X77023809Y-46407380D01*
X76547619Y-46407380D01*
X76261904Y-46407380D02*
X75690476Y-46407380D01*
X75976190Y-47407380D02*
X75976190Y-46407380D01*
X74023809Y-47312142D02*
X74071428Y-47359761D01*
X74214285Y-47407380D01*
X74309523Y-47407380D01*
X74452380Y-47359761D01*
X74547619Y-47264523D01*
X74595238Y-47169285D01*
X74642857Y-46978809D01*
X74642857Y-46835952D01*
X74595238Y-46645476D01*
X74547619Y-46550238D01*
X74452380Y-46455000D01*
X74309523Y-46407380D01*
X74214285Y-46407380D01*
X74071428Y-46455000D01*
X74023809Y-46502619D01*
X73595238Y-47407380D02*
X73595238Y-46407380D01*
X73166666Y-47407380D02*
X73166666Y-46883571D01*
X73214285Y-46788333D01*
X73309523Y-46740714D01*
X73452380Y-46740714D01*
X73547619Y-46788333D01*
X73595238Y-46835952D01*
X72690476Y-47407380D02*
X72690476Y-46740714D01*
X72690476Y-46407380D02*
X72738095Y-46455000D01*
X72690476Y-46502619D01*
X72642857Y-46455000D01*
X72690476Y-46407380D01*
X72690476Y-46502619D01*
X72214285Y-46740714D02*
X72214285Y-47740714D01*
X72214285Y-46788333D02*
X72119047Y-46740714D01*
X71928571Y-46740714D01*
X71833333Y-46788333D01*
X71785714Y-46835952D01*
X71738095Y-46931190D01*
X71738095Y-47216904D01*
X71785714Y-47312142D01*
X71833333Y-47359761D01*
X71928571Y-47407380D01*
X72119047Y-47407380D01*
X72214285Y-47359761D01*
X49564285Y-47407380D02*
X49564285Y-46407380D01*
X49183333Y-46407380D01*
X49088095Y-46455000D01*
X49040476Y-46502619D01*
X48992857Y-46597857D01*
X48992857Y-46740714D01*
X49040476Y-46835952D01*
X49088095Y-46883571D01*
X49183333Y-46931190D01*
X49564285Y-46931190D01*
X48421428Y-47407380D02*
X48516666Y-47359761D01*
X48564285Y-47312142D01*
X48611904Y-47216904D01*
X48611904Y-46931190D01*
X48564285Y-46835952D01*
X48516666Y-46788333D01*
X48421428Y-46740714D01*
X48278571Y-46740714D01*
X48183333Y-46788333D01*
X48135714Y-46835952D01*
X48088095Y-46931190D01*
X48088095Y-47216904D01*
X48135714Y-47312142D01*
X48183333Y-47359761D01*
X48278571Y-47407380D01*
X48421428Y-47407380D01*
X47754761Y-46740714D02*
X47564285Y-47407380D01*
X47373809Y-46931190D01*
X47183333Y-47407380D01*
X46992857Y-46740714D01*
X46230952Y-47359761D02*
X46326190Y-47407380D01*
X46516666Y-47407380D01*
X46611904Y-47359761D01*
X46659523Y-47264523D01*
X46659523Y-46883571D01*
X46611904Y-46788333D01*
X46516666Y-46740714D01*
X46326190Y-46740714D01*
X46230952Y-46788333D01*
X46183333Y-46883571D01*
X46183333Y-46978809D01*
X46659523Y-47074047D01*
X45754761Y-47407380D02*
X45754761Y-46740714D01*
X45754761Y-46931190D02*
X45707142Y-46835952D01*
X45659523Y-46788333D01*
X45564285Y-46740714D01*
X45469047Y-46740714D01*
X44373809Y-47407380D02*
X44373809Y-46407380D01*
X44040476Y-47121666D01*
X43707142Y-46407380D01*
X43707142Y-47407380D01*
X43040476Y-46407380D02*
X42850000Y-46407380D01*
X42754761Y-46455000D01*
X42659523Y-46550238D01*
X42611904Y-46740714D01*
X42611904Y-47074047D01*
X42659523Y-47264523D01*
X42754761Y-47359761D01*
X42850000Y-47407380D01*
X43040476Y-47407380D01*
X43135714Y-47359761D01*
X43230952Y-47264523D01*
X43278571Y-47074047D01*
X43278571Y-46740714D01*
X43230952Y-46550238D01*
X43135714Y-46455000D01*
X43040476Y-46407380D01*
X42230952Y-47359761D02*
X42088095Y-47407380D01*
X41850000Y-47407380D01*
X41754761Y-47359761D01*
X41707142Y-47312142D01*
X41659523Y-47216904D01*
X41659523Y-47121666D01*
X41707142Y-47026428D01*
X41754761Y-46978809D01*
X41850000Y-46931190D01*
X42040476Y-46883571D01*
X42135714Y-46835952D01*
X42183333Y-46788333D01*
X42230952Y-46693095D01*
X42230952Y-46597857D01*
X42183333Y-46502619D01*
X42135714Y-46455000D01*
X42040476Y-46407380D01*
X41802380Y-46407380D01*
X41659523Y-46455000D01*
X40897619Y-46883571D02*
X41230952Y-46883571D01*
X41230952Y-47407380D02*
X41230952Y-46407380D01*
X40754761Y-46407380D01*
X40373809Y-46883571D02*
X40040476Y-46883571D01*
X39897619Y-47407380D02*
X40373809Y-47407380D01*
X40373809Y-46407380D01*
X39897619Y-46407380D01*
X39611904Y-46407380D02*
X39040476Y-46407380D01*
X39326190Y-47407380D02*
X39326190Y-46407380D01*
X37373809Y-47312142D02*
X37421428Y-47359761D01*
X37564285Y-47407380D01*
X37659523Y-47407380D01*
X37802380Y-47359761D01*
X37897619Y-47264523D01*
X37945238Y-47169285D01*
X37992857Y-46978809D01*
X37992857Y-46835952D01*
X37945238Y-46645476D01*
X37897619Y-46550238D01*
X37802380Y-46455000D01*
X37659523Y-46407380D01*
X37564285Y-46407380D01*
X37421428Y-46455000D01*
X37373809Y-46502619D01*
X36945238Y-47407380D02*
X36945238Y-46407380D01*
X36516666Y-47407380D02*
X36516666Y-46883571D01*
X36564285Y-46788333D01*
X36659523Y-46740714D01*
X36802380Y-46740714D01*
X36897619Y-46788333D01*
X36945238Y-46835952D01*
X36040476Y-47407380D02*
X36040476Y-46740714D01*
X36040476Y-46407380D02*
X36088095Y-46455000D01*
X36040476Y-46502619D01*
X35992857Y-46455000D01*
X36040476Y-46407380D01*
X36040476Y-46502619D01*
X35564285Y-46740714D02*
X35564285Y-47740714D01*
X35564285Y-46788333D02*
X35469047Y-46740714D01*
X35278571Y-46740714D01*
X35183333Y-46788333D01*
X35135714Y-46835952D01*
X35088095Y-46931190D01*
X35088095Y-47216904D01*
X35135714Y-47312142D01*
X35183333Y-47359761D01*
X35278571Y-47407380D01*
X35469047Y-47407380D01*
X35564285Y-47359761D01*
X86214285Y-27257380D02*
X86214285Y-26257380D01*
X85833333Y-26257380D01*
X85738095Y-26305000D01*
X85690476Y-26352619D01*
X85642857Y-26447857D01*
X85642857Y-26590714D01*
X85690476Y-26685952D01*
X85738095Y-26733571D01*
X85833333Y-26781190D01*
X86214285Y-26781190D01*
X85071428Y-27257380D02*
X85166666Y-27209761D01*
X85214285Y-27162142D01*
X85261904Y-27066904D01*
X85261904Y-26781190D01*
X85214285Y-26685952D01*
X85166666Y-26638333D01*
X85071428Y-26590714D01*
X84928571Y-26590714D01*
X84833333Y-26638333D01*
X84785714Y-26685952D01*
X84738095Y-26781190D01*
X84738095Y-27066904D01*
X84785714Y-27162142D01*
X84833333Y-27209761D01*
X84928571Y-27257380D01*
X85071428Y-27257380D01*
X84404761Y-26590714D02*
X84214285Y-27257380D01*
X84023809Y-26781190D01*
X83833333Y-27257380D01*
X83642857Y-26590714D01*
X82880952Y-27209761D02*
X82976190Y-27257380D01*
X83166666Y-27257380D01*
X83261904Y-27209761D01*
X83309523Y-27114523D01*
X83309523Y-26733571D01*
X83261904Y-26638333D01*
X83166666Y-26590714D01*
X82976190Y-26590714D01*
X82880952Y-26638333D01*
X82833333Y-26733571D01*
X82833333Y-26828809D01*
X83309523Y-26924047D01*
X82404761Y-27257380D02*
X82404761Y-26590714D01*
X82404761Y-26781190D02*
X82357142Y-26685952D01*
X82309523Y-26638333D01*
X82214285Y-26590714D01*
X82119047Y-26590714D01*
X81023809Y-27257380D02*
X81023809Y-26257380D01*
X80690476Y-26971666D01*
X80357142Y-26257380D01*
X80357142Y-27257380D01*
X79690476Y-26257380D02*
X79500000Y-26257380D01*
X79404761Y-26305000D01*
X79309523Y-26400238D01*
X79261904Y-26590714D01*
X79261904Y-26924047D01*
X79309523Y-27114523D01*
X79404761Y-27209761D01*
X79500000Y-27257380D01*
X79690476Y-27257380D01*
X79785714Y-27209761D01*
X79880952Y-27114523D01*
X79928571Y-26924047D01*
X79928571Y-26590714D01*
X79880952Y-26400238D01*
X79785714Y-26305000D01*
X79690476Y-26257380D01*
X78880952Y-27209761D02*
X78738095Y-27257380D01*
X78500000Y-27257380D01*
X78404761Y-27209761D01*
X78357142Y-27162142D01*
X78309523Y-27066904D01*
X78309523Y-26971666D01*
X78357142Y-26876428D01*
X78404761Y-26828809D01*
X78500000Y-26781190D01*
X78690476Y-26733571D01*
X78785714Y-26685952D01*
X78833333Y-26638333D01*
X78880952Y-26543095D01*
X78880952Y-26447857D01*
X78833333Y-26352619D01*
X78785714Y-26305000D01*
X78690476Y-26257380D01*
X78452380Y-26257380D01*
X78309523Y-26305000D01*
X77547619Y-26733571D02*
X77880952Y-26733571D01*
X77880952Y-27257380D02*
X77880952Y-26257380D01*
X77404761Y-26257380D01*
X77023809Y-26733571D02*
X76690476Y-26733571D01*
X76547619Y-27257380D02*
X77023809Y-27257380D01*
X77023809Y-26257380D01*
X76547619Y-26257380D01*
X76261904Y-26257380D02*
X75690476Y-26257380D01*
X75976190Y-27257380D02*
X75976190Y-26257380D01*
X74023809Y-27162142D02*
X74071428Y-27209761D01*
X74214285Y-27257380D01*
X74309523Y-27257380D01*
X74452380Y-27209761D01*
X74547619Y-27114523D01*
X74595238Y-27019285D01*
X74642857Y-26828809D01*
X74642857Y-26685952D01*
X74595238Y-26495476D01*
X74547619Y-26400238D01*
X74452380Y-26305000D01*
X74309523Y-26257380D01*
X74214285Y-26257380D01*
X74071428Y-26305000D01*
X74023809Y-26352619D01*
X73595238Y-27257380D02*
X73595238Y-26257380D01*
X73166666Y-27257380D02*
X73166666Y-26733571D01*
X73214285Y-26638333D01*
X73309523Y-26590714D01*
X73452380Y-26590714D01*
X73547619Y-26638333D01*
X73595238Y-26685952D01*
X72690476Y-27257380D02*
X72690476Y-26590714D01*
X72690476Y-26257380D02*
X72738095Y-26305000D01*
X72690476Y-26352619D01*
X72642857Y-26305000D01*
X72690476Y-26257380D01*
X72690476Y-26352619D01*
X72214285Y-26590714D02*
X72214285Y-27590714D01*
X72214285Y-26638333D02*
X72119047Y-26590714D01*
X71928571Y-26590714D01*
X71833333Y-26638333D01*
X71785714Y-26685952D01*
X71738095Y-26781190D01*
X71738095Y-27066904D01*
X71785714Y-27162142D01*
X71833333Y-27209761D01*
X71928571Y-27257380D01*
X72119047Y-27257380D01*
X72214285Y-27209761D01*
%LPC*%
D12*
X22000000Y-15500000D03*
X22002801Y-71879999D03*
X22001895Y-28580000D03*
X84084999Y-62303802D03*
X35216666Y-59303045D03*
D13*
X68750012Y-50514990D03*
X68750012Y-55594990D03*
D12*
X15500000Y-79460000D03*
X66865000Y-42158801D03*
X32216666Y-59303499D03*
X34216666Y-79456803D03*
X22000000Y-19500000D03*
X79085000Y-62303046D03*
X84084999Y-39158801D03*
X58648104Y-68880000D03*
X67865000Y-62301349D03*
X58647499Y-50730000D03*
X47433333Y-59301197D03*
X66865000Y-62301198D03*
X79085000Y-42156953D03*
X67865000Y-39156348D03*
D13*
X50149988Y-35405010D03*
X50149988Y-30325010D03*
D14*
X23800002Y-57554998D03*
D12*
X92305000Y-82960000D03*
X36216666Y-62302104D03*
X31216666Y-42158651D03*
X55646594Y-67880000D03*
X55648406Y-33579999D03*
X55646592Y-47730000D03*
X22001593Y-27580000D03*
X79085000Y-22003046D03*
X92305000Y-16500000D03*
X55646896Y-28580000D03*
X82084999Y-59301500D03*
X58648406Y-27580000D03*
X81085000Y-59301651D03*
X44433333Y-22003348D03*
X92305000Y-15500000D03*
X71864999Y-39156953D03*
X66865000Y-59303802D03*
X22003103Y-32579999D03*
X41433333Y-42157105D03*
X44433333Y-59301651D03*
X34216666Y-42158197D03*
X55646594Y-27580000D03*
X45433333Y-62303499D03*
X83084999Y-59301349D03*
X31216666Y-59303650D03*
X22002802Y-51729999D03*
D14*
X60450002Y-64054988D03*
D12*
X33216666Y-59303348D03*
X66865000Y-22001198D03*
X18500000Y-22000000D03*
X55646896Y-68880000D03*
X69865000Y-59303348D03*
X72864999Y-59302895D03*
X46433333Y-62303650D03*
X31216666Y-79456349D03*
X22003407Y-53729999D03*
D15*
X49375000Y-24005000D03*
D16*
X51915009Y-24005008D03*
D12*
X81085000Y-39158348D03*
X41433333Y-22002894D03*
X81085000Y-42156651D03*
D15*
X49375000Y-64305000D03*
D16*
X51915009Y-64305008D03*
D12*
X72864999Y-62302105D03*
X78085000Y-22002895D03*
X82084999Y-62303500D03*
X70864999Y-79456802D03*
X94805000Y-79460000D03*
X70864999Y-39156802D03*
X47433333Y-62303802D03*
X19500000Y-79460000D03*
X30216666Y-22001197D03*
D17*
X40300000Y-51255000D03*
D18*
X40299995Y-53794994D03*
X40299995Y-56334994D03*
D12*
X78085000Y-62302895D03*
X72864999Y-42157894D03*
X55647802Y-71879999D03*
X58646594Y-33579999D03*
X92301594Y-53729999D03*
X84084999Y-59301198D03*
X45433333Y-79458500D03*
X43433333Y-22003196D03*
X33216666Y-62301651D03*
X41433333Y-79457895D03*
D14*
X23800002Y-23754988D03*
D12*
X22003405Y-33579999D03*
X92305000Y-85960000D03*
X46433333Y-42156349D03*
X98805000Y-22000000D03*
X98805000Y-79460000D03*
D14*
X23800002Y-77704998D03*
D12*
X69865000Y-79456651D03*
X43433333Y-39158197D03*
X84084999Y-79458801D03*
X55647198Y-69880000D03*
X58648405Y-47730000D03*
X58646592Y-53729999D03*
D14*
X23800002Y-43904988D03*
D12*
X96805000Y-79460000D03*
X66865000Y-39156197D03*
X58647801Y-49730000D03*
X35216666Y-79456954D03*
X36216666Y-59302894D03*
X30216666Y-79456197D03*
D13*
X50149988Y-55555010D03*
X50149988Y-50475010D03*
D12*
X80085000Y-79458196D03*
X58647500Y-30580000D03*
X79085000Y-79458045D03*
X92301593Y-73879999D03*
X81085000Y-79458348D03*
X41433333Y-59302104D03*
X83084999Y-42156348D03*
X55647500Y-30580000D03*
X68865000Y-59303500D03*
X43433333Y-42156803D03*
X22001896Y-48730000D03*
D17*
X76950000Y-51255000D03*
D18*
X76949995Y-53794994D03*
X76949995Y-56334994D03*
D12*
X80085000Y-42156802D03*
X22002801Y-31579999D03*
D15*
X86025000Y-64305000D03*
D16*
X88565009Y-64305008D03*
D14*
X23800002Y-64054988D03*
D12*
X58648103Y-48730000D03*
X71864999Y-42158045D03*
X82084999Y-39158499D03*
X22002500Y-50730000D03*
X32216666Y-42158500D03*
X92301593Y-33579999D03*
X32216666Y-22001499D03*
X58647802Y-29580000D03*
X55646894Y-48730000D03*
X92302499Y-70880000D03*
X46433333Y-59301348D03*
X55647801Y-51729999D03*
X55648406Y-73879999D03*
D14*
X60450002Y-43904988D03*
D12*
X15500000Y-22000000D03*
X41433333Y-62302894D03*
X70864999Y-59303197D03*
X42433333Y-39158046D03*
X30216666Y-42158802D03*
X16500000Y-22000000D03*
D13*
X86799988Y-75705010D03*
X86799988Y-70625010D03*
D12*
X83084999Y-39158650D03*
X22002499Y-70880000D03*
X32216666Y-39156500D03*
X35216666Y-39156954D03*
X17500000Y-22000000D03*
X30216666Y-62301197D03*
X82084999Y-22003500D03*
X92305000Y-84960000D03*
D17*
X76950000Y-31105000D03*
D18*
X76949995Y-33644994D03*
X76949995Y-36184994D03*
D12*
X70864999Y-62301803D03*
X36216666Y-79457105D03*
X67865000Y-42158650D03*
X92303105Y-48730000D03*
X92302500Y-50730000D03*
X92303103Y-28580000D03*
X92305000Y-81960000D03*
X67865000Y-59303651D03*
X30216666Y-39156197D03*
X35216666Y-62301953D03*
X92303103Y-68880000D03*
X55648104Y-72879999D03*
X67865000Y-22001349D03*
D13*
X86799988Y-35405010D03*
X86799988Y-30325010D03*
D14*
X60450002Y-77704998D03*
D12*
X31216666Y-62301348D03*
X82084999Y-79458499D03*
D13*
X68750012Y-30364990D03*
X68750012Y-35444990D03*
D12*
X30216666Y-59303802D03*
X78085000Y-42157104D03*
X44433333Y-39158348D03*
X22003105Y-52729999D03*
X96805000Y-22000000D03*
X32216666Y-79456500D03*
X68865000Y-79456499D03*
X58647198Y-71879999D03*
X22003405Y-73879999D03*
X78085000Y-39157894D03*
X33216666Y-42158348D03*
X36216666Y-39157105D03*
X35216666Y-42158046D03*
X43433333Y-59301802D03*
X92302801Y-29580000D03*
X34216666Y-22001802D03*
X68865000Y-42158499D03*
X83084999Y-22003651D03*
X92302499Y-30580000D03*
X34216666Y-62301802D03*
X55647500Y-70880000D03*
X92302197Y-31579999D03*
X58647198Y-31579999D03*
X22002197Y-29580000D03*
X66865000Y-79456197D03*
X71864999Y-79456953D03*
X33216666Y-39156651D03*
X79085000Y-39158045D03*
X80085000Y-59301803D03*
D14*
X60450002Y-37404998D03*
D12*
X83084999Y-62303651D03*
D15*
X49375000Y-44155000D03*
D16*
X51915009Y-44155008D03*
D12*
X22000000Y-85960000D03*
X22000000Y-83960000D03*
D15*
X86025000Y-44155000D03*
D16*
X88565009Y-44155008D03*
D12*
X46433333Y-39158651D03*
X55647198Y-29580000D03*
X92303405Y-27580000D03*
D13*
X50149988Y-75705010D03*
X50149988Y-70625010D03*
D12*
X81085000Y-62303348D03*
X92303405Y-67880000D03*
X36216666Y-22002104D03*
X92302198Y-51729999D03*
X22000000Y-18500000D03*
X55648405Y-53729999D03*
X22003103Y-72879999D03*
X44433333Y-42156651D03*
X79085000Y-59301954D03*
X83084999Y-79458650D03*
X72864999Y-79457104D03*
X22002499Y-30580000D03*
X69865000Y-39156651D03*
D14*
X60450002Y-23754988D03*
D12*
X58648104Y-28580000D03*
X71864999Y-22001954D03*
X92305000Y-19500000D03*
D13*
X32100012Y-50514990D03*
X32100012Y-55594990D03*
D12*
X22002198Y-49730000D03*
X42433333Y-42156954D03*
X58647500Y-70880000D03*
X41433333Y-39157895D03*
X78085000Y-59302105D03*
X45433333Y-39158500D03*
X69865000Y-22001651D03*
X55647499Y-50730000D03*
D13*
X32100012Y-70664990D03*
X32100012Y-75744990D03*
D15*
X86025000Y-24005000D03*
D16*
X88565009Y-24005008D03*
D12*
X92303407Y-47730000D03*
X92301895Y-32579999D03*
X45433333Y-42156500D03*
X92305000Y-18500000D03*
D13*
X68750012Y-70664990D03*
X68750012Y-75744990D03*
D12*
X68865000Y-62301500D03*
X22000000Y-16500000D03*
X80085000Y-62303197D03*
X34216666Y-59303196D03*
X44433333Y-79458348D03*
X42433333Y-59301953D03*
X17500000Y-79460000D03*
X92305000Y-83960000D03*
X33216666Y-79456651D03*
X84084999Y-22003802D03*
X58647197Y-51729999D03*
X80085000Y-22003197D03*
X71864999Y-59303046D03*
X92302197Y-71879999D03*
X22000000Y-17500000D03*
X97805000Y-79460000D03*
X36216666Y-42157895D03*
X45433333Y-22003499D03*
X72864999Y-39157104D03*
X71864999Y-62301954D03*
X42433333Y-62303045D03*
X69865000Y-62301651D03*
X95805000Y-79460000D03*
X22000000Y-82960000D03*
X92305000Y-17500000D03*
X58646896Y-32579999D03*
X44433333Y-62303348D03*
X84084999Y-42156197D03*
X78085000Y-79457894D03*
X92302801Y-69880000D03*
X46433333Y-22003650D03*
X22001895Y-68880000D03*
X47433333Y-22003802D03*
X69865000Y-42158348D03*
X22002197Y-69880000D03*
X43433333Y-79458197D03*
X35216666Y-22001953D03*
X33216666Y-22001651D03*
X32216666Y-62301499D03*
X58646894Y-52729999D03*
X80085000Y-39158196D03*
X68865000Y-22001500D03*
D17*
X40300000Y-31105000D03*
D18*
X40299995Y-33644994D03*
X40299995Y-36184994D03*
D12*
X31216666Y-39156349D03*
X22000000Y-81960000D03*
X94805000Y-22000000D03*
X68865000Y-39156499D03*
X55647802Y-31579999D03*
X42433333Y-79458046D03*
X55647197Y-49730000D03*
X82084999Y-42156499D03*
D13*
X32100012Y-30364990D03*
X32100012Y-35444990D03*
D12*
X55648104Y-32579999D03*
X92301896Y-52729999D03*
X92301895Y-72879999D03*
D14*
X23800002Y-37404998D03*
D12*
X43433333Y-62303196D03*
D17*
X76950000Y-71405000D03*
D18*
X76949995Y-73944994D03*
X76949995Y-76484994D03*
D13*
X86799988Y-55555010D03*
X86799988Y-50475010D03*
D12*
X34216666Y-39156803D03*
X55648103Y-52729999D03*
D14*
X60450002Y-57554998D03*
D12*
X19500000Y-22000000D03*
D17*
X40300000Y-71405000D03*
D18*
X40299995Y-73944994D03*
X40299995Y-76484994D03*
D12*
X92302802Y-49730000D03*
X95805000Y-22000000D03*
X70864999Y-22001803D03*
X58648406Y-67880000D03*
X47433333Y-39158802D03*
X42433333Y-22003045D03*
X22001593Y-67880000D03*
X31216666Y-22001348D03*
X67865000Y-79456348D03*
X81085000Y-22003348D03*
X45433333Y-59301499D03*
X72864999Y-22002105D03*
X58646896Y-72879999D03*
X58647802Y-69880000D03*
X47433333Y-42156197D03*
X47433333Y-79458802D03*
X58646594Y-73879999D03*
X46433333Y-79458651D03*
X22000000Y-84960000D03*
X18500000Y-79460000D03*
X70864999Y-42158196D03*
X16500000Y-79460000D03*
X97805000Y-22000000D03*
X22001594Y-47730000D03*
M02*
